<svg width="64" height="64" viewBox="0 0 64 64" fill="none" xmlns="http://www.w3.org/2000/svg">
<g clip-path="url(#clip0_1403:1738)">
<path d="M32.0127 43.3051C31.2496 42.7271 30.3124 42.5361 29.4381 42.6991C29.3008 41.8708 28.8598 41.1383 28.1878 40.6293C27.4914 40.1019 26.6316 39.8774 25.7663 39.9968C25.5519 40.0264 25.3436 40.0764 25.1434 40.1453C24.9536 39.4947 24.5615 38.8972 23.9809 38.4574C23.0245 37.733 21.795 37.6172 20.7585 38.0434C20.5522 37.4223 20.1645 36.8778 19.6315 36.474C18.9353 35.9467 18.075 35.7223 17.21 35.8416C16.5084 35.9384 15.8717 36.2522 15.3747 36.7385L11.9432 36.5104L14.0464 19.4251L17.8152 19.6812C17.8365 19.6826 17.8578 19.6834 17.8789 19.6834C18.2287 19.6834 18.5518 19.4879 18.7129 19.1734L20.1253 16.4175C20.4832 15.7199 21.291 15.3653 22.0464 15.5744L24.1439 16.1544C24.6425 16.292 25.1593 15.9996 25.2974 15.5006C25.4354 15.0016 25.1426 14.4851 24.6436 14.3471L22.5465 13.7673C20.939 13.3223 19.219 14.0768 18.4572 15.5619L17.3263 17.7685L14.2761 17.5613L14.3483 16.9743C14.5793 15.0981 13.2409 13.384 11.3648 13.153L4.14135 12.2643C3.6266 12.2013 3.1596 12.5664 3.09636 13.0801C3.03311 13.594 3.39848 14.0619 3.91223 14.1251L11.1357 15.0144C11.5474 15.065 11.9148 15.273 12.1701 15.6C12.4253 15.927 12.5381 16.3339 12.4873 16.7456L10.0068 36.8955C9.9022 37.7454 9.12546 38.3513 8.27559 38.2473L1.05211 37.358C0.537615 37.2953 0.0703667 37.66 0.00711693 38.1739C-0.0561328 38.6878 0.309241 39.1557 0.822989 39.2189L8.04646 40.1082C8.18796 40.1255 8.32858 40.134 8.46771 40.134C9.73395 40.134 10.8763 39.4305 11.4682 38.3582L14.0353 38.5288C13.7284 39.1228 13.6108 39.7952 13.7041 40.471C13.8236 41.3362 14.2728 42.1032 14.9691 42.6304C15.5432 43.0653 16.2284 43.2941 16.9364 43.2941C17.087 43.2941 17.2387 43.2838 17.3905 43.2629C17.4003 43.2615 17.4098 43.2596 17.4194 43.2581C17.4207 43.2679 17.4214 43.2775 17.4227 43.2873C17.5422 44.1524 17.9914 44.9194 18.6877 45.4466C19.277 45.8929 19.97 46.1085 20.6579 46.1085C20.8192 46.1085 20.98 46.0954 21.1393 46.0719C21.2473 46.9129 21.6787 47.7118 22.4064 48.2629C22.9958 48.7092 23.6888 48.9247 24.3766 48.9247C24.5374 48.9247 24.6978 48.9117 24.8565 48.8884C24.8579 48.8987 24.8586 48.9092 24.86 48.9196C24.9795 49.7847 25.4288 50.5517 26.1251 51.079C26.6993 51.5137 27.3845 51.7427 28.0924 51.7427C28.2431 51.7427 28.3948 51.7324 28.5465 51.7115C29.4118 51.592 30.1786 51.1427 30.7059 50.4465L32.6451 47.8859C33.7339 46.4486 33.4501 44.3936 32.0127 43.3051ZM17.1342 41.4057C16.7653 41.4567 16.3983 41.3608 16.1013 41.1358C15.8043 40.9109 15.6127 40.5837 15.5617 40.2147C15.5107 39.8455 15.6066 39.4788 15.8316 39.1817L16.5457 38.2387C16.7706 37.9417 17.0978 37.75 17.4668 37.699C17.8359 37.6484 18.2027 37.7439 18.4998 37.9689C18.7968 38.1938 18.9884 38.521 19.0394 38.89C19.0904 39.259 18.9945 39.6258 18.7697 39.9229L18.0554 40.8659C17.8304 41.1629 17.5033 41.3547 17.1342 41.4057ZM19.8199 43.952C19.5229 43.7271 19.3313 43.3999 19.2803 43.0309C19.2293 42.6618 19.3252 42.295 19.5502 41.9979L20.2643 41.055C20.2643 41.055 20.2644 41.0549 20.2644 41.0548L20.895 40.222C21.169 39.8603 21.5864 39.6699 22.0087 39.6699C22.302 39.6699 22.5977 39.7619 22.849 39.9523C23.4622 40.4167 23.5833 41.2932 23.1189 41.9064L21.774 43.6823C21.3097 44.2954 20.433 44.4164 19.8199 43.952ZM23.5387 46.7683C23.2417 46.5434 23.05 46.2161 22.999 45.847C22.948 45.4781 23.0438 45.1114 23.2685 44.8145C23.2687 44.8144 23.2687 44.8143 23.2688 44.8141L24.6136 43.0381L25.1016 42.3938C25.3265 42.0968 25.6538 41.9052 26.0229 41.8542C26.3921 41.8034 26.7588 41.899 27.0559 42.124C27.6688 42.5882 27.7899 43.4643 27.3261 44.0774L25.4928 46.4983C25.4926 46.4984 25.4925 46.4985 25.4925 46.4986C25.028 47.1115 24.1519 47.2326 23.5387 46.7683ZM31.1506 46.754L29.2114 49.3146C28.9865 49.6116 28.6593 49.8032 28.2903 49.8542C27.9209 49.9051 27.5543 49.8094 27.2573 49.5845C26.9603 49.3596 26.7686 49.0324 26.7176 48.6634C26.6666 48.2943 26.7625 47.9275 26.9875 47.6304L28.8205 45.2101C28.8209 45.2098 28.8211 45.2093 28.8215 45.2089L28.9269 45.0698C29.1518 44.7728 29.479 44.5811 29.8481 44.5301C30.2172 44.4795 30.584 44.575 30.8811 44.8C31.4939 45.2641 31.615 46.1409 31.1506 46.754Z" fill="#4D256C"/>
<path d="M63.9932 38.174C63.9299 37.6602 63.4625 37.2954 62.9482 37.3581L55.7248 38.2474C54.8737 38.352 54.0982 37.7455 53.9936 36.8956L53.9196 36.2942L53.9025 36.155L51.5132 16.7457C51.4625 16.334 51.5752 15.9272 51.8305 15.6001C52.0857 15.2731 52.4531 15.0651 52.8648 15.0145L60.0883 14.1252C60.6022 14.062 60.9674 13.5941 60.9042 13.0802C60.8409 12.5665 60.3736 12.2016 59.8592 12.2643L52.6357 13.1536C50.8703 13.371 49.5816 14.9016 49.628 16.6447L47.8064 16.869L42.1656 13.6946C41.3669 13.2446 40.4614 13.0513 39.547 13.1353C39.5451 13.1355 39.5433 13.136 39.5414 13.1361L37.8435 13.2931C37.3279 13.3407 36.9487 13.7973 36.9964 14.313C37.044 14.8285 37.4999 15.2071 38.0163 15.1601L39.7189 15.0026C40.2516 14.9533 40.7796 15.0661 41.2456 15.3283L47.094 18.6196C47.277 18.7403 47.4997 18.7956 47.725 18.7679L49.8407 18.5076L51.3926 31.1129L51.9292 35.4721L48.5546 35.4749C48.3296 35.475 48.1124 35.5561 47.9425 35.703L47.6814 35.9062L39.2091 28.6043C41.1453 28.0477 42.9909 26.7013 44.7165 24.5822C45.0434 24.1807 44.983 23.5902 44.5815 23.2632C44.18 22.9363 43.5894 22.9967 43.2625 23.3982C41.3338 25.7669 39.3058 26.9862 37.2348 27.0219C34.2177 27.0787 32.0008 24.5769 31.9804 24.5535C31.796 24.3403 31.5258 24.2223 31.244 24.2292C30.9623 24.2372 30.6992 24.3717 30.5274 24.595L28.0091 27.8725C26.6822 29.5995 24.4218 30.243 22.3842 29.4733L22.1153 29.3717C21.8792 29.2824 21.783 29.0979 21.7467 28.9958C21.7105 28.8937 21.6685 28.6898 21.7952 28.4715L28.3682 17.1582C28.7933 16.4265 29.5503 15.9431 30.3931 15.8651L34.2847 15.5052C34.8003 15.4575 35.1795 15.0008 35.1318 14.4853C35.084 13.9698 34.6274 13.5907 34.1119 13.6382L30.2203 13.9981C28.7747 14.1318 27.4762 14.9611 26.7468 16.2163L20.1738 27.5297C19.8038 28.1667 19.7331 28.93 19.98 29.6241C20.2268 30.3183 20.7637 30.8655 21.4527 31.1258L21.7216 31.2274C22.5146 31.5269 23.3317 31.6715 24.138 31.6715C26.1946 31.6714 28.1783 30.7296 29.4958 29.015L31.3747 26.5698C32.3815 27.4375 34.2599 28.7228 36.6577 28.8807L48.9007 39.4326C49.1208 39.6222 49.254 39.8862 49.2755 40.176C49.297 40.4657 49.2045 40.7466 49.0151 40.9665L48.538 41.5198C47.9386 42.2141 46.885 42.2912 46.1895 41.6921C46.1506 41.6586 46.1092 41.6298 46.0669 41.6038L42.8886 38.8634C42.4968 38.5254 41.9046 38.5691 41.5664 38.9612C41.2283 39.3534 41.2721 39.9454 41.6643 40.2835L44.247 42.5105L43.0689 43.8777C42.7069 44.2976 42.1621 44.5097 41.6123 44.4451C41.2831 44.4063 40.975 44.2702 40.7213 44.0513C40.7168 44.0475 40.7119 44.0442 40.7074 44.0405L37.7543 41.4942C37.3621 41.1562 36.7703 41.2 36.432 41.5921C36.0939 41.9842 36.1378 42.5762 36.5299 42.9143L38.7866 44.8602L37.6015 46.2366C37.2394 46.6566 36.6934 46.8687 36.1434 46.804C35.629 46.7432 35.1633 47.1115 35.1029 47.6256C35.0425 48.1398 35.4103 48.6057 35.9245 48.6661C36.0634 48.6823 36.2019 48.6904 36.3399 48.6904C37.3636 48.6904 38.3435 48.2471 39.022 47.4604L40.289 45.9891C40.6351 46.1541 41.0073 46.262 41.3933 46.3073C42.5632 46.4448 43.7199 45.9942 44.4891 45.102L45.7582 43.6291C47.1617 44.2948 48.8952 43.9755 49.9577 42.7446L50.4355 42.1905C50.952 41.5908 51.2041 40.826 51.1455 40.0369C51.0868 39.2476 50.7242 38.5285 50.125 38.0124L49.3555 37.3492L52.1681 37.3469C52.4755 38.9669 53.9011 40.1342 55.5324 40.1342C55.6714 40.1342 55.8123 40.1257 55.9537 40.1084L63.1772 39.2191C63.691 39.1557 64.0564 38.688 63.9932 38.174Z" fill="#4D256C"/>
<path d="M58.0004 31.406C56.4841 31.406 55.2505 32.6395 55.2505 34.1558C55.2505 35.672 56.4841 36.9056 58.0004 36.9056C59.5166 36.9056 60.7501 35.672 60.7501 34.1558C60.7501 32.6395 59.5166 31.406 58.0004 31.406ZM58.0004 35.0306C57.518 35.0306 57.1255 34.6381 57.1255 34.1558C57.1255 33.6734 57.518 33.281 58.0004 33.281C58.4827 33.281 58.8751 33.6734 58.8751 34.1558C58.8751 34.6381 58.4827 35.0306 58.0004 35.0306Z" fill="#4D256C"/>
<path d="M8.64891 34.156C8.64891 32.6398 7.41541 31.4062 5.89916 31.4062C4.38291 31.4062 3.14941 32.6398 3.14941 34.156C3.14941 35.6723 4.38291 36.9059 5.89916 36.9059C7.41541 36.9059 8.64891 35.6723 8.64891 34.156ZM5.02441 34.156C5.02441 33.6736 5.41679 33.2812 5.89916 33.2812C6.38154 33.2812 6.77391 33.6736 6.77391 34.156C6.77391 34.6384 6.38154 35.0309 5.89916 35.0309C5.41679 35.0309 5.02441 34.6384 5.02441 34.156Z" fill="#4D256C"/>
</g>
<defs>
<clipPath id="clip0_1403:1738">
<rect width="64" height="64" fill="white"/>
</clipPath>
</defs>
</svg>
