<svg width="56" height="64" viewBox="0 0 56 64" fill="none" xmlns="http://www.w3.org/2000/svg">
<path d="M50.7453 27.0291H48.539L48.7129 24.8831C49.0665 20.5191 47.7566 16.2227 45.0105 12.6681L47.2084 11.5152C47.7016 11.2566 47.8709 10.6829 47.586 10.2346L41.3809 0.468909C41.096 0.020407 40.4649 -0.132968 39.9714 0.125782L36.641 1.87304C36.3909 2.00416 36.203 2.20579 36.1021 2.44792C35.3005 2.81467 34.3386 2.79292 33.5562 2.38254L30.5032 0.781035C29.0231 0.00465699 27.1842 0.00478198 25.7042 0.781035L21.6112 2.92804C21.0143 2.87929 20.4292 2.71704 19.8999 2.45242C19.7997 2.20816 19.6108 2.00491 19.359 1.87291L16.0287 0.125782C15.5352 -0.133093 14.9042 0.020407 14.6193 0.468909L8.41413 10.2344C8.12935 10.6826 8.29829 11.2563 8.79176 11.5151L10.9897 12.6681C10.4972 13.3058 10.0475 13.9715 9.64663 14.6566C9.37905 15.1137 9.57014 15.6813 10.0734 15.9245C10.5765 16.1676 11.2012 15.994 11.4688 15.5367C11.6264 15.2672 11.7926 15.0011 11.9666 14.7388C12.2097 15.381 12.6903 15.9405 13.3496 16.306C12.2229 18.1936 11.5513 20.2939 11.3938 22.4454C11.274 24.0832 12.7081 25.4762 14.5161 25.4762H36.0119C36.5817 25.4762 37.0437 25.0566 37.0437 24.5387C37.0437 24.0209 36.5817 23.6012 36.0119 23.6012H33.9389C34.0346 23.3764 34.0977 23.1451 34.1299 22.9122C36.1196 23.5499 38.2991 22.3794 38.4964 20.4244C39.7092 20.6651 41.0428 20.2496 41.823 19.2391C42.2206 20.305 42.4631 21.4179 42.5473 22.5696C42.588 23.1284 42.1008 23.6012 41.484 23.6012H40.827C40.2572 23.6012 39.7952 24.0209 39.7952 24.5387C39.7952 25.0566 40.2572 25.4762 40.827 25.4762H41.484C43.2908 25.4762 44.7263 24.0844 44.6064 22.4452C44.4576 20.4119 43.8475 18.4185 42.8284 16.6118C43.4944 16.3002 44.0434 15.7701 44.3042 15.1606C46.1013 18.0561 46.9277 21.3782 46.6548 24.7452L45.3128 41.3027C44.6632 49.3171 33.6103 55.1261 28.1212 55.212C22.6364 55.2978 11.3423 49.385 10.6872 41.3027C10.2286 35.6448 9.60549 27.9565 9.34521 24.7452C9.19993 22.9519 9.36227 21.1675 9.82781 19.4415C9.96345 18.9387 9.62475 18.4311 9.07131 18.3078C8.51758 18.1843 7.95932 18.4923 7.82353 18.9952C7.30627 20.9122 7.12591 22.8932 7.28715 24.883L7.46104 27.029H5.25481C2.35728 27.029 0 29.1709 0 31.8036V32.2233C0 36.5684 3.79806 40.1228 8.53602 40.2894L8.62929 41.4403C9.02398 46.3089 12.6491 50.4088 16.9169 53.1891V55.9712C16.9169 57.4217 15.987 58.7642 14.5477 59.3916L10.2994 61.2437C9.62365 61.5384 9.26776 62.2081 9.43408 62.8721C9.60027 63.5363 10.24 64 10.9896 64H45.0104C45.76 64 46.3996 63.5361 46.5659 62.8721C46.7322 62.208 46.3763 61.5384 45.7005 61.2437L41.4523 59.3916C40.0131 58.7641 39.0833 57.4216 39.0833 55.9712V53.189C43.351 50.4088 46.9762 46.3089 47.3707 41.4402L47.464 40.2893C52.2021 40.1227 56 36.5683 56 32.2231V31.8035C56.0001 29.171 53.6429 27.0291 50.7453 27.0291ZM40.1097 2.21841L45.2831 10.3601L43.5594 11.2642L38.3862 3.12254L40.1097 2.21841ZM26.6537 22.7415L26.0514 23.0574C25.4805 23.3569 24.748 23.1785 24.4183 22.6597C24.159 22.2516 24.2253 21.7524 24.5437 21.4122C24.7387 21.2196 24.7387 21.2374 25.4582 20.86C26.0316 20.5591 26.7616 20.7386 27.0913 21.2576C27.4208 21.7762 27.2246 22.442 26.6537 22.7415ZM23.2953 19.6909C23.2127 19.9711 23.0148 20.2054 22.7383 20.3505L21.6768 20.9074C21.106 21.2069 20.3733 21.0285 20.0437 20.5097C19.7141 19.9911 19.9104 19.3252 20.4813 19.0258L21.543 18.469C21.7272 18.3723 21.9317 18.323 22.1389 18.323C22.9312 18.323 23.4977 19.0046 23.2953 19.6909ZM19.3974 17.4293L18.2212 18.0465C17.6489 18.3465 16.9185 18.169 16.5881 17.6488C16.2582 17.1297 16.4527 16.4661 17.0246 16.1655C17.8307 15.7426 17.6077 15.8596 18.2019 15.5478C18.7764 15.2465 19.5075 15.4301 19.835 15.9455C20.1646 16.4641 19.9683 17.13 19.3974 17.4293ZM17.6295 13.6831C16.5293 14.2602 16.771 14.1333 15.6491 14.722C15.0784 15.0215 14.3456 14.8431 14.016 14.3243C13.6859 13.8048 13.8812 13.141 14.4536 12.8405L16.4338 11.8016C17.0083 11.5002 17.7394 11.6838 18.0669 12.1992C18.3967 12.718 18.2004 13.3837 17.6295 13.6831ZM15.8904 2.21841L17.6139 3.12254C16.1485 5.4288 14.1387 8.59169 12.4407 11.2642L10.7171 10.3602L15.8904 2.21841ZM13.4528 22.5697C13.5623 21.0722 13.9567 19.6033 14.6096 18.2341C15.155 19.4295 16.4549 20.1375 17.8222 20.063C17.8917 22.1096 20.1854 23.4639 22.264 22.7256C22.3329 23.0246 22.4542 23.3189 22.6311 23.5975C22.6391 23.61 23.0223 23.6015 14.5161 23.6015C13.8998 23.6014 13.4121 23.129 13.4528 22.5697ZM40.2345 18.0093C39.9192 18.5822 39.1833 18.7828 38.5726 18.4628L36.887 17.5786C36.8861 17.5782 36.8853 17.5777 36.8845 17.5773L33.5643 15.8355C33.0707 15.5766 32.4398 15.7301 32.1549 16.1786C31.87 16.627 32.0391 17.2003 32.5326 17.4592L35.8527 19.2011C36.4023 19.484 36.6192 20.1444 36.3019 20.6665C35.9743 21.2051 35.1886 21.3614 34.6137 21.0597C31.4506 19.4004 34.4705 20.9849 31.3371 19.3407C30.8439 19.0821 30.2127 19.2353 29.9275 19.6837C29.6426 20.1322 29.8117 20.7056 30.3051 20.9645C30.3234 20.9741 31.5181 21.601 31.5002 21.5915C32.395 22.0632 32.2599 23.2987 31.2329 23.5586C30.9047 23.6412 30.5499 23.6015 30.2591 23.449L29.1061 22.8442C29.4409 22.0317 29.383 21.1145 28.8781 20.3201C28.1339 19.1487 26.6723 18.642 25.354 18.9075C25.0778 17.4538 23.6713 16.4138 22.0597 16.4481C22.0445 15.3252 21.3094 14.2456 20.0868 13.7693C20.4106 12.9717 20.3572 12.0539 19.854 11.2617C18.9863 9.89632 17.0945 9.39594 15.5643 10.0982L19.271 4.26455C19.4553 4.34317 19.6436 4.41367 19.835 4.47605C19.4003 5.32293 19.411 6.34305 19.9631 7.21193C20.8587 8.62131 22.854 9.11456 24.4149 8.29594L28.6499 6.07505L30.5313 7.06206C31.0248 7.32068 31.6558 7.16731 31.9407 6.71893C32.2256 6.27055 32.0566 5.69718 31.5631 5.4383L29.6027 4.4098C29.015 4.10167 28.2848 4.10167 27.6969 4.4098L23.3832 6.67218C22.8125 6.97156 22.0799 6.79331 21.7501 6.27455C21.4205 5.75593 21.6168 5.09005 22.1878 4.79067C31.964 -0.337594 22.2336 4.76667 26.7359 2.40479C27.5796 1.96229 28.6277 1.96241 29.4713 2.40479L32.5243 4.00642C33.8099 4.6808 35.3693 4.76255 36.7208 4.2518L40.4305 10.0902L35.7916 7.65656C35.298 7.39781 34.667 7.55118 34.3822 7.99968C34.0973 8.44806 34.2664 9.02144 34.7598 9.28031L41.8084 12.978C42.3908 13.2835 42.6339 13.997 42.3494 14.5486C42.0133 15.0477 41.2985 15.2178 40.7337 14.9227C40.7329 14.9222 40.7322 14.9218 40.7322 14.9218C40.2656 14.6741 42.5005 15.8495 35.7916 12.3302C35.298 12.0714 34.667 12.2248 34.3822 12.6733C34.0973 13.1217 34.2664 13.6951 34.7598 13.954L39.6952 16.543C39.6963 16.5436 39.6992 16.5452 39.7003 16.5456L39.7682 16.5812C40.2949 16.8576 40.51 17.5086 40.2345 18.0093ZM2.06357 32.2235V31.8039C2.06357 30.205 3.49513 28.9043 5.25481 28.9043H7.61319L8.38317 38.4044C4.85544 38.1704 2.06357 35.4875 2.06357 32.2235ZM37.0199 54.4095V55.9715C37.0199 58.1387 38.4093 60.1449 40.5597 61.0824L42.9522 62.1255H13.0481L15.4406 61.0824C17.591 60.1449 18.9804 58.1387 18.9804 55.9715V54.4095C22.0637 56.0502 25.328 57.0475 27.8463 57.0869C30.8774 57.1217 34.4149 55.7956 37.0199 54.4095ZM53.9366 32.2235C53.9366 35.4875 51.1448 38.1704 47.617 38.4043L48.3869 28.9041H50.7453C52.505 28.9041 53.9366 30.2049 53.9366 31.8038V32.2235Z" fill="#4D256C"/>
<path d="M25.2525 29.7864H17.0306C16.4607 29.7864 15.9988 30.206 15.9988 30.7239C15.9988 31.2418 16.4607 31.6614 17.0306 31.6614H25.2525C25.8223 31.6614 26.2843 31.2418 26.2843 30.7239C26.2843 30.206 25.8223 29.7864 25.2525 29.7864Z" fill="#4D256C"/>
<path d="M31.7794 38.1389V33.2201C31.7794 32.3605 32.5491 31.6611 33.4952 31.6611H38.9696C39.5394 31.6611 40.0014 31.2415 40.0014 30.7236C40.0014 30.2058 39.5394 29.7861 38.9696 29.7861H33.4952C31.4113 29.7861 29.7158 31.3266 29.7158 33.2201V38.1389C29.7158 38.9986 28.9461 39.6979 28 39.6979C27.4302 39.6979 26.9683 40.1176 26.9683 40.6354C26.9683 41.1533 27.4302 41.5729 28 41.5729C30.0841 41.5728 31.7794 40.0323 31.7794 38.1389Z" fill="#4D256C"/>
<path d="M21.7348 46.1787C21.2255 45.9467 20.6054 46.1336 20.35 46.5965C20.0945 47.0593 20.3003 47.6226 20.8097 47.8548L21.6733 48.2483C25.6346 50.0538 30.365 50.0544 34.3274 48.2483L35.1909 47.8548C35.7003 47.6226 35.9061 47.0593 35.6507 46.5965C35.3953 46.1336 34.7753 45.9467 34.2659 46.1787L33.4022 46.5723C30.0199 48.114 25.9812 48.114 22.5984 46.5723L21.7348 46.1787Z" fill="#4D256C"/>
</svg>
