<svg width="56" height="64" viewBox="0 0 56 64" fill="none" xmlns="http://www.w3.org/2000/svg">
<path d="M30.6252 4.58925C31.1241 4.58925 31.5284 4.16963 31.5284 3.65175V0.9375C31.5284 0.419625 31.1241 0 30.6252 0C30.1262 0 29.7219 0.419625 29.7219 0.9375V3.65175C29.7219 4.1695 30.1263 4.58925 30.6252 4.58925Z" fill="#4D256C"/>
<path d="M20.3017 6.72695C20.4781 6.91032 20.7095 7.00195 20.9408 7.00195C21.1718 7.00195 21.4028 6.91057 21.5791 6.72782C21.9321 6.36182 21.9325 5.76832 21.58 5.40207L19.7318 3.48157C19.3791 3.1152 18.8072 3.11482 18.4544 3.4807C18.1014 3.8467 18.1011 4.4402 18.4536 4.80645L20.3017 6.72695Z" fill="#4D256C"/>
<path d="M40.3062 7.00244C40.5376 7.00244 40.769 6.91081 40.9454 6.72744L42.7936 4.80694C43.1461 4.44056 43.1457 3.84706 42.7927 3.48119C42.4399 3.11531 41.8679 3.11569 41.5154 3.48206L39.6672 5.40256C39.3147 5.76894 39.3151 6.36244 39.6681 6.72831C39.8443 6.91094 40.0753 7.00244 40.3062 7.00244Z" fill="#4D256C"/>
<path d="M44.8312 55.9709C45.3302 55.9709 45.7345 55.5513 45.7345 55.0334V47.6962L47.3227 49.3463C47.4991 49.5295 47.7305 49.6212 47.9618 49.6212C48.1928 49.6212 48.4238 49.5298 48.6002 49.347C48.9531 48.981 48.9535 48.3874 48.601 48.0212L45.4705 44.7684C45.455 44.7523 45.4422 44.7407 45.4306 44.7308C45.2712 44.5837 45.0616 44.4934 44.8314 44.4934C44.5977 44.4934 44.3855 44.5862 44.2252 44.7373C44.218 44.7434 44.2104 44.7509 44.2028 44.7584C44.1993 44.7619 44.1955 44.765 44.192 44.7687L41.0587 48.0209C40.706 48.387 40.706 48.9807 41.0589 49.3467C41.2352 49.5297 41.4664 49.6212 41.6975 49.6212C41.9286 49.6212 42.1599 49.5297 42.3363 49.3465L43.9281 47.6943V55.0333C43.928 55.5512 44.3324 55.9709 44.8312 55.9709Z" fill="#4D256C"/>
<path d="M13.8496 41.0134C13.8468 41.0134 13.8443 41.0134 13.8416 41.0134C11.5476 41.0134 9.67878 42.9496 9.67432 45.3331C9.66999 47.7202 11.5353 49.6658 13.8308 49.6703H13.8469C14.9527 49.6703 15.9929 49.2249 16.7777 48.4151C17.5687 47.5987 18.0055 46.5104 18.0077 45.3508C18.012 42.9637 16.1467 41.0179 13.8496 41.0134ZM15.504 47.0854C15.0602 47.5434 14.4721 47.7953 13.8452 47.7953C13.8422 47.7953 13.839 47.7953 13.8361 47.7953C12.535 47.7927 11.4786 46.6898 11.481 45.3367C11.4835 43.9857 12.5421 42.8884 13.8417 42.8884H13.8462C15.1472 42.8911 16.2037 43.9941 16.2013 45.3472C16.2 46.0054 15.9522 46.6227 15.504 47.0854Z" fill="#4D256C"/>
<path d="M55.2796 46.1162C55.1026 45.6324 54.5811 45.3874 54.115 45.5712C53.6477 45.7537 53.4128 46.2949 53.5887 46.7787C54.8906 50.3562 54.0512 54.4124 51.4522 57.1137C49.683 58.9512 47.3309 59.9637 44.8295 59.9637C42.328 59.9637 39.9759 58.9512 38.2068 57.1137C37.9394 56.8362 37.6913 56.5449 37.4649 56.2437C37.3035 56.0324 37.153 55.8149 37.012 55.5937C36.7688 55.2124 36.5556 54.8162 36.3713 54.4099C36.3641 54.3962 36.3581 54.3824 36.3521 54.3687C35.568 52.6299 35.3055 50.6987 35.5644 48.8312C35.6535 48.1949 35.8017 47.5662 36.0112 46.9562C36.2196 46.3487 36.4869 45.7574 36.8157 45.1949C37.1975 44.5374 37.6612 43.9174 38.2068 43.3512C38.8463 42.6862 39.5641 42.1287 40.3372 41.6887C41.6982 40.9124 43.2337 40.5012 44.8295 40.5012C47.3309 40.5012 49.683 41.5124 51.4522 43.3512C51.805 43.7174 52.3771 43.7174 52.73 43.3512C53.0829 42.9862 53.0829 42.3924 52.73 42.0262C51.675 40.9299 50.4453 40.0799 49.1073 39.5037C47.7693 38.9274 46.3217 38.6262 44.8295 38.6262C43.9864 38.6262 43.1566 38.7224 42.3533 38.9099C42.5316 38.6849 42.711 38.4587 42.8917 38.2324C45.581 34.8624 48.3606 31.3774 48.3534 25.0137C48.3486 19.9724 46.7119 15.6362 43.6179 12.4737C40.3758 9.15868 35.6379 7.30243 30.6254 7.36993C30.5278 7.36868 30.4315 7.36743 30.3351 7.36743C24.9565 7.36743 20.0536 9.53243 16.8476 13.3349C16.5189 13.7237 16.5574 14.3162 16.9319 14.6574C17.3077 14.9987 17.8786 14.9587 18.2073 14.5699C21.1243 11.1112 25.6502 9.17243 30.6121 9.24493H30.6374C35.1778 9.18118 39.4472 10.8424 42.3509 13.8099C45.092 16.6124 46.5433 20.4874 46.5469 25.0149C46.5541 30.7024 44.0996 33.7799 41.5006 37.0362C40.6684 38.0787 39.8266 39.1337 39.0691 40.2824C38.2995 40.7649 37.5805 41.3487 36.9289 42.0262C35.5608 43.4487 34.6226 45.1499 34.1132 46.9562H31.3612V29.5696H33.2371C33.7361 29.5696 34.1404 29.1499 34.1404 28.6321C34.1404 28.1142 33.7361 27.6946 33.2371 27.6946H27.5731C27.0741 27.6946 26.6698 28.1142 26.6698 28.6321C26.6698 29.1499 27.0741 29.5696 27.5731 29.5696H29.5547V46.9562H24.7807C24.5723 45.4487 24.1677 44.1262 23.6366 42.9274C23.5282 42.6787 23.4125 42.4362 23.2933 42.1987C22.3154 40.2562 21.0195 38.6312 19.7465 37.0362C19.5803 36.8287 19.4153 36.6212 19.2515 36.4137C17.9183 34.7324 16.6646 33.0512 15.8131 30.9812H15.8119C15.1242 29.3124 14.6967 27.3912 14.7003 25.0149C14.7027 22.3987 15.1796 20.0087 16.1166 17.9112C16.3262 17.4412 16.1299 16.8837 15.677 16.6662C15.2242 16.4487 14.687 16.6524 14.4775 17.1224C13.4297 19.4674 12.8962 22.1224 12.8938 25.0137C12.8902 27.3362 13.2587 29.2749 13.8597 30.9649L12.1459 30.9612C10.9331 30.9612 9.94673 31.9849 9.94673 33.2399L9.94552 33.9137C9.57699 34.0537 9.21689 34.2124 8.86643 34.3874L8.40035 33.9012C7.54405 33.0124 6.15062 33.0099 5.29313 33.8949C5.29192 33.8962 5.29192 33.8962 5.29192 33.8962L2.85794 36.4174C2.44244 36.8474 2.21241 37.4199 2.2112 38.0312C2.21 38.6412 2.43762 39.2137 2.85071 39.6437L3.38303 40.1974C3.22888 40.5424 3.09158 40.8949 2.97115 41.2537L2.20638 41.2512C0.993606 41.2512 0.00724505 42.2737 0.00724505 43.5299L1.90216e-05 47.0987C-0.00238967 47.7074 0.224028 48.2824 0.640732 48.7149C1.05503 49.1487 1.60662 49.3874 2.19073 49.3874L3.02052 49.3887C3.13975 49.7274 3.27344 50.0599 3.42037 50.3862L2.83024 50.9987C2.41474 51.4274 2.18471 52.0012 2.18471 52.6112C2.1835 53.2212 2.41112 53.7949 2.82301 54.2237L5.25218 56.7612C6.10847 57.6462 7.5019 57.6474 8.35819 56.7637L8.94953 56.1499C9.26145 56.3049 9.5794 56.4437 9.90217 56.5674V57.4274C9.89735 58.6849 10.8789 59.7137 12.0929 59.7199L15.5361 59.7262C16.7429 59.7262 17.7292 58.7062 17.7352 57.4487L17.7365 56.6524C18.0797 56.5287 18.4169 56.3874 18.7481 56.2312L19.2816 56.7874C20.1367 57.6762 21.5314 57.6787 22.3901 56.7912L22.9368 56.2249C23.0247 56.2374 23.1163 56.2437 23.2078 56.2437H24.2387V59.1824C24.2387 61.8387 26.3174 63.9999 28.8719 63.9999H32.3741C34.9309 63.9999 37.012 61.8387 37.012 59.1824V58.5224C39.1124 60.6624 41.8836 61.8387 44.8295 61.8387C47.8138 61.8387 50.62 60.6312 52.73 58.4387C55.83 55.2174 56.8308 50.3812 55.2796 46.1162ZM21.1014 49.1412V54.0549C21.1014 54.4624 21.2086 54.8449 21.3977 55.1724L21.1159 55.4637C20.9653 55.6187 20.71 55.6187 20.5606 55.4637L19.5719 54.4324C19.2925 54.1399 18.8625 54.0724 18.5121 54.2637C17.8978 54.5987 17.2511 54.8674 16.5887 55.0637C16.2009 55.1774 15.9323 55.5449 15.9323 55.9624L15.9287 57.4412C15.9275 57.6637 15.7481 57.8512 15.5373 57.8512L12.0989 57.8449C11.8869 57.8437 11.7087 57.6562 11.7087 57.4324V55.8949C11.7087 55.4812 11.4486 55.1174 11.068 54.9974C10.4285 54.7962 9.80341 54.5224 9.21328 54.1837C9.07599 54.1049 8.92665 54.0674 8.77731 54.0674C8.54366 54.0674 8.31243 54.1612 8.139 54.3412L7.08279 55.4349C6.93225 55.5899 6.67692 55.5887 6.52999 55.4362L4.10323 52.8999C4.00448 52.7987 3.99002 52.6774 3.99002 52.6149C3.99123 52.5512 4.00568 52.4299 4.10685 52.3262L5.16065 51.2312C5.44247 50.9374 5.5063 50.4862 5.31601 50.1224C4.99325 49.5049 4.7319 48.8524 4.5368 48.1824C4.42238 47.7874 4.07192 47.5162 3.67448 47.5162L2.19193 47.5124C2.05584 47.5124 1.96311 47.4374 1.92095 47.3924C1.8776 47.3487 1.80534 47.2512 1.80654 47.1049L1.81377 43.5312C1.81377 43.3087 1.9896 43.1262 2.20398 43.1262L3.62872 43.1299H3.63113C4.03458 43.1299 4.38987 42.8512 4.50067 42.4474C4.68855 41.7599 4.94868 41.0899 5.27627 40.4562C5.46415 40.0924 5.40152 39.6437 5.12091 39.3512L4.13093 38.3199C4.03218 38.2174 4.01772 38.0962 4.01772 38.0337C4.01772 37.9712 4.03338 37.8499 4.13334 37.7462L6.56733 35.2237C6.72028 35.0662 6.96958 35.0674 7.12012 35.2249L8.0547 36.1987C8.34133 36.4974 8.78333 36.5612 9.13741 36.3549C9.75403 35.9962 10.4176 35.7037 11.1089 35.4849C11.4895 35.3662 11.7496 35.0024 11.7496 34.5912L11.7533 33.2424C11.7533 33.0187 11.9291 32.8362 12.1447 32.8362L14.6605 32.8412C15.6854 34.8862 17.0319 36.5737 18.3555 38.2324C20.4173 40.8187 22.3744 43.2724 22.9537 46.9737C21.9119 47.1037 21.1014 48.0249 21.1014 49.1412ZM25.142 54.3687H23.2078C23.0452 54.3687 22.9079 54.2249 22.9079 54.0549V49.1412C22.9079 49.0087 22.9922 48.8937 23.1066 48.8499C23.138 48.8374 23.1717 48.8312 23.2078 48.8312H33.7434C33.5279 50.6912 33.7434 52.5962 34.3914 54.3687H25.142ZM35.2055 59.1824C35.2055 60.8049 33.9349 62.1249 32.3741 62.1249H28.8719C27.3134 62.1249 26.0452 60.8049 26.0452 59.1824V56.2437H35.2055V59.1824Z" fill="#4D256C"/>
</svg>
