<svg width="64" height="64" viewBox="0 0 64 64" fill="none" xmlns="http://www.w3.org/2000/svg">
<path d="M35.6405 27.0388C35.1067 26.5371 34.4744 26.1519 33.7837 25.9076C33.0931 25.6632 32.3592 25.5652 31.6286 25.6196C30.6794 25.6867 29.7654 26.0068 28.9816 26.5466C28.1979 27.0864 27.573 27.8261 27.1719 28.6891C26.7708 29.552 26.608 30.5066 26.7006 31.4536C26.7931 32.4007 27.1376 33.3057 27.6982 34.0747C28.4079 35.0209 28.7963 36.1693 28.8067 37.352V39.4618C28.8067 40.3098 29.1436 41.1231 29.7433 41.7227C30.343 42.3224 31.1563 42.6592 32.0043 42.6592C32.8524 42.6592 33.6658 42.3224 34.2654 41.7227C34.8651 41.1231 35.202 40.3098 35.202 39.4618V37.3515C35.2024 36.1899 35.5772 35.0593 36.2707 34.1274C36.9637 33.2078 37.3372 32.0868 37.3342 30.9353C37.333 30.2046 37.1822 29.4819 36.8909 28.8117C36.5996 28.1415 36.174 27.5382 35.6405 27.0388ZM33.0706 39.4618C33.0706 39.7445 32.9583 40.0156 32.7584 40.2154C32.5586 40.4153 32.2874 40.5276 32.0048 40.5276C31.7221 40.5276 31.4509 40.4153 31.2511 40.2154C31.0512 40.0156 30.9389 39.7445 30.9389 39.4618V38.4173H33.0706V39.4618ZM34.5657 32.8492C33.8133 33.8583 33.3256 35.0397 33.1472 36.2857H30.8613C30.6713 35.0291 30.1765 33.8382 29.42 32.817C28.9735 32.2091 28.7589 31.4618 28.8148 30.7096C28.8574 30.1074 29.0696 29.5294 29.427 29.0428C29.7843 28.5561 30.2722 28.1805 30.8341 27.9595C31.396 27.7385 32.009 27.6811 32.6022 27.794C33.1954 27.9068 33.7445 28.1853 34.1859 28.5972C34.7622 29.1346 35.1196 29.8658 35.1897 30.6505C35.2598 31.4353 35.0376 32.2183 34.5657 32.8492Z" fill="#4D256C"/>
<path d="M32.0046 24.5403C32.2873 24.5403 32.5584 24.4281 32.7583 24.2282C32.9582 24.0283 33.0705 23.7572 33.0705 23.4745V21.3429C33.0705 21.0602 32.9582 20.7891 32.7583 20.5893C32.5584 20.3894 32.2873 20.2771 32.0046 20.2771C31.7219 20.2771 31.4508 20.3894 31.2509 20.5893C31.051 20.7891 30.9387 21.0602 30.9387 21.3429V23.4745C30.9387 23.7572 31.051 24.0283 31.2509 24.2282C31.4508 24.4281 31.7219 24.5403 32.0046 24.5403Z" fill="#4D256C"/>
<path d="M27.7412 25.6062C27.952 25.6062 28.1581 25.5437 28.3334 25.4265C28.5086 25.3094 28.6453 25.143 28.7259 24.9482C28.8066 24.7535 28.8277 24.5392 28.7866 24.3324C28.7455 24.1256 28.644 23.9357 28.4949 23.7867L27.429 22.7209C27.2291 22.521 26.958 22.4087 26.6753 22.4087C26.3926 22.4087 26.1215 22.521 25.9216 22.7209C25.7217 22.9208 25.6094 23.1919 25.6094 23.4745C25.6094 23.7572 25.7217 24.0283 25.9216 24.2282L26.9875 25.294C27.0863 25.3931 27.2038 25.4717 27.3332 25.5253C27.4625 25.5788 27.6012 25.6063 27.7412 25.6062Z" fill="#4D256C"/>
<path d="M36.5805 22.7209L35.5146 23.7867C35.3147 23.9866 35.2024 24.2577 35.2024 24.5403C35.2024 24.823 35.3147 25.0941 35.5146 25.294C35.7145 25.4939 35.9856 25.6062 36.2683 25.6062C36.551 25.6062 36.8221 25.4939 37.022 25.294L38.0879 24.2282C38.1869 24.1292 38.2654 24.0117 38.319 23.8824C38.3725 23.7531 38.4001 23.6145 38.4001 23.4745C38.4001 23.3346 38.3725 23.196 38.319 23.0667C38.2654 22.9373 38.1869 22.8198 38.0879 22.7209C37.9889 22.6219 37.8714 22.5434 37.7421 22.4898C37.6128 22.4363 37.4742 22.4087 37.3342 22.4087C37.1942 22.4087 37.0556 22.4363 36.9263 22.4898C36.797 22.5434 36.6794 22.6219 36.5805 22.7209Z" fill="#4D256C"/>
<path d="M63.9811 32.0009C63.9791 30.47 63.4288 28.9904 62.4298 27.8303C61.4309 26.6702 60.0494 25.9063 58.5357 25.6769L57.6557 18.6375C59.5686 17.9475 61.2132 16.6681 62.3523 14.9835C63.4914 13.299 64.0662 11.2963 63.9939 9.26407C63.9217 7.23186 63.206 5.27506 61.9501 3.67566C60.6942 2.07626 58.963 0.91686 57.0058 0.364525C55.0486 -0.187811 52.9666 -0.104555 51.0598 0.602295C49.153 1.30915 47.5198 2.60309 46.3957 4.29766C45.2715 5.99223 44.7144 7.99992 44.8047 10.0314C44.8949 12.0629 45.6279 14.0133 46.8979 15.6015L41.7708 20.7279C39.339 18.6129 36.2855 17.3457 33.0706 17.1175V11.6439C34.0257 11.449 34.909 10.9958 35.6245 10.3338C36.3399 9.67172 36.8601 8.82615 37.1283 7.88905C37.3966 6.95196 37.4027 5.95924 37.1459 5.01892C36.8892 4.07861 36.3795 3.22672 35.6722 2.55595C34.9649 1.88518 34.0872 1.42123 33.1346 1.21459C32.1819 1.00795 31.1908 1.06653 30.2692 1.38395C29.3475 1.70137 28.5306 2.26548 27.9073 3.0149C27.2839 3.76431 26.8781 4.67032 26.7339 5.63433L19.1056 8.17642C18.7908 6.08486 17.7945 4.15565 16.2712 2.68815C14.7479 1.22065 12.7829 0.296923 10.6809 0.0603079C8.57893 -0.176307 6.45763 0.28742 4.64617 1.37953C2.83471 2.47164 1.43438 4.13107 0.662476 6.10031C-0.109427 8.06955 -0.209742 10.2385 0.377099 12.2706C0.96394 14.3026 2.20512 16.0842 3.90804 17.3389C5.61096 18.5935 7.6804 19.251 9.79524 19.2094C11.9101 19.1678 13.952 18.4294 15.6043 17.1087L20.5922 22.0964C20.6387 22.1426 20.6894 22.1844 20.7436 22.2213C18.6211 24.6551 17.3494 27.714 17.1209 30.9351H12.7284C12.5252 29.7329 11.9825 28.6138 11.1643 27.7098C10.3461 26.8058 9.28646 26.1545 8.11035 25.8327C6.93423 25.511 5.69063 25.5321 4.52613 25.8937C3.36164 26.2552 2.32477 26.9421 1.53777 27.8734C0.750757 28.8047 0.246405 29.9416 0.0841578 31.15C-0.0780896 32.3584 0.10853 33.588 0.622021 34.6939C1.13551 35.7998 1.95447 36.7358 2.98236 37.3917C4.01026 38.0476 5.20424 38.396 6.42359 38.3958C6.5014 38.3958 6.57854 38.3927 6.65582 38.3899L8.27995 44.8864C6.18141 45.18 4.23888 46.1593 2.75494 47.6718C1.271 49.1843 0.328979 51.1451 0.0756212 53.2487C-0.177737 55.3523 0.271792 57.4807 1.35418 59.3023C2.43657 61.1238 4.09105 62.5363 6.05989 63.3196C8.02874 64.103 10.2014 64.2132 12.2394 63.6332C14.2775 63.0532 16.0664 61.8154 17.3277 60.1128C18.5889 58.4102 19.2516 56.3382 19.2125 54.2198C19.1734 52.1013 18.4348 50.0552 17.1116 48.4003L22.2385 43.2738C24.948 45.6266 28.416 46.9221 32.0046 46.9221C35.5932 46.9221 39.0611 45.6266 41.7707 43.2738L46.8976 48.4003C45.9952 49.5247 45.3591 50.8388 45.0369 52.2441C44.7146 53.6493 44.7147 55.1093 45.037 56.5146H37.2275C36.9634 55.2206 36.2282 54.0708 35.1644 53.2881C34.1007 52.5054 32.7842 52.1456 31.4701 52.2783C30.1561 52.411 28.9382 53.0269 28.0525 54.0065C27.1668 54.9862 26.6764 56.2597 26.6764 57.5804C26.6764 58.901 27.1668 60.1746 28.0525 61.1542C28.9382 62.1338 30.1561 62.7497 31.4701 62.8824C32.7842 63.0152 34.1007 62.6553 35.1644 61.8726C36.2282 61.0899 36.9634 59.9401 37.2275 58.6462H45.7989C46.5307 60.1201 47.6294 61.3811 48.9894 62.3077C50.3494 63.2343 51.9249 63.7954 53.5645 63.9371C55.2041 64.0787 56.8526 63.7962 58.3514 63.1166C59.8502 62.437 61.1489 61.3832 62.1226 60.0566C63.0964 58.73 63.7124 57.1751 63.9114 55.5416C64.1105 53.9081 63.8858 52.2509 63.2591 50.7293C62.6324 49.2077 61.6247 47.8729 60.3329 46.8534C59.0411 45.8338 57.5087 45.1637 55.8831 44.9076L58.3425 38.3495C59.8957 38.1627 61.3267 37.4138 62.3655 36.2442C63.4043 35.0746 63.979 33.5652 63.9811 32.0009ZM32.0047 60.7778C31.3723 60.7778 30.754 60.5903 30.2282 60.2389C29.7024 59.8876 29.2925 59.3882 29.0505 58.804C28.8085 58.2197 28.7451 57.5768 28.8685 56.9566C28.9919 56.3363 29.2964 55.7666 29.7436 55.3194C30.1908 54.8723 30.7606 54.5677 31.3809 54.4444C32.0012 54.321 32.6441 54.3843 33.2284 54.6263C33.8127 54.8683 34.3121 55.2782 34.6635 55.804C35.0148 56.3298 35.2024 56.948 35.2024 57.5804C35.2014 58.4281 34.8642 59.2408 34.2647 59.8402C33.6652 60.4396 32.8525 60.7768 32.0047 60.7778ZM48.4051 46.8931L43.2784 41.7664C45.3936 39.3347 46.6608 36.2814 46.8891 33.0667H51.2816C51.4932 34.3049 52.064 35.4536 52.923 36.3703C53.7819 37.2869 54.8913 37.931 56.1132 38.2226L53.6379 44.8227C51.7252 44.9712 49.9017 45.6927 48.4051 46.8931ZM61.8494 32.0009C61.8494 32.8441 61.5993 33.6683 61.1308 34.3694C60.6623 35.0705 59.9965 35.6169 59.2174 35.9396C58.4384 36.2623 57.5811 36.3467 56.7541 36.1822C55.927 36.0177 55.1673 35.6117 54.5711 35.0155C53.9748 34.4192 53.5687 33.6596 53.4042 32.8326C53.2397 32.0056 53.3242 31.1484 53.6469 30.3694C53.9696 29.5904 54.516 28.9246 55.2172 28.4561C55.9183 27.9877 56.7426 27.7377 57.5858 27.7377C58.7162 27.7389 59.7999 28.1885 60.5992 28.9877C61.3985 29.787 61.8481 30.8706 61.8494 32.0009ZM56.3926 25.7194C55.1109 25.9652 53.9348 26.5962 53.0214 27.5282C52.108 28.4602 51.5008 29.6488 51.281 30.9351H46.8885C46.6603 27.7204 45.393 24.667 43.2779 22.2354L48.4046 17.1089C49.4014 17.9106 50.5495 18.5034 51.7805 18.8516C53.0114 19.1999 54.2999 19.2966 55.5691 19.1359L56.3926 25.7194ZM52.2564 9.61886C52.2564 9.19727 52.3815 8.78514 52.6157 8.4346C52.8499 8.08405 53.1829 7.81084 53.5724 7.6495C53.9619 7.48816 54.3906 7.44595 54.8041 7.5282C55.2176 7.61045 55.5975 7.81347 55.8956 8.11158C56.1937 8.40969 56.3967 8.78951 56.479 9.203C56.5612 9.6165 56.519 10.0451 56.3577 10.4346C56.1963 10.8241 55.9231 11.157 55.5725 11.3912C55.222 11.6255 54.8098 11.7505 54.3882 11.7505C53.823 11.7498 53.2812 11.525 52.8816 11.1254C52.4819 10.7258 52.2571 10.184 52.2564 9.61886ZM52.2564 13.8821H56.52C57.0391 13.8829 57.5401 14.073 57.9292 14.4167C58.3182 14.7604 58.5686 15.2341 58.6335 15.7491C57.3873 16.6153 55.9059 17.0795 54.3882 17.0795C52.8705 17.0795 51.3891 16.6153 50.1429 15.7491C50.2078 15.2341 50.4582 14.7604 50.8472 14.4167C51.2363 14.073 51.7373 13.8829 52.2564 13.8821ZM54.3882 2.15819C55.7764 2.15732 57.1373 2.54397 58.3176 3.27461C59.498 4.00525 60.4509 5.05086 61.0691 6.29373C61.6874 7.53659 61.9463 8.92735 61.8169 10.3094C61.6874 11.6915 61.1747 13.01 60.3365 14.1165C59.84 13.1225 58.9768 12.3601 57.9291 11.9903C58.3595 11.3486 58.6074 10.602 58.6463 9.83034C58.6852 9.05867 58.5137 8.29092 58.15 7.60918C57.7864 6.92745 57.2443 6.35735 56.5817 5.95984C55.9191 5.56232 55.1609 5.35234 54.3882 5.35234C53.6155 5.35234 52.8573 5.56232 52.1947 5.95984C51.5321 6.35735 50.99 6.92745 50.6264 7.60918C50.2627 8.29092 50.0912 9.05867 50.1301 9.83034C50.169 10.602 50.4169 11.3486 50.8473 11.9903C49.7997 12.36 48.9365 13.1221 48.4399 14.1159C47.6018 13.0094 47.0892 11.691 46.9599 10.309C46.8305 8.92704 47.0895 7.53638 47.7077 6.29361C48.3259 5.05084 49.2788 4.00529 50.4591 3.27468C51.6393 2.54407 53.0001 2.15739 54.3882 2.15819ZM32.0047 3.224C32.6371 3.224 33.2554 3.41152 33.7812 3.76286C34.3071 4.1142 34.7169 4.61357 34.9589 5.19782C35.201 5.78208 35.2643 6.42498 35.1409 7.04522C35.0175 7.66546 34.713 8.23519 34.2658 8.68236C33.8186 9.12953 33.2488 9.43405 32.6285 9.55743C32.0083 9.6808 31.3653 9.61748 30.781 9.37547C30.1967 9.13347 29.6973 8.72364 29.346 8.19783C28.9946 7.67201 28.8071 7.05382 28.8071 6.42143C28.8081 5.57372 29.1453 4.76101 29.7447 4.16159C30.3442 3.56217 31.1569 3.22498 32.0047 3.224ZM2.16007 9.61886C2.15908 8.43499 2.43986 7.26788 2.9792 6.21398C3.51854 5.16009 4.30095 4.24966 5.26179 3.55794C6.22262 2.86623 7.33428 2.41308 8.5049 2.23595C9.67552 2.05882 10.8715 2.16279 11.994 2.53928C13.1165 2.91577 14.1332 3.55396 14.9603 4.40111C15.7873 5.24826 16.4008 6.28005 16.7502 7.4112C17.0995 8.54236 17.1747 9.74041 16.9694 10.9064C16.7641 12.0723 16.2842 13.1726 15.5695 14.1165C15.073 13.1225 14.2099 12.3601 13.1621 11.9903C13.5925 11.3486 13.8404 10.602 13.8793 9.83034C13.9183 9.05867 13.7467 8.29092 13.3831 7.60918C13.0194 6.92745 12.4773 6.35735 11.8147 5.95984C11.1521 5.56232 10.3939 5.35234 9.62123 5.35234C8.84852 5.35234 8.09035 5.56232 7.42775 5.95984C6.76515 6.35735 6.22305 6.92745 5.85939 7.60918C5.49573 8.29092 5.3242 9.05867 5.36312 9.83034C5.40204 10.602 5.64996 11.3486 6.08037 11.9903C5.03269 12.36 4.16955 13.1221 3.67295 14.1159C2.69017 12.8228 2.15871 11.243 2.16007 9.61886ZM7.48947 9.61886C7.48947 9.19727 7.61449 8.78514 7.84873 8.4346C8.08298 8.08405 8.41591 7.81084 8.80544 7.6495C9.19497 7.48816 9.62359 7.44595 10.0371 7.5282C10.4506 7.61045 10.8305 7.81347 11.1286 8.11158C11.4267 8.40969 11.6298 8.78951 11.712 9.203C11.7943 9.6165 11.7521 10.0451 11.5907 10.4346C11.4294 10.8241 11.1561 11.157 10.8056 11.3912C10.455 11.6255 10.0429 11.7505 9.62123 11.7505C9.05606 11.7498 8.51422 11.525 8.11459 11.1254C7.71495 10.7258 7.49014 10.184 7.48947 9.61886ZM5.37596 15.7491C5.4408 15.2341 5.6912 14.7604 6.08025 14.4167C6.46931 14.073 6.97033 13.8829 7.48947 13.8821H11.753C12.2721 13.8829 12.7731 14.073 13.1622 14.4167C13.5513 14.7604 13.8017 15.2341 13.8665 15.7491C12.6203 16.6153 11.1389 17.0795 9.62123 17.0795C8.10354 17.0795 6.62217 16.6153 5.37596 15.7491ZM17.1116 15.6015C18.3058 14.113 19.0262 12.3006 19.1798 10.3985L26.8674 7.83616C27.1301 8.78391 27.6492 9.64083 28.3675 10.3126C29.0859 10.9844 29.9756 11.4451 30.9388 11.6439V17.1187C27.7176 17.3472 24.6584 18.6188 22.2245 20.7411C22.1875 20.687 22.1458 20.6363 22.0996 20.5898L17.1116 15.6015ZM2.16007 32.0009C2.16007 31.1577 2.41012 30.3335 2.8786 29.6324C3.34708 28.9313 4.01295 28.3848 4.79201 28.0622C5.57107 27.7395 6.42832 27.6551 7.25536 27.8196C8.0824 27.9841 8.84209 28.3901 9.43835 28.9863C10.0346 29.5826 10.4407 30.3422 10.6052 31.1692C10.7697 31.9962 10.6853 32.8534 10.3626 33.6324C10.0399 34.4114 9.49341 35.0772 8.79227 35.5457C8.09114 36.0141 7.26683 36.2641 6.42359 36.2641C5.29322 36.2629 4.20952 35.8133 3.41023 35.0141C2.61094 34.2148 2.16134 33.1312 2.16007 32.0009ZM12.7284 33.0667H17.1209C17.3491 36.2814 18.6164 39.3347 20.7316 41.7664L15.6048 46.8929C14.1327 45.7119 12.3434 44.994 10.4633 44.8298L8.74454 37.9577C9.77376 37.5548 10.6814 36.8928 11.3794 36.0358C12.0774 35.1789 12.5421 34.1561 12.7284 33.0667ZM5.37596 60.5132C5.4408 59.9982 5.6912 59.5244 6.08025 59.1808C6.46931 58.8371 6.97033 58.647 7.48947 58.6462H11.753C12.2721 58.647 12.7731 58.8371 13.1622 59.1808C13.5513 59.5244 13.8017 59.9982 13.8665 60.5132C12.6203 61.3794 11.1389 61.8436 9.62123 61.8436C8.10354 61.8436 6.62217 61.3794 5.37596 60.5132ZM7.48947 54.3829C7.48947 53.9613 7.61449 53.5492 7.84873 53.1987C8.08298 52.8481 8.41591 52.5749 8.80544 52.4136C9.19497 52.2522 9.62359 52.21 10.0371 52.2923C10.4506 52.3745 10.8305 52.5775 11.1286 52.8756C11.4267 53.1738 11.6298 53.5536 11.712 53.9671C11.7943 54.3806 11.7521 54.8092 11.5907 55.1987C11.4294 55.5882 11.1561 55.9211 10.8056 56.1553C10.455 56.3895 10.0429 56.5146 9.62123 56.5146C9.05606 56.5139 8.51422 56.2891 8.11459 55.8895C7.71495 55.4899 7.49014 54.9481 7.48947 54.3829ZM15.5695 58.8805C15.073 57.8865 14.2099 57.1242 13.1621 56.7544C13.5925 56.1127 13.8404 55.3661 13.8793 54.5944C13.9183 53.8227 13.7467 53.055 13.3831 52.3733C13.0194 51.6915 12.4773 51.1214 11.8147 50.7239C11.1521 50.3264 10.3939 50.1164 9.62123 50.1164C8.84852 50.1164 8.09035 50.3264 7.42775 50.7239C6.76515 51.1214 6.22305 51.6915 5.85939 52.3733C5.49573 53.055 5.3242 53.8227 5.36312 54.5944C5.40204 55.3661 5.64996 56.1127 6.08037 56.7544C5.03269 57.1241 4.16955 57.8862 3.67295 58.88C2.83473 57.7731 2.32204 56.4542 2.19257 55.0718C2.0631 53.6894 2.32199 52.2983 2.94011 51.055C3.55823 49.8117 4.51104 48.7656 5.69137 48.0343C6.87169 47.303 8.23269 46.9155 9.62123 46.9155C11.0098 46.9155 12.3708 47.303 13.5511 48.0343C14.7314 48.7656 15.6842 49.8117 16.3024 51.055C16.9205 52.2983 17.1794 53.6894 17.0499 55.0718C16.9204 56.4542 16.4077 57.7731 15.5695 58.88V58.8805ZM19.2142 32.0009C19.2142 29.4713 19.9643 26.9986 21.3698 24.8953C22.7752 22.792 24.7728 21.1528 27.11 20.1847C29.4471 19.2167 32.0189 18.9634 34.5 19.4569C36.9812 19.9504 39.2602 21.1685 41.049 22.9572C42.8378 24.7459 44.056 27.0248 44.5495 29.5057C45.043 31.9867 44.7897 34.5583 43.8217 36.8953C42.8536 39.2323 41.2142 41.2298 39.1108 42.6352C37.0074 44.0405 34.5344 44.7906 32.0047 44.7906C28.6136 44.7868 25.3625 43.4381 22.9646 41.0404C20.5668 38.6427 19.218 35.3918 19.2142 32.0009ZM50.1429 60.5132C50.2078 59.9982 50.4582 59.5244 50.8472 59.1808C51.2363 58.8371 51.7373 58.647 52.2564 58.6462H56.52C57.0391 58.647 57.5401 58.8371 57.9292 59.1808C58.3182 59.5244 58.5686 59.9982 58.6335 60.5132C57.3873 61.3794 55.9059 61.8436 54.3882 61.8436C52.8705 61.8436 51.3891 61.3794 50.1429 60.5132ZM52.2564 54.3829C52.2564 53.9613 52.3815 53.5492 52.6157 53.1987C52.8499 52.8481 53.1829 52.5749 53.5724 52.4136C53.9619 52.2522 54.3906 52.21 54.8041 52.2923C55.2176 52.3745 55.5975 52.5775 55.8956 52.8756C56.1937 53.1738 56.3967 53.5536 56.479 53.9671C56.5612 54.3806 56.519 54.8092 56.3577 55.1987C56.1963 55.5882 55.9231 55.9211 55.5725 56.1553C55.222 56.3895 54.8098 56.5146 54.3882 56.5146C53.823 56.5139 53.2812 56.2891 52.8816 55.8895C52.4819 55.4899 52.2571 54.9481 52.2564 54.3829ZM61.8494 54.3829C61.8508 56.0073 61.3194 57.5872 60.3365 58.8805C59.84 57.8865 58.9768 57.1242 57.9291 56.7544C58.3595 56.1127 58.6074 55.3661 58.6463 54.5944C58.6852 53.8227 58.5137 53.055 58.15 52.3733C57.7864 51.6915 57.2443 51.1214 56.5817 50.7239C55.9191 50.3264 55.1609 50.1164 54.3882 50.1164C53.6155 50.1164 52.8573 50.3264 52.1947 50.7239C51.5321 51.1214 50.99 51.6915 50.6264 52.3733C50.2627 53.055 50.0912 53.8227 50.1301 54.5944C50.169 55.3661 50.4169 56.1127 50.8473 56.7544C49.7997 57.1241 48.9365 57.8862 48.4399 58.88C47.7262 57.9362 47.2472 56.8362 47.0426 55.6708C46.838 54.5054 46.9136 53.308 47.2631 52.1776C47.6127 51.0471 48.2261 50.0161 49.0529 49.1695C49.8796 48.323 50.8959 47.6853 52.0178 47.309C53.1397 46.9328 54.335 46.8288 55.505 47.0057C56.6751 47.1826 57.7862 47.6353 58.7467 48.3264C59.7072 49.0175 60.4895 49.9271 61.029 50.9802C61.5685 52.0334 61.8497 53.1997 61.8494 54.3829Z" fill="#4D256C"/>
</svg>
