<svg width="56" height="64" viewBox="0 0 56 64" fill="none" xmlns="http://www.w3.org/2000/svg">
<path d="M15.0471 50.5931C9.16155 46.3519 5.64788 39.4231 5.64788 32.0593C5.64788 20.0167 14.958 10.0689 26.5851 9.4527V11.46C26.5851 12.7433 27.9932 13.5118 29.0327 12.7833L36.06 7.85601C36.968 7.22026 36.968 5.84525 36.0605 5.20902L29.0327 0.281252C28.7702 0.0971687 28.4653 0 28.1514 0C27.2877 0 26.5851 0.719731 26.5851 1.6045V3.647C21.7276 3.85159 17.0202 5.35258 12.9182 8.01373C12.4909 8.29107 12.3637 8.87115 12.6343 9.30914C12.9044 9.74763 13.4708 9.87751 13.8976 9.60016C17.7066 7.12944 22.0744 5.72904 26.5842 5.52592V7.57085C13.8962 8.18316 3.81625 18.9078 3.81625 32.0593C3.81625 40.034 7.62099 47.5365 13.9933 52.1288C15.0899 52.9188 13.8919 54.5521 12.8615 53.8104C-1.006 43.8274 -2.0078 23.0192 11.047 11.7413C11.4338 11.4073 11.4829 10.815 11.1571 10.4185C10.8312 10.022 10.2534 9.97126 9.86658 10.3057C-4.11857 22.3874 -3.02674 44.6673 11.8087 55.3466C12.7948 56.057 14.1534 56.057 15.1828 55.2211C16.6667 54.0243 16.591 51.7059 15.0471 50.5931ZM28.4167 2.12404L34.7038 6.53227L28.4167 10.9405V2.12404Z" fill="#4D256C"/>
<path d="M44.1832 8.65348C42.2968 7.29507 39.6797 8.76481 39.7411 11.112C39.7654 12.0363 40.2046 12.8727 40.9454 13.4069C46.8309 17.6482 50.3446 24.5764 50.3446 31.9407C50.3446 43.9833 41.0345 53.9306 29.4073 54.5469V52.54C29.4073 51.2568 27.9987 50.4882 26.9598 51.2168L19.9324 56.144C19.024 56.7798 19.0245 58.1543 19.9319 58.791C27.6091 64.1739 27.1832 63.9996 27.841 63.9996C28.7047 63.9996 29.4073 63.2798 29.4073 62.3951V60.3516C44.198 59.7363 56 47.27 56 31.9407C56 22.6853 51.5826 13.9797 44.1832 8.65348ZM27.5757 61.8755L21.2886 57.4678L27.5757 53.0595V61.8755ZM29.4088 58.4741V56.4287C42.0958 55.8169 52.1762 45.0922 52.1762 31.9407C52.1762 23.9661 48.3715 16.4636 41.9991 11.8713C41.7362 11.6818 41.5804 11.3864 41.5723 11.0612C41.5504 10.2438 42.4845 9.7238 43.131 10.1896C50.0425 15.1652 54.1688 23.2962 54.1688 31.9407C54.1684 46.1435 43.1443 57.853 29.4088 58.4741Z" fill="#4D256C"/>
<path d="M23.6344 33.4442L21.1896 30.1033C19.0689 27.2044 14.5834 28.4056 14.0861 31.9686C13.936 33.0443 14.2042 34.1151 14.8402 34.9847L19.3156 41.1015C20.9281 43.3051 24.0221 43.684 26.0957 41.9213L40.5115 29.6678C42.2002 28.2327 42.4337 25.6707 41.0336 23.9397C39.6369 22.2136 37.1298 21.9734 35.4454 23.4051L23.6344 33.4442ZM39.6236 25.138C40.3772 26.0696 40.2519 27.4495 39.3425 28.2225L24.9267 40.476C23.6615 41.5512 21.768 41.3236 20.7809 39.975L16.3055 33.8583C15.963 33.39 15.8186 32.8133 15.8996 32.2342C16.1688 30.3011 18.5873 29.6761 19.7243 31.2298L22.7459 35.3597C23.058 35.786 23.6582 35.8636 24.0636 35.5189L36.6144 24.8504C37.5214 24.0794 38.8714 24.2083 39.6236 25.138Z" fill="#4D256C"/>
</svg>
