<svg width="64" height="64" viewBox="0 0 64 64" fill="none" xmlns="http://www.w3.org/2000/svg">
<g clip-path="url(#clip0_1403:2579)">
<path d="M58.3237 59.3374C57.6936 54.8831 55.9037 50.6138 53.1799 47.0344C52.445 46.0689 50.9515 47.2053 51.6862 48.1708C53.4613 50.5037 54.8221 53.1567 55.6649 55.9649C55.7042 56.0953 55.7774 56.3574 55.7774 56.3574C55.7764 56.3574 55.7755 56.3574 55.7745 56.3574C53.4239 56.3574 51.0569 56.742 48.8593 57.4864C47.5225 58.0052 46.517 58.1987 45.327 57.2829C43.4969 55.875 41.6275 55.9164 39.6544 57.1055C38.7032 57.6787 37.7927 58.4771 36.7248 58.8384C35.2725 59.33 34.2971 58.545 34.3874 57.1041C34.4445 56.1946 34.6529 55.3075 35.0069 54.4674C36.4956 50.9325 35.0296 48.8625 31.5815 47.5386C30.3025 47.0474 29.0946 46.5834 28.5788 45.6254C28.1098 44.7548 28.2642 43.4939 29.0376 41.8778C29.6194 40.662 30.3348 39.5017 31.1672 38.4231C37.4893 38.2138 43.6833 40.5573 48.4539 44.677C49.6288 45.6915 50.7991 44.2526 49.7032 43.2765C46.9744 40.8458 43.8208 38.9339 40.331 37.804C37.9655 37.0382 35.4546 36.602 32.9383 36.5084V33.0196L33.5844 32.3805C34.4736 33.2443 36.2268 34.5757 38.5876 34.5757C42.0075 34.5757 44.1532 31.7815 44.2427 31.6625C44.4917 31.3323 44.4951 30.8782 44.2513 30.5442C42.9361 28.7425 40.616 27.5605 38.3926 27.6244L39.1691 26.8564C41.1863 26.9473 43.2918 26.3332 44.7446 24.8823C47.1635 22.4664 46.7025 18.9743 46.6817 18.8268C46.624 18.4176 46.3056 18.0944 45.8973 18.0307C45.7513 18.008 42.2887 17.4996 39.8224 19.963C37.8212 21.9618 37.7518 24.4687 37.8305 25.5408L32.9383 30.3799V18.9862C35.5923 19.0901 38.4154 18.1191 40.3186 16.2159C43.7282 12.8064 43.0252 8.01879 42.9935 7.8166C42.9296 7.40846 42.6063 7.09015 42.1973 7.0326C42.0182 7.0072 38.2923 6.51648 35.1231 8.62662C34.7618 7.07389 34.0773 5.60986 33.1021 4.32551C31.7445 2.53755 29.8532 1.05087 27.7851 0.143256C26.9006 -0.281025 26.3405 0.308789 25.9303 1.04387C25.2112 2.19046 24.6527 3.42427 24.2704 4.71138C23.9248 5.87436 25.724 6.40913 26.0695 5.24576C26.399 4.1362 26.879 3.07118 27.4963 2.07936C29.0979 2.87324 30.5436 4.05963 31.6072 5.46034C32.6293 6.80663 33.2696 8.38864 33.4728 10.057C31.3981 12.3753 31.0635 15.2774 31.0601 16.8846C28.6218 15.4275 26.5423 13.2001 25.8603 10.3795C25.5751 9.2003 23.7508 9.64122 24.036 10.8206C24.9132 14.4482 27.7521 17.4215 31.0613 19.0186V25.77L28.6683 23.3495C28.7164 22.2837 28.6085 19.6943 26.6912 17.7795C24.273 15.3642 20.7778 15.8245 20.6304 15.8453C20.2213 15.9028 19.8981 16.2211 19.8341 16.6293C19.8112 16.7753 19.3021 20.2349 21.7691 22.6988C23.2695 24.1266 25.2884 24.8393 27.3522 24.6877L31.0613 28.4397V36.5029C16.8917 36.9488 5.40945 48.9789 5.41333 63.0823C5.41333 64.2677 7.29013 64.2934 7.29013 63.083C7.28938 60.6913 7.64747 58.2496 8.33513 55.967C9.69906 55.7284 11.7678 56.1411 12.6163 57.3242C14.1095 59.4056 15.1283 60.5259 17.8272 60.7083C19.4654 60.8191 21.0836 61.9408 21.8541 63.4995C22.3489 64.5007 24.1399 63.8884 23.5366 62.6679C22.4634 60.4967 20.2721 58.9926 17.9537 58.8359C15.8493 58.6938 15.2439 57.7674 14.1413 56.2304C13.077 54.7469 11.1019 53.9177 8.97687 54.0144C12.1857 45.8131 20.0269 39.7165 28.7591 38.5718C28.2305 39.3735 27.7562 40.2077 27.3443 41.0683C26.2978 43.2553 26.1571 45.088 26.9259 46.5159C27.7717 48.0865 29.4381 48.7265 30.9082 49.2912C33.2798 50.202 34.3269 51.2478 33.2771 53.7392C32.8412 54.774 32.5843 55.8667 32.514 56.9871C32.3401 59.7565 34.6862 61.5103 37.3261 60.6166C38.5502 60.2023 39.5321 59.3708 40.6228 58.7134C41.8979 57.9451 42.9699 57.8383 44.1821 58.7708C45.8429 60.0488 47.5752 60.0507 49.461 59.2644C51.6092 58.5369 53.9356 58.1874 56.2317 58.2413C56.549 59.8326 56.7091 61.4612 56.7092 63.0837C56.7092 64.297 58.586 64.2969 58.586 63.0836C58.5863 61.8294 58.4979 60.5691 58.3237 59.3374ZM42.2212 31.0912C41.5409 31.7339 40.2437 32.6989 38.5877 32.6989C36.9162 32.6989 35.6104 31.7158 34.9361 31.0742C35.5696 30.441 36.812 29.4966 38.5877 29.4966C40.2728 29.4966 41.5538 30.4528 42.2212 31.0912ZM23.0958 21.3707C21.9027 20.1792 21.6753 18.5955 21.6561 17.6738C22.5873 17.6959 24.1828 17.9259 25.3654 19.1071C26.5466 20.2868 26.774 21.9033 26.7967 22.833C25.9018 22.8323 24.3495 22.6229 23.0958 21.3707ZM41.1489 21.2909C42.341 20.1001 43.9251 19.8721 44.8489 19.8525C44.8229 20.7869 44.5891 22.3853 43.4185 23.5544C42.236 24.7354 40.6153 24.9621 39.6843 24.9844C39.6838 24.0897 39.8935 22.5447 41.1489 21.2909ZM35.1303 11.0337C37.1133 9.05328 39.8789 8.82831 41.1907 8.84746C41.2198 10.1442 41.0098 12.8729 38.9925 14.8877C36.8632 17.0143 34.1976 17.1735 32.9424 17.1106C32.9209 15.8114 33.1352 13.0263 35.1303 11.0337Z" fill="#4D256C"/>
<path d="M24.2266 31.0524C23.0189 31.0524 23.0169 32.9292 24.2266 32.9292C25.4342 32.9292 25.4362 31.0524 24.2266 31.0524Z" fill="#4D256C"/>
<path d="M50.5353 27.7017C51.743 27.7017 51.745 25.825 50.5353 25.825C49.3278 25.825 49.3258 27.7017 50.5353 27.7017Z" fill="#4D256C"/>
<path d="M18.4246 10.4076C19.6322 10.4076 19.6342 8.53076 18.4246 8.53076C17.2169 8.53076 17.2149 10.4076 18.4246 10.4076Z" fill="#4D256C"/>
<path d="M38.3811 2.39987C39.5888 2.39987 39.5908 0.523071 38.3811 0.523071C37.1734 0.523071 37.1714 2.39987 38.3811 2.39987Z" fill="#4D256C"/>
<path d="M48.6584 13.9174C49.8661 13.9174 49.8681 12.0406 48.6584 12.0406C47.4508 12.0406 47.4488 13.9174 48.6584 13.9174Z" fill="#4D256C"/>
<path d="M15.6288 25.1597C16.8365 25.1597 16.8385 23.283 15.6288 23.283C14.4213 23.283 14.4193 25.1597 15.6288 25.1597Z" fill="#4D256C"/>
</g>
<defs>
<clipPath id="clip0_1403:2579">
<rect width="64" height="64" fill="white"/>
</clipPath>
</defs>
</svg>
