<svg width="64" height="64" viewBox="0 0 64 64" fill="none" xmlns="http://www.w3.org/2000/svg">
<path d="M13 52C13.7954 51.9991 14.5579 51.6827 15.1203 51.1203C15.6827 50.5579 15.9991 49.7954 16 49V33C15.9991 32.2046 15.6827 31.4421 15.1203 30.8797C14.5579 30.3173 13.7954 30.0009 13 30H9C8.20463 30.0009 7.44209 30.3173 6.87967 30.8797C6.31726 31.4421 6.0009 32.2046 6 33V49C6.0009 49.7954 6.31726 50.5579 6.87967 51.1203C7.44209 51.6827 8.20463 51.9991 9 52H13ZM9 31.5H13C13.3977 31.5004 13.779 31.6586 14.0602 31.9398C14.3414 32.221 14.4996 32.6023 14.5 33V49C14.4996 49.3977 14.3414 49.779 14.0602 50.0602C13.779 50.3414 13.3977 50.4996 13 50.5H9C8.60231 50.4996 8.22104 50.3414 7.93983 50.0602C7.65862 49.779 7.50044 49.3977 7.5 49V33C7.50044 32.6023 7.65862 32.221 7.93983 31.9398C8.22104 31.6586 8.60231 31.5004 9 31.5Z" fill="#4D256C"/>
<path d="M62 52.3125C62.0012 49.2972 60.9389 46.3781 59 44.0688V23C58.9991 22.2046 58.6827 21.4421 58.1203 20.8797C57.5579 20.3173 56.7954 20.0009 56 20H52C51.2046 20.0009 50.4421 20.3173 49.8797 20.8797C49.3173 21.4421 49.0009 22.2046 49 23H48C46.7613 23 45.8873 23.3927 45.4024 24.1673C45.245 24.4232 45.1347 24.7052 45.077 25H43.4142L53 15.4142L56.5858 19C56.7698 19.1862 56.9889 19.3339 57.2304 19.4348C57.4719 19.5357 57.731 19.5877 57.9928 19.5878C58.5243 19.5879 59.0341 19.3772 59.4104 19.0018C59.7867 18.6265 59.9987 18.1173 60 17.5858V4C59.9994 3.46975 59.7885 2.96139 59.4136 2.58645C59.0386 2.2115 58.5303 2.0006 58 2H44.4142C44.0187 2 43.632 2.11729 43.3031 2.33706C42.9742 2.55682 42.7178 2.86918 42.5665 3.23463C42.4151 3.60008 42.3755 4.00222 42.4527 4.39018C42.5298 4.77815 42.7203 5.13451 43 5.41422L46.5858 9.00003L40 15.5858L27.8284 3.41419C27.0783 2.66406 26.0609 2.24265 25 2.24265C23.9391 2.24265 22.9217 2.66406 22.1716 3.41419L5 20.5858C4.81428 20.7715 4.66697 20.992 4.56646 21.2347C4.46595 21.4773 4.41422 21.7374 4.41422 22C4.41422 22.2627 4.46596 22.5227 4.56647 22.7654C4.66698 23.008 4.8143 23.2285 5.00002 23.4142L8.58579 27C8.96086 27.3751 9.46957 27.5858 9.99999 27.5858C10.5304 27.5858 11.0391 27.3751 11.4142 27L25 13.4142L37.1716 25.5858C37.5421 25.9584 37.9829 26.2538 38.4684 26.4549C38.9539 26.656 39.4745 26.7588 40 26.7573C40.0377 26.7573 40.075 26.7556 40.1125 26.7546C40.0575 27.1602 40.0549 27.5713 40.1046 27.9777C40.1436 28.322 40.2049 28.6635 40.2879 29H38C37.2046 29.0009 36.4421 29.3173 35.8797 29.8797C35.3173 30.4421 35.0009 31.2046 35 32V44.0722C34.0267 45.2395 33.2667 46.569 32.7548 48H30V23C29.9991 22.2046 29.6827 21.4421 29.1203 20.8797C28.5579 20.3173 27.7954 20.0009 27 20H23C22.2046 20.0009 21.4421 20.3173 20.8797 20.8797C20.3173 21.4421 20.0009 22.2046 20 23V49C20.0009 49.7954 20.3173 50.5579 20.8797 51.1203C21.4421 51.6827 22.2046 51.9991 23 52H27C27.3407 52.0001 27.6789 51.942 28 51.828V54H4C3.46975 54.0006 2.96139 54.2115 2.58645 54.5864C2.2115 54.9614 2.0006 55.4697 2 56V60C2.0006 60.5303 2.2115 61.0386 2.58645 61.4136C2.96139 61.7885 3.46975 61.9994 4 62H60C60.5303 61.9994 61.0386 61.7885 61.4136 61.4136C61.7885 61.0386 61.9994 60.5303 62 60V56C62.0011 55.5991 61.8809 55.2072 61.6553 54.8758C61.8844 54.0406 62.0003 53.1785 62 52.3125ZM42 60.5C41.8674 60.4999 41.7403 60.4471 41.6466 60.3534C41.5529 60.2597 41.5001 60.1326 41.5 60V56C41.5001 55.8674 41.5529 55.7403 41.6466 55.6466C41.7403 55.5529 41.8674 55.5001 42 55.5H47.9092C47.9391 55.5058 47.9695 55.5089 48 55.5092C48.1326 55.5093 48.2597 55.562 48.3534 55.6558C48.4471 55.7495 48.4999 55.8766 48.5 56.0092V56.5H43C42.8674 56.5 42.7402 56.5527 42.6465 56.6464C42.5527 56.7402 42.5 56.8674 42.5 57C42.5 57.1326 42.5527 57.2598 42.6465 57.3536C42.7402 57.4473 42.8674 57.5 43 57.5H48.5V58.5H43C42.8674 58.5 42.7402 58.5527 42.6465 58.6464C42.5527 58.7402 42.5 58.8674 42.5 59C42.5 59.1326 42.5527 59.2598 42.6465 59.3536C42.7402 59.4473 42.8674 59.5 43 59.5H48.5V60C48.4999 60.1326 48.4471 60.2597 48.3534 60.3534C48.2597 60.4471 48.1326 60.4999 48 60.5H42ZM30 60.5C29.8674 60.4999 29.7403 60.4471 29.6466 60.3534C29.5529 60.2597 29.5001 60.1326 29.5 60V56C29.5001 55.8674 29.5529 55.7403 29.6466 55.6466C29.7403 55.5529 29.8674 55.5001 30 55.5H36V55.5092C36.1326 55.5093 36.2597 55.562 36.3534 55.6558C36.4471 55.7495 36.4999 55.8766 36.5 56.0092V56.5H31C30.8674 56.5 30.7402 56.5527 30.6465 56.6464C30.5527 56.7402 30.5 56.8674 30.5 57C30.5 57.1326 30.5527 57.2598 30.6465 57.3536C30.7402 57.4473 30.8674 57.5 31 57.5H36.5V58.5H31C30.8674 58.5 30.7402 58.5527 30.6465 58.6464C30.5527 58.7402 30.5 58.8674 30.5 59C30.5 59.1326 30.5527 59.2598 30.6465 59.3536C30.7402 59.4473 30.8674 59.5 31 59.5H36.5V60C36.4999 60.1326 36.4471 60.2597 36.3534 60.3534C36.2597 60.4471 36.1326 60.4999 36 60.5H30ZM3.5 56C3.50014 55.8674 3.55287 55.7403 3.6466 55.6466C3.74034 55.5529 3.86744 55.5001 4 55.5H28.5875C28.53 55.6604 28.5004 55.8296 28.5 56V60C28.5004 60.1704 28.53 60.3396 28.5875 60.5H4C3.86744 60.4999 3.74034 60.4471 3.6466 60.3534C3.55287 60.2597 3.50014 60.1326 3.5 60V56ZM23 21.5H27C27.3977 21.5004 27.779 21.6586 28.0602 21.9398C28.3414 22.221 28.4996 22.6023 28.5 23V48.6815C28.178 49.0452 28.0001 49.5142 28 50V50.1149C27.7259 50.3626 27.3695 50.4999 27 50.5H23C22.6023 50.4996 22.221 50.3414 21.9398 50.0602C21.6586 49.779 21.5004 49.3977 21.5 49V23C21.5004 22.6023 21.6586 22.221 21.9398 21.9398C22.221 21.6586 22.6023 21.5004 23 21.5ZM30 49.5H33.3813C33.4108 49.5057 33.4407 49.5088 33.4708 49.5092C33.5013 49.5089 33.5317 49.5058 33.5616 49.5H36V49.5092C36.1326 49.5093 36.2597 49.562 36.3534 49.6558C36.4471 49.7495 36.4999 49.8766 36.5 50.0092V50.5H31C30.8674 50.5 30.7402 50.5527 30.6465 50.6464C30.5527 50.7402 30.5 50.8674 30.5 51C30.5 51.1326 30.5527 51.2598 30.6465 51.3536C30.7402 51.4473 30.8674 51.5 31 51.5H36.5V52.5H31C30.8674 52.5 30.7402 52.5527 30.6465 52.6464C30.5527 52.7402 30.5 52.8674 30.5 53C30.5 53.1326 30.5527 53.2598 30.6465 53.3536C30.7402 53.4473 30.8674 53.5 31 53.5H36.5V54C36.4999 54.1326 36.4471 54.2597 36.3534 54.3534C36.2597 54.4471 36.1326 54.4999 36 54.5H30C29.8674 54.4999 29.7403 54.4471 29.6466 54.3534C29.5529 54.2597 29.5001 54.1326 29.5 54V50.6558C29.7312 50.3082 29.8868 49.9159 29.9568 49.5044C29.9713 49.5031 29.9852 49.5 30 49.5ZM38 30.5H41.3244C41.5299 30.9643 41.7829 31.4061 42.0794 31.8183C41.9168 31.9441 41.7819 32.1022 41.6832 32.2826C41.5845 32.463 41.5241 32.6619 41.5059 32.8667C41.4876 33.0715 41.5119 33.2779 41.5772 33.473C41.6424 33.668 41.7473 33.8474 41.8851 34C41.7297 34.1721 41.6166 34.3781 41.5545 34.6015C41.4925 34.8249 41.4832 35.0598 41.5276 35.2874C41.572 35.515 41.6687 35.7291 41.8102 35.9129C41.9516 36.0967 42.1339 36.245 42.3425 36.3462C41.6921 38.0271 40.6506 39.5289 39.3043 40.7273L36.6384 43.0969C36.5914 43.1386 36.5462 43.1819 36.5 43.2243V32C36.5005 31.6023 36.6586 31.221 36.9398 30.9398C37.221 30.6586 37.6023 30.5004 38 30.5ZM25 3.74255C25.3284 3.74167 25.6538 3.80594 25.9572 3.93164C26.2607 4.05734 26.5362 4.24197 26.7678 4.47485L38.9393 16.6464C39.0786 16.7857 39.244 16.8962 39.426 16.9716C39.6079 17.047 39.803 17.0858 40 17.0858C40.197 17.0858 40.3921 17.047 40.5741 16.9716C40.756 16.8962 40.9214 16.7857 41.0607 16.6464L47.6465 10.0607C47.9273 9.77911 48.085 9.39767 48.085 9C48.085 8.60233 47.9273 8.22089 47.6465 7.93933L44.0607 4.35364C43.9907 4.28371 43.9431 4.19462 43.9238 4.09762C43.9045 4.00062 43.9144 3.90008 43.9522 3.80871C43.9901 3.71733 44.0542 3.63923 44.1364 3.58428C44.2186 3.52933 44.3153 3.5 44.4142 3.5H58C58.1326 3.50014 58.2597 3.55287 58.3534 3.6466C58.4471 3.74034 58.4999 3.86744 58.5 4V17.5858C58.5 17.6847 58.4707 17.7814 58.4157 17.8636C58.3608 17.9458 58.2827 18.0099 58.1914 18.0477C58.1 18.0856 57.9995 18.0955 57.9025 18.0762C57.8055 18.0569 57.7164 18.0093 57.6465 17.9393L54.0607 14.3536C53.9215 14.2143 53.7561 14.1038 53.5741 14.0284C53.3921 13.953 53.197 13.9142 53 13.9142C52.803 13.9142 52.608 13.953 52.426 14.0284C52.244 14.1038 52.0786 14.2143 51.9393 14.3536L41.7678 24.5251C41.2989 24.994 40.663 25.2573 40 25.2573C39.337 25.2573 38.7011 24.994 38.2322 24.5251L26.0607 12.3536C25.9215 12.2143 25.7561 12.1038 25.5741 12.0284C25.3921 11.953 25.197 11.9142 25 11.9142C24.803 11.9142 24.608 11.953 24.426 12.0284C24.244 12.1038 24.0786 12.2143 23.9393 12.3536L10.3535 25.9393C10.2583 26.0303 10.1316 26.0811 9.99997 26.0811C9.8683 26.0811 9.74169 26.0303 9.64649 25.9393L6.06074 22.3536C5.96711 22.2598 5.91453 22.1326 5.91452 22C5.91451 21.8674 5.96707 21.7403 6.06067 21.6464L23.2322 4.47485C23.4638 4.24197 23.7393 4.05734 24.0428 3.93164C24.3462 3.80594 24.6716 3.74167 25 3.74255ZM41.6685 26.6854C41.7454 26.5 41.8203 26.5 41.8864 26.5H45.5259C45.5675 26.9523 45.6571 27.4781 45.7762 28.0948C45.7886 28.1594 45.8136 28.2208 45.8498 28.2757C45.8859 28.3306 45.9325 28.3778 45.987 28.4146C46.0414 28.4515 46.1025 28.4772 46.1669 28.4904C46.2313 28.5036 46.2976 28.504 46.3621 28.4915C46.4266 28.479 46.4881 28.454 46.5429 28.4178C46.5977 28.3815 46.6449 28.3349 46.6816 28.2804C46.7184 28.2259 46.7441 28.1648 46.7572 28.1004C46.7703 28.036 46.7706 27.9697 46.7581 27.9052C46.6032 27.1029 46.5 26.4719 46.5 26C46.5 25.162 46.5 24.5 48 24.5H51C51.6496 24.5 51.8904 24.7682 52.0151 24.97C52.6273 25.9604 52.0815 28.6196 50.6887 31.5H49.4125C49.3402 31.2942 49.2237 31.1067 49.0713 30.9507C48.9188 30.7946 48.7341 30.6738 48.53 30.5967C48.326 30.5195 48.1075 30.4879 47.89 30.5041C47.6725 30.5203 47.4611 30.5839 47.2707 30.6904C47.2364 30.436 47.1952 30.1756 47.1472 29.9109C47.1236 29.7804 47.0491 29.6647 46.9401 29.5891C46.8311 29.5135 46.6966 29.4844 46.5661 29.508C46.4356 29.5316 46.3199 29.6061 46.2443 29.7151C46.1688 29.8241 46.1396 29.9586 46.1632 30.0891C46.1896 30.2347 46.2131 30.3781 46.2351 30.5203C45.889 30.4624 45.5335 30.5291 45.2319 30.7084C44.9303 30.8878 44.702 31.1682 44.5875 31.5H43.1036C42.689 30.999 42.3589 30.4338 42.1263 29.8265C42.1218 29.8144 42.1172 29.8024 42.1118 29.7907C41.6328 28.5929 41.4244 27.2748 41.6685 26.6854V26.6854ZM52 21.5H56C56.3977 21.5004 56.779 21.6586 57.0602 21.9398C57.3414 22.221 57.4996 22.6023 57.5 23V43.2233C57.4539 43.1811 57.4083 43.1385 57.3616 43.0969L54.6957 40.7273C53.3494 39.5289 52.3079 38.0271 51.6575 36.3462C51.8661 36.245 52.0484 36.0967 52.1898 35.9129C52.3313 35.7291 52.428 35.515 52.4724 35.2874C52.5168 35.0598 52.5076 34.8249 52.4455 34.6015C52.3835 34.3781 52.2703 34.1721 52.1149 34C52.267 33.8314 52.3787 33.6303 52.4416 33.412C52.5044 33.1938 52.5168 32.9641 52.4776 32.7403C52.4385 32.5166 52.3489 32.3047 52.2157 32.1208C52.0825 31.9368 51.9092 31.7856 51.7088 31.6786C52.4398 30.1002 53.9965 26.2737 52.8658 24.4442C52.5996 24.0134 52.0598 23.5 51 23.5H50.5V23C50.5005 22.6023 50.6586 22.221 50.9398 21.9398C51.221 21.6586 51.6023 21.5004 52 21.5ZM60 58.5H58C58.0001 58.1593 57.942 57.8211 57.828 57.5H59.6259L59.6276 57.5001L59.6296 57.5H60C60.1326 57.5 60.2598 57.5527 60.3536 57.6464C60.4473 57.7402 60.5 57.8674 60.5 58C60.5 58.1326 60.4473 58.2598 60.3536 58.3536C60.2598 58.4473 60.1326 58.5 60 58.5ZM53.4953 55.9063C53.4868 55.7677 53.4589 55.6309 53.4125 55.5H54.5875C54.5839 55.5102 54.5798 55.5202 54.5763 55.5305C54.1951 55.5847 53.8279 55.7123 53.4953 55.9063ZM50 54.5C49.8674 54.5 49.7402 54.4473 49.6465 54.3536C49.5527 54.2598 49.5 54.1326 49.5 54C49.5 53.8674 49.5527 53.7402 49.6465 53.6464C49.7402 53.5527 49.8674 53.5 50 53.5H51.5875C51.4708 53.8231 51.4708 54.1769 51.5875 54.5H50ZM50.5 52C50.5001 51.8674 50.5529 51.7403 50.6466 51.6466C50.7403 51.5529 50.8674 51.5001 51 51.5H54C54.1326 51.5 54.2598 51.5527 54.3536 51.6464C54.4473 51.7402 54.5 51.8674 54.5 52C54.5 52.1326 54.4473 52.2598 54.3536 52.3536C54.2598 52.4473 54.1326 52.5 54 52.5H51C50.8674 52.4999 50.7403 52.4471 50.6466 52.3534C50.5529 52.2597 50.5001 52.1326 50.5 52ZM56 54.5H53C52.8674 54.5 52.7402 54.4473 52.6465 54.3536C52.5527 54.2598 52.5 54.1326 52.5 54C52.5 53.8674 52.5527 53.7402 52.6465 53.6464C52.7402 53.5527 52.8674 53.5 53 53.5H56C56.1326 53.5 56.2598 53.5527 56.3536 53.6464C56.4473 53.7402 56.5 53.8674 56.5 54C56.5 54.1326 56.4473 54.2598 56.3536 54.3536C56.2598 54.4473 56.1326 54.5 56 54.5ZM56 55.5H59C59.1326 55.5 59.2598 55.5527 59.3536 55.6464C59.4473 55.7402 59.5 55.8674 59.5 56C59.5 56.1326 59.4473 56.2598 59.3536 56.3536C59.2598 56.4473 59.1326 56.5 59 56.5H57.2337C56.8316 56.0506 56.3035 55.7326 55.7182 55.5875C55.8011 55.5305 55.8994 55.5 56 55.5ZM60.0665 54.945L60.0659 54.9462C59.9267 54.8048 59.7608 54.6925 59.5778 54.6159C59.3948 54.5393 59.1984 54.4999 59 54.5H57.4125C57.4934 54.2739 57.5187 54.0316 57.4863 53.7937C57.4538 53.5557 57.3646 53.3291 57.226 53.1329C57.0875 52.9368 56.9037 52.7768 56.6903 52.6667C56.4769 52.5565 56.2402 52.4993 56 52.5H55.4125C55.4934 52.2739 55.5187 52.0316 55.4863 51.7937C55.4538 51.5557 55.3646 51.3291 55.226 51.1329C55.0875 50.9368 54.9037 50.7768 54.6903 50.6667C54.4769 50.5565 54.2402 50.4993 54 50.5H51C50.755 50.4996 50.5137 50.5592 50.2972 50.6738C50.0806 50.7883 49.8955 50.9543 49.758 51.157C49.6206 51.3597 49.5349 51.5931 49.5086 51.8367C49.4824 52.0802 49.5162 52.3265 49.6073 52.5539C49.4078 52.6073 49.2216 52.7014 49.0604 52.8304C48.8991 52.9594 48.7664 53.1204 48.6706 53.3033C48.5747 53.4862 48.5179 53.687 48.5036 53.8929C48.4893 54.0989 48.5179 54.3056 48.5875 54.5H47.4125C47.47 54.3396 47.4996 54.1704 47.5 54V50C47.4996 49.6023 47.3414 49.221 47.0602 48.9398C46.779 48.6586 46.3977 48.5004 46 48.5H44.2294C44.406 48.1963 44.4993 47.8515 44.5 47.5002C44.5007 47.1489 44.4086 46.8037 44.2332 46.4993C44.0578 46.195 43.8051 45.9423 43.5008 45.7669C43.1965 45.5914 42.8513 45.4994 42.5 45.5H36.5C36.3674 45.5 36.2402 45.5527 36.1465 45.6464C36.0527 45.7402 36 45.8674 36 46C36 46.1326 36.0527 46.2598 36.1465 46.3536C36.2402 46.4473 36.3674 46.5 36.5 46.5C36.7652 46.5 37.0196 46.6054 37.2071 46.7929C37.3946 46.9804 37.5 47.2348 37.5 47.5C37.5 47.7652 37.3946 48.0196 37.2071 48.2071C37.0196 48.3946 36.7652 48.5 36.5 48.5H34.1621C34.8011 46.7088 35.8813 45.1076 37.3027 43.8442L39.9686 41.4746C40.9781 40.5767 41.8332 39.5191 42.5 38.344V39C42.5 39.3978 42.658 39.7794 42.9393 40.0607C43.2206 40.342 43.6022 40.5 44 40.5C44.3978 40.5 44.7794 40.342 45.0607 40.0607C45.342 39.7794 45.5 39.3978 45.5 39V37.4125C45.7535 37.5036 46.027 37.524 46.2913 37.4716C46.5555 37.4192 46.8005 37.2959 47 37.1149C47.1995 37.2959 47.4445 37.4192 47.7087 37.4716C47.973 37.524 48.2465 37.5036 48.5 37.4125V39C48.5 39.3978 48.658 39.7794 48.9393 40.0607C49.2206 40.342 49.6022 40.5 50 40.5C50.3978 40.5 50.7794 40.342 51.0607 40.0607C51.342 39.7794 51.5 39.3978 51.5 39V38.344C52.1668 39.5191 53.0219 40.5767 54.0314 41.4746L56.6972 43.8442C57.8926 44.9076 58.8495 46.2119 59.5049 47.6714C60.1603 49.1309 60.4994 50.7126 60.5 52.3125C60.5003 53.2078 60.3539 54.0971 60.0665 54.945ZM41.4125 54.5C41.47 54.3396 41.4996 54.1704 41.5 54V50C41.4996 49.8296 41.47 49.6604 41.4125 49.5H43C43.1326 49.5001 43.2597 49.5529 43.3534 49.6466C43.4471 49.7403 43.4999 49.8674 43.5 50V54C43.4999 54.1326 43.4471 54.2597 43.3534 54.3534C43.2597 54.4471 43.1326 54.4999 43 54.5H41.4125ZM37.5 53.5H39C39.1326 53.5 39.2598 53.4473 39.3536 53.3536C39.4473 53.2598 39.5 53.1326 39.5 53C39.5 52.8674 39.4473 52.7402 39.3536 52.6464C39.2598 52.5527 39.1326 52.5 39 52.5H37.5V51.5H39C39.1326 51.5 39.2598 51.4473 39.3536 51.3536C39.4473 51.2598 39.5 51.1326 39.5 51C39.5 50.8674 39.4473 50.7402 39.3536 50.6464C39.2598 50.5527 39.1326 50.5 39 50.5H37.5V50.0092C37.4996 49.8354 37.4689 49.6631 37.4091 49.5H40C40.1326 49.5001 40.2597 49.5529 40.3534 49.6466C40.4471 49.7403 40.4999 49.8674 40.5 50V54C40.4999 54.1326 40.4471 54.2597 40.3534 54.3534C40.2597 54.4471 40.1326 54.4999 40 54.5H37.4125C37.47 54.3396 37.4996 54.1704 37.5 54V53.5ZM38.2316 46.5H42.5C42.7652 46.5 43.0196 46.6054 43.2071 46.7929C43.3946 46.9804 43.5 47.2348 43.5 47.5C43.5 47.7652 43.3946 48.0196 43.2071 48.2071C43.0196 48.3946 42.7652 48.5 42.5 48.5H38.2316C38.4074 48.1961 38.5 47.8511 38.5 47.5C38.5 47.1489 38.4074 46.8039 38.2316 46.5ZM44.4125 49.5H46C46.1326 49.5001 46.2597 49.5529 46.3534 49.6466C46.4471 49.7403 46.4999 49.8674 46.5 50V50.5H46C45.8674 50.5 45.7402 50.5527 45.6465 50.6464C45.5527 50.7402 45.5 50.8674 45.5 51C45.5 51.1326 45.5527 51.2598 45.6465 51.3536C45.7402 51.4473 45.8674 51.5 46 51.5H46.5V52.5H46C45.8674 52.5 45.7402 52.5527 45.6465 52.6464C45.5527 52.7402 45.5 52.8674 45.5 53C45.5 53.1326 45.5527 53.2598 45.6465 53.3536C45.7402 53.4473 45.8674 53.5 46 53.5H46.5V54C46.4999 54.1326 46.4471 54.2597 46.3534 54.3534C46.2597 54.4471 46.1326 54.4999 46 54.5H44.4125C44.47 54.3396 44.4996 54.1704 44.5 54V50C44.4996 49.8296 44.47 49.6604 44.4125 49.5ZM42.5 33C42.5001 32.8674 42.5529 32.7403 42.6466 32.6466C42.7403 32.5529 42.8674 32.5001 43 32.5H44.1754C43.822 32.7854 43.5138 33.1226 43.2611 33.5H43C42.8674 33.4999 42.7403 33.4471 42.6466 33.3534C42.5529 33.2597 42.5001 33.1326 42.5 33ZM50.9986 32.5L50.9996 32.5001L51.0006 32.5001C51.1329 32.5005 51.2597 32.5534 51.3532 32.6472C51.4466 32.741 51.499 32.8679 51.4989 33.0003C51.4988 33.1327 51.4463 33.2596 51.3528 33.3533C51.2592 33.447 51.1324 33.4997 51 33.5H50.7389C50.4862 33.1226 50.1779 32.7854 49.8245 32.5H50.9986ZM49.5 36V33.5529C50.1393 34.2073 50.4981 35.0852 50.5 36V39C50.5 39.1326 50.4473 39.2598 50.3536 39.3536C50.2598 39.4473 50.1326 39.5 50 39.5C49.8674 39.5 49.7402 39.4473 49.6465 39.3536C49.5527 39.2598 49.5 39.1326 49.5 39V36ZM51.4332 35.2449C51.3949 35.019 51.3394 34.7963 51.2672 34.5789C51.3383 34.6237 51.397 34.6859 51.4377 34.7595C51.4784 34.8331 51.4999 34.9159 51.5 35C51.4995 35.0861 51.4764 35.1705 51.4332 35.2449ZM48.5 36C48.5 36.1326 48.4473 36.2598 48.3536 36.3536C48.2598 36.4473 48.1326 36.5 48 36.5C47.8674 36.5 47.7402 36.4473 47.6465 36.3536C47.5527 36.2598 47.5 36.1326 47.5 36V32C47.5 31.8674 47.5527 31.7402 47.6465 31.6464C47.7402 31.5527 47.8674 31.5 48 31.5C48.1326 31.5 48.2598 31.5527 48.3536 31.6464C48.4473 31.7402 48.5 31.8674 48.5 32V36ZM46.5 32V36C46.5 36.1326 46.4473 36.2598 46.3536 36.3536C46.2598 36.4473 46.1326 36.5 46 36.5C45.8674 36.5 45.7402 36.4473 45.6465 36.3536C45.5527 36.2598 45.5 36.1326 45.5 36V32C45.5 31.8674 45.5527 31.7402 45.6465 31.6464C45.7402 31.5527 45.8674 31.5 46 31.5C46.1326 31.5 46.2598 31.5527 46.3536 31.6464C46.4473 31.7402 46.5 31.8674 46.5 32ZM43.5 36C43.5019 35.0852 43.8607 34.2073 44.5 33.5529V39C44.5 39.1326 44.4473 39.2598 44.3536 39.3536C44.2598 39.4473 44.1326 39.5 44 39.5C43.8674 39.5 43.7402 39.4473 43.6465 39.3536C43.5527 39.2598 43.5 39.1326 43.5 39V36ZM42.7328 34.5789C42.6606 34.7963 42.6051 35.019 42.5668 35.2449C42.5023 35.1341 42.4836 35.0025 42.5146 34.8782C42.5456 34.7538 42.6239 34.6464 42.7328 34.5789ZM37.5 60V59.5H39C39.1326 59.5 39.2598 59.4473 39.3536 59.3536C39.4473 59.2598 39.5 59.1326 39.5 59C39.5 58.8674 39.4473 58.7402 39.3536 58.6464C39.2598 58.5527 39.1326 58.5 39 58.5H37.5V57.5H39C39.1326 57.5 39.2598 57.4473 39.3536 57.3536C39.4473 57.2598 39.5 57.1326 39.5 57C39.5 56.8674 39.4473 56.7402 39.3536 56.6464C39.2598 56.5527 39.1326 56.5 39 56.5H37.5V56.0092C37.4996 55.8354 37.4689 55.6631 37.4091 55.5H40C40.1326 55.5001 40.2597 55.5529 40.3534 55.6466C40.4471 55.7403 40.4999 55.8674 40.5 56V60C40.4999 60.1326 40.4471 60.2597 40.3534 60.3534C40.2597 60.4471 40.1326 60.4999 40 60.5H37.4125C37.47 60.3396 37.4996 60.1704 37.5 60ZM49.5 60V59.5H51C51.1326 59.5 51.2598 59.4473 51.3536 59.3536C51.4473 59.2598 51.5 59.1326 51.5 59C51.5 58.8674 51.4473 58.7402 51.3536 58.6464C51.2598 58.5527 51.1326 58.5 51 58.5H49.5V57.5H51C51.1326 57.5 51.2598 57.4473 51.3536 57.3536C51.4473 57.2598 51.5 57.1326 51.5 57C51.5 56.8674 51.4473 56.7402 51.3536 56.6464C51.2598 56.5527 51.1326 56.5 51 56.5H49.5V56.0092C49.4996 55.8354 49.4689 55.6631 49.4091 55.5H52C52.1326 55.5001 52.2597 55.5529 52.3534 55.6466C52.4471 55.7403 52.4999 55.8674 52.5 56V56.8442C52.1771 57.33 52.0033 57.8996 52.0001 58.4829C51.9968 59.0662 52.1642 59.6377 52.4816 60.1271C52.4537 60.2337 52.3913 60.328 52.3042 60.3955C52.2171 60.4629 52.1102 60.4997 52 60.5H49.4125C49.47 60.3396 49.4996 60.1704 49.5 60ZM53 58.5C53 58.1044 53.1173 57.7178 53.3371 57.3889C53.5568 57.06 53.8692 56.8036 54.2346 56.6522C54.6001 56.5009 55.0022 56.4613 55.3902 56.5384C55.7782 56.6156 56.1345 56.8061 56.4142 57.0858C56.6939 57.3655 56.8844 57.7219 56.9616 58.1098C57.0387 58.4978 56.9991 58.8999 56.8478 59.2654C56.6964 59.6308 56.44 59.9432 56.1111 60.1629C55.7822 60.3827 55.3956 60.5 55 60.5C54.4698 60.4994 53.9614 60.2885 53.5865 59.9135C53.2115 59.5386 53.0006 59.0302 53 58.5ZM57.2337 60.5C57.4951 60.2086 57.697 59.8689 57.828 59.5H60C60.1326 59.5 60.2598 59.5527 60.3536 59.6464C60.4473 59.7402 60.5 59.8674 60.5 60C60.5 60.1326 60.4473 60.2598 60.3536 60.3536C60.2598 60.4473 60.1326 60.5 60 60.5H57.2337ZM60.4539 56.5706C60.4693 56.5412 60.4849 56.5119 60.5 56.4824V56.5875C60.4846 56.582 60.4696 56.5756 60.4539 56.5706Z" fill="#4D256C"/>
<path d="M55 57C54.7033 57 54.4133 57.088 54.1666 57.2528C53.92 57.4176 53.7277 57.6519 53.6142 57.926C53.5006 58.2001 53.4709 58.5017 53.5288 58.7926C53.5867 59.0836 53.7296 59.3509 53.9393 59.5607C54.1491 59.7704 54.4164 59.9133 54.7074 59.9712C54.9983 60.0291 55.2999 59.9994 55.574 59.8858C55.8481 59.7723 56.0824 59.58 56.2472 59.3334C56.412 59.0867 56.5 58.7967 56.5 58.5C56.4996 58.1023 56.3414 57.721 56.0602 57.4398C55.779 57.1586 55.3977 57.0004 55 57ZM55 59C54.9011 59 54.8044 58.9707 54.7222 58.9157C54.64 58.8608 54.5759 58.7827 54.5381 58.6913C54.5002 58.6 54.4903 58.4994 54.5096 58.4025C54.5289 58.3055 54.5765 58.2164 54.6464 58.1464C54.7164 58.0765 54.8055 58.0289 54.9025 58.0096C54.9994 57.9903 55.1 58.0002 55.1913 58.0381C55.2827 58.0759 55.3608 58.14 55.4157 58.2222C55.4707 58.3044 55.5 58.4011 55.5 58.5C55.4999 58.6326 55.4471 58.7597 55.3534 58.8534C55.2597 58.9471 55.1326 58.9999 55 59Z" fill="#4D256C"/>
</svg>
