<svg width="207" height="94" viewBox="0 0 207 94" fill="none" xmlns="http://www.w3.org/2000/svg">
<line x1="59" y1="92" x2="149" y2="92" stroke="#4D256C" stroke-width="4"/>
<path d="M118.84 54.352V50.064H123.384V54.352H118.84ZM118.904 74V57.104H123.32V74H118.904ZM127.679 68.816V62.288C127.679 58.832 129.407 57.104 132.863 57.104H137.791V50.32H142.207V74H132.863C129.407 74 127.679 72.272 127.679 68.816ZM132.095 69.136C132.095 69.8187 132.437 70.16 133.119 70.16H137.791V60.944H133.119C132.437 60.944 132.095 61.2853 132.095 61.968V69.136ZM146.554 68.816V62.288C146.554 58.832 148.282 57.104 151.738 57.104H155.898C159.354 57.104 161.082 58.832 161.082 62.288V67.216H150.97V69.136C150.97 69.8187 151.312 70.16 151.994 70.16H160.442V72.56L158.522 74H151.738C148.282 74 146.554 72.272 146.554 68.816ZM150.97 63.76H156.666V61.968C156.666 61.2853 156.325 60.944 155.642 60.944H151.994C151.312 60.944 150.97 61.2853 150.97 61.968V63.76ZM165.371 54.352V50.064H169.915V54.352H165.371ZM165.435 74V57.104H169.851V74H165.435ZM178.754 74C175.298 74 173.57 72.304 173.57 68.912C173.57 65.52 175.298 63.824 178.754 63.824H183.17V61.968C183.17 61.2853 182.829 60.944 182.146 60.944H175.362V58.544L177.282 57.104H182.402C185.858 57.104 187.586 58.832 187.586 62.288V74H178.754ZM177.986 69.136C177.986 69.8187 178.328 70.16 179.01 70.16H183.17V67.28H179.01C178.328 67.28 177.986 67.6213 177.986 68.304V69.136ZM191.484 72.56V70.16H198.844C199.57 70.16 199.932 69.7547 199.932 68.944C199.932 68.112 199.612 67.6427 198.972 67.536L195.516 66.96C192.828 66.512 191.484 64.9547 191.484 62.288C191.484 58.832 193.212 57.104 196.668 57.104H201.628L203.548 58.544V60.944H196.956C196.231 60.944 195.868 61.3493 195.868 62.16C195.868 62.992 196.188 63.4613 196.828 63.568L200.284 64.144C202.972 64.592 204.316 66.1493 204.316 68.816C204.316 72.272 202.588 74 199.132 74H193.404L191.484 72.56Z" fill="#218738"/>
<path d="M97.0813 39.104V33.44L107.209 10.88H113.065L113.881 12.32L104.665 32.864H112.921V23.36H119.833V44H112.921V39.104H97.0813ZM125.311 41.504V37.76H139.231C140.191 37.76 140.671 37.28 140.671 36.32V31.52C140.671 30.56 140.191 30.08 139.231 30.08H128.863V23.84H139.231C140.191 23.84 140.671 23.36 140.671 22.4V18.56C140.671 17.6 140.191 17.12 139.231 17.12H125.791V13.376L129.007 10.88H139.519C144.895 10.88 147.583 13.568 147.583 18.944V22.016C147.583 23.296 147.183 24.336 146.383 25.136L144.703 26.816L146.383 28.496C147.183 29.296 147.583 30.336 147.583 31.616V35.936C147.583 41.312 144.895 44 139.519 44H128.527L125.311 41.504Z" fill="#218738"/>
<path d="M96.496 41.104V35.44L106.624 12.88H112.48L113.296 14.32L104.08 34.864H112.336V25.36H119.248V46H112.336V41.104H96.496ZM124.726 43.504V39.76H138.646C139.606 39.76 140.086 39.28 140.086 38.32V33.52C140.086 32.56 139.606 32.08 138.646 32.08H128.278V25.84H138.646C139.606 25.84 140.086 25.36 140.086 24.4V20.56C140.086 19.6 139.606 19.12 138.646 19.12H125.206V15.376L128.422 12.88H138.934C144.31 12.88 146.998 15.568 146.998 20.944V24.016C146.998 25.296 146.598 26.336 145.798 27.136L144.118 28.816L145.798 30.496C146.598 31.296 146.998 32.336 146.998 33.616V37.936C146.998 43.312 144.31 46 138.934 46H127.942L124.726 43.504Z" fill="#4D256C"/>
<g clip-path="url(#clip0_108_1626)">
<path d="M66.1248 16.6375C63.5385 5.15269 52.1316 -2.06103 40.6468 0.52513C34.8354 1.83379 29.8367 5.51448 26.862 10.6756H26.6633C18.2996 10.6955 11.1387 16.6755 9.62823 24.9018C3.38072 27.2151 -0.539603 33.4305 0.0641507 40.0651C0.506926 44.6925 3.15475 48.8222 7.17522 51.1557L8.5417 48.8666C5.25564 46.9657 3.08792 43.5968 2.7198 39.8185C2.19804 34.1311 5.73757 28.8574 11.1987 27.1855C11.6991 27.033 12.0641 26.6017 12.1319 26.083C13.1058 18.7984 19.3141 13.3551 26.6633 13.342C26.8713 13.342 27.0766 13.3566 27.2819 13.37L27.5485 13.3873C28.0706 13.4176 28.5622 13.1396 28.8057 12.6767C33.5837 3.5514 44.8548 0.0271955 53.9801 4.80524C59.0671 7.46889 62.6436 12.3273 63.6758 17.976C63.7716 18.5074 64.1786 18.9286 64.7063 19.0425C72.638 20.7678 78.0269 28.1508 77.2527 36.231C76.8366 40.5547 74.6339 44.5082 71.1761 47.1375L72.8106 49.2426C76.8517 46.1643 79.4241 41.5386 79.907 36.4816C80.7766 27.3885 74.9492 18.9979 66.1248 16.6375Z" fill="#4D256C"/>
<path d="M64.9194 17.8405C62.4861 6.94137 51.7546 0.0955355 40.9497 2.54981C35.4823 3.79173 30.7796 7.28471 27.9809 12.1827H27.794C19.9254 12.2015 13.1884 17.8766 11.7674 25.6833C5.88974 27.8787 2.20151 33.7771 2.76952 40.0733C3.18608 44.4647 5.67715 48.3838 9.45961 50.5983L10.7452 48.426C7.65367 46.622 5.61428 43.4249 5.26795 39.8393C4.77708 34.4419 8.10707 29.4372 13.2449 27.8505C13.7157 27.7058 14.059 27.2965 14.1229 26.8042C15.0391 19.8912 20.8799 14.7255 27.794 14.713C27.9897 14.713 28.1828 14.7269 28.376 14.7396L28.6268 14.756C29.118 14.7848 29.5805 14.521 29.8096 14.0817C34.3047 5.42174 44.9085 2.07727 53.4936 6.61164C58.2794 9.13945 61.6442 13.75 62.6153 19.1107C62.7055 19.6151 63.0883 20.0147 63.5849 20.1229C71.0469 21.7602 76.1169 28.7667 75.3885 36.4347C74.997 40.538 72.9247 44.2898 69.6717 46.7851L71.2093 48.7828C75.0112 45.8615 77.4313 41.4717 77.8856 36.6726C78.7037 28.0431 73.2213 20.0805 64.9194 17.8405Z" fill="#218738"/>
<path d="M41.3302 61.3358H38.6639C33.5124 61.3416 29.3376 65.5164 29.3318 70.6679V80H50.6623V70.6679C50.6563 65.5164 46.4817 61.3416 41.3302 61.3358ZM47.996 77.3337H31.9981V70.6679C32.0024 66.9884 34.9844 64.0064 38.6639 64.0021H41.3302C45.0097 64.0064 47.9917 66.9884 47.996 70.6679V77.3337Z" fill="#4D256C"/>
<path d="M39.9972 46.6711C36.3159 46.6711 33.3314 49.6555 33.3314 53.3368C33.3314 57.0182 36.3159 60.0026 39.9972 60.0026C43.6767 59.9983 46.6587 57.0164 46.663 53.3368C46.663 49.6555 43.6786 46.6711 39.9972 46.6711ZM39.9972 57.3363C37.7883 57.3363 35.9977 55.5457 35.9977 53.3368C35.9977 51.128 37.7883 49.3374 39.9972 49.3374C42.2061 49.3374 43.9967 51.128 43.9967 53.3368C43.9967 55.5457 42.2059 57.3363 39.9972 57.3363Z" fill="#4D256C"/>
<path d="M17.3334 61.3358H14.6671C9.51558 61.3416 5.34079 65.5164 5.33496 70.6679V80H26.6655V70.6679C26.6595 65.5164 22.4849 61.3416 17.3334 61.3358ZM23.9992 77.3337H8.00128V70.6679C8.00561 66.9884 10.9876 64.0064 14.6671 64.0021H17.3334C21.0129 64.0064 23.9948 66.9884 23.9992 70.6679V77.3337Z" fill="#4D256C"/>
<path d="M16.0004 46.6711C12.319 46.6711 9.33459 49.6555 9.33459 53.3368C9.33459 57.0182 12.319 60.0026 16.0004 60.0026C19.6799 59.9983 22.6618 57.0164 22.6662 53.3368C22.6662 49.6555 19.6817 46.6711 16.0004 46.6711ZM16.0004 57.3363C13.7915 57.3363 12.0009 55.5457 12.0009 53.3368C12.0009 51.128 13.7915 49.3374 16.0004 49.3374C18.2093 49.3374 19.9999 51.128 19.9999 53.3368C19.9999 55.5457 18.2091 57.3363 16.0004 57.3363Z" fill="#4D256C"/>
<path d="M65.3272 61.3358H62.6608C57.5094 61.3416 53.3346 65.5164 53.3287 70.6679V80H74.6593V70.6679C74.6533 65.5164 70.4787 61.3416 65.3272 61.3358ZM71.993 77.3337H55.9951V70.6679C55.9994 66.9884 58.9813 64.0064 62.6608 64.0021H65.3272C69.0067 64.0064 71.9886 66.9884 71.993 70.6679V77.3337Z" fill="#4D256C"/>
<path d="M63.9939 46.6711C60.3126 46.6711 57.3281 49.6555 57.3281 53.3368C57.3281 57.0182 60.3126 60.0026 63.9939 60.0026C67.6734 59.9983 70.6554 57.0164 70.6597 53.3368C70.6597 49.6555 67.6753 46.6711 63.9939 46.6711ZM63.9939 57.3363C61.785 57.3363 59.9944 55.5457 59.9944 53.3368C59.9944 51.128 61.785 49.3374 63.9939 49.3374C66.2028 49.3374 67.9934 51.128 67.9934 53.3368C67.9934 55.5457 66.2026 57.3363 63.9939 57.3363Z" fill="#4D256C"/>
<g clip-path="url(#clip1_108_1626)">
<path d="M42.7119 16.5018C42.9318 16.5018 43.11 16.322 43.11 16.1002V13.393C43.11 13.1712 42.9318 12.9915 42.7119 12.9915C42.4919 12.9915 42.3137 13.1712 42.3137 13.393V16.1002C42.3137 16.322 42.4919 16.5018 42.7119 16.5018Z" fill="#4D256C"/>
<path d="M35.2835 19.3699C35.439 19.5267 35.691 19.5267 35.8466 19.3699C36.0021 19.213 36.0021 18.9588 35.8466 18.802L33.9485 16.8876C33.793 16.7309 33.541 16.7308 33.3854 16.8876C33.2299 17.0445 33.2299 17.2987 33.3854 17.4555L35.2835 19.3699Z" fill="#4D256C"/>
<path d="M32.6045 25.8923H29.9202C29.7003 25.8923 29.5221 26.072 29.5221 26.2938C29.5221 26.5156 29.7003 26.6954 29.9202 26.6954H32.6045C32.8244 26.6954 33.0026 26.5156 33.0026 26.2938C33.0026 26.072 32.8244 25.8923 32.6045 25.8923Z" fill="#4D256C"/>
<path d="M35.2835 33.2178L33.3854 35.1321C33.2299 35.289 33.2299 35.5432 33.3854 35.7C33.541 35.8568 33.793 35.8568 33.9485 35.7L35.8466 33.7858C36.0021 33.6289 36.0021 33.3747 35.8466 33.2178C35.6911 33.0611 35.439 33.0611 35.2835 33.2178Z" fill="#4D256C"/>
<path d="M50.1403 33.2178C49.9847 33.0611 49.7327 33.0611 49.5772 33.2178C49.4217 33.3747 49.4217 33.6289 49.5772 33.7857L51.4753 35.7C51.6308 35.8568 51.8828 35.8568 52.0384 35.7C52.1939 35.5432 52.1939 35.289 52.0384 35.1321L50.1403 33.2178Z" fill="#4D256C"/>
<path d="M55.5034 25.8923H52.8192C52.5992 25.8923 52.421 26.072 52.421 26.2938C52.421 26.5156 52.5992 26.6954 52.8192 26.6954H55.5034C55.7234 26.6954 55.9016 26.5156 55.9016 26.2938C55.9016 26.072 55.7233 25.8923 55.5034 25.8923Z" fill="#4D256C"/>
<path d="M51.4753 16.8876L49.5772 18.802C49.4217 18.9589 49.4217 19.2131 49.5772 19.3699C49.7327 19.5267 49.9847 19.5267 50.1403 19.3699L52.0384 17.4555C52.1939 17.2987 52.1939 17.0444 52.0384 16.8876C51.8828 16.7309 51.6308 16.7309 51.4753 16.8876Z" fill="#4D256C"/>
<path d="M50.5773 25.4822C50.5773 21.0451 47.0489 17.4353 42.7118 17.4353C41.1926 17.4353 39.718 17.8793 38.4476 18.7194C37.2117 19.5367 36.2264 20.6864 35.5983 22.0444C35.5053 22.2454 35.5916 22.4843 35.7908 22.5781C35.9902 22.672 36.227 22.5849 36.32 22.384C37.4846 19.8657 39.9936 18.2384 42.7118 18.2384C46.6098 18.2384 49.781 21.488 49.781 25.4822C49.781 27.3793 49.0702 29.1729 47.7795 30.5325C47.0356 31.3161 46.4024 32.0648 46.2394 33.1139H39.2883C39.083 32.0248 38.3464 31.2607 37.6845 30.5747C36.3678 29.2099 35.6426 27.4013 35.6426 25.4822C35.6426 25.0083 35.6876 24.5343 35.7762 24.0734C35.8181 23.8557 35.677 23.645 35.4611 23.6027C35.2453 23.5608 35.0363 23.7028 34.9944 23.9205C34.8961 24.4317 34.8463 24.9571 34.8463 25.4822C34.8463 27.6117 35.6516 29.6193 37.1138 31.1348C37.9536 32.0051 38.5481 32.6999 38.5481 33.7182C38.5481 33.7217 38.5481 33.7254 38.5482 33.7289L38.5711 36.0854C38.5711 36.8499 38.9754 37.5209 39.5797 37.8925V38.3341C39.5797 39.4412 40.4727 40.3419 41.5705 40.3419H44.0125C45.1102 40.3419 46.0033 39.4412 46.0033 38.3341V37.8925C46.6075 37.5209 47.0119 36.8499 47.0119 36.0854C47.0119 36.0854 47.0091 33.4605 47.0038 33.4343C47.0793 32.5037 47.6387 31.8422 48.3547 31.0879C49.7879 29.5781 50.5773 27.5872 50.5773 25.4822ZM45.2069 38.3341C45.2069 38.9983 44.671 39.5388 44.0124 39.5388H41.5704C40.9118 39.5388 40.376 38.9983 40.376 38.3341V38.1793C40.4715 38.1928 40.5688 38.2003 40.668 38.2003H44.9149C45.014 38.2003 45.1114 38.1928 45.2069 38.1793V38.3341ZM44.9149 37.3971H40.668C39.9507 37.3971 39.3673 36.8087 39.3673 36.0854V36.0586H43.4019C43.6219 36.0586 43.8001 35.8789 43.8001 35.6571C43.8001 35.4352 43.6219 35.2555 43.4019 35.2555H39.3673V33.917H46.2032L46.2156 35.2555H45.26C45.04 35.2555 44.8618 35.4352 44.8618 35.6571C44.8618 35.8789 45.04 36.0586 45.26 36.0586H46.2156V36.0854C46.2156 36.8087 45.6321 37.3971 44.9149 37.3971Z" fill="#4D256C"/>
</g>
</g>
<defs>
<clipPath id="clip0_108_1626">
<rect width="80" height="80" fill="white"/>
</clipPath>
<clipPath id="clip1_108_1626">
<rect width="27.1186" height="27.3504" fill="white" transform="translate(29.1525 12.9915)"/>
</clipPath>
</defs>
</svg>
