<svg width="332" height="98" viewBox="0 0 332 98" fill="none" xmlns="http://www.w3.org/2000/svg">
<rect width="327.693" height="88" rx="16" fill="#3D874D"/>
<g filter="url(#filter0_d_108_1117)">
<rect x="6.30171" y="2" width="321.698" height="88" rx="16" fill="#F9F9F9"/>
</g>
<path d="M125.567 34.529C126.011 34.529 126.398 34.475 126.728 34.367C127.058 34.253 127.331 34.094 127.547 33.89C127.769 33.68 127.934 33.428 128.042 33.134C128.15 32.834 128.204 32.501 128.204 32.135C128.204 31.787 128.15 31.472 128.042 31.19C127.934 30.908 127.772 30.668 127.556 30.47C127.34 30.272 127.067 30.122 126.737 30.02C126.407 29.912 126.017 29.858 125.567 29.858H123.758V34.529H125.567ZM125.567 27.986C126.437 27.986 127.19 28.088 127.826 28.292C128.462 28.496 128.987 28.781 129.401 29.147C129.815 29.513 130.121 29.951 130.319 30.461C130.523 30.971 130.625 31.529 130.625 32.135C130.625 32.765 130.52 33.344 130.31 33.872C130.1 34.394 129.785 34.844 129.365 35.222C128.945 35.6 128.417 35.894 127.781 36.104C127.151 36.314 126.413 36.419 125.567 36.419H123.758V41H121.337V27.986H125.567ZM134.086 33.368C134.374 32.816 134.716 32.384 135.112 32.072C135.508 31.754 135.976 31.595 136.516 31.595C136.942 31.595 137.284 31.688 137.542 31.874L137.398 33.539C137.368 33.647 137.323 33.725 137.263 33.773C137.209 33.815 137.134 33.836 137.038 33.836C136.948 33.836 136.813 33.821 136.633 33.791C136.459 33.761 136.288 33.746 136.12 33.746C135.874 33.746 135.655 33.782 135.463 33.854C135.271 33.926 135.097 34.031 134.941 34.169C134.791 34.301 134.656 34.463 134.536 34.655C134.422 34.847 134.314 35.066 134.212 35.312V41H131.989V31.766H133.294C133.522 31.766 133.681 31.808 133.771 31.892C133.861 31.97 133.921 32.114 133.951 32.324L134.086 33.368ZM142.527 31.622C143.211 31.622 143.832 31.733 144.39 31.955C144.954 32.177 145.434 32.492 145.83 32.9C146.232 33.308 146.541 33.806 146.757 34.394C146.973 34.982 147.081 35.639 147.081 36.365C147.081 37.097 146.973 37.757 146.757 38.345C146.541 38.933 146.232 39.434 145.83 39.848C145.434 40.262 144.954 40.58 144.39 40.802C143.832 41.024 143.211 41.135 142.527 41.135C141.837 41.135 141.21 41.024 140.646 40.802C140.082 40.58 139.599 40.262 139.197 39.848C138.801 39.434 138.492 38.933 138.27 38.345C138.054 37.757 137.946 37.097 137.946 36.365C137.946 35.639 138.054 34.982 138.27 34.394C138.492 33.806 138.801 33.308 139.197 32.9C139.599 32.492 140.082 32.177 140.646 31.955C141.21 31.733 141.837 31.622 142.527 31.622ZM142.527 39.425C143.295 39.425 143.862 39.167 144.228 38.651C144.6 38.135 144.786 37.379 144.786 36.383C144.786 35.387 144.6 34.628 144.228 34.106C143.862 33.584 143.295 33.323 142.527 33.323C141.747 33.323 141.168 33.587 140.79 34.115C140.418 34.637 140.232 35.393 140.232 36.383C140.232 37.373 140.418 38.129 140.79 38.651C141.168 39.167 141.747 39.425 142.527 39.425ZM151.081 31.766V41.315C151.081 41.717 151.027 42.095 150.919 42.449C150.817 42.803 150.649 43.112 150.415 43.376C150.187 43.646 149.884 43.856 149.506 44.006C149.134 44.162 148.678 44.24 148.138 44.24C147.928 44.24 147.733 44.225 147.553 44.195C147.373 44.171 147.187 44.129 146.995 44.069L147.076 42.872C147.094 42.752 147.142 42.674 147.22 42.638C147.298 42.608 147.448 42.593 147.67 42.593C147.892 42.593 148.078 42.569 148.228 42.521C148.384 42.479 148.507 42.407 148.597 42.305C148.687 42.209 148.75 42.08 148.786 41.918C148.828 41.756 148.849 41.555 148.849 41.315V31.766H151.081ZM151.387 29.075C151.387 29.267 151.348 29.447 151.27 29.615C151.192 29.783 151.087 29.93 150.955 30.056C150.829 30.182 150.676 30.284 150.496 30.362C150.322 30.434 150.136 30.47 149.938 30.47C149.746 30.47 149.566 30.434 149.398 30.362C149.23 30.284 149.083 30.182 148.957 30.056C148.831 29.93 148.729 29.783 148.651 29.615C148.579 29.447 148.543 29.267 148.543 29.075C148.543 28.877 148.579 28.691 148.651 28.517C148.729 28.343 148.831 28.193 148.957 28.067C149.083 27.941 149.23 27.842 149.398 27.77C149.566 27.692 149.746 27.653 149.938 27.653C150.136 27.653 150.322 27.692 150.496 27.77C150.676 27.842 150.829 27.941 150.955 28.067C151.087 28.193 151.192 28.343 151.27 28.517C151.348 28.691 151.387 28.877 151.387 29.075ZM159.296 35.321C159.296 35.033 159.254 34.763 159.17 34.511C159.092 34.253 158.972 34.028 158.81 33.836C158.648 33.644 158.441 33.494 158.189 33.386C157.943 33.272 157.655 33.215 157.325 33.215C156.683 33.215 156.176 33.398 155.804 33.764C155.438 34.13 155.204 34.649 155.102 35.321H159.296ZM155.057 36.662C155.093 37.136 155.177 37.547 155.309 37.895C155.441 38.237 155.615 38.522 155.831 38.75C156.047 38.972 156.302 39.14 156.596 39.254C156.896 39.362 157.226 39.416 157.586 39.416C157.946 39.416 158.255 39.374 158.513 39.29C158.777 39.206 159.005 39.113 159.197 39.011C159.395 38.909 159.566 38.816 159.71 38.732C159.86 38.648 160.004 38.606 160.142 38.606C160.328 38.606 160.466 38.675 160.556 38.813L161.195 39.623C160.949 39.911 160.673 40.154 160.367 40.352C160.061 40.544 159.74 40.7 159.404 40.82C159.074 40.934 158.735 41.015 158.387 41.063C158.045 41.111 157.712 41.135 157.388 41.135C156.746 41.135 156.149 41.03 155.597 40.82C155.045 40.604 154.565 40.289 154.157 39.875C153.749 39.455 153.428 38.939 153.194 38.327C152.96 37.709 152.843 36.995 152.843 36.185C152.843 35.555 152.945 34.964 153.149 34.412C153.353 33.854 153.644 33.371 154.022 32.963C154.406 32.549 154.871 32.222 155.417 31.982C155.969 31.742 156.59 31.622 157.28 31.622C157.862 31.622 158.399 31.715 158.891 31.901C159.383 32.087 159.806 32.36 160.16 32.72C160.514 33.074 160.79 33.512 160.988 34.034C161.192 34.55 161.294 35.141 161.294 35.807C161.294 36.143 161.258 36.371 161.186 36.491C161.114 36.605 160.976 36.662 160.772 36.662H155.057ZM165.952 41.144C165.148 41.144 164.53 40.919 164.098 40.469C163.672 40.013 163.459 39.386 163.459 38.588V33.431H162.514C162.394 33.431 162.292 33.392 162.208 33.314C162.124 33.236 162.082 33.119 162.082 32.963V32.081L163.567 31.838L164.035 29.318C164.065 29.198 164.122 29.105 164.206 29.039C164.29 28.973 164.398 28.94 164.53 28.94H165.682V31.847H168.148V33.431H165.682V38.435C165.682 38.723 165.751 38.948 165.889 39.11C166.033 39.272 166.228 39.353 166.474 39.353C166.612 39.353 166.726 39.338 166.816 39.308C166.912 39.272 166.993 39.236 167.059 39.2C167.131 39.164 167.194 39.131 167.248 39.101C167.302 39.065 167.356 39.047 167.41 39.047C167.476 39.047 167.53 39.065 167.572 39.101C167.614 39.131 167.659 39.179 167.707 39.245L168.373 40.325C168.049 40.595 167.677 40.799 167.257 40.937C166.837 41.075 166.402 41.144 165.952 41.144ZM173.587 31.622C174.271 31.622 174.892 31.733 175.45 31.955C176.014 32.177 176.494 32.492 176.89 32.9C177.292 33.308 177.601 33.806 177.817 34.394C178.033 34.982 178.141 35.639 178.141 36.365C178.141 37.097 178.033 37.757 177.817 38.345C177.601 38.933 177.292 39.434 176.89 39.848C176.494 40.262 176.014 40.58 175.45 40.802C174.892 41.024 174.271 41.135 173.587 41.135C172.897 41.135 172.27 41.024 171.706 40.802C171.142 40.58 170.659 40.262 170.257 39.848C169.861 39.434 169.552 38.933 169.33 38.345C169.114 37.757 169.006 37.097 169.006 36.365C169.006 35.639 169.114 34.982 169.33 34.394C169.552 33.806 169.861 33.308 170.257 32.9C170.659 32.492 171.142 32.177 171.706 31.955C172.27 31.733 172.897 31.622 173.587 31.622ZM173.587 39.425C174.355 39.425 174.922 39.167 175.288 38.651C175.66 38.135 175.846 37.379 175.846 36.383C175.846 35.387 175.66 34.628 175.288 34.106C174.922 33.584 174.355 33.323 173.587 33.323C172.807 33.323 172.228 33.587 171.85 34.115C171.478 34.637 171.292 35.393 171.292 36.383C171.292 37.373 171.478 38.129 171.85 38.651C172.228 39.167 172.807 39.425 173.587 39.425ZM185.471 33.566C185.411 33.662 185.348 33.731 185.282 33.773C185.216 33.809 185.132 33.827 185.03 33.827C184.922 33.827 184.805 33.797 184.679 33.737C184.559 33.677 184.418 33.611 184.256 33.539C184.094 33.461 183.908 33.392 183.698 33.332C183.494 33.272 183.251 33.242 182.969 33.242C182.531 33.242 182.186 33.335 181.934 33.521C181.688 33.707 181.565 33.95 181.565 34.25C181.565 34.448 181.628 34.616 181.754 34.754C181.886 34.886 182.057 35.003 182.267 35.105C182.483 35.207 182.726 35.3 182.996 35.384C183.266 35.462 183.539 35.549 183.815 35.645C184.097 35.741 184.373 35.852 184.643 35.978C184.913 36.098 185.153 36.254 185.363 36.446C185.579 36.632 185.75 36.857 185.876 37.121C186.008 37.385 186.074 37.703 186.074 38.075C186.074 38.519 185.993 38.93 185.831 39.308C185.675 39.68 185.441 40.004 185.129 40.28C184.817 40.55 184.43 40.763 183.968 40.919C183.512 41.069 182.984 41.144 182.384 41.144C182.066 41.144 181.754 41.114 181.448 41.054C181.148 41 180.857 40.922 180.575 40.82C180.299 40.718 180.041 40.598 179.801 40.46C179.567 40.322 179.36 40.172 179.18 40.01L179.693 39.164C179.759 39.062 179.837 38.984 179.927 38.93C180.017 38.876 180.131 38.849 180.269 38.849C180.407 38.849 180.536 38.888 180.656 38.966C180.782 39.044 180.926 39.128 181.088 39.218C181.25 39.308 181.439 39.392 181.655 39.47C181.877 39.548 182.156 39.587 182.492 39.587C182.756 39.587 182.981 39.557 183.167 39.497C183.359 39.431 183.515 39.347 183.635 39.245C183.761 39.143 183.851 39.026 183.905 38.894C183.965 38.756 183.995 38.615 183.995 38.471C183.995 38.255 183.929 38.078 183.797 37.94C183.671 37.802 183.5 37.682 183.284 37.58C183.074 37.478 182.831 37.388 182.555 37.31C182.285 37.226 182.006 37.136 181.718 37.04C181.436 36.944 181.157 36.833 180.881 36.707C180.611 36.575 180.368 36.41 180.152 36.212C179.942 36.014 179.771 35.771 179.639 35.483C179.513 35.195 179.45 34.847 179.45 34.439C179.45 34.061 179.525 33.701 179.675 33.359C179.825 33.017 180.044 32.72 180.332 32.468C180.626 32.21 180.989 32.006 181.421 31.856C181.859 31.7 182.363 31.622 182.933 31.622C183.569 31.622 184.148 31.727 184.67 31.937C185.192 32.147 185.627 32.423 185.975 32.765L185.471 33.566ZM197.92 34.124C197.668 33.818 197.392 33.602 197.092 33.476C196.798 33.35 196.48 33.287 196.138 33.287C195.802 33.287 195.499 33.35 195.229 33.476C194.959 33.602 194.728 33.794 194.536 34.052C194.344 34.304 194.197 34.628 194.095 35.024C193.993 35.414 193.942 35.876 193.942 36.41C193.942 36.95 193.984 37.409 194.068 37.787C194.158 38.159 194.284 38.465 194.446 38.705C194.608 38.939 194.806 39.11 195.04 39.218C195.274 39.32 195.535 39.371 195.823 39.371C196.285 39.371 196.678 39.275 197.002 39.083C197.326 38.891 197.632 38.618 197.92 38.264V34.124ZM200.143 27.626V41H198.784C198.49 41 198.304 40.865 198.226 40.595L198.037 39.704C197.665 40.13 197.236 40.475 196.75 40.739C196.27 41.003 195.709 41.135 195.067 41.135C194.563 41.135 194.101 41.03 193.681 40.82C193.261 40.61 192.898 40.307 192.592 39.911C192.292 39.509 192.058 39.014 191.89 38.426C191.728 37.838 191.647 37.166 191.647 36.41C191.647 35.726 191.74 35.09 191.926 34.502C192.112 33.914 192.379 33.404 192.727 32.972C193.075 32.54 193.492 32.204 193.978 31.964C194.464 31.718 195.01 31.595 195.616 31.595C196.132 31.595 196.573 31.676 196.939 31.838C197.305 32 197.632 32.219 197.92 32.495V27.626H200.143ZM208.286 35.321C208.286 35.033 208.244 34.763 208.16 34.511C208.082 34.253 207.962 34.028 207.8 33.836C207.638 33.644 207.431 33.494 207.179 33.386C206.933 33.272 206.645 33.215 206.315 33.215C205.673 33.215 205.166 33.398 204.794 33.764C204.428 34.13 204.194 34.649 204.092 35.321H208.286ZM204.047 36.662C204.083 37.136 204.167 37.547 204.299 37.895C204.431 38.237 204.605 38.522 204.821 38.75C205.037 38.972 205.292 39.14 205.586 39.254C205.886 39.362 206.216 39.416 206.576 39.416C206.936 39.416 207.245 39.374 207.503 39.29C207.767 39.206 207.995 39.113 208.187 39.011C208.385 38.909 208.556 38.816 208.7 38.732C208.85 38.648 208.994 38.606 209.132 38.606C209.318 38.606 209.456 38.675 209.546 38.813L210.185 39.623C209.939 39.911 209.663 40.154 209.357 40.352C209.051 40.544 208.73 40.7 208.394 40.82C208.064 40.934 207.725 41.015 207.377 41.063C207.035 41.111 206.702 41.135 206.378 41.135C205.736 41.135 205.139 41.03 204.587 40.82C204.035 40.604 203.555 40.289 203.147 39.875C202.739 39.455 202.418 38.939 202.184 38.327C201.95 37.709 201.833 36.995 201.833 36.185C201.833 35.555 201.935 34.964 202.139 34.412C202.343 33.854 202.634 33.371 203.012 32.963C203.396 32.549 203.861 32.222 204.407 31.982C204.959 31.742 205.58 31.622 206.27 31.622C206.852 31.622 207.389 31.715 207.881 31.901C208.373 32.087 208.796 32.36 209.15 32.72C209.504 33.074 209.78 33.512 209.978 34.034C210.182 34.55 210.284 35.141 210.284 35.807C210.284 36.143 210.248 36.371 210.176 36.491C210.104 36.605 209.966 36.662 209.762 36.662H204.047ZM218.579 27.626V41H216.356V27.626H218.579ZM226.743 35.321C226.743 35.033 226.701 34.763 226.617 34.511C226.539 34.253 226.419 34.028 226.257 33.836C226.095 33.644 225.888 33.494 225.636 33.386C225.39 33.272 225.102 33.215 224.772 33.215C224.13 33.215 223.623 33.398 223.251 33.764C222.885 34.13 222.651 34.649 222.549 35.321H226.743ZM222.504 36.662C222.54 37.136 222.624 37.547 222.756 37.895C222.888 38.237 223.062 38.522 223.278 38.75C223.494 38.972 223.749 39.14 224.043 39.254C224.343 39.362 224.673 39.416 225.033 39.416C225.393 39.416 225.702 39.374 225.96 39.29C226.224 39.206 226.452 39.113 226.644 39.011C226.842 38.909 227.013 38.816 227.157 38.732C227.307 38.648 227.451 38.606 227.589 38.606C227.775 38.606 227.913 38.675 228.003 38.813L228.642 39.623C228.396 39.911 228.12 40.154 227.814 40.352C227.508 40.544 227.187 40.7 226.851 40.82C226.521 40.934 226.182 41.015 225.834 41.063C225.492 41.111 225.159 41.135 224.835 41.135C224.193 41.135 223.596 41.03 223.044 40.82C222.492 40.604 222.012 40.289 221.604 39.875C221.196 39.455 220.875 38.939 220.641 38.327C220.407 37.709 220.29 36.995 220.29 36.185C220.29 35.555 220.392 34.964 220.596 34.412C220.8 33.854 221.091 33.371 221.469 32.963C221.853 32.549 222.318 32.222 222.864 31.982C223.416 31.742 224.037 31.622 224.727 31.622C225.309 31.622 225.846 31.715 226.338 31.901C226.83 32.087 227.253 32.36 227.607 32.72C227.961 33.074 228.237 33.512 228.435 34.034C228.639 34.55 228.741 35.141 228.741 35.807C228.741 36.143 228.705 36.371 228.633 36.491C228.561 36.605 228.423 36.662 228.219 36.662H222.504ZM232.713 31.766V41H230.481V31.766H232.713ZM233.019 29.075C233.019 29.267 232.98 29.447 232.902 29.615C232.824 29.783 232.719 29.93 232.587 30.056C232.461 30.182 232.311 30.284 232.137 30.362C231.963 30.434 231.777 30.47 231.579 30.47C231.387 30.47 231.204 30.434 231.03 30.362C230.862 30.284 230.715 30.182 230.589 30.056C230.463 29.93 230.361 29.783 230.283 29.615C230.211 29.447 230.175 29.267 230.175 29.075C230.175 28.877 230.211 28.691 230.283 28.517C230.361 28.343 230.463 28.193 230.589 28.067C230.715 27.941 230.862 27.842 231.03 27.77C231.204 27.692 231.387 27.653 231.579 27.653C231.777 27.653 231.963 27.692 232.137 27.77C232.311 27.842 232.461 27.941 232.587 28.067C232.719 28.193 232.824 28.343 232.902 28.517C232.98 28.691 233.019 28.877 233.019 29.075ZM245.306 35.321C245.306 35.033 245.264 34.763 245.18 34.511C245.102 34.253 244.982 34.028 244.82 33.836C244.658 33.644 244.451 33.494 244.199 33.386C243.953 33.272 243.665 33.215 243.335 33.215C242.693 33.215 242.186 33.398 241.814 33.764C241.448 34.13 241.214 34.649 241.112 35.321H245.306ZM241.067 36.662C241.103 37.136 241.187 37.547 241.319 37.895C241.451 38.237 241.625 38.522 241.841 38.75C242.057 38.972 242.312 39.14 242.606 39.254C242.906 39.362 243.236 39.416 243.596 39.416C243.956 39.416 244.265 39.374 244.523 39.29C244.787 39.206 245.015 39.113 245.207 39.011C245.405 38.909 245.576 38.816 245.72 38.732C245.87 38.648 246.014 38.606 246.152 38.606C246.338 38.606 246.476 38.675 246.566 38.813L247.205 39.623C246.959 39.911 246.683 40.154 246.377 40.352C246.071 40.544 245.75 40.7 245.414 40.82C245.084 40.934 244.745 41.015 244.397 41.063C244.055 41.111 243.722 41.135 243.398 41.135C242.756 41.135 242.159 41.03 241.607 40.82C241.055 40.604 240.575 40.289 240.167 39.875C239.759 39.455 239.438 38.939 239.204 38.327C238.97 37.709 238.853 36.995 238.853 36.185C238.853 35.555 238.955 34.964 239.159 34.412C239.363 33.854 239.654 33.371 240.032 32.963C240.416 32.549 240.881 32.222 241.427 31.982C241.979 31.742 242.6 31.622 243.29 31.622C243.872 31.622 244.409 31.715 244.901 31.901C245.393 32.087 245.816 32.36 246.17 32.72C246.524 33.074 246.8 33.512 246.998 34.034C247.202 34.55 247.304 35.141 247.304 35.807C247.304 36.143 247.268 36.371 247.196 36.491C247.124 36.605 246.986 36.662 246.782 36.662H241.067ZM126.782 56.124C126.53 55.818 126.254 55.602 125.954 55.476C125.66 55.35 125.342 55.287 125 55.287C124.664 55.287 124.361 55.35 124.091 55.476C123.821 55.602 123.59 55.794 123.398 56.052C123.206 56.304 123.059 56.628 122.957 57.024C122.855 57.414 122.804 57.876 122.804 58.41C122.804 58.95 122.846 59.409 122.93 59.787C123.02 60.159 123.146 60.465 123.308 60.705C123.47 60.939 123.668 61.11 123.902 61.218C124.136 61.32 124.397 61.371 124.685 61.371C125.147 61.371 125.54 61.275 125.864 61.083C126.188 60.891 126.494 60.618 126.782 60.264V56.124ZM129.005 49.626V63H127.646C127.352 63 127.166 62.865 127.088 62.595L126.899 61.704C126.527 62.13 126.098 62.475 125.612 62.739C125.132 63.003 124.571 63.135 123.929 63.135C123.425 63.135 122.963 63.03 122.543 62.82C122.123 62.61 121.76 62.307 121.454 61.911C121.154 61.509 120.92 61.014 120.752 60.426C120.59 59.838 120.509 59.166 120.509 58.41C120.509 57.726 120.602 57.09 120.788 56.502C120.974 55.914 121.241 55.404 121.589 54.972C121.937 54.54 122.354 54.204 122.84 53.964C123.326 53.718 123.872 53.595 124.478 53.595C124.994 53.595 125.435 53.676 125.801 53.838C126.167 54 126.494 54.219 126.782 54.495V49.626H129.005ZM137.147 57.321C137.147 57.033 137.105 56.763 137.021 56.511C136.943 56.253 136.823 56.028 136.661 55.836C136.499 55.644 136.292 55.494 136.04 55.386C135.794 55.272 135.506 55.215 135.176 55.215C134.534 55.215 134.027 55.398 133.655 55.764C133.289 56.13 133.055 56.649 132.953 57.321H137.147ZM132.908 58.662C132.944 59.136 133.028 59.547 133.16 59.895C133.292 60.237 133.466 60.522 133.682 60.75C133.898 60.972 134.153 61.14 134.447 61.254C134.747 61.362 135.077 61.416 135.437 61.416C135.797 61.416 136.106 61.374 136.364 61.29C136.628 61.206 136.856 61.113 137.048 61.011C137.246 60.909 137.417 60.816 137.561 60.732C137.711 60.648 137.855 60.606 137.993 60.606C138.179 60.606 138.317 60.675 138.407 60.813L139.046 61.623C138.8 61.911 138.524 62.154 138.218 62.352C137.912 62.544 137.591 62.7 137.255 62.82C136.925 62.934 136.586 63.015 136.238 63.063C135.896 63.111 135.563 63.135 135.239 63.135C134.597 63.135 134 63.03 133.448 62.82C132.896 62.604 132.416 62.289 132.008 61.875C131.6 61.455 131.279 60.939 131.045 60.327C130.811 59.709 130.694 58.995 130.694 58.185C130.694 57.555 130.796 56.964 131 56.412C131.204 55.854 131.495 55.371 131.873 54.963C132.257 54.549 132.722 54.222 133.268 53.982C133.82 53.742 134.441 53.622 135.131 53.622C135.713 53.622 136.25 53.715 136.742 53.901C137.234 54.087 137.657 54.36 138.011 54.72C138.365 55.074 138.641 55.512 138.839 56.034C139.043 56.55 139.145 57.141 139.145 57.807C139.145 58.143 139.109 58.371 139.037 58.491C138.965 58.605 138.827 58.662 138.623 58.662H132.908ZM147.495 53.766V63H145.263V53.766H147.495ZM147.801 51.075C147.801 51.267 147.762 51.447 147.684 51.615C147.606 51.783 147.501 51.93 147.369 52.056C147.243 52.182 147.093 52.284 146.919 52.362C146.745 52.434 146.559 52.47 146.361 52.47C146.169 52.47 145.986 52.434 145.812 52.362C145.644 52.284 145.497 52.182 145.371 52.056C145.245 51.93 145.143 51.783 145.065 51.615C144.993 51.447 144.957 51.267 144.957 51.075C144.957 50.877 144.993 50.691 145.065 50.517C145.143 50.343 145.245 50.193 145.371 50.067C145.497 49.941 145.644 49.842 145.812 49.77C145.986 49.692 146.169 49.653 146.361 49.653C146.559 49.653 146.745 49.692 146.919 49.77C147.093 49.842 147.243 49.941 147.369 50.067C147.501 50.193 147.606 50.343 147.684 50.517C147.762 50.691 147.801 50.877 147.801 51.075ZM151.84 54.9C152.026 54.714 152.221 54.543 152.425 54.387C152.635 54.225 152.854 54.09 153.082 53.982C153.316 53.868 153.565 53.781 153.829 53.721C154.093 53.655 154.381 53.622 154.693 53.622C155.197 53.622 155.644 53.709 156.034 53.883C156.424 54.051 156.748 54.291 157.006 54.603C157.27 54.909 157.468 55.278 157.6 55.71C157.738 56.136 157.807 56.607 157.807 57.123V63H155.584V57.123C155.584 56.559 155.455 56.124 155.197 55.818C154.939 55.506 154.546 55.35 154.018 55.35C153.634 55.35 153.274 55.437 152.938 55.611C152.602 55.785 152.284 56.022 151.984 56.322V63H149.761V53.766H151.12C151.408 53.766 151.597 53.901 151.687 54.171L151.84 54.9ZM165.717 56.124C165.465 55.818 165.189 55.602 164.889 55.476C164.595 55.35 164.277 55.287 163.935 55.287C163.599 55.287 163.296 55.35 163.026 55.476C162.756 55.602 162.525 55.794 162.333 56.052C162.141 56.304 161.994 56.628 161.892 57.024C161.79 57.414 161.739 57.876 161.739 58.41C161.739 58.95 161.781 59.409 161.865 59.787C161.955 60.159 162.081 60.465 162.243 60.705C162.405 60.939 162.603 61.11 162.837 61.218C163.071 61.32 163.332 61.371 163.62 61.371C164.082 61.371 164.475 61.275 164.799 61.083C165.123 60.891 165.429 60.618 165.717 60.264V56.124ZM167.94 49.626V63H166.581C166.287 63 166.101 62.865 166.023 62.595L165.834 61.704C165.462 62.13 165.033 62.475 164.547 62.739C164.067 63.003 163.506 63.135 162.864 63.135C162.36 63.135 161.898 63.03 161.478 62.82C161.058 62.61 160.695 62.307 160.389 61.911C160.089 61.509 159.855 61.014 159.687 60.426C159.525 59.838 159.444 59.166 159.444 58.41C159.444 57.726 159.537 57.09 159.723 56.502C159.909 55.914 160.176 55.404 160.524 54.972C160.872 54.54 161.289 54.204 161.775 53.964C162.261 53.718 162.807 53.595 163.413 53.595C163.929 53.595 164.37 53.676 164.736 53.838C165.102 54 165.429 54.219 165.717 54.495V49.626H167.94ZM172.438 53.766V63H170.206V53.766H172.438ZM172.744 51.075C172.744 51.267 172.705 51.447 172.627 51.615C172.549 51.783 172.444 51.93 172.312 52.056C172.186 52.182 172.036 52.284 171.862 52.362C171.688 52.434 171.502 52.47 171.304 52.47C171.112 52.47 170.929 52.434 170.755 52.362C170.587 52.284 170.44 52.182 170.314 52.056C170.188 51.93 170.086 51.783 170.008 51.615C169.936 51.447 169.9 51.267 169.9 51.075C169.9 50.877 169.936 50.691 170.008 50.517C170.086 50.343 170.188 50.193 170.314 50.067C170.44 49.941 170.587 49.842 170.755 49.77C170.929 49.692 171.112 49.653 171.304 49.653C171.502 49.653 171.688 49.692 171.862 49.77C172.036 49.842 172.186 49.941 172.312 50.067C172.444 50.193 172.549 50.343 172.627 50.517C172.705 50.691 172.744 50.877 172.744 51.075ZM181.319 55.719C181.253 55.803 181.187 55.869 181.121 55.917C181.061 55.965 180.971 55.989 180.851 55.989C180.737 55.989 180.626 55.956 180.518 55.89C180.41 55.818 180.281 55.74 180.131 55.656C179.981 55.566 179.801 55.488 179.591 55.422C179.387 55.35 179.132 55.314 178.826 55.314C178.436 55.314 178.094 55.386 177.8 55.53C177.506 55.668 177.26 55.869 177.062 56.133C176.87 56.397 176.726 56.718 176.63 57.096C176.534 57.468 176.486 57.891 176.486 58.365C176.486 58.857 176.537 59.295 176.639 59.679C176.747 60.063 176.9 60.387 177.098 60.651C177.296 60.909 177.536 61.107 177.818 61.245C178.1 61.377 178.418 61.443 178.772 61.443C179.126 61.443 179.411 61.401 179.627 61.317C179.849 61.227 180.035 61.131 180.185 61.029C180.335 60.921 180.464 60.825 180.572 60.741C180.686 60.651 180.812 60.606 180.95 60.606C181.13 60.606 181.265 60.675 181.355 60.813L181.994 61.623C181.748 61.911 181.481 62.154 181.193 62.352C180.905 62.544 180.605 62.7 180.293 62.82C179.987 62.934 179.669 63.015 179.339 63.063C179.015 63.111 178.691 63.135 178.367 63.135C177.797 63.135 177.26 63.03 176.756 62.82C176.252 62.604 175.811 62.292 175.433 61.884C175.055 61.476 174.755 60.978 174.533 60.39C174.317 59.796 174.209 59.121 174.209 58.365C174.209 57.687 174.305 57.06 174.497 56.484C174.695 55.902 174.983 55.401 175.361 54.981C175.739 54.555 176.207 54.222 176.765 53.982C177.323 53.742 177.965 53.622 178.691 53.622C179.381 53.622 179.984 53.733 180.5 53.955C181.022 54.177 181.49 54.495 181.904 54.909L181.319 55.719ZM188.266 59.058C187.624 59.088 187.084 59.145 186.646 59.229C186.208 59.307 185.857 59.409 185.593 59.535C185.329 59.661 185.14 59.808 185.026 59.976C184.912 60.144 184.855 60.327 184.855 60.525C184.855 60.915 184.969 61.194 185.197 61.362C185.431 61.53 185.734 61.614 186.106 61.614C186.562 61.614 186.955 61.533 187.285 61.371C187.621 61.203 187.948 60.951 188.266 60.615V59.058ZM183.172 55.053C184.234 54.081 185.512 53.595 187.006 53.595C187.546 53.595 188.029 53.685 188.455 53.865C188.881 54.039 189.241 54.285 189.535 54.603C189.829 54.915 190.051 55.29 190.201 55.728C190.357 56.166 190.435 56.646 190.435 57.168V63H189.427C189.217 63 189.055 62.97 188.941 62.91C188.827 62.844 188.737 62.715 188.671 62.523L188.473 61.857C188.239 62.067 188.011 62.253 187.789 62.415C187.567 62.571 187.336 62.703 187.096 62.811C186.856 62.919 186.598 63 186.322 63.054C186.052 63.114 185.752 63.144 185.422 63.144C185.032 63.144 184.672 63.093 184.342 62.991C184.012 62.883 183.727 62.724 183.487 62.514C183.247 62.304 183.061 62.043 182.929 61.731C182.797 61.419 182.731 61.056 182.731 60.642C182.731 60.408 182.77 60.177 182.848 59.949C182.926 59.715 183.052 59.493 183.226 59.283C183.406 59.073 183.637 58.875 183.919 58.689C184.201 58.503 184.546 58.341 184.954 58.203C185.368 58.065 185.848 57.954 186.394 57.87C186.94 57.78 187.564 57.726 188.266 57.708V57.168C188.266 56.55 188.134 56.094 187.87 55.8C187.606 55.5 187.225 55.35 186.727 55.35C186.367 55.35 186.067 55.392 185.827 55.476C185.593 55.56 185.386 55.656 185.206 55.764C185.026 55.866 184.861 55.959 184.711 56.043C184.567 56.127 184.405 56.169 184.225 56.169C184.069 56.169 183.937 56.13 183.829 56.052C183.721 55.968 183.634 55.872 183.568 55.764L183.172 55.053ZM199.819 61.623C199.411 62.103 198.949 62.457 198.433 62.685C197.923 62.907 197.395 63.045 196.849 63.099L196.732 63.549C197.296 63.681 197.689 63.858 197.911 64.08C198.139 64.308 198.253 64.578 198.253 64.89C198.253 65.094 198.199 65.277 198.091 65.439C197.989 65.601 197.839 65.739 197.641 65.853C197.449 65.967 197.218 66.054 196.948 66.114C196.684 66.174 196.39 66.204 196.066 66.204C195.82 66.204 195.589 66.186 195.373 66.15C195.157 66.12 194.947 66.072 194.743 66.006L194.941 65.313C194.977 65.175 195.064 65.106 195.202 65.106C195.286 65.106 195.379 65.127 195.481 65.169C195.583 65.217 195.73 65.241 195.922 65.241C196.12 65.241 196.267 65.202 196.363 65.124C196.465 65.052 196.516 64.962 196.516 64.854C196.516 64.68 196.408 64.554 196.192 64.476C195.976 64.404 195.643 64.335 195.193 64.269L195.589 63.09C195.085 63.018 194.617 62.862 194.185 62.622C193.753 62.376 193.378 62.055 193.06 61.659C192.742 61.257 192.49 60.78 192.304 60.228C192.124 59.676 192.034 59.055 192.034 58.365C192.034 57.687 192.13 57.06 192.322 56.484C192.52 55.902 192.808 55.401 193.186 54.981C193.564 54.555 194.032 54.222 194.59 53.982C195.148 53.742 195.79 53.622 196.516 53.622C197.206 53.622 197.809 53.733 198.325 53.955C198.847 54.177 199.315 54.495 199.729 54.909L199.144 55.719C199.078 55.803 199.012 55.869 198.946 55.917C198.886 55.965 198.796 55.989 198.676 55.989C198.562 55.989 198.451 55.956 198.343 55.89C198.235 55.818 198.106 55.74 197.956 55.656C197.806 55.566 197.626 55.488 197.416 55.422C197.212 55.35 196.957 55.314 196.651 55.314C196.261 55.314 195.919 55.386 195.625 55.53C195.331 55.668 195.085 55.869 194.887 56.133C194.695 56.397 194.551 56.718 194.455 57.096C194.359 57.468 194.311 57.891 194.311 58.365C194.311 58.857 194.362 59.295 194.464 59.679C194.572 60.063 194.725 60.387 194.923 60.651C195.121 60.909 195.361 61.107 195.643 61.245C195.925 61.377 196.243 61.443 196.597 61.443C196.951 61.443 197.236 61.401 197.452 61.317C197.674 61.227 197.86 61.131 198.01 61.029C198.16 60.921 198.289 60.825 198.397 60.741C198.511 60.651 198.637 60.606 198.775 60.606C198.955 60.606 199.09 60.675 199.18 60.813L199.819 61.623ZM206.108 59.058C205.466 59.088 204.926 59.145 204.488 59.229C204.05 59.307 203.699 59.409 203.435 59.535C203.171 59.661 202.982 59.808 202.868 59.976C202.754 60.144 202.697 60.327 202.697 60.525C202.697 60.915 202.811 61.194 203.039 61.362C203.273 61.53 203.576 61.614 203.948 61.614C204.404 61.614 204.797 61.533 205.127 61.371C205.463 61.203 205.79 60.951 206.108 60.615V59.058ZM201.014 55.053C202.076 54.081 203.354 53.595 204.848 53.595C205.388 53.595 205.871 53.685 206.297 53.865C206.723 54.039 207.083 54.285 207.377 54.603C207.671 54.915 207.893 55.29 208.043 55.728C208.199 56.166 208.277 56.646 208.277 57.168V63H207.269C207.059 63 206.897 62.97 206.783 62.91C206.669 62.844 206.579 62.715 206.513 62.523L206.315 61.857C206.081 62.067 205.853 62.253 205.631 62.415C205.409 62.571 205.178 62.703 204.938 62.811C204.698 62.919 204.44 63 204.164 63.054C203.894 63.114 203.594 63.144 203.264 63.144C202.874 63.144 202.514 63.093 202.184 62.991C201.854 62.883 201.569 62.724 201.329 62.514C201.089 62.304 200.903 62.043 200.771 61.731C200.639 61.419 200.573 61.056 200.573 60.642C200.573 60.408 200.612 60.177 200.69 59.949C200.768 59.715 200.894 59.493 201.068 59.283C201.248 59.073 201.479 58.875 201.761 58.689C202.043 58.503 202.388 58.341 202.796 58.203C203.21 58.065 203.69 57.954 204.236 57.87C204.782 57.78 205.406 57.726 206.108 57.708V57.168C206.108 56.55 205.976 56.094 205.712 55.8C205.448 55.5 205.067 55.35 204.569 55.35C204.209 55.35 203.909 55.392 203.669 55.476C203.435 55.56 203.228 55.656 203.048 55.764C202.868 55.866 202.703 55.959 202.553 56.043C202.409 56.127 202.247 56.169 202.067 56.169C201.911 56.169 201.779 56.13 201.671 56.052C201.563 55.968 201.476 55.872 201.41 55.764L201.014 55.053ZM205.604 50.769C205.784 50.769 205.925 50.721 206.027 50.625C206.129 50.523 206.18 50.343 206.18 50.085H207.53C207.53 50.421 207.482 50.727 207.386 51.003C207.296 51.273 207.17 51.507 207.008 51.705C206.846 51.897 206.651 52.047 206.423 52.155C206.201 52.257 205.955 52.308 205.685 52.308C205.469 52.308 205.268 52.269 205.082 52.191C204.896 52.113 204.722 52.029 204.56 51.939C204.398 51.849 204.245 51.765 204.101 51.687C203.963 51.609 203.834 51.57 203.714 51.57C203.54 51.57 203.402 51.624 203.3 51.732C203.204 51.834 203.156 52.011 203.156 52.263H201.779C201.779 51.927 201.824 51.624 201.914 51.354C202.01 51.078 202.142 50.844 202.31 50.652C202.478 50.454 202.673 50.301 202.895 50.193C203.123 50.085 203.369 50.031 203.633 50.031C203.849 50.031 204.05 50.07 204.236 50.148C204.428 50.226 204.605 50.31 204.767 50.4C204.929 50.49 205.079 50.574 205.217 50.652C205.355 50.73 205.484 50.769 205.604 50.769ZM214.456 53.622C215.14 53.622 215.761 53.733 216.319 53.955C216.883 54.177 217.363 54.492 217.759 54.9C218.161 55.308 218.47 55.806 218.686 56.394C218.902 56.982 219.01 57.639 219.01 58.365C219.01 59.097 218.902 59.757 218.686 60.345C218.47 60.933 218.161 61.434 217.759 61.848C217.363 62.262 216.883 62.58 216.319 62.802C215.761 63.024 215.14 63.135 214.456 63.135C213.766 63.135 213.139 63.024 212.575 62.802C212.011 62.58 211.528 62.262 211.126 61.848C210.73 61.434 210.421 60.933 210.199 60.345C209.983 59.757 209.875 59.097 209.875 58.365C209.875 57.639 209.983 56.982 210.199 56.394C210.421 55.806 210.73 55.308 211.126 54.9C211.528 54.492 212.011 54.177 212.575 53.955C213.139 53.733 213.766 53.622 214.456 53.622ZM214.456 61.425C215.224 61.425 215.791 61.167 216.157 60.651C216.529 60.135 216.715 59.379 216.715 58.383C216.715 57.387 216.529 56.628 216.157 56.106C215.791 55.584 215.224 55.323 214.456 55.323C213.676 55.323 213.097 55.587 212.719 56.115C212.347 56.637 212.161 57.393 212.161 58.383C212.161 59.373 212.347 60.129 212.719 60.651C213.097 61.167 213.676 61.425 214.456 61.425Z" fill="#606060"/>
<path d="M86.8462 28.3614H82.8018V24.3133C82.8018 23.0409 81.7617 22 80.4912 22H51.0244C49.7533 22 48.7134 23.0409 48.7134 24.3133V61.3252C48.7134 62.5975 49.7533 63.6385 51.0245 63.6385H55.0689V67.6867C55.0689 68.959 56.1084 70 57.38 70H77.0237C78.2942 70 80.0922 69.2864 81.0172 68.4149L87.4732 62.3322C88.3994 61.4607 89.1563 59.7061 89.1563 58.4338L89.1574 30.6749C89.1573 29.4024 88.1173 28.3614 86.8462 28.3614ZM55.0687 30.6748V61.9036H51.0244C50.7113 61.9036 50.4467 61.6387 50.4467 61.3253V24.3133C50.4467 23.9999 50.7113 23.735 51.0244 23.735H80.4913C80.8039 23.735 81.069 23.9999 81.069 24.3133V28.3615H57.3798C56.1082 28.3615 55.0687 29.4024 55.0687 30.6748ZM86.2852 61.069L79.8292 67.1512C79.697 67.2756 79.5247 67.3976 79.3346 67.5138V62.1927C79.3346 61.7954 79.4946 61.4379 79.7587 61.172C80.0251 60.9077 80.3821 60.747 80.779 60.747H86.5597C86.47 60.8689 86.3782 60.9811 86.2852 61.069ZM87.4228 58.4336C87.4228 58.6054 87.3915 58.8043 87.3442 59.0119H80.7789C79.0255 59.0153 77.6047 60.4374 77.6012 62.1926V68.1948C77.3949 68.2366 77.1962 68.2648 77.0235 68.2648H57.3798V68.2649C57.0661 68.2649 56.8021 68 56.8021 67.6866V30.6747C56.8021 30.3613 57.0662 30.0964 57.3798 30.0964H86.8461C87.1592 30.0964 87.4238 30.3613 87.4238 30.6747L87.4228 58.4336Z" fill="#218738"/>
<path d="M80.4913 36.4577H63.736C63.257 36.4577 62.8693 36.8457 62.8693 37.3252C62.8693 37.8046 63.2571 38.1926 63.736 38.1926H80.4913C80.9697 38.1926 81.3579 37.8046 81.3579 37.3252C81.3579 36.8457 80.9697 36.4577 80.4913 36.4577Z" fill="#218738"/>
<path d="M80.4913 48.024H63.736C63.257 48.024 62.8693 48.412 62.8693 48.8915C62.8693 49.3709 63.2571 49.7589 63.736 49.7589H80.4913C80.9697 49.7589 81.3579 49.3709 81.3579 48.8915C81.3579 48.4119 80.9697 48.024 80.4913 48.024Z" fill="#218738"/>
<path d="M72.9803 53.8072H63.736C63.257 53.8072 62.8694 54.1952 62.8694 54.6747C62.8694 55.1541 63.257 55.5421 63.736 55.5421H72.9803C73.4587 55.5421 73.8463 55.1541 73.8463 54.6747C73.8463 54.1952 73.4587 53.8072 72.9803 53.8072Z" fill="#218738"/>
<path d="M80.4913 42.2409H63.736C63.257 42.2409 62.8693 42.6289 62.8693 43.1084C62.8693 43.5878 63.2571 43.9758 63.736 43.9758H80.4913C80.9697 43.9758 81.3579 43.5878 81.3579 43.1084C81.3579 42.6289 80.9697 42.2409 80.4913 42.2409Z" fill="#218738"/>
<defs>
<filter id="filter0_d_108_1117" x="2.30171" y="2" width="329.698" height="96" filterUnits="userSpaceOnUse" color-interpolation-filters="sRGB">
<feFlood flood-opacity="0" result="BackgroundImageFix"/>
<feColorMatrix in="SourceAlpha" type="matrix" values="0 0 0 0 0 0 0 0 0 0 0 0 0 0 0 0 0 0 127 0" result="hardAlpha"/>
<feOffset dy="4"/>
<feGaussianBlur stdDeviation="2"/>
<feColorMatrix type="matrix" values="0 0 0 0 0 0 0 0 0 0 0 0 0 0 0 0 0 0 0.25 0"/>
<feBlend mode="normal" in2="BackgroundImageFix" result="effect1_dropShadow_108_1117"/>
<feBlend mode="normal" in="SourceGraphic" in2="effect1_dropShadow_108_1117" result="shape"/>
</filter>
</defs>
</svg>
