<svg width="332" height="98" viewBox="0 0 332 98" fill="none" xmlns="http://www.w3.org/2000/svg">
<rect width="327.693" height="88" rx="16" fill="#3D874D"/>
<g filter="url(#filter0_d_108_1137)">
<rect x="6.30171" y="2" width="321.698" height="88" rx="16" fill="#F9F9F9"/>
</g>
<path d="M126.435 36.095V31.838C126.435 31.436 126.462 30.992 126.516 30.506L122.475 36.095H126.435ZM130.008 36.095V37.382C130.008 37.502 129.969 37.607 129.891 37.697C129.813 37.781 129.702 37.823 129.558 37.823H128.37V41H126.435V37.823H120.945C120.795 37.823 120.663 37.778 120.549 37.688C120.435 37.592 120.363 37.475 120.333 37.337L120.099 36.212L126.264 27.977H128.37V36.095H130.008ZM131.44 31.613C131.53 30.989 131.704 30.443 131.962 29.975C132.22 29.501 132.541 29.108 132.925 28.796C133.315 28.478 133.759 28.241 134.257 28.085C134.761 27.923 135.301 27.842 135.877 27.842C136.477 27.842 137.017 27.929 137.497 28.103C137.983 28.271 138.397 28.508 138.739 28.814C139.081 29.114 139.342 29.468 139.522 29.876C139.708 30.284 139.801 30.725 139.801 31.199C139.801 31.613 139.753 31.979 139.657 32.297C139.567 32.609 139.435 32.882 139.261 33.116C139.087 33.35 138.871 33.548 138.613 33.71C138.355 33.872 138.064 34.007 137.74 34.115C138.52 34.361 139.102 34.736 139.486 35.24C139.87 35.744 140.062 36.377 140.062 37.139C140.062 37.787 139.942 38.36 139.702 38.858C139.462 39.356 139.138 39.776 138.73 40.118C138.322 40.454 137.848 40.709 137.308 40.883C136.774 41.057 136.207 41.144 135.607 41.144C134.953 41.144 134.383 41.069 133.897 40.919C133.411 40.769 132.988 40.547 132.628 40.253C132.268 39.959 131.962 39.599 131.71 39.173C131.458 38.747 131.242 38.255 131.062 37.697L132.043 37.292C132.301 37.184 132.541 37.157 132.763 37.211C132.991 37.259 133.156 37.379 133.258 37.571C133.366 37.781 133.483 37.988 133.609 38.192C133.741 38.396 133.897 38.579 134.077 38.741C134.257 38.897 134.467 39.026 134.707 39.128C134.953 39.224 135.244 39.272 135.58 39.272C135.958 39.272 136.288 39.212 136.57 39.092C136.852 38.966 137.086 38.804 137.272 38.606C137.464 38.408 137.605 38.189 137.695 37.949C137.791 37.703 137.839 37.457 137.839 37.211C137.839 36.899 137.806 36.617 137.74 36.365C137.674 36.107 137.536 35.888 137.326 35.708C137.116 35.528 136.813 35.387 136.417 35.285C136.027 35.183 135.502 35.132 134.842 35.132V33.548C135.388 33.542 135.841 33.491 136.201 33.395C136.561 33.299 136.846 33.167 137.056 32.999C137.272 32.825 137.422 32.618 137.506 32.378C137.59 32.138 137.632 31.874 137.632 31.586C137.632 30.974 137.461 30.509 137.119 30.191C136.777 29.873 136.321 29.714 135.751 29.714C135.487 29.714 135.244 29.753 135.022 29.831C134.8 29.903 134.599 30.008 134.419 30.146C134.245 30.278 134.098 30.434 133.978 30.614C133.858 30.794 133.768 30.992 133.708 31.208C133.606 31.484 133.471 31.667 133.303 31.757C133.141 31.847 132.91 31.868 132.61 31.82L131.44 31.613ZM148.689 31.766V41H146.457V31.766H148.689ZM148.995 29.075C148.995 29.267 148.956 29.447 148.878 29.615C148.8 29.783 148.695 29.93 148.563 30.056C148.437 30.182 148.287 30.284 148.113 30.362C147.939 30.434 147.753 30.47 147.555 30.47C147.363 30.47 147.18 30.434 147.006 30.362C146.838 30.284 146.691 30.182 146.565 30.056C146.439 29.93 146.337 29.783 146.259 29.615C146.187 29.447 146.151 29.267 146.151 29.075C146.151 28.877 146.187 28.691 146.259 28.517C146.337 28.343 146.439 28.193 146.565 28.067C146.691 27.941 146.838 27.842 147.006 27.77C147.18 27.692 147.363 27.653 147.555 27.653C147.753 27.653 147.939 27.692 148.113 27.77C148.287 27.842 148.437 27.941 148.563 28.067C148.695 28.193 148.8 28.343 148.878 28.517C148.956 28.691 148.995 28.877 148.995 29.075ZM156.751 34.124C156.499 33.818 156.223 33.602 155.923 33.476C155.629 33.35 155.311 33.287 154.969 33.287C154.633 33.287 154.33 33.35 154.06 33.476C153.79 33.602 153.559 33.794 153.367 34.052C153.175 34.304 153.028 34.628 152.926 35.024C152.824 35.414 152.773 35.876 152.773 36.41C152.773 36.95 152.815 37.409 152.899 37.787C152.989 38.159 153.115 38.465 153.277 38.705C153.439 38.939 153.637 39.11 153.871 39.218C154.105 39.32 154.366 39.371 154.654 39.371C155.116 39.371 155.509 39.275 155.833 39.083C156.157 38.891 156.463 38.618 156.751 38.264V34.124ZM158.974 27.626V41H157.615C157.321 41 157.135 40.865 157.057 40.595L156.868 39.704C156.496 40.13 156.067 40.475 155.581 40.739C155.101 41.003 154.54 41.135 153.898 41.135C153.394 41.135 152.932 41.03 152.512 40.82C152.092 40.61 151.729 40.307 151.423 39.911C151.123 39.509 150.889 39.014 150.721 38.426C150.559 37.838 150.478 37.166 150.478 36.41C150.478 35.726 150.571 35.09 150.757 34.502C150.943 33.914 151.21 33.404 151.558 32.972C151.906 32.54 152.323 32.204 152.809 31.964C153.295 31.718 153.841 31.595 154.447 31.595C154.963 31.595 155.404 31.676 155.77 31.838C156.136 32 156.463 32.219 156.751 32.495V27.626H158.974ZM167.117 35.321C167.117 35.033 167.075 34.763 166.991 34.511C166.913 34.253 166.793 34.028 166.631 33.836C166.469 33.644 166.262 33.494 166.01 33.386C165.764 33.272 165.476 33.215 165.146 33.215C164.504 33.215 163.997 33.398 163.625 33.764C163.259 34.13 163.025 34.649 162.923 35.321H167.117ZM162.878 36.662C162.914 37.136 162.998 37.547 163.13 37.895C163.262 38.237 163.436 38.522 163.652 38.75C163.868 38.972 164.123 39.14 164.417 39.254C164.717 39.362 165.047 39.416 165.407 39.416C165.767 39.416 166.076 39.374 166.334 39.29C166.598 39.206 166.826 39.113 167.018 39.011C167.216 38.909 167.387 38.816 167.531 38.732C167.681 38.648 167.825 38.606 167.963 38.606C168.149 38.606 168.287 38.675 168.377 38.813L169.016 39.623C168.77 39.911 168.494 40.154 168.188 40.352C167.882 40.544 167.561 40.7 167.225 40.82C166.895 40.934 166.556 41.015 166.208 41.063C165.866 41.111 165.533 41.135 165.209 41.135C164.567 41.135 163.97 41.03 163.418 40.82C162.866 40.604 162.386 40.289 161.978 39.875C161.57 39.455 161.249 38.939 161.015 38.327C160.781 37.709 160.664 36.995 160.664 36.185C160.664 35.555 160.766 34.964 160.97 34.412C161.174 33.854 161.465 33.371 161.843 32.963C162.227 32.549 162.692 32.222 163.238 31.982C163.79 31.742 164.411 31.622 165.101 31.622C165.683 31.622 166.22 31.715 166.712 31.901C167.204 32.087 167.627 32.36 167.981 32.72C168.335 33.074 168.611 33.512 168.809 34.034C169.013 34.55 169.115 35.141 169.115 35.807C169.115 36.143 169.079 36.371 169.007 36.491C168.935 36.605 168.797 36.662 168.593 36.662H162.878ZM173.087 31.766V41H170.855V31.766H173.087ZM173.393 29.075C173.393 29.267 173.354 29.447 173.276 29.615C173.198 29.783 173.093 29.93 172.961 30.056C172.835 30.182 172.685 30.284 172.511 30.362C172.337 30.434 172.151 30.47 171.953 30.47C171.761 30.47 171.578 30.434 171.404 30.362C171.236 30.284 171.089 30.182 170.963 30.056C170.837 29.93 170.735 29.783 170.657 29.615C170.585 29.447 170.549 29.267 170.549 29.075C170.549 28.877 170.585 28.691 170.657 28.517C170.735 28.343 170.837 28.193 170.963 28.067C171.089 27.941 171.236 27.842 171.404 27.77C171.578 27.692 171.761 27.653 171.953 27.653C172.151 27.653 172.337 27.692 172.511 27.77C172.685 27.842 172.835 27.941 172.961 28.067C173.093 28.193 173.198 28.343 173.276 28.517C173.354 28.691 173.393 28.877 173.393 29.075ZM180.232 37.058C179.59 37.088 179.05 37.145 178.612 37.229C178.174 37.307 177.823 37.409 177.559 37.535C177.295 37.661 177.106 37.808 176.992 37.976C176.878 38.144 176.821 38.327 176.821 38.525C176.821 38.915 176.935 39.194 177.163 39.362C177.397 39.53 177.7 39.614 178.072 39.614C178.528 39.614 178.921 39.533 179.251 39.371C179.587 39.203 179.914 38.951 180.232 38.615V37.058ZM175.138 33.053C176.2 32.081 177.478 31.595 178.972 31.595C179.512 31.595 179.995 31.685 180.421 31.865C180.847 32.039 181.207 32.285 181.501 32.603C181.795 32.915 182.017 33.29 182.167 33.728C182.323 34.166 182.401 34.646 182.401 35.168V41H181.393C181.183 41 181.021 40.97 180.907 40.91C180.793 40.844 180.703 40.715 180.637 40.523L180.439 39.857C180.205 40.067 179.977 40.253 179.755 40.415C179.533 40.571 179.302 40.703 179.062 40.811C178.822 40.919 178.564 41 178.288 41.054C178.018 41.114 177.718 41.144 177.388 41.144C176.998 41.144 176.638 41.093 176.308 40.991C175.978 40.883 175.693 40.724 175.453 40.514C175.213 40.304 175.027 40.043 174.895 39.731C174.763 39.419 174.697 39.056 174.697 38.642C174.697 38.408 174.736 38.177 174.814 37.949C174.892 37.715 175.018 37.493 175.192 37.283C175.372 37.073 175.603 36.875 175.885 36.689C176.167 36.503 176.512 36.341 176.92 36.203C177.334 36.065 177.814 35.954 178.36 35.87C178.906 35.78 179.53 35.726 180.232 35.708V35.168C180.232 34.55 180.1 34.094 179.836 33.8C179.572 33.5 179.191 33.35 178.693 33.35C178.333 33.35 178.033 33.392 177.793 33.476C177.559 33.56 177.352 33.656 177.172 33.764C176.992 33.866 176.827 33.959 176.677 34.043C176.533 34.127 176.371 34.169 176.191 34.169C176.035 34.169 175.903 34.13 175.795 34.052C175.687 33.968 175.6 33.872 175.534 33.764L175.138 33.053ZM190.128 33.566C190.068 33.662 190.005 33.731 189.939 33.773C189.873 33.809 189.789 33.827 189.687 33.827C189.579 33.827 189.462 33.797 189.336 33.737C189.216 33.677 189.075 33.611 188.913 33.539C188.751 33.461 188.565 33.392 188.355 33.332C188.151 33.272 187.908 33.242 187.626 33.242C187.188 33.242 186.843 33.335 186.591 33.521C186.345 33.707 186.222 33.95 186.222 34.25C186.222 34.448 186.285 34.616 186.411 34.754C186.543 34.886 186.714 35.003 186.924 35.105C187.14 35.207 187.383 35.3 187.653 35.384C187.923 35.462 188.196 35.549 188.472 35.645C188.754 35.741 189.03 35.852 189.3 35.978C189.57 36.098 189.81 36.254 190.02 36.446C190.236 36.632 190.407 36.857 190.533 37.121C190.665 37.385 190.731 37.703 190.731 38.075C190.731 38.519 190.65 38.93 190.488 39.308C190.332 39.68 190.098 40.004 189.786 40.28C189.474 40.55 189.087 40.763 188.625 40.919C188.169 41.069 187.641 41.144 187.041 41.144C186.723 41.144 186.411 41.114 186.105 41.054C185.805 41 185.514 40.922 185.232 40.82C184.956 40.718 184.698 40.598 184.458 40.46C184.224 40.322 184.017 40.172 183.837 40.01L184.35 39.164C184.416 39.062 184.494 38.984 184.584 38.93C184.674 38.876 184.788 38.849 184.926 38.849C185.064 38.849 185.193 38.888 185.313 38.966C185.439 39.044 185.583 39.128 185.745 39.218C185.907 39.308 186.096 39.392 186.312 39.47C186.534 39.548 186.813 39.587 187.149 39.587C187.413 39.587 187.638 39.557 187.824 39.497C188.016 39.431 188.172 39.347 188.292 39.245C188.418 39.143 188.508 39.026 188.562 38.894C188.622 38.756 188.652 38.615 188.652 38.471C188.652 38.255 188.586 38.078 188.454 37.94C188.328 37.802 188.157 37.682 187.941 37.58C187.731 37.478 187.488 37.388 187.212 37.31C186.942 37.226 186.663 37.136 186.375 37.04C186.093 36.944 185.814 36.833 185.538 36.707C185.268 36.575 185.025 36.41 184.809 36.212C184.599 36.014 184.428 35.771 184.296 35.483C184.17 35.195 184.107 34.847 184.107 34.439C184.107 34.061 184.182 33.701 184.332 33.359C184.482 33.017 184.701 32.72 184.989 32.468C185.283 32.21 185.646 32.006 186.078 31.856C186.516 31.7 187.02 31.622 187.59 31.622C188.226 31.622 188.805 31.727 189.327 31.937C189.849 32.147 190.284 32.423 190.632 32.765L190.128 33.566ZM199.004 38.606C199.256 38.912 199.529 39.128 199.823 39.254C200.123 39.38 200.447 39.443 200.795 39.443C201.131 39.443 201.434 39.38 201.704 39.254C201.974 39.128 202.202 38.936 202.388 38.678C202.58 38.42 202.727 38.096 202.829 37.706C202.931 37.31 202.982 36.845 202.982 36.311C202.982 35.771 202.937 35.315 202.847 34.943C202.763 34.565 202.64 34.259 202.478 34.025C202.316 33.791 202.118 33.62 201.884 33.512C201.656 33.404 201.395 33.35 201.101 33.35C200.639 33.35 200.246 33.449 199.922 33.647C199.598 33.839 199.292 34.112 199.004 34.466V38.606ZM198.887 33.026C199.265 32.6 199.694 32.255 200.174 31.991C200.654 31.727 201.218 31.595 201.866 31.595C202.37 31.595 202.829 31.7 203.243 31.91C203.663 32.12 204.023 32.426 204.323 32.828C204.629 33.224 204.863 33.716 205.025 34.304C205.193 34.886 205.277 35.555 205.277 36.311C205.277 37.001 205.184 37.64 204.998 38.228C204.812 38.816 204.545 39.326 204.197 39.758C203.855 40.19 203.438 40.529 202.946 40.775C202.46 41.015 201.914 41.135 201.308 41.135C200.792 41.135 200.351 41.057 199.985 40.901C199.619 40.739 199.292 40.517 199.004 40.235V44.015H196.781V31.766H198.14C198.428 31.766 198.617 31.901 198.707 32.171L198.887 33.026ZM211.89 37.058C211.248 37.088 210.708 37.145 210.27 37.229C209.832 37.307 209.481 37.409 209.217 37.535C208.953 37.661 208.764 37.808 208.65 37.976C208.536 38.144 208.479 38.327 208.479 38.525C208.479 38.915 208.593 39.194 208.821 39.362C209.055 39.53 209.358 39.614 209.73 39.614C210.186 39.614 210.579 39.533 210.909 39.371C211.245 39.203 211.572 38.951 211.89 38.615V37.058ZM206.796 33.053C207.858 32.081 209.136 31.595 210.63 31.595C211.17 31.595 211.653 31.685 212.079 31.865C212.505 32.039 212.865 32.285 213.159 32.603C213.453 32.915 213.675 33.29 213.825 33.728C213.981 34.166 214.059 34.646 214.059 35.168V41H213.051C212.841 41 212.679 40.97 212.565 40.91C212.451 40.844 212.361 40.715 212.295 40.523L212.097 39.857C211.863 40.067 211.635 40.253 211.413 40.415C211.191 40.571 210.96 40.703 210.72 40.811C210.48 40.919 210.222 41 209.946 41.054C209.676 41.114 209.376 41.144 209.046 41.144C208.656 41.144 208.296 41.093 207.966 40.991C207.636 40.883 207.351 40.724 207.111 40.514C206.871 40.304 206.685 40.043 206.553 39.731C206.421 39.419 206.355 39.056 206.355 38.642C206.355 38.408 206.394 38.177 206.472 37.949C206.55 37.715 206.676 37.493 206.85 37.283C207.03 37.073 207.261 36.875 207.543 36.689C207.825 36.503 208.17 36.341 208.578 36.203C208.992 36.065 209.472 35.954 210.018 35.87C210.564 35.78 211.188 35.726 211.89 35.708V35.168C211.89 34.55 211.758 34.094 211.494 33.8C211.23 33.5 210.849 33.35 210.351 33.35C209.991 33.35 209.691 33.392 209.451 33.476C209.217 33.56 209.01 33.656 208.83 33.764C208.65 33.866 208.485 33.959 208.335 34.043C208.191 34.127 208.029 34.169 207.849 34.169C207.693 34.169 207.561 34.13 207.453 34.052C207.345 33.968 207.258 33.872 207.192 33.764L206.796 33.053ZM218.249 33.368C218.537 32.816 218.879 32.384 219.275 32.072C219.671 31.754 220.139 31.595 220.679 31.595C221.105 31.595 221.447 31.688 221.705 31.874L221.561 33.539C221.531 33.647 221.486 33.725 221.426 33.773C221.372 33.815 221.297 33.836 221.201 33.836C221.111 33.836 220.976 33.821 220.796 33.791C220.622 33.761 220.451 33.746 220.283 33.746C220.037 33.746 219.818 33.782 219.626 33.854C219.434 33.926 219.26 34.031 219.104 34.169C218.954 34.301 218.819 34.463 218.699 34.655C218.585 34.847 218.477 35.066 218.375 35.312V41H216.152V31.766H217.457C217.685 31.766 217.844 31.808 217.934 31.892C218.024 31.97 218.084 32.114 218.114 32.324L218.249 33.368ZM227.622 37.058C226.98 37.088 226.44 37.145 226.002 37.229C225.564 37.307 225.213 37.409 224.949 37.535C224.685 37.661 224.496 37.808 224.382 37.976C224.268 38.144 224.211 38.327 224.211 38.525C224.211 38.915 224.325 39.194 224.553 39.362C224.787 39.53 225.09 39.614 225.462 39.614C225.918 39.614 226.311 39.533 226.641 39.371C226.977 39.203 227.304 38.951 227.622 38.615V37.058ZM222.528 33.053C223.59 32.081 224.868 31.595 226.362 31.595C226.902 31.595 227.385 31.685 227.811 31.865C228.237 32.039 228.597 32.285 228.891 32.603C229.185 32.915 229.407 33.29 229.557 33.728C229.713 34.166 229.791 34.646 229.791 35.168V41H228.783C228.573 41 228.411 40.97 228.297 40.91C228.183 40.844 228.093 40.715 228.027 40.523L227.829 39.857C227.595 40.067 227.367 40.253 227.145 40.415C226.923 40.571 226.692 40.703 226.452 40.811C226.212 40.919 225.954 41 225.678 41.054C225.408 41.114 225.108 41.144 224.778 41.144C224.388 41.144 224.028 41.093 223.698 40.991C223.368 40.883 223.083 40.724 222.843 40.514C222.603 40.304 222.417 40.043 222.285 39.731C222.153 39.419 222.087 39.056 222.087 38.642C222.087 38.408 222.126 38.177 222.204 37.949C222.282 37.715 222.408 37.493 222.582 37.283C222.762 37.073 222.993 36.875 223.275 36.689C223.557 36.503 223.902 36.341 224.31 36.203C224.724 36.065 225.204 35.954 225.75 35.87C226.296 35.78 226.92 35.726 227.622 35.708V35.168C227.622 34.55 227.49 34.094 227.226 33.8C226.962 33.5 226.581 33.35 226.083 33.35C225.723 33.35 225.423 33.392 225.183 33.476C224.949 33.56 224.742 33.656 224.562 33.764C224.382 33.866 224.217 33.959 224.067 34.043C223.923 34.127 223.761 34.169 223.581 34.169C223.425 34.169 223.293 34.13 223.185 34.052C223.077 33.968 222.99 33.872 222.924 33.764L222.528 33.053ZM128.406 52.353C128.334 52.479 128.256 52.572 128.172 52.632C128.094 52.686 127.995 52.713 127.875 52.713C127.749 52.713 127.611 52.668 127.461 52.578C127.317 52.482 127.143 52.377 126.939 52.263C126.735 52.149 126.495 52.047 126.219 51.957C125.949 51.861 125.628 51.813 125.256 51.813C124.92 51.813 124.626 51.855 124.374 51.939C124.122 52.017 123.909 52.128 123.735 52.272C123.567 52.416 123.441 52.59 123.357 52.794C123.273 52.992 123.231 53.211 123.231 53.451C123.231 53.757 123.315 54.012 123.483 54.216C123.657 54.42 123.885 54.594 124.167 54.738C124.449 54.882 124.77 55.011 125.13 55.125C125.49 55.239 125.859 55.362 126.237 55.494C126.615 55.62 126.984 55.77 127.344 55.944C127.704 56.112 128.025 56.328 128.307 56.592C128.589 56.85 128.814 57.168 128.982 57.546C129.156 57.924 129.243 58.383 129.243 58.923C129.243 59.511 129.141 60.063 128.937 60.579C128.739 61.089 128.445 61.536 128.055 61.92C127.671 62.298 127.2 62.598 126.642 62.82C126.084 63.036 125.445 63.144 124.725 63.144C124.311 63.144 123.903 63.102 123.501 63.018C123.099 62.94 122.712 62.826 122.34 62.676C121.974 62.526 121.629 62.346 121.305 62.136C120.981 61.926 120.693 61.692 120.441 61.434L121.152 60.273C121.212 60.189 121.29 60.12 121.386 60.066C121.482 60.006 121.584 59.976 121.692 59.976C121.842 59.976 122.004 60.039 122.178 60.165C122.352 60.285 122.559 60.42 122.799 60.57C123.039 60.72 123.318 60.858 123.636 60.984C123.96 61.104 124.347 61.164 124.797 61.164C125.487 61.164 126.021 61.002 126.399 60.678C126.777 60.348 126.966 59.877 126.966 59.265C126.966 58.923 126.879 58.644 126.705 58.428C126.537 58.212 126.312 58.032 126.03 57.888C125.748 57.738 125.427 57.612 125.067 57.51C124.707 57.408 124.341 57.297 123.969 57.177C123.597 57.057 123.231 56.913 122.871 56.745C122.511 56.577 122.19 56.358 121.908 56.088C121.626 55.818 121.398 55.482 121.224 55.08C121.056 54.672 120.972 54.171 120.972 53.577C120.972 53.103 121.065 52.641 121.251 52.191C121.443 51.741 121.719 51.342 122.079 50.994C122.439 50.646 122.883 50.367 123.411 50.157C123.939 49.947 124.545 49.842 125.229 49.842C125.997 49.842 126.705 49.962 127.353 50.202C128.001 50.442 128.553 50.778 129.009 51.21L128.406 52.353ZM135.759 59.058C135.117 59.088 134.577 59.145 134.139 59.229C133.701 59.307 133.35 59.409 133.086 59.535C132.822 59.661 132.633 59.808 132.519 59.976C132.405 60.144 132.348 60.327 132.348 60.525C132.348 60.915 132.462 61.194 132.69 61.362C132.924 61.53 133.227 61.614 133.599 61.614C134.055 61.614 134.448 61.533 134.778 61.371C135.114 61.203 135.441 60.951 135.759 60.615V59.058ZM130.665 55.053C131.727 54.081 133.005 53.595 134.499 53.595C135.039 53.595 135.522 53.685 135.948 53.865C136.374 54.039 136.734 54.285 137.028 54.603C137.322 54.915 137.544 55.29 137.694 55.728C137.85 56.166 137.928 56.646 137.928 57.168V63H136.92C136.71 63 136.548 62.97 136.434 62.91C136.32 62.844 136.23 62.715 136.164 62.523L135.966 61.857C135.732 62.067 135.504 62.253 135.282 62.415C135.06 62.571 134.829 62.703 134.589 62.811C134.349 62.919 134.091 63 133.815 63.054C133.545 63.114 133.245 63.144 132.915 63.144C132.525 63.144 132.165 63.093 131.835 62.991C131.505 62.883 131.22 62.724 130.98 62.514C130.74 62.304 130.554 62.043 130.422 61.731C130.29 61.419 130.224 61.056 130.224 60.642C130.224 60.408 130.263 60.177 130.341 59.949C130.419 59.715 130.545 59.493 130.719 59.283C130.899 59.073 131.13 58.875 131.412 58.689C131.694 58.503 132.039 58.341 132.447 58.203C132.861 58.065 133.341 57.954 133.887 57.87C134.433 57.78 135.057 57.726 135.759 57.708V57.168C135.759 56.55 135.627 56.094 135.363 55.8C135.099 55.5 134.718 55.35 134.22 55.35C133.86 55.35 133.56 55.392 133.32 55.476C133.086 55.56 132.879 55.656 132.699 55.764C132.519 55.866 132.354 55.959 132.204 56.043C132.06 56.127 131.898 56.169 131.718 56.169C131.562 56.169 131.43 56.13 131.322 56.052C131.214 55.968 131.127 55.872 131.061 55.764L130.665 55.053ZM142.272 49.626V63H140.049V49.626H142.272ZM152.811 53.766L149.148 63H147.132L143.469 53.766H145.305C145.473 53.766 145.611 53.805 145.719 53.883C145.833 53.961 145.908 54.06 145.944 54.18L147.726 59.112C147.822 59.4 147.906 59.682 147.978 59.958C148.05 60.234 148.113 60.51 148.167 60.786C148.227 60.51 148.293 60.234 148.365 59.958C148.437 59.682 148.524 59.4 148.626 59.112L150.444 54.18C150.486 54.06 150.561 53.961 150.669 53.883C150.777 53.805 150.906 53.766 151.056 53.766H152.811ZM158.646 59.058C158.004 59.088 157.464 59.145 157.026 59.229C156.588 59.307 156.237 59.409 155.973 59.535C155.709 59.661 155.52 59.808 155.406 59.976C155.292 60.144 155.235 60.327 155.235 60.525C155.235 60.915 155.349 61.194 155.577 61.362C155.811 61.53 156.114 61.614 156.486 61.614C156.942 61.614 157.335 61.533 157.665 61.371C158.001 61.203 158.328 60.951 158.646 60.615V59.058ZM153.552 55.053C154.614 54.081 155.892 53.595 157.386 53.595C157.926 53.595 158.409 53.685 158.835 53.865C159.261 54.039 159.621 54.285 159.915 54.603C160.209 54.915 160.431 55.29 160.581 55.728C160.737 56.166 160.815 56.646 160.815 57.168V63H159.807C159.597 63 159.435 62.97 159.321 62.91C159.207 62.844 159.117 62.715 159.051 62.523L158.853 61.857C158.619 62.067 158.391 62.253 158.169 62.415C157.947 62.571 157.716 62.703 157.476 62.811C157.236 62.919 156.978 63 156.702 63.054C156.432 63.114 156.132 63.144 155.802 63.144C155.412 63.144 155.052 63.093 154.722 62.991C154.392 62.883 154.107 62.724 153.867 62.514C153.627 62.304 153.441 62.043 153.309 61.731C153.177 61.419 153.111 61.056 153.111 60.642C153.111 60.408 153.15 60.177 153.228 59.949C153.306 59.715 153.432 59.493 153.606 59.283C153.786 59.073 154.017 58.875 154.299 58.689C154.581 58.503 154.926 58.341 155.334 58.203C155.748 58.065 156.228 57.954 156.774 57.87C157.32 57.78 157.944 57.726 158.646 57.708V57.168C158.646 56.55 158.514 56.094 158.25 55.8C157.986 55.5 157.605 55.35 157.107 55.35C156.747 55.35 156.447 55.392 156.207 55.476C155.973 55.56 155.766 55.656 155.586 55.764C155.406 55.866 155.241 55.959 155.091 56.043C154.947 56.127 154.785 56.169 154.605 56.169C154.449 56.169 154.317 56.13 154.209 56.052C154.101 55.968 154.014 55.872 153.948 55.764L153.552 55.053ZM168.704 56.124C168.452 55.818 168.176 55.602 167.876 55.476C167.582 55.35 167.264 55.287 166.922 55.287C166.586 55.287 166.283 55.35 166.013 55.476C165.743 55.602 165.512 55.794 165.32 56.052C165.128 56.304 164.981 56.628 164.879 57.024C164.777 57.414 164.726 57.876 164.726 58.41C164.726 58.95 164.768 59.409 164.852 59.787C164.942 60.159 165.068 60.465 165.23 60.705C165.392 60.939 165.59 61.11 165.824 61.218C166.058 61.32 166.319 61.371 166.607 61.371C167.069 61.371 167.462 61.275 167.786 61.083C168.11 60.891 168.416 60.618 168.704 60.264V56.124ZM170.927 49.626V63H169.568C169.274 63 169.088 62.865 169.01 62.595L168.821 61.704C168.449 62.13 168.02 62.475 167.534 62.739C167.054 63.003 166.493 63.135 165.851 63.135C165.347 63.135 164.885 63.03 164.465 62.82C164.045 62.61 163.682 62.307 163.376 61.911C163.076 61.509 162.842 61.014 162.674 60.426C162.512 59.838 162.431 59.166 162.431 58.41C162.431 57.726 162.524 57.09 162.71 56.502C162.896 55.914 163.163 55.404 163.511 54.972C163.859 54.54 164.276 54.204 164.762 53.964C165.248 53.718 165.794 53.595 166.4 53.595C166.916 53.595 167.357 53.676 167.723 53.838C168.089 54 168.416 54.219 168.704 54.495V49.626H170.927ZM177.207 53.622C177.891 53.622 178.512 53.733 179.07 53.955C179.634 54.177 180.114 54.492 180.51 54.9C180.912 55.308 181.221 55.806 181.437 56.394C181.653 56.982 181.761 57.639 181.761 58.365C181.761 59.097 181.653 59.757 181.437 60.345C181.221 60.933 180.912 61.434 180.51 61.848C180.114 62.262 179.634 62.58 179.07 62.802C178.512 63.024 177.891 63.135 177.207 63.135C176.517 63.135 175.89 63.024 175.326 62.802C174.762 62.58 174.279 62.262 173.877 61.848C173.481 61.434 173.172 60.933 172.95 60.345C172.734 59.757 172.626 59.097 172.626 58.365C172.626 57.639 172.734 56.982 172.95 56.394C173.172 55.806 173.481 55.308 173.877 54.9C174.279 54.492 174.762 54.177 175.326 53.955C175.89 53.733 176.517 53.622 177.207 53.622ZM177.207 61.425C177.975 61.425 178.542 61.167 178.908 60.651C179.28 60.135 179.466 59.379 179.466 58.383C179.466 57.387 179.28 56.628 178.908 56.106C178.542 55.584 177.975 55.323 177.207 55.323C176.427 55.323 175.848 55.587 175.47 56.115C175.098 56.637 174.912 57.393 174.912 58.383C174.912 59.373 175.098 60.129 175.47 60.651C175.848 61.167 176.427 61.425 177.207 61.425ZM185.554 55.368C185.842 54.816 186.184 54.384 186.58 54.072C186.976 53.754 187.444 53.595 187.984 53.595C188.41 53.595 188.752 53.688 189.01 53.874L188.866 55.539C188.836 55.647 188.791 55.725 188.731 55.773C188.677 55.815 188.602 55.836 188.506 55.836C188.416 55.836 188.281 55.821 188.101 55.791C187.927 55.761 187.756 55.746 187.588 55.746C187.342 55.746 187.123 55.782 186.931 55.854C186.739 55.926 186.565 56.031 186.409 56.169C186.259 56.301 186.124 56.463 186.004 56.655C185.89 56.847 185.782 57.066 185.68 57.312V63H183.457V53.766H184.762C184.99 53.766 185.149 53.808 185.239 53.892C185.329 53.97 185.389 54.114 185.419 54.324L185.554 55.368Z" fill="#606060"/>
<g clip-path="url(#clip0_108_1137)">
<path d="M84.5964 31.9824C83.0461 25.0915 76.2084 20.7633 69.324 22.315C65.8404 23.1002 62.844 25.3086 61.0608 28.4053H60.9417C55.9282 28.4172 51.6357 32.0052 50.7303 36.941C46.9853 38.329 44.6353 42.0582 44.9972 46.039C45.2626 48.8154 46.8498 51.2932 49.2598 52.6933L50.0789 51.3199C48.1092 50.1794 46.8097 48.158 46.5891 45.891C46.2763 42.4786 48.398 39.3144 51.6716 38.3112C51.9716 38.2197 52.1904 37.961 52.231 37.6497C52.8148 33.279 56.5363 30.013 60.9417 30.0051C61.0664 30.0051 61.1895 30.0139 61.3125 30.0219L61.4724 30.0323C61.7853 30.0505 62.08 29.8837 62.226 29.606C65.0901 24.1308 71.8464 22.0163 77.3164 24.8831C80.3658 26.4813 82.5097 29.3963 83.1284 32.7855C83.1858 33.1044 83.4298 33.3571 83.7461 33.4255C88.5007 34.4606 91.731 38.8904 91.2669 43.7385C91.0175 46.3328 89.6971 48.7049 87.6244 50.2824L88.6042 51.5455C91.0266 49.6985 92.5685 46.9231 92.858 43.8889C93.3792 38.433 89.8861 33.3987 84.5964 31.9824Z" fill="#218738"/>
<path d="M83.8729 32.7043C82.4144 26.1648 75.9815 22.0573 69.5046 23.5299C66.2273 24.2751 63.4083 26.3708 61.7306 29.3096H61.6186C56.9019 29.3209 52.8635 32.7259 52.0117 37.41C48.4884 38.7272 46.2775 42.2662 46.618 46.044C46.8677 48.6789 48.3609 51.0303 50.6283 52.359L51.3989 51.0556C49.5457 49.9732 48.3232 48.055 48.1156 45.9036C47.8214 42.6652 49.8175 39.6623 52.8973 38.7103C53.1795 38.6235 53.3853 38.3779 53.4236 38.0825C53.9728 33.9347 57.474 30.8353 61.6186 30.8278C61.7359 30.8278 61.8517 30.8362 61.9675 30.8438L62.1178 30.8536C62.4123 30.8709 62.6895 30.7126 62.8268 30.449C65.5214 25.2531 71.8777 23.2464 77.0239 25.967C79.8927 27.4837 81.9097 30.25 82.4918 33.4664C82.5459 33.769 82.7754 34.0088 83.073 34.0737C87.546 35.0561 90.5851 39.26 90.1485 43.8608C89.9138 46.3228 88.6716 48.5739 86.7216 50.0711L87.6434 51.2697C89.9224 49.5169 91.3731 46.883 91.6454 44.0035C92.1358 38.8259 88.8494 34.0483 83.8729 32.7043Z" fill="#3D874D"/>
<path d="M69.7327 58.8015H68.1345C65.0465 58.805 62.5439 61.3099 62.5404 64.4008V70H75.3268V64.4008C75.3232 61.3099 72.8207 58.805 69.7327 58.8015ZM73.7285 68.4002H64.1387V64.4008C64.1413 62.1931 65.9288 60.4039 68.1345 60.4013H69.7327C71.9384 60.4039 73.7259 62.1931 73.7285 64.4008V68.4002Z" fill="#218738"/>
<path d="M68.9337 50.0026C66.7269 50.0026 64.9379 51.7933 64.9379 54.0021C64.9379 56.2109 66.7269 58.0016 68.9337 58.0016C71.1393 57.999 72.9268 56.2098 72.9294 54.0021C72.9294 51.7933 71.1404 50.0026 68.9337 50.0026ZM68.9337 56.4018C67.6096 56.4018 66.5362 55.3274 66.5362 54.0021C66.5362 52.6768 67.6096 51.6024 68.9337 51.6024C70.2578 51.6024 71.3311 52.6768 71.3311 54.0021C71.3311 55.3274 70.2577 56.4018 68.9337 56.4018Z" fill="#218738"/>
<path d="M55.3481 58.8015H53.7498C50.6618 58.805 48.1593 61.3099 48.1558 64.4008V70H60.9421V64.4008C60.9385 61.3099 58.4361 58.805 55.3481 58.8015ZM59.3438 68.4002H49.7541V64.4008C49.7567 62.1931 51.5442 60.4039 53.7498 60.4013H55.3481C57.5537 60.4039 59.3412 62.1931 59.3438 64.4008V68.4002Z" fill="#218738"/>
<path d="M54.5491 50.0026C52.3423 50.0026 50.5533 51.7933 50.5533 54.0021C50.5533 56.2109 52.3423 58.0016 54.5491 58.0016C56.7547 57.999 58.5422 56.2098 58.5448 54.0021C58.5448 51.7933 56.7558 50.0026 54.5491 50.0026ZM54.5491 56.4018C53.225 56.4018 52.1516 55.3274 52.1516 54.0021C52.1516 52.6768 53.225 51.6024 54.5491 51.6024C55.8731 51.6024 56.9465 52.6768 56.9465 54.0021C56.9465 55.3274 55.873 56.4018 54.5491 56.4018Z" fill="#218738"/>
<path d="M84.1174 58.8015H82.5191C79.4311 58.805 76.9286 61.3099 76.9251 64.4008V70H89.7114V64.4008C89.7078 61.3099 87.2054 58.805 84.1174 58.8015ZM88.1131 68.4002H78.5234V64.4008C78.526 62.1931 80.3135 60.4039 82.5191 60.4013H84.1174C86.323 60.4039 88.1105 62.1931 88.1131 64.4008V68.4002Z" fill="#218738"/>
<path d="M83.3182 50.0026C81.1115 50.0026 79.3225 51.7933 79.3225 54.0021C79.3225 56.2109 81.1115 58.0016 83.3182 58.0016C85.5238 57.999 87.3113 56.2098 87.3139 54.0021C87.3139 51.7933 85.5249 50.0026 83.3182 50.0026ZM83.3182 56.4018C81.9941 56.4018 80.9208 55.3274 80.9208 54.0021C80.9208 52.6768 81.9941 51.6024 83.3182 51.6024C84.6423 51.6024 85.7156 52.6768 85.7156 54.0021C85.7156 55.3274 84.6422 56.4018 83.3182 56.4018Z" fill="#218738"/>
<g clip-path="url(#clip1_108_1137)">
<path d="M70.5612 31.901C70.6932 31.901 70.8001 31.7932 70.8001 31.6601V30.0358C70.8001 29.9027 70.6932 29.7949 70.5612 29.7949C70.4292 29.7949 70.3223 29.9027 70.3223 30.0358V31.6601C70.3223 31.7932 70.4292 31.901 70.5612 31.901Z" fill="#218738"/>
<path d="M66.1081 33.6219C66.2013 33.716 66.3524 33.716 66.4456 33.6219C66.5388 33.5278 66.5388 33.3753 66.4456 33.2812L65.3079 32.1326C65.2146 32.0385 65.0636 32.0385 64.9703 32.1326C64.8771 32.2267 64.8771 32.3792 64.9703 32.4733L66.1081 33.6219Z" fill="#218738"/>
<path d="M64.5025 37.5353H62.8934C62.7616 37.5353 62.6547 37.6432 62.6547 37.7763C62.6547 37.9094 62.7616 38.0172 62.8934 38.0172H64.5024C64.6343 38.0172 64.7411 37.9094 64.7411 37.7763C64.7411 37.6432 64.6343 37.5353 64.5025 37.5353Z" fill="#218738"/>
<path d="M66.1081 41.9307L64.9703 43.0793C64.8771 43.1734 64.8771 43.3259 64.9703 43.42C65.0636 43.5141 65.2146 43.5141 65.3079 43.42L66.4456 42.2714C66.5388 42.1773 66.5388 42.0248 66.4456 41.9307C66.3524 41.8367 66.2013 41.8367 66.1081 41.9307Z" fill="#218738"/>
<path d="M75.0138 41.9307C74.9206 41.8367 74.7695 41.8367 74.6763 41.9307C74.5831 42.0248 74.5831 42.1774 74.6763 42.2715L75.814 43.42C75.9073 43.5141 76.0583 43.5141 76.1516 43.42C76.2448 43.3259 76.2448 43.1734 76.1516 43.0793L75.0138 41.9307Z" fill="#218738"/>
<path d="M78.2287 37.5353H76.6197C76.4878 37.5353 76.381 37.6432 76.381 37.7763C76.381 37.9094 76.4878 38.0172 76.6197 38.0172H78.2287C78.3605 38.0172 78.4674 37.9094 78.4674 37.7763C78.4674 37.6432 78.3605 37.5353 78.2287 37.5353Z" fill="#218738"/>
<path d="M75.814 32.1326L74.6763 33.2812C74.5831 33.3753 74.5831 33.5278 74.6763 33.6219C74.7695 33.716 74.9206 33.716 75.0138 33.6219L76.1516 32.4733C76.2448 32.3792 76.2448 32.2267 76.1516 32.1326C76.0583 32.0385 75.9072 32.0385 75.814 32.1326Z" fill="#218738"/>
<path d="M75.2758 37.2893C75.2758 34.6271 73.1608 32.4612 70.561 32.4612C69.6503 32.4612 68.7664 32.7276 68.0049 33.2316C67.264 33.722 66.6733 34.4118 66.2968 35.2266C66.2411 35.3472 66.2928 35.4906 66.4122 35.5468C66.5318 35.6032 66.6737 35.5509 66.7294 35.4304C67.4276 33.9194 68.9316 32.943 70.561 32.943C72.8976 32.943 74.7985 34.8928 74.7985 37.2893C74.7985 38.4276 74.3724 39.5037 73.5987 40.3195C73.1528 40.7896 72.7732 41.2389 72.6756 41.8683H68.5088C68.3857 41.2149 67.9442 40.7564 67.5474 40.3448C66.7581 39.5259 66.3234 38.4408 66.3234 37.2893C66.3234 37.0049 66.3504 36.7206 66.4035 36.444C66.4286 36.3134 66.344 36.187 66.2146 36.1616C66.0852 36.1365 65.96 36.2216 65.9349 36.3523C65.8759 36.659 65.8461 36.9742 65.8461 37.2893C65.8461 38.567 66.3288 39.7715 67.2053 40.6809C67.7087 41.2031 68.0651 41.6199 68.0651 42.2309C68.0651 42.233 68.0651 42.2352 68.0652 42.2373L68.0788 43.6512C68.0788 44.1099 68.3212 44.5125 68.6835 44.7355V45.0005C68.6835 45.6647 69.2188 46.2051 69.8768 46.2051H71.3406C71.9987 46.2051 72.534 45.6647 72.534 45.0005V44.7355C72.8962 44.5125 73.1386 44.1099 73.1386 43.6512C73.1386 43.6512 73.1369 42.0763 73.1337 42.0606C73.179 41.5022 73.5143 41.1053 73.9435 40.6527C74.8026 39.7468 75.2758 38.5523 75.2758 37.2893ZM72.0566 45.0005C72.0566 45.399 71.7354 45.7233 71.3406 45.7233H69.8768C69.482 45.7233 69.1608 45.399 69.1608 45.0005V44.9076C69.218 44.9157 69.2764 44.9201 69.3358 44.9201H71.8816C71.941 44.9201 71.9994 44.9156 72.0566 44.9076V45.0005ZM71.8816 44.4383H69.3358C68.9059 44.4383 68.5561 44.0852 68.5561 43.6512V43.6352H70.9746C71.1065 43.6352 71.2133 43.5273 71.2133 43.3942C71.2133 43.2611 71.1065 43.1533 70.9746 43.1533H68.5561V42.3502H72.6539L72.6612 43.1533H72.0884C71.9566 43.1533 71.8498 43.2611 71.8498 43.3942C71.8498 43.5273 71.9566 43.6352 72.0884 43.6352H72.6612V43.6512C72.6612 44.0852 72.3115 44.4383 71.8816 44.4383Z" fill="#218738"/>
</g>
</g>
<defs>
<filter id="filter0_d_108_1137" x="2.30171" y="2" width="329.698" height="96" filterUnits="userSpaceOnUse" color-interpolation-filters="sRGB">
<feFlood flood-opacity="0" result="BackgroundImageFix"/>
<feColorMatrix in="SourceAlpha" type="matrix" values="0 0 0 0 0 0 0 0 0 0 0 0 0 0 0 0 0 0 127 0" result="hardAlpha"/>
<feOffset dy="4"/>
<feGaussianBlur stdDeviation="2"/>
<feColorMatrix type="matrix" values="0 0 0 0 0 0 0 0 0 0 0 0 0 0 0 0 0 0 0.25 0"/>
<feBlend mode="normal" in2="BackgroundImageFix" result="effect1_dropShadow_108_1137"/>
<feBlend mode="normal" in="SourceGraphic" in2="effect1_dropShadow_108_1137" result="shape"/>
</filter>
<clipPath id="clip0_108_1137">
<rect width="47.955" height="48" fill="white" transform="translate(44.9578 22)"/>
</clipPath>
<clipPath id="clip1_108_1137">
<rect width="16.2559" height="16.4103" fill="white" transform="translate(62.4329 29.7949)"/>
</clipPath>
</defs>
</svg>
