<svg width="332" height="98" viewBox="0 0 332 98" fill="none" xmlns="http://www.w3.org/2000/svg">
<rect width="327.693" height="88" rx="16" fill="#3D874D"/>
<g filter="url(#filter0_d_108_1174)">
<rect x="6.30171" y="2" width="321.698" height="88" rx="16" fill="#F9F9F9"/>
</g>
<path d="M89.1309 70L91.2503 67.8785L78.6509 55.2673L76.5315 57.3888L89.1309 70Z" fill="#218738"/>
<path d="M66.6949 61.06C56.2461 61.06 47.7448 52.5515 47.7448 42.0929C47.7448 31.6343 56.2461 23.1251 66.6949 23.1251C77.1437 23.1251 85.6442 31.6343 85.6442 42.0929C85.6442 52.5515 77.1437 61.06 66.6949 61.06Z" fill="white"/>
<path d="M66.6949 24.2501C76.5239 24.2501 84.5201 32.2538 84.5201 42.0921C84.5201 51.9304 76.5239 59.9349 66.6949 59.9349C56.8658 59.9349 48.8696 51.9312 48.8696 42.0929C48.8696 32.2546 56.8658 24.2501 66.6949 24.2501ZM66.6949 22C55.6084 22 46.6208 30.996 46.6208 42.0921C46.6208 53.1883 55.6084 62.1843 66.6941 62.1843C77.7806 62.1843 86.7674 53.1883 86.7674 42.0921C86.7674 30.996 77.7813 22 66.6949 22Z" fill="#218738"/>
<path d="M80.3004 41.9749C80.324 42.0176 80.3451 42.0565 80.3637 42.0915C80.3449 42.1265 80.3237 42.1656 80.2999 42.2084C80.1792 42.4257 79.9938 42.7398 79.739 43.1184C79.2288 43.8763 78.4427 44.8892 77.343 45.9021C75.1487 47.9233 71.7047 49.9476 66.6836 49.9476C61.6626 49.9476 58.2246 47.9234 56.0363 45.9025C54.9397 44.8898 54.1565 43.877 53.6485 43.1192C53.3947 42.7406 53.2102 42.4266 53.0901 42.2093C53.0665 42.1666 53.0454 42.1277 53.0268 42.0927C53.0456 42.0577 53.0668 42.0186 53.0906 41.9758C53.2113 41.7585 53.3967 41.4444 53.6516 41.0658C54.1617 40.3079 54.9479 39.295 56.0475 38.2821C58.2418 36.2609 61.6858 34.2366 66.7069 34.2366C71.7279 34.2366 75.1659 36.2609 77.3542 38.2817C78.4508 39.2944 79.2341 40.3072 79.7421 41.065C79.9959 41.4436 80.1803 41.7576 80.3004 41.9749Z" stroke="#218738"/>
<path d="M66.6949 36.8328C69.5926 36.8328 71.95 39.1924 71.95 42.0929C71.95 44.9933 69.5926 47.3529 66.6949 47.3529C63.7972 47.3529 61.4397 44.9933 61.4397 42.0929C61.4397 39.1924 63.7972 36.8328 66.6949 36.8328ZM66.6949 36.0828C63.379 36.0828 60.6904 38.7732 60.6904 42.0929C60.6904 45.4126 63.3783 48.103 66.6949 48.103C70.0114 48.103 72.6993 45.4126 72.6993 42.0929C72.6993 38.7732 70.0107 36.0828 66.6949 36.0828Z" fill="#218738"/>
<path opacity="0.1" d="M66.6956 47.3949C69.6215 47.3949 71.9934 45.0208 71.9934 42.0921C71.9934 39.1635 69.6215 36.7893 66.6956 36.7893C63.7697 36.7893 61.3978 39.1635 61.3978 42.0921C61.3978 45.0208 63.7697 47.3949 66.6956 47.3949Z" fill="#3D874D"/>
<path d="M66.6957 45.6826C68.6768 45.6826 70.2828 44.0751 70.2828 42.0922C70.2828 40.1092 68.6768 38.5017 66.6957 38.5017C64.7146 38.5017 63.1086 40.1092 63.1086 42.0922C63.1086 44.0751 64.7146 45.6826 66.6957 45.6826Z" fill="white"/>
<path d="M66.6956 43.875C67.6793 43.875 68.4768 43.0768 68.4768 42.0922C68.4768 41.1075 67.6793 40.3093 66.6956 40.3093C65.7119 40.3093 64.9144 41.1075 64.9144 42.0922C64.9144 43.0768 65.7119 43.875 66.6956 43.875Z" fill="#006116"/>
<path d="M123.906 40.912V44.764H128.784V46.699H123.906V52H121.476V38.986H129.684V40.912H123.906ZM133.607 42.766V52H131.375V42.766H133.607ZM133.913 40.075C133.913 40.267 133.874 40.447 133.796 40.615C133.718 40.783 133.613 40.93 133.481 41.056C133.355 41.182 133.205 41.284 133.031 41.362C132.857 41.434 132.671 41.47 132.473 41.47C132.281 41.47 132.098 41.434 131.924 41.362C131.756 41.284 131.609 41.182 131.483 41.056C131.357 40.93 131.255 40.783 131.177 40.615C131.105 40.447 131.069 40.267 131.069 40.075C131.069 39.877 131.105 39.691 131.177 39.517C131.255 39.343 131.357 39.193 131.483 39.067C131.609 38.941 131.756 38.842 131.924 38.77C132.098 38.692 132.281 38.653 132.473 38.653C132.671 38.653 132.857 38.692 133.031 38.77C133.205 38.842 133.355 38.941 133.481 39.067C133.613 39.193 133.718 39.343 133.796 39.517C133.874 39.691 133.913 39.877 133.913 40.075ZM141.507 44.566C141.447 44.662 141.384 44.731 141.318 44.773C141.252 44.809 141.168 44.827 141.066 44.827C140.958 44.827 140.841 44.797 140.715 44.737C140.595 44.677 140.454 44.611 140.292 44.539C140.13 44.461 139.944 44.392 139.734 44.332C139.53 44.272 139.287 44.242 139.005 44.242C138.567 44.242 138.222 44.335 137.97 44.521C137.724 44.707 137.601 44.95 137.601 45.25C137.601 45.448 137.664 45.616 137.79 45.754C137.922 45.886 138.093 46.003 138.303 46.105C138.519 46.207 138.762 46.3 139.032 46.384C139.302 46.462 139.575 46.549 139.851 46.645C140.133 46.741 140.409 46.852 140.679 46.978C140.949 47.098 141.189 47.254 141.399 47.446C141.615 47.632 141.786 47.857 141.912 48.121C142.044 48.385 142.11 48.703 142.11 49.075C142.11 49.519 142.029 49.93 141.867 50.308C141.711 50.68 141.477 51.004 141.165 51.28C140.853 51.55 140.466 51.763 140.004 51.919C139.548 52.069 139.02 52.144 138.42 52.144C138.102 52.144 137.79 52.114 137.484 52.054C137.184 52 136.893 51.922 136.611 51.82C136.335 51.718 136.077 51.598 135.837 51.46C135.603 51.322 135.396 51.172 135.216 51.01L135.729 50.164C135.795 50.062 135.873 49.984 135.963 49.93C136.053 49.876 136.167 49.849 136.305 49.849C136.443 49.849 136.572 49.888 136.692 49.966C136.818 50.044 136.962 50.128 137.124 50.218C137.286 50.308 137.475 50.392 137.691 50.47C137.913 50.548 138.192 50.587 138.528 50.587C138.792 50.587 139.017 50.557 139.203 50.497C139.395 50.431 139.551 50.347 139.671 50.245C139.797 50.143 139.887 50.026 139.941 49.894C140.001 49.756 140.031 49.615 140.031 49.471C140.031 49.255 139.965 49.078 139.833 48.94C139.707 48.802 139.536 48.682 139.32 48.58C139.11 48.478 138.867 48.388 138.591 48.31C138.321 48.226 138.042 48.136 137.754 48.04C137.472 47.944 137.193 47.833 136.917 47.707C136.647 47.575 136.404 47.41 136.188 47.212C135.978 47.014 135.807 46.771 135.675 46.483C135.549 46.195 135.486 45.847 135.486 45.439C135.486 45.061 135.561 44.701 135.711 44.359C135.861 44.017 136.08 43.72 136.368 43.468C136.662 43.21 137.025 43.006 137.457 42.856C137.895 42.7 138.399 42.622 138.969 42.622C139.605 42.622 140.184 42.727 140.706 42.937C141.228 43.147 141.663 43.423 142.011 43.765L141.507 44.566ZM150.398 44.719C150.332 44.803 150.266 44.869 150.2 44.917C150.14 44.965 150.05 44.989 149.93 44.989C149.816 44.989 149.705 44.956 149.597 44.89C149.489 44.818 149.36 44.74 149.21 44.656C149.06 44.566 148.88 44.488 148.67 44.422C148.466 44.35 148.211 44.314 147.905 44.314C147.515 44.314 147.173 44.386 146.879 44.53C146.585 44.668 146.339 44.869 146.141 45.133C145.949 45.397 145.805 45.718 145.709 46.096C145.613 46.468 145.565 46.891 145.565 47.365C145.565 47.857 145.616 48.295 145.718 48.679C145.826 49.063 145.979 49.387 146.177 49.651C146.375 49.909 146.615 50.107 146.897 50.245C147.179 50.377 147.497 50.443 147.851 50.443C148.205 50.443 148.49 50.401 148.706 50.317C148.928 50.227 149.114 50.131 149.264 50.029C149.414 49.921 149.543 49.825 149.651 49.741C149.765 49.651 149.891 49.606 150.029 49.606C150.209 49.606 150.344 49.675 150.434 49.813L151.073 50.623C150.827 50.911 150.56 51.154 150.272 51.352C149.984 51.544 149.684 51.7 149.372 51.82C149.066 51.934 148.748 52.015 148.418 52.063C148.094 52.111 147.77 52.135 147.446 52.135C146.876 52.135 146.339 52.03 145.835 51.82C145.331 51.604 144.89 51.292 144.512 50.884C144.134 50.476 143.834 49.978 143.612 49.39C143.396 48.796 143.288 48.121 143.288 47.365C143.288 46.687 143.384 46.06 143.576 45.484C143.774 44.902 144.062 44.401 144.44 43.981C144.818 43.555 145.286 43.222 145.844 42.982C146.402 42.742 147.044 42.622 147.77 42.622C148.46 42.622 149.063 42.733 149.579 42.955C150.101 43.177 150.569 43.495 150.983 43.909L150.398 44.719ZM157.345 48.058C156.703 48.088 156.163 48.145 155.725 48.229C155.287 48.307 154.936 48.409 154.672 48.535C154.408 48.661 154.219 48.808 154.105 48.976C153.991 49.144 153.934 49.327 153.934 49.525C153.934 49.915 154.048 50.194 154.276 50.362C154.51 50.53 154.813 50.614 155.185 50.614C155.641 50.614 156.034 50.533 156.364 50.371C156.7 50.203 157.027 49.951 157.345 49.615V48.058ZM152.251 44.053C153.313 43.081 154.591 42.595 156.085 42.595C156.625 42.595 157.108 42.685 157.534 42.865C157.96 43.039 158.32 43.285 158.614 43.603C158.908 43.915 159.13 44.29 159.28 44.728C159.436 45.166 159.514 45.646 159.514 46.168V52H158.506C158.296 52 158.134 51.97 158.02 51.91C157.906 51.844 157.816 51.715 157.75 51.523L157.552 50.857C157.318 51.067 157.09 51.253 156.868 51.415C156.646 51.571 156.415 51.703 156.175 51.811C155.935 51.919 155.677 52 155.401 52.054C155.131 52.114 154.831 52.144 154.501 52.144C154.111 52.144 153.751 52.093 153.421 51.991C153.091 51.883 152.806 51.724 152.566 51.514C152.326 51.304 152.14 51.043 152.008 50.731C151.876 50.419 151.81 50.056 151.81 49.642C151.81 49.408 151.849 49.177 151.927 48.949C152.005 48.715 152.131 48.493 152.305 48.283C152.485 48.073 152.716 47.875 152.998 47.689C153.28 47.503 153.625 47.341 154.033 47.203C154.447 47.065 154.927 46.954 155.473 46.87C156.019 46.78 156.643 46.726 157.345 46.708V46.168C157.345 45.55 157.213 45.094 156.949 44.8C156.685 44.5 156.304 44.35 155.806 44.35C155.446 44.35 155.146 44.392 154.906 44.476C154.672 44.56 154.465 44.656 154.285 44.764C154.105 44.866 153.94 44.959 153.79 45.043C153.646 45.127 153.484 45.169 153.304 45.169C153.148 45.169 153.016 45.13 152.908 45.052C152.8 44.968 152.713 44.872 152.647 44.764L152.251 44.053ZM163.857 38.626V52H161.634V38.626H163.857ZM168.376 42.766V52H166.144V42.766H168.376ZM168.682 40.075C168.682 40.267 168.643 40.447 168.565 40.615C168.487 40.783 168.382 40.93 168.25 41.056C168.124 41.182 167.974 41.284 167.8 41.362C167.626 41.434 167.44 41.47 167.242 41.47C167.05 41.47 166.867 41.434 166.693 41.362C166.525 41.284 166.378 41.182 166.252 41.056C166.126 40.93 166.024 40.783 165.946 40.615C165.874 40.447 165.838 40.267 165.838 40.075C165.838 39.877 165.874 39.691 165.946 39.517C166.024 39.343 166.126 39.193 166.252 39.067C166.378 38.941 166.525 38.842 166.693 38.77C166.867 38.692 167.05 38.653 167.242 38.653C167.44 38.653 167.626 38.692 167.8 38.77C167.974 38.842 168.124 38.941 168.25 39.067C168.382 39.193 168.487 39.343 168.565 39.517C168.643 39.691 168.682 39.877 168.682 40.075ZM177.276 43.684C177.276 43.84 177.249 43.993 177.195 44.143C177.141 44.293 177.069 44.416 176.979 44.512L172.596 50.29H177.141V52H170.013V51.073C170.013 50.971 170.037 50.851 170.085 50.713C170.133 50.569 170.205 50.434 170.301 50.308L174.729 44.467H170.274V42.766H177.276V43.684ZM183.8 48.058C183.158 48.088 182.618 48.145 182.18 48.229C181.742 48.307 181.391 48.409 181.127 48.535C180.863 48.661 180.674 48.808 180.56 48.976C180.446 49.144 180.389 49.327 180.389 49.525C180.389 49.915 180.503 50.194 180.731 50.362C180.965 50.53 181.268 50.614 181.64 50.614C182.096 50.614 182.489 50.533 182.819 50.371C183.155 50.203 183.482 49.951 183.8 49.615V48.058ZM178.706 44.053C179.768 43.081 181.046 42.595 182.54 42.595C183.08 42.595 183.563 42.685 183.989 42.865C184.415 43.039 184.775 43.285 185.069 43.603C185.363 43.915 185.585 44.29 185.735 44.728C185.891 45.166 185.969 45.646 185.969 46.168V52H184.961C184.751 52 184.589 51.97 184.475 51.91C184.361 51.844 184.271 51.715 184.205 51.523L184.007 50.857C183.773 51.067 183.545 51.253 183.323 51.415C183.101 51.571 182.87 51.703 182.63 51.811C182.39 51.919 182.132 52 181.856 52.054C181.586 52.114 181.286 52.144 180.956 52.144C180.566 52.144 180.206 52.093 179.876 51.991C179.546 51.883 179.261 51.724 179.021 51.514C178.781 51.304 178.595 51.043 178.463 50.731C178.331 50.419 178.265 50.056 178.265 49.642C178.265 49.408 178.304 49.177 178.382 48.949C178.46 48.715 178.586 48.493 178.76 48.283C178.94 48.073 179.171 47.875 179.453 47.689C179.735 47.503 180.08 47.341 180.488 47.203C180.902 47.065 181.382 46.954 181.928 46.87C182.474 46.78 183.098 46.726 183.8 46.708V46.168C183.8 45.55 183.668 45.094 183.404 44.8C183.14 44.5 182.759 44.35 182.261 44.35C181.901 44.35 181.601 44.392 181.361 44.476C181.127 44.56 180.92 44.656 180.74 44.764C180.56 44.866 180.395 44.959 180.245 45.043C180.101 45.127 179.939 45.169 179.759 45.169C179.603 45.169 179.471 45.13 179.363 45.052C179.255 44.968 179.168 44.872 179.102 44.764L178.706 44.053ZM195.353 50.623C194.945 51.103 194.483 51.457 193.967 51.685C193.457 51.907 192.929 52.045 192.383 52.099L192.266 52.549C192.83 52.681 193.223 52.858 193.445 53.08C193.673 53.308 193.787 53.578 193.787 53.89C193.787 54.094 193.733 54.277 193.625 54.439C193.523 54.601 193.373 54.739 193.175 54.853C192.983 54.967 192.752 55.054 192.482 55.114C192.218 55.174 191.924 55.204 191.6 55.204C191.354 55.204 191.123 55.186 190.907 55.15C190.691 55.12 190.481 55.072 190.277 55.006L190.475 54.313C190.511 54.175 190.598 54.106 190.736 54.106C190.82 54.106 190.913 54.127 191.015 54.169C191.117 54.217 191.264 54.241 191.456 54.241C191.654 54.241 191.801 54.202 191.897 54.124C191.999 54.052 192.05 53.962 192.05 53.854C192.05 53.68 191.942 53.554 191.726 53.476C191.51 53.404 191.177 53.335 190.727 53.269L191.123 52.09C190.619 52.018 190.151 51.862 189.719 51.622C189.287 51.376 188.912 51.055 188.594 50.659C188.276 50.257 188.024 49.78 187.838 49.228C187.658 48.676 187.568 48.055 187.568 47.365C187.568 46.687 187.664 46.06 187.856 45.484C188.054 44.902 188.342 44.401 188.72 43.981C189.098 43.555 189.566 43.222 190.124 42.982C190.682 42.742 191.324 42.622 192.05 42.622C192.74 42.622 193.343 42.733 193.859 42.955C194.381 43.177 194.849 43.495 195.263 43.909L194.678 44.719C194.612 44.803 194.546 44.869 194.48 44.917C194.42 44.965 194.33 44.989 194.21 44.989C194.096 44.989 193.985 44.956 193.877 44.89C193.769 44.818 193.64 44.74 193.49 44.656C193.34 44.566 193.16 44.488 192.95 44.422C192.746 44.35 192.491 44.314 192.185 44.314C191.795 44.314 191.453 44.386 191.159 44.53C190.865 44.668 190.619 44.869 190.421 45.133C190.229 45.397 190.085 45.718 189.989 46.096C189.893 46.468 189.845 46.891 189.845 47.365C189.845 47.857 189.896 48.295 189.998 48.679C190.106 49.063 190.259 49.387 190.457 49.651C190.655 49.909 190.895 50.107 191.177 50.245C191.459 50.377 191.777 50.443 192.131 50.443C192.485 50.443 192.77 50.401 192.986 50.317C193.208 50.227 193.394 50.131 193.544 50.029C193.694 49.921 193.823 49.825 193.931 49.741C194.045 49.651 194.171 49.606 194.309 49.606C194.489 49.606 194.624 49.675 194.714 49.813L195.353 50.623ZM201.642 48.058C201 48.088 200.46 48.145 200.022 48.229C199.584 48.307 199.233 48.409 198.969 48.535C198.705 48.661 198.516 48.808 198.402 48.976C198.288 49.144 198.231 49.327 198.231 49.525C198.231 49.915 198.345 50.194 198.573 50.362C198.807 50.53 199.11 50.614 199.482 50.614C199.938 50.614 200.331 50.533 200.661 50.371C200.997 50.203 201.324 49.951 201.642 49.615V48.058ZM196.548 44.053C197.61 43.081 198.888 42.595 200.382 42.595C200.922 42.595 201.405 42.685 201.831 42.865C202.257 43.039 202.617 43.285 202.911 43.603C203.205 43.915 203.427 44.29 203.577 44.728C203.733 45.166 203.811 45.646 203.811 46.168V52H202.803C202.593 52 202.431 51.97 202.317 51.91C202.203 51.844 202.113 51.715 202.047 51.523L201.849 50.857C201.615 51.067 201.387 51.253 201.165 51.415C200.943 51.571 200.712 51.703 200.472 51.811C200.232 51.919 199.974 52 199.698 52.054C199.428 52.114 199.128 52.144 198.798 52.144C198.408 52.144 198.048 52.093 197.718 51.991C197.388 51.883 197.103 51.724 196.863 51.514C196.623 51.304 196.437 51.043 196.305 50.731C196.173 50.419 196.107 50.056 196.107 49.642C196.107 49.408 196.146 49.177 196.224 48.949C196.302 48.715 196.428 48.493 196.602 48.283C196.782 48.073 197.013 47.875 197.295 47.689C197.577 47.503 197.922 47.341 198.33 47.203C198.744 47.065 199.224 46.954 199.77 46.87C200.316 46.78 200.94 46.726 201.642 46.708V46.168C201.642 45.55 201.51 45.094 201.246 44.8C200.982 44.5 200.601 44.35 200.103 44.35C199.743 44.35 199.443 44.392 199.203 44.476C198.969 44.56 198.762 44.656 198.582 44.764C198.402 44.866 198.237 44.959 198.087 45.043C197.943 45.127 197.781 45.169 197.601 45.169C197.445 45.169 197.313 45.13 197.205 45.052C197.097 44.968 197.01 44.872 196.944 44.764L196.548 44.053ZM201.138 39.769C201.318 39.769 201.459 39.721 201.561 39.625C201.663 39.523 201.714 39.343 201.714 39.085H203.064C203.064 39.421 203.016 39.727 202.92 40.003C202.83 40.273 202.704 40.507 202.542 40.705C202.38 40.897 202.185 41.047 201.957 41.155C201.735 41.257 201.489 41.308 201.219 41.308C201.003 41.308 200.802 41.269 200.616 41.191C200.43 41.113 200.256 41.029 200.094 40.939C199.932 40.849 199.779 40.765 199.635 40.687C199.497 40.609 199.368 40.57 199.248 40.57C199.074 40.57 198.936 40.624 198.834 40.732C198.738 40.834 198.69 41.011 198.69 41.263H197.313C197.313 40.927 197.358 40.624 197.448 40.354C197.544 40.078 197.676 39.844 197.844 39.652C198.012 39.454 198.207 39.301 198.429 39.193C198.657 39.085 198.903 39.031 199.167 39.031C199.383 39.031 199.584 39.07 199.77 39.148C199.962 39.226 200.139 39.31 200.301 39.4C200.463 39.49 200.613 39.574 200.751 39.652C200.889 39.73 201.018 39.769 201.138 39.769ZM209.99 42.622C210.674 42.622 211.295 42.733 211.853 42.955C212.417 43.177 212.897 43.492 213.293 43.9C213.695 44.308 214.004 44.806 214.22 45.394C214.436 45.982 214.544 46.639 214.544 47.365C214.544 48.097 214.436 48.757 214.22 49.345C214.004 49.933 213.695 50.434 213.293 50.848C212.897 51.262 212.417 51.58 211.853 51.802C211.295 52.024 210.674 52.135 209.99 52.135C209.3 52.135 208.673 52.024 208.109 51.802C207.545 51.58 207.062 51.262 206.66 50.848C206.264 50.434 205.955 49.933 205.733 49.345C205.517 48.757 205.409 48.097 205.409 47.365C205.409 46.639 205.517 45.982 205.733 45.394C205.955 44.806 206.264 44.308 206.66 43.9C207.062 43.492 207.545 43.177 208.109 42.955C208.673 42.733 209.3 42.622 209.99 42.622ZM209.99 50.425C210.758 50.425 211.325 50.167 211.691 49.651C212.063 49.135 212.249 48.379 212.249 47.383C212.249 46.387 212.063 45.628 211.691 45.106C211.325 44.584 210.758 44.323 209.99 44.323C209.21 44.323 208.631 44.587 208.253 45.115C207.881 45.637 207.695 46.393 207.695 47.383C207.695 48.373 207.881 49.129 208.253 49.651C208.631 50.167 209.21 50.425 209.99 50.425Z" fill="#606060"/>
<defs>
<filter id="filter0_d_108_1174" x="2.30171" y="2" width="329.698" height="96" filterUnits="userSpaceOnUse" color-interpolation-filters="sRGB">
<feFlood flood-opacity="0" result="BackgroundImageFix"/>
<feColorMatrix in="SourceAlpha" type="matrix" values="0 0 0 0 0 0 0 0 0 0 0 0 0 0 0 0 0 0 127 0" result="hardAlpha"/>
<feOffset dy="4"/>
<feGaussianBlur stdDeviation="2"/>
<feColorMatrix type="matrix" values="0 0 0 0 0 0 0 0 0 0 0 0 0 0 0 0 0 0 0.25 0"/>
<feBlend mode="normal" in2="BackgroundImageFix" result="effect1_dropShadow_108_1174"/>
<feBlend mode="normal" in="SourceGraphic" in2="effect1_dropShadow_108_1174" result="shape"/>
</filter>
</defs>
</svg>
