<svg width="334" height="105" viewBox="0 0 334 105" fill="none" xmlns="http://www.w3.org/2000/svg">
<line x1="122" y1="103" x2="212" y2="103" stroke="#4D256C" stroke-width="4"/>
<path d="M129.88 23.28V9.12C129.88 4.64 132.12 2.4 136.6 2.4H147.28L149.96 4.48V7.6H136.84C136.04 7.6 135.64 8 135.64 8.8V23.6C135.64 24.4 136.04 24.8 136.84 24.8H149.96V27.92L147.28 30H136.6C132.12 30 129.88 27.76 129.88 23.28ZM154.761 5.44V0.079999H160.441V5.44H154.761ZM154.841 30V8.88H160.361V30H154.841ZM165.81 23.52V15.36C165.81 11.04 167.97 8.88 172.29 8.88H178.45V0.4H183.97V30H172.29C167.97 30 165.81 27.84 165.81 23.52ZM171.33 23.92C171.33 24.7733 171.757 25.2 172.61 25.2H178.45V13.68H172.61C171.757 13.68 171.33 14.1067 171.33 14.96V23.92ZM195.084 30C190.764 30 188.604 27.88 188.604 23.64C188.604 19.4 190.764 17.28 195.084 17.28H200.604V14.96C200.604 14.1067 200.177 13.68 199.324 13.68H190.844V10.68L193.244 8.88H199.644C203.964 8.88 206.124 11.04 206.124 15.36V30H195.084ZM194.124 23.92C194.124 24.7733 194.55 25.2 195.404 25.2H200.604V21.6H195.404C194.55 21.6 194.124 22.0267 194.124 22.88V23.92ZM211.396 23.52V15.36C211.396 11.04 213.556 8.88 217.876 8.88H224.036V0.4H229.556V30H217.876C213.556 30 211.396 27.84 211.396 23.52ZM216.916 23.92C216.916 24.7733 217.343 25.2 218.196 25.2H224.036V13.68H218.196C217.343 13.68 216.916 14.1067 216.916 14.96V23.92ZM234.99 23.52V15.36C234.99 11.04 237.15 8.88 241.47 8.88H246.67C250.99 8.88 253.15 11.04 253.15 15.36V21.52H240.51V23.92C240.51 24.7733 240.936 25.2 241.79 25.2H252.35V28.2L249.95 30H241.47C237.15 30 234.99 27.84 234.99 23.52ZM240.51 17.2H247.63V14.96C247.63 14.1067 247.203 13.68 246.35 13.68H241.79C240.936 13.68 240.51 14.1067 240.51 14.96V17.2ZM257.871 28.2V25.2H267.071C267.978 25.2 268.431 24.6933 268.431 23.68C268.431 22.64 268.031 22.0533 267.231 21.92L262.911 21.2C259.551 20.64 257.871 18.6933 257.871 15.36C257.871 11.04 260.031 8.88 264.351 8.88H270.551L272.951 10.68V13.68H264.711C263.804 13.68 263.351 14.1867 263.351 15.2C263.351 16.24 263.751 16.8267 264.551 16.96L268.871 17.68C272.231 18.24 273.911 20.1867 273.911 23.52C273.911 27.84 271.751 30 267.431 30H260.271L257.871 28.2Z" fill="#218738"/>
<path d="M129.88 25.28V11.12C129.88 6.64 132.12 4.4 136.6 4.4H147.28L149.96 6.48V9.6H136.84C136.04 9.6 135.64 10 135.64 10.8V25.6C135.64 26.4 136.04 26.8 136.84 26.8H149.96V29.92L147.28 32H136.6C132.12 32 129.88 29.76 129.88 25.28ZM154.761 7.44V2.08H160.441V7.44H154.761ZM154.841 32V10.88H160.361V32H154.841ZM165.81 25.52V17.36C165.81 13.04 167.97 10.88 172.29 10.88H178.45V2.4H183.97V32H172.29C167.97 32 165.81 29.84 165.81 25.52ZM171.33 25.92C171.33 26.7733 171.757 27.2 172.61 27.2H178.45V15.68H172.61C171.757 15.68 171.33 16.1067 171.33 16.96V25.92ZM195.084 32C190.764 32 188.604 29.88 188.604 25.64C188.604 21.4 190.764 19.28 195.084 19.28H200.604V16.96C200.604 16.1067 200.177 15.68 199.324 15.68H190.844V12.68L193.244 10.88H199.644C203.964 10.88 206.124 13.04 206.124 17.36V32H195.084ZM194.124 25.92C194.124 26.7733 194.55 27.2 195.404 27.2H200.604V23.6H195.404C194.55 23.6 194.124 24.0267 194.124 24.88V25.92ZM211.396 25.52V17.36C211.396 13.04 213.556 10.88 217.876 10.88H224.036V2.4H229.556V32H217.876C213.556 32 211.396 29.84 211.396 25.52ZM216.916 25.92C216.916 26.7733 217.343 27.2 218.196 27.2H224.036V15.68H218.196C217.343 15.68 216.916 16.1067 216.916 16.96V25.92ZM234.99 25.52V17.36C234.99 13.04 237.15 10.88 241.47 10.88H246.67C250.99 10.88 253.15 13.04 253.15 17.36V23.52H240.51V25.92C240.51 26.7733 240.936 27.2 241.79 27.2H252.35V30.2L249.95 32H241.47C237.15 32 234.99 29.84 234.99 25.52ZM240.51 19.2H247.63V16.96C247.63 16.1067 247.203 15.68 246.35 15.68H241.79C240.936 15.68 240.51 16.1067 240.51 16.96V19.2ZM257.871 30.2V27.2H267.071C267.978 27.2 268.431 26.6933 268.431 25.68C268.431 24.64 268.031 24.0533 267.231 23.92L262.911 23.2C259.551 22.64 257.871 20.6933 257.871 17.36C257.871 13.04 260.031 10.88 264.351 10.88H270.551L272.951 12.68V15.68H264.711C263.804 15.68 263.351 16.1867 263.351 17.2C263.351 18.24 263.751 18.8267 264.551 18.96L268.871 19.68C272.231 20.24 273.911 22.1867 273.911 25.52C273.911 29.84 271.751 32 267.431 32H260.271L257.871 30.2Z" fill="#4D256C"/>
<path d="M130.512 84.74V82.64H136.952C137.587 82.64 137.904 82.2853 137.904 81.576C137.904 80.848 137.624 80.4373 137.064 80.344L134.04 79.84C131.688 79.448 130.512 78.0853 130.512 75.752C130.512 72.728 132.024 71.216 135.048 71.216H139.388L141.068 72.476V74.576H135.3C134.665 74.576 134.348 74.9307 134.348 75.64C134.348 76.368 134.628 76.7787 135.188 76.872L138.212 77.376C140.564 77.768 141.74 79.1307 141.74 81.464C141.74 84.488 140.228 86 137.204 86H132.192L130.512 84.74ZM145.123 81.464V71.216H148.987V81.744C148.987 82.3413 149.285 82.64 149.883 82.64H153.971V71.216H157.835V86H149.659C146.635 86 145.123 84.488 145.123 81.464ZM161.356 84.74V82.64H167.796C168.43 82.64 168.748 82.2853 168.748 81.576C168.748 80.848 168.468 80.4373 167.908 80.344L164.884 79.84C162.532 79.448 161.356 78.0853 161.356 75.752C161.356 72.728 162.868 71.216 165.892 71.216H170.232L171.912 72.476V74.576H166.144C165.509 74.576 165.192 74.9307 165.192 75.64C165.192 76.368 165.472 76.7787 166.032 76.872L169.056 77.376C171.408 77.768 172.584 79.1307 172.584 81.464C172.584 84.488 171.072 86 168.048 86H163.036L161.356 84.74ZM175.967 81.464V66.68H179.831V71.216H184.647V74.576H179.831V81.744C179.831 82.3413 180.129 82.64 180.727 82.64H184.927V84.74L183.247 86H180.503C177.479 86 175.967 84.488 175.967 81.464ZM187.722 81.464V75.752C187.722 72.728 189.234 71.216 192.258 71.216H195.898C198.922 71.216 200.434 72.728 200.434 75.752V80.064H191.586V81.744C191.586 82.3413 191.884 82.64 192.482 82.64H199.874V84.74L198.194 86H192.258C189.234 86 187.722 84.488 187.722 81.464ZM191.586 77.04H196.57V75.472C196.57 74.8747 196.271 74.576 195.674 74.576H192.482C191.884 74.576 191.586 74.8747 191.586 75.472V77.04ZM204.243 86V71.216H212.419C215.443 71.216 216.955 72.728 216.955 75.752V86H213.091V75.472C213.091 74.8747 212.792 74.576 212.195 74.576H208.107V86H204.243ZM220.756 81.464V66.68H224.62V71.216H229.436V74.576H224.62V81.744C224.62 82.3413 224.918 82.64 225.516 82.64H229.716V84.74L228.036 86H225.292C222.268 86 220.756 84.488 220.756 81.464ZM236.487 86C233.463 86 231.951 84.516 231.951 81.548C231.951 78.58 233.463 77.096 236.487 77.096H240.351V75.472C240.351 74.8747 240.052 74.576 239.455 74.576H233.519V72.476L235.199 71.216H239.679C242.703 71.216 244.215 72.728 244.215 75.752V86H236.487ZM235.815 81.744C235.815 82.3413 236.113 82.64 236.711 82.64H240.351V80.12H236.711C236.113 80.12 235.815 80.4187 235.815 81.016V81.744ZM236.067 68.108L239.931 63.712L242.059 65.728L237.915 69.872L236.067 68.108ZM246.617 71.804L247.009 71.216H250.341L253.757 82.64H254.037L257.453 71.216H260.785L261.177 71.804L256.725 86H251.069L246.617 71.804ZM263.464 81.464V75.752C263.464 72.728 264.976 71.216 268 71.216H271.64C274.664 71.216 276.176 72.728 276.176 75.752V80.064H267.328V81.744C267.328 82.3413 267.627 82.64 268.224 82.64H275.616V84.74L273.936 86H268C264.976 86 263.464 84.488 263.464 81.464ZM267.328 77.04H272.312V75.472C272.312 74.8747 272.013 74.576 271.416 74.576H268.224C267.627 74.576 267.328 74.8747 267.328 75.472V77.04ZM279.929 68.808V65.056H283.905V68.808H279.929ZM279.985 86V71.216H283.849V86H279.985ZM287.383 84.74V82.64H293.823C294.458 82.64 294.775 82.2853 294.775 81.576C294.775 80.848 294.495 80.4373 293.935 80.344L290.911 79.84C288.559 79.448 287.383 78.0853 287.383 75.752C287.383 72.728 288.895 71.216 291.919 71.216H296.259L297.939 72.476V74.576H292.171C291.536 74.576 291.219 74.9307 291.219 75.64C291.219 76.368 291.499 76.7787 292.059 76.872L295.083 77.376C297.435 77.768 298.611 79.1307 298.611 81.464C298.611 84.488 297.099 86 294.075 86H289.063L287.383 84.74Z" fill="#218738"/>
<rect x="38.8027" y="6" width="25.2001" height="78.3674" fill="#218738"/>
<path d="M89.2488 22.8709L65.8389 49.864V86H91.5439V22.8709H89.2488Z" fill="#F9F9F9" stroke="#4D256C"/>
<path d="M86.4934 31.1429L80.5262 37.6735H87.8705V31.143L86.4934 31.1429Z" fill="#4D256C"/>
<path d="M76.8541 53.7824H69.5098V51.6054L75.936 43.7687H76.8541V53.7824Z" fill="#4D256C"/>
<path d="M86.4934 31.1429L80.5262 37.6735H87.8705V31.143L86.4934 31.1429Z" stroke="#4D256C"/>
<path d="M76.8541 53.7824H69.5098V51.6054L75.936 43.7687H76.8541V53.7824Z" stroke="#4D256C"/>
<rect x="37.874" y="8.13266" width="23.787" height="77.3672" fill="#F9F9F9" stroke="#4D256C"/>
<rect x="41.5518" y="71.6971" width="5.42625" height="5.96597" fill="#4D256C" stroke="#4D256C"/>
<rect x="52.5645" y="71.6971" width="5.42625" height="5.96597" fill="#4D256C" stroke="#4D256C"/>
<rect x="41.5518" y="58.636" width="5.42625" height="5.96597" fill="#4D256C" stroke="#4D256C"/>
<rect x="52.5645" y="58.636" width="5.42625" height="5.96597" fill="#4D256C" stroke="#4D256C"/>
<rect x="41.5518" y="44.7039" width="5.42625" height="5.96597" fill="#4D256C" stroke="#4D256C"/>
<rect x="52.5645" y="44.7039" width="5.42625" height="5.96597" fill="#4D256C" stroke="#4D256C"/>
<rect x="41.5518" y="31.6429" width="5.42625" height="5.96597" fill="#4D256C" stroke="#4D256C"/>
<rect x="52.5645" y="31.6429" width="5.42625" height="5.96597" fill="#4D256C" stroke="#4D256C"/>
<rect x="41.5518" y="18.5819" width="5.42625" height="5.96597" fill="#4D256C" stroke="#4D256C"/>
<rect x="52.5645" y="18.5819" width="5.42625" height="5.96597" fill="#4D256C" stroke="#4D256C"/>
<rect x="81.0225" y="41.2209" width="6.34429" height="4.22448" fill="#4D256C" stroke="#4D256C"/>
<rect x="81.0225" y="49.0579" width="6.34429" height="4.22448" fill="#4D256C" stroke="#4D256C"/>
<rect x="81.0225" y="56.8942" width="6.34429" height="4.22448" fill="#4D256C" stroke="#4D256C"/>
<rect x="81.0225" y="64.7311" width="6.34429" height="4.22448" fill="#4D256C" stroke="#4D256C"/>
<rect x="70.0098" y="56.8942" width="6.34429" height="4.22448" fill="#4D256C" stroke="#4D256C"/>
<rect x="70.0098" y="64.7311" width="6.34429" height="4.22448" fill="#4D256C" stroke="#4D256C"/>
<rect x="81.0225" y="72.5681" width="6.34429" height="4.22448" fill="#4D256C" stroke="#4D256C"/>
<rect x="70.0098" y="72.5681" width="6.34429" height="4.22448" fill="#4D256C" stroke="#4D256C"/>
<rect x="95.7129" y="54.2823" width="23.787" height="5.09523" fill="#F9F9F9" stroke="#4D256C"/>
<rect x="95.7129" y="62.9897" width="23.787" height="22.5102" fill="#F9F9F9" stroke="#4D256C"/>
<rect x="98.4678" y="65.6019" width="6.34429" height="4.22448" fill="#4D256C" stroke="#4D256C"/>
<rect x="110.404" y="65.6019" width="6.34429" height="4.22448" fill="#4D256C" stroke="#4D256C"/>
<rect x="98.4678" y="73.4385" width="6.34429" height="4.22448" fill="#4D256C" stroke="#4D256C"/>
<rect x="110.404" y="73.4385" width="6.34429" height="4.22448" fill="#4D256C" stroke="#4D256C"/>
<path d="M33.246 66.8433H8V85.5644H15.8033V74.68H25.4427V85.5644H33.246V66.8433Z" fill="#F9F9F9" stroke="#4D256C"/>
<line y1="-1" x2="16.329" y2="-1" transform="matrix(0.600161 0.799879 -0.69993 0.714212 19.5986 49.0816)" stroke="#218738" stroke-width="2"/>
<path d="M20.8498 46.9252L8.69727 62.1632H32.4973L20.8498 46.9252Z" stroke="#4D256C"/>
<line x1="97.5986" y1="57.2449" x2="118.599" y2="57.2449" stroke="#218738" stroke-width="2"/>
<path d="M130.792 53.464V47.752C130.792 44.728 132.304 43.216 135.328 43.216H138.968C141.992 43.216 143.504 44.728 143.504 47.752V52.064H134.656V53.744C134.656 54.3413 134.955 54.64 135.552 54.64H142.944V56.74L141.264 58H135.328C132.304 58 130.792 56.488 130.792 53.464ZM134.656 49.04H139.64V47.472C139.64 46.8747 139.341 46.576 138.744 46.576H135.552C134.955 46.576 134.656 46.8747 134.656 47.472V49.04ZM153.815 53.464V47.752C153.815 44.728 155.327 43.216 158.351 43.216H163.559L165.239 44.476V46.576H158.575C157.978 46.576 157.679 46.8747 157.679 47.472V53.744C157.679 54.3413 157.978 54.64 158.575 54.64H165.239V56.74L163.559 58H158.351C155.327 58 153.815 56.488 153.815 53.464ZM168.308 53.464V47.752C168.308 44.728 169.82 43.216 172.844 43.216H176.764C179.788 43.216 181.3 44.728 181.3 47.752V53.464C181.3 56.488 179.788 58 176.764 58H172.844C169.82 58 168.308 56.488 168.308 53.464ZM172.172 53.744C172.172 54.3413 172.47 54.64 173.068 54.64H176.54C177.137 54.64 177.436 54.3413 177.436 53.744V47.472C177.436 46.8747 177.137 46.576 176.54 46.576H173.068C172.47 46.576 172.172 46.8747 172.172 47.472V53.744ZM185.102 58V43.216H201.958C204.982 43.216 206.494 44.728 206.494 47.752V58H202.63V47.472C202.63 46.8747 202.331 46.576 201.734 46.576H197.73V58H193.866V46.576H188.966V58H185.102ZM210.31 53.464V43.216H214.174V53.744C214.174 54.3413 214.473 54.64 215.07 54.64H219.158V43.216H223.022V58H214.846C211.822 58 210.31 56.488 210.31 53.464ZM227.047 58V43.216H235.223C238.247 43.216 239.759 44.728 239.759 47.752V58H235.895V47.472C235.895 46.8747 235.597 46.576 234.999 46.576H230.911V58H227.047ZM243.616 40.808V37.056H247.592V40.808H243.616ZM243.672 58V43.216H247.536V58H243.672ZM251.351 53.464V47.752C251.351 44.728 252.863 43.216 255.887 43.216H260.199V37.28H264.063V58H255.887C252.863 58 251.351 56.488 251.351 53.464ZM255.215 53.744C255.215 54.3413 255.513 54.64 256.111 54.64H260.199V46.576H256.111C255.513 46.576 255.215 46.8747 255.215 47.472V53.744ZM271.842 58C268.818 58 267.306 56.516 267.306 53.548C267.306 50.58 268.818 49.096 271.842 49.096H275.706V47.472C275.706 46.8747 275.408 46.576 274.81 46.576H268.874V44.476L270.554 43.216H275.034C278.058 43.216 279.57 44.728 279.57 47.752V58H271.842ZM271.17 53.744C271.17 54.3413 271.469 54.64 272.066 54.64H275.706V52.12H272.066C271.469 52.12 271.17 52.4187 271.17 53.016V53.744ZM283.261 53.464V47.752C283.261 44.728 284.773 43.216 287.797 43.216H292.109V37.28H295.973V58H287.797C284.773 58 283.261 56.488 283.261 53.464ZM287.125 53.744C287.125 54.3413 287.423 54.64 288.021 54.64H292.109V46.576H288.021C287.423 46.576 287.125 46.8747 287.125 47.472V53.744ZM299.776 53.464V47.752C299.776 44.728 301.288 43.216 304.312 43.216H307.952C310.976 43.216 312.488 44.728 312.488 47.752V52.064H303.64V53.744C303.64 54.3413 303.939 54.64 304.536 54.64H311.928V56.74L310.248 58H304.312C301.288 58 299.776 56.488 299.776 53.464ZM303.64 49.04H308.624V47.472C308.624 46.8747 308.326 46.576 307.728 46.576H304.536C303.939 46.576 303.64 46.8747 303.64 47.472V49.04ZM315.793 56.74V54.64H322.233C322.868 54.64 323.185 54.2853 323.185 53.576C323.185 52.848 322.905 52.4373 322.345 52.344L319.321 51.84C316.969 51.448 315.793 50.0853 315.793 47.752C315.793 44.728 317.305 43.216 320.329 43.216H324.669L326.349 44.476V46.576H320.581C319.947 46.576 319.629 46.9307 319.629 47.64C319.629 48.368 319.909 48.7787 320.469 48.872L323.493 49.376C325.845 49.768 327.021 51.1307 327.021 53.464C327.021 56.488 325.509 58 322.485 58H317.473L315.793 56.74Z" fill="#218738"/>
</svg>
