<svg width="248" height="77" viewBox="0 0 248 77" fill="none" xmlns="http://www.w3.org/2000/svg">
<line x1="79" y1="75" x2="169" y2="75" stroke="#4D256C" stroke-width="4"/>
<path d="M83.304 36.624V25.296C83.304 21.712 85.096 19.92 88.68 19.92H97.224L99.368 21.584V24.08H88.872C88.232 24.08 87.912 24.4 87.912 25.04V36.88C87.912 37.52 88.232 37.84 88.872 37.84H99.368V40.336L97.224 42H88.68C85.096 42 83.304 40.208 83.304 36.624ZM103.017 36.816V30.288C103.017 26.832 104.745 25.104 108.201 25.104H112.681C116.137 25.104 117.865 26.832 117.865 30.288V36.816C117.865 40.272 116.137 42 112.681 42H108.201C104.745 42 103.017 40.272 103.017 36.816ZM107.433 37.136C107.433 37.8187 107.774 38.16 108.457 38.16H112.425C113.107 38.16 113.449 37.8187 113.449 37.136V29.968C113.449 29.2853 113.107 28.944 112.425 28.944H108.457C107.774 28.944 107.433 29.2853 107.433 29.968V37.136ZM122.21 42V25.104H141.474C144.93 25.104 146.658 26.832 146.658 30.288V42H142.242V29.968C142.242 29.2853 141.901 28.944 141.218 28.944H136.642V42H132.226V28.944H126.626V42H122.21ZM151.084 22.352V18.064H155.628V22.352H151.084ZM151.148 42V25.104H155.564V42H151.148ZM159.603 40.56V38.16H166.963C167.688 38.16 168.051 37.7547 168.051 36.944C168.051 36.112 167.731 35.6427 167.091 35.536L163.635 34.96C160.947 34.512 159.603 32.9547 159.603 30.288C159.603 26.832 161.331 25.104 164.787 25.104H169.747L171.667 26.544V28.944H165.075C164.35 28.944 163.987 29.3493 163.987 30.16C163.987 30.992 164.307 31.4613 164.947 31.568L168.403 32.144C171.091 32.592 172.435 34.1493 172.435 36.816C172.435 40.272 170.707 42 167.251 42H161.523L159.603 40.56ZM175.853 40.56V38.16H183.213C183.938 38.16 184.301 37.7547 184.301 36.944C184.301 36.112 183.981 35.6427 183.341 35.536L179.885 34.96C177.197 34.512 175.853 32.9547 175.853 30.288C175.853 26.832 177.581 25.104 181.037 25.104H185.997L187.917 26.544V28.944H181.325C180.6 28.944 180.237 29.3493 180.237 30.16C180.237 30.992 180.557 31.4613 181.197 31.568L184.653 32.144C187.341 32.592 188.685 34.1493 188.685 36.816C188.685 40.272 186.957 42 183.501 42H177.773L175.853 40.56ZM192.423 36.816V30.288C192.423 26.832 194.151 25.104 197.607 25.104H202.087C205.543 25.104 207.271 26.832 207.271 30.288V36.816C207.271 40.272 205.543 42 202.087 42H197.607C194.151 42 192.423 40.272 192.423 36.816ZM196.839 37.136C196.839 37.8187 197.18 38.16 197.863 38.16H201.831C202.514 38.16 202.855 37.8187 202.855 37.136V29.968C202.855 29.2853 202.514 28.944 201.831 28.944H197.863C197.18 28.944 196.839 29.2853 196.839 29.968V37.136ZM194.183 21.136L196.391 18.928C196.796 18.5227 197.372 18.32 198.119 18.32C198.866 18.32 199.442 18.5227 199.847 18.928L201.383 20.464C201.447 20.528 201.511 20.56 201.575 20.56C201.639 20.56 201.703 20.528 201.767 20.464L203.623 18.608L205.511 20.496L203.303 22.704C202.898 23.1093 202.322 23.312 201.575 23.312C200.828 23.312 200.252 23.1093 199.847 22.704L198.311 21.168C198.247 21.104 198.183 21.072 198.119 21.072C198.055 21.072 197.991 21.104 197.927 21.168L196.071 23.024L194.183 21.136ZM211.361 36.816V30.288C211.361 26.832 213.089 25.104 216.545 25.104H220.705C224.161 25.104 225.889 26.832 225.889 30.288V35.216H215.777V37.136C215.777 37.8187 216.118 38.16 216.801 38.16H225.249V40.56L223.329 42H216.545C213.089 42 211.361 40.272 211.361 36.816ZM215.777 31.76H221.473V29.968C221.473 29.2853 221.131 28.944 220.449 28.944H216.801C216.118 28.944 215.777 29.2853 215.777 29.968V31.76ZM229.666 40.56V38.16H237.026C237.751 38.16 238.114 37.7547 238.114 36.944C238.114 36.112 237.794 35.6427 237.154 35.536L233.698 34.96C231.01 34.512 229.666 32.9547 229.666 30.288C229.666 26.832 231.394 25.104 234.85 25.104H239.81L241.73 26.544V28.944H235.138C234.412 28.944 234.05 29.3493 234.05 30.16C234.05 30.992 234.37 31.4613 235.01 31.568L238.466 32.144C241.154 32.592 242.498 34.1493 242.498 36.816C242.498 40.272 240.77 42 237.314 42H231.586L229.666 40.56Z" fill="#218738"/>
<path d="M83.304 38.624V27.296C83.304 23.712 85.096 21.92 88.68 21.92H97.224L99.368 23.584V26.08H88.872C88.232 26.08 87.912 26.4 87.912 27.04V38.88C87.912 39.52 88.232 39.84 88.872 39.84H99.368V42.336L97.224 44H88.68C85.096 44 83.304 42.208 83.304 38.624ZM103.017 38.816V32.288C103.017 28.832 104.745 27.104 108.201 27.104H112.681C116.137 27.104 117.865 28.832 117.865 32.288V38.816C117.865 42.272 116.137 44 112.681 44H108.201C104.745 44 103.017 42.272 103.017 38.816ZM107.433 39.136C107.433 39.8187 107.774 40.16 108.457 40.16H112.425C113.107 40.16 113.449 39.8187 113.449 39.136V31.968C113.449 31.2853 113.107 30.944 112.425 30.944H108.457C107.774 30.944 107.433 31.2853 107.433 31.968V39.136ZM122.21 44V27.104H141.474C144.93 27.104 146.658 28.832 146.658 32.288V44H142.242V31.968C142.242 31.2853 141.901 30.944 141.218 30.944H136.642V44H132.226V30.944H126.626V44H122.21ZM151.084 24.352V20.064H155.628V24.352H151.084ZM151.148 44V27.104H155.564V44H151.148ZM159.603 42.56V40.16H166.963C167.688 40.16 168.051 39.7547 168.051 38.944C168.051 38.112 167.731 37.6427 167.091 37.536L163.635 36.96C160.947 36.512 159.603 34.9547 159.603 32.288C159.603 28.832 161.331 27.104 164.787 27.104H169.747L171.667 28.544V30.944H165.075C164.35 30.944 163.987 31.3493 163.987 32.16C163.987 32.992 164.307 33.4613 164.947 33.568L168.403 34.144C171.091 34.592 172.435 36.1493 172.435 38.816C172.435 42.272 170.707 44 167.251 44H161.523L159.603 42.56ZM175.853 42.56V40.16H183.213C183.938 40.16 184.301 39.7547 184.301 38.944C184.301 38.112 183.981 37.6427 183.341 37.536L179.885 36.96C177.197 36.512 175.853 34.9547 175.853 32.288C175.853 28.832 177.581 27.104 181.037 27.104H185.997L187.917 28.544V30.944H181.325C180.6 30.944 180.237 31.3493 180.237 32.16C180.237 32.992 180.557 33.4613 181.197 33.568L184.653 34.144C187.341 34.592 188.685 36.1493 188.685 38.816C188.685 42.272 186.957 44 183.501 44H177.773L175.853 42.56ZM192.423 38.816V32.288C192.423 28.832 194.151 27.104 197.607 27.104H202.087C205.543 27.104 207.271 28.832 207.271 32.288V38.816C207.271 42.272 205.543 44 202.087 44H197.607C194.151 44 192.423 42.272 192.423 38.816ZM196.839 39.136C196.839 39.8187 197.18 40.16 197.863 40.16H201.831C202.514 40.16 202.855 39.8187 202.855 39.136V31.968C202.855 31.2853 202.514 30.944 201.831 30.944H197.863C197.18 30.944 196.839 31.2853 196.839 31.968V39.136ZM194.183 23.136L196.391 20.928C196.796 20.5227 197.372 20.32 198.119 20.32C198.866 20.32 199.442 20.5227 199.847 20.928L201.383 22.464C201.447 22.528 201.511 22.56 201.575 22.56C201.639 22.56 201.703 22.528 201.767 22.464L203.623 20.608L205.511 22.496L203.303 24.704C202.898 25.1093 202.322 25.312 201.575 25.312C200.828 25.312 200.252 25.1093 199.847 24.704L198.311 23.168C198.247 23.104 198.183 23.072 198.119 23.072C198.055 23.072 197.991 23.104 197.927 23.168L196.071 25.024L194.183 23.136ZM211.361 38.816V32.288C211.361 28.832 213.089 27.104 216.545 27.104H220.705C224.161 27.104 225.889 28.832 225.889 32.288V37.216H215.777V39.136C215.777 39.8187 216.118 40.16 216.801 40.16H225.249V42.56L223.329 44H216.545C213.089 44 211.361 42.272 211.361 38.816ZM215.777 33.76H221.473V31.968C221.473 31.2853 221.131 30.944 220.449 30.944H216.801C216.118 30.944 215.777 31.2853 215.777 31.968V33.76ZM229.666 42.56V40.16H237.026C237.751 40.16 238.114 39.7547 238.114 38.944C238.114 38.112 237.794 37.6427 237.154 37.536L233.698 36.96C231.01 36.512 229.666 34.9547 229.666 32.288C229.666 28.832 231.394 27.104 234.85 27.104H239.81L241.73 28.544V30.944H235.138C234.412 30.944 234.05 31.3493 234.05 32.16C234.05 32.992 234.37 33.4613 235.01 33.568L238.466 34.144C241.154 34.592 242.498 36.1493 242.498 38.816C242.498 42.272 240.77 44 237.314 44H231.586L229.666 42.56Z" fill="#4D256C"/>
<path d="M63.0625 50.1517C63.5804 50.1517 64 49.732 64 49.2142V47.7775C64 45.1857 62.3463 42.8995 59.8843 42.0882L54.0246 40.1603V38.1315C56.065 36.9074 57.4339 34.674 57.4339 32.1264V28.0858C57.4339 24.2268 54.2944 21.0872 50.4354 21.0872C48.1624 21.0872 46.1398 22.1773 44.8605 23.8611C44.1524 22.5323 42.9515 21.4959 41.4481 21.0021L35.5891 19.0731V17.0444C37.6295 15.8202 38.9984 13.5869 38.9984 11.0393V6.9985C38.9985 3.1395 35.859 0 32 0C28.141 0 25.0015 3.1395 25.0015 6.9985V11.0391C25.0015 13.5868 26.3704 15.8201 28.4107 17.0443V19.073L22.5524 21.0019C21.0486 21.4959 19.8476 22.5323 19.1395 23.8611C17.8603 22.1771 15.8376 21.0872 13.5646 21.0872C9.70562 21.0872 6.56612 24.2268 6.56612 28.0858V32.1264C6.56612 34.674 7.935 36.9074 9.97538 38.1315V40.1603L4.11525 42.0884C1.65375 42.8995 0 45.1857 0 47.7775V49.2142C0 49.732 0.419625 50.1517 0.9375 50.1517C1.45537 50.1517 1.875 49.732 1.875 49.2142V47.7775C1.875 45.997 3.01112 44.4264 4.70162 43.8693L10.1905 42.0631C10.6921 43.4412 12.0151 44.428 13.5645 44.428C15.1137 44.428 16.4368 43.4411 16.9384 42.0631L22.4265 43.869C23.6295 44.2655 24.5616 45.1787 24.9928 46.3361L22.5518 47.1395C20.0896 47.9497 18.4354 50.2357 18.4354 52.8276V53.9173H7.17837V51.5716C7.17837 51.0539 6.75875 50.6341 6.24087 50.6341C5.723 50.6341 5.30337 51.0539 5.30337 51.5716V53.9173H1.875V53.5935C1.875 53.0757 1.45537 52.656 0.9375 52.656C0.419625 52.656 0 53.0757 0 53.5935V54.8548C0 55.3725 0.419625 55.7923 0.9375 55.7923H18.4354V63.0622C18.4354 63.58 18.855 63.9997 19.3729 63.9997H44.627C45.1449 63.9997 45.5645 63.58 45.5645 63.0622V61.81C45.5645 61.2923 45.1449 60.8725 44.627 60.8725C44.1091 60.8725 43.6895 61.2923 43.6895 61.81V62.125H40.2612V56.6227C40.2612 56.105 39.8416 55.6852 39.3237 55.6852C38.8059 55.6852 38.3862 56.105 38.3862 56.6227V62.125H25.6138V56.6227C25.6138 56.105 25.1941 55.6852 24.6763 55.6852C24.1584 55.6852 23.7388 56.105 23.7388 56.6227V62.125H20.3104V52.8279C20.3104 51.0475 21.4466 49.4772 23.1379 48.9207L28.6261 47.1145C29.1279 48.4924 30.4508 49.4791 32 49.4791C33.5493 49.4791 34.8721 48.4925 35.3739 47.1145L40.8621 48.9207C42.5534 49.4774 43.6896 51.0475 43.6896 52.8279V57.4331C43.6896 57.9509 44.1092 58.3706 44.6271 58.3706C45.145 58.3706 45.5646 57.9509 45.5646 57.4331V55.7925H63.0625C63.5804 55.7925 64 55.3727 64 54.855V53.5938C64 53.076 63.5804 52.6562 63.0625 52.6562C62.5446 52.6562 62.125 53.076 62.125 53.5938V53.9175H58.6966V51.5719C58.6966 51.0541 58.277 50.6344 57.7591 50.6344C57.2412 50.6344 56.8216 51.0541 56.8216 51.5719V53.9175H45.5645V52.8279C45.5645 50.2359 43.9102 47.95 41.4481 47.1398L39.0071 46.3364C39.4383 45.1791 40.3703 44.2659 41.5729 43.8694L47.0615 42.0634C47.5631 43.4414 48.8861 44.4282 50.4354 44.4282C51.9847 44.4282 53.3078 43.4414 53.8094 42.0634L59.2977 43.8694C60.9889 44.4264 62.125 45.997 62.125 47.7775V49.2142C62.125 49.732 62.5446 50.1517 63.0625 50.1517ZM50.4354 22.9621C53.2605 22.9621 55.5589 25.2605 55.5589 28.0856V32.1263C55.5589 34.9514 53.2604 37.2497 50.4354 37.2497C47.6104 37.2497 45.312 34.9514 45.312 32.1263V28.0856C45.312 25.2605 47.6104 22.9621 50.4354 22.9621ZM26.8765 11.0391V6.9985C26.8765 4.17338 29.1749 1.875 32 1.875C34.8251 1.875 37.1235 4.17338 37.1235 6.9985V11.0391C37.1235 13.8643 34.825 16.1626 32 16.1626C29.175 16.1626 26.8765 13.8643 26.8765 11.0391ZM32 18.0376C32.5913 18.0376 33.1654 17.9632 33.7142 17.8245V19.7266C33.714 19.7355 33.7141 19.7442 33.7142 19.753C33.7135 20.6976 32.9449 21.4659 32.0001 21.4659C31.0554 21.4659 30.2866 20.6976 30.286 19.753C30.286 19.7441 30.2861 19.7354 30.286 19.7266V17.8245C30.8346 17.9631 31.4088 18.0376 32 18.0376ZM23.1381 22.783L28.626 20.9761C29.1276 22.3541 30.4506 23.3409 31.9999 23.3409C33.5491 23.3409 34.8721 22.3541 35.3737 20.9761L40.8623 22.7831C42.4294 23.2979 43.5161 24.6702 43.668 26.3018C43.5176 26.8715 43.4367 27.4692 43.4367 28.0856V32.1263C43.4367 32.3638 43.4489 32.5985 43.4721 32.83H38.9905C38.8295 29.1128 35.756 26.1379 31.9998 26.1379C28.2435 26.1379 25.17 29.1128 25.009 32.83H20.5274C20.5506 32.5985 20.5627 32.3638 20.5627 32.1263V28.0856C20.5627 27.4692 20.4819 26.8716 20.3315 26.3018C20.4836 24.6704 21.5705 23.298 23.1381 22.783ZM32 42.3005C29.1749 42.3005 26.8765 40.0021 26.8765 37.177V33.1364C26.8765 30.3113 29.175 28.0129 32 28.0129C34.825 28.0129 37.1235 30.3113 37.1235 33.1364V37.177C37.1235 40.0021 34.8251 42.3005 32 42.3005ZM8.441 32.1263V28.0856C8.441 25.2605 10.7395 22.9621 13.5645 22.9621C16.3895 22.9621 18.6879 25.2605 18.6879 28.0856V32.1263C18.6879 34.9514 16.3895 37.2497 13.5645 37.2497C10.7395 37.2497 8.441 34.9514 8.441 32.1263ZM15.2786 40.8389C15.2786 41.7841 14.5097 42.553 13.5645 42.553C12.6193 42.553 11.8503 41.784 11.8503 40.8389V38.9116C12.399 39.0504 12.9731 39.1247 13.5645 39.1247C14.1558 39.1247 14.7299 39.0504 15.2786 38.9116V40.8389ZM23.013 42.0882L17.1537 40.1603V38.1314C18.4649 37.3447 19.4972 36.1409 20.0686 34.705H25.0015V37.177C25.0015 39.7246 26.3704 41.958 28.4107 43.1821V45.2113L26.7734 45.7501C26.1575 44.0322 24.7886 42.6735 23.013 42.0882ZM32 47.604C31.0548 47.604 30.2857 46.835 30.2857 45.8898V45.8784C30.2857 45.8765 30.2857 45.8746 30.2857 45.8729V43.9625C30.8345 44.1012 31.4086 44.1756 32 44.1756C32.5914 44.1756 33.1654 44.1012 33.7142 43.9625V45.8729V45.8784V45.8898C33.7142 46.835 32.9453 47.604 32 47.604ZM40.9866 42.0884C39.2114 42.6735 37.8425 44.0323 37.2267 45.7503L35.5892 45.2114V43.1823C37.6296 41.9581 38.9985 39.7248 38.9985 37.1771V34.705H43.9314C44.5028 36.141 45.5351 37.3449 46.8462 38.1314V40.1603L40.9866 42.0884ZM50.4354 42.5531C49.4901 42.5531 48.7212 41.7841 48.7212 40.839V38.9118C49.27 39.0505 49.8441 39.1249 50.4354 39.1249C51.0266 39.1249 51.6007 39.0505 52.1496 38.9118V40.839C52.1496 41.7841 51.3806 42.5531 50.4354 42.5531Z" fill="#4D256C"/>
</svg>
