<svg width="330" height="94" viewBox="0 0 330 94" fill="none" xmlns="http://www.w3.org/2000/svg">
<line x1="109" y1="92" x2="199" y2="92" stroke="#4D256C" stroke-width="4"/>
<path d="M130.048 69.816V63.288C130.048 59.832 131.776 58.104 135.232 58.104H140.16V51.32H144.576V75H135.232C131.776 75 130.048 73.272 130.048 69.816ZM134.464 70.136C134.464 70.8187 134.805 71.16 135.488 71.16H140.16V61.944H135.488C134.805 61.944 134.464 62.2853 134.464 62.968V70.136ZM148.923 69.816V63.288C148.923 59.832 150.651 58.104 154.107 58.104H158.267C161.723 58.104 163.451 59.832 163.451 63.288V68.216H153.339V70.136C153.339 70.8187 153.68 71.16 154.363 71.16H162.811V73.56L160.891 75H154.107C150.651 75 148.923 73.272 148.923 69.816ZM153.339 64.76H159.035V62.968C159.035 62.2853 158.694 61.944 158.011 61.944H154.363C153.68 61.944 153.339 62.2853 153.339 62.968V64.76ZM175.236 69.816V63.288C175.236 59.832 176.964 58.104 180.42 58.104H189.764V81.4H185.348V75H180.42C176.964 75 175.236 73.272 175.236 69.816ZM179.652 70.136C179.652 70.8187 179.993 71.16 180.676 71.16H185.348V61.944H180.676C179.993 61.944 179.652 62.2853 179.652 62.968V70.136ZM194.239 69.816V58.104H198.655V70.136C198.655 70.8187 198.996 71.16 199.679 71.16H204.351V58.104H208.767V75H199.423C195.967 75 194.239 73.272 194.239 69.816ZM217.655 75C214.199 75 212.471 73.304 212.471 69.912C212.471 66.52 214.199 64.824 217.655 64.824H222.071V62.968C222.071 62.2853 221.729 61.944 221.047 61.944H214.263V59.544L216.183 58.104H221.303C224.759 58.104 226.487 59.832 226.487 63.288V75H217.655ZM216.887 70.136C216.887 70.8187 217.228 71.16 217.911 71.16H222.071V68.28H217.911C217.228 68.28 216.887 68.6213 216.887 69.304V70.136ZM230.832 68.856V51.32H235.248V69.304C235.248 70.6267 235.931 71.352 237.296 71.48V75.32C232.987 75.32 230.832 73.1653 230.832 68.856ZM240.803 55.352V51.064H245.347V55.352H240.803ZM240.867 75V58.104H245.283V75H240.867ZM249.642 69.816V63.288C249.642 59.832 251.37 58.104 254.826 58.104H259.754V51.32H264.17V75H254.826C251.37 75 249.642 73.272 249.642 69.816ZM254.058 70.136C254.058 70.8187 254.399 71.16 255.082 71.16H259.754V61.944H255.082C254.399 61.944 254.058 62.2853 254.058 62.968V70.136ZM273.061 75C269.605 75 267.877 73.304 267.877 69.912C267.877 66.52 269.605 64.824 273.061 64.824H277.477V62.968C277.477 62.2853 277.135 61.944 276.453 61.944H269.669V59.544L271.589 58.104H276.709C280.165 58.104 281.893 59.832 281.893 63.288V75H273.061ZM272.293 70.136C272.293 70.8187 272.634 71.16 273.317 71.16H277.477V68.28H273.317C272.634 68.28 272.293 68.6213 272.293 69.304V70.136ZM286.111 69.816V63.288C286.111 59.832 287.839 58.104 291.295 58.104H296.223V51.32H300.639V75H291.295C287.839 75 286.111 73.272 286.111 69.816ZM290.527 70.136C290.527 70.8187 290.868 71.16 291.551 71.16H296.223V61.944H291.551C290.868 61.944 290.527 62.2853 290.527 62.968V70.136ZM304.986 69.816V63.288C304.986 59.832 306.714 58.104 310.17 58.104H314.33C317.786 58.104 319.514 59.832 319.514 63.288V68.216H309.402V70.136C309.402 70.8187 309.743 71.16 310.426 71.16H318.874V73.56L316.954 75H310.17C306.714 75 304.986 73.272 304.986 69.816ZM309.402 64.76H315.098V62.968C315.098 62.2853 314.756 61.944 314.074 61.944H310.426C309.743 61.944 309.402 62.2853 309.402 62.968V64.76Z" fill="#218738"/>
<path d="M103.28 38V10.4H122.16V15.6H109.04V21.2H120.96V26.4H109.04V32.8H122.16V38H103.28ZM126.701 31.52V23.36C126.701 19.04 128.861 16.88 133.181 16.88H139.341V8.4H144.861V38H133.181C128.861 38 126.701 35.84 126.701 31.52ZM132.221 31.92C132.221 32.7733 132.647 33.2 133.501 33.2H139.341V21.68H133.501C132.647 21.68 132.221 22.1067 132.221 22.96V31.92ZM150.454 31.52V16.88H155.974V31.92C155.974 32.7733 156.401 33.2 157.254 33.2H163.094V16.88H168.614V38H156.934C152.614 38 150.454 35.84 150.454 31.52ZM174.044 31.52V23.36C174.044 19.04 176.204 16.88 180.524 16.88H187.964L190.364 18.68V21.68H180.844C179.991 21.68 179.564 22.1067 179.564 22.96V31.92C179.564 32.7733 179.991 33.2 180.844 33.2H190.364V36.2L187.964 38H180.524C176.204 38 174.044 35.84 174.044 31.52ZM200.428 38C196.108 38 193.948 35.88 193.948 31.64C193.948 27.4 196.108 25.28 200.428 25.28H205.948V22.96C205.948 22.1067 205.521 21.68 204.668 21.68H196.188V18.68L198.588 16.88H204.988C209.308 16.88 211.468 19.04 211.468 23.36V38H200.428ZM199.468 31.92C199.468 32.7733 199.894 33.2 200.748 33.2H205.948V29.6H200.748C199.894 29.6 199.468 30.0267 199.468 30.88V31.92ZM216.74 31.52V23.36C216.74 19.04 218.9 16.88 223.22 16.88H230.66L233.06 18.68V21.68H223.54C222.686 21.68 222.26 22.1067 222.26 22.96V31.92C222.26 32.7733 222.686 33.2 223.54 33.2H233.06V36.2L230.66 38H223.22C218.9 38 216.74 35.84 216.74 31.52ZM221.22 41.6H225.3C225.62 41.6 225.78 41.44 225.78 41.12V35.6H230.02V40.56C230.02 43.8133 228.393 45.44 225.14 45.44H223.1L221.22 43.96V41.6ZM243.123 38C238.803 38 236.643 35.88 236.643 31.64C236.643 27.4 238.803 25.28 243.123 25.28H248.643V22.96C248.643 22.1067 248.216 21.68 247.363 21.68H238.883V18.68L241.283 16.88H247.683C252.003 16.88 254.163 19.04 254.163 23.36V38H243.123ZM242.163 31.92C242.163 32.7733 242.589 33.2 243.443 33.2H248.643V29.6H243.443C242.589 29.6 242.163 30.0267 242.163 30.88V31.92ZM238.843 11.92L241.603 9.16C242.109 8.65333 242.829 8.4 243.763 8.4C244.696 8.4 245.416 8.65333 245.923 9.16L247.843 11.08C247.923 11.16 248.003 11.2 248.083 11.2C248.163 11.2 248.243 11.16 248.323 11.08L250.643 8.76L253.003 11.12L250.243 13.88C249.736 14.3867 249.016 14.64 248.083 14.64C247.149 14.64 246.429 14.3867 245.923 13.88L244.003 11.96C243.923 11.88 243.843 11.84 243.763 11.84C243.683 11.84 243.603 11.88 243.523 11.96L241.203 14.28L238.843 11.92ZM259.435 31.52V23.36C259.435 19.04 261.595 16.88 265.915 16.88H271.515C275.835 16.88 277.995 19.04 277.995 23.36V31.52C277.995 35.84 275.835 38 271.515 38H265.915C261.595 38 259.435 35.84 259.435 31.52ZM264.955 31.92C264.955 32.7733 265.382 33.2 266.235 33.2H271.195C272.048 33.2 272.475 32.7733 272.475 31.92V22.96C272.475 22.1067 272.048 21.68 271.195 21.68H266.235C265.382 21.68 264.955 22.1067 264.955 22.96V31.92Z" fill="#218738"/>
<path d="M103.28 40V12.4H122.16V17.6H109.04V23.2H120.96V28.4H109.04V34.8H122.16V40H103.28ZM126.701 33.52V25.36C126.701 21.04 128.861 18.88 133.181 18.88H139.341V10.4H144.861V40H133.181C128.861 40 126.701 37.84 126.701 33.52ZM132.221 33.92C132.221 34.7733 132.647 35.2 133.501 35.2H139.341V23.68H133.501C132.647 23.68 132.221 24.1067 132.221 24.96V33.92ZM150.454 33.52V18.88H155.974V33.92C155.974 34.7733 156.401 35.2 157.254 35.2H163.094V18.88H168.614V40H156.934C152.614 40 150.454 37.84 150.454 33.52ZM174.044 33.52V25.36C174.044 21.04 176.204 18.88 180.524 18.88H187.964L190.364 20.68V23.68H180.844C179.991 23.68 179.564 24.1067 179.564 24.96V33.92C179.564 34.7733 179.991 35.2 180.844 35.2H190.364V38.2L187.964 40H180.524C176.204 40 174.044 37.84 174.044 33.52ZM200.428 40C196.108 40 193.948 37.88 193.948 33.64C193.948 29.4 196.108 27.28 200.428 27.28H205.948V24.96C205.948 24.1067 205.521 23.68 204.668 23.68H196.188V20.68L198.588 18.88H204.988C209.308 18.88 211.468 21.04 211.468 25.36V40H200.428ZM199.468 33.92C199.468 34.7733 199.894 35.2 200.748 35.2H205.948V31.6H200.748C199.894 31.6 199.468 32.0267 199.468 32.88V33.92ZM216.74 33.52V25.36C216.74 21.04 218.9 18.88 223.22 18.88H230.66L233.06 20.68V23.68H223.54C222.686 23.68 222.26 24.1067 222.26 24.96V33.92C222.26 34.7733 222.686 35.2 223.54 35.2H233.06V38.2L230.66 40H223.22C218.9 40 216.74 37.84 216.74 33.52ZM221.22 43.6H225.3C225.62 43.6 225.78 43.44 225.78 43.12V37.6H230.02V42.56C230.02 45.8133 228.393 47.44 225.14 47.44H223.1L221.22 45.96V43.6ZM243.123 40C238.803 40 236.643 37.88 236.643 33.64C236.643 29.4 238.803 27.28 243.123 27.28H248.643V24.96C248.643 24.1067 248.216 23.68 247.363 23.68H238.883V20.68L241.283 18.88H247.683C252.003 18.88 254.163 21.04 254.163 25.36V40H243.123ZM242.163 33.92C242.163 34.7733 242.589 35.2 243.443 35.2H248.643V31.6H243.443C242.589 31.6 242.163 32.0267 242.163 32.88V33.92ZM238.843 13.92L241.603 11.16C242.109 10.6533 242.829 10.4 243.763 10.4C244.696 10.4 245.416 10.6533 245.923 11.16L247.843 13.08C247.923 13.16 248.003 13.2 248.083 13.2C248.163 13.2 248.243 13.16 248.323 13.08L250.643 10.76L253.003 13.12L250.243 15.88C249.736 16.3867 249.016 16.64 248.083 16.64C247.149 16.64 246.429 16.3867 245.923 15.88L244.003 13.96C243.923 13.88 243.843 13.84 243.763 13.84C243.683 13.84 243.603 13.88 243.523 13.96L241.203 16.28L238.843 13.92ZM259.435 33.52V25.36C259.435 21.04 261.595 18.88 265.915 18.88H271.515C275.835 18.88 277.995 21.04 277.995 25.36V33.52C277.995 37.84 275.835 40 271.515 40H265.915C261.595 40 259.435 37.84 259.435 33.52ZM264.955 33.92C264.955 34.7733 265.382 35.2 266.235 35.2H271.195C272.048 35.2 272.475 34.7733 272.475 33.92V24.96C272.475 24.1067 272.048 23.68 271.195 23.68H266.235C265.382 23.68 264.955 24.1067 264.955 24.96V33.92Z" fill="#4D256C"/>
<path d="M8.771 4.20543L35.1806 20.3029V63.3744L8.771 56.4133V4.20543Z" fill="#4D256C"/>
<path d="M65.4241 4.20543L39.0144 20.3029V63.3744L65.4241 56.4133V4.20543Z" fill="#4D256C"/>
<path d="M0 9.31625L3.15259 5.9178V59.4434L33.7778 67.9395C36.9784 68.7449 38.6641 68.7881 41.434 67.9395L71.1585 59.4434V5.9178L74.3111 7.61703V61.5674L41.434 71.3379C38.4443 72.3739 36.7674 72.053 33.7778 71.3379L0 61.5674V9.31625Z" fill="#218738"/>
<path d="M1.95557 6.81605L4.9373 3.33553V58.1538L33.9027 66.8552C36.9299 67.68 38.5242 67.7243 41.1441 66.8552L69.2576 58.1538V3.33553L72.2393 5.07579V60.3292L41.1441 70.3357C38.3164 71.3967 36.7303 71.068 33.9027 70.3357L1.95557 60.3292V6.81605Z" fill="#4D256C"/>
<path d="M88.0001 8.99147H82.0366V55.1085L85.4443 65.55L88.0001 55.1085V8.99147Z" fill="#4D256C"/>
<path d="M88.0001 5.9459H82.0366V1.16018C85.0184 -1.45022 88.0001 1.16018 88.0001 1.16018V5.9459Z" fill="#4D256C"/>
</svg>
