<svg width="316" height="92" viewBox="0 0 316 92" fill="none" xmlns="http://www.w3.org/2000/svg">
<line x1="113.35" y1="90" x2="203.653" y2="90" stroke="#4D256C" stroke-width="4"/>
<path d="M83.28 52V24.4H102.16V29.6H89.04V36.4H100.96V41.6H89.04V52H83.28ZM106.159 27.44V22.08H111.839V27.44H106.159ZM106.239 52V30.88H111.759V52H106.239ZM116.808 50.2V47.2H126.008C126.915 47.2 127.368 46.6933 127.368 45.68C127.368 44.64 126.968 44.0533 126.168 43.92L121.848 43.2C118.488 42.64 116.808 40.6933 116.808 37.36C116.808 33.04 118.968 30.88 123.288 30.88H129.488L131.888 32.68V35.68H123.648C122.742 35.68 122.288 36.1867 122.288 37.2C122.288 38.24 122.688 38.8267 123.488 38.96L127.808 39.68C131.168 40.24 132.848 42.1867 132.848 45.52C132.848 49.84 130.688 52 126.368 52H119.208L116.808 50.2ZM137.521 45.52V37.36C137.521 33.04 139.681 30.88 144.001 30.88H151.441L153.841 32.68V35.68H144.321C143.468 35.68 143.041 36.1067 143.041 36.96V45.92C143.041 46.7733 143.468 47.2 144.321 47.2H153.841V50.2L151.441 52H144.001C139.681 52 137.521 49.84 137.521 45.52ZM163.904 52C159.584 52 157.424 49.88 157.424 45.64C157.424 41.4 159.584 39.28 163.904 39.28H169.424V36.96C169.424 36.1067 168.997 35.68 168.144 35.68H159.664V32.68L162.064 30.88H168.464C172.784 30.88 174.944 33.04 174.944 37.36V52H163.904ZM162.944 45.92C162.944 46.7733 163.371 47.2 164.224 47.2H169.424V43.6H164.224C163.371 43.6 162.944 44.0267 162.944 44.88V45.92ZM180.376 44.32V22.4H185.896V44.88C185.896 46.5333 186.75 47.44 188.456 47.6V52.4C183.07 52.4 180.376 49.7067 180.376 44.32ZM192.839 27.44V22.08H198.519V27.44H192.839ZM192.919 52V30.88H198.439V52H192.919ZM203.008 52V47.84L212.888 35.68H203.408V30.88H219.968V35.04L210.128 47.2H220.368V52H203.008ZM230.271 52C225.951 52 223.791 49.88 223.791 45.64C223.791 41.4 225.951 39.28 230.271 39.28H235.791V36.96C235.791 36.1067 235.365 35.68 234.511 35.68H226.031V32.68L228.431 30.88H234.831C239.151 30.88 241.311 33.04 241.311 37.36V52H230.271ZM229.311 45.92C229.311 46.7733 229.738 47.2 230.591 47.2H235.791V43.6H230.591C229.738 43.6 229.311 44.0267 229.311 44.88V45.92ZM246.583 45.52V37.36C246.583 33.04 248.743 30.88 253.063 30.88H260.503L262.903 32.68V35.68H253.383C252.53 35.68 252.103 36.1067 252.103 36.96V45.92C252.103 46.7733 252.53 47.2 253.383 47.2H262.903V50.2L260.503 52H253.063C248.743 52 246.583 49.84 246.583 45.52ZM251.063 55.6H255.143C255.463 55.6 255.623 55.44 255.623 55.12V49.6H259.863V54.56C259.863 57.8133 258.237 59.44 254.983 59.44H252.943L251.063 57.96V55.6ZM272.967 52C268.647 52 266.487 49.88 266.487 45.64C266.487 41.4 268.647 39.28 272.967 39.28H278.487V36.96C278.487 36.1067 278.06 35.68 277.207 35.68H268.727V32.68L271.127 30.88H277.527C281.847 30.88 284.007 33.04 284.007 37.36V52H272.967ZM272.007 45.92C272.007 46.7733 272.433 47.2 273.287 47.2H278.487V43.6H273.287C272.433 43.6 272.007 44.0267 272.007 44.88V45.92ZM268.687 25.92L271.447 23.16C271.953 22.6533 272.673 22.4 273.607 22.4C274.54 22.4 275.26 22.6533 275.767 23.16L277.687 25.08C277.767 25.16 277.847 25.2 277.927 25.2C278.007 25.2 278.087 25.16 278.167 25.08L280.487 22.76L282.847 25.12L280.087 27.88C279.58 28.3867 278.86 28.64 277.927 28.64C276.993 28.64 276.273 28.3867 275.767 27.88L273.847 25.96C273.767 25.88 273.687 25.84 273.607 25.84C273.527 25.84 273.447 25.88 273.367 25.96L271.047 28.28L268.687 25.92ZM289.279 45.52V37.36C289.279 33.04 291.439 30.88 295.759 30.88H301.359C305.679 30.88 307.839 33.04 307.839 37.36V45.52C307.839 49.84 305.679 52 301.359 52H295.759C291.439 52 289.279 49.84 289.279 45.52ZM294.799 45.92C294.799 46.7733 295.225 47.2 296.079 47.2H301.039C301.892 47.2 302.319 46.7733 302.319 45.92V36.96C302.319 36.1067 301.892 35.68 301.039 35.68H296.079C295.225 35.68 294.799 36.1067 294.799 36.96V45.92Z" fill="#218738"/>
<path d="M83.28 54V26.4H102.16V31.6H89.04V38.4H100.96V43.6H89.04V54H83.28ZM106.159 29.44V24.08H111.839V29.44H106.159ZM106.239 54V32.88H111.759V54H106.239ZM116.808 52.2V49.2H126.008C126.915 49.2 127.368 48.6933 127.368 47.68C127.368 46.64 126.968 46.0533 126.168 45.92L121.848 45.2C118.488 44.64 116.808 42.6933 116.808 39.36C116.808 35.04 118.968 32.88 123.288 32.88H129.488L131.888 34.68V37.68H123.648C122.742 37.68 122.288 38.1867 122.288 39.2C122.288 40.24 122.688 40.8267 123.488 40.96L127.808 41.68C131.168 42.24 132.848 44.1867 132.848 47.52C132.848 51.84 130.688 54 126.368 54H119.208L116.808 52.2ZM137.521 47.52V39.36C137.521 35.04 139.681 32.88 144.001 32.88H151.441L153.841 34.68V37.68H144.321C143.468 37.68 143.041 38.1067 143.041 38.96V47.92C143.041 48.7733 143.468 49.2 144.321 49.2H153.841V52.2L151.441 54H144.001C139.681 54 137.521 51.84 137.521 47.52ZM163.904 54C159.584 54 157.424 51.88 157.424 47.64C157.424 43.4 159.584 41.28 163.904 41.28H169.424V38.96C169.424 38.1067 168.997 37.68 168.144 37.68H159.664V34.68L162.064 32.88H168.464C172.784 32.88 174.944 35.04 174.944 39.36V54H163.904ZM162.944 47.92C162.944 48.7733 163.371 49.2 164.224 49.2H169.424V45.6H164.224C163.371 45.6 162.944 46.0267 162.944 46.88V47.92ZM180.376 46.32V24.4H185.896V46.88C185.896 48.5333 186.75 49.44 188.456 49.6V54.4C183.07 54.4 180.376 51.7067 180.376 46.32ZM192.839 29.44V24.08H198.519V29.44H192.839ZM192.919 54V32.88H198.439V54H192.919ZM203.008 54V49.84L212.888 37.68H203.408V32.88H219.968V37.04L210.128 49.2H220.368V54H203.008ZM230.271 54C225.951 54 223.791 51.88 223.791 47.64C223.791 43.4 225.951 41.28 230.271 41.28H235.791V38.96C235.791 38.1067 235.365 37.68 234.511 37.68H226.031V34.68L228.431 32.88H234.831C239.151 32.88 241.311 35.04 241.311 39.36V54H230.271ZM229.311 47.92C229.311 48.7733 229.738 49.2 230.591 49.2H235.791V45.6H230.591C229.738 45.6 229.311 46.0267 229.311 46.88V47.92ZM246.583 47.52V39.36C246.583 35.04 248.743 32.88 253.063 32.88H260.503L262.903 34.68V37.68H253.383C252.53 37.68 252.103 38.1067 252.103 38.96V47.92C252.103 48.7733 252.53 49.2 253.383 49.2H262.903V52.2L260.503 54H253.063C248.743 54 246.583 51.84 246.583 47.52ZM251.063 57.6H255.143C255.463 57.6 255.623 57.44 255.623 57.12V51.6H259.863V56.56C259.863 59.8133 258.237 61.44 254.983 61.44H252.943L251.063 59.96V57.6ZM272.967 54C268.647 54 266.487 51.88 266.487 47.64C266.487 43.4 268.647 41.28 272.967 41.28H278.487V38.96C278.487 38.1067 278.06 37.68 277.207 37.68H268.727V34.68L271.127 32.88H277.527C281.847 32.88 284.007 35.04 284.007 39.36V54H272.967ZM272.007 47.92C272.007 48.7733 272.433 49.2 273.287 49.2H278.487V45.6H273.287C272.433 45.6 272.007 46.0267 272.007 46.88V47.92ZM268.687 27.92L271.447 25.16C271.953 24.6533 272.673 24.4 273.607 24.4C274.54 24.4 275.26 24.6533 275.767 25.16L277.687 27.08C277.767 27.16 277.847 27.2 277.927 27.2C278.007 27.2 278.087 27.16 278.167 27.08L280.487 24.76L282.847 27.12L280.087 29.88C279.58 30.3867 278.86 30.64 277.927 30.64C276.993 30.64 276.273 30.3867 275.767 29.88L273.847 27.96C273.767 27.88 273.687 27.84 273.607 27.84C273.527 27.84 273.447 27.88 273.367 27.96L271.047 30.28L268.687 27.92ZM289.279 47.52V39.36C289.279 35.04 291.439 32.88 295.759 32.88H301.359C305.679 32.88 307.839 35.04 307.839 39.36V47.52C307.839 51.84 305.679 54 301.359 54H295.759C291.439 54 289.279 51.84 289.279 47.52ZM294.799 47.92C294.799 48.7733 295.225 49.2 296.079 49.2H301.039C301.892 49.2 302.319 48.7733 302.319 47.92V38.96C302.319 38.1067 301.892 37.68 301.039 37.68H296.079C295.225 37.68 294.799 38.1067 294.799 38.96V47.92Z" fill="#4D256C"/>
<path d="M73.6909 79.9999L77.2266 76.4642L56.2079 55.4456L52.6722 58.9813L73.6909 79.9999Z" fill="#4D256C"/>
<path d="M36.2625 65.0999C18.8315 65.0999 4.64941 50.9191 4.64941 33.4881C4.64941 16.0571 18.8315 1.87509 36.2625 1.87509C53.6934 1.87509 67.8742 16.0571 67.8742 33.4881C67.8742 50.9191 53.6934 65.0999 36.2625 65.0999Z" fill="white"/>
<path d="M36.2626 3.75021C52.6597 3.75021 65.9992 17.0897 65.9992 33.4869C65.9992 49.8841 52.6597 63.2248 36.2626 63.2248C19.8654 63.2248 6.52588 49.8853 6.52588 33.4881C6.52588 17.091 19.8654 3.75021 36.2626 3.75021ZM36.2626 0C17.7678 0 2.77441 14.9933 2.77441 33.4869C2.77441 51.9804 17.7678 66.9738 36.2613 66.9738C54.7561 66.9738 69.7482 51.9804 69.7482 33.4869C69.7482 14.9933 54.7574 0 36.2626 0Z" fill="#4D256C"/>
<path d="M59.4426 33.4862C59.3951 33.5779 59.3314 33.6976 59.251 33.8423C59.0456 34.2119 58.7314 34.7436 58.3003 35.3834C57.4378 36.6635 56.1099 38.3727 54.2526 40.0818C50.5429 43.4956 44.7198 46.9126 36.2437 46.9126C27.7678 46.9126 21.9545 43.4957 18.2547 40.0822C16.4023 38.3732 15.0793 36.6642 14.2204 35.3842C13.7912 34.7444 13.4785 34.2128 13.2741 33.8432C13.1942 33.6987 13.1309 33.5791 13.0836 33.4875C13.1311 33.3958 13.1949 33.276 13.2753 33.1314C13.4807 32.7618 13.7949 32.2301 14.2259 31.5903C15.0884 30.3102 16.4163 28.601 18.2736 26.8919C21.9833 23.4781 27.8065 20.0611 36.2825 20.0611C44.7584 20.0611 50.5717 23.478 54.2715 26.8914C56.1239 28.6005 57.4469 30.3095 58.3058 31.5895C58.7351 32.2292 59.0478 32.7609 59.2521 33.1304C59.3321 33.275 59.3954 33.3946 59.4426 33.4862Z" stroke="#4D256C"/>
<path d="M36.2624 24.7214C41.0964 24.7214 45.0292 28.6541 45.0292 33.4881C45.0292 38.3221 41.0964 42.2549 36.2624 42.2549C31.4284 42.2549 27.4957 38.3221 27.4957 33.4881C27.4957 28.6541 31.4284 24.7214 36.2624 24.7214ZM36.2624 23.4713C30.7309 23.4713 26.2456 27.9553 26.2456 33.4881C26.2456 39.0209 30.7296 43.5049 36.2624 43.5049C41.7952 43.5049 46.2792 39.0209 46.2792 33.4881C46.2792 27.9553 41.794 23.4713 36.2624 23.4713Z" fill="#218738"/>
<path d="M36.2638 42.3249C41.1449 42.3249 45.1018 38.368 45.1018 33.4869C45.1018 28.6058 41.1449 24.6489 36.2638 24.6489C31.3827 24.6489 27.4258 28.6058 27.4258 33.4869C27.4258 38.368 31.3827 42.3249 36.2638 42.3249Z" fill="#218738"/>
<path d="M36.2639 39.471C39.5688 39.471 42.248 36.7918 42.248 33.4869C42.248 30.182 39.5688 27.5028 36.2639 27.5028C32.959 27.5028 30.2798 30.182 30.2798 33.4869C30.2798 36.7918 32.959 39.471 36.2639 39.471Z" fill="white"/>
<path d="M36.2634 36.4584C37.9045 36.4584 39.2348 35.128 39.2348 33.4869C39.2348 31.8459 37.9045 30.5155 36.2634 30.5155C34.6223 30.5155 33.292 31.8459 33.292 33.4869C33.292 35.128 34.6223 36.4584 36.2634 36.4584Z" fill="#4D256C"/>
</svg>
