<svg width="20" height="20" viewBox="0 0 20 20" fill="none" xmlns="http://www.w3.org/2000/svg">
<g clip-path="url(#clip0_1403:1268)">
<path d="M18.213 5.39106C18.0089 4.59203 17.4106 3.96216 16.6519 3.747C15.2658 3.34766 9.72127 3.34766 9.72127 3.34766C9.72127 3.34766 4.17699 3.34766 2.79089 3.73186C2.04676 3.94679 1.43387 4.59214 1.22976 5.39106C0.86499 6.85047 0.86499 9.8771 0.86499 9.8771C0.86499 9.8771 0.86499 12.919 1.22976 14.3631C1.43409 15.1621 2.03216 15.7919 2.791 16.0071C4.19158 16.4065 9.72149 16.4065 9.72149 16.4065C9.72149 16.4065 15.2658 16.4065 16.6519 16.0223C17.4107 15.8073 18.0089 15.1774 18.2132 14.3785C18.5779 12.919 18.5779 9.89247 18.5779 9.89247C18.5779 9.89247 18.5925 6.85047 18.213 5.39106ZM7.95602 12.6732V7.08099L12.5665 9.8771L7.95602 12.6732Z" fill="#F9F9F9"/>
</g>
<defs>
<clipPath id="clip0_1403:1268">
<rect width="18.8939" height="19.8947" fill="white" transform="translate(0.283691 0.105469)"/>
</clipPath>
</defs>
</svg>
