<svg width="24" height="24" viewBox="0 0 24 24" fill="none" xmlns="http://www.w3.org/2000/svg">
<g clip-path="url(#clip0_113_1205)">
<path d="M22.9837 8.74063C22.592 8.35114 21.9589 8.35287 21.5694 8.74443L9.54812 20.8307C7.98851 22.3903 5.45546 22.3903 3.89294 20.8286C2.33159 19.2665 2.33159 16.7334 3.89313 15.1719L16.2702 2.72975C17.244 1.75609 18.827 1.75609 19.8035 2.73186C20.7798 3.70811 20.7798 5.29097 19.8033 6.26749L9.55 16.5207C9.54934 16.5214 9.54878 16.5221 9.54812 16.5228C9.1575 16.9112 8.52622 16.9107 8.1364 16.5209C7.74592 16.1304 7.74592 15.4975 8.1364 15.1071L13.0856 10.1568C13.4761 9.76628 13.476 9.13308 13.0854 8.7426C12.6949 8.35212 12.0617 8.35217 11.6712 8.74274L6.72205 13.6929C5.55057 14.8643 5.55057 16.7636 6.72215 17.9351C7.89368 19.1066 9.79291 19.1066 10.9645 17.9351C10.9658 17.9337 10.9669 17.9323 10.9682 17.9309L21.2175 7.68165C22.9751 5.92408 22.9751 3.07486 21.2175 1.31728C19.4597 -0.439257 16.6107 -0.439257 14.8541 1.31728L2.477 13.7595C0.136291 16.1002 0.136291 19.8993 2.47869 22.2429C4.82263 24.5856 8.62175 24.5856 10.9643 22.2431L22.9875 10.1549C23.3769 9.76328 23.3752 9.13012 22.9837 8.74063Z" fill="#999898"/>
</g>
<defs>
<clipPath id="clip0_113_1205">
<rect width="24" height="24" fill="white"/>
</clipPath>
</defs>
</svg>
