<svg width="21" height="16" viewBox="0 0 21 16" fill="none" xmlns="http://www.w3.org/2000/svg">
<path d="M20.4774 2.0423C19.7335 2.35296 18.9408 2.55888 18.1143 2.65886C18.9645 2.17561 19.6135 1.41621 19.9185 0.500878C19.1258 0.950806 18.2506 1.26861 17.3179 1.44596C16.5652 0.682992 15.4924 0.210449 14.3221 0.210449C12.0515 0.210449 10.2235 1.96493 10.2235 4.11577C10.2235 4.42524 10.251 4.72281 10.3185 5.0061C6.90886 4.84779 3.89182 3.29209 1.86503 0.922239C1.51119 1.50667 1.30364 2.17561 1.30364 2.89573C1.30364 4.24789 2.03508 5.44651 3.12537 6.14044C2.46644 6.12854 1.82002 5.94643 1.27238 5.65957C1.27238 5.67147 1.27238 5.68694 1.27238 5.70242C1.27238 7.59973 2.694 9.17566 4.55824 9.5387C4.22441 9.62559 3.86056 9.66725 3.48296 9.66725C3.22039 9.66725 2.95532 9.65297 2.70651 9.6006C3.2379 11.1468 4.74579 12.2835 6.53876 12.3204C5.1434 13.3595 3.37168 13.9856 1.45368 13.9856C1.11734 13.9856 0.794753 13.9713 0.472168 13.932C2.2889 15.0473 4.44196 15.6841 6.76382 15.6841C14.3108 15.6841 18.4369 9.73272 18.4369 4.57403C18.4369 4.40144 18.4306 4.2348 18.4219 4.06935C19.2359 3.51944 19.9198 2.83264 20.4774 2.0423Z" fill="#F9F9F9"/>
</svg>
