<svg width="18" height="17" viewBox="0 0 18 17" fill="none" xmlns="http://www.w3.org/2000/svg">
<g clip-path="url(#clip0_1403:1270)">
<path d="M6.06103 13.9075H3.78179V6.58946H6.06103V13.9075ZM6.28845 4.25792C6.28845 3.52518 5.69065 2.93043 4.95422 2.93043C4.215 2.93043 3.61873 3.52518 3.61873 4.25792C3.61873 4.99091 4.215 5.58566 4.95422 5.58566C5.69065 5.58566 6.28845 4.99091 6.28845 4.25792ZM14.5917 9.88142C14.5917 7.91694 14.1744 6.45994 11.8667 6.45994C10.7579 6.45994 10.0136 7.01142 9.70973 7.58491H9.70757V6.58946H7.49345V13.9075H9.70757V10.274C9.70757 9.32247 9.95114 8.40063 11.1372 8.40063C12.3071 8.40063 12.345 9.4888 12.345 10.3345V13.9075H14.5917V9.88142ZM17.5221 14.8466V2.15329C17.5221 1.08195 16.6458 0.210449 15.5685 0.210449H2.80471C1.72741 0.210449 0.851074 1.08195 0.851074 2.15329V14.8466C0.851074 15.9179 1.72741 16.7894 2.80471 16.7894H15.5685C16.6458 16.7894 17.5221 15.9179 17.5221 14.8466ZM15.5685 1.50568C15.9275 1.50568 16.2197 1.79622 16.2197 2.15329V14.8466C16.2197 15.2036 15.9275 15.4942 15.5685 15.4942H2.80471C2.44566 15.4942 2.1535 15.2036 2.1535 14.8466V2.15329C2.1535 1.79622 2.44566 1.50568 2.80471 1.50568H15.5685Z" fill="#F9F9F9"/>
</g>
<defs>
<clipPath id="clip0_1403:1270">
<rect width="16.6711" height="16.5789" fill="white" transform="translate(0.851074 0.210449)"/>
</clipPath>
</defs>
</svg>
