<svg width="11" height="19" viewBox="0 0 11 19" fill="none" xmlns="http://www.w3.org/2000/svg">
<path d="M6.6347 18.7895H3.67312C3.17845 18.7895 2.77604 18.3806 2.77604 17.878V11.0912H1.0482C0.553524 11.0912 0.151123 10.6822 0.151123 10.1797V7.27155C0.151123 6.76895 0.553524 6.36011 1.0482 6.36011H2.77604V4.9038C2.77604 3.45981 3.22233 2.23128 4.06649 1.35124C4.91447 0.467185 6.09952 0 7.49354 0L9.75218 0.00372714C10.246 0.00458727 10.6477 0.413428 10.6477 0.915161V3.61535C10.6477 4.11794 10.2454 4.52678 9.75091 4.52678L8.23019 4.52735C7.76641 4.52735 7.64832 4.62182 7.62306 4.65078C7.58144 4.6988 7.53192 4.83456 7.53192 5.20942V6.35997H9.63662C9.79507 6.35997 9.94858 6.39968 10.0805 6.47451C10.3651 6.63607 10.542 6.94155 10.542 7.27169L10.5409 10.1799C10.5409 10.6822 10.1385 11.091 9.64382 11.091H7.53192V17.878C7.53192 18.3806 7.12937 18.7895 6.6347 18.7895ZM3.86021 17.688H6.4476V10.598C6.4476 10.2624 6.71639 9.98951 7.04655 9.98951H9.45673L9.45771 7.46163H7.04641C6.71625 7.46163 6.4476 7.18869 6.4476 6.8531V5.20942C6.4476 4.77908 6.49064 4.28967 6.81036 3.92183C7.19668 3.47715 7.8055 3.42583 8.22991 3.42583L9.56353 3.42526V1.10496L7.49269 1.10152C5.25239 1.10152 3.86021 2.55855 3.86021 4.9038V6.8531C3.86021 7.18855 3.59157 7.46163 3.26141 7.46163H1.23529V9.98951H3.26141C3.59157 9.98951 3.86021 10.2624 3.86021 10.598V17.688ZM9.75006 1.10525H9.7502H9.75006Z" fill="#F9F9F9"/>
</svg>
