<svg width="247" height="92" viewBox="0 0 247 92" fill="none" xmlns="http://www.w3.org/2000/svg">
<line x1="78" y1="90" x2="168" y2="90" stroke="#4D256C" stroke-width="4"/>
<path d="M106.048 67.816V61.288C106.048 57.832 107.776 56.104 111.232 56.104H116.16V49.32H120.576V73H111.232C107.776 73 106.048 71.272 106.048 67.816ZM110.464 68.136C110.464 68.8187 110.805 69.16 111.488 69.16H116.16V59.944H111.488C110.805 59.944 110.464 60.2853 110.464 60.968V68.136ZM124.923 67.816V61.288C124.923 57.832 126.651 56.104 130.107 56.104H134.267C137.723 56.104 139.451 57.832 139.451 61.288V66.216H129.339V68.136C129.339 68.8187 129.68 69.16 130.363 69.16H138.811V71.56L136.891 73H130.107C126.651 73 124.923 71.272 124.923 67.816ZM129.339 62.76H135.035V60.968C135.035 60.2853 134.694 59.944 134.011 59.944H130.363C129.68 59.944 129.339 60.2853 129.339 60.968V62.76ZM143.804 73V56.104H153.148C156.604 56.104 158.332 57.832 158.332 61.288V73H153.916V60.968C153.916 60.2853 153.575 59.944 152.892 59.944H148.22V73H143.804ZM162.676 67.816V56.104H167.092V68.136C167.092 68.8187 167.433 69.16 168.116 69.16H172.788V56.104H177.204V73H167.86C164.404 73 162.676 71.272 162.676 67.816ZM167.22 52.552L171.636 47.528L174.068 49.832L169.332 54.568L167.22 52.552ZM181.804 73V56.104H191.148C194.604 56.104 196.332 57.832 196.332 61.288V73H191.916V60.968C191.916 60.2853 191.575 59.944 190.892 59.944H186.22V73H181.804ZM200.548 67.816V61.288C200.548 57.832 202.276 56.104 205.732 56.104H211.684L213.604 57.544V59.944H205.988C205.305 59.944 204.964 60.2853 204.964 60.968V68.136C204.964 68.8187 205.305 69.16 205.988 69.16H213.604V71.56L211.684 73H205.732C202.276 73 200.548 71.272 200.548 67.816ZM217.303 53.352V49.064H221.847V53.352H217.303ZM217.367 73V56.104H221.783V73H217.367ZM230.686 73C227.23 73 225.502 71.304 225.502 67.912C225.502 64.52 227.23 62.824 230.686 62.824H235.102V60.968C235.102 60.2853 234.76 59.944 234.078 59.944H227.294V57.544L229.214 56.104H234.334C237.79 56.104 239.518 57.832 239.518 61.288V73H230.686ZM229.918 68.136C229.918 68.8187 230.259 69.16 230.942 69.16H235.102V66.28H230.942C230.259 66.28 229.918 66.6213 229.918 67.304V68.136Z" fill="#218738"/>
<path d="M96.5593 36V8.4H115.439V13.6H102.319V20.4H114.239V25.6H102.319V36H96.5593ZM124.097 36C119.777 36 117.617 33.88 117.617 29.64C117.617 25.4 119.777 23.28 124.097 23.28H129.617V20.96C129.617 20.1067 129.191 19.68 128.337 19.68H119.857V16.68L122.257 14.88H128.657C132.977 14.88 135.137 17.04 135.137 21.36V36H124.097ZM123.137 29.92C123.137 30.7733 123.564 31.2 124.417 31.2H129.617V27.6H124.417C123.564 27.6 123.137 28.0267 123.137 28.88V29.92ZM139.53 36V31.84L149.41 19.68H139.93V14.88H156.49V19.04L146.65 31.2H156.89V36H139.53ZM161.113 29.52V21.36C161.113 17.04 163.273 14.88 167.593 14.88H172.793C177.113 14.88 179.273 17.04 179.273 21.36V27.52H166.633V29.92C166.633 30.7733 167.059 31.2 167.913 31.2H178.473V34.2L176.073 36H167.593C163.273 36 161.113 33.84 161.113 29.52ZM166.633 23.2H173.753V20.96C173.753 20.1067 173.326 19.68 172.473 19.68H167.913C167.059 19.68 166.633 20.1067 166.633 20.96V23.2ZM184.554 36V17.6C185.541 15.7867 187.434 14.88 190.234 14.88H194.554L196.954 16.68V19.68H191.554C190.834 19.68 190.341 19.8533 190.074 20.2V36H184.554Z" fill="#218738"/>
<path d="M96.28 38V10.4H115.16V15.6H102.04V22.4H113.96V27.6H102.04V38H96.28ZM123.818 38C119.498 38 117.338 35.88 117.338 31.64C117.338 27.4 119.498 25.28 123.818 25.28H129.338V22.96C129.338 22.1067 128.911 21.68 128.058 21.68H119.578V18.68L121.978 16.88H128.378C132.698 16.88 134.858 19.04 134.858 23.36V38H123.818ZM122.858 31.92C122.858 32.7733 123.285 33.2 124.138 33.2H129.338V29.6H124.138C123.285 29.6 122.858 30.0267 122.858 30.88V31.92ZM139.25 38V33.84L149.13 21.68H139.65V16.88H156.21V21.04L146.37 33.2H156.61V38H139.25ZM160.833 31.52V23.36C160.833 19.04 162.993 16.88 167.313 16.88H172.513C176.833 16.88 178.993 19.04 178.993 23.36V29.52H166.353V31.92C166.353 32.7733 166.78 33.2 167.633 33.2H178.193V36.2L175.793 38H167.313C162.993 38 160.833 35.84 160.833 31.52ZM166.353 25.2H173.473V22.96C173.473 22.1067 173.047 21.68 172.193 21.68H167.633C166.78 21.68 166.353 22.1067 166.353 22.96V25.2ZM184.275 38V19.6C185.261 17.7867 187.155 16.88 189.955 16.88H194.275L196.675 18.68V21.68H191.275C190.555 21.68 190.061 21.8533 189.795 22.2V38H184.275Z" fill="#4D256C"/>
<g clip-path="url(#clip0_113_1145)">
<line x1="3.36377" y1="60.5823" x2="41.3638" y2="50.5823" stroke="#218738" stroke-width="5"/>
<path d="M40.8069 45.707C42.1661 44.3795 42.7075 42.4246 42.2249 40.5875C41.7423 38.7496 40.3108 37.3129 38.4749 36.8238C37.5621 36.5819 36.6008 36.5916 35.6926 36.8529L32.4723 31.2754C32.0622 30.5664 31.3468 30.0864 30.5349 29.9758C29.723 29.8658 28.906 30.1369 28.3212 30.7113L1.78368 57.1654C0.55976 58.4443 0.323644 60.376 1.20213 61.9123L1.85614 63.0463C2.75467 64.5814 4.55757 65.3396 6.28283 64.9094L11.3267 63.5496L19.6729 78.0103C20.7707 79.9128 23.2024 80.5655 25.1049 79.4678C27.0074 78.3706 27.6595 75.9383 26.5623 74.0358L19.2757 61.409L42.4416 55.1652H42.4604C43.2451 54.9407 43.8836 54.3676 44.1895 53.6107C44.4955 52.8539 44.436 51.998 44.0272 51.291L40.8069 45.707ZM37.7898 39.3836C38.5842 39.5945 39.2343 40.1637 39.5487 40.9232C39.8625 41.682 39.8049 42.5443 39.3915 43.2546L37.097 39.304C37.3286 39.3014 37.5595 39.3292 37.7834 39.3862L37.7898 39.3836ZM5.61783 62.3445C5.04468 62.4868 4.4463 62.2325 4.15132 61.7215L3.49795 60.5875C3.20685 60.0842 3.27801 59.4509 3.67262 59.0239L10.7555 51.9631L15.2507 59.7504L5.61783 62.3445ZM24.2646 75.3606C24.5052 75.7707 24.5071 76.2786 24.2704 76.6906C24.0336 77.1027 23.5944 77.3569 23.1189 77.3556C22.6434 77.355 22.2048 77.0988 21.97 76.6855L13.9731 62.8361L16.6228 62.1232L24.2646 75.3606ZM17.8978 59.0336L12.6974 50.0243L30.1733 32.6028L41.7288 52.608L17.8978 59.0336Z" fill="#4D256C"/>
<path d="M72.868 0H42.3967C38.7404 0.00452827 35.777 2.9673 35.7725 6.6242V19.8726C35.777 23.5295 38.7404 26.4923 42.3967 26.4968H51.6705V34.4458C51.6705 35.0086 52.0257 35.51 52.5568 35.6963C53.0879 35.8832 53.6785 35.7131 54.0304 35.2739L61.0518 26.4968H72.868C76.5249 26.4923 79.4876 23.5295 79.4922 19.8726V6.6242C79.4876 2.9673 76.5249 0.00452827 72.868 0ZM76.8425 19.8726C76.8425 22.0675 75.0629 23.8471 72.868 23.8471H60.4146C60.0122 23.8471 59.6312 24.0295 59.3802 24.3439L54.3202 30.6686V25.172C54.3202 24.4403 53.727 23.8471 52.9954 23.8471H42.3967C40.2017 23.8471 38.4221 22.0675 38.4221 19.8726V6.6242C38.4221 4.42929 40.2017 2.64968 42.3967 2.64968H72.868C75.0629 2.64968 76.8425 4.42929 76.8425 6.6242V19.8726Z" fill="#4D256C"/>
<path d="M43.7217 6.62421H46.3714V9.27389H43.7217V6.62421Z" fill="#4D256C"/>
<path d="M49.0205 6.62421H71.5428V9.27389H49.0205V6.62421Z" fill="#4D256C"/>
<path d="M43.7217 11.9236H51.6707V14.5732H43.7217V11.9236Z" fill="#4D256C"/>
<path d="M54.3203 11.9236H56.97V14.5732H54.3203V11.9236Z" fill="#4D256C"/>
<path d="M43.7217 17.2229H56.9701V19.8726H43.7217V17.2229Z" fill="#4D256C"/>
<path d="M59.6201 11.9236H71.5437V14.5732H59.6201V11.9236Z" fill="#4D256C"/>
<path d="M59.6201 17.2229H62.2698V19.8726H59.6201V17.2229Z" fill="#4D256C"/>
<path d="M64.9189 17.2229H71.5432V19.8726H64.9189V17.2229Z" fill="#4D256C"/>
<path d="M37.0977 29.1465H39.7473V34.4458H37.0977V29.1465Z" fill="#4D256C"/>
<path d="M43.4971 45.5291L44.8219 43.2346L49.411 45.8836L48.0868 48.1788L43.4971 45.5291Z" fill="#4D256C"/>
<path d="M43.4961 36.6103L48.0858 33.9607L49.4107 36.2558L44.8209 38.9049L43.4961 36.6103Z" fill="#4D256C"/>
</g>
<defs>
<clipPath id="clip0_113_1145">
<rect width="80" height="80" fill="white"/>
</clipPath>
</defs>
</svg>
