<svg width="64" height="64" viewBox="0 0 64 64" fill="none" xmlns="http://www.w3.org/2000/svg">
<g clip-path="url(#clip0_113_1171)">
<path d="M61.8707 14.6616C60.5932 13.3232 58.8289 12.5324 56.8213 12.5324H46.7224V12.4107C46.7224 10.8898 46.1141 9.42969 45.0798 8.45631C44.0456 7.42209 42.6464 6.81372 41.1255 6.81372H22.8745C21.2928 6.81372 19.8935 7.42209 18.8593 8.45631C17.8251 9.49053 17.2167 10.8898 17.2167 12.4107V12.5324H7.17871C5.1711 12.5324 3.40684 13.3232 2.12928 14.6616C0.851711 15.9392 0 17.7643 0 19.7111V50.0076C0 52.0152 0.790875 53.7795 2.12928 55.0571C3.40684 56.3346 5.23194 57.1863 7.17871 57.1863H56.8213C58.8289 57.1863 60.5932 56.3955 61.8707 55.0571C63.1483 53.7795 64 51.9544 64 50.0076V19.7111C64 17.7035 63.2091 15.9392 61.8707 14.6616ZM60.8365 50.0076H60.7757C60.7757 51.1027 60.3498 52.0761 59.6198 52.8061C58.8897 53.5362 57.9164 53.962 56.8213 53.962H7.17871C6.08365 53.962 5.11027 53.5362 4.38023 52.8061C3.65019 52.0761 3.22433 51.1027 3.22433 50.0076V19.7111C3.22433 18.616 3.65019 17.6426 4.38023 16.9126C5.11027 16.1825 6.08365 15.7567 7.17871 15.7567H18.9202C19.8327 15.7567 20.5627 15.0266 20.5627 14.1141V12.3498C20.5627 11.6806 20.8061 11.0723 21.2319 10.6464C21.6578 10.2206 22.2662 9.97722 22.9354 9.97722H41.1255C41.7947 9.97722 42.403 10.2206 42.8289 10.6464C43.2548 11.0723 43.4981 11.6806 43.4981 12.3498V14.1141C43.4981 15.0266 44.2281 15.7567 45.1407 15.7567H56.8821C57.9772 15.7567 58.9506 16.1825 59.6806 16.9126C60.4106 17.6426 60.8365 18.616 60.8365 19.7111V50.0076Z" fill="#C2C2C2"/>
<path d="M32 19.8936C27.8631 19.8936 24.0912 21.597 21.4144 24.2738C18.6768 27.0114 17.0342 30.7225 17.0342 34.8593C17.0342 38.9962 18.7376 42.7681 21.4144 45.4449C24.1521 48.1825 27.8631 49.8251 32 49.8251C36.1368 49.8251 39.9087 48.1217 42.5855 45.4449C45.3232 42.7072 46.9657 38.9962 46.9657 34.8593C46.9657 30.7225 45.2623 26.9506 42.5855 24.2738C39.9087 21.597 36.1368 19.8936 32 19.8936ZM40.2737 43.1939C38.1445 45.2624 35.2243 46.6008 32 46.6008C28.7756 46.6008 25.8555 45.2624 23.7262 43.1939C21.5969 41.0647 20.3194 38.1445 20.3194 34.9202C20.3194 31.6958 21.6578 28.7757 23.7262 26.6464C25.8555 24.5171 28.7756 23.2396 32 23.2396C35.2243 23.2396 38.1445 24.578 40.2737 26.6464C42.403 28.7757 43.6806 31.6958 43.6806 34.9202C43.7414 38.1445 42.403 41.0647 40.2737 43.1939Z" fill="#C2C2C2"/>
<path d="M53.6577 25.7948C55.3041 25.7948 56.6387 24.4601 56.6387 22.8138C56.6387 21.1674 55.3041 19.8328 53.6577 19.8328C52.0114 19.8328 50.6768 21.1674 50.6768 22.8138C50.6768 24.4601 52.0114 25.7948 53.6577 25.7948Z" fill="#C2C2C2"/>
</g>
<defs>
<clipPath id="clip0_113_1171">
<rect width="64" height="64" fill="white"/>
</clipPath>
</defs>
</svg>
