<svg width="18" height="17" viewBox="0 0 18 17" fill="none" xmlns="http://www.w3.org/2000/svg">
<g clip-path="url(#clip0_1403:1264)">
<path d="M13.097 0.210449H5.45141C2.96307 0.210449 0.938721 2.22362 0.938721 4.69821V12.3017C0.938721 14.7762 2.96307 16.7894 5.45141 16.7894H13.0972C15.5854 16.7894 17.6097 14.7762 17.6097 12.3017V4.69821C17.6097 2.22362 15.5854 0.210449 13.097 0.210449V0.210449ZM16.6324 12.3017C16.6324 14.2403 15.0465 15.8174 13.097 15.8174H5.45141C3.50198 15.8174 1.91605 14.2403 1.91605 12.3017V4.69821C1.91605 2.75954 3.50198 1.18238 5.45141 1.18238H13.0972C15.0465 1.18238 16.6324 2.75954 16.6324 4.69821V12.3017Z" fill="#F9F9F9"/>
<path d="M9.27417 3.9668C6.76065 3.9668 4.71582 6.00033 4.71582 8.49997C4.71582 10.9996 6.76065 13.0331 9.27417 13.0331C11.7877 13.0331 13.8325 10.9996 13.8325 8.49997C13.8325 6.00033 11.7877 3.9668 9.27417 3.9668ZM9.27417 12.0612C7.29968 12.0612 5.69315 10.4637 5.69315 8.49997C5.69315 6.53638 7.29968 4.93872 9.27417 4.93872C11.2488 4.93872 12.8552 6.53638 12.8552 8.49997C12.8552 10.4637 11.2488 12.0612 9.27417 12.0612Z" fill="#F9F9F9"/>
<path d="M13.9417 2.35693C13.1989 2.35693 12.5947 2.95787 12.5947 3.69643C12.5947 4.43512 13.1989 5.03606 13.9417 5.03606C14.6845 5.03606 15.2887 4.43512 15.2887 3.69643C15.2887 2.95775 14.6845 2.35693 13.9417 2.35693ZM13.9417 4.064C13.7379 4.064 13.5721 3.89906 13.5721 3.69643C13.5721 3.49367 13.7379 3.32886 13.9417 3.32886C14.1455 3.32886 14.3114 3.49367 14.3114 3.69643C14.3114 3.89906 14.1455 4.064 13.9417 4.064Z" fill="#F9F9F9"/>
</g>
<defs>
<clipPath id="clip0_1403:1264">
<rect width="16.6711" height="16.5789" fill="white" transform="translate(0.938721 0.210449)"/>
</clipPath>
</defs>
</svg>
