<svg width="328" height="120" viewBox="0 0 328 120" fill="none" xmlns="http://www.w3.org/2000/svg">
<path d="M2 56.2265C42 17.2265 76 22.7265 113.5 56.2265" stroke="#218738" stroke-width="3"/>
<line x1="114.5" y1="117.727" x2="204.5" y2="117.727" stroke="#4D256C" stroke-width="4"/>
<path d="M127.32 92.436V87.948C127.32 85.572 128.508 84.384 130.884 84.384H137.308V96.836C137.308 99.212 136.12 100.4 133.744 100.4H129.63L128.31 99.41V97.76H133.568C134.037 97.76 134.272 97.5253 134.272 97.056V96H130.884C128.508 96 127.32 94.812 127.32 92.436ZM130.356 92.656C130.356 93.1253 130.591 93.36 131.06 93.36H134.272V87.024H131.06C130.591 87.024 130.356 87.2587 130.356 87.728V92.656ZM140.301 91.776V79.72H143.337V92.084C143.337 92.9933 143.806 93.492 144.745 93.58V96.22C141.782 96.22 140.301 94.7387 140.301 91.776ZM147.023 92.436V87.948C147.023 85.572 148.211 84.384 150.587 84.384H153.667C156.043 84.384 157.231 85.572 157.231 87.948V92.436C157.231 94.812 156.043 96 153.667 96H150.587C148.211 96 147.023 94.812 147.023 92.436ZM150.059 92.656C150.059 93.1253 150.294 93.36 150.763 93.36H153.491C153.961 93.36 154.195 93.1253 154.195 92.656V87.728C154.195 87.2587 153.961 87.024 153.491 87.024H150.763C150.294 87.024 150.059 87.2587 150.059 87.728V92.656ZM160.219 96V79.72H163.255V84.384H166.643C169.019 84.384 170.207 85.572 170.207 87.948V92.436C170.207 94.812 169.019 96 166.643 96H160.219ZM163.255 93.36H166.467C166.936 93.36 167.171 93.1253 167.171 92.656V87.728C167.171 87.2587 166.936 87.024 166.467 87.024H163.255V93.36ZM176.143 96C173.767 96 172.579 94.834 172.579 92.502C172.579 90.17 173.767 89.004 176.143 89.004H179.179V87.728C179.179 87.2587 178.945 87.024 178.475 87.024H173.811V85.374L175.131 84.384H178.651C181.027 84.384 182.215 85.572 182.215 87.948V96H176.143ZM175.615 92.656C175.615 93.1253 175.85 93.36 176.319 93.36H179.179V91.38H176.319C175.85 91.38 175.615 91.6147 175.615 92.084V92.656ZM185.203 91.776V79.72H188.239V92.084C188.239 92.9933 188.708 93.492 189.647 93.58V96.22C186.684 96.22 185.203 94.7387 185.203 91.776ZM197.211 92.436V87.948C197.211 85.572 198.399 84.384 200.775 84.384H204.163V79.72H207.199V96H200.775C198.399 96 197.211 94.812 197.211 92.436ZM200.247 92.656C200.247 93.1253 200.481 93.36 200.951 93.36H204.163V87.024H200.951C200.481 87.024 200.247 87.2587 200.247 87.728V92.656ZM210.187 92.436V87.948C210.187 85.572 211.375 84.384 213.751 84.384H216.831C219.207 84.384 220.395 85.572 220.395 87.948V92.436C220.395 94.812 219.207 96 216.831 96H213.751C211.375 96 210.187 94.812 210.187 92.436ZM213.223 92.656C213.223 93.1253 213.458 93.36 213.927 93.36H216.655C217.125 93.36 217.359 93.1253 217.359 92.656V87.728C217.359 87.2587 217.125 87.024 216.655 87.024H213.927C213.458 87.024 213.223 87.2587 213.223 87.728V92.656ZM228.492 92.436V87.948C228.492 85.572 229.68 84.384 232.056 84.384H236.148L237.468 85.374V87.024H232.232C231.763 87.024 231.528 87.2587 231.528 87.728V92.656C231.528 93.1253 231.763 93.36 232.232 93.36H237.468V95.01L236.148 96H232.056C229.68 96 228.492 94.812 228.492 92.436ZM239.967 91.776V79.72H243.003V92.084C243.003 92.9933 243.472 93.492 244.411 93.58V96.22C241.448 96.22 239.967 94.7387 239.967 91.776ZM246.821 82.492V79.544H249.945V82.492H246.821ZM246.865 96V84.384H249.901V96H246.865ZM253.074 96V84.384H266.318C268.694 84.384 269.882 85.572 269.882 87.948V96H266.846V87.728C266.846 87.2587 266.612 87.024 266.142 87.024H262.996V96H259.96V87.024H256.11V96H253.074ZM275.917 96C273.541 96 272.353 94.834 272.353 92.502C272.353 90.17 273.541 89.004 275.917 89.004H278.953V87.728C278.953 87.2587 278.718 87.024 278.249 87.024H273.585V85.374L274.905 84.384H278.425C280.801 84.384 281.989 85.572 281.989 87.948V96H275.917ZM275.389 92.656C275.389 93.1253 275.623 93.36 276.093 93.36H278.953V91.38H276.093C275.623 91.38 275.389 91.6147 275.389 92.084V92.656Z" fill="#218738"/>
<path d="M128.78 63.7266V36.1266H135.66L143.46 52.8066L151.26 36.1266H158.14V63.7266H152.38V46.2866L145.9 60.1266H141.02L134.54 46.2866V63.7266H128.78ZM164.158 57.2466V42.6066H169.678V57.6466C169.678 58.4999 170.104 58.9266 170.958 58.9266H176.798V42.6066H182.318V63.7266H170.638C166.318 63.7266 164.158 61.5666 164.158 57.2466ZM187.748 57.2466V49.0866C187.748 44.7666 189.908 42.6066 194.228 42.6066H200.388V34.1266H205.908V63.7266H194.228C189.908 63.7266 187.748 61.5666 187.748 57.2466ZM193.268 57.6466C193.268 58.4999 193.694 58.9266 194.548 58.9266H200.388V47.4066H194.548C193.694 47.4066 193.268 47.8332 193.268 48.6866V57.6466ZM217.021 63.7266C212.701 63.7266 210.541 61.6066 210.541 57.3666C210.541 53.1266 212.701 51.0066 217.021 51.0066H222.541V48.6866C222.541 47.8332 222.115 47.4066 221.261 47.4066H212.781V44.4066L215.181 42.6066H221.581C225.901 42.6066 228.061 44.7666 228.061 49.0866V63.7266H217.021ZM216.061 57.6466C216.061 58.4999 216.488 58.9266 217.341 58.9266H222.541V55.3266H217.341C216.488 55.3266 216.061 55.7532 216.061 56.6066V57.6466ZM233.653 63.7266V42.6066H245.333C249.653 42.6066 251.813 44.7666 251.813 49.0866V63.7266H246.293V48.6866C246.293 47.8332 245.867 47.4066 245.013 47.4066H239.173V63.7266H233.653ZM257.083 57.2466V49.0866C257.083 44.7666 259.243 42.6066 263.563 42.6066H271.003L273.403 44.4066V47.4066H263.883C263.03 47.4066 262.603 47.8332 262.603 48.6866V57.6466C262.603 58.4999 263.03 58.9266 263.883 58.9266H273.403V61.9266L271.003 63.7266H263.563C259.243 63.7266 257.083 61.5666 257.083 57.2466ZM261.563 67.3266H265.643C265.963 67.3266 266.123 67.1666 266.123 66.8466V61.3266H270.363V66.2866C270.363 69.5399 268.737 71.1666 265.483 71.1666H263.443L261.563 69.6866V67.3266ZM283.467 63.7266C279.147 63.7266 276.987 61.6066 276.987 57.3666C276.987 53.1266 279.147 51.0066 283.467 51.0066H288.987V48.6866C288.987 47.8332 288.56 47.4066 287.707 47.4066H279.227V44.4066L281.627 42.6066H288.027C292.347 42.6066 294.507 44.7666 294.507 49.0866V63.7266H283.467ZM282.507 57.6466C282.507 58.4999 282.933 58.9266 283.787 58.9266H288.987V55.3266H283.787C282.933 55.3266 282.507 55.7532 282.507 56.6066V57.6466Z" fill="#218738"/>
<path d="M128.78 65.7266V38.1266H135.66L143.46 54.8066L151.26 38.1266H158.14V65.7266H152.38V48.2866L145.9 62.1266H141.02L134.54 48.2866V65.7266H128.78ZM164.158 59.2466V44.6066H169.678V59.6466C169.678 60.4999 170.104 60.9266 170.958 60.9266H176.798V44.6066H182.318V65.7266H170.638C166.318 65.7266 164.158 63.5666 164.158 59.2466ZM187.748 59.2466V51.0866C187.748 46.7666 189.908 44.6066 194.228 44.6066H200.388V36.1266H205.908V65.7266H194.228C189.908 65.7266 187.748 63.5666 187.748 59.2466ZM193.268 59.6466C193.268 60.4999 193.694 60.9266 194.548 60.9266H200.388V49.4066H194.548C193.694 49.4066 193.268 49.8332 193.268 50.6866V59.6466ZM217.021 65.7266C212.701 65.7266 210.541 63.6066 210.541 59.3666C210.541 55.1266 212.701 53.0066 217.021 53.0066H222.541V50.6866C222.541 49.8332 222.115 49.4066 221.261 49.4066H212.781V46.4066L215.181 44.6066H221.581C225.901 44.6066 228.061 46.7666 228.061 51.0866V65.7266H217.021ZM216.061 59.6466C216.061 60.4999 216.488 60.9266 217.341 60.9266H222.541V57.3266H217.341C216.488 57.3266 216.061 57.7532 216.061 58.6066V59.6466ZM233.653 65.7266V44.6066H245.333C249.653 44.6066 251.813 46.7666 251.813 51.0866V65.7266H246.293V50.6866C246.293 49.8332 245.867 49.4066 245.013 49.4066H239.173V65.7266H233.653ZM257.083 59.2466V51.0866C257.083 46.7666 259.243 44.6066 263.563 44.6066H271.003L273.403 46.4066V49.4066H263.883C263.03 49.4066 262.603 49.8332 262.603 50.6866V59.6466C262.603 60.4999 263.03 60.9266 263.883 60.9266H273.403V63.9266L271.003 65.7266H263.563C259.243 65.7266 257.083 63.5666 257.083 59.2466ZM261.563 69.3266H265.643C265.963 69.3266 266.123 69.1666 266.123 68.8466V63.3266H270.363V68.2866C270.363 71.5399 268.737 73.1666 265.483 73.1666H263.443L261.563 71.6866V69.3266ZM283.467 65.7266C279.147 65.7266 276.987 63.6066 276.987 59.3666C276.987 55.1266 279.147 53.0066 283.467 53.0066H288.987V50.6866C288.987 49.8332 288.56 49.4066 287.707 49.4066H279.227V46.4066L281.627 44.6066H288.027C292.347 44.6066 294.507 46.7666 294.507 51.0866V65.7266H283.467ZM282.507 59.6466C282.507 60.4999 282.933 60.9266 283.787 60.9266H288.987V57.3266H283.787C282.933 57.3266 282.507 57.7532 282.507 58.6066V59.6466Z" fill="#4D256C"/>
<path d="M126.396 22.406L130.906 7.82H135.746L140.256 22.406L139.86 23H137.22L136.296 19.92H130.356L129.432 23H126.792L126.396 22.406ZM131.214 17.06H135.438L133.502 10.68H133.15L131.214 17.06ZM142.06 19.436V14.948C142.06 12.572 143.248 11.384 145.624 11.384H149.716L151.036 12.374V14.024H145.8C145.331 14.024 145.096 14.2587 145.096 14.728V19.656C145.096 20.1253 145.331 20.36 145.8 20.36H151.036V22.01L149.716 23H145.624C143.248 23 142.06 21.812 142.06 19.436ZM144.524 24.98H146.768C146.944 24.98 147.032 24.892 147.032 24.716V21.68H149.364V24.408C149.364 26.1973 148.47 27.092 146.68 27.092H145.558L144.524 26.278V24.98ZM156.571 23C154.195 23 153.007 21.834 153.007 19.502C153.007 17.17 154.195 16.004 156.571 16.004H159.607V14.728C159.607 14.2587 159.372 14.024 158.903 14.024H154.239V12.374L155.559 11.384H159.079C161.455 11.384 162.643 12.572 162.643 14.948V23H156.571ZM156.043 19.656C156.043 20.1253 156.278 20.36 156.747 20.36H159.607V18.38H156.747C156.278 18.38 156.043 18.6147 156.043 19.084V19.656ZM154.217 8.656L155.735 7.138C156.014 6.85933 156.41 6.72 156.923 6.72C157.436 6.72 157.832 6.85933 158.111 7.138L159.167 8.194C159.211 8.238 159.255 8.26 159.299 8.26C159.343 8.26 159.387 8.238 159.431 8.194L160.707 6.918L162.005 8.216L160.487 9.734C160.208 10.0127 159.812 10.152 159.299 10.152C158.786 10.152 158.39 10.0127 158.111 9.734L157.055 8.678C157.011 8.634 156.967 8.612 156.923 8.612C156.879 8.612 156.835 8.634 156.791 8.678L155.515 9.954L154.217 8.656ZM165.543 19.436V14.948C165.543 12.572 166.731 11.384 169.107 11.384H172.187C174.563 11.384 175.751 12.572 175.751 14.948V19.436C175.751 21.812 174.563 23 172.187 23H169.107C166.731 23 165.543 21.812 165.543 19.436ZM168.579 19.656C168.579 20.1253 168.813 20.36 169.283 20.36H172.011C172.48 20.36 172.715 20.1253 172.715 19.656V14.728C172.715 14.2587 172.48 14.024 172.011 14.024H169.283C168.813 14.024 168.579 14.2587 168.579 14.728V19.656ZM183.847 19.436V14.948C183.847 12.572 185.035 11.384 187.411 11.384H191.503L192.823 12.374V14.024H187.587C187.118 14.024 186.883 14.2587 186.883 14.728V19.656C186.883 20.1253 187.118 20.36 187.587 20.36H192.823V22.01L191.503 23H187.411C185.035 23 183.847 21.812 183.847 19.436ZM195.234 19.436V14.948C195.234 12.572 196.422 11.384 198.798 11.384H201.878C204.254 11.384 205.442 12.572 205.442 14.948V19.436C205.442 21.812 204.254 23 201.878 23H198.798C196.422 23 195.234 21.812 195.234 19.436ZM198.27 19.656C198.27 20.1253 198.505 20.36 198.974 20.36H201.702C202.172 20.36 202.406 20.1253 202.406 19.656V14.728C202.406 14.2587 202.172 14.024 201.702 14.024H198.974C198.505 14.024 198.27 14.2587 198.27 14.728V19.656ZM208.43 23V11.384H214.854C217.23 11.384 218.418 12.572 218.418 14.948V23H215.382V14.728C215.382 14.2587 215.147 14.024 214.678 14.024H211.466V23H208.43ZM221.404 19.436V7.82H224.44V11.384H228.224V14.024H224.44V19.656C224.44 20.1253 224.675 20.36 225.144 20.36H228.444V22.01L227.124 23H224.968C222.592 23 221.404 21.812 221.404 19.436ZM230.728 23V12.88C231.271 11.8827 232.312 11.384 233.852 11.384H236.228L237.548 12.374V14.024H234.578C234.182 14.024 233.911 14.1193 233.764 14.31V23H230.728ZM242.444 23C240.068 23 238.88 21.834 238.88 19.502C238.88 17.17 240.068 16.004 242.444 16.004H245.48V14.728C245.48 14.2587 245.245 14.024 244.776 14.024H240.112V12.374L241.432 11.384H244.952C247.328 11.384 248.516 12.572 248.516 14.948V23H242.444ZM241.916 19.656C241.916 20.1253 242.151 20.36 242.62 20.36H245.48V18.38H242.62C242.151 18.38 241.916 18.6147 241.916 19.084V19.656ZM259.825 23C257.449 23 256.261 21.834 256.261 19.502C256.261 17.17 257.449 16.004 259.825 16.004H262.861V14.728C262.861 14.2587 262.626 14.024 262.157 14.024H257.493V12.374L258.813 11.384H262.333C264.709 11.384 265.897 12.572 265.897 14.948V23H259.825ZM259.297 19.656C259.297 20.1253 259.532 20.36 260.001 20.36H262.861V18.38H260.001C259.532 18.38 259.297 18.6147 259.297 19.084V19.656Z" fill="#218738"/>
<path d="M113.227 57.5781C75.0879 20.3425 36.1283 23.2389 2.5 57.5781C2.5 57.5781 26.2859 89.4366 60.7343 86.5404C95.1828 83.6443 113.227 57.5781 113.227 57.5781Z" fill="#4D256C" stroke="#4D256C"/>
<path d="M80.7393 58.3265C80.7393 70.6308 70.5093 80.6265 57.8635 80.6265C45.2178 80.6265 34.9878 70.6308 34.9878 58.3265C34.9878 46.0222 45.2178 36.0265 57.8635 36.0265C70.5093 36.0265 80.7393 46.0222 80.7393 58.3265Z" fill="#F9F9F9" stroke="#4D256C"/>
<path d="M44.3301 71.9265C44.3301 74.3265 44.7402 75.1265 45.5604 75.9265C46.3806 76.7265 49.7168 73.1936 50.4816 71.9265C51.2464 70.6594 51.1885 70.3826 52.9422 69.5265C54.6958 68.6704 54.9927 65.1265 54.9927 65.1265L54.1725 63.1265L52.9422 61.5265L50.4816 59.5265C49.9989 58.7107 50.0819 58.3808 51.7119 58.3265L54.9927 60.3265C56.705 60.509 56.7916 59.826 56.6331 58.3265L52.9422 54.7265C52.4507 53.8266 52.9524 53.8326 54.5826 54.3265L58.6836 58.3265C60.0372 59.5391 61.5543 59.9265 61.9644 60.3265C62.3745 60.7265 60.7341 61.9265 61.1442 62.3265C61.5543 62.7265 63.1947 62.3265 63.1947 62.3265L65.6553 60.3265C66.9879 60.1499 64.5074 58.8011 64.425 57.5265C64.3426 56.2519 66.0477 55.5681 67.2957 56.7265C68.5437 57.8849 69.3462 62.3265 69.3462 62.3265C70.1467 63.7119 70.7205 64.0213 71.8068 64.3265H75.9078C76.8382 63.8578 77.1196 63.5953 75.9078 63.1265H72.627C71.7756 61.9141 70.9866 59.9265 71.8068 59.5265C72.627 59.1265 74.2674 58.7265 75.0876 58.3265C75.9078 57.9265 74.6775 55.5265 75.9078 55.5265C77.0077 55.5265 80.0743 55.0054 80.4189 54.8949V54.8745C80.4624 54.8745 80.4598 54.8818 80.4189 54.8949V56.8745L79.1886 57.6745L77.5482 58.4745V60.0745L77.9583 61.2745L80.0088 63.2745L79.1886 65.6745L77.1381 65.2745C77.1381 65.2745 75.4977 65.2745 74.6775 65.6745C73.8573 66.0745 72.627 67.2745 72.2169 67.2745H70.1664C68.526 67.2745 66.8856 70.4745 66.8856 70.8745C66.8856 71.2745 69.1626 74.6952 69.3462 74.8745C69.5298 75.0538 70.6764 74.9743 71.8068 76.0745C71.8068 76.0745 67.2957 76.2225 66.4755 76.4745C65.6553 76.7265 64.425 77.6745 63.1947 78.0745C61.9644 78.4745 59.0937 76.8745 58.2735 76.8745C57.4533 76.8745 54.9927 77.2745 52.9422 77.2745C50.8917 77.2745 49.2513 79.2745 49.2513 79.2745C42.5845 76.3004 39.9261 73.2911 36.9482 67.1265C38.3676 67.1435 39.2404 66.6128 41.4594 67.9265C41.4594 67.9265 44.3301 69.5265 44.3301 71.9265Z" fill="#4D256C" stroke="#4D256C" stroke-width="0.1"/>
<path d="M39.8192 53.1265C38.999 52.7265 35.3081 54.3265 35.3081 54.3265V56.8746C35.7535 56.3446 36.1242 55.5381 36.9485 55.1265C36.9485 55.1265 39.4091 54.3265 40.2293 55.1265C41.0495 55.9265 43.9202 55.9266 45.1505 56.3265C46.3808 56.7265 46.7909 55.1265 46.3808 54.3265C45.9707 53.5265 43.5101 53.5266 43.5101 53.5266C43.5101 53.5266 40.6394 53.5265 39.8192 53.1265Z" fill="#4D256C" stroke="#4D256C"/>
<path d="M39.4092 51.1268C37.3587 52.3268 35.7183 52.3268 35.7183 52.3268C35.7183 52.3268 36.9486 47.2748 41.8698 42.4748C46.791 37.6748 52.9425 36.7268 52.9425 36.7268C52.9425 36.7268 53.7627 38.3268 53.3526 38.3268C52.9425 38.3268 52.1223 37.9268 50.892 38.3268L49.6617 38.7268L47.2011 39.1268C46.3735 39.6189 46.1643 39.8272 46.791 39.9268H52.5324C53.3526 39.9268 53.5185 41.0338 52.9425 41.9268C52.9425 41.9268 55.8132 43.5268 55.4031 43.9268C54.993 44.3268 54.1728 44.7268 52.9425 45.5268C51.7122 46.3268 51.3021 46.7268 51.3021 46.7268C50.1941 46.6631 49.9415 46.4403 50.4819 45.5268L52.5324 44.7268C52.5324 44.7268 52.9425 43.9268 52.9425 43.5268C52.9425 43.1268 50.4819 43.5268 50.4819 43.5268C49.9679 43.7826 50.0718 44.3268 49.6617 44.7268C49.2516 45.1268 45.9981 44.2494 43.9203 44.7268C42.4793 45.515 43.1724 46.3554 43.1001 46.3268C43.0278 46.2982 43.0157 47.0948 43.9203 47.5268L46.791 46.7268C46.791 46.7268 48.4314 46.3268 48.8415 46.3268C49.2516 46.3268 48.8415 47.5268 48.8415 47.5268C48.8415 47.5268 48.6836 48.2581 48.4314 48.7268C47.7851 48.7939 47.2096 48.8693 45.5607 49.1268C42.9339 49.5134 42.4293 49.5122 41.4597 49.5268C40.3873 49.7754 41.4597 49.9268 39.4092 51.1268Z" fill="#4D256C" stroke="#4D256C" stroke-width="0.1"/>
<path d="M53.7626 77.1265C52.1222 77.1265 49.6616 78.8746 49.6616 79.2746C49.6616 79.6746 55.403 80.8746 60.7343 80.4746C66.0657 80.0746 71.6766 76.435 71.397 76.3265H66.8859C66.0657 76.3265 64.4253 78.3265 63.195 78.3265C61.9647 78.3265 60.3242 77.5265 59.0939 77.1265C57.8636 76.7265 55.403 77.1265 53.7626 77.1265Z" fill="#F9F9F9" stroke="#4D256C"/>
<path d="M68.9363 74.3272C69.9701 74.7038 70.9868 76.8752 73.8574 74.0752C76.7281 71.2752 78.2363 69.4952 79.1887 66.2232C79.1887 66.2232 79.5988 66.0751 77.1382 65.6751C74.6775 65.2752 73.4473 67.5272 71.3968 67.1272C69.3464 66.7272 67.4925 69.9017 67.2959 70.7272C67.0993 71.5526 67.9025 73.9506 68.9363 74.3272Z" stroke="#4D256C"/>
</svg>
