<svg width="256" height="92" viewBox="0 0 256 92" fill="none" xmlns="http://www.w3.org/2000/svg">
<line x1="88" y1="90" x2="178" y2="90" stroke="#4D256C" stroke-width="4"/>
<path d="M118.304 71.2779V54.3819H137.568C141.024 54.3819 142.752 56.1099 142.752 59.5659V71.2779H138.336V59.2459C138.336 58.5632 137.995 58.2219 137.312 58.2219H132.736V71.2779H128.32V58.2219H122.72V71.2779H118.304ZM151.53 71.2779C148.074 71.2779 146.346 69.5819 146.346 66.1899C146.346 62.7979 148.074 61.1019 151.53 61.1019H155.946V59.2459C155.946 58.5632 155.604 58.2219 154.922 58.2219H148.138V55.8219L150.058 54.3819H155.178C158.634 54.3819 160.362 56.1099 160.362 59.5659V71.2779H151.53ZM150.762 66.4139C150.762 67.0966 151.103 67.4379 151.786 67.4379H155.946V64.5579H151.786C151.103 64.5579 150.762 64.8992 150.762 65.5819V66.4139ZM164.835 71.2779V54.3819H174.179C177.635 54.3819 179.363 56.1099 179.363 59.5659V71.2779H174.947V59.2459C174.947 58.5632 174.606 58.2219 173.923 58.2219H169.251V71.2779H164.835ZM183.579 66.0939V59.5659C183.579 56.1099 185.307 54.3819 188.763 54.3819H193.691V47.5979H198.107V71.2779H188.763C185.307 71.2779 183.579 69.5499 183.579 66.0939ZM187.995 66.4139C187.995 67.0966 188.337 67.4379 189.019 67.4379H193.691V58.2219H189.019C188.337 58.2219 187.995 58.5632 187.995 59.2459V66.4139ZM206.998 71.2779C203.542 71.2779 201.814 69.5819 201.814 66.1899C201.814 62.7979 203.542 61.1019 206.998 61.1019H211.414V59.2459C211.414 58.5632 211.073 58.2219 210.39 58.2219H203.606V55.8219L205.526 54.3819H210.646C214.102 54.3819 215.83 56.1099 215.83 59.5659V71.2779H206.998ZM206.23 66.4139C206.23 67.0966 206.572 67.4379 207.254 67.4379H211.414V64.5579H207.254C206.572 64.5579 206.23 64.8992 206.23 65.5819V66.4139ZM220.176 66.0939V49.1979H224.592V54.3819H230.096V58.2219H224.592V66.4139C224.592 67.0966 224.933 67.4379 225.616 67.4379H230.416V69.8379L228.496 71.2779H225.36C221.904 71.2779 220.176 69.5499 220.176 66.0939ZM233.611 66.0939V59.5659C233.611 56.1099 235.339 54.3819 238.795 54.3819H243.275C246.731 54.3819 248.458 56.1099 248.458 59.5659V66.0939C248.458 69.5499 246.731 71.2779 243.275 71.2779H238.795C235.339 71.2779 233.611 69.5499 233.611 66.0939ZM238.027 66.4139C238.027 67.0966 238.368 67.4379 239.051 67.4379H243.019C243.701 67.4379 244.043 67.0966 244.043 66.4139V59.2459C244.043 58.5632 243.701 58.2219 243.019 58.2219H239.051C238.368 58.2219 238.027 58.5632 238.027 59.2459V66.4139Z" fill="#218738"/>
<path d="M80.28 36.5357V8.93572H86.52L97.48 27.0557V8.93572H103.24V36.5357H97L86.04 18.4157V36.5357H80.28ZM109.091 30.0557V21.8957C109.091 17.5757 111.251 15.4157 115.571 15.4157H121.171C125.491 15.4157 127.651 17.5757 127.651 21.8957V30.0557C127.651 34.3757 125.491 36.5357 121.171 36.5357H115.571C111.251 36.5357 109.091 34.3757 109.091 30.0557ZM114.611 30.4557C114.611 31.3091 115.038 31.7357 115.891 31.7357H120.851C121.705 31.7357 122.131 31.3091 122.131 30.4557V21.4957C122.131 20.6424 121.705 20.2157 120.851 20.2157H115.891C115.038 20.2157 114.611 20.6424 114.611 21.4957V30.4557ZM132.363 34.7357V31.7357H141.563C142.47 31.7357 142.923 31.2291 142.923 30.2157C142.923 29.1757 142.523 28.5891 141.723 28.4557L137.403 27.7357C134.043 27.1757 132.363 25.2291 132.363 21.8957C132.363 17.5757 134.523 15.4157 138.843 15.4157H145.043L147.443 17.2157V20.2157H139.203C138.296 20.2157 137.843 20.7224 137.843 21.7357C137.843 22.7757 138.243 23.3624 139.043 23.4957L143.363 24.2157C146.723 24.7757 148.403 26.7224 148.403 30.0557C148.403 34.3757 146.243 36.5357 141.923 36.5357H134.763L132.363 34.7357ZM152.676 34.7357V31.7357H161.876C162.782 31.7357 163.236 31.2291 163.236 30.2157C163.236 29.1757 162.836 28.5891 162.036 28.4557L157.716 27.7357C154.356 27.1757 152.676 25.2291 152.676 21.8957C152.676 17.5757 154.836 15.4157 159.156 15.4157H165.356L167.756 17.2157V20.2157H159.516C158.609 20.2157 158.156 20.7224 158.156 21.7357C158.156 22.7757 158.556 23.3624 159.356 23.4957L163.676 24.2157C167.036 24.7757 168.716 26.7224 168.716 30.0557C168.716 34.3757 166.556 36.5357 162.236 36.5357H155.076L152.676 34.7357ZM173.388 30.0557V21.8957C173.388 17.5757 175.548 15.4157 179.868 15.4157H185.468C189.788 15.4157 191.948 17.5757 191.948 21.8957V30.0557C191.948 34.3757 189.788 36.5357 185.468 36.5357H179.868C175.548 36.5357 173.388 34.3757 173.388 30.0557ZM178.908 30.4557C178.908 31.3091 179.335 31.7357 180.188 31.7357H185.148C186.001 31.7357 186.428 31.3091 186.428 30.4557V21.4957C186.428 20.6424 186.001 20.2157 185.148 20.2157H180.188C179.335 20.2157 178.908 20.6424 178.908 21.4957V30.4557Z" fill="#218738"/>
<path d="M80.28 38.5759V10.9758H86.52L97.48 29.0959V10.9758H103.24V38.5759H97L86.04 20.4559V38.5759H80.28ZM109.091 32.0959V23.9359C109.091 19.6159 111.251 17.4559 115.571 17.4559H121.171C125.491 17.4559 127.651 19.6159 127.651 23.9359V32.0959C127.651 36.4159 125.491 38.5759 121.171 38.5759H115.571C111.251 38.5759 109.091 36.4159 109.091 32.0959ZM114.611 32.4959C114.611 33.3492 115.038 33.7759 115.891 33.7759H120.851C121.705 33.7759 122.131 33.3492 122.131 32.4959V23.5359C122.131 22.6825 121.705 22.2559 120.851 22.2559H115.891C115.038 22.2559 114.611 22.6825 114.611 23.5359V32.4959ZM132.363 36.7759V33.7759H141.563C142.47 33.7759 142.923 33.2692 142.923 32.2559C142.923 31.2159 142.523 30.6292 141.723 30.4959L137.403 29.7759C134.043 29.2159 132.363 27.2692 132.363 23.9359C132.363 19.6159 134.523 17.4559 138.843 17.4559H145.043L147.443 19.2559V22.2559H139.203C138.296 22.2559 137.843 22.7625 137.843 23.7759C137.843 24.8159 138.243 25.4025 139.043 25.5359L143.363 26.2559C146.723 26.8159 148.403 28.7625 148.403 32.0959C148.403 36.4159 146.243 38.5759 141.923 38.5759H134.763L132.363 36.7759ZM152.676 36.7759V33.7759H161.876C162.782 33.7759 163.236 33.2692 163.236 32.2559C163.236 31.2159 162.836 30.6292 162.036 30.4959L157.716 29.7759C154.356 29.2159 152.676 27.2692 152.676 23.9359C152.676 19.6159 154.836 17.4559 159.156 17.4559H165.356L167.756 19.2559V22.2559H159.516C158.609 22.2559 158.156 22.7625 158.156 23.7759C158.156 24.8159 158.556 25.4025 159.356 25.5359L163.676 26.2559C167.036 26.8159 168.716 28.7625 168.716 32.0959C168.716 36.4159 166.556 38.5759 162.236 38.5759H155.076L152.676 36.7759ZM173.388 32.0959V23.9359C173.388 19.6159 175.548 17.4559 179.868 17.4559H185.468C189.788 17.4559 191.948 19.6159 191.948 23.9359V32.0959C191.948 36.4159 189.788 38.5759 185.468 38.5759H179.868C175.548 38.5759 173.388 36.4159 173.388 32.0959ZM178.908 32.4959C178.908 33.3492 179.335 33.7759 180.188 33.7759H185.148C186.001 33.7759 186.428 33.3492 186.428 32.4959V23.5359C186.428 22.6825 186.001 22.2559 185.148 22.2559H180.188C179.335 22.2559 178.908 22.6825 178.908 23.5359V32.4959Z" fill="#4D256C"/>
<path d="M22.8761 51.2828H44.8696V60.4109H22.8761V51.2828Z" fill="#218738"/>
<path d="M1 77H66V81H1V77Z" fill="#218738"/>
<path d="M42.9238 27.6457C42.9238 26.1697 41.6786 24.9733 40.1425 24.9733H29.3411V27.7138H36.179C36.2091 27.6911 42.8923 27.6684 42.9238 27.6457Z" fill="#218738"/>
<path d="M70.6169 13.9949L62.6004 6.29243L67.7647 11.2544C68.0653 11.5433 68.0676 12.0129 67.7647 12.304L61.2969 18.5184C60.9967 18.8069 60.5047 18.8073 60.2045 18.5184L57.6562 16.07L53.6005 25.2786C53.2809 26.0055 52.7375 26.6064 52.0329 27.0159L40.7089 33.545C39.775 34.0854 38.6493 34.2799 37.6005 34.0017C37.5931 33.9999 37.5857 33.9977 37.5783 33.9955C37.7177 34.4263 37.9336 34.7886 38.118 35.0477L38.3746 35.3748C38.3857 35.3904 38.3991 35.4038 38.413 35.422C38.924 36.0701 39.623 36.5268 40.4532 36.7422C41.502 37.0204 42.6272 36.8263 43.5615 36.2855L54.8851 29.7563C55.5897 29.3468 56.1331 28.746 56.4527 28.0191L60.5084 18.8104L63.0567 21.2589C63.3574 21.5474 63.8489 21.5474 64.149 21.2589L70.6169 15.0444C70.9198 14.7533 70.9175 14.2838 70.6169 13.9949Z" fill="#218738"/>
<path d="M62.4629 13.4225C61.8125 14.0474 61.8125 15.061 62.4629 15.6863C63.1133 16.3112 64.1681 16.3112 64.8185 15.6863C65.4689 15.0614 65.4689 14.0479 64.8185 13.423C64.1681 12.7976 63.1133 12.7976 62.4629 13.4225Z" fill="#218738"/>
<path d="M71.4354 13.2084L58.2547 0.543468C57.8902 0.193173 57.4051 0 56.89 0C56.3744 0 55.8894 0.193173 55.5248 0.543468L49.057 6.75797C48.3042 7.48125 48.3042 8.6581 49.057 9.38139L49.1117 9.43436L30.4448 20.2677C30.2057 20.407 29.9778 20.5672 29.767 20.7448C28.7609 21.5927 28.1837 22.8742 28.1837 24.2598V26.601H22.8772C22.2375 26.601 21.7191 27.0991 21.7191 27.7138V59.2986H18.947C18.3073 59.2986 17.7889 59.7966 17.7889 60.4113C17.7889 61.026 18.3073 61.5241 18.947 61.5241H48.4238C49.0635 61.5241 49.5819 61.026 49.5819 60.4113C49.5819 59.7966 49.0635 59.2986 48.4238 59.2986H46.0288V45.561C46.4059 45.6593 46.7973 45.7141 47.1985 45.7141C48.3867 45.7141 49.5045 45.269 50.3448 44.4616C50.9651 43.8656 51.3598 43.1352 51.5368 42.3674C52.0936 42.6024 52.6986 42.7292 53.3249 42.7292C54.5136 42.7292 55.6314 42.2841 56.4712 41.4767C57.3116 40.6693 57.7748 39.5953 57.7748 38.4532C57.7748 37.311 57.3116 36.237 56.4485 35.4082L52.9135 32.1915L55.4841 30.7093C56.4008 30.1769 57.104 29.3962 57.5191 28.4535L60.9054 20.7662L62.2382 22.0467C62.6018 22.3966 63.0868 22.5893 63.6034 22.5893C64.1194 22.5893 64.6044 22.3966 64.9681 22.0467L71.4354 15.8322C72.1882 15.1085 72.1882 13.9317 71.4354 13.2084ZM24.0353 59.2986V28.8265H39.372C39.0463 29.0566 38.7276 29.2832 38.4325 29.4946C35.6632 31.4793 35.9611 33.9892 37.1627 35.6766C37.1725 35.6904 37.1831 35.7042 37.1933 35.7176L37.4393 36.0314C37.4574 36.0558 37.4754 36.0776 37.4893 36.0941C38.1578 36.9429 39.0787 37.5389 40.1446 37.8153C40.5616 37.9257 40.9933 37.98 41.4283 37.98C42.2042 37.98 42.9857 37.7971 43.7121 37.4601V59.299H24.0353V59.2986ZM48.7073 42.8877C47.9804 43.5856 46.8566 43.6737 46.0288 43.1521V37.4891L48.9986 40.3426C49.5203 41.1349 49.4253 42.1973 48.7073 42.8877ZM54.8332 37.0026C55.2362 37.3898 55.4586 37.9048 55.4586 38.4527C55.4586 39.0006 55.2367 39.5152 54.8327 39.9024C54.4302 40.2896 53.8947 40.5033 53.3244 40.5033C52.7546 40.5033 52.2187 40.2901 51.8156 39.9024L50.7743 38.9018C50.6441 38.7322 50.5042 38.568 50.3448 38.4144L47.2601 35.4505L50.8516 33.3799L54.8332 37.0026ZM63.6029 20.2102L61.3339 18.0301C61.3316 18.0279 61.3302 18.0252 61.3279 18.023L54.1217 11.0995C53.6691 10.6646 52.9362 10.6646 52.4841 11.0995C52.0315 11.5343 52.0315 12.2389 52.4841 12.6729L59.1381 19.0659L55.3854 27.586C55.1616 28.0948 54.7813 28.5158 54.2889 28.802L42.964 35.3321C42.2695 35.7331 41.4667 35.8569 40.7543 35.6673C40.1738 35.5168 39.6967 35.2084 39.3548 34.7748C39.3363 34.7499 39.3182 34.7277 39.2997 34.7054L39.0597 34.3992C37.9794 32.8627 38.9736 31.8826 39.8171 31.2777C40.8238 30.5562 42.0935 29.6695 43.0492 29.0019L43.606 28.6129C43.6292 28.5968 43.6468 28.5768 43.6685 28.5595C43.6996 28.5341 43.7315 28.5096 43.7598 28.4811C43.7867 28.454 43.8098 28.4246 43.8335 28.3957C43.8557 28.3681 43.8789 28.3414 43.8983 28.312C43.9196 28.2804 43.9363 28.247 43.9539 28.2136C43.9706 28.1824 43.9873 28.1517 44.0007 28.1192C44.0151 28.0845 44.0248 28.0485 44.035 28.0124C44.0447 27.979 44.0554 27.9465 44.0618 27.9118C44.0697 27.8704 44.072 27.8281 44.0748 27.7859C44.0767 27.7614 44.0822 27.7378 44.0822 27.7129C44.0822 27.7066 44.0804 27.7008 44.0804 27.6946C44.0799 27.6501 44.073 27.606 44.0665 27.5615C44.0623 27.5326 44.0609 27.5032 44.0544 27.4752C44.0461 27.4378 44.0317 27.4022 44.0188 27.3657C44.0072 27.3323 43.9984 27.2985 43.9836 27.2669C43.9701 27.2375 43.9516 27.2099 43.9354 27.1819C43.9145 27.1458 43.8951 27.1089 43.8705 27.0755C43.8664 27.0701 43.864 27.0639 43.8599 27.0581C43.8432 27.0359 43.8223 27.0185 43.8038 26.998C43.7774 26.9682 43.7519 26.9375 43.7223 26.9108C43.694 26.885 43.6639 26.8632 43.6333 26.8405C43.6046 26.8187 43.5768 26.7969 43.5458 26.7777C43.5134 26.7577 43.4791 26.7417 43.4448 26.7252C43.4119 26.7092 43.3795 26.6927 43.3452 26.6793C43.3095 26.666 43.2729 26.6566 43.2363 26.6469C43.2007 26.6371 43.1659 26.6268 43.1293 26.6206C43.0872 26.613 43.0446 26.6112 43.0019 26.6081C42.9755 26.6063 42.9501 26.6006 42.9232 26.6006H30.498V24.2593C30.498 23.5142 30.7876 22.8426 31.2925 22.4166C31.4009 22.3254 31.5181 22.2426 31.6404 22.1714L51.5734 10.6036C51.8777 10.4269 52.0811 10.1252 52.1242 9.78554C52.1672 9.44593 52.0454 9.10632 51.7934 8.86463L50.9656 8.06879L56.8877 2.37862L69.5232 14.5196L63.6029 20.2102Z" fill="#4D256C"/>
<path d="M65.8483 54H49.2308C48.5946 54 48.0791 54.4189 48.0791 54.9359C48.0791 55.4529 48.5946 55.8718 49.2308 55.8718H64.6965V63.7204H2.3035V55.8718H18.1442C18.7804 55.8718 19.2959 55.4529 19.2959 54.9359C19.2959 54.4189 18.7804 54 18.1442 54H1.15175C0.515523 54 0 54.4189 0 54.9359V64.6563V82.0641C0 82.5811 0.515523 83 1.15175 83H65.8483C66.4845 83 67 82.5811 67 82.0641V64.6563V54.9359C67 54.4193 66.4845 54 65.8483 54ZM64.6965 81.1282H2.3035V65.5922H64.6965V81.1282Z" fill="#4D256C"/>
<path d="M36.4121 43.2109H35.5102C36.7007 42.6215 37.5026 41.4095 37.4502 40.023C37.3835 38.2582 35.8784 36.7974 34.0421 36.7159C31.9886 36.6251 30.2936 38.1981 30.2936 40.1512C30.2936 41.4839 31.0825 42.6393 32.2359 43.2104H31.334C29.242 43.2104 27.5465 44.8395 27.5465 46.8496V52.0305C27.5465 52.2833 27.7601 52.4885 28.0232 52.4885H39.7229C39.986 52.4885 40.1996 52.2833 40.1996 52.0305V46.8496C40.1996 44.8404 38.5036 43.2109 36.4121 43.2109Z" fill="#218738"/>
</svg>
