<svg width="164" height="168" viewBox="0 0 164 168" fill="none" xmlns="http://www.w3.org/2000/svg">
<g filter="url(#filter0_d_373_2442)">
<rect x="4" width="156" height="160" rx="16" fill="#F9F9F9"/>
</g>
<path d="M4 16C4 7.16344 11.1634 0 20 0H144C152.837 0 160 7.16344 160 16V104H20C11.1634 104 4 96.8366 4 88V16Z" fill="#F89D29"/>
<path d="M17.0223 122.613C17.125 122.613 17.216 122.653 17.2953 122.732L18.0373 123.537C17.6267 124.046 17.1203 124.435 16.5183 124.706C15.921 124.977 15.2023 125.112 14.3623 125.112C13.611 125.112 12.9343 124.984 12.3323 124.727C11.735 124.47 11.224 124.113 10.7993 123.656C10.3747 123.199 10.048 122.653 9.81934 122.018C9.59534 121.383 9.48334 120.69 9.48334 119.939C9.48334 119.178 9.60467 118.483 9.84734 117.853C10.09 117.218 10.4307 116.672 10.8693 116.215C11.3127 115.758 11.84 115.403 12.4513 115.151C13.0627 114.894 13.7393 114.766 14.4813 114.766C15.2187 114.766 15.872 114.887 16.4413 115.13C17.0153 115.373 17.503 115.69 17.9043 116.082L17.2743 116.957C17.237 117.013 17.188 117.062 17.1273 117.104C17.0713 117.146 16.992 117.167 16.8893 117.167C16.8193 117.167 16.747 117.148 16.6723 117.111C16.5977 117.069 16.516 117.02 16.4273 116.964C16.3387 116.903 16.236 116.838 16.1193 116.768C16.0027 116.698 15.8673 116.635 15.7133 116.579C15.5593 116.518 15.3797 116.469 15.1743 116.432C14.9737 116.39 14.7403 116.369 14.4743 116.369C14.0217 116.369 13.6063 116.451 13.2283 116.614C12.855 116.773 12.533 117.006 12.2623 117.314C11.9917 117.617 11.7817 117.991 11.6323 118.434C11.483 118.873 11.4083 119.374 11.4083 119.939C11.4083 120.508 11.4877 121.015 11.6463 121.458C11.8097 121.901 12.029 122.275 12.3043 122.578C12.5797 122.881 12.904 123.115 13.2773 123.278C13.6507 123.437 14.052 123.516 14.4813 123.516C14.738 123.516 14.969 123.502 15.1743 123.474C15.3843 123.446 15.5757 123.402 15.7483 123.341C15.9257 123.28 16.0913 123.203 16.2453 123.11C16.404 123.012 16.5603 122.893 16.7143 122.753C16.761 122.711 16.81 122.678 16.8613 122.655C16.9127 122.627 16.9663 122.613 17.0223 122.613ZM20.8462 117.818V125H19.1102V117.818H20.8462ZM21.0842 115.725C21.0842 115.874 21.0539 116.014 20.9932 116.145C20.9325 116.276 20.8509 116.39 20.7482 116.488C20.6502 116.586 20.5335 116.665 20.3982 116.726C20.2629 116.782 20.1182 116.81 19.9642 116.81C19.8149 116.81 19.6725 116.782 19.5372 116.726C19.4065 116.665 19.2922 116.586 19.1942 116.488C19.0962 116.39 19.0169 116.276 18.9562 116.145C18.9002 116.014 18.8722 115.874 18.8722 115.725C18.8722 115.571 18.9002 115.426 18.9562 115.291C19.0169 115.156 19.0962 115.039 19.1942 114.941C19.2922 114.843 19.4065 114.766 19.5372 114.71C19.6725 114.649 19.8149 114.619 19.9642 114.619C20.1182 114.619 20.2629 114.649 20.3982 114.71C20.5335 114.766 20.6502 114.843 20.7482 114.941C20.8509 115.039 20.9325 115.156 20.9932 115.291C21.0539 115.426 21.0842 115.571 21.0842 115.725ZM27.1169 119.652C26.9209 119.414 26.7062 119.246 26.4729 119.148C26.2442 119.05 25.9969 119.001 25.7309 119.001C25.4695 119.001 25.2339 119.05 25.0239 119.148C24.8139 119.246 24.6342 119.395 24.4849 119.596C24.3355 119.792 24.2212 120.044 24.1419 120.352C24.0625 120.655 24.0229 121.015 24.0229 121.43C24.0229 121.85 24.0555 122.207 24.1209 122.501C24.1909 122.79 24.2889 123.028 24.4149 123.215C24.5409 123.397 24.6949 123.53 24.8769 123.614C25.0589 123.693 25.2619 123.733 25.4859 123.733C25.8452 123.733 26.1509 123.658 26.4029 123.509C26.6549 123.36 26.8929 123.147 27.1169 122.872V119.652ZM28.8459 114.598V125H27.7889C27.5602 125 27.4155 124.895 27.3549 124.685L27.2079 123.992C26.9185 124.323 26.5849 124.592 26.2069 124.797C25.8335 125.002 25.3972 125.105 24.8979 125.105C24.5059 125.105 24.1465 125.023 23.8199 124.86C23.4932 124.697 23.2109 124.461 22.9729 124.153C22.7395 123.84 22.5575 123.455 22.4269 122.998C22.3009 122.541 22.2379 122.018 22.2379 121.43C22.2379 120.898 22.3102 120.403 22.4549 119.946C22.5995 119.489 22.8072 119.092 23.0779 118.756C23.3485 118.42 23.6729 118.159 24.0509 117.972C24.4289 117.781 24.8535 117.685 25.3249 117.685C25.7262 117.685 26.0692 117.748 26.3539 117.874C26.6385 118 26.8929 118.17 27.1169 118.385V114.598H28.8459ZM34.3462 121.934C33.8469 121.957 33.4269 122.002 33.0862 122.067C32.7456 122.128 32.4726 122.207 32.2672 122.305C32.0619 122.403 31.9149 122.517 31.8262 122.648C31.7376 122.779 31.6932 122.921 31.6932 123.075C31.6932 123.378 31.7819 123.595 31.9592 123.726C32.1412 123.857 32.3769 123.922 32.6662 123.922C33.0209 123.922 33.3266 123.859 33.5832 123.733C33.8446 123.602 34.0989 123.406 34.3462 123.145V121.934ZM30.3842 118.819C31.2102 118.063 32.2042 117.685 33.3662 117.685C33.7862 117.685 34.1619 117.755 34.4932 117.895C34.8246 118.03 35.1046 118.222 35.3332 118.469C35.5619 118.712 35.7346 119.003 35.8512 119.344C35.9726 119.685 36.0332 120.058 36.0332 120.464V125H35.2492C35.0859 125 34.9599 124.977 34.8712 124.93C34.7826 124.879 34.7126 124.778 34.6612 124.629L34.5072 124.111C34.3252 124.274 34.1479 124.419 33.9752 124.545C33.8026 124.666 33.6229 124.769 33.4362 124.853C33.2496 124.937 33.0489 125 32.8342 125.042C32.6242 125.089 32.3909 125.112 32.1342 125.112C31.8309 125.112 31.5509 125.072 31.2942 124.993C31.0376 124.909 30.8159 124.785 30.6292 124.622C30.4426 124.459 30.2979 124.256 30.1952 124.013C30.0926 123.77 30.0412 123.488 30.0412 123.166C30.0412 122.984 30.0716 122.804 30.1322 122.627C30.1929 122.445 30.2909 122.272 30.4262 122.109C30.5662 121.946 30.7459 121.792 30.9652 121.647C31.1846 121.502 31.4529 121.376 31.7702 121.269C32.0922 121.162 32.4656 121.075 32.8902 121.01C33.3149 120.94 33.8002 120.898 34.3462 120.884V120.464C34.3462 119.983 34.2436 119.629 34.0382 119.4C33.8329 119.167 33.5366 119.05 33.1492 119.05C32.8692 119.05 32.6359 119.083 32.4492 119.148C32.2672 119.213 32.1062 119.288 31.9662 119.372C31.8262 119.451 31.6979 119.524 31.5812 119.589C31.4692 119.654 31.3432 119.687 31.2032 119.687C31.0819 119.687 30.9792 119.657 30.8952 119.596C30.8112 119.531 30.7436 119.456 30.6922 119.372L30.3842 118.819ZM42.1696 119.652C41.9736 119.414 41.759 119.246 41.5256 119.148C41.297 119.05 41.0496 119.001 40.7836 119.001C40.5223 119.001 40.2866 119.05 40.0766 119.148C39.8666 119.246 39.687 119.395 39.5376 119.596C39.3883 119.792 39.274 120.044 39.1946 120.352C39.1153 120.655 39.0756 121.015 39.0756 121.43C39.0756 121.85 39.1083 122.207 39.1736 122.501C39.2436 122.79 39.3416 123.028 39.4676 123.215C39.5936 123.397 39.7476 123.53 39.9296 123.614C40.1116 123.693 40.3146 123.733 40.5386 123.733C40.898 123.733 41.2036 123.658 41.4556 123.509C41.7076 123.36 41.9456 123.147 42.1696 122.872V119.652ZM43.8986 114.598V125H42.8416C42.613 125 42.4683 124.895 42.4076 124.685L42.2606 123.992C41.9713 124.323 41.6376 124.592 41.2596 124.797C40.8863 125.002 40.45 125.105 39.9506 125.105C39.5586 125.105 39.1993 125.023 38.8726 124.86C38.546 124.697 38.2636 124.461 38.0256 124.153C37.7923 123.84 37.6103 123.455 37.4796 122.998C37.3536 122.541 37.2906 122.018 37.2906 121.43C37.2906 120.898 37.363 120.403 37.5076 119.946C37.6523 119.489 37.86 119.092 38.1306 118.756C38.4013 118.42 38.7256 118.159 39.1036 117.972C39.4816 117.781 39.9063 117.685 40.3776 117.685C40.779 117.685 41.122 117.748 41.4066 117.874C41.6913 118 41.9456 118.17 42.1696 118.385V114.598H43.8986ZM50.232 120.583C50.232 120.359 50.1993 120.149 50.134 119.953C50.0733 119.752 49.98 119.577 49.854 119.428C49.728 119.279 49.567 119.162 49.371 119.078C49.1796 118.989 48.9556 118.945 48.699 118.945C48.1996 118.945 47.8053 119.087 47.516 119.372C47.2313 119.657 47.0493 120.06 46.97 120.583H50.232ZM46.935 121.626C46.963 121.995 47.0283 122.314 47.131 122.585C47.2336 122.851 47.369 123.073 47.537 123.25C47.705 123.423 47.9033 123.553 48.132 123.642C48.3653 123.726 48.622 123.768 48.902 123.768C49.182 123.768 49.4223 123.735 49.623 123.67C49.8283 123.605 50.0056 123.532 50.155 123.453C50.309 123.374 50.442 123.301 50.554 123.236C50.6706 123.171 50.7826 123.138 50.89 123.138C51.0346 123.138 51.142 123.192 51.212 123.299L51.709 123.929C51.5176 124.153 51.303 124.342 51.065 124.496C50.827 124.645 50.5773 124.767 50.316 124.86C50.0593 124.949 49.7956 125.012 49.525 125.049C49.259 125.086 49 125.105 48.748 125.105C48.2486 125.105 47.7843 125.023 47.355 124.86C46.9256 124.692 46.5523 124.447 46.235 124.125C45.9176 123.798 45.668 123.397 45.486 122.921C45.304 122.44 45.213 121.885 45.213 121.255C45.213 120.765 45.2923 120.305 45.451 119.876C45.6096 119.442 45.836 119.066 46.13 118.749C46.4286 118.427 46.7903 118.173 47.215 117.986C47.6443 117.799 48.1273 117.706 48.664 117.706C49.1166 117.706 49.5343 117.778 49.917 117.923C50.2996 118.068 50.6286 118.28 50.904 118.56C51.1793 118.835 51.394 119.176 51.548 119.582C51.7066 119.983 51.786 120.443 51.786 120.961C51.786 121.222 51.758 121.4 51.702 121.493C51.646 121.582 51.5386 121.626 51.38 121.626H46.935ZM57.4655 119.218C57.4188 119.293 57.3698 119.346 57.3185 119.379C57.2672 119.407 57.2018 119.421 57.1225 119.421C57.0385 119.421 56.9475 119.398 56.8495 119.351C56.7562 119.304 56.6465 119.253 56.5205 119.197C56.3945 119.136 56.2498 119.083 56.0865 119.036C55.9278 118.989 55.7388 118.966 55.5195 118.966C55.1788 118.966 54.9105 119.038 54.7145 119.183C54.5232 119.328 54.4275 119.517 54.4275 119.75C54.4275 119.904 54.4765 120.035 54.5745 120.142C54.6772 120.245 54.8102 120.336 54.9735 120.415C55.1415 120.494 55.3305 120.567 55.5405 120.632C55.7505 120.693 55.9628 120.76 56.1775 120.835C56.3968 120.91 56.6115 120.996 56.8215 121.094C57.0315 121.187 57.2182 121.309 57.3815 121.458C57.5495 121.603 57.6825 121.778 57.7805 121.983C57.8832 122.188 57.9345 122.436 57.9345 122.725C57.9345 123.07 57.8715 123.39 57.7455 123.684C57.6242 123.973 57.4422 124.225 57.1995 124.44C56.9568 124.65 56.6558 124.816 56.2965 124.937C55.9418 125.054 55.5312 125.112 55.0645 125.112C54.8172 125.112 54.5745 125.089 54.3365 125.042C54.1032 125 53.8768 124.939 53.6575 124.86C53.4428 124.781 53.2422 124.687 53.0555 124.58C52.8735 124.473 52.7125 124.356 52.5725 124.23L52.9715 123.572C53.0228 123.493 53.0835 123.432 53.1535 123.39C53.2235 123.348 53.3122 123.327 53.4195 123.327C53.5268 123.327 53.6272 123.357 53.7205 123.418C53.8185 123.479 53.9305 123.544 54.0565 123.614C54.1825 123.684 54.3295 123.749 54.4975 123.81C54.6702 123.871 54.8872 123.901 55.1485 123.901C55.3538 123.901 55.5288 123.878 55.6735 123.831C55.8228 123.78 55.9442 123.714 56.0375 123.635C56.1355 123.556 56.2055 123.465 56.2475 123.362C56.2942 123.255 56.3175 123.145 56.3175 123.033C56.3175 122.865 56.2662 122.727 56.1635 122.62C56.0655 122.513 55.9325 122.419 55.7645 122.34C55.6012 122.261 55.4122 122.191 55.1975 122.13C54.9875 122.065 54.7705 121.995 54.5465 121.92C54.3272 121.845 54.1102 121.759 53.8955 121.661C53.6855 121.558 53.4965 121.43 53.3285 121.276C53.1652 121.122 53.0322 120.933 52.9295 120.709C52.8315 120.485 52.7825 120.214 52.7825 119.897C52.7825 119.603 52.8408 119.323 52.9575 119.057C53.0742 118.791 53.2445 118.56 53.4685 118.364C53.6972 118.163 53.9795 118.005 54.3155 117.888C54.6562 117.767 55.0482 117.706 55.4915 117.706C55.9862 117.706 56.4365 117.788 56.8425 117.951C57.2485 118.114 57.5868 118.329 57.8575 118.595L57.4655 119.218ZM67.2671 120.583C67.2671 120.359 67.2345 120.149 67.1691 119.953C67.1085 119.752 67.0151 119.577 66.8891 119.428C66.7631 119.279 66.6021 119.162 66.4061 119.078C66.2148 118.989 65.9908 118.945 65.7341 118.945C65.2348 118.945 64.8405 119.087 64.5511 119.372C64.2665 119.657 64.0845 120.06 64.0051 120.583H67.2671ZM63.9701 121.626C63.9981 121.995 64.0635 122.314 64.1661 122.585C64.2688 122.851 64.4041 123.073 64.5721 123.25C64.7401 123.423 64.9385 123.553 65.1671 123.642C65.4005 123.726 65.6571 123.768 65.9371 123.768C66.2171 123.768 66.4575 123.735 66.6581 123.67C66.8635 123.605 67.0408 123.532 67.1901 123.453C67.3441 123.374 67.4771 123.301 67.5891 123.236C67.7058 123.171 67.8178 123.138 67.9251 123.138C68.0698 123.138 68.1771 123.192 68.2471 123.299L68.7441 123.929C68.5528 124.153 68.3381 124.342 68.1001 124.496C67.8621 124.645 67.6125 124.767 67.3511 124.86C67.0945 124.949 66.8308 125.012 66.5601 125.049C66.2941 125.086 66.0351 125.105 65.7831 125.105C65.2838 125.105 64.8195 125.023 64.3901 124.86C63.9608 124.692 63.5875 124.447 63.2701 124.125C62.9528 123.798 62.7031 123.397 62.5211 122.921C62.3391 122.44 62.2481 121.885 62.2481 121.255C62.2481 120.765 62.3275 120.305 62.4861 119.876C62.6448 119.442 62.8711 119.066 63.1651 118.749C63.4638 118.427 63.8255 118.173 64.2501 117.986C64.6795 117.799 65.1625 117.706 65.6991 117.706C66.1518 117.706 66.5695 117.778 66.9521 117.923C67.3348 118.068 67.6638 118.28 67.9391 118.56C68.2145 118.835 68.4291 119.176 68.5831 119.582C68.7418 119.983 68.8211 120.443 68.8211 120.961C68.8211 121.222 68.7931 121.4 68.7371 121.493C68.6811 121.582 68.5738 121.626 68.4151 121.626H63.9701ZM78.6679 119.337C78.6166 119.402 78.5653 119.454 78.5139 119.491C78.4673 119.528 78.3973 119.547 78.3039 119.547C78.2153 119.547 78.1289 119.521 78.0449 119.47C77.9609 119.414 77.8606 119.353 77.7439 119.288C77.6273 119.218 77.4873 119.157 77.3239 119.106C77.1653 119.05 76.9669 119.022 76.7289 119.022C76.4256 119.022 76.1596 119.078 75.9309 119.19C75.7023 119.297 75.5109 119.454 75.3569 119.659C75.2076 119.864 75.0956 120.114 75.0209 120.408C74.9463 120.697 74.9089 121.026 74.9089 121.395C74.9089 121.778 74.9486 122.118 75.0279 122.417C75.1119 122.716 75.2309 122.968 75.3849 123.173C75.5389 123.374 75.7256 123.528 75.9449 123.635C76.1643 123.738 76.4116 123.789 76.6869 123.789C76.9623 123.789 77.1839 123.756 77.3519 123.691C77.5246 123.621 77.6693 123.546 77.7859 123.467C77.9026 123.383 78.0029 123.308 78.0869 123.243C78.1756 123.173 78.2736 123.138 78.3809 123.138C78.5209 123.138 78.6259 123.192 78.6959 123.299L79.1929 123.929C79.0016 124.153 78.7939 124.342 78.5699 124.496C78.3459 124.645 78.1126 124.767 77.8699 124.86C77.6319 124.949 77.3846 125.012 77.1279 125.049C76.8759 125.086 76.6239 125.105 76.3719 125.105C75.9286 125.105 75.5109 125.023 75.1189 124.86C74.7269 124.692 74.3839 124.449 74.0899 124.132C73.7959 123.815 73.5626 123.427 73.3899 122.97C73.2219 122.508 73.1379 121.983 73.1379 121.395C73.1379 120.868 73.2126 120.38 73.3619 119.932C73.5159 119.479 73.7399 119.09 74.0339 118.763C74.3279 118.432 74.6919 118.173 75.1259 117.986C75.5599 117.799 76.0593 117.706 76.6239 117.706C77.1606 117.706 77.6296 117.792 78.0309 117.965C78.4369 118.138 78.8009 118.385 79.1229 118.707L78.6679 119.337ZM83.3318 117.706C83.8638 117.706 84.3468 117.792 84.7808 117.965C85.2195 118.138 85.5928 118.383 85.9008 118.7C86.2135 119.017 86.4538 119.405 86.6218 119.862C86.7898 120.319 86.8738 120.83 86.8738 121.395C86.8738 121.964 86.7898 122.478 86.6218 122.935C86.4538 123.392 86.2135 123.782 85.9008 124.104C85.5928 124.426 85.2195 124.673 84.7808 124.846C84.3468 125.019 83.8638 125.105 83.3318 125.105C82.7951 125.105 82.3075 125.019 81.8688 124.846C81.4301 124.673 81.0545 124.426 80.7418 124.104C80.4338 123.782 80.1935 123.392 80.0208 122.935C79.8528 122.478 79.7688 121.964 79.7688 121.395C79.7688 120.83 79.8528 120.319 80.0208 119.862C80.1935 119.405 80.4338 119.017 80.7418 118.7C81.0545 118.383 81.4301 118.138 81.8688 117.965C82.3075 117.792 82.7951 117.706 83.3318 117.706ZM83.3318 123.775C83.9291 123.775 84.3701 123.574 84.6548 123.173C84.9441 122.772 85.0888 122.184 85.0888 121.409C85.0888 120.634 84.9441 120.044 84.6548 119.638C84.3701 119.232 83.9291 119.029 83.3318 119.029C82.7251 119.029 82.2748 119.234 81.9808 119.645C81.6915 120.051 81.5468 120.639 81.5468 121.409C81.5468 122.179 81.6915 122.767 81.9808 123.173C82.2748 123.574 82.7251 123.775 83.3318 123.775ZM88.1929 125V117.818H89.2499C89.4739 117.818 89.6209 117.923 89.6909 118.133L89.8029 118.665C89.9289 118.525 90.0595 118.397 90.1949 118.28C90.3349 118.163 90.4819 118.063 90.6359 117.979C90.7945 117.895 90.9625 117.83 91.1399 117.783C91.3219 117.732 91.5202 117.706 91.7349 117.706C92.1875 117.706 92.5585 117.83 92.8479 118.077C93.1419 118.32 93.3612 118.644 93.5059 119.05C93.6179 118.812 93.7579 118.609 93.9259 118.441C94.0939 118.268 94.2782 118.128 94.4789 118.021C94.6795 117.914 94.8919 117.834 95.1159 117.783C95.3445 117.732 95.5732 117.706 95.8019 117.706C96.1985 117.706 96.5509 117.767 96.8589 117.888C97.1669 118.009 97.4259 118.187 97.6359 118.42C97.8459 118.653 98.0045 118.938 98.1119 119.274C98.2239 119.61 98.2799 119.995 98.2799 120.429V125H96.5509V120.429C96.5509 119.972 96.4505 119.629 96.2499 119.4C96.0492 119.167 95.7552 119.05 95.3679 119.05C95.1905 119.05 95.0249 119.08 94.8709 119.141C94.7215 119.202 94.5885 119.29 94.4719 119.407C94.3599 119.519 94.2712 119.661 94.2059 119.834C94.1405 120.007 94.1079 120.205 94.1079 120.429V125H92.3719V120.429C92.3719 119.948 92.2739 119.598 92.0779 119.379C91.8865 119.16 91.6042 119.05 91.2309 119.05C90.9789 119.05 90.7432 119.113 90.5239 119.239C90.3092 119.36 90.1085 119.528 89.9219 119.743V125H88.1929ZM106.111 117.818V125H105.054C104.826 125 104.681 124.895 104.62 124.685L104.501 124.111C104.207 124.41 103.883 124.652 103.528 124.839C103.174 125.021 102.756 125.112 102.275 125.112C101.883 125.112 101.536 125.047 101.232 124.916C100.934 124.781 100.682 124.592 100.476 124.349C100.271 124.106 100.115 123.819 100.007 123.488C99.9047 123.152 99.8533 122.783 99.8533 122.382V117.818H101.582V122.382C101.582 122.821 101.683 123.161 101.883 123.404C102.089 123.642 102.394 123.761 102.8 123.761C103.099 123.761 103.379 123.696 103.64 123.565C103.902 123.43 104.149 123.245 104.382 123.012V117.818H106.111ZM109.443 118.7C109.587 118.555 109.739 118.422 109.898 118.301C110.061 118.175 110.231 118.07 110.409 117.986C110.591 117.897 110.784 117.83 110.99 117.783C111.195 117.732 111.419 117.706 111.662 117.706C112.054 117.706 112.401 117.774 112.705 117.909C113.008 118.04 113.26 118.226 113.461 118.469C113.666 118.707 113.82 118.994 113.923 119.33C114.03 119.661 114.084 120.028 114.084 120.429V125H112.355V120.429C112.355 119.99 112.254 119.652 112.054 119.414C111.853 119.171 111.547 119.05 111.137 119.05C110.838 119.05 110.558 119.118 110.297 119.253C110.035 119.388 109.788 119.573 109.555 119.806V125H107.826V117.818H108.883C109.107 117.818 109.254 117.923 109.324 118.133L109.443 118.7ZM117.52 117.818V125H115.784V117.818H117.52ZM117.758 115.725C117.758 115.874 117.728 116.014 117.667 116.145C117.606 116.276 117.525 116.39 117.422 116.488C117.324 116.586 117.207 116.665 117.072 116.726C116.937 116.782 116.792 116.81 116.638 116.81C116.489 116.81 116.346 116.782 116.211 116.726C116.08 116.665 115.966 116.586 115.868 116.488C115.77 116.39 115.691 116.276 115.63 116.145C115.574 116.014 115.546 115.874 115.546 115.725C115.546 115.571 115.574 115.426 115.63 115.291C115.691 115.156 115.77 115.039 115.868 114.941C115.966 114.843 116.08 114.766 116.211 114.71C116.346 114.649 116.489 114.619 116.638 114.619C116.792 114.619 116.937 114.649 117.072 114.71C117.207 114.766 117.324 114.843 117.422 114.941C117.525 115.039 117.606 115.156 117.667 115.291C117.728 115.426 117.758 115.571 117.758 115.725ZM123.791 119.652C123.595 119.414 123.38 119.246 123.147 119.148C122.918 119.05 122.671 119.001 122.405 119.001C122.143 119.001 121.908 119.05 121.698 119.148C121.488 119.246 121.308 119.395 121.159 119.596C121.009 119.792 120.895 120.044 120.816 120.352C120.736 120.655 120.697 121.015 120.697 121.43C120.697 121.85 120.729 122.207 120.795 122.501C120.865 122.79 120.963 123.028 121.089 123.215C121.215 123.397 121.369 123.53 121.551 123.614C121.733 123.693 121.936 123.733 122.16 123.733C122.519 123.733 122.825 123.658 123.077 123.509C123.329 123.36 123.567 123.147 123.791 122.872V119.652ZM125.52 114.598V125H124.463C124.234 125 124.089 124.895 124.029 124.685L123.882 123.992C123.592 124.323 123.259 124.592 122.881 124.797C122.507 125.002 122.071 125.105 121.572 125.105C121.18 125.105 120.82 125.023 120.494 124.86C120.167 124.697 119.885 124.461 119.647 124.153C119.413 123.84 119.231 123.455 119.101 122.998C118.975 122.541 118.912 122.018 118.912 121.43C118.912 120.898 118.984 120.403 119.129 119.946C119.273 119.489 119.481 119.092 119.752 118.756C120.022 118.42 120.347 118.159 120.725 117.972C121.103 117.781 121.527 117.685 121.999 117.685C122.4 117.685 122.743 117.748 123.028 117.874C123.312 118 123.567 118.17 123.791 118.385V114.598H125.52ZM131.02 121.934C130.521 121.957 130.101 122.002 129.76 122.067C129.419 122.128 129.146 122.207 128.941 122.305C128.736 122.403 128.589 122.517 128.5 122.648C128.411 122.779 128.367 122.921 128.367 123.075C128.367 123.378 128.456 123.595 128.633 123.726C128.815 123.857 129.051 123.922 129.34 123.922C129.695 123.922 130 123.859 130.257 123.733C130.518 123.602 130.773 123.406 131.02 123.145V121.934ZM127.058 118.819C127.884 118.063 128.878 117.685 130.04 117.685C130.46 117.685 130.836 117.755 131.167 117.895C131.498 118.03 131.778 118.222 132.007 118.469C132.236 118.712 132.408 119.003 132.525 119.344C132.646 119.685 132.707 120.058 132.707 120.464V125H131.923C131.76 125 131.634 124.977 131.545 124.93C131.456 124.879 131.386 124.778 131.335 124.629L131.181 124.111C130.999 124.274 130.822 124.419 130.649 124.545C130.476 124.666 130.297 124.769 130.11 124.853C129.923 124.937 129.723 125 129.508 125.042C129.298 125.089 129.065 125.112 128.808 125.112C128.505 125.112 128.225 125.072 127.968 124.993C127.711 124.909 127.49 124.785 127.303 124.622C127.116 124.459 126.972 124.256 126.869 124.013C126.766 123.77 126.715 123.488 126.715 123.166C126.715 122.984 126.745 122.804 126.806 122.627C126.867 122.445 126.965 122.272 127.1 122.109C127.24 121.946 127.42 121.792 127.639 121.647C127.858 121.502 128.127 121.376 128.444 121.269C128.766 121.162 129.139 121.075 129.564 121.01C129.989 120.94 130.474 120.898 131.02 120.884V120.464C131.02 119.983 130.917 119.629 130.712 119.4C130.507 119.167 130.21 119.05 129.823 119.05C129.543 119.05 129.31 119.083 129.123 119.148C128.941 119.213 128.78 119.288 128.64 119.372C128.5 119.451 128.372 119.524 128.255 119.589C128.143 119.654 128.017 119.687 127.877 119.687C127.756 119.687 127.653 119.657 127.569 119.596C127.485 119.531 127.417 119.456 127.366 119.372L127.058 118.819ZM138.843 119.652C138.647 119.414 138.433 119.246 138.199 119.148C137.971 119.05 137.723 119.001 137.457 119.001C137.196 119.001 136.96 119.05 136.75 119.148C136.54 119.246 136.361 119.395 136.211 119.596C136.062 119.792 135.948 120.044 135.868 120.352C135.789 120.655 135.749 121.015 135.749 121.43C135.749 121.85 135.782 122.207 135.847 122.501C135.917 122.79 136.015 123.028 136.141 123.215C136.267 123.397 136.421 123.53 136.603 123.614C136.785 123.693 136.988 123.733 137.212 123.733C137.572 123.733 137.877 123.658 138.129 123.509C138.381 123.36 138.619 123.147 138.843 122.872V119.652ZM140.572 114.598V125H139.515C139.287 125 139.142 124.895 139.081 124.685L138.934 123.992C138.645 124.323 138.311 124.592 137.933 124.797C137.56 125.002 137.124 125.105 136.624 125.105C136.232 125.105 135.873 125.023 135.546 124.86C135.22 124.697 134.937 124.461 134.699 124.153C134.466 123.84 134.284 123.455 134.153 122.998C134.027 122.541 133.964 122.018 133.964 121.43C133.964 120.898 134.037 120.403 134.181 119.946C134.326 119.489 134.534 119.092 134.804 118.756C135.075 118.42 135.399 118.159 135.777 117.972C136.155 117.781 136.58 117.685 137.051 117.685C137.453 117.685 137.796 117.748 138.08 117.874C138.365 118 138.619 118.17 138.843 118.385V114.598H140.572ZM146.906 120.583C146.906 120.359 146.873 120.149 146.808 119.953C146.747 119.752 146.654 119.577 146.528 119.428C146.402 119.279 146.241 119.162 146.045 119.078C145.853 118.989 145.629 118.945 145.373 118.945C144.873 118.945 144.479 119.087 144.19 119.372C143.905 119.657 143.723 120.06 143.644 120.583H146.906ZM143.609 121.626C143.637 121.995 143.702 122.314 143.805 122.585C143.907 122.851 144.043 123.073 144.211 123.25C144.379 123.423 144.577 123.553 144.806 123.642C145.039 123.726 145.296 123.768 145.576 123.768C145.856 123.768 146.096 123.735 146.297 123.67C146.502 123.605 146.679 123.532 146.829 123.453C146.983 123.374 147.116 123.301 147.228 123.236C147.344 123.171 147.456 123.138 147.564 123.138C147.708 123.138 147.816 123.192 147.886 123.299L148.383 123.929C148.191 124.153 147.977 124.342 147.739 124.496C147.501 124.645 147.251 124.767 146.99 124.86C146.733 124.949 146.469 125.012 146.199 125.049C145.933 125.086 145.674 125.105 145.422 125.105C144.922 125.105 144.458 125.023 144.029 124.86C143.599 124.692 143.226 124.447 142.909 124.125C142.591 123.798 142.342 123.397 142.16 122.921C141.978 122.44 141.887 121.885 141.887 121.255C141.887 120.765 141.966 120.305 142.125 119.876C142.283 119.442 142.51 119.066 142.804 118.749C143.102 118.427 143.464 118.173 143.889 117.986C144.318 117.799 144.801 117.706 145.338 117.706C145.79 117.706 146.208 117.778 146.591 117.923C146.973 118.068 147.302 118.28 147.578 118.56C147.853 118.835 148.068 119.176 148.222 119.582C148.38 119.983 148.46 120.443 148.46 120.961C148.46 121.222 148.432 121.4 148.376 121.493C148.32 121.582 148.212 121.626 148.054 121.626H143.609ZM154.139 119.218C154.093 119.293 154.044 119.346 153.992 119.379C153.941 119.407 153.876 119.421 153.796 119.421C153.712 119.421 153.621 119.398 153.523 119.351C153.43 119.304 153.32 119.253 153.194 119.197C153.068 119.136 152.924 119.083 152.76 119.036C152.602 118.989 152.413 118.966 152.193 118.966C151.853 118.966 151.584 119.038 151.388 119.183C151.197 119.328 151.101 119.517 151.101 119.75C151.101 119.904 151.15 120.035 151.248 120.142C151.351 120.245 151.484 120.336 151.647 120.415C151.815 120.494 152.004 120.567 152.214 120.632C152.424 120.693 152.637 120.76 152.851 120.835C153.071 120.91 153.285 120.996 153.495 121.094C153.705 121.187 153.892 121.309 154.055 121.458C154.223 121.603 154.356 121.778 154.454 121.983C154.557 122.188 154.608 122.436 154.608 122.725C154.608 123.07 154.545 123.39 154.419 123.684C154.298 123.973 154.116 124.225 153.873 124.44C153.631 124.65 153.33 124.816 152.97 124.937C152.616 125.054 152.205 125.112 151.738 125.112C151.491 125.112 151.248 125.089 151.01 125.042C150.777 125 150.551 124.939 150.331 124.86C150.117 124.781 149.916 124.687 149.729 124.58C149.547 124.473 149.386 124.356 149.246 124.23L149.645 123.572C149.697 123.493 149.757 123.432 149.827 123.39C149.897 123.348 149.986 123.327 150.093 123.327C150.201 123.327 150.301 123.357 150.394 123.418C150.492 123.479 150.604 123.544 150.73 123.614C150.856 123.684 151.003 123.749 151.171 123.81C151.344 123.871 151.561 123.901 151.822 123.901C152.028 123.901 152.203 123.878 152.347 123.831C152.497 123.78 152.618 123.714 152.711 123.635C152.809 123.556 152.879 123.465 152.921 123.362C152.968 123.255 152.991 123.145 152.991 123.033C152.991 122.865 152.94 122.727 152.837 122.62C152.739 122.513 152.606 122.419 152.438 122.34C152.275 122.261 152.086 122.191 151.871 122.13C151.661 122.065 151.444 121.995 151.22 121.92C151.001 121.845 150.784 121.759 150.569 121.661C150.359 121.558 150.17 121.43 150.002 121.276C149.839 121.122 149.706 120.933 149.603 120.709C149.505 120.485 149.456 120.214 149.456 119.897C149.456 119.603 149.515 119.323 149.631 119.057C149.748 118.791 149.918 118.56 150.142 118.364C150.371 118.163 150.653 118.005 150.989 117.888C151.33 117.767 151.722 117.706 152.165 117.706C152.66 117.706 153.11 117.788 153.516 117.951C153.922 118.114 154.261 118.329 154.531 118.595L154.139 119.218ZM50.3561 141.218C50.3095 141.293 50.2605 141.346 50.2091 141.379C50.1578 141.407 50.0925 141.421 50.0131 141.421C49.9291 141.421 49.8381 141.398 49.7401 141.351C49.6468 141.304 49.5371 141.253 49.4111 141.197C49.2851 141.136 49.1405 141.083 48.9771 141.036C48.8185 140.989 48.6295 140.966 48.4101 140.966C48.0695 140.966 47.8011 141.038 47.6051 141.183C47.4138 141.328 47.3181 141.517 47.3181 141.75C47.3181 141.904 47.3671 142.035 47.4651 142.142C47.5678 142.245 47.7008 142.336 47.8641 142.415C48.0321 142.494 48.2211 142.567 48.4311 142.632C48.6411 142.693 48.8535 142.76 49.0681 142.835C49.2875 142.91 49.5021 142.996 49.7121 143.094C49.9221 143.187 50.1088 143.309 50.2721 143.458C50.4401 143.603 50.5731 143.778 50.6711 143.983C50.7738 144.188 50.8251 144.436 50.8251 144.725C50.8251 145.07 50.7621 145.39 50.6361 145.684C50.5148 145.973 50.3328 146.225 50.0901 146.44C49.8475 146.65 49.5465 146.816 49.1871 146.937C48.8325 147.054 48.4218 147.112 47.9551 147.112C47.7078 147.112 47.4651 147.089 47.2271 147.042C46.9938 147 46.7675 146.939 46.5481 146.86C46.3335 146.781 46.1328 146.687 45.9461 146.58C45.7641 146.473 45.6031 146.356 45.4631 146.23L45.8621 145.572C45.9135 145.493 45.9741 145.432 46.0441 145.39C46.1141 145.348 46.2028 145.327 46.3101 145.327C46.4175 145.327 46.5178 145.357 46.6111 145.418C46.7091 145.479 46.8211 145.544 46.9471 145.614C47.0731 145.684 47.2201 145.749 47.3881 145.81C47.5608 145.871 47.7778 145.901 48.0391 145.901C48.2445 145.901 48.4195 145.878 48.5641 145.831C48.7135 145.78 48.8348 145.714 48.9281 145.635C49.0261 145.556 49.0961 145.465 49.1381 145.362C49.1848 145.255 49.2081 145.145 49.2081 145.033C49.2081 144.865 49.1568 144.727 49.0541 144.62C48.9561 144.513 48.8231 144.419 48.6551 144.34C48.4918 144.261 48.3028 144.191 48.0881 144.13C47.8781 144.065 47.6611 143.995 47.4371 143.92C47.2178 143.845 47.0008 143.759 46.7861 143.661C46.5761 143.558 46.3871 143.43 46.2191 143.276C46.0558 143.122 45.9228 142.933 45.8201 142.709C45.7221 142.485 45.6731 142.214 45.6731 141.897C45.6731 141.603 45.7315 141.323 45.8481 141.057C45.9648 140.791 46.1351 140.56 46.3591 140.364C46.5878 140.163 46.8701 140.005 47.2061 139.888C47.5468 139.767 47.9388 139.706 48.3821 139.706C48.8768 139.706 49.3271 139.788 49.7331 139.951C50.1391 140.114 50.4775 140.329 50.7481 140.595L50.3561 141.218ZM58.3145 139.818V147H57.2575C57.0288 147 56.8841 146.895 56.8235 146.685L56.7045 146.111C56.4105 146.41 56.0861 146.652 55.7315 146.839C55.3768 147.021 54.9591 147.112 54.4785 147.112C54.0865 147.112 53.7388 147.047 53.4355 146.916C53.1368 146.781 52.8848 146.592 52.6795 146.349C52.4741 146.106 52.3178 145.819 52.2105 145.488C52.1078 145.152 52.0565 144.783 52.0565 144.382V139.818H53.7855V144.382C53.7855 144.821 53.8858 145.161 54.0865 145.404C54.2918 145.642 54.5975 145.761 55.0035 145.761C55.3021 145.761 55.5821 145.696 55.8435 145.565C56.1048 145.43 56.3521 145.245 56.5855 145.012V139.818H58.3145ZM64.4108 141.218C64.3641 141.293 64.3151 141.346 64.2638 141.379C64.2125 141.407 64.1471 141.421 64.0678 141.421C63.9838 141.421 63.8928 141.398 63.7948 141.351C63.7015 141.304 63.5918 141.253 63.4658 141.197C63.3398 141.136 63.1951 141.083 63.0318 141.036C62.8731 140.989 62.6841 140.966 62.4648 140.966C62.1241 140.966 61.8558 141.038 61.6598 141.183C61.4685 141.328 61.3728 141.517 61.3728 141.75C61.3728 141.904 61.4218 142.035 61.5198 142.142C61.6225 142.245 61.7555 142.336 61.9188 142.415C62.0868 142.494 62.2758 142.567 62.4858 142.632C62.6958 142.693 62.9081 142.76 63.1228 142.835C63.3421 142.91 63.5568 142.996 63.7668 143.094C63.9768 143.187 64.1635 143.309 64.3268 143.458C64.4948 143.603 64.6278 143.778 64.7258 143.983C64.8285 144.188 64.8798 144.436 64.8798 144.725C64.8798 145.07 64.8168 145.39 64.6908 145.684C64.5695 145.973 64.3875 146.225 64.1448 146.44C63.9021 146.65 63.6011 146.816 63.2418 146.937C62.8871 147.054 62.4765 147.112 62.0098 147.112C61.7625 147.112 61.5198 147.089 61.2818 147.042C61.0485 147 60.8221 146.939 60.6028 146.86C60.3881 146.781 60.1875 146.687 60.0008 146.58C59.8188 146.473 59.6578 146.356 59.5178 146.23L59.9168 145.572C59.9681 145.493 60.0288 145.432 60.0988 145.39C60.1688 145.348 60.2575 145.327 60.3648 145.327C60.4721 145.327 60.5725 145.357 60.6658 145.418C60.7638 145.479 60.8758 145.544 61.0018 145.614C61.1278 145.684 61.2748 145.749 61.4428 145.81C61.6155 145.871 61.8325 145.901 62.0938 145.901C62.2991 145.901 62.4741 145.878 62.6188 145.831C62.7681 145.78 62.8895 145.714 62.9828 145.635C63.0808 145.556 63.1508 145.465 63.1928 145.362C63.2395 145.255 63.2628 145.145 63.2628 145.033C63.2628 144.865 63.2115 144.727 63.1088 144.62C63.0108 144.513 62.8778 144.419 62.7098 144.34C62.5465 144.261 62.3575 144.191 62.1428 144.13C61.9328 144.065 61.7158 143.995 61.4918 143.92C61.2725 143.845 61.0555 143.759 60.8408 143.661C60.6308 143.558 60.4418 143.43 60.2738 143.276C60.1105 143.122 59.9775 142.933 59.8748 142.709C59.7768 142.485 59.7278 142.214 59.7278 141.897C59.7278 141.603 59.7861 141.323 59.9028 141.057C60.0195 140.791 60.1898 140.56 60.4138 140.364C60.6425 140.163 60.9248 140.005 61.2608 139.888C61.6015 139.767 61.9935 139.706 62.4368 139.706C62.9315 139.706 63.3818 139.788 63.7878 139.951C64.1938 140.114 64.5321 140.329 64.8028 140.595L64.4108 141.218ZM68.5751 147.112C67.9498 147.112 67.4691 146.937 67.1331 146.587C66.8018 146.232 66.6361 145.745 66.6361 145.124V141.113H65.9011C65.8078 141.113 65.7285 141.083 65.6631 141.022C65.5978 140.961 65.5651 140.87 65.5651 140.749V140.063L66.7201 139.874L67.0841 137.914C67.1075 137.821 67.1518 137.748 67.2171 137.697C67.2825 137.646 67.3665 137.62 67.4691 137.62H68.3651V139.881H70.2831V141.113H68.3651V145.005C68.3651 145.229 68.4188 145.404 68.5261 145.53C68.6381 145.656 68.7898 145.719 68.9811 145.719C69.0885 145.719 69.1771 145.707 69.2471 145.684C69.3218 145.656 69.3848 145.628 69.4361 145.6C69.4921 145.572 69.5411 145.546 69.5831 145.523C69.6251 145.495 69.6671 145.481 69.7091 145.481C69.7605 145.481 69.8025 145.495 69.8351 145.523C69.8678 145.546 69.9028 145.584 69.9401 145.635L70.4581 146.475C70.2061 146.685 69.9168 146.844 69.5901 146.951C69.2635 147.058 68.9251 147.112 68.5751 147.112ZM75.9624 142.583C75.9624 142.359 75.9298 142.149 75.8644 141.953C75.8038 141.752 75.7104 141.577 75.5844 141.428C75.4584 141.279 75.2974 141.162 75.1014 141.078C74.9101 140.989 74.6861 140.945 74.4294 140.945C73.9301 140.945 73.5358 141.087 73.2464 141.372C72.9618 141.657 72.7798 142.06 72.7004 142.583H75.9624ZM72.6654 143.626C72.6934 143.995 72.7588 144.314 72.8614 144.585C72.9641 144.851 73.0994 145.073 73.2674 145.25C73.4354 145.423 73.6338 145.553 73.8624 145.642C74.0958 145.726 74.3524 145.768 74.6324 145.768C74.9124 145.768 75.1528 145.735 75.3534 145.67C75.5588 145.605 75.7361 145.532 75.8854 145.453C76.0394 145.374 76.1724 145.301 76.2844 145.236C76.4011 145.171 76.5131 145.138 76.6204 145.138C76.7651 145.138 76.8724 145.192 76.9424 145.299L77.4394 145.929C77.2481 146.153 77.0334 146.342 76.7954 146.496C76.5574 146.645 76.3078 146.767 76.0464 146.86C75.7898 146.949 75.5261 147.012 75.2554 147.049C74.9894 147.086 74.7304 147.105 74.4784 147.105C73.9791 147.105 73.5148 147.023 73.0854 146.86C72.6561 146.692 72.2828 146.447 71.9654 146.125C71.6481 145.798 71.3984 145.397 71.2164 144.921C71.0344 144.44 70.9434 143.885 70.9434 143.255C70.9434 142.765 71.0228 142.305 71.1814 141.876C71.3401 141.442 71.5664 141.066 71.8604 140.749C72.1591 140.427 72.5208 140.173 72.9454 139.986C73.3748 139.799 73.8578 139.706 74.3944 139.706C74.8471 139.706 75.2648 139.778 75.6474 139.923C76.0301 140.068 76.3591 140.28 76.6344 140.56C76.9098 140.835 77.1244 141.176 77.2784 141.582C77.4371 141.983 77.5164 142.443 77.5164 142.961C77.5164 143.222 77.4884 143.4 77.4324 143.493C77.3764 143.582 77.2691 143.626 77.1104 143.626H72.6654ZM80.431 140.7C80.5756 140.555 80.7273 140.422 80.886 140.301C81.0493 140.175 81.2196 140.07 81.397 139.986C81.579 139.897 81.7726 139.83 81.978 139.783C82.1833 139.732 82.4073 139.706 82.65 139.706C83.042 139.706 83.3896 139.774 83.693 139.909C83.9963 140.04 84.2483 140.226 84.449 140.469C84.6543 140.707 84.8083 140.994 84.911 141.33C85.0183 141.661 85.072 142.028 85.072 142.429V147H83.343V142.429C83.343 141.99 83.2426 141.652 83.042 141.414C82.8413 141.171 82.5356 141.05 82.125 141.05C81.8263 141.05 81.5463 141.118 81.285 141.253C81.0236 141.388 80.7763 141.573 80.543 141.806V147H78.814V139.818H79.871C80.095 139.818 80.242 139.923 80.312 140.133L80.431 140.7ZM89.0146 147.112C88.3893 147.112 87.9086 146.937 87.5726 146.587C87.2413 146.232 87.0756 145.745 87.0756 145.124V141.113H86.3406C86.2473 141.113 86.1679 141.083 86.1026 141.022C86.0373 140.961 86.0046 140.87 86.0046 140.749V140.063L87.1596 139.874L87.5236 137.914C87.5469 137.821 87.5913 137.748 87.6566 137.697C87.7219 137.646 87.8059 137.62 87.9086 137.62H88.8046V139.881H90.7226V141.113H88.8046V145.005C88.8046 145.229 88.8583 145.404 88.9656 145.53C89.0776 145.656 89.2293 145.719 89.4206 145.719C89.5279 145.719 89.6166 145.707 89.6866 145.684C89.7613 145.656 89.8243 145.628 89.8756 145.6C89.9316 145.572 89.9806 145.546 90.0226 145.523C90.0646 145.495 90.1066 145.481 90.1486 145.481C90.1999 145.481 90.2419 145.495 90.2746 145.523C90.3073 145.546 90.3423 145.584 90.3796 145.635L90.8976 146.475C90.6456 146.685 90.3563 146.844 90.0296 146.951C89.7029 147.058 89.3646 147.112 89.0146 147.112ZM95.6236 143.934C95.1243 143.957 94.7043 144.002 94.3636 144.067C94.0229 144.128 93.7499 144.207 93.5446 144.305C93.3393 144.403 93.1923 144.517 93.1036 144.648C93.0149 144.779 92.9706 144.921 92.9706 145.075C92.9706 145.378 93.0593 145.595 93.2366 145.726C93.4186 145.857 93.6543 145.922 93.9436 145.922C94.2983 145.922 94.6039 145.859 94.8606 145.733C95.1219 145.602 95.3763 145.406 95.6236 145.145V143.934ZM91.6616 140.819C92.4876 140.063 93.4816 139.685 94.6436 139.685C95.0636 139.685 95.4393 139.755 95.7706 139.895C96.1019 140.03 96.3819 140.222 96.6106 140.469C96.8393 140.712 97.0119 141.003 97.1286 141.344C97.2499 141.685 97.3106 142.058 97.3106 142.464V147H96.5266C96.3633 147 96.2373 146.977 96.1486 146.93C96.0599 146.879 95.9899 146.778 95.9386 146.629L95.7846 146.111C95.6026 146.274 95.4253 146.419 95.2526 146.545C95.0799 146.666 94.9003 146.769 94.7136 146.853C94.5269 146.937 94.3263 147 94.1116 147.042C93.9016 147.089 93.6683 147.112 93.4116 147.112C93.1083 147.112 92.8283 147.072 92.5716 146.993C92.3149 146.909 92.0933 146.785 91.9066 146.622C91.7199 146.459 91.5753 146.256 91.4726 146.013C91.3699 145.77 91.3186 145.488 91.3186 145.166C91.3186 144.984 91.3489 144.804 91.4096 144.627C91.4703 144.445 91.5683 144.272 91.7036 144.109C91.8436 143.946 92.0233 143.792 92.2426 143.647C92.4619 143.502 92.7303 143.376 93.0476 143.269C93.3696 143.162 93.7429 143.075 94.1676 143.01C94.5923 142.94 95.0776 142.898 95.6236 142.884V142.464C95.6236 141.983 95.5209 141.629 95.3156 141.4C95.1103 141.167 94.8139 141.05 94.4266 141.05C94.1466 141.05 93.9133 141.083 93.7266 141.148C93.5446 141.213 93.3836 141.288 93.2436 141.372C93.1036 141.451 92.9753 141.524 92.8586 141.589C92.7466 141.654 92.6206 141.687 92.4806 141.687C92.3593 141.687 92.2566 141.657 92.1726 141.596C92.0886 141.531 92.0209 141.456 91.9696 141.372L91.6616 140.819ZM96.9046 136.766L95.1756 138.593C95.0869 138.686 95.0006 138.752 94.9166 138.789C94.8373 138.822 94.7323 138.838 94.6016 138.838H93.5656L94.5596 137.137C94.6296 137.016 94.7113 136.925 94.8046 136.864C94.8979 136.799 95.0379 136.766 95.2246 136.766H96.9046ZM105.25 139.818L102.401 147H100.833L97.9839 139.818H99.4119C99.5426 139.818 99.6499 139.848 99.7339 139.909C99.8226 139.97 99.8809 140.047 99.9089 140.14L101.295 143.976C101.37 144.2 101.435 144.419 101.491 144.634C101.547 144.849 101.596 145.063 101.638 145.278C101.685 145.063 101.736 144.849 101.792 144.634C101.848 144.419 101.916 144.2 101.995 143.976L103.409 140.14C103.442 140.047 103.5 139.97 103.584 139.909C103.668 139.848 103.768 139.818 103.885 139.818H105.25ZM110.58 142.583C110.58 142.359 110.547 142.149 110.482 141.953C110.421 141.752 110.328 141.577 110.202 141.428C110.076 141.279 109.915 141.162 109.719 141.078C109.527 140.989 109.303 140.945 109.047 140.945C108.547 140.945 108.153 141.087 107.864 141.372C107.579 141.657 107.397 142.06 107.318 142.583H110.58ZM107.283 143.626C107.311 143.995 107.376 144.314 107.479 144.585C107.581 144.851 107.717 145.073 107.885 145.25C108.053 145.423 108.251 145.553 108.48 145.642C108.713 145.726 108.97 145.768 109.25 145.768C109.53 145.768 109.77 145.735 109.971 145.67C110.176 145.605 110.353 145.532 110.503 145.453C110.657 145.374 110.79 145.301 110.902 145.236C111.018 145.171 111.13 145.138 111.238 145.138C111.382 145.138 111.49 145.192 111.56 145.299L112.057 145.929C111.865 146.153 111.651 146.342 111.413 146.496C111.175 146.645 110.925 146.767 110.664 146.86C110.407 146.949 110.143 147.012 109.873 147.049C109.607 147.086 109.348 147.105 109.096 147.105C108.596 147.105 108.132 147.023 107.703 146.86C107.273 146.692 106.9 146.447 106.583 146.125C106.265 145.798 106.016 145.397 105.834 144.921C105.652 144.44 105.561 143.885 105.561 143.255C105.561 142.765 105.64 142.305 105.799 141.876C105.957 141.442 106.184 141.066 106.478 140.749C106.776 140.427 107.138 140.173 107.563 139.986C107.992 139.799 108.475 139.706 109.012 139.706C109.464 139.706 109.882 139.778 110.265 139.923C110.647 140.068 110.976 140.28 111.252 140.56C111.527 140.835 111.742 141.176 111.896 141.582C112.054 141.983 112.134 142.443 112.134 142.961C112.134 143.222 112.106 143.4 112.05 143.493C111.994 143.582 111.886 143.626 111.728 143.626H107.283ZM115.223 139.818V147H113.487V139.818H115.223ZM115.461 137.725C115.461 137.874 115.431 138.014 115.37 138.145C115.309 138.276 115.228 138.39 115.125 138.488C115.027 138.586 114.91 138.665 114.775 138.726C114.64 138.782 114.495 138.81 114.341 138.81C114.192 138.81 114.049 138.782 113.914 138.726C113.783 138.665 113.669 138.586 113.571 138.488C113.473 138.39 113.394 138.276 113.333 138.145C113.277 138.014 113.249 137.874 113.249 137.725C113.249 137.571 113.277 137.426 113.333 137.291C113.394 137.156 113.473 137.039 113.571 136.941C113.669 136.843 113.783 136.766 113.914 136.71C114.049 136.649 114.192 136.619 114.341 136.619C114.495 136.619 114.64 136.649 114.775 136.71C114.91 136.766 115.027 136.843 115.125 136.941C115.228 137.039 115.309 137.156 115.37 137.291C115.431 137.426 115.461 137.571 115.461 137.725ZM121.368 141.218C121.321 141.293 121.272 141.346 121.221 141.379C121.17 141.407 121.104 141.421 121.025 141.421C120.941 141.421 120.85 141.398 120.752 141.351C120.659 141.304 120.549 141.253 120.423 141.197C120.297 141.136 120.152 141.083 119.989 141.036C119.83 140.989 119.641 140.966 119.422 140.966C119.081 140.966 118.813 141.038 118.617 141.183C118.426 141.328 118.33 141.517 118.33 141.75C118.33 141.904 118.379 142.035 118.477 142.142C118.58 142.245 118.713 142.336 118.876 142.415C119.044 142.494 119.233 142.567 119.443 142.632C119.653 142.693 119.865 142.76 120.08 142.835C120.299 142.91 120.514 142.996 120.724 143.094C120.934 143.187 121.121 143.309 121.284 143.458C121.452 143.603 121.585 143.778 121.683 143.983C121.786 144.188 121.837 144.436 121.837 144.725C121.837 145.07 121.774 145.39 121.648 145.684C121.527 145.973 121.345 146.225 121.102 146.44C120.859 146.65 120.558 146.816 120.199 146.937C119.844 147.054 119.434 147.112 118.967 147.112C118.72 147.112 118.477 147.089 118.239 147.042C118.006 147 117.779 146.939 117.56 146.86C117.345 146.781 117.145 146.687 116.958 146.58C116.776 146.473 116.615 146.356 116.475 146.23L116.874 145.572C116.925 145.493 116.986 145.432 117.056 145.39C117.126 145.348 117.215 145.327 117.322 145.327C117.429 145.327 117.53 145.357 117.623 145.418C117.721 145.479 117.833 145.544 117.959 145.614C118.085 145.684 118.232 145.749 118.4 145.81C118.573 145.871 118.79 145.901 119.051 145.901C119.256 145.901 119.431 145.878 119.576 145.831C119.725 145.78 119.847 145.714 119.94 145.635C120.038 145.556 120.108 145.465 120.15 145.362C120.197 145.255 120.22 145.145 120.22 145.033C120.22 144.865 120.169 144.727 120.066 144.62C119.968 144.513 119.835 144.419 119.667 144.34C119.504 144.261 119.315 144.191 119.1 144.13C118.89 144.065 118.673 143.995 118.449 143.92C118.23 143.845 118.013 143.759 117.798 143.661C117.588 143.558 117.399 143.43 117.231 143.276C117.068 143.122 116.935 142.933 116.832 142.709C116.734 142.485 116.685 142.214 116.685 141.897C116.685 141.603 116.743 141.323 116.86 141.057C116.977 140.791 117.147 140.56 117.371 140.364C117.6 140.163 117.882 140.005 118.218 139.888C118.559 139.767 118.951 139.706 119.394 139.706C119.889 139.706 120.339 139.788 120.745 139.951C121.151 140.114 121.489 140.329 121.76 140.595L121.368 141.218Z" fill="#606060"/>
<path d="M68.1364 18.939C68.1364 19.681 68.0128 20.3693 67.7654 21.004C67.5228 21.634 67.1774 22.18 66.7294 22.642C66.2814 23.104 65.7424 23.4657 65.1124 23.727C64.4824 23.9837 63.7824 24.112 63.0124 24.112C62.2471 24.112 61.5494 23.9837 60.9194 23.727C60.2894 23.4657 59.7481 23.104 59.2954 22.642C58.8474 22.18 58.4998 21.634 58.2524 21.004C58.0051 20.3693 57.8814 19.681 57.8814 18.939C57.8814 18.197 58.0051 17.511 58.2524 16.881C58.4998 16.2463 58.8474 15.698 59.2954 15.236C59.7481 14.774 60.2894 14.4147 60.9194 14.158C61.5494 13.8967 62.2471 13.766 63.0124 13.766C63.5258 13.766 64.0088 13.8267 64.4614 13.948C64.9141 14.0647 65.3294 14.2327 65.7074 14.452C66.0854 14.6667 66.4238 14.9303 66.7224 15.243C67.0258 15.551 67.2824 15.8963 67.4924 16.279C67.7024 16.6617 67.8611 17.077 67.9684 17.525C68.0804 17.973 68.1364 18.4443 68.1364 18.939ZM66.2114 18.939C66.2114 18.3837 66.1368 17.8867 65.9874 17.448C65.8381 17.0047 65.6258 16.629 65.3504 16.321C65.0751 16.013 64.7391 15.7773 64.3424 15.614C63.9504 15.4507 63.5071 15.369 63.0124 15.369C62.5178 15.369 62.0721 15.4507 61.6754 15.614C61.2834 15.7773 60.9474 16.013 60.6674 16.321C60.3921 16.629 60.1798 17.0047 60.0304 17.448C59.8811 17.8867 59.8064 18.3837 59.8064 18.939C59.8064 19.4943 59.8811 19.9937 60.0304 20.437C60.1798 20.8757 60.3921 21.249 60.6674 21.557C60.9474 21.8603 61.2834 22.0937 61.6754 22.257C62.0721 22.4203 62.5178 22.502 63.0124 22.502C63.5071 22.502 63.9504 22.4203 64.3424 22.257C64.7391 22.0937 65.0751 21.8603 65.3504 21.557C65.6258 21.249 65.8381 20.8757 65.9874 20.437C66.1368 19.9937 66.2114 19.4943 66.2114 18.939ZM78.7781 18.939C78.7781 19.681 78.6544 20.3623 78.4071 20.983C78.1598 21.6037 77.8121 22.138 77.3641 22.586C76.9161 23.034 76.3771 23.3817 75.7471 23.629C75.1171 23.8763 74.4171 24 73.6471 24H69.7901V13.878H73.6471C74.4171 13.878 75.1171 14.004 75.7471 14.256C76.3771 14.5033 76.9161 14.851 77.3641 15.299C77.8121 15.7423 78.1598 16.2743 78.4071 16.895C78.6544 17.5157 78.7781 18.197 78.7781 18.939ZM76.8461 18.939C76.8461 18.3837 76.7714 17.8867 76.6221 17.448C76.4774 17.0047 76.2651 16.6313 75.9851 16.328C75.7098 16.02 75.3738 15.7843 74.9771 15.621C74.5851 15.4577 74.1418 15.376 73.6471 15.376H71.6801V22.502H73.6471C74.1418 22.502 74.5851 22.4203 74.9771 22.257C75.3738 22.0937 75.7098 21.8603 75.9851 21.557C76.2651 21.249 76.4774 20.8757 76.6221 20.437C76.7714 19.9937 76.8461 19.4943 76.8461 18.939ZM85.8305 15.719C85.7745 15.817 85.7138 15.8893 85.6485 15.936C85.5878 15.978 85.5108 15.999 85.4175 15.999C85.3195 15.999 85.2121 15.964 85.0955 15.894C84.9835 15.8193 84.8481 15.7377 84.6895 15.649C84.5308 15.5603 84.3441 15.481 84.1295 15.411C83.9195 15.3363 83.6698 15.299 83.3805 15.299C83.1191 15.299 82.8905 15.3317 82.6945 15.397C82.4985 15.4577 82.3328 15.544 82.1975 15.656C82.0668 15.768 81.9688 15.9033 81.9035 16.062C81.8381 16.216 81.8055 16.3863 81.8055 16.573C81.8055 16.811 81.8708 17.0093 82.0015 17.168C82.1368 17.3267 82.3141 17.462 82.5335 17.574C82.7528 17.686 83.0025 17.7863 83.2825 17.875C83.5625 17.9637 83.8495 18.0593 84.1435 18.162C84.4375 18.26 84.7245 18.3767 85.0045 18.512C85.2845 18.6427 85.5341 18.8107 85.7535 19.016C85.9728 19.2167 86.1478 19.464 86.2785 19.758C86.4138 20.052 86.4815 20.409 86.4815 20.829C86.4815 21.2863 86.4021 21.7157 86.2435 22.117C86.0895 22.5137 85.8608 22.8613 85.5575 23.16C85.2588 23.454 84.8925 23.6873 84.4585 23.86C84.0245 24.028 83.5275 24.112 82.9675 24.112C82.6455 24.112 82.3281 24.0793 82.0155 24.014C81.7028 23.9533 81.4018 23.8647 81.1125 23.748C80.8278 23.6313 80.5595 23.4913 80.3075 23.328C80.0555 23.1647 79.8315 22.9827 79.6355 22.782L80.1885 21.879C80.2351 21.8137 80.2958 21.76 80.3705 21.718C80.4451 21.6713 80.5245 21.648 80.6085 21.648C80.7251 21.648 80.8511 21.697 80.9865 21.795C81.1218 21.8883 81.2828 21.9933 81.4695 22.11C81.6561 22.2267 81.8731 22.334 82.1205 22.432C82.3725 22.5253 82.6735 22.572 83.0235 22.572C83.5601 22.572 83.9755 22.446 84.2695 22.194C84.5635 21.9373 84.7105 21.571 84.7105 21.095C84.7105 20.829 84.6428 20.612 84.5075 20.444C84.3768 20.276 84.2018 20.136 83.9825 20.024C83.7631 19.9073 83.5135 19.8093 83.2335 19.73C82.9535 19.6507 82.6688 19.5643 82.3795 19.471C82.0901 19.3777 81.8055 19.2657 81.5255 19.135C81.2455 19.0043 80.9958 18.834 80.7765 18.624C80.5571 18.414 80.3798 18.1527 80.2445 17.84C80.1138 17.5227 80.0485 17.133 80.0485 16.671C80.0485 16.3023 80.1208 15.943 80.2655 15.593C80.4148 15.243 80.6295 14.9327 80.9095 14.662C81.1895 14.3913 81.5348 14.1743 81.9455 14.011C82.3561 13.8477 82.8275 13.766 83.3595 13.766C83.9568 13.766 84.5075 13.8593 85.0115 14.046C85.5155 14.2327 85.9448 14.494 86.2995 14.83L85.8305 15.719ZM97.6464 22.705V24H92.0464V22.705H94.0974V16.804C94.0974 16.5707 94.1044 16.3303 94.1184 16.083L92.6624 17.301C92.5784 17.3663 92.4944 17.4083 92.4104 17.427C92.331 17.441 92.254 17.441 92.1794 17.427C92.1094 17.413 92.0464 17.3897 91.9904 17.357C91.9344 17.3197 91.8924 17.28 91.8644 17.238L91.3184 16.489L94.4054 13.864H95.8264V22.705H97.6464ZM99.2785 16.699C99.3485 16.2137 99.4838 15.789 99.6845 15.425C99.8851 15.0563 100.135 14.7507 100.433 14.508C100.737 14.2607 101.082 14.0763 101.469 13.955C101.861 13.829 102.281 13.766 102.729 13.766C103.196 13.766 103.616 13.8337 103.989 13.969C104.367 14.0997 104.689 14.284 104.955 14.522C105.221 14.7553 105.424 15.0307 105.564 15.348C105.709 15.6653 105.781 16.0083 105.781 16.377C105.781 16.699 105.744 16.9837 105.669 17.231C105.599 17.4737 105.497 17.686 105.361 17.868C105.226 18.05 105.058 18.204 104.857 18.33C104.657 18.456 104.43 18.561 104.178 18.645C104.785 18.8363 105.238 19.128 105.536 19.52C105.835 19.912 105.984 20.4043 105.984 20.997C105.984 21.501 105.891 21.9467 105.704 22.334C105.518 22.7213 105.266 23.048 104.948 23.314C104.631 23.5753 104.262 23.7737 103.842 23.909C103.427 24.0443 102.986 24.112 102.519 24.112C102.011 24.112 101.567 24.0537 101.189 23.937C100.811 23.8203 100.482 23.6477 100.202 23.419C99.9225 23.1903 99.6845 22.9103 99.4885 22.579C99.2925 22.2477 99.1245 21.865 98.9845 21.431L99.7475 21.116C99.9481 21.032 100.135 21.011 100.307 21.053C100.485 21.0903 100.613 21.1837 100.692 21.333C100.776 21.4963 100.867 21.6573 100.965 21.816C101.068 21.9747 101.189 22.117 101.329 22.243C101.469 22.3643 101.633 22.4647 101.819 22.544C102.011 22.6187 102.237 22.656 102.498 22.656C102.792 22.656 103.049 22.6093 103.268 22.516C103.488 22.418 103.67 22.292 103.814 22.138C103.964 21.984 104.073 21.8137 104.143 21.627C104.218 21.4357 104.255 21.2443 104.255 21.053C104.255 20.8103 104.23 20.591 104.178 20.395C104.127 20.1943 104.02 20.024 103.856 19.884C103.693 19.744 103.457 19.6343 103.149 19.555C102.846 19.4757 102.438 19.436 101.924 19.436V18.204C102.349 18.1993 102.701 18.1597 102.981 18.085C103.261 18.0103 103.483 17.9077 103.646 17.777C103.814 17.6417 103.931 17.4807 103.996 17.294C104.062 17.1073 104.094 16.902 104.094 16.678C104.094 16.202 103.961 15.8403 103.695 15.593C103.429 15.3457 103.075 15.222 102.631 15.222C102.426 15.222 102.237 15.2523 102.064 15.313C101.892 15.369 101.735 15.4507 101.595 15.558C101.46 15.6607 101.346 15.782 101.252 15.922C101.159 16.062 101.089 16.216 101.042 16.384C100.963 16.5987 100.858 16.741 100.727 16.811C100.601 16.881 100.422 16.8973 100.188 16.86L99.2785 16.699Z" fill="#F9F9F9"/>
<path d="M100.033 41.3334L83.3114 57.8667V80H101.672V41.3334H100.033Z" fill="#F9F9F9" stroke="#F9F9F9"/>
<path d="M98.0656 46.4L93.8033 50.4H99.0492V46.4001L98.0656 46.4Z" fill="#F89D29"/>
<path d="M91.1804 60.2667H85.9344V58.9333L90.5246 54.1333H91.1804V60.2667Z" fill="#F89D29"/>
<rect x="63.4835" y="32.5" width="16.7049" height="46.9999" fill="#F9F9F9" stroke="#F9F9F9"/>
<rect x="65.6064" y="70.9332" width="4.59017" height="4.26666" fill="#F89D29"/>
<rect x="73.4755" y="70.9332" width="4.59017" height="4.26666" fill="#F89D29"/>
<rect x="65.6064" y="62.9333" width="4.59017" height="4.26666" fill="#F89D29"/>
<rect x="73.4755" y="62.9333" width="4.59017" height="4.26666" fill="#F89D29"/>
<rect x="65.6064" y="54.3998" width="4.59017" height="4.26666" fill="#F89D29"/>
<rect x="73.4755" y="54.3998" width="4.59017" height="4.26666" fill="#F89D29"/>
<rect x="65.6064" y="46.4" width="4.59017" height="4.26666" fill="#F89D29"/>
<rect x="73.4755" y="46.4" width="4.59017" height="4.26666" fill="#F89D29"/>
<rect x="65.6064" y="38.4001" width="4.59017" height="4.26666" fill="#F89D29"/>
<rect x="73.4755" y="38.4001" width="4.59017" height="4.26666" fill="#F89D29"/>
<rect x="93.8033" y="52.2665" width="5.24591" height="3.19999" fill="#F89D29"/>
<rect x="93.8033" y="57.0667" width="5.24591" height="3.19999" fill="#F89D29"/>
<rect x="93.8033" y="61.8664" width="5.24591" height="3.19999" fill="#F89D29"/>
<rect x="93.8033" y="66.6666" width="5.24591" height="3.19999" fill="#F89D29"/>
<rect x="85.9344" y="61.8664" width="5.24591" height="3.19999" fill="#F89D29"/>
<rect x="85.9344" y="66.6666" width="5.24591" height="3.19999" fill="#F89D29"/>
<rect x="93.8033" y="71.4667" width="5.24591" height="3.19999" fill="#F89D29"/>
<rect x="85.9344" y="71.4667" width="5.24591" height="3.19999" fill="#F89D29"/>
<rect x="104.295" y="60.2667" width="17.7049" height="3.73333" fill="#F9F9F9"/>
<rect x="104.795" y="66.0999" width="16.7049" height="13.4" fill="#F9F9F9" stroke="#F9F9F9"/>
<rect x="106.262" y="67.1999" width="5.24591" height="3.19999" fill="#F89D29"/>
<rect x="114.787" y="67.1999" width="5.24591" height="3.19999" fill="#F89D29"/>
<rect x="106.262" y="71.9998" width="5.24591" height="3.19999" fill="#F89D29"/>
<rect x="114.787" y="71.9998" width="5.24591" height="3.19999" fill="#F89D29"/>
<path d="M60.0328 68.2665H42V79.7332H47.5738V73.0665H54.459V79.7332H60.0328V68.2665Z" fill="#F9F9F9" stroke="#F9F9F9"/>
<path d="M51.1803 56.0667L42.5 65.4H59.5L51.1803 56.0667Z" fill="#F9F9F9" stroke="#F9F9F9"/>
<defs>
<filter id="filter0_d_373_2442" x="0" y="0" width="164" height="168" filterUnits="userSpaceOnUse" color-interpolation-filters="sRGB">
<feFlood flood-opacity="0" result="BackgroundImageFix"/>
<feColorMatrix in="SourceAlpha" type="matrix" values="0 0 0 0 0 0 0 0 0 0 0 0 0 0 0 0 0 0 127 0" result="hardAlpha"/>
<feOffset dy="4"/>
<feGaussianBlur stdDeviation="2"/>
<feColorMatrix type="matrix" values="0 0 0 0 0 0 0 0 0 0 0 0 0 0 0 0 0 0 0.25 0"/>
<feBlend mode="normal" in2="BackgroundImageFix" result="effect1_dropShadow_373_2442"/>
<feBlend mode="normal" in="SourceGraphic" in2="effect1_dropShadow_373_2442" result="shape"/>
</filter>
</defs>
</svg>
