<svg width="164" height="168" viewBox="0 0 164 168" fill="none" xmlns="http://www.w3.org/2000/svg">
<g filter="url(#filter0_d_373_2477)">
<rect x="4" width="156" height="160" rx="16" fill="#F9F9F9"/>
</g>
<path d="M4 16C4 7.16344 11.1634 0 20 0H144C152.837 0 160 7.16344 160 16V104H20C11.1634 104 4 96.8366 4 88V16Z" fill="#407F46"/>
<path d="M15.8979 121.178L14.6659 117.811C14.6052 117.662 14.5422 117.484 14.4769 117.279C14.4115 117.074 14.3462 116.852 14.2809 116.614C14.2202 116.852 14.1572 117.076 14.0919 117.286C14.0265 117.491 13.9635 117.671 13.9029 117.825L12.6779 121.178H15.8979ZM19.2229 125H17.7669C17.6035 125 17.4705 124.96 17.3679 124.881C17.2652 124.797 17.1882 124.694 17.1369 124.573L16.3809 122.508H12.1879L11.4319 124.573C11.3945 124.68 11.3222 124.778 11.2149 124.867C11.1075 124.956 10.9745 125 10.8159 125H9.34585L13.3289 114.878H15.2469L19.2229 125ZM25.4761 123.929C25.1588 124.302 24.7995 124.578 24.3981 124.755C24.0015 124.928 23.5908 125.035 23.1661 125.077L23.0751 125.427C23.5138 125.53 23.8195 125.667 23.9921 125.84C24.1695 126.017 24.2581 126.227 24.2581 126.47C24.2581 126.629 24.2161 126.771 24.1321 126.897C24.0528 127.023 23.9361 127.13 23.7821 127.219C23.6328 127.308 23.4531 127.375 23.2431 127.422C23.0378 127.469 22.8091 127.492 22.5571 127.492C22.3658 127.492 22.1861 127.478 22.0181 127.45C21.8501 127.427 21.6868 127.389 21.5281 127.338L21.6821 126.799C21.7101 126.692 21.7778 126.638 21.8851 126.638C21.9505 126.638 22.0228 126.654 22.1021 126.687C22.1815 126.724 22.2958 126.743 22.4451 126.743C22.5991 126.743 22.7135 126.713 22.7881 126.652C22.8675 126.596 22.9071 126.526 22.9071 126.442C22.9071 126.307 22.8231 126.209 22.6551 126.148C22.4871 126.092 22.2281 126.038 21.8781 125.987L22.1861 125.07C21.7941 125.014 21.4301 124.893 21.0941 124.706C20.7581 124.515 20.4665 124.265 20.2191 123.957C19.9718 123.644 19.7758 123.273 19.6311 122.844C19.4911 122.415 19.4211 121.932 19.4211 121.395C19.4211 120.868 19.4958 120.38 19.6451 119.932C19.7991 119.479 20.0231 119.09 20.3171 118.763C20.6111 118.432 20.9751 118.173 21.4091 117.986C21.8431 117.799 22.3425 117.706 22.9071 117.706C23.4438 117.706 23.9128 117.792 24.3141 117.965C24.7201 118.138 25.0841 118.385 25.4061 118.707L24.9511 119.337C24.8998 119.402 24.8485 119.454 24.7971 119.491C24.7505 119.528 24.6805 119.547 24.5871 119.547C24.4985 119.547 24.4121 119.521 24.3281 119.47C24.2441 119.414 24.1438 119.353 24.0271 119.288C23.9105 119.218 23.7705 119.157 23.6071 119.106C23.4485 119.05 23.2501 119.022 23.0121 119.022C22.7088 119.022 22.4428 119.078 22.2141 119.19C21.9855 119.297 21.7941 119.454 21.6401 119.659C21.4908 119.864 21.3788 120.114 21.3041 120.408C21.2295 120.697 21.1921 121.026 21.1921 121.395C21.1921 121.778 21.2318 122.118 21.3111 122.417C21.3951 122.716 21.5141 122.968 21.6681 123.173C21.8221 123.374 22.0088 123.528 22.2281 123.635C22.4475 123.738 22.6948 123.789 22.9701 123.789C23.2455 123.789 23.4671 123.756 23.6351 123.691C23.8078 123.621 23.9525 123.546 24.0691 123.467C24.1858 123.383 24.2861 123.308 24.3701 123.243C24.4588 123.173 24.5568 123.138 24.6641 123.138C24.8041 123.138 24.9091 123.192 24.9791 123.299L25.4761 123.929ZM30.3677 121.934C29.8684 121.957 29.4484 122.002 29.1077 122.067C28.7671 122.128 28.4941 122.207 28.2887 122.305C28.0834 122.403 27.9364 122.517 27.8477 122.648C27.7591 122.779 27.7147 122.921 27.7147 123.075C27.7147 123.378 27.8034 123.595 27.9807 123.726C28.1627 123.857 28.3984 123.922 28.6877 123.922C29.0424 123.922 29.3481 123.859 29.6047 123.733C29.8661 123.602 30.1204 123.406 30.3677 123.145V121.934ZM26.4057 118.819C27.2317 118.063 28.2257 117.685 29.3877 117.685C29.8077 117.685 30.1834 117.755 30.5147 117.895C30.8461 118.03 31.1261 118.222 31.3547 118.469C31.5834 118.712 31.7561 119.003 31.8727 119.344C31.9941 119.685 32.0547 120.058 32.0547 120.464V125H31.2707C31.1074 125 30.9814 124.977 30.8927 124.93C30.8041 124.879 30.7341 124.778 30.6827 124.629L30.5287 124.111C30.3467 124.274 30.1694 124.419 29.9967 124.545C29.8241 124.666 29.6444 124.769 29.4577 124.853C29.2711 124.937 29.0704 125 28.8557 125.042C28.6457 125.089 28.4124 125.112 28.1557 125.112C27.8524 125.112 27.5724 125.072 27.3157 124.993C27.0591 124.909 26.8374 124.785 26.6507 124.622C26.4641 124.459 26.3194 124.256 26.2167 124.013C26.1141 123.77 26.0627 123.488 26.0627 123.166C26.0627 122.984 26.0931 122.804 26.1537 122.627C26.2144 122.445 26.3124 122.272 26.4477 122.109C26.5877 121.946 26.7674 121.792 26.9867 121.647C27.2061 121.502 27.4744 121.376 27.7917 121.269C28.1137 121.162 28.4871 121.075 28.9117 121.01C29.3364 120.94 29.8217 120.898 30.3677 120.884V120.464C30.3677 119.983 30.2651 119.629 30.0597 119.4C29.8544 119.167 29.5581 119.05 29.1707 119.05C28.8907 119.05 28.6574 119.083 28.4707 119.148C28.2887 119.213 28.1277 119.288 27.9877 119.372C27.8477 119.451 27.7194 119.524 27.6027 119.589C27.4907 119.654 27.3647 119.687 27.2247 119.687C27.1034 119.687 27.0007 119.657 26.9167 119.596C26.8327 119.531 26.7651 119.456 26.7137 119.372L26.4057 118.819ZM29.9757 115.487C30.1157 115.487 30.2254 115.45 30.3047 115.375C30.3841 115.296 30.4237 115.156 30.4237 114.955H31.4737C31.4737 115.216 31.4364 115.454 31.3617 115.669C31.2917 115.879 31.1937 116.061 31.0677 116.215C30.9417 116.364 30.7901 116.481 30.6127 116.565C30.4401 116.644 30.2487 116.684 30.0387 116.684C29.8707 116.684 29.7144 116.654 29.5697 116.593C29.4251 116.532 29.2897 116.467 29.1637 116.397C29.0377 116.327 28.9187 116.262 28.8067 116.201C28.6994 116.14 28.5991 116.11 28.5057 116.11C28.3704 116.11 28.2631 116.152 28.1837 116.236C28.1091 116.315 28.0717 116.453 28.0717 116.649H27.0007C27.0007 116.388 27.0357 116.152 27.1057 115.942C27.1804 115.727 27.2831 115.545 27.4137 115.396C27.5444 115.242 27.6961 115.123 27.8687 115.039C28.0461 114.955 28.2374 114.913 28.4427 114.913C28.6107 114.913 28.7671 114.943 28.9117 115.004C29.0611 115.065 29.1987 115.13 29.3247 115.2C29.4507 115.27 29.5674 115.335 29.6747 115.396C29.7821 115.457 29.8824 115.487 29.9757 115.487ZM36.8611 117.706C37.3931 117.706 37.8761 117.792 38.3101 117.965C38.7488 118.138 39.1221 118.383 39.4301 118.7C39.7428 119.017 39.9831 119.405 40.1511 119.862C40.3191 120.319 40.4031 120.83 40.4031 121.395C40.4031 121.964 40.3191 122.478 40.1511 122.935C39.9831 123.392 39.7428 123.782 39.4301 124.104C39.1221 124.426 38.7488 124.673 38.3101 124.846C37.8761 125.019 37.3931 125.105 36.8611 125.105C36.3244 125.105 35.8368 125.019 35.3981 124.846C34.9594 124.673 34.5838 124.426 34.2711 124.104C33.9631 123.782 33.7228 123.392 33.5501 122.935C33.3821 122.478 33.2981 121.964 33.2981 121.395C33.2981 120.83 33.3821 120.319 33.5501 119.862C33.7228 119.405 33.9631 119.017 34.2711 118.7C34.5838 118.383 34.9594 118.138 35.3981 117.965C35.8368 117.792 36.3244 117.706 36.8611 117.706ZM36.8611 123.775C37.4584 123.775 37.8994 123.574 38.1841 123.173C38.4734 122.772 38.6181 122.184 38.6181 121.409C38.6181 120.634 38.4734 120.044 38.1841 119.638C37.8994 119.232 37.4584 119.029 36.8611 119.029C36.2544 119.029 35.8041 119.234 35.5101 119.645C35.2208 120.051 35.0761 120.639 35.0761 121.409C35.0761 122.179 35.2208 122.767 35.5101 123.173C35.8041 123.574 36.2544 123.775 36.8611 123.775ZM50.2715 119.337C50.2201 119.402 50.1688 119.454 50.1175 119.491C50.0708 119.528 50.0008 119.547 49.9075 119.547C49.8188 119.547 49.7325 119.521 49.6485 119.47C49.5645 119.414 49.4641 119.353 49.3475 119.288C49.2308 119.218 49.0908 119.157 48.9275 119.106C48.7688 119.05 48.5705 119.022 48.3325 119.022C48.0291 119.022 47.7631 119.078 47.5345 119.19C47.3058 119.297 47.1145 119.454 46.9605 119.659C46.8111 119.864 46.6991 120.114 46.6245 120.408C46.5498 120.697 46.5125 121.026 46.5125 121.395C46.5125 121.778 46.5521 122.118 46.6315 122.417C46.7155 122.716 46.8345 122.968 46.9885 123.173C47.1425 123.374 47.3291 123.528 47.5485 123.635C47.7678 123.738 48.0151 123.789 48.2905 123.789C48.5658 123.789 48.7875 123.756 48.9555 123.691C49.1281 123.621 49.2728 123.546 49.3895 123.467C49.5061 123.383 49.6065 123.308 49.6905 123.243C49.7791 123.173 49.8771 123.138 49.9845 123.138C50.1245 123.138 50.2295 123.192 50.2995 123.299L50.7965 123.929C50.6051 124.153 50.3975 124.342 50.1735 124.496C49.9495 124.645 49.7161 124.767 49.4735 124.86C49.2355 124.949 48.9881 125.012 48.7315 125.049C48.4795 125.086 48.2275 125.105 47.9755 125.105C47.5321 125.105 47.1145 125.023 46.7225 124.86C46.3305 124.692 45.9875 124.449 45.6935 124.132C45.3995 123.815 45.1661 123.427 44.9935 122.97C44.8255 122.508 44.7415 121.983 44.7415 121.395C44.7415 120.868 44.8161 120.38 44.9655 119.932C45.1195 119.479 45.3435 119.09 45.6375 118.763C45.9315 118.432 46.2955 118.173 46.7295 117.986C47.1635 117.799 47.6628 117.706 48.2275 117.706C48.7641 117.706 49.2331 117.792 49.6345 117.965C50.0405 118.138 50.4045 118.385 50.7265 118.707L50.2715 119.337ZM54.9353 117.706C55.4673 117.706 55.9503 117.792 56.3843 117.965C56.823 118.138 57.1963 118.383 57.5043 118.7C57.817 119.017 58.0573 119.405 58.2253 119.862C58.3933 120.319 58.4773 120.83 58.4773 121.395C58.4773 121.964 58.3933 122.478 58.2253 122.935C58.0573 123.392 57.817 123.782 57.5043 124.104C57.1963 124.426 56.823 124.673 56.3843 124.846C55.9503 125.019 55.4673 125.105 54.9353 125.105C54.3987 125.105 53.911 125.019 53.4723 124.846C53.0337 124.673 52.658 124.426 52.3453 124.104C52.0373 123.782 51.797 123.392 51.6243 122.935C51.4563 122.478 51.3723 121.964 51.3723 121.395C51.3723 120.83 51.4563 120.319 51.6243 119.862C51.797 119.405 52.0373 119.017 52.3453 118.7C52.658 118.383 53.0337 118.138 53.4723 117.965C53.911 117.792 54.3987 117.706 54.9353 117.706ZM54.9353 123.775C55.5327 123.775 55.9737 123.574 56.2583 123.173C56.5477 122.772 56.6923 122.184 56.6923 121.409C56.6923 120.634 56.5477 120.044 56.2583 119.638C55.9737 119.232 55.5327 119.029 54.9353 119.029C54.3287 119.029 53.8783 119.234 53.5843 119.645C53.295 120.051 53.1503 120.639 53.1503 121.409C53.1503 122.179 53.295 122.767 53.5843 123.173C53.8783 123.574 54.3287 123.775 54.9353 123.775ZM61.4134 118.7C61.558 118.555 61.7097 118.422 61.8684 118.301C62.0317 118.175 62.202 118.07 62.3794 117.986C62.5614 117.897 62.755 117.83 62.9604 117.783C63.1657 117.732 63.3897 117.706 63.6324 117.706C64.0244 117.706 64.372 117.774 64.6754 117.909C64.9787 118.04 65.2307 118.226 65.4314 118.469C65.6367 118.707 65.7907 118.994 65.8934 119.33C66.0007 119.661 66.0544 120.028 66.0544 120.429V125H64.3254V120.429C64.3254 119.99 64.225 119.652 64.0244 119.414C63.8237 119.171 63.518 119.05 63.1074 119.05C62.8087 119.05 62.5287 119.118 62.2674 119.253C62.006 119.388 61.7587 119.573 61.5254 119.806V125H59.7964V117.818H60.8534C61.0774 117.818 61.2244 117.923 61.2944 118.133L61.4134 118.7ZM69.997 125.112C69.3717 125.112 68.891 124.937 68.555 124.587C68.2237 124.232 68.058 123.745 68.058 123.124V119.113H67.323C67.2297 119.113 67.1504 119.083 67.085 119.022C67.0197 118.961 66.987 118.87 66.987 118.749V118.063L68.142 117.874L68.506 115.914C68.5294 115.821 68.5737 115.748 68.639 115.697C68.7044 115.646 68.7884 115.62 68.891 115.62H69.787V117.881H71.705V119.113H69.787V123.005C69.787 123.229 69.8407 123.404 69.948 123.53C70.06 123.656 70.2117 123.719 70.403 123.719C70.5104 123.719 70.599 123.707 70.669 123.684C70.7437 123.656 70.8067 123.628 70.858 123.6C70.914 123.572 70.963 123.546 71.005 123.523C71.047 123.495 71.089 123.481 71.131 123.481C71.1824 123.481 71.2244 123.495 71.257 123.523C71.2897 123.546 71.3247 123.584 71.362 123.635L71.88 124.475C71.628 124.685 71.3387 124.844 71.012 124.951C70.6854 125.058 70.347 125.112 69.997 125.112ZM74.443 119.064C74.667 118.635 74.933 118.299 75.241 118.056C75.549 117.809 75.913 117.685 76.333 117.685C76.6643 117.685 76.9303 117.757 77.131 117.902L77.019 119.197C76.9957 119.281 76.9607 119.342 76.914 119.379C76.872 119.412 76.8137 119.428 76.739 119.428C76.669 119.428 76.564 119.416 76.424 119.393C76.2887 119.37 76.1557 119.358 76.025 119.358C75.8337 119.358 75.6633 119.386 75.514 119.442C75.3647 119.498 75.2293 119.58 75.108 119.687C74.9913 119.79 74.8863 119.916 74.793 120.065C74.7043 120.214 74.6203 120.385 74.541 120.576V125H72.812V117.818H73.827C74.0043 117.818 74.128 117.851 74.198 117.916C74.268 117.977 74.3147 118.089 74.338 118.252L74.443 119.064ZM81.733 121.934C81.2336 121.957 80.8136 122.002 80.473 122.067C80.1323 122.128 79.8593 122.207 79.654 122.305C79.4486 122.403 79.3016 122.517 79.213 122.648C79.1243 122.779 79.08 122.921 79.08 123.075C79.08 123.378 79.1686 123.595 79.346 123.726C79.528 123.857 79.7636 123.922 80.053 123.922C80.4076 123.922 80.7133 123.859 80.97 123.733C81.2313 123.602 81.4856 123.406 81.733 123.145V121.934ZM77.771 118.819C78.597 118.063 79.591 117.685 80.753 117.685C81.173 117.685 81.5486 117.755 81.88 117.895C82.2113 118.03 82.4913 118.222 82.72 118.469C82.9486 118.712 83.1213 119.003 83.238 119.344C83.3593 119.685 83.42 120.058 83.42 120.464V125H82.636C82.4726 125 82.3466 124.977 82.258 124.93C82.1693 124.879 82.0993 124.778 82.048 124.629L81.894 124.111C81.712 124.274 81.5346 124.419 81.362 124.545C81.1893 124.666 81.0096 124.769 80.823 124.853C80.6363 124.937 80.4356 125 80.221 125.042C80.011 125.089 79.7776 125.112 79.521 125.112C79.2176 125.112 78.9376 125.072 78.681 124.993C78.4243 124.909 78.2026 124.785 78.016 124.622C77.8293 124.459 77.6846 124.256 77.582 124.013C77.4793 123.77 77.428 123.488 77.428 123.166C77.428 122.984 77.4583 122.804 77.519 122.627C77.5796 122.445 77.6776 122.272 77.813 122.109C77.953 121.946 78.1326 121.792 78.352 121.647C78.5713 121.502 78.8396 121.376 79.157 121.269C79.479 121.162 79.8523 121.075 80.277 121.01C80.7016 120.94 81.187 120.898 81.733 120.884V120.464C81.733 119.983 81.6303 119.629 81.425 119.4C81.2196 119.167 80.9233 119.05 80.536 119.05C80.256 119.05 80.0226 119.083 79.836 119.148C79.654 119.213 79.493 119.288 79.353 119.372C79.213 119.451 79.0846 119.524 78.968 119.589C78.856 119.654 78.73 119.687 78.59 119.687C78.4686 119.687 78.366 119.657 78.282 119.596C78.198 119.531 78.1303 119.456 78.079 119.372L77.771 118.819ZM92.2466 121.934C91.7473 121.957 91.3273 122.002 90.9866 122.067C90.646 122.128 90.373 122.207 90.1676 122.305C89.9623 122.403 89.8153 122.517 89.7266 122.648C89.638 122.779 89.5936 122.921 89.5936 123.075C89.5936 123.378 89.6823 123.595 89.8596 123.726C90.0416 123.857 90.2773 123.922 90.5666 123.922C90.9213 123.922 91.227 123.859 91.4836 123.733C91.745 123.602 91.9993 123.406 92.2466 123.145V121.934ZM88.2846 118.819C89.1106 118.063 90.1046 117.685 91.2666 117.685C91.6866 117.685 92.0623 117.755 92.3936 117.895C92.725 118.03 93.005 118.222 93.2336 118.469C93.4623 118.712 93.635 119.003 93.7516 119.344C93.873 119.685 93.9336 120.058 93.9336 120.464V125H93.1496C92.9863 125 92.8603 124.977 92.7716 124.93C92.683 124.879 92.613 124.778 92.5616 124.629L92.4076 124.111C92.2256 124.274 92.0483 124.419 91.8756 124.545C91.703 124.666 91.5233 124.769 91.3366 124.853C91.15 124.937 90.9493 125 90.7346 125.042C90.5246 125.089 90.2913 125.112 90.0346 125.112C89.7313 125.112 89.4513 125.072 89.1946 124.993C88.938 124.909 88.7163 124.785 88.5296 124.622C88.343 124.459 88.1983 124.256 88.0956 124.013C87.993 123.77 87.9416 123.488 87.9416 123.166C87.9416 122.984 87.972 122.804 88.0326 122.627C88.0933 122.445 88.1913 122.272 88.3266 122.109C88.4666 121.946 88.6463 121.792 88.8656 121.647C89.085 121.502 89.3533 121.376 89.6706 121.269C89.9926 121.162 90.366 121.075 90.7906 121.01C91.2153 120.94 91.7006 120.898 92.2466 120.884V120.464C92.2466 119.983 92.144 119.629 91.9386 119.4C91.7333 119.167 91.437 119.05 91.0496 119.05C90.7696 119.05 90.5363 119.083 90.3496 119.148C90.1676 119.213 90.0066 119.288 89.8666 119.372C89.7266 119.451 89.5983 119.524 89.4816 119.589C89.3696 119.654 89.2436 119.687 89.1036 119.687C88.9823 119.687 88.8796 119.657 88.7956 119.596C88.7116 119.531 88.644 119.456 88.5926 119.372L88.2846 118.819ZM98.9663 125V117.818H100.023C100.247 117.818 100.394 117.923 100.464 118.133L100.576 118.665C100.702 118.525 100.833 118.397 100.968 118.28C101.108 118.163 101.255 118.063 101.409 117.979C101.568 117.895 101.736 117.83 101.913 117.783C102.095 117.732 102.294 117.706 102.508 117.706C102.961 117.706 103.332 117.83 103.621 118.077C103.915 118.32 104.135 118.644 104.279 119.05C104.391 118.812 104.531 118.609 104.699 118.441C104.867 118.268 105.052 118.128 105.252 118.021C105.453 117.914 105.665 117.834 105.889 117.783C106.118 117.732 106.347 117.706 106.575 117.706C106.972 117.706 107.324 117.767 107.632 117.888C107.94 118.009 108.199 118.187 108.409 118.42C108.619 118.653 108.778 118.938 108.885 119.274C108.997 119.61 109.053 119.995 109.053 120.429V125H107.324V120.429C107.324 119.972 107.224 119.629 107.023 119.4C106.823 119.167 106.529 119.05 106.141 119.05C105.964 119.05 105.798 119.08 105.644 119.141C105.495 119.202 105.362 119.29 105.245 119.407C105.133 119.519 105.045 119.661 104.979 119.834C104.914 120.007 104.881 120.205 104.881 120.429V125H103.145V120.429C103.145 119.948 103.047 119.598 102.851 119.379C102.66 119.16 102.378 119.05 102.004 119.05C101.752 119.05 101.517 119.113 101.297 119.239C101.083 119.36 100.882 119.528 100.695 119.743V125H98.9663ZM116.885 117.818V125H115.828C115.599 125 115.454 124.895 115.394 124.685L115.275 124.111C114.981 124.41 114.656 124.652 114.302 124.839C113.947 125.021 113.529 125.112 113.049 125.112C112.657 125.112 112.309 125.047 112.006 124.916C111.707 124.781 111.455 124.592 111.25 124.349C111.044 124.106 110.888 123.819 110.781 123.488C110.678 123.152 110.627 122.783 110.627 122.382V117.818H112.356V122.382C112.356 122.821 112.456 123.161 112.657 123.404C112.862 123.642 113.168 123.761 113.574 123.761C113.872 123.761 114.152 123.696 114.414 123.565C114.675 123.43 114.922 123.245 115.156 123.012V117.818H116.885ZM123.107 119.652C122.911 119.414 122.696 119.246 122.463 119.148C122.234 119.05 121.987 119.001 121.721 119.001C121.46 119.001 121.224 119.05 121.014 119.148C120.804 119.246 120.624 119.395 120.475 119.596C120.326 119.792 120.211 120.044 120.132 120.352C120.053 120.655 120.013 121.015 120.013 121.43C120.013 121.85 120.046 122.207 120.111 122.501C120.181 122.79 120.279 123.028 120.405 123.215C120.531 123.397 120.685 123.53 120.867 123.614C121.049 123.693 121.252 123.733 121.476 123.733C121.835 123.733 122.141 123.658 122.393 123.509C122.645 123.36 122.883 123.147 123.107 122.872V119.652ZM124.836 114.598V125H123.779C123.55 125 123.406 124.895 123.345 124.685L123.198 123.992C122.909 124.323 122.575 124.592 122.197 124.797C121.824 125.002 121.387 125.105 120.888 125.105C120.496 125.105 120.137 125.023 119.81 124.86C119.483 124.697 119.201 124.461 118.963 124.153C118.73 123.84 118.548 123.455 118.417 122.998C118.291 122.541 118.228 122.018 118.228 121.43C118.228 120.898 118.3 120.403 118.445 119.946C118.59 119.489 118.797 119.092 119.068 118.756C119.339 118.42 119.663 118.159 120.041 117.972C120.419 117.781 120.844 117.685 121.315 117.685C121.716 117.685 122.059 117.748 122.344 117.874C122.629 118 122.883 118.17 123.107 118.385V114.598H124.836ZM130.336 121.934C129.837 121.957 129.417 122.002 129.076 122.067C128.736 122.128 128.463 122.207 128.257 122.305C128.052 122.403 127.905 122.517 127.816 122.648C127.728 122.779 127.683 122.921 127.683 123.075C127.683 123.378 127.772 123.595 127.949 123.726C128.131 123.857 128.367 123.922 128.656 123.922C129.011 123.922 129.317 123.859 129.573 123.733C129.835 123.602 130.089 123.406 130.336 123.145V121.934ZM126.374 118.819C127.2 118.063 128.194 117.685 129.356 117.685C129.776 117.685 130.152 117.755 130.483 117.895C130.815 118.03 131.095 118.222 131.323 118.469C131.552 118.712 131.725 119.003 131.841 119.344C131.963 119.685 132.023 120.058 132.023 120.464V125H131.239C131.076 125 130.95 124.977 130.861 124.93C130.773 124.879 130.703 124.778 130.651 124.629L130.497 124.111C130.315 124.274 130.138 124.419 129.965 124.545C129.793 124.666 129.613 124.769 129.426 124.853C129.24 124.937 129.039 125 128.824 125.042C128.614 125.089 128.381 125.112 128.124 125.112C127.821 125.112 127.541 125.072 127.284 124.993C127.028 124.909 126.806 124.785 126.619 124.622C126.433 124.459 126.288 124.256 126.185 124.013C126.083 123.77 126.031 123.488 126.031 123.166C126.031 122.984 126.062 122.804 126.122 122.627C126.183 122.445 126.281 122.272 126.416 122.109C126.556 121.946 126.736 121.792 126.955 121.647C127.175 121.502 127.443 121.376 127.76 121.269C128.082 121.162 128.456 121.075 128.88 121.01C129.305 120.94 129.79 120.898 130.336 120.884V120.464C130.336 119.983 130.234 119.629 130.028 119.4C129.823 119.167 129.527 119.05 129.139 119.05C128.859 119.05 128.626 119.083 128.439 119.148C128.257 119.213 128.096 119.288 127.956 119.372C127.816 119.451 127.688 119.524 127.571 119.589C127.459 119.654 127.333 119.687 127.193 119.687C127.072 119.687 126.969 119.657 126.885 119.596C126.801 119.531 126.734 119.456 126.682 119.372L126.374 118.819ZM135.269 118.7C135.414 118.555 135.565 118.422 135.724 118.301C135.887 118.175 136.058 118.07 136.235 117.986C136.417 117.897 136.611 117.83 136.816 117.783C137.021 117.732 137.245 117.706 137.488 117.706C137.88 117.706 138.228 117.774 138.531 117.909C138.834 118.04 139.086 118.226 139.287 118.469C139.492 118.707 139.646 118.994 139.749 119.33C139.856 119.661 139.91 120.028 139.91 120.429V125H138.181V120.429C138.181 119.99 138.081 119.652 137.88 119.414C137.679 119.171 137.374 119.05 136.963 119.05C136.664 119.05 136.384 119.118 136.123 119.253C135.862 119.388 135.614 119.573 135.381 119.806V125H133.652V117.818H134.709C134.933 117.818 135.08 117.923 135.15 118.133L135.269 118.7ZM147.224 123.929C146.907 124.302 146.548 124.578 146.146 124.755C145.75 124.928 145.339 125.035 144.914 125.077L144.823 125.427C145.262 125.53 145.568 125.667 145.74 125.84C145.918 126.017 146.006 126.227 146.006 126.47C146.006 126.629 145.964 126.771 145.88 126.897C145.801 127.023 145.684 127.13 145.53 127.219C145.381 127.308 145.201 127.375 144.991 127.422C144.786 127.469 144.557 127.492 144.305 127.492C144.114 127.492 143.934 127.478 143.766 127.45C143.598 127.427 143.435 127.389 143.276 127.338L143.43 126.799C143.458 126.692 143.526 126.638 143.633 126.638C143.699 126.638 143.771 126.654 143.85 126.687C143.93 126.724 144.044 126.743 144.193 126.743C144.347 126.743 144.462 126.713 144.536 126.652C144.616 126.596 144.655 126.526 144.655 126.442C144.655 126.307 144.571 126.209 144.403 126.148C144.235 126.092 143.976 126.038 143.626 125.987L143.934 125.07C143.542 125.014 143.178 124.893 142.842 124.706C142.506 124.515 142.215 124.265 141.967 123.957C141.72 123.644 141.524 123.273 141.379 122.844C141.239 122.415 141.169 121.932 141.169 121.395C141.169 120.868 141.244 120.38 141.393 119.932C141.547 119.479 141.771 119.09 142.065 118.763C142.359 118.432 142.723 118.173 143.157 117.986C143.591 117.799 144.091 117.706 144.655 117.706C145.192 117.706 145.661 117.792 146.062 117.965C146.468 118.138 146.832 118.385 147.154 118.707L146.699 119.337C146.648 119.402 146.597 119.454 146.545 119.491C146.499 119.528 146.429 119.547 146.335 119.547C146.247 119.547 146.16 119.521 146.076 119.47C145.992 119.414 145.892 119.353 145.775 119.288C145.659 119.218 145.519 119.157 145.355 119.106C145.197 119.05 144.998 119.022 144.76 119.022C144.457 119.022 144.191 119.078 143.962 119.19C143.734 119.297 143.542 119.454 143.388 119.659C143.239 119.864 143.127 120.114 143.052 120.408C142.978 120.697 142.94 121.026 142.94 121.395C142.94 121.778 142.98 122.118 143.059 122.417C143.143 122.716 143.262 122.968 143.416 123.173C143.57 123.374 143.757 123.528 143.976 123.635C144.196 123.738 144.443 123.789 144.718 123.789C144.994 123.789 145.215 123.756 145.383 123.691C145.556 123.621 145.701 123.546 145.817 123.467C145.934 123.383 146.034 123.308 146.118 123.243C146.207 123.173 146.305 123.138 146.412 123.138C146.552 123.138 146.657 123.192 146.727 123.299L147.224 123.929ZM152.116 121.934C151.616 121.957 151.196 122.002 150.856 122.067C150.515 122.128 150.242 122.207 150.037 122.305C149.831 122.403 149.684 122.517 149.596 122.648C149.507 122.779 149.463 122.921 149.463 123.075C149.463 123.378 149.551 123.595 149.729 123.726C149.911 123.857 150.146 123.922 150.436 123.922C150.79 123.922 151.096 123.859 151.353 123.733C151.614 123.602 151.868 123.406 152.116 123.145V121.934ZM148.154 118.819C148.98 118.063 149.974 117.685 151.136 117.685C151.556 117.685 151.931 117.755 152.263 117.895C152.594 118.03 152.874 118.222 153.103 118.469C153.331 118.712 153.504 119.003 153.621 119.344C153.742 119.685 153.803 120.058 153.803 120.464V125H153.019C152.855 125 152.729 124.977 152.641 124.93C152.552 124.879 152.482 124.778 152.431 124.629L152.277 124.111C152.095 124.274 151.917 124.419 151.745 124.545C151.572 124.666 151.392 124.769 151.206 124.853C151.019 124.937 150.818 125 150.604 125.042C150.394 125.089 150.16 125.112 149.904 125.112C149.6 125.112 149.32 125.072 149.064 124.993C148.807 124.909 148.585 124.785 148.399 124.622C148.212 124.459 148.067 124.256 147.965 124.013C147.862 123.77 147.811 123.488 147.811 123.166C147.811 122.984 147.841 122.804 147.902 122.627C147.962 122.445 148.06 122.272 148.196 122.109C148.336 121.946 148.515 121.792 148.735 121.647C148.954 121.502 149.222 121.376 149.54 121.269C149.862 121.162 150.235 121.075 150.66 121.01C151.084 120.94 151.57 120.898 152.116 120.884V120.464C152.116 119.983 152.013 119.629 151.808 119.4C151.602 119.167 151.306 119.05 150.919 119.05C150.639 119.05 150.405 119.083 150.219 119.148C150.037 119.213 149.876 119.288 149.736 119.372C149.596 119.451 149.467 119.524 149.351 119.589C149.239 119.654 149.113 119.687 148.973 119.687C148.851 119.687 148.749 119.657 148.665 119.596C148.581 119.531 148.513 119.456 148.462 119.372L148.154 118.819ZM39.0561 143.234C39.2708 143.234 39.4575 143.206 39.6161 143.15C39.7748 143.089 39.9055 143.008 40.0081 142.905C40.1155 142.802 40.1948 142.679 40.2461 142.534C40.3021 142.389 40.3301 142.231 40.3301 142.058C40.3301 141.703 40.2228 141.423 40.0081 141.218C39.7981 141.008 39.4808 140.903 39.0561 140.903C38.6315 140.903 38.3118 141.008 38.0971 141.218C37.8871 141.423 37.7821 141.703 37.7821 142.058C37.7821 142.226 37.8078 142.382 37.8591 142.527C37.9151 142.672 37.9945 142.798 38.0971 142.905C38.2045 143.008 38.3375 143.089 38.4961 143.15C38.6595 143.206 38.8461 143.234 39.0561 143.234ZM41.0091 147.322C41.0091 147.182 40.9671 147.068 40.8831 146.979C40.7991 146.89 40.6848 146.823 40.5401 146.776C40.3955 146.725 40.2251 146.687 40.0291 146.664C39.8378 146.641 39.6325 146.624 39.4131 146.615C39.1985 146.601 38.9745 146.589 38.7411 146.58C38.5125 146.571 38.2885 146.552 38.0691 146.524C37.8778 146.631 37.7215 146.757 37.6001 146.902C37.4835 147.047 37.4251 147.215 37.4251 147.406C37.4251 147.532 37.4555 147.649 37.5161 147.756C37.5815 147.868 37.6818 147.964 37.8171 148.043C37.9571 148.122 38.1368 148.183 38.3561 148.225C38.5755 148.272 38.8438 148.295 39.1611 148.295C39.4831 148.295 39.7608 148.269 39.9941 148.218C40.2275 148.171 40.4188 148.104 40.5681 148.015C40.7221 147.931 40.8341 147.828 40.9041 147.707C40.9741 147.59 41.0091 147.462 41.0091 147.322ZM42.7311 140.063V140.707C42.7311 140.912 42.6075 141.038 42.3601 141.085L41.7161 141.204C41.8141 141.451 41.8631 141.722 41.8631 142.016C41.8631 142.371 41.7908 142.693 41.6461 142.982C41.5061 143.267 41.3101 143.509 41.0581 143.71C40.8061 143.911 40.5075 144.067 40.1621 144.179C39.8215 144.286 39.4528 144.34 39.0561 144.34C38.9161 144.34 38.7808 144.333 38.6501 144.319C38.5195 144.305 38.3911 144.286 38.2651 144.263C38.0411 144.398 37.9291 144.55 37.9291 144.718C37.9291 144.863 37.9945 144.97 38.1251 145.04C38.2605 145.105 38.4378 145.152 38.6571 145.18C38.8765 145.208 39.1261 145.227 39.4061 145.236C39.6861 145.241 39.9731 145.255 40.2671 145.278C40.5611 145.301 40.8481 145.343 41.1281 145.404C41.4081 145.46 41.6578 145.551 41.8771 145.677C42.0965 145.803 42.2715 145.976 42.4021 146.195C42.5375 146.41 42.6051 146.687 42.6051 147.028C42.6051 147.345 42.5258 147.653 42.3671 147.952C42.2131 148.251 41.9868 148.517 41.6881 148.75C41.3941 148.983 41.0301 149.17 40.5961 149.31C40.1668 149.455 39.6768 149.527 39.1261 149.527C38.5848 149.527 38.1135 149.473 37.7121 149.366C37.3108 149.263 36.9771 149.123 36.7111 148.946C36.4451 148.773 36.2468 148.573 36.1161 148.344C35.9855 148.115 35.9201 147.877 35.9201 147.63C35.9201 147.294 36.0205 147.014 36.2211 146.79C36.4265 146.561 36.7065 146.379 37.0611 146.244C36.8698 146.146 36.7181 146.015 36.6061 145.852C36.4941 145.689 36.4381 145.474 36.4381 145.208C36.4381 145.101 36.4568 144.991 36.4941 144.879C36.5361 144.762 36.5945 144.648 36.6691 144.536C36.7485 144.424 36.8465 144.319 36.9631 144.221C37.0798 144.118 37.2175 144.027 37.3761 143.948C37.0121 143.752 36.7251 143.491 36.5151 143.164C36.3098 142.837 36.2071 142.455 36.2071 142.016C36.2071 141.661 36.2771 141.342 36.4171 141.057C36.5618 140.768 36.7601 140.523 37.0121 140.322C37.2688 140.117 37.5698 139.96 37.9151 139.853C38.2651 139.746 38.6455 139.692 39.0561 139.692C39.3641 139.692 39.6535 139.725 39.9241 139.79C40.1948 139.851 40.4421 139.942 40.6661 140.063H42.7311ZM45.5776 136.598V147H43.8486V136.598H45.5776ZM50.4783 139.706C51.0103 139.706 51.4933 139.792 51.9273 139.965C52.366 140.138 52.7393 140.383 53.0473 140.7C53.36 141.017 53.6003 141.405 53.7683 141.862C53.9363 142.319 54.0203 142.83 54.0203 143.395C54.0203 143.964 53.9363 144.478 53.7683 144.935C53.6003 145.392 53.36 145.782 53.0473 146.104C52.7393 146.426 52.366 146.673 51.9273 146.846C51.4933 147.019 51.0103 147.105 50.4783 147.105C49.9416 147.105 49.454 147.019 49.0153 146.846C48.5766 146.673 48.201 146.426 47.8883 146.104C47.5803 145.782 47.34 145.392 47.1673 144.935C46.9993 144.478 46.9153 143.964 46.9153 143.395C46.9153 142.83 46.9993 142.319 47.1673 141.862C47.34 141.405 47.5803 141.017 47.8883 140.7C48.201 140.383 48.5766 140.138 49.0153 139.965C49.454 139.792 49.9416 139.706 50.4783 139.706ZM50.4783 145.775C51.0756 145.775 51.5166 145.574 51.8013 145.173C52.0906 144.772 52.2353 144.184 52.2353 143.409C52.2353 142.634 52.0906 142.044 51.8013 141.638C51.5166 141.232 51.0756 141.029 50.4783 141.029C49.8716 141.029 49.4213 141.234 49.1273 141.645C48.838 142.051 48.6933 142.639 48.6933 143.409C48.6933 144.179 48.838 144.767 49.1273 145.173C49.4213 145.574 49.8716 145.775 50.4783 145.775ZM57.0684 145.138C57.2644 145.376 57.4767 145.544 57.7054 145.642C57.9387 145.74 58.1837 145.789 58.4404 145.789C58.7064 145.789 58.9444 145.742 59.1544 145.649C59.369 145.551 59.551 145.402 59.7004 145.201C59.8497 144.996 59.964 144.737 60.0434 144.424C60.1227 144.107 60.1624 143.729 60.1624 143.29C60.1624 142.501 60.0317 141.932 59.7704 141.582C59.509 141.227 59.1334 141.05 58.6434 141.05C58.312 141.05 58.0227 141.127 57.7754 141.281C57.528 141.43 57.2924 141.643 57.0684 141.918V145.138ZM57.0684 140.7C57.3577 140.397 57.6774 140.156 58.0274 139.979C58.382 139.797 58.7857 139.706 59.2384 139.706C59.6537 139.706 60.027 139.788 60.3584 139.951C60.6944 140.114 60.979 140.35 61.2124 140.658C61.4504 140.961 61.6324 141.33 61.7584 141.764C61.8844 142.198 61.9474 142.686 61.9474 143.227C61.9474 143.81 61.875 144.34 61.7304 144.816C61.5857 145.292 61.378 145.7 61.1074 146.041C60.8414 146.377 60.5194 146.638 60.1414 146.825C59.7634 147.012 59.3434 147.105 58.8814 147.105C58.6574 147.105 58.4544 147.082 58.2724 147.035C58.0904 146.993 57.9224 146.932 57.7684 146.853C57.6144 146.774 57.472 146.678 57.3414 146.566C57.2154 146.449 57.094 146.321 56.9774 146.181L56.9004 146.664C56.8724 146.785 56.8234 146.872 56.7534 146.923C56.688 146.974 56.597 147 56.4804 147H55.3394V136.598H57.0684V140.7ZM67.0767 143.934C66.5774 143.957 66.1574 144.002 65.8167 144.067C65.476 144.128 65.203 144.207 64.9977 144.305C64.7924 144.403 64.6454 144.517 64.5567 144.648C64.468 144.779 64.4237 144.921 64.4237 145.075C64.4237 145.378 64.5124 145.595 64.6897 145.726C64.8717 145.857 65.1074 145.922 65.3967 145.922C65.7514 145.922 66.057 145.859 66.3137 145.733C66.575 145.602 66.8294 145.406 67.0767 145.145V143.934ZM63.1147 140.819C63.9407 140.063 64.9347 139.685 66.0967 139.685C66.5167 139.685 66.8924 139.755 67.2237 139.895C67.555 140.03 67.835 140.222 68.0637 140.469C68.2924 140.712 68.465 141.003 68.5817 141.344C68.703 141.685 68.7637 142.058 68.7637 142.464V147H67.9797C67.8164 147 67.6904 146.977 67.6017 146.93C67.513 146.879 67.443 146.778 67.3917 146.629L67.2377 146.111C67.0557 146.274 66.8784 146.419 66.7057 146.545C66.533 146.666 66.3534 146.769 66.1667 146.853C65.98 146.937 65.7794 147 65.5647 147.042C65.3547 147.089 65.1214 147.112 64.8647 147.112C64.5614 147.112 64.2814 147.072 64.0247 146.993C63.768 146.909 63.5464 146.785 63.3597 146.622C63.173 146.459 63.0284 146.256 62.9257 146.013C62.823 145.77 62.7717 145.488 62.7717 145.166C62.7717 144.984 62.802 144.804 62.8627 144.627C62.9234 144.445 63.0214 144.272 63.1567 144.109C63.2967 143.946 63.4764 143.792 63.6957 143.647C63.915 143.502 64.1834 143.376 64.5007 143.269C64.8227 143.162 65.196 143.075 65.6207 143.01C66.0454 142.94 66.5307 142.898 67.0767 142.884V142.464C67.0767 141.983 66.974 141.629 66.7687 141.4C66.5634 141.167 66.267 141.05 65.8797 141.05C65.5997 141.05 65.3664 141.083 65.1797 141.148C64.9977 141.213 64.8367 141.288 64.6967 141.372C64.5567 141.451 64.4284 141.524 64.3117 141.589C64.1997 141.654 64.0737 141.687 63.9337 141.687C63.8124 141.687 63.7097 141.657 63.6257 141.596C63.5417 141.531 63.474 141.456 63.4227 141.372L63.1147 140.819ZM72.1421 136.598V147H70.4131V136.598H72.1421ZM81.777 141.652C81.581 141.414 81.3664 141.246 81.133 141.148C80.9044 141.05 80.657 141.001 80.391 141.001C80.1297 141.001 79.894 141.05 79.684 141.148C79.474 141.246 79.2944 141.395 79.145 141.596C78.9957 141.792 78.8814 142.044 78.802 142.352C78.7227 142.655 78.683 143.015 78.683 143.43C78.683 143.85 78.7157 144.207 78.781 144.501C78.851 144.79 78.949 145.028 79.075 145.215C79.201 145.397 79.355 145.53 79.537 145.614C79.719 145.693 79.922 145.733 80.146 145.733C80.5054 145.733 80.811 145.658 81.063 145.509C81.315 145.36 81.553 145.147 81.777 144.872V141.652ZM83.506 136.598V147H82.449C82.2204 147 82.0757 146.895 82.015 146.685L81.868 145.992C81.5787 146.323 81.245 146.592 80.867 146.797C80.4937 147.002 80.0574 147.105 79.558 147.105C79.166 147.105 78.8067 147.023 78.48 146.86C78.1534 146.697 77.871 146.461 77.633 146.153C77.3997 145.84 77.2177 145.455 77.087 144.998C76.961 144.541 76.898 144.018 76.898 143.43C76.898 142.898 76.9704 142.403 77.115 141.946C77.2597 141.489 77.4674 141.092 77.738 140.756C78.0087 140.42 78.333 140.159 78.711 139.972C79.089 139.781 79.5137 139.685 79.985 139.685C80.3864 139.685 80.7294 139.748 81.014 139.874C81.2987 140 81.553 140.17 81.777 140.385V136.598H83.506ZM88.3904 139.706C88.9224 139.706 89.4054 139.792 89.8394 139.965C90.2781 140.138 90.6514 140.383 90.9594 140.7C91.2721 141.017 91.5124 141.405 91.6804 141.862C91.8484 142.319 91.9324 142.83 91.9324 143.395C91.9324 143.964 91.8484 144.478 91.6804 144.935C91.5124 145.392 91.2721 145.782 90.9594 146.104C90.6514 146.426 90.2781 146.673 89.8394 146.846C89.4054 147.019 88.9224 147.105 88.3904 147.105C87.8537 147.105 87.3661 147.019 86.9274 146.846C86.4887 146.673 86.1131 146.426 85.8004 146.104C85.4924 145.782 85.2521 145.392 85.0794 144.935C84.9114 144.478 84.8274 143.964 84.8274 143.395C84.8274 142.83 84.9114 142.319 85.0794 141.862C85.2521 141.405 85.4924 141.017 85.8004 140.7C86.1131 140.383 86.4887 140.138 86.9274 139.965C87.3661 139.792 87.8537 139.706 88.3904 139.706ZM88.3904 145.775C88.9877 145.775 89.4287 145.574 89.7134 145.173C90.0027 144.772 90.1474 144.184 90.1474 143.409C90.1474 142.634 90.0027 142.044 89.7134 141.638C89.4287 141.232 88.9877 141.029 88.3904 141.029C87.7837 141.029 87.3334 141.234 87.0394 141.645C86.7501 142.051 86.6054 142.639 86.6054 143.409C86.6054 144.179 86.7501 144.767 87.0394 145.173C87.3334 145.574 87.7837 145.775 88.3904 145.775ZM101.801 141.337C101.749 141.402 101.698 141.454 101.647 141.491C101.6 141.528 101.53 141.547 101.437 141.547C101.348 141.547 101.262 141.521 101.178 141.47C101.094 141.414 100.993 141.353 100.877 141.288C100.76 141.218 100.62 141.157 100.457 141.106C100.298 141.05 100.1 141.022 99.8618 141.022C99.5584 141.022 99.2924 141.078 99.0638 141.19C98.8351 141.297 98.6438 141.454 98.4898 141.659C98.3404 141.864 98.2284 142.114 98.1538 142.408C98.0791 142.697 98.0418 143.026 98.0418 143.395C98.0418 143.778 98.0814 144.118 98.1608 144.417C98.2448 144.716 98.3638 144.968 98.5178 145.173C98.6718 145.374 98.8584 145.528 99.0778 145.635C99.2971 145.738 99.5444 145.789 99.8198 145.789C100.095 145.789 100.317 145.756 100.485 145.691C100.657 145.621 100.802 145.546 100.919 145.467C101.035 145.383 101.136 145.308 101.22 145.243C101.308 145.173 101.406 145.138 101.514 145.138C101.654 145.138 101.759 145.192 101.829 145.299L102.326 145.929C102.134 146.153 101.927 146.342 101.703 146.496C101.479 146.645 101.245 146.767 101.003 146.86C100.765 146.949 100.517 147.012 100.261 147.049C100.009 147.086 99.7568 147.105 99.5048 147.105C99.0614 147.105 98.6438 147.023 98.2518 146.86C97.8598 146.692 97.5168 146.449 97.2228 146.132C96.9288 145.815 96.6954 145.427 96.5228 144.97C96.3548 144.508 96.2708 143.983 96.2708 143.395C96.2708 142.868 96.3454 142.38 96.4948 141.932C96.6488 141.479 96.8728 141.09 97.1668 140.763C97.4608 140.432 97.8248 140.173 98.2588 139.986C98.6928 139.799 99.1921 139.706 99.7568 139.706C100.293 139.706 100.762 139.792 101.164 139.965C101.57 140.138 101.934 140.385 102.256 140.707L101.801 141.337ZM105.16 136.598V147H103.431V136.598H105.16ZM108.674 139.818V147H106.938V139.818H108.674ZM108.912 137.725C108.912 137.874 108.882 138.014 108.821 138.145C108.761 138.276 108.679 138.39 108.576 138.488C108.478 138.586 108.362 138.665 108.226 138.726C108.091 138.782 107.946 138.81 107.792 138.81C107.643 138.81 107.501 138.782 107.365 138.726C107.235 138.665 107.12 138.586 107.022 138.488C106.924 138.39 106.845 138.276 106.784 138.145C106.728 138.014 106.7 137.874 106.7 137.725C106.7 137.571 106.728 137.426 106.784 137.291C106.845 137.156 106.924 137.039 107.022 136.941C107.12 136.843 107.235 136.766 107.365 136.71C107.501 136.649 107.643 136.619 107.792 136.619C107.946 136.619 108.091 136.649 108.226 136.71C108.362 136.766 108.478 136.843 108.576 136.941C108.679 137.039 108.761 137.156 108.821 137.291C108.882 137.426 108.912 137.571 108.912 137.725ZM110.437 147V139.818H111.494C111.718 139.818 111.865 139.923 111.935 140.133L112.047 140.665C112.173 140.525 112.304 140.397 112.439 140.28C112.579 140.163 112.726 140.063 112.88 139.979C113.039 139.895 113.207 139.83 113.384 139.783C113.566 139.732 113.764 139.706 113.979 139.706C114.432 139.706 114.803 139.83 115.092 140.077C115.386 140.32 115.605 140.644 115.75 141.05C115.862 140.812 116.002 140.609 116.17 140.441C116.338 140.268 116.522 140.128 116.723 140.021C116.924 139.914 117.136 139.834 117.36 139.783C117.589 139.732 117.817 139.706 118.046 139.706C118.443 139.706 118.795 139.767 119.103 139.888C119.411 140.009 119.67 140.187 119.88 140.42C120.09 140.653 120.249 140.938 120.356 141.274C120.468 141.61 120.524 141.995 120.524 142.429V147H118.795V142.429C118.795 141.972 118.695 141.629 118.494 141.4C118.293 141.167 117.999 141.05 117.612 141.05C117.435 141.05 117.269 141.08 117.115 141.141C116.966 141.202 116.833 141.29 116.716 141.407C116.604 141.519 116.515 141.661 116.45 141.834C116.385 142.007 116.352 142.205 116.352 142.429V147H114.616V142.429C114.616 141.948 114.518 141.598 114.322 141.379C114.131 141.16 113.848 141.05 113.475 141.05C113.223 141.05 112.987 141.113 112.768 141.239C112.553 141.36 112.353 141.528 112.166 141.743V147H110.437ZM125.961 143.934C125.462 143.957 125.042 144.002 124.701 144.067C124.361 144.128 124.088 144.207 123.882 144.305C123.677 144.403 123.53 144.517 123.441 144.648C123.353 144.779 123.308 144.921 123.308 145.075C123.308 145.378 123.397 145.595 123.574 145.726C123.756 145.857 123.992 145.922 124.281 145.922C124.636 145.922 124.942 145.859 125.198 145.733C125.46 145.602 125.714 145.406 125.961 145.145V143.934ZM121.999 140.819C122.825 140.063 123.819 139.685 124.981 139.685C125.401 139.685 125.777 139.755 126.108 139.895C126.44 140.03 126.72 140.222 126.948 140.469C127.177 140.712 127.35 141.003 127.466 141.344C127.588 141.685 127.648 142.058 127.648 142.464V147H126.864C126.701 147 126.575 146.977 126.486 146.93C126.398 146.879 126.328 146.778 126.276 146.629L126.122 146.111C125.94 146.274 125.763 146.419 125.59 146.545C125.418 146.666 125.238 146.769 125.051 146.853C124.865 146.937 124.664 147 124.449 147.042C124.239 147.089 124.006 147.112 123.749 147.112C123.446 147.112 123.166 147.072 122.909 146.993C122.653 146.909 122.431 146.785 122.244 146.622C122.058 146.459 121.913 146.256 121.81 146.013C121.708 145.77 121.656 145.488 121.656 145.166C121.656 144.984 121.687 144.804 121.747 144.627C121.808 144.445 121.906 144.272 122.041 144.109C122.181 143.946 122.361 143.792 122.58 143.647C122.8 143.502 123.068 143.376 123.385 143.269C123.707 143.162 124.081 143.075 124.505 143.01C124.93 142.94 125.415 142.898 125.961 142.884V142.464C125.961 141.983 125.859 141.629 125.653 141.4C125.448 141.167 125.152 141.05 124.764 141.05C124.484 141.05 124.251 141.083 124.064 141.148C123.882 141.213 123.721 141.288 123.581 141.372C123.441 141.451 123.313 141.524 123.196 141.589C123.084 141.654 122.958 141.687 122.818 141.687C122.697 141.687 122.594 141.657 122.51 141.596C122.426 141.531 122.359 141.456 122.307 141.372L121.999 140.819Z" fill="#606060"/>
<path d="M125 53.0977C95.0333 23.8411 64.4222 26.1168 38 53.0977C38 53.0977 56.6889 78.1293 83.7556 75.8537C110.822 73.5782 125 53.0977 125 53.0977Z" fill="#F9F9F9" stroke="#F9F9F9"/>
<path d="M99.3666 53.6856C99.3666 63.2916 91.3793 71.0999 81.5 71.0999C71.6207 71.0999 63.6333 63.2916 63.6333 53.6856C63.6333 44.0797 71.6207 36.2714 81.5 36.2714C91.3793 36.2714 99.3666 44.0797 99.3666 53.6856Z" fill="#3D874D" stroke="#F9F9F9"/>
<path d="M70.8667 64.3714C70.8667 66.2571 71.1889 66.8857 71.8333 67.5143C72.4778 68.1428 75.0991 65.367 75.7 64.3714C76.3009 63.3759 76.2555 63.1583 77.6333 62.4857C79.0112 61.813 79.2444 59.0286 79.2444 59.0286L78.6 57.4571L77.6333 56.2L75.7 54.6286C75.3207 53.9876 75.386 53.7283 76.6666 53.6857L79.2444 55.2571C80.5898 55.4005 80.6578 54.8639 80.5333 53.6857L77.6333 50.8571C77.2472 50.1501 77.6414 50.1548 78.9222 50.5428L82.1444 53.6857C83.208 54.6385 84.4 54.9428 84.7222 55.2571C85.0444 55.5714 83.7555 56.5143 84.0778 56.8286C84.4 57.1428 85.6889 56.8286 85.6889 56.8286L87.6222 55.2571C88.6692 55.1184 86.7203 54.0586 86.6555 53.0571C86.5908 52.0557 87.9305 51.5184 88.9111 52.4286C89.8916 53.3387 90.5222 56.8286 90.5222 56.8286C91.1512 57.9171 91.602 58.1602 92.4555 58.4H95.6778C96.4088 58.0317 96.6298 57.8255 95.6778 57.4571H93.1C92.431 56.5046 91.8111 54.9429 92.4555 54.6286C93.1 54.3142 94.3889 54 95.0333 53.6857C95.6778 53.3714 94.7111 51.4857 95.6778 51.4857C96.542 51.4857 98.9514 51.0762 99.2222 50.9895V50.9734C99.2564 50.9734 99.2543 50.9792 99.2222 50.9895V52.5448L98.2555 53.1734L96.9666 53.802V55.0591L97.2889 56.002L98.9 57.5734L98.2555 59.4591L96.6444 59.1448C96.6444 59.1448 95.3555 59.1448 94.7111 59.4591C94.0666 59.7734 93.1 60.7163 92.7778 60.7163H91.1666C89.8778 60.7163 88.5889 63.2306 88.5889 63.5448C88.5889 63.8591 90.378 66.5469 90.5222 66.6877C90.6665 66.8286 91.5673 66.7661 92.4555 67.6306C92.4555 67.6306 88.9111 67.7469 88.2666 67.9448C87.6222 68.1428 86.6555 68.8877 85.6889 69.202C84.7222 69.5163 82.4667 68.2591 81.8222 68.2591C81.1778 68.2591 79.2444 68.5734 77.6333 68.5734C76.0222 68.5734 74.7333 70.1448 74.7333 70.1448C69.4952 67.8081 67.4064 65.4436 65.0667 60.6C66.1819 60.6133 66.8677 60.1964 68.6111 61.2285C68.6111 61.2285 70.8667 62.4857 70.8667 64.3714Z" fill="#F9F9F9" stroke="#F9F9F9" stroke-width="0.1"/>
<path d="M67.3222 49.5999C66.6777 49.2857 63.7777 50.5428 63.7777 50.5428V52.5449C64.1276 52.1284 64.4189 51.4947 65.0666 51.1714C65.0666 51.1714 66.9999 50.5428 67.6444 51.1714C68.2888 51.7999 70.5444 51.8 71.511 52.1142C72.4777 52.4285 72.7999 51.1714 72.4777 50.5428C72.1555 49.9142 70.2222 49.9143 70.2222 49.9143C70.2222 49.9143 67.9666 49.9142 67.3222 49.5999Z" fill="#F9F9F9" stroke="#F9F9F9"/>
<path d="M67.0001 48.0288C65.389 48.9716 64.1001 48.9716 64.1001 48.9716C64.1001 48.9716 65.0668 45.0022 68.9334 41.2308C72.8001 37.4594 77.6334 36.7145 77.6334 36.7145C77.6334 36.7145 78.2779 37.9716 77.9557 37.9716C77.6334 37.9716 76.989 37.6573 76.0223 37.9716L75.0557 38.2859L73.1223 38.6002C72.472 38.9868 72.3077 39.1505 72.8001 39.2288H77.3112C77.9557 39.2288 78.086 40.0985 77.6334 40.8002C77.6334 40.8002 79.889 42.0573 79.5668 42.3716C79.2445 42.6859 78.6001 43.0002 77.6334 43.6288C76.6668 44.2573 76.3445 44.5716 76.3445 44.5716C75.474 44.5216 75.2755 44.3465 75.7001 43.6288L77.3112 43.0002C77.3112 43.0002 77.6334 42.3716 77.6334 42.0573C77.6334 41.743 75.7001 42.0573 75.7001 42.0573C75.2962 42.2584 75.3779 42.6859 75.0557 43.0002C74.7334 43.3145 72.1771 42.6251 70.5445 43.0002C69.4124 43.6195 69.9569 44.2798 69.9001 44.2573C69.8433 44.2349 69.8338 44.8608 70.5445 45.2002L72.8001 44.5716C72.8001 44.5716 74.089 44.2573 74.4112 44.2573C74.7334 44.2573 74.4112 45.2002 74.4112 45.2002C74.4112 45.2002 74.2871 45.7748 74.089 46.143C73.5812 46.1958 73.129 46.255 71.8334 46.4573C69.7695 46.7611 69.3731 46.7602 68.6112 46.7716C67.7686 46.967 68.6112 47.0859 67.0001 48.0288Z" fill="#F9F9F9" stroke="#F9F9F9" stroke-width="0.1"/>
<path d="M78.2776 68.4571C76.9888 68.4571 75.0554 69.8306 75.0554 70.1449C75.0554 70.4592 79.5665 71.402 83.7554 71.0877C87.9443 70.7734 92.3529 67.9138 92.1332 67.8286H88.5888C87.9443 67.8286 86.6554 69.4 85.6888 69.4C84.7221 69.4 83.4332 68.7714 82.4665 68.4571C81.4999 68.1428 79.5665 68.4571 78.2776 68.4571Z" fill="#3D874D" stroke="#F9F9F9"/>
<path d="M90.2 66.2576C91.0123 66.5535 91.8111 68.2596 94.0666 66.0596C96.3221 63.8596 97.5071 62.461 98.2554 59.8901C98.2554 59.8901 98.5777 59.7738 96.6443 59.4595C94.711 59.1453 93.7443 60.9147 92.1333 60.6005C90.5222 60.2862 89.0656 62.7805 88.9111 63.429C88.7566 64.0776 89.3877 65.9617 90.2 66.2576Z" stroke="#F9F9F9"/>
<path d="M68.1364 18.939C68.1364 19.681 68.0128 20.3693 67.7654 21.004C67.5228 21.634 67.1774 22.18 66.7294 22.642C66.2814 23.104 65.7424 23.4657 65.1124 23.727C64.4824 23.9837 63.7824 24.112 63.0124 24.112C62.2471 24.112 61.5494 23.9837 60.9194 23.727C60.2894 23.4657 59.7481 23.104 59.2954 22.642C58.8474 22.18 58.4998 21.634 58.2524 21.004C58.0051 20.3693 57.8814 19.681 57.8814 18.939C57.8814 18.197 58.0051 17.511 58.2524 16.881C58.4998 16.2463 58.8474 15.698 59.2954 15.236C59.7481 14.774 60.2894 14.4147 60.9194 14.158C61.5494 13.8967 62.2471 13.766 63.0124 13.766C63.5258 13.766 64.0088 13.8267 64.4614 13.948C64.9141 14.0647 65.3294 14.2327 65.7074 14.452C66.0854 14.6667 66.4238 14.9303 66.7224 15.243C67.0258 15.551 67.2824 15.8963 67.4924 16.279C67.7024 16.6617 67.8611 17.077 67.9684 17.525C68.0804 17.973 68.1364 18.4443 68.1364 18.939ZM66.2114 18.939C66.2114 18.3837 66.1368 17.8867 65.9874 17.448C65.8381 17.0047 65.6258 16.629 65.3504 16.321C65.0751 16.013 64.7391 15.7773 64.3424 15.614C63.9504 15.4507 63.5071 15.369 63.0124 15.369C62.5178 15.369 62.0721 15.4507 61.6754 15.614C61.2834 15.7773 60.9474 16.013 60.6674 16.321C60.3921 16.629 60.1798 17.0047 60.0304 17.448C59.8811 17.8867 59.8064 18.3837 59.8064 18.939C59.8064 19.4943 59.8811 19.9937 60.0304 20.437C60.1798 20.8757 60.3921 21.249 60.6674 21.557C60.9474 21.8603 61.2834 22.0937 61.6754 22.257C62.0721 22.4203 62.5178 22.502 63.0124 22.502C63.5071 22.502 63.9504 22.4203 64.3424 22.257C64.7391 22.0937 65.0751 21.8603 65.3504 21.557C65.6258 21.249 65.8381 20.8757 65.9874 20.437C66.1368 19.9937 66.2114 19.4943 66.2114 18.939ZM78.7781 18.939C78.7781 19.681 78.6544 20.3623 78.4071 20.983C78.1598 21.6037 77.8121 22.138 77.3641 22.586C76.9161 23.034 76.3771 23.3817 75.7471 23.629C75.1171 23.8763 74.4171 24 73.6471 24H69.7901V13.878H73.6471C74.4171 13.878 75.1171 14.004 75.7471 14.256C76.3771 14.5033 76.9161 14.851 77.3641 15.299C77.8121 15.7423 78.1598 16.2743 78.4071 16.895C78.6544 17.5157 78.7781 18.197 78.7781 18.939ZM76.8461 18.939C76.8461 18.3837 76.7714 17.8867 76.6221 17.448C76.4774 17.0047 76.2651 16.6313 75.9851 16.328C75.7098 16.02 75.3738 15.7843 74.9771 15.621C74.5851 15.4577 74.1418 15.376 73.6471 15.376H71.6801V22.502H73.6471C74.1418 22.502 74.5851 22.4203 74.9771 22.257C75.3738 22.0937 75.7098 21.8603 75.9851 21.557C76.2651 21.249 76.4774 20.8757 76.6221 20.437C76.7714 19.9937 76.8461 19.4943 76.8461 18.939ZM85.8305 15.719C85.7745 15.817 85.7138 15.8893 85.6485 15.936C85.5878 15.978 85.5108 15.999 85.4175 15.999C85.3195 15.999 85.2121 15.964 85.0955 15.894C84.9835 15.8193 84.8481 15.7377 84.6895 15.649C84.5308 15.5603 84.3441 15.481 84.1295 15.411C83.9195 15.3363 83.6698 15.299 83.3805 15.299C83.1191 15.299 82.8905 15.3317 82.6945 15.397C82.4985 15.4577 82.3328 15.544 82.1975 15.656C82.0668 15.768 81.9688 15.9033 81.9035 16.062C81.8381 16.216 81.8055 16.3863 81.8055 16.573C81.8055 16.811 81.8708 17.0093 82.0015 17.168C82.1368 17.3267 82.3141 17.462 82.5335 17.574C82.7528 17.686 83.0025 17.7863 83.2825 17.875C83.5625 17.9637 83.8495 18.0593 84.1435 18.162C84.4375 18.26 84.7245 18.3767 85.0045 18.512C85.2845 18.6427 85.5341 18.8107 85.7535 19.016C85.9728 19.2167 86.1478 19.464 86.2785 19.758C86.4138 20.052 86.4815 20.409 86.4815 20.829C86.4815 21.2863 86.4021 21.7157 86.2435 22.117C86.0895 22.5137 85.8608 22.8613 85.5575 23.16C85.2588 23.454 84.8925 23.6873 84.4585 23.86C84.0245 24.028 83.5275 24.112 82.9675 24.112C82.6455 24.112 82.3281 24.0793 82.0155 24.014C81.7028 23.9533 81.4018 23.8647 81.1125 23.748C80.8278 23.6313 80.5595 23.4913 80.3075 23.328C80.0555 23.1647 79.8315 22.9827 79.6355 22.782L80.1885 21.879C80.2351 21.8137 80.2958 21.76 80.3705 21.718C80.4451 21.6713 80.5245 21.648 80.6085 21.648C80.7251 21.648 80.8511 21.697 80.9865 21.795C81.1218 21.8883 81.2828 21.9933 81.4695 22.11C81.6561 22.2267 81.8731 22.334 82.1205 22.432C82.3725 22.5253 82.6735 22.572 83.0235 22.572C83.5601 22.572 83.9755 22.446 84.2695 22.194C84.5635 21.9373 84.7105 21.571 84.7105 21.095C84.7105 20.829 84.6428 20.612 84.5075 20.444C84.3768 20.276 84.2018 20.136 83.9825 20.024C83.7631 19.9073 83.5135 19.8093 83.2335 19.73C82.9535 19.6507 82.6688 19.5643 82.3795 19.471C82.0901 19.3777 81.8055 19.2657 81.5255 19.135C81.2455 19.0043 80.9958 18.834 80.7765 18.624C80.5571 18.414 80.3798 18.1527 80.2445 17.84C80.1138 17.5227 80.0485 17.133 80.0485 16.671C80.0485 16.3023 80.1208 15.943 80.2655 15.593C80.4148 15.243 80.6295 14.9327 80.9095 14.662C81.1895 14.3913 81.5348 14.1743 81.9455 14.011C82.3561 13.8477 82.8275 13.766 83.3595 13.766C83.9568 13.766 84.5075 13.8593 85.0115 14.046C85.5155 14.2327 85.9448 14.494 86.2995 14.83L85.8305 15.719ZM97.6464 22.705V24H92.0464V22.705H94.0974V16.804C94.0974 16.5707 94.1044 16.3303 94.1184 16.083L92.6624 17.301C92.5784 17.3663 92.4944 17.4083 92.4104 17.427C92.331 17.441 92.254 17.441 92.1794 17.427C92.1094 17.413 92.0464 17.3897 91.9904 17.357C91.9344 17.3197 91.8924 17.28 91.8644 17.238L91.3184 16.489L94.4054 13.864H95.8264V22.705H97.6464ZM105.767 22.705V24H100.167V22.705H102.218V16.804C102.218 16.5707 102.225 16.3303 102.239 16.083L100.783 17.301C100.699 17.3663 100.615 17.4083 100.531 17.427C100.452 17.441 100.375 17.441 100.3 17.427C100.23 17.413 100.167 17.3897 100.111 17.357C100.055 17.3197 100.013 17.28 99.9855 17.238L99.4395 16.489L102.526 13.864H103.947V22.705H105.767Z" fill="#F9F9F9"/>
<defs>
<filter id="filter0_d_373_2477" x="0" y="0" width="164" height="168" filterUnits="userSpaceOnUse" color-interpolation-filters="sRGB">
<feFlood flood-opacity="0" result="BackgroundImageFix"/>
<feColorMatrix in="SourceAlpha" type="matrix" values="0 0 0 0 0 0 0 0 0 0 0 0 0 0 0 0 0 0 127 0" result="hardAlpha"/>
<feOffset dy="4"/>
<feGaussianBlur stdDeviation="2"/>
<feColorMatrix type="matrix" values="0 0 0 0 0 0 0 0 0 0 0 0 0 0 0 0 0 0 0.25 0"/>
<feBlend mode="normal" in2="BackgroundImageFix" result="effect1_dropShadow_373_2477"/>
<feBlend mode="normal" in="SourceGraphic" in2="effect1_dropShadow_373_2477" result="shape"/>
</filter>
</defs>
</svg>
