<svg width="164" height="168" viewBox="0 0 164 168" fill="none" xmlns="http://www.w3.org/2000/svg">
<g filter="url(#filter0_d_373_2421)">
<rect x="4" width="156" height="160" rx="16" fill="#F9F9F9"/>
</g>
<path d="M4.5 16C4.5 7.43959 11.4396 0.5 20 0.5H144C152.56 0.5 159.5 7.43959 159.5 16V103.5H20C11.4396 103.5 4.5 96.5604 4.5 88V16Z" fill="#4CA146" stroke="#218738"/>
<path d="M62.3627 116.719C62.3067 116.817 62.246 116.889 62.1807 116.936C62.12 116.978 62.043 116.999 61.9497 116.999C61.8517 116.999 61.7444 116.964 61.6277 116.894C61.5157 116.819 61.3804 116.738 61.2217 116.649C61.063 116.56 60.8764 116.481 60.6617 116.411C60.4517 116.336 60.202 116.299 59.9127 116.299C59.6514 116.299 59.4227 116.332 59.2267 116.397C59.0307 116.458 58.865 116.544 58.7297 116.656C58.599 116.768 58.501 116.903 58.4357 117.062C58.3704 117.216 58.3377 117.386 58.3377 117.573C58.3377 117.811 58.403 118.009 58.5337 118.168C58.669 118.327 58.8464 118.462 59.0657 118.574C59.285 118.686 59.5347 118.786 59.8147 118.875C60.0947 118.964 60.3817 119.059 60.6757 119.162C60.9697 119.26 61.2567 119.377 61.5367 119.512C61.8167 119.643 62.0664 119.811 62.2857 120.016C62.505 120.217 62.68 120.464 62.8107 120.758C62.946 121.052 63.0137 121.409 63.0137 121.829C63.0137 122.286 62.9344 122.716 62.7757 123.117C62.6217 123.514 62.393 123.861 62.0897 124.16C61.791 124.454 61.4247 124.687 60.9907 124.86C60.5567 125.028 60.0597 125.112 59.4997 125.112C59.1777 125.112 58.8604 125.079 58.5477 125.014C58.235 124.953 57.934 124.865 57.6447 124.748C57.36 124.631 57.0917 124.491 56.8397 124.328C56.5877 124.165 56.3637 123.983 56.1677 123.782L56.7207 122.879C56.7674 122.814 56.828 122.76 56.9027 122.718C56.9774 122.671 57.0567 122.648 57.1407 122.648C57.2574 122.648 57.3834 122.697 57.5187 122.795C57.654 122.888 57.815 122.993 58.0017 123.11C58.1884 123.227 58.4054 123.334 58.6527 123.432C58.9047 123.525 59.2057 123.572 59.5557 123.572C60.0924 123.572 60.5077 123.446 60.8017 123.194C61.0957 122.937 61.2427 122.571 61.2427 122.095C61.2427 121.829 61.175 121.612 61.0397 121.444C60.909 121.276 60.734 121.136 60.5147 121.024C60.2954 120.907 60.0457 120.809 59.7657 120.73C59.4857 120.651 59.201 120.564 58.9117 120.471C58.6224 120.378 58.3377 120.266 58.0577 120.135C57.7777 120.004 57.528 119.834 57.3087 119.624C57.0894 119.414 56.912 119.153 56.7767 118.84C56.646 118.523 56.5807 118.133 56.5807 117.671C56.5807 117.302 56.653 116.943 56.7977 116.593C56.947 116.243 57.1617 115.933 57.4417 115.662C57.7217 115.391 58.067 115.174 58.4777 115.011C58.8884 114.848 59.3597 114.766 59.8917 114.766C60.489 114.766 61.0397 114.859 61.5437 115.046C62.0477 115.233 62.477 115.494 62.8317 115.83L62.3627 116.719ZM68.0816 121.934C67.5823 121.957 67.1623 122.002 66.8216 122.067C66.4809 122.128 66.2079 122.207 66.0026 122.305C65.7973 122.403 65.6503 122.517 65.5616 122.648C65.4729 122.779 65.4286 122.921 65.4286 123.075C65.4286 123.378 65.5173 123.595 65.6946 123.726C65.8766 123.857 66.1123 123.922 66.4016 123.922C66.7563 123.922 67.0619 123.859 67.3186 123.733C67.5799 123.602 67.8343 123.406 68.0816 123.145V121.934ZM64.1196 118.819C64.9456 118.063 65.9396 117.685 67.1016 117.685C67.5216 117.685 67.8973 117.755 68.2286 117.895C68.5599 118.03 68.8399 118.222 69.0686 118.469C69.2973 118.712 69.4699 119.003 69.5866 119.344C69.7079 119.685 69.7686 120.058 69.7686 120.464V125H68.9846C68.8213 125 68.6953 124.977 68.6066 124.93C68.5179 124.879 68.4479 124.778 68.3966 124.629L68.2426 124.111C68.0606 124.274 67.8833 124.419 67.7106 124.545C67.5379 124.666 67.3583 124.769 67.1716 124.853C66.9849 124.937 66.7843 125 66.5696 125.042C66.3596 125.089 66.1263 125.112 65.8696 125.112C65.5663 125.112 65.2863 125.072 65.0296 124.993C64.7729 124.909 64.5513 124.785 64.3646 124.622C64.1779 124.459 64.0333 124.256 63.9306 124.013C63.8279 123.77 63.7766 123.488 63.7766 123.166C63.7766 122.984 63.8069 122.804 63.8676 122.627C63.9283 122.445 64.0263 122.272 64.1616 122.109C64.3016 121.946 64.4813 121.792 64.7006 121.647C64.9199 121.502 65.1883 121.376 65.5056 121.269C65.8276 121.162 66.2009 121.075 66.6256 121.01C67.0503 120.94 67.5356 120.898 68.0816 120.884V120.464C68.0816 119.983 67.9789 119.629 67.7736 119.4C67.5683 119.167 67.2719 119.05 66.8846 119.05C66.6046 119.05 66.3713 119.083 66.1846 119.148C66.0026 119.213 65.8416 119.288 65.7016 119.372C65.5616 119.451 65.4333 119.524 65.3166 119.589C65.2046 119.654 65.0786 119.687 64.9386 119.687C64.8173 119.687 64.7146 119.657 64.6306 119.596C64.5466 119.531 64.4789 119.456 64.4276 119.372L64.1196 118.819ZM77.585 117.818V125H76.528C76.2993 125 76.1546 124.895 76.094 124.685L75.975 124.111C75.681 124.41 75.3566 124.652 75.002 124.839C74.6473 125.021 74.2296 125.112 73.749 125.112C73.357 125.112 73.0093 125.047 72.706 124.916C72.4073 124.781 72.1553 124.592 71.95 124.349C71.7446 124.106 71.5883 123.819 71.481 123.488C71.3783 123.152 71.327 122.783 71.327 122.382V117.818H73.056V122.382C73.056 122.821 73.1563 123.161 73.357 123.404C73.5623 123.642 73.868 123.761 74.274 123.761C74.5726 123.761 74.8526 123.696 75.114 123.565C75.3753 123.43 75.6226 123.245 75.856 123.012V117.818H77.585ZM76.913 114.766L75.184 116.593C75.0953 116.686 75.009 116.752 74.925 116.789C74.8456 116.822 74.7406 116.838 74.61 116.838H73.574L74.568 115.137C74.638 115.016 74.7196 114.925 74.813 114.864C74.9063 114.799 75.0463 114.766 75.233 114.766H76.913ZM83.8073 119.652C83.6113 119.414 83.3966 119.246 83.1633 119.148C82.9346 119.05 82.6873 119.001 82.4213 119.001C82.16 119.001 81.9243 119.05 81.7143 119.148C81.5043 119.246 81.3246 119.395 81.1753 119.596C81.026 119.792 80.9116 120.044 80.8323 120.352C80.753 120.655 80.7133 121.015 80.7133 121.43C80.7133 121.85 80.746 122.207 80.8113 122.501C80.8813 122.79 80.9793 123.028 81.1053 123.215C81.2313 123.397 81.3853 123.53 81.5673 123.614C81.7493 123.693 81.9523 123.733 82.1763 123.733C82.5356 123.733 82.8413 123.658 83.0933 123.509C83.3453 123.36 83.5833 123.147 83.8073 122.872V119.652ZM85.5363 114.598V125H84.4793C84.2506 125 84.106 124.895 84.0453 124.685L83.8983 123.992C83.609 124.323 83.2753 124.592 82.8973 124.797C82.524 125.002 82.0876 125.105 81.5883 125.105C81.1963 125.105 80.837 125.023 80.5103 124.86C80.1836 124.697 79.9013 124.461 79.6633 124.153C79.43 123.84 79.248 123.455 79.1173 122.998C78.9913 122.541 78.9283 122.018 78.9283 121.43C78.9283 120.898 79.0006 120.403 79.1453 119.946C79.29 119.489 79.4976 119.092 79.7683 118.756C80.039 118.42 80.3633 118.159 80.7413 117.972C81.1193 117.781 81.544 117.685 82.0153 117.685C82.4166 117.685 82.7596 117.748 83.0443 117.874C83.329 118 83.5833 118.17 83.8073 118.385V114.598H85.5363ZM91.8697 120.583C91.8697 120.359 91.837 120.149 91.7717 119.953C91.711 119.752 91.6177 119.577 91.4917 119.428C91.3657 119.279 91.2047 119.162 91.0087 119.078C90.8173 118.989 90.5933 118.945 90.3367 118.945C89.8373 118.945 89.443 119.087 89.1537 119.372C88.869 119.657 88.687 120.06 88.6077 120.583H91.8697ZM88.5727 121.626C88.6007 121.995 88.666 122.314 88.7687 122.585C88.8713 122.851 89.0067 123.073 89.1747 123.25C89.3427 123.423 89.541 123.553 89.7697 123.642C90.003 123.726 90.2597 123.768 90.5397 123.768C90.8197 123.768 91.06 123.735 91.2607 123.67C91.466 123.605 91.6433 123.532 91.7927 123.453C91.9467 123.374 92.0797 123.301 92.1917 123.236C92.3083 123.171 92.4203 123.138 92.5277 123.138C92.6723 123.138 92.7797 123.192 92.8497 123.299L93.3467 123.929C93.1553 124.153 92.9407 124.342 92.7027 124.496C92.4647 124.645 92.215 124.767 91.9537 124.86C91.697 124.949 91.4333 125.012 91.1627 125.049C90.8967 125.086 90.6377 125.105 90.3857 125.105C89.8863 125.105 89.422 125.023 88.9927 124.86C88.5633 124.692 88.19 124.447 87.8727 124.125C87.5553 123.798 87.3057 123.397 87.1237 122.921C86.9417 122.44 86.8507 121.885 86.8507 121.255C86.8507 120.765 86.93 120.305 87.0887 119.876C87.2473 119.442 87.4737 119.066 87.7677 118.749C88.0663 118.427 88.428 118.173 88.8527 117.986C89.282 117.799 89.765 117.706 90.3017 117.706C90.7543 117.706 91.172 117.778 91.5547 117.923C91.9373 118.068 92.2663 118.28 92.5417 118.56C92.817 118.835 93.0317 119.176 93.1857 119.582C93.3443 119.983 93.4237 120.443 93.4237 120.961C93.4237 121.222 93.3957 121.4 93.3397 121.493C93.2837 121.582 93.1763 121.626 93.0177 121.626H88.5727ZM102.752 120.583C102.752 120.359 102.72 120.149 102.654 119.953C102.594 119.752 102.5 119.577 102.374 119.428C102.248 119.279 102.087 119.162 101.891 119.078C101.7 118.989 101.476 118.945 101.219 118.945C100.72 118.945 100.326 119.087 100.036 119.372C99.7518 119.657 99.5698 120.06 99.4905 120.583H102.752ZM99.4555 121.626C99.4835 121.995 99.5488 122.314 99.6515 122.585C99.7542 122.851 99.8895 123.073 100.057 123.25C100.225 123.423 100.424 123.553 100.652 123.642C100.886 123.726 101.142 123.768 101.422 123.768C101.702 123.768 101.943 123.735 102.143 123.67C102.349 123.605 102.526 123.532 102.675 123.453C102.829 123.374 102.962 123.301 103.074 123.236C103.191 123.171 103.303 123.138 103.41 123.138C103.555 123.138 103.662 123.192 103.732 123.299L104.229 123.929C104.038 124.153 103.823 124.342 103.585 124.496C103.347 124.645 103.098 124.767 102.836 124.86C102.58 124.949 102.316 125.012 102.045 125.049C101.779 125.086 101.52 125.105 101.268 125.105C100.769 125.105 100.305 125.023 99.8755 124.86C99.4462 124.692 99.0728 124.447 98.7555 124.125C98.4382 123.798 98.1885 123.397 98.0065 122.921C97.8245 122.44 97.7335 121.885 97.7335 121.255C97.7335 120.765 97.8128 120.305 97.9715 119.876C98.1302 119.442 98.3565 119.066 98.6505 118.749C98.9492 118.427 99.3108 118.173 99.7355 117.986C100.165 117.799 100.648 117.706 101.184 117.706C101.637 117.706 102.055 117.778 102.437 117.923C102.82 118.068 103.149 118.28 103.424 118.56C103.7 118.835 103.914 119.176 104.068 119.582C104.227 119.983 104.306 120.443 104.306 120.961C104.306 121.222 104.278 121.4 104.222 121.493C104.166 121.582 104.059 121.626 103.9 121.626H99.4555ZM52.8096 145.138C53.0056 145.376 53.2179 145.544 53.4466 145.642C53.6799 145.74 53.9249 145.789 54.1816 145.789C54.4476 145.789 54.6856 145.742 54.8956 145.649C55.1102 145.551 55.2922 145.402 55.4416 145.201C55.5909 144.996 55.7052 144.737 55.7846 144.424C55.8639 144.107 55.9036 143.729 55.9036 143.29C55.9036 142.501 55.7729 141.932 55.5116 141.582C55.2502 141.227 54.8746 141.05 54.3846 141.05C54.0532 141.05 53.7639 141.127 53.5166 141.281C53.2692 141.43 53.0336 141.643 52.8096 141.918V145.138ZM52.8096 140.7C53.0989 140.397 53.4186 140.156 53.7686 139.979C54.1232 139.797 54.5269 139.706 54.9796 139.706C55.3949 139.706 55.7682 139.788 56.0996 139.951C56.4356 140.114 56.7202 140.35 56.9536 140.658C57.1916 140.961 57.3736 141.33 57.4996 141.764C57.6256 142.198 57.6886 142.686 57.6886 143.227C57.6886 143.81 57.6162 144.34 57.4716 144.816C57.3269 145.292 57.1192 145.7 56.8486 146.041C56.5826 146.377 56.2606 146.638 55.8826 146.825C55.5046 147.012 55.0846 147.105 54.6226 147.105C54.3986 147.105 54.1956 147.082 54.0136 147.035C53.8316 146.993 53.6636 146.932 53.5096 146.853C53.3556 146.774 53.2132 146.678 53.0826 146.566C52.9566 146.449 52.8352 146.321 52.7186 146.181L52.6416 146.664C52.6136 146.785 52.5646 146.872 52.4946 146.923C52.4292 146.974 52.3382 147 52.2216 147H51.0806V136.598H52.8096V140.7ZM63.6509 142.583C63.6509 142.359 63.6183 142.149 63.5529 141.953C63.4923 141.752 63.3989 141.577 63.2729 141.428C63.1469 141.279 62.9859 141.162 62.7899 141.078C62.5986 140.989 62.3746 140.945 62.1179 140.945C61.6186 140.945 61.2243 141.087 60.9349 141.372C60.6503 141.657 60.4683 142.06 60.3889 142.583H63.6509ZM60.3539 143.626C60.3819 143.995 60.4473 144.314 60.5499 144.585C60.6526 144.851 60.7879 145.073 60.9559 145.25C61.1239 145.423 61.3223 145.553 61.5509 145.642C61.7843 145.726 62.0409 145.768 62.3209 145.768C62.6009 145.768 62.8413 145.735 63.0419 145.67C63.2473 145.605 63.4246 145.532 63.5739 145.453C63.7279 145.374 63.8609 145.301 63.9729 145.236C64.0896 145.171 64.2016 145.138 64.3089 145.138C64.4536 145.138 64.5609 145.192 64.6309 145.299L65.1279 145.929C64.9366 146.153 64.7219 146.342 64.4839 146.496C64.2459 146.645 63.9963 146.767 63.7349 146.86C63.4783 146.949 63.2146 147.012 62.9439 147.049C62.6779 147.086 62.4189 147.105 62.1669 147.105C61.6676 147.105 61.2033 147.023 60.7739 146.86C60.3446 146.692 59.9713 146.447 59.6539 146.125C59.3366 145.798 59.0869 145.397 58.9049 144.921C58.7229 144.44 58.6319 143.885 58.6319 143.255C58.6319 142.765 58.7113 142.305 58.8699 141.876C59.0286 141.442 59.2549 141.066 59.5489 140.749C59.8476 140.427 60.2093 140.173 60.6339 139.986C61.0633 139.799 61.5463 139.706 62.0829 139.706C62.5356 139.706 62.9533 139.778 63.3359 139.923C63.7186 140.068 64.0476 140.28 64.3229 140.56C64.5983 140.835 64.8129 141.176 64.9669 141.582C65.1256 141.983 65.2049 142.443 65.2049 142.961C65.2049 143.222 65.1769 143.4 65.1209 143.493C65.0649 143.582 64.9576 143.626 64.7989 143.626H60.3539ZM66.5024 147V139.818H67.5594C67.7834 139.818 67.9304 139.923 68.0004 140.133L68.1124 140.665C68.2384 140.525 68.3691 140.397 68.5044 140.28C68.6444 140.163 68.7914 140.063 68.9454 139.979C69.1041 139.895 69.2721 139.83 69.4494 139.783C69.6314 139.732 69.8298 139.706 70.0444 139.706C70.4971 139.706 70.8681 139.83 71.1574 140.077C71.4514 140.32 71.6708 140.644 71.8154 141.05C71.9274 140.812 72.0674 140.609 72.2354 140.441C72.4034 140.268 72.5878 140.128 72.7884 140.021C72.9891 139.914 73.2014 139.834 73.4254 139.783C73.6541 139.732 73.8828 139.706 74.1114 139.706C74.5081 139.706 74.8604 139.767 75.1684 139.888C75.4764 140.009 75.7354 140.187 75.9454 140.42C76.1554 140.653 76.3141 140.938 76.4214 141.274C76.5334 141.61 76.5894 141.995 76.5894 142.429V147H74.8604V142.429C74.8604 141.972 74.7601 141.629 74.5594 141.4C74.3588 141.167 74.0648 141.05 73.6774 141.05C73.5001 141.05 73.3344 141.08 73.1804 141.141C73.0311 141.202 72.8981 141.29 72.7814 141.407C72.6694 141.519 72.5808 141.661 72.5154 141.834C72.4501 142.007 72.4174 142.205 72.4174 142.429V147H70.6814V142.429C70.6814 141.948 70.5834 141.598 70.3874 141.379C70.1961 141.16 69.9138 141.05 69.5404 141.05C69.2884 141.05 69.0528 141.113 68.8334 141.239C68.6188 141.36 68.4181 141.528 68.2314 141.743V147H66.5024ZM78.1769 142.051H81.8029V143.493H78.1769V142.051ZM88.0826 142.583C88.0826 142.359 88.0499 142.149 87.9846 141.953C87.9239 141.752 87.8306 141.577 87.7046 141.428C87.5786 141.279 87.4176 141.162 87.2216 141.078C87.0302 140.989 86.8062 140.945 86.5496 140.945C86.0502 140.945 85.6559 141.087 85.3666 141.372C85.0819 141.657 84.8999 142.06 84.8206 142.583H88.0826ZM84.7856 143.626C84.8136 143.995 84.8789 144.314 84.9816 144.585C85.0842 144.851 85.2196 145.073 85.3876 145.25C85.5556 145.423 85.7539 145.553 85.9826 145.642C86.2159 145.726 86.4726 145.768 86.7526 145.768C87.0326 145.768 87.2729 145.735 87.4736 145.67C87.6789 145.605 87.8562 145.532 88.0056 145.453C88.1596 145.374 88.2926 145.301 88.4046 145.236C88.5212 145.171 88.6332 145.138 88.7406 145.138C88.8852 145.138 88.9926 145.192 89.0626 145.299L89.5596 145.929C89.3682 146.153 89.1536 146.342 88.9156 146.496C88.6776 146.645 88.4279 146.767 88.1666 146.86C87.9099 146.949 87.6462 147.012 87.3756 147.049C87.1096 147.086 86.8506 147.105 86.5986 147.105C86.0992 147.105 85.6349 147.023 85.2056 146.86C84.7762 146.692 84.4029 146.447 84.0856 146.125C83.7682 145.798 83.5186 145.397 83.3366 144.921C83.1546 144.44 83.0636 143.885 83.0636 143.255C83.0636 142.765 83.1429 142.305 83.3016 141.876C83.4602 141.442 83.6866 141.066 83.9806 140.749C84.2792 140.427 84.6409 140.173 85.0656 139.986C85.4949 139.799 85.9779 139.706 86.5146 139.706C86.9672 139.706 87.3849 139.778 87.7676 139.923C88.1502 140.068 88.4792 140.28 88.7546 140.56C89.0299 140.835 89.2446 141.176 89.3986 141.582C89.5572 141.983 89.6366 142.443 89.6366 142.961C89.6366 143.222 89.6086 143.4 89.5526 143.493C89.4966 143.582 89.3892 143.626 89.2306 143.626H84.7856ZM95.3161 141.218C95.2694 141.293 95.2204 141.346 95.1691 141.379C95.1177 141.407 95.0524 141.421 94.9731 141.421C94.8891 141.421 94.7981 141.398 94.7001 141.351C94.6067 141.304 94.4971 141.253 94.3711 141.197C94.2451 141.136 94.1004 141.083 93.9371 141.036C93.7784 140.989 93.5894 140.966 93.3701 140.966C93.0294 140.966 92.7611 141.038 92.5651 141.183C92.3737 141.328 92.2781 141.517 92.2781 141.75C92.2781 141.904 92.3271 142.035 92.4251 142.142C92.5277 142.245 92.6607 142.336 92.8241 142.415C92.9921 142.494 93.1811 142.567 93.3911 142.632C93.6011 142.693 93.8134 142.76 94.0281 142.835C94.2474 142.91 94.4621 142.996 94.6721 143.094C94.8821 143.187 95.0687 143.309 95.2321 143.458C95.4001 143.603 95.5331 143.778 95.6311 143.983C95.7337 144.188 95.7851 144.436 95.7851 144.725C95.7851 145.07 95.7221 145.39 95.5961 145.684C95.4747 145.973 95.2927 146.225 95.0501 146.44C94.8074 146.65 94.5064 146.816 94.1471 146.937C93.7924 147.054 93.3817 147.112 92.9151 147.112C92.6677 147.112 92.4251 147.089 92.1871 147.042C91.9537 147 91.7274 146.939 91.5081 146.86C91.2934 146.781 91.0927 146.687 90.9061 146.58C90.7241 146.473 90.5631 146.356 90.4231 146.23L90.8221 145.572C90.8734 145.493 90.9341 145.432 91.0041 145.39C91.0741 145.348 91.1627 145.327 91.2701 145.327C91.3774 145.327 91.4777 145.357 91.5711 145.418C91.6691 145.479 91.7811 145.544 91.9071 145.614C92.0331 145.684 92.1801 145.749 92.3481 145.81C92.5207 145.871 92.7377 145.901 92.9991 145.901C93.2044 145.901 93.3794 145.878 93.5241 145.831C93.6734 145.78 93.7947 145.714 93.8881 145.635C93.9861 145.556 94.0561 145.465 94.0981 145.362C94.1447 145.255 94.1681 145.145 94.1681 145.033C94.1681 144.865 94.1167 144.727 94.0141 144.62C93.9161 144.513 93.7831 144.419 93.6151 144.34C93.4517 144.261 93.2627 144.191 93.0481 144.13C92.8381 144.065 92.6211 143.995 92.3971 143.92C92.1777 143.845 91.9607 143.759 91.7461 143.661C91.5361 143.558 91.3471 143.43 91.1791 143.276C91.0157 143.122 90.8827 142.933 90.7801 142.709C90.6821 142.485 90.6331 142.214 90.6331 141.897C90.6331 141.603 90.6914 141.323 90.8081 141.057C90.9247 140.791 91.0951 140.56 91.3191 140.364C91.5477 140.163 91.8301 140.005 92.1661 139.888C92.5067 139.767 92.8987 139.706 93.3421 139.706C93.8367 139.706 94.2871 139.788 94.6931 139.951C95.0991 140.114 95.4374 140.329 95.7081 140.595L95.3161 141.218ZM99.4804 147.112C98.8551 147.112 98.3744 146.937 98.0384 146.587C97.7071 146.232 97.5414 145.745 97.5414 145.124V141.113H96.8064C96.7131 141.113 96.6338 141.083 96.5684 141.022C96.5031 140.961 96.4704 140.87 96.4704 140.749V140.063L97.6254 139.874L97.9894 137.914C98.0128 137.821 98.0571 137.748 98.1224 137.697C98.1878 137.646 98.2718 137.62 98.3744 137.62H99.2704V139.881H101.188V141.113H99.2704V145.005C99.2704 145.229 99.3241 145.404 99.4314 145.53C99.5434 145.656 99.6951 145.719 99.8864 145.719C99.9938 145.719 100.082 145.707 100.152 145.684C100.227 145.656 100.29 145.628 100.341 145.6C100.397 145.572 100.446 145.546 100.488 145.523C100.53 145.495 100.572 145.481 100.614 145.481C100.666 145.481 100.708 145.495 100.74 145.523C100.773 145.546 100.808 145.584 100.845 145.635L101.363 146.475C101.111 146.685 100.822 146.844 100.495 146.951C100.169 147.058 99.8304 147.112 99.4804 147.112ZM106.089 143.934C105.59 143.957 105.17 144.002 104.829 144.067C104.489 144.128 104.216 144.207 104.01 144.305C103.805 144.403 103.658 144.517 103.569 144.648C103.481 144.779 103.436 144.921 103.436 145.075C103.436 145.378 103.525 145.595 103.702 145.726C103.884 145.857 104.12 145.922 104.409 145.922C104.764 145.922 105.07 145.859 105.326 145.733C105.588 145.602 105.842 145.406 106.089 145.145V143.934ZM102.127 140.819C102.953 140.063 103.947 139.685 105.109 139.685C105.529 139.685 105.905 139.755 106.236 139.895C106.568 140.03 106.848 140.222 107.076 140.469C107.305 140.712 107.478 141.003 107.594 141.344C107.716 141.685 107.776 142.058 107.776 142.464V147H106.992C106.829 147 106.703 146.977 106.614 146.93C106.526 146.879 106.456 146.778 106.404 146.629L106.25 146.111C106.068 146.274 105.891 146.419 105.718 146.545C105.546 146.666 105.366 146.769 105.179 146.853C104.993 146.937 104.792 147 104.577 147.042C104.367 147.089 104.134 147.112 103.877 147.112C103.574 147.112 103.294 147.072 103.037 146.993C102.781 146.909 102.559 146.785 102.372 146.622C102.186 146.459 102.041 146.256 101.938 146.013C101.836 145.77 101.784 145.488 101.784 145.166C101.784 144.984 101.815 144.804 101.875 144.627C101.936 144.445 102.034 144.272 102.169 144.109C102.309 143.946 102.489 143.792 102.708 143.647C102.928 143.502 103.196 143.376 103.513 143.269C103.835 143.162 104.209 143.075 104.633 143.01C105.058 142.94 105.543 142.898 106.089 142.884V142.464C106.089 141.983 105.987 141.629 105.781 141.4C105.576 141.167 105.28 141.05 104.892 141.05C104.612 141.05 104.379 141.083 104.192 141.148C104.01 141.213 103.849 141.288 103.709 141.372C103.569 141.451 103.441 141.524 103.324 141.589C103.212 141.654 103.086 141.687 102.946 141.687C102.825 141.687 102.722 141.657 102.638 141.596C102.554 141.531 102.487 141.456 102.435 141.372L102.127 140.819ZM111.036 141.064C111.26 140.635 111.526 140.299 111.834 140.056C112.142 139.809 112.506 139.685 112.926 139.685C113.257 139.685 113.523 139.757 113.724 139.902L113.612 141.197C113.588 141.281 113.553 141.342 113.507 141.379C113.465 141.412 113.406 141.428 113.332 141.428C113.262 141.428 113.157 141.416 113.017 141.393C112.881 141.37 112.748 141.358 112.618 141.358C112.426 141.358 112.256 141.386 112.107 141.442C111.957 141.498 111.822 141.58 111.701 141.687C111.584 141.79 111.479 141.916 111.386 142.065C111.297 142.214 111.213 142.385 111.134 142.576V147H109.405V139.818H110.42C110.597 139.818 110.721 139.851 110.791 139.916C110.861 139.977 110.907 140.089 110.931 140.252L111.036 141.064Z" fill="#606060"/>
<path d="M40 60.3636H59.9615L66.948 46.961L70.2749 67.8442L78.9249 54.7532L83.9153 80L99.8845 32L107.869 45.0909" stroke="#F9F9F9" stroke-width="3"/>
<path d="M118.515 54.1297C114.523 50.7011 110.198 55.0648 110.198 55.0648C110.198 55.0648 105.54 50.7012 101.548 54.1297C97.5557 57.5583 102.546 62.2336 102.546 62.2336L110.198 69.4025L117.185 62.2336C117.185 62.2336 122.508 57.5584 118.515 54.1297Z" fill="#F9F9F9" stroke="#F9F9F9"/>
<path d="M72.197 18.939C72.197 19.681 72.0733 20.3693 71.826 21.004C71.5833 21.634 71.238 22.18 70.79 22.642C70.342 23.104 69.803 23.4657 69.173 23.727C68.543 23.9837 67.843 24.112 67.073 24.112C66.3077 24.112 65.61 23.9837 64.98 23.727C64.35 23.4657 63.8087 23.104 63.356 22.642C62.908 22.18 62.5603 21.634 62.313 21.004C62.0657 20.3693 61.942 19.681 61.942 18.939C61.942 18.197 62.0657 17.511 62.313 16.881C62.5603 16.2463 62.908 15.698 63.356 15.236C63.8087 14.774 64.35 14.4147 64.98 14.158C65.61 13.8967 66.3077 13.766 67.073 13.766C67.5863 13.766 68.0693 13.8267 68.522 13.948C68.9747 14.0647 69.39 14.2327 69.768 14.452C70.146 14.6667 70.4843 14.9303 70.783 15.243C71.0863 15.551 71.343 15.8963 71.553 16.279C71.763 16.6617 71.9217 17.077 72.029 17.525C72.141 17.973 72.197 18.4443 72.197 18.939ZM70.272 18.939C70.272 18.3837 70.1973 17.8867 70.048 17.448C69.8987 17.0047 69.6863 16.629 69.411 16.321C69.1357 16.013 68.7997 15.7773 68.403 15.614C68.011 15.4507 67.5677 15.369 67.073 15.369C66.5783 15.369 66.1327 15.4507 65.736 15.614C65.344 15.7773 65.008 16.013 64.728 16.321C64.4527 16.629 64.2403 17.0047 64.091 17.448C63.9417 17.8867 63.867 18.3837 63.867 18.939C63.867 19.4943 63.9417 19.9937 64.091 20.437C64.2403 20.8757 64.4527 21.249 64.728 21.557C65.008 21.8603 65.344 22.0937 65.736 22.257C66.1327 22.4203 66.5783 22.502 67.073 22.502C67.5677 22.502 68.011 22.4203 68.403 22.257C68.7997 22.0937 69.1357 21.8603 69.411 21.557C69.6863 21.249 69.8987 20.8757 70.048 20.437C70.1973 19.9937 70.272 19.4943 70.272 18.939ZM82.8386 18.939C82.8386 19.681 82.715 20.3623 82.4676 20.983C82.2203 21.6037 81.8726 22.138 81.4246 22.586C80.9766 23.034 80.4376 23.3817 79.8076 23.629C79.1776 23.8763 78.4776 24 77.7076 24H73.8506V13.878H77.7076C78.4776 13.878 79.1776 14.004 79.8076 14.256C80.4376 14.5033 80.9766 14.851 81.4246 15.299C81.8726 15.7423 82.2203 16.2743 82.4676 16.895C82.715 17.5157 82.8386 18.197 82.8386 18.939ZM80.9066 18.939C80.9066 18.3837 80.832 17.8867 80.6826 17.448C80.538 17.0047 80.3256 16.6313 80.0456 16.328C79.7703 16.02 79.4343 15.7843 79.0376 15.621C78.6456 15.4577 78.2023 15.376 77.7076 15.376H75.7406V22.502H77.7076C78.2023 22.502 78.6456 22.4203 79.0376 22.257C79.4343 22.0937 79.7703 21.8603 80.0456 21.557C80.3256 21.249 80.538 20.8757 80.6826 20.437C80.832 19.9937 80.9066 19.4943 80.9066 18.939ZM89.891 15.719C89.835 15.817 89.7744 15.8893 89.709 15.936C89.6484 15.978 89.5714 15.999 89.478 15.999C89.38 15.999 89.2727 15.964 89.156 15.894C89.044 15.8193 88.9087 15.7377 88.75 15.649C88.5914 15.5603 88.4047 15.481 88.19 15.411C87.98 15.3363 87.7304 15.299 87.441 15.299C87.1797 15.299 86.951 15.3317 86.755 15.397C86.559 15.4577 86.3934 15.544 86.258 15.656C86.1274 15.768 86.0294 15.9033 85.964 16.062C85.8987 16.216 85.866 16.3863 85.866 16.573C85.866 16.811 85.9314 17.0093 86.062 17.168C86.1974 17.3267 86.3747 17.462 86.594 17.574C86.8134 17.686 87.063 17.7863 87.343 17.875C87.623 17.9637 87.91 18.0593 88.204 18.162C88.498 18.26 88.785 18.3767 89.065 18.512C89.345 18.6427 89.5947 18.8107 89.814 19.016C90.0334 19.2167 90.2084 19.464 90.339 19.758C90.4744 20.052 90.542 20.409 90.542 20.829C90.542 21.2863 90.4627 21.7157 90.304 22.117C90.15 22.5137 89.9214 22.8613 89.618 23.16C89.3194 23.454 88.953 23.6873 88.519 23.86C88.085 24.028 87.588 24.112 87.028 24.112C86.706 24.112 86.3887 24.0793 86.076 24.014C85.7634 23.9533 85.4624 23.8647 85.173 23.748C84.8884 23.6313 84.62 23.4913 84.368 23.328C84.116 23.1647 83.892 22.9827 83.696 22.782L84.249 21.879C84.2957 21.8137 84.3564 21.76 84.431 21.718C84.5057 21.6713 84.585 21.648 84.669 21.648C84.7857 21.648 84.9117 21.697 85.047 21.795C85.1824 21.8883 85.3434 21.9933 85.53 22.11C85.7167 22.2267 85.9337 22.334 86.181 22.432C86.433 22.5253 86.734 22.572 87.084 22.572C87.6207 22.572 88.036 22.446 88.33 22.194C88.624 21.9373 88.771 21.571 88.771 21.095C88.771 20.829 88.7034 20.612 88.568 20.444C88.4374 20.276 88.2624 20.136 88.043 20.024C87.8237 19.9073 87.574 19.8093 87.294 19.73C87.014 19.6507 86.7294 19.5643 86.44 19.471C86.1507 19.3777 85.866 19.2657 85.586 19.135C85.306 19.0043 85.0564 18.834 84.837 18.624C84.6177 18.414 84.4404 18.1527 84.305 17.84C84.1744 17.5227 84.109 17.133 84.109 16.671C84.109 16.3023 84.1814 15.943 84.326 15.593C84.4754 15.243 84.69 14.9327 84.97 14.662C85.25 14.3913 85.5954 14.1743 86.006 14.011C86.4167 13.8477 86.888 13.766 87.42 13.766C88.0174 13.766 88.568 13.8593 89.072 14.046C89.576 14.2327 90.0054 14.494 90.36 14.83L89.891 15.719ZM95.2179 16.699C95.2879 16.2137 95.4232 15.789 95.6239 15.425C95.8246 15.0563 96.0742 14.7507 96.3729 14.508C96.6762 14.2607 97.0216 14.0763 97.4089 13.955C97.8009 13.829 98.2209 13.766 98.6689 13.766C99.1356 13.766 99.5556 13.8337 99.9289 13.969C100.307 14.0997 100.629 14.284 100.895 14.522C101.161 14.7553 101.364 15.0307 101.504 15.348C101.649 15.6653 101.721 16.0083 101.721 16.377C101.721 16.699 101.684 16.9837 101.609 17.231C101.539 17.4737 101.436 17.686 101.301 17.868C101.166 18.05 100.998 18.204 100.797 18.33C100.596 18.456 100.37 18.561 100.118 18.645C100.725 18.8363 101.177 19.128 101.476 19.52C101.775 19.912 101.924 20.4043 101.924 20.997C101.924 21.501 101.831 21.9467 101.644 22.334C101.457 22.7213 101.205 23.048 100.888 23.314C100.571 23.5753 100.202 23.7737 99.7819 23.909C99.3666 24.0443 98.9256 24.112 98.4589 24.112C97.9502 24.112 97.5069 24.0537 97.1289 23.937C96.7509 23.8203 96.4219 23.6477 96.1419 23.419C95.8619 23.1903 95.6239 22.9103 95.4279 22.579C95.2319 22.2477 95.0639 21.865 94.9239 21.431L95.6869 21.116C95.8876 21.032 96.0742 21.011 96.2469 21.053C96.4242 21.0903 96.5526 21.1837 96.6319 21.333C96.7159 21.4963 96.8069 21.6573 96.9049 21.816C97.0076 21.9747 97.1289 22.117 97.2689 22.243C97.4089 22.3643 97.5722 22.4647 97.7589 22.544C97.9502 22.6187 98.1766 22.656 98.4379 22.656C98.7319 22.656 98.9886 22.6093 99.2079 22.516C99.4272 22.418 99.6092 22.292 99.7539 22.138C99.9032 21.984 100.013 21.8137 100.083 21.627C100.158 21.4357 100.195 21.2443 100.195 21.053C100.195 20.8103 100.169 20.591 100.118 20.395C100.067 20.1943 99.9592 20.024 99.7959 19.884C99.6326 19.744 99.3969 19.6343 99.0889 19.555C98.7856 19.4757 98.3772 19.436 97.8639 19.436V18.204C98.2886 18.1993 98.6409 18.1597 98.9209 18.085C99.2009 18.0103 99.4226 17.9077 99.5859 17.777C99.7539 17.6417 99.8706 17.4807 99.9359 17.294C100.001 17.1073 100.034 16.902 100.034 16.678C100.034 16.202 99.9009 15.8403 99.6349 15.593C99.3689 15.3457 99.0142 15.222 98.5709 15.222C98.3656 15.222 98.1766 15.2523 98.0039 15.313C97.8312 15.369 97.6749 15.4507 97.5349 15.558C97.3996 15.6607 97.2852 15.782 97.1919 15.922C97.0986 16.062 97.0286 16.216 96.9819 16.384C96.9026 16.5987 96.7976 16.741 96.6669 16.811C96.5409 16.881 96.3612 16.8973 96.1279 16.86L95.2179 16.699Z" fill="#F9F9F9"/>
<defs>
<filter id="filter0_d_373_2421" x="0" y="0" width="164" height="168" filterUnits="userSpaceOnUse" color-interpolation-filters="sRGB">
<feFlood flood-opacity="0" result="BackgroundImageFix"/>
<feColorMatrix in="SourceAlpha" type="matrix" values="0 0 0 0 0 0 0 0 0 0 0 0 0 0 0 0 0 0 127 0" result="hardAlpha"/>
<feOffset dy="4"/>
<feGaussianBlur stdDeviation="2"/>
<feColorMatrix type="matrix" values="0 0 0 0 0 0 0 0 0 0 0 0 0 0 0 0 0 0 0.25 0"/>
<feBlend mode="normal" in2="BackgroundImageFix" result="effect1_dropShadow_373_2421"/>
<feBlend mode="normal" in="SourceGraphic" in2="effect1_dropShadow_373_2421" result="shape"/>
</filter>
</defs>
</svg>
