<svg width="164" height="168" viewBox="0 0 164 168" fill="none" xmlns="http://www.w3.org/2000/svg">
<g filter="url(#filter0_d_373_2429)">
<rect x="4" width="156" height="160" rx="16" fill="#F9F9F9"/>
</g>
<path d="M4 16C4 7.16344 11.1634 0 20 0H144C152.837 0 160 7.16344 160 16V104H20C11.1634 104 4 96.8366 4 88V16Z" fill="#C7212F"/>
<path d="M45.8881 116.376V119.183H49.4301V120.632H45.8881V123.495H50.3821V125H43.9981V114.878H50.3821V116.376H45.8881ZM56.0397 119.652C55.8437 119.414 55.6291 119.246 55.3957 119.148C55.1671 119.05 54.9197 119.001 54.6537 119.001C54.3924 119.001 54.1567 119.05 53.9467 119.148C53.7367 119.246 53.5571 119.395 53.4077 119.596C53.2584 119.792 53.1441 120.044 53.0647 120.352C52.9854 120.655 52.9457 121.015 52.9457 121.43C52.9457 121.85 52.9784 122.207 53.0437 122.501C53.1137 122.79 53.2117 123.028 53.3377 123.215C53.4637 123.397 53.6177 123.53 53.7997 123.614C53.9817 123.693 54.1847 123.733 54.4087 123.733C54.7681 123.733 55.0737 123.658 55.3257 123.509C55.5777 123.36 55.8157 123.147 56.0397 122.872V119.652ZM57.7687 114.598V125H56.7117C56.4831 125 56.3384 124.895 56.2777 124.685L56.1307 123.992C55.8414 124.323 55.5077 124.592 55.1297 124.797C54.7564 125.002 54.3201 125.105 53.8207 125.105C53.4287 125.105 53.0694 125.023 52.7427 124.86C52.4161 124.697 52.1337 124.461 51.8957 124.153C51.6624 123.84 51.4804 123.455 51.3497 122.998C51.2237 122.541 51.1607 122.018 51.1607 121.43C51.1607 120.898 51.2331 120.403 51.3777 119.946C51.5224 119.489 51.7301 119.092 52.0007 118.756C52.2714 118.42 52.5957 118.159 52.9737 117.972C53.3517 117.781 53.7764 117.685 54.2477 117.685C54.6491 117.685 54.9921 117.748 55.2767 117.874C55.5614 118 55.8157 118.17 56.0397 118.385V114.598H57.7687ZM65.6631 117.818V125H64.6061C64.3774 125 64.2328 124.895 64.1721 124.685L64.0531 124.111C63.7591 124.41 63.4348 124.652 63.0801 124.839C62.7254 125.021 62.3078 125.112 61.8271 125.112C61.4351 125.112 61.0874 125.047 60.7841 124.916C60.4854 124.781 60.2334 124.592 60.0281 124.349C59.8228 124.106 59.6664 123.819 59.5591 123.488C59.4564 123.152 59.4051 122.783 59.4051 122.382V117.818H61.1341V122.382C61.1341 122.821 61.2344 123.161 61.4351 123.404C61.6404 123.642 61.9461 123.761 62.3521 123.761C62.6508 123.761 62.9308 123.696 63.1921 123.565C63.4534 123.43 63.7008 123.245 63.9341 123.012V117.818H65.6631ZM72.5224 119.337C72.4711 119.402 72.4198 119.454 72.3684 119.491C72.3218 119.528 72.2518 119.547 72.1584 119.547C72.0698 119.547 71.9834 119.521 71.8994 119.47C71.8154 119.414 71.7151 119.353 71.5984 119.288C71.4818 119.218 71.3418 119.157 71.1784 119.106C71.0198 119.05 70.8214 119.022 70.5834 119.022C70.2801 119.022 70.0141 119.078 69.7854 119.19C69.5568 119.297 69.3654 119.454 69.2114 119.659C69.0621 119.864 68.9501 120.114 68.8754 120.408C68.8008 120.697 68.7634 121.026 68.7634 121.395C68.7634 121.778 68.8031 122.118 68.8824 122.417C68.9664 122.716 69.0854 122.968 69.2394 123.173C69.3934 123.374 69.5801 123.528 69.7994 123.635C70.0188 123.738 70.2661 123.789 70.5414 123.789C70.8168 123.789 71.0384 123.756 71.2064 123.691C71.3791 123.621 71.5238 123.546 71.6404 123.467C71.7571 123.383 71.8574 123.308 71.9414 123.243C72.0301 123.173 72.1281 123.138 72.2354 123.138C72.3754 123.138 72.4804 123.192 72.5504 123.299L73.0474 123.929C72.8561 124.153 72.6484 124.342 72.4244 124.496C72.2004 124.645 71.9671 124.767 71.7244 124.86C71.4864 124.949 71.2391 125.012 70.9824 125.049C70.7304 125.086 70.4784 125.105 70.2264 125.105C69.7831 125.105 69.3654 125.023 68.9734 124.86C68.5814 124.692 68.2384 124.449 67.9444 124.132C67.6504 123.815 67.4171 123.427 67.2444 122.97C67.0764 122.508 66.9924 121.983 66.9924 121.395C66.9924 120.868 67.0671 120.38 67.2164 119.932C67.3704 119.479 67.5944 119.09 67.8884 118.763C68.1824 118.432 68.5464 118.173 68.9804 117.986C69.4144 117.799 69.9138 117.706 70.4784 117.706C71.0151 117.706 71.4841 117.792 71.8854 117.965C72.2914 118.138 72.6554 118.385 72.9774 118.707L72.5224 119.337ZM77.9253 121.934C77.426 121.957 77.006 122.002 76.6653 122.067C76.3247 122.128 76.0517 122.207 75.8463 122.305C75.641 122.403 75.494 122.517 75.4053 122.648C75.3167 122.779 75.2723 122.921 75.2723 123.075C75.2723 123.378 75.361 123.595 75.5383 123.726C75.7203 123.857 75.956 123.922 76.2453 123.922C76.6 123.922 76.9057 123.859 77.1623 123.733C77.4237 123.602 77.678 123.406 77.9253 123.145V121.934ZM73.9633 118.819C74.7893 118.063 75.7833 117.685 76.9453 117.685C77.3653 117.685 77.741 117.755 78.0723 117.895C78.4037 118.03 78.6837 118.222 78.9123 118.469C79.141 118.712 79.3137 119.003 79.4303 119.344C79.5517 119.685 79.6123 120.058 79.6123 120.464V125H78.8283C78.665 125 78.539 124.977 78.4503 124.93C78.3617 124.879 78.2917 124.778 78.2403 124.629L78.0863 124.111C77.9043 124.274 77.727 124.419 77.5543 124.545C77.3817 124.666 77.202 124.769 77.0153 124.853C76.8287 124.937 76.628 125 76.4133 125.042C76.2033 125.089 75.97 125.112 75.7133 125.112C75.41 125.112 75.13 125.072 74.8733 124.993C74.6167 124.909 74.395 124.785 74.2083 124.622C74.0217 124.459 73.877 124.256 73.7743 124.013C73.6717 123.77 73.6203 123.488 73.6203 123.166C73.6203 122.984 73.6507 122.804 73.7113 122.627C73.772 122.445 73.87 122.272 74.0053 122.109C74.1453 121.946 74.325 121.792 74.5443 121.647C74.7637 121.502 75.032 121.376 75.3493 121.269C75.6713 121.162 76.0447 121.075 76.4693 121.01C76.894 120.94 77.3793 120.898 77.9253 120.884V120.464C77.9253 119.983 77.8227 119.629 77.6173 119.4C77.412 119.167 77.1157 119.05 76.7283 119.05C76.4483 119.05 76.215 119.083 76.0283 119.148C75.8463 119.213 75.6853 119.288 75.5453 119.372C75.4053 119.451 75.277 119.524 75.1603 119.589C75.0483 119.654 74.9223 119.687 74.7823 119.687C74.661 119.687 74.5583 119.657 74.4743 119.596C74.3903 119.531 74.3227 119.456 74.2713 119.372L73.9633 118.819ZM86.9107 123.929C86.5934 124.302 86.2341 124.578 85.8327 124.755C85.4361 124.928 85.0254 125.035 84.6007 125.077L84.5097 125.427C84.9484 125.53 85.2541 125.667 85.4267 125.84C85.6041 126.017 85.6927 126.227 85.6927 126.47C85.6927 126.629 85.6507 126.771 85.5667 126.897C85.4874 127.023 85.3707 127.13 85.2167 127.219C85.0674 127.308 84.8877 127.375 84.6777 127.422C84.4724 127.469 84.2437 127.492 83.9917 127.492C83.8004 127.492 83.6207 127.478 83.4527 127.45C83.2847 127.427 83.1214 127.389 82.9627 127.338L83.1167 126.799C83.1447 126.692 83.2124 126.638 83.3197 126.638C83.3851 126.638 83.4574 126.654 83.5367 126.687C83.6161 126.724 83.7304 126.743 83.8797 126.743C84.0337 126.743 84.1481 126.713 84.2227 126.652C84.3021 126.596 84.3417 126.526 84.3417 126.442C84.3417 126.307 84.2577 126.209 84.0897 126.148C83.9217 126.092 83.6627 126.038 83.3127 125.987L83.6207 125.07C83.2287 125.014 82.8647 124.893 82.5287 124.706C82.1927 124.515 81.9011 124.265 81.6537 123.957C81.4064 123.644 81.2104 123.273 81.0657 122.844C80.9257 122.415 80.8557 121.932 80.8557 121.395C80.8557 120.868 80.9304 120.38 81.0797 119.932C81.2337 119.479 81.4577 119.09 81.7517 118.763C82.0457 118.432 82.4097 118.173 82.8437 117.986C83.2777 117.799 83.7771 117.706 84.3417 117.706C84.8784 117.706 85.3474 117.792 85.7487 117.965C86.1547 118.138 86.5187 118.385 86.8407 118.707L86.3857 119.337C86.3344 119.402 86.2831 119.454 86.2317 119.491C86.1851 119.528 86.1151 119.547 86.0217 119.547C85.9331 119.547 85.8467 119.521 85.7627 119.47C85.6787 119.414 85.5784 119.353 85.4617 119.288C85.3451 119.218 85.2051 119.157 85.0417 119.106C84.8831 119.05 84.6847 119.022 84.4467 119.022C84.1434 119.022 83.8774 119.078 83.6487 119.19C83.4201 119.297 83.2287 119.454 83.0747 119.659C82.9254 119.864 82.8134 120.114 82.7387 120.408C82.6641 120.697 82.6267 121.026 82.6267 121.395C82.6267 121.778 82.6664 122.118 82.7457 122.417C82.8297 122.716 82.9487 122.968 83.1027 123.173C83.2567 123.374 83.4434 123.528 83.6627 123.635C83.8821 123.738 84.1294 123.789 84.4047 123.789C84.6801 123.789 84.9017 123.756 85.0697 123.691C85.2424 123.621 85.3871 123.546 85.5037 123.467C85.6204 123.383 85.7207 123.308 85.8047 123.243C85.8934 123.173 85.9914 123.138 86.0987 123.138C86.2387 123.138 86.3437 123.192 86.4137 123.299L86.9107 123.929ZM91.8023 121.934C91.303 121.957 90.883 122.002 90.5423 122.067C90.2016 122.128 89.9286 122.207 89.7233 122.305C89.518 122.403 89.371 122.517 89.2823 122.648C89.1936 122.779 89.1493 122.921 89.1493 123.075C89.1493 123.378 89.238 123.595 89.4153 123.726C89.5973 123.857 89.833 123.922 90.1223 123.922C90.477 123.922 90.7826 123.859 91.0393 123.733C91.3006 123.602 91.555 123.406 91.8023 123.145V121.934ZM87.8403 118.819C88.6663 118.063 89.6603 117.685 90.8223 117.685C91.2423 117.685 91.618 117.755 91.9493 117.895C92.2806 118.03 92.5606 118.222 92.7893 118.469C93.018 118.712 93.1906 119.003 93.3073 119.344C93.4286 119.685 93.4893 120.058 93.4893 120.464V125H92.7053C92.542 125 92.416 124.977 92.3273 124.93C92.2386 124.879 92.1686 124.778 92.1173 124.629L91.9633 124.111C91.7813 124.274 91.604 124.419 91.4313 124.545C91.2586 124.666 91.079 124.769 90.8923 124.853C90.7056 124.937 90.505 125 90.2903 125.042C90.0803 125.089 89.847 125.112 89.5903 125.112C89.287 125.112 89.007 125.072 88.7503 124.993C88.4936 124.909 88.272 124.785 88.0853 124.622C87.8986 124.459 87.754 124.256 87.6513 124.013C87.5486 123.77 87.4973 123.488 87.4973 123.166C87.4973 122.984 87.5276 122.804 87.5883 122.627C87.649 122.445 87.747 122.272 87.8823 122.109C88.0223 121.946 88.202 121.792 88.4213 121.647C88.6406 121.502 88.909 121.376 89.2263 121.269C89.5483 121.162 89.9216 121.075 90.3463 121.01C90.771 120.94 91.2563 120.898 91.8023 120.884V120.464C91.8023 119.983 91.6996 119.629 91.4943 119.4C91.289 119.167 90.9926 119.05 90.6053 119.05C90.3253 119.05 90.092 119.083 89.9053 119.148C89.7233 119.213 89.5623 119.288 89.4223 119.372C89.2823 119.451 89.154 119.524 89.0373 119.589C88.9253 119.654 88.7993 119.687 88.6593 119.687C88.538 119.687 88.4353 119.657 88.3513 119.596C88.2673 119.531 88.1996 119.456 88.1483 119.372L87.8403 118.819ZM91.4103 115.487C91.5503 115.487 91.66 115.45 91.7393 115.375C91.8186 115.296 91.8583 115.156 91.8583 114.955H92.9083C92.9083 115.216 92.871 115.454 92.7963 115.669C92.7263 115.879 92.6283 116.061 92.5023 116.215C92.3763 116.364 92.2246 116.481 92.0473 116.565C91.8746 116.644 91.6833 116.684 91.4733 116.684C91.3053 116.684 91.149 116.654 91.0043 116.593C90.8596 116.532 90.7243 116.467 90.5983 116.397C90.4723 116.327 90.3533 116.262 90.2413 116.201C90.134 116.14 90.0336 116.11 89.9403 116.11C89.805 116.11 89.6976 116.152 89.6183 116.236C89.5436 116.315 89.5063 116.453 89.5063 116.649H88.4353C88.4353 116.388 88.4703 116.152 88.5403 115.942C88.615 115.727 88.7176 115.545 88.8483 115.396C88.979 115.242 89.1306 115.123 89.3033 115.039C89.4806 114.955 89.672 114.913 89.8773 114.913C90.0453 114.913 90.2016 114.943 90.3463 115.004C90.4956 115.065 90.6333 115.13 90.7593 115.2C90.8853 115.27 91.002 115.335 91.1093 115.396C91.2166 115.457 91.317 115.487 91.4103 115.487ZM98.2957 117.706C98.8277 117.706 99.3107 117.792 99.7447 117.965C100.183 118.138 100.557 118.383 100.865 118.7C101.177 119.017 101.418 119.405 101.586 119.862C101.754 120.319 101.838 120.83 101.838 121.395C101.838 121.964 101.754 122.478 101.586 122.935C101.418 123.392 101.177 123.782 100.865 124.104C100.557 124.426 100.183 124.673 99.7447 124.846C99.3107 125.019 98.8277 125.105 98.2957 125.105C97.759 125.105 97.2713 125.019 96.8327 124.846C96.394 124.673 96.0183 124.426 95.7057 124.104C95.3977 123.782 95.1573 123.392 94.9847 122.935C94.8167 122.478 94.7327 121.964 94.7327 121.395C94.7327 120.83 94.8167 120.319 94.9847 119.862C95.1573 119.405 95.3977 119.017 95.7057 118.7C96.0183 118.383 96.394 118.138 96.8327 117.965C97.2713 117.792 97.759 117.706 98.2957 117.706ZM98.2957 123.775C98.893 123.775 99.334 123.574 99.6187 123.173C99.908 122.772 100.053 122.184 100.053 121.409C100.053 120.634 99.908 120.044 99.6187 119.638C99.334 119.232 98.893 119.029 98.2957 119.029C97.689 119.029 97.2387 119.234 96.9447 119.645C96.6553 120.051 96.5107 120.639 96.5107 121.409C96.5107 122.179 96.6553 122.767 96.9447 123.173C97.2387 123.574 97.689 123.775 98.2957 123.775ZM111.069 119.652C110.873 119.414 110.658 119.246 110.425 119.148C110.196 119.05 109.949 119.001 109.683 119.001C109.422 119.001 109.186 119.05 108.976 119.148C108.766 119.246 108.586 119.395 108.437 119.596C108.288 119.792 108.173 120.044 108.094 120.352C108.015 120.655 107.975 121.015 107.975 121.43C107.975 121.85 108.008 122.207 108.073 122.501C108.143 122.79 108.241 123.028 108.367 123.215C108.493 123.397 108.647 123.53 108.829 123.614C109.011 123.693 109.214 123.733 109.438 123.733C109.797 123.733 110.103 123.658 110.355 123.509C110.607 123.36 110.845 123.147 111.069 122.872V119.652ZM112.798 114.598V125H111.741C111.512 125 111.368 124.895 111.307 124.685L111.16 123.992C110.871 124.323 110.537 124.592 110.159 124.797C109.786 125.002 109.349 125.105 108.85 125.105C108.458 125.105 108.099 125.023 107.772 124.86C107.445 124.697 107.163 124.461 106.925 124.153C106.692 123.84 106.51 123.455 106.379 122.998C106.253 122.541 106.19 122.018 106.19 121.43C106.19 120.898 106.262 120.403 106.407 119.946C106.552 119.489 106.759 119.092 107.03 118.756C107.301 118.42 107.625 118.159 108.003 117.972C108.381 117.781 108.806 117.685 109.277 117.685C109.678 117.685 110.021 117.748 110.306 117.874C110.591 118 110.845 118.17 111.069 118.385V114.598H112.798ZM119.131 120.583C119.131 120.359 119.099 120.149 119.033 119.953C118.973 119.752 118.879 119.577 118.753 119.428C118.627 119.279 118.466 119.162 118.27 119.078C118.079 118.989 117.855 118.945 117.598 118.945C117.099 118.945 116.705 119.087 116.415 119.372C116.131 119.657 115.949 120.06 115.869 120.583H119.131ZM115.834 121.626C115.862 121.995 115.928 122.314 116.03 122.585C116.133 122.851 116.268 123.073 116.436 123.25C116.604 123.423 116.803 123.553 117.031 123.642C117.265 123.726 117.521 123.768 117.801 123.768C118.081 123.768 118.322 123.735 118.522 123.67C118.728 123.605 118.905 123.532 119.054 123.453C119.208 123.374 119.341 123.301 119.453 123.236C119.57 123.171 119.682 123.138 119.789 123.138C119.934 123.138 120.041 123.192 120.111 123.299L120.608 123.929C120.417 124.153 120.202 124.342 119.964 124.496C119.726 124.645 119.477 124.767 119.215 124.86C118.959 124.949 118.695 125.012 118.424 125.049C118.158 125.086 117.899 125.105 117.647 125.105C117.148 125.105 116.684 125.023 116.254 124.86C115.825 124.692 115.452 124.447 115.134 124.125C114.817 123.798 114.567 123.397 114.385 122.921C114.203 122.44 114.112 121.885 114.112 121.255C114.112 120.765 114.192 120.305 114.35 119.876C114.509 119.442 114.735 119.066 115.029 118.749C115.328 118.427 115.69 118.173 116.114 117.986C116.544 117.799 117.027 117.706 117.563 117.706C118.016 117.706 118.434 117.778 118.816 117.923C119.199 118.068 119.528 118.28 119.803 118.56C120.079 118.835 120.293 119.176 120.447 119.582C120.606 119.983 120.685 120.443 120.685 120.961C120.685 121.222 120.657 121.4 120.601 121.493C120.545 121.582 120.438 121.626 120.279 121.626H115.834ZM58.8356 141.652C58.6443 141.414 58.432 141.246 58.1986 141.148C57.9653 141.05 57.7156 141.001 57.4496 141.001C57.1883 141.001 56.9526 141.05 56.7426 141.148C56.5326 141.246 56.353 141.395 56.2036 141.596C56.0543 141.792 55.94 142.044 55.8606 142.352C55.7813 142.655 55.7416 143.015 55.7416 143.43C55.7416 143.85 55.7743 144.207 55.8396 144.501C55.9096 144.79 56.0076 145.028 56.1336 145.215C56.2596 145.397 56.4136 145.53 56.5956 145.614C56.7776 145.693 56.9806 145.733 57.2046 145.733C57.564 145.733 57.8696 145.658 58.1216 145.509C58.3736 145.36 58.6116 145.147 58.8356 144.872V141.652ZM60.5646 139.818V149.345H58.8356V146.09C58.551 146.393 58.229 146.638 57.8696 146.825C57.5103 147.012 57.0926 147.105 56.6166 147.105C56.2246 147.105 55.8653 147.023 55.5386 146.86C55.212 146.697 54.9296 146.461 54.6916 146.153C54.4583 145.84 54.2763 145.455 54.1456 144.998C54.0196 144.541 53.9566 144.018 53.9566 143.43C53.9566 142.898 54.029 142.403 54.1736 141.946C54.3183 141.489 54.526 141.092 54.7966 140.756C55.0673 140.42 55.3916 140.159 55.7696 139.972C56.1476 139.781 56.5723 139.685 57.0436 139.685C57.4916 139.685 57.8673 139.762 58.1706 139.916C58.474 140.07 58.7446 140.278 58.9826 140.539L59.0736 140.133C59.1343 139.923 59.279 139.818 59.5076 139.818H60.5646ZM68.459 139.818V147H67.402C67.1733 147 67.0287 146.895 66.968 146.685L66.849 146.111C66.555 146.41 66.2307 146.652 65.876 146.839C65.5213 147.021 65.1037 147.112 64.623 147.112C64.231 147.112 63.8833 147.047 63.58 146.916C63.2813 146.781 63.0293 146.592 62.824 146.349C62.6187 146.106 62.4623 145.819 62.355 145.488C62.2523 145.152 62.201 144.783 62.201 144.382V139.818H63.93V144.382C63.93 144.821 64.0303 145.161 64.231 145.404C64.4363 145.642 64.742 145.761 65.148 145.761C65.4467 145.761 65.7267 145.696 65.988 145.565C66.2493 145.43 66.4967 145.245 66.73 145.012V139.818H68.459ZM73.9673 143.934C73.468 143.957 73.048 144.002 72.7073 144.067C72.3667 144.128 72.0937 144.207 71.8883 144.305C71.683 144.403 71.536 144.517 71.4473 144.648C71.3587 144.779 71.3143 144.921 71.3143 145.075C71.3143 145.378 71.403 145.595 71.5803 145.726C71.7623 145.857 71.998 145.922 72.2873 145.922C72.642 145.922 72.9477 145.859 73.2043 145.733C73.4657 145.602 73.72 145.406 73.9673 145.145V143.934ZM70.0053 140.819C70.8313 140.063 71.8253 139.685 72.9873 139.685C73.4073 139.685 73.783 139.755 74.1143 139.895C74.4457 140.03 74.7257 140.222 74.9543 140.469C75.183 140.712 75.3557 141.003 75.4723 141.344C75.5937 141.685 75.6543 142.058 75.6543 142.464V147H74.8703C74.707 147 74.581 146.977 74.4923 146.93C74.4037 146.879 74.3337 146.778 74.2823 146.629L74.1283 146.111C73.9463 146.274 73.769 146.419 73.5963 146.545C73.4237 146.666 73.244 146.769 73.0573 146.853C72.8707 146.937 72.67 147 72.4553 147.042C72.2453 147.089 72.012 147.112 71.7553 147.112C71.452 147.112 71.172 147.072 70.9153 146.993C70.6587 146.909 70.437 146.785 70.2503 146.622C70.0637 146.459 69.919 146.256 69.8163 146.013C69.7137 145.77 69.6623 145.488 69.6623 145.166C69.6623 144.984 69.6927 144.804 69.7533 144.627C69.814 144.445 69.912 144.272 70.0473 144.109C70.1873 143.946 70.367 143.792 70.5863 143.647C70.8057 143.502 71.074 143.376 71.3913 143.269C71.7133 143.162 72.0867 143.075 72.5113 143.01C72.936 142.94 73.4213 142.898 73.9673 142.884V142.464C73.9673 141.983 73.8647 141.629 73.6593 141.4C73.454 141.167 73.1577 141.05 72.7703 141.05C72.4903 141.05 72.257 141.083 72.0703 141.148C71.8883 141.213 71.7273 141.288 71.5873 141.372C71.4473 141.451 71.319 141.524 71.2023 141.589C71.0903 141.654 70.9643 141.687 70.8243 141.687C70.703 141.687 70.6003 141.657 70.5163 141.596C70.4323 141.531 70.3647 141.456 70.3133 141.372L70.0053 140.819ZM79.0327 136.598V147H77.3037V136.598H79.0327ZM82.5474 139.818V147H80.8114V139.818H82.5474ZM82.7854 137.725C82.7854 137.874 82.755 138.014 82.6944 138.145C82.6337 138.276 82.552 138.39 82.4494 138.488C82.3514 138.586 82.2347 138.665 82.0994 138.726C81.964 138.782 81.8194 138.81 81.6654 138.81C81.516 138.81 81.3737 138.782 81.2384 138.726C81.1077 138.665 80.9934 138.586 80.8954 138.488C80.7974 138.39 80.718 138.276 80.6574 138.145C80.6014 138.014 80.5734 137.874 80.5734 137.725C80.5734 137.571 80.6014 137.426 80.6574 137.291C80.718 137.156 80.7974 137.039 80.8954 136.941C80.9934 136.843 81.1077 136.766 81.2384 136.71C81.3737 136.649 81.516 136.619 81.6654 136.619C81.8194 136.619 81.964 136.649 82.0994 136.71C82.2347 136.766 82.3514 136.843 82.4494 136.941C82.552 137.039 82.6337 137.156 82.6944 137.291C82.755 137.426 82.7854 137.571 82.7854 137.725ZM88.8181 141.652C88.6221 141.414 88.4074 141.246 88.1741 141.148C87.9454 141.05 87.6981 141.001 87.4321 141.001C87.1707 141.001 86.9351 141.05 86.7251 141.148C86.5151 141.246 86.3354 141.395 86.1861 141.596C86.0367 141.792 85.9224 142.044 85.8431 142.352C85.7637 142.655 85.7241 143.015 85.7241 143.43C85.7241 143.85 85.7567 144.207 85.8221 144.501C85.8921 144.79 85.9901 145.028 86.1161 145.215C86.2421 145.397 86.3961 145.53 86.5781 145.614C86.7601 145.693 86.9631 145.733 87.1871 145.733C87.5464 145.733 87.8521 145.658 88.1041 145.509C88.3561 145.36 88.5941 145.147 88.8181 144.872V141.652ZM90.5471 136.598V147H89.4901C89.2614 147 89.1167 146.895 89.0561 146.685L88.9091 145.992C88.6197 146.323 88.2861 146.592 87.9081 146.797C87.5347 147.002 87.0984 147.105 86.5991 147.105C86.2071 147.105 85.8477 147.023 85.5211 146.86C85.1944 146.697 84.9121 146.461 84.6741 146.153C84.4407 145.84 84.2587 145.455 84.1281 144.998C84.0021 144.541 83.9391 144.018 83.9391 143.43C83.9391 142.898 84.0114 142.403 84.1561 141.946C84.3007 141.489 84.5084 141.092 84.7791 140.756C85.0497 140.42 85.3741 140.159 85.7521 139.972C86.1301 139.781 86.5547 139.685 87.0261 139.685C87.4274 139.685 87.7704 139.748 88.0551 139.874C88.3397 140 88.5941 140.17 88.8181 140.385V136.598H90.5471ZM96.0474 143.934C95.5481 143.957 95.1281 144.002 94.7874 144.067C94.4467 144.128 94.1737 144.207 93.9684 144.305C93.7631 144.403 93.6161 144.517 93.5274 144.648C93.4387 144.779 93.3944 144.921 93.3944 145.075C93.3944 145.378 93.4831 145.595 93.6604 145.726C93.8424 145.857 94.0781 145.922 94.3674 145.922C94.7221 145.922 95.0277 145.859 95.2844 145.733C95.5457 145.602 95.8001 145.406 96.0474 145.145V143.934ZM92.0854 140.819C92.9114 140.063 93.9054 139.685 95.0674 139.685C95.4874 139.685 95.8631 139.755 96.1944 139.895C96.5257 140.03 96.8057 140.222 97.0344 140.469C97.2631 140.712 97.4357 141.003 97.5524 141.344C97.6737 141.685 97.7344 142.058 97.7344 142.464V147H96.9504C96.7871 147 96.6611 146.977 96.5724 146.93C96.4837 146.879 96.4137 146.778 96.3624 146.629L96.2084 146.111C96.0264 146.274 95.8491 146.419 95.6764 146.545C95.5037 146.666 95.3241 146.769 95.1374 146.853C94.9507 146.937 94.7501 147 94.5354 147.042C94.3254 147.089 94.0921 147.112 93.8354 147.112C93.5321 147.112 93.2521 147.072 92.9954 146.993C92.7387 146.909 92.5171 146.785 92.3304 146.622C92.1437 146.459 91.9991 146.256 91.8964 146.013C91.7937 145.77 91.7424 145.488 91.7424 145.166C91.7424 144.984 91.7727 144.804 91.8334 144.627C91.8941 144.445 91.9921 144.272 92.1274 144.109C92.2674 143.946 92.4471 143.792 92.6664 143.647C92.8857 143.502 93.1541 143.376 93.4714 143.269C93.7934 143.162 94.1667 143.075 94.5914 143.01C95.0161 142.94 95.5014 142.898 96.0474 142.884V142.464C96.0474 141.983 95.9447 141.629 95.7394 141.4C95.5341 141.167 95.2377 141.05 94.8504 141.05C94.5704 141.05 94.3371 141.083 94.1504 141.148C93.9684 141.213 93.8074 141.288 93.6674 141.372C93.5274 141.451 93.3991 141.524 93.2824 141.589C93.1704 141.654 93.0444 141.687 92.9044 141.687C92.7831 141.687 92.6804 141.657 92.5964 141.596C92.5124 141.531 92.4447 141.456 92.3934 141.372L92.0854 140.819ZM103.871 141.652C103.675 141.414 103.46 141.246 103.227 141.148C102.998 141.05 102.751 141.001 102.485 141.001C102.223 141.001 101.988 141.05 101.778 141.148C101.568 141.246 101.388 141.395 101.239 141.596C101.089 141.792 100.975 142.044 100.896 142.352C100.816 142.655 100.777 143.015 100.777 143.43C100.777 143.85 100.809 144.207 100.875 144.501C100.945 144.79 101.043 145.028 101.169 145.215C101.295 145.397 101.449 145.53 101.631 145.614C101.813 145.693 102.016 145.733 102.24 145.733C102.599 145.733 102.905 145.658 103.157 145.509C103.409 145.36 103.647 145.147 103.871 144.872V141.652ZM105.6 136.598V147H104.543C104.314 147 104.169 146.895 104.109 146.685L103.962 145.992C103.672 146.323 103.339 146.592 102.961 146.797C102.587 147.002 102.151 147.105 101.652 147.105C101.26 147.105 100.9 147.023 100.574 146.86C100.247 146.697 99.9648 146.461 99.7268 146.153C99.4935 145.84 99.3115 145.455 99.1808 144.998C99.0548 144.541 98.9918 144.018 98.9918 143.43C98.9918 142.898 99.0641 142.403 99.2088 141.946C99.3535 141.489 99.5611 141.092 99.8318 140.756C100.102 140.42 100.427 140.159 100.805 139.972C101.183 139.781 101.607 139.685 102.079 139.685C102.48 139.685 102.823 139.748 103.108 139.874C103.392 140 103.647 140.17 103.871 140.385V136.598H105.6ZM111.933 142.583C111.933 142.359 111.9 142.149 111.835 141.953C111.774 141.752 111.681 141.577 111.555 141.428C111.429 141.279 111.268 141.162 111.072 141.078C110.881 140.989 110.657 140.945 110.4 140.945C109.901 140.945 109.506 141.087 109.217 141.372C108.932 141.657 108.75 142.06 108.671 142.583H111.933ZM108.636 143.626C108.664 143.995 108.729 144.314 108.832 144.585C108.935 144.851 109.07 145.073 109.238 145.25C109.406 145.423 109.604 145.553 109.833 145.642C110.066 145.726 110.323 145.768 110.603 145.768C110.883 145.768 111.123 145.735 111.324 145.67C111.529 145.605 111.707 145.532 111.856 145.453C112.01 145.374 112.143 145.301 112.255 145.236C112.372 145.171 112.484 145.138 112.591 145.138C112.736 145.138 112.843 145.192 112.913 145.299L113.41 145.929C113.219 146.153 113.004 146.342 112.766 146.496C112.528 146.645 112.278 146.767 112.017 146.86C111.76 146.949 111.497 147.012 111.226 147.049C110.96 147.086 110.701 147.105 110.449 147.105C109.95 147.105 109.485 147.023 109.056 146.86C108.627 146.692 108.253 146.447 107.936 146.125C107.619 145.798 107.369 145.397 107.187 144.921C107.005 144.44 106.914 143.885 106.914 143.255C106.914 142.765 106.993 142.305 107.152 141.876C107.311 141.442 107.537 141.066 107.831 140.749C108.13 140.427 108.491 140.173 108.916 139.986C109.345 139.799 109.828 139.706 110.365 139.706C110.818 139.706 111.235 139.778 111.618 139.923C112.001 140.068 112.33 140.28 112.605 140.56C112.88 140.835 113.095 141.176 113.249 141.582C113.408 141.983 113.487 142.443 113.487 142.961C113.487 143.222 113.459 143.4 113.403 143.493C113.347 143.582 113.24 143.626 113.081 143.626H108.636Z" fill="#606060"/>
<path d="M58.0693 34.8426L77.7128 45.7233V74.8364L58.0693 70.1313V34.8426Z" fill="#F9F9F9"/>
<path d="M100.208 34.8426L80.5645 45.7233V74.8364L100.208 70.1313V34.8426Z" fill="#F9F9F9"/>
<path d="M53 36.6072L55.2178 34.2546V71.3077L76.7623 77.1891C79.0139 77.7467 80.1998 77.7766 82.1484 77.1891L103.059 71.3077V34.2546L105.277 35.4309V72.778L82.1484 79.5417C80.0452 80.2589 78.8655 80.0367 76.7623 79.5417L53 72.778V36.6072Z" fill="#F9F9F9"/>
<path d="M117 38.0776H112.564V69.2492L115.099 76.307L117 69.2492V38.0776Z" fill="#F9F9F9"/>
<path d="M117 36.019H112.564V32.7842C114.782 31.0198 117 32.7842 117 32.7842V36.019Z" fill="#F9F9F9"/>
<path d="M72.197 18.939C72.197 19.681 72.0733 20.3693 71.826 21.004C71.5833 21.634 71.238 22.18 70.79 22.642C70.342 23.104 69.803 23.4657 69.173 23.727C68.543 23.9837 67.843 24.112 67.073 24.112C66.3077 24.112 65.61 23.9837 64.98 23.727C64.35 23.4657 63.8087 23.104 63.356 22.642C62.908 22.18 62.5603 21.634 62.313 21.004C62.0657 20.3693 61.942 19.681 61.942 18.939C61.942 18.197 62.0657 17.511 62.313 16.881C62.5603 16.2463 62.908 15.698 63.356 15.236C63.8087 14.774 64.35 14.4147 64.98 14.158C65.61 13.8967 66.3077 13.766 67.073 13.766C67.5863 13.766 68.0693 13.8267 68.522 13.948C68.9747 14.0647 69.39 14.2327 69.768 14.452C70.146 14.6667 70.4843 14.9303 70.783 15.243C71.0863 15.551 71.343 15.8963 71.553 16.279C71.763 16.6617 71.9217 17.077 72.029 17.525C72.141 17.973 72.197 18.4443 72.197 18.939ZM70.272 18.939C70.272 18.3837 70.1973 17.8867 70.048 17.448C69.8987 17.0047 69.6863 16.629 69.411 16.321C69.1357 16.013 68.7997 15.7773 68.403 15.614C68.011 15.4507 67.5677 15.369 67.073 15.369C66.5783 15.369 66.1327 15.4507 65.736 15.614C65.344 15.7773 65.008 16.013 64.728 16.321C64.4527 16.629 64.2403 17.0047 64.091 17.448C63.9417 17.8867 63.867 18.3837 63.867 18.939C63.867 19.4943 63.9417 19.9937 64.091 20.437C64.2403 20.8757 64.4527 21.249 64.728 21.557C65.008 21.8603 65.344 22.0937 65.736 22.257C66.1327 22.4203 66.5783 22.502 67.073 22.502C67.5677 22.502 68.011 22.4203 68.403 22.257C68.7997 22.0937 69.1357 21.8603 69.411 21.557C69.6863 21.249 69.8987 20.8757 70.048 20.437C70.1973 19.9937 70.272 19.4943 70.272 18.939ZM82.8386 18.939C82.8386 19.681 82.715 20.3623 82.4676 20.983C82.2203 21.6037 81.8726 22.138 81.4246 22.586C80.9766 23.034 80.4376 23.3817 79.8076 23.629C79.1776 23.8763 78.4776 24 77.7076 24H73.8506V13.878H77.7076C78.4776 13.878 79.1776 14.004 79.8076 14.256C80.4376 14.5033 80.9766 14.851 81.4246 15.299C81.8726 15.7423 82.2203 16.2743 82.4676 16.895C82.715 17.5157 82.8386 18.197 82.8386 18.939ZM80.9066 18.939C80.9066 18.3837 80.832 17.8867 80.6826 17.448C80.538 17.0047 80.3256 16.6313 80.0456 16.328C79.7703 16.02 79.4343 15.7843 79.0376 15.621C78.6456 15.4577 78.2023 15.376 77.7076 15.376H75.7406V22.502H77.7076C78.2023 22.502 78.6456 22.4203 79.0376 22.257C79.4343 22.0937 79.7703 21.8603 80.0456 21.557C80.3256 21.249 80.538 20.8757 80.6826 20.437C80.832 19.9937 80.9066 19.4943 80.9066 18.939ZM89.891 15.719C89.835 15.817 89.7744 15.8893 89.709 15.936C89.6484 15.978 89.5714 15.999 89.478 15.999C89.38 15.999 89.2727 15.964 89.156 15.894C89.044 15.8193 88.9087 15.7377 88.75 15.649C88.5914 15.5603 88.4047 15.481 88.19 15.411C87.98 15.3363 87.7304 15.299 87.441 15.299C87.1797 15.299 86.951 15.3317 86.755 15.397C86.559 15.4577 86.3934 15.544 86.258 15.656C86.1274 15.768 86.0294 15.9033 85.964 16.062C85.8987 16.216 85.866 16.3863 85.866 16.573C85.866 16.811 85.9314 17.0093 86.062 17.168C86.1974 17.3267 86.3747 17.462 86.594 17.574C86.8134 17.686 87.063 17.7863 87.343 17.875C87.623 17.9637 87.91 18.0593 88.204 18.162C88.498 18.26 88.785 18.3767 89.065 18.512C89.345 18.6427 89.5947 18.8107 89.814 19.016C90.0334 19.2167 90.2084 19.464 90.339 19.758C90.4744 20.052 90.542 20.409 90.542 20.829C90.542 21.2863 90.4627 21.7157 90.304 22.117C90.15 22.5137 89.9214 22.8613 89.618 23.16C89.3194 23.454 88.953 23.6873 88.519 23.86C88.085 24.028 87.588 24.112 87.028 24.112C86.706 24.112 86.3887 24.0793 86.076 24.014C85.7634 23.9533 85.4624 23.8647 85.173 23.748C84.8884 23.6313 84.62 23.4913 84.368 23.328C84.116 23.1647 83.892 22.9827 83.696 22.782L84.249 21.879C84.2957 21.8137 84.3564 21.76 84.431 21.718C84.5057 21.6713 84.585 21.648 84.669 21.648C84.7857 21.648 84.9117 21.697 85.047 21.795C85.1824 21.8883 85.3434 21.9933 85.53 22.11C85.7167 22.2267 85.9337 22.334 86.181 22.432C86.433 22.5253 86.734 22.572 87.084 22.572C87.6207 22.572 88.036 22.446 88.33 22.194C88.624 21.9373 88.771 21.571 88.771 21.095C88.771 20.829 88.7034 20.612 88.568 20.444C88.4374 20.276 88.2624 20.136 88.043 20.024C87.8237 19.9073 87.574 19.8093 87.294 19.73C87.014 19.6507 86.7294 19.5643 86.44 19.471C86.1507 19.3777 85.866 19.2657 85.586 19.135C85.306 19.0043 85.0564 18.834 84.837 18.624C84.6177 18.414 84.4404 18.1527 84.305 17.84C84.1744 17.5227 84.109 17.133 84.109 16.671C84.109 16.3023 84.1814 15.943 84.326 15.593C84.4754 15.243 84.69 14.9327 84.97 14.662C85.25 14.3913 85.5954 14.1743 86.006 14.011C86.4167 13.8477 86.888 13.766 87.42 13.766C88.0174 13.766 88.568 13.8593 89.072 14.046C89.576 14.2327 90.0054 14.494 90.36 14.83L89.891 15.719ZM99.4459 20.185V16.874C99.4459 16.5613 99.4669 16.216 99.5089 15.838L96.3659 20.185H99.4459ZM102.225 20.185V21.186C102.225 21.2793 102.195 21.361 102.134 21.431C102.073 21.4963 101.987 21.529 101.875 21.529H100.951V24H99.4459V21.529H95.1759C95.0592 21.529 94.9566 21.494 94.8679 21.424C94.7792 21.3493 94.7232 21.2583 94.6999 21.151L94.5179 20.276L99.3129 13.871H100.951V20.185H102.225Z" fill="#F9F9F9"/>
<defs>
<filter id="filter0_d_373_2429" x="0" y="0" width="164" height="168" filterUnits="userSpaceOnUse" color-interpolation-filters="sRGB">
<feFlood flood-opacity="0" result="BackgroundImageFix"/>
<feColorMatrix in="SourceAlpha" type="matrix" values="0 0 0 0 0 0 0 0 0 0 0 0 0 0 0 0 0 0 127 0" result="hardAlpha"/>
<feOffset dy="4"/>
<feGaussianBlur stdDeviation="2"/>
<feColorMatrix type="matrix" values="0 0 0 0 0 0 0 0 0 0 0 0 0 0 0 0 0 0 0.25 0"/>
<feBlend mode="normal" in2="BackgroundImageFix" result="effect1_dropShadow_373_2429"/>
<feBlend mode="normal" in="SourceGraphic" in2="effect1_dropShadow_373_2429" result="shape"/>
</filter>
</defs>
</svg>
