<svg width="184" height="88" viewBox="0 0 184 88" fill="none" xmlns="http://www.w3.org/2000/svg">
<rect x="4.99487" y="11" width="19.9791" height="6" fill="#218738"/>
<rect x="10.9885" y="30" width="25.9728" height="6" fill="#218738"/>
<line x1="30.9675" y1="86" x2="120.874" y2="86" stroke="#F9F9F9" stroke-width="4"/>
<path d="M65.5581 47V24.92H76.3101C79.8941 24.92 81.6861 26.712 81.6861 30.296V34.584C81.6861 38.168 79.8941 39.96 76.3101 39.96H70.1661V47H65.5581ZM70.1661 35.8H76.1181C76.7581 35.8 77.0781 35.48 77.0781 34.84V30.04C77.0781 29.4 76.7581 29.08 76.1181 29.08H70.1661V35.8ZM89.3073 47C85.8513 47 84.1233 45.304 84.1233 41.912C84.1233 38.52 85.8513 36.824 89.3073 36.824H93.7233V34.968C93.7233 34.2853 93.382 33.944 92.6993 33.944H85.9153V31.544L87.8353 30.104H92.9553C96.4113 30.104 98.1393 31.832 98.1393 35.288V47H89.3073ZM88.5393 42.136C88.5393 42.8187 88.8807 43.16 89.5633 43.16H93.7233V40.28H89.5633C88.8807 40.28 88.5393 40.6213 88.5393 41.304V42.136ZM102.485 41.816V30.104H106.901V42.136C106.901 42.8187 107.242 43.16 107.925 43.16H112.597V30.104H117.013V47H107.669C104.213 47 102.485 45.272 102.485 41.816ZM121.485 41.816V24.92H125.901V30.104H131.405V33.944H125.901V42.136C125.901 42.8187 126.242 43.16 126.925 43.16H131.725V45.56L129.805 47H126.669C123.213 47 121.485 45.272 121.485 41.816ZM139.464 47C136.008 47 134.28 45.304 134.28 41.912C134.28 38.52 136.008 36.824 139.464 36.824H143.88V34.968C143.88 34.2853 143.538 33.944 142.856 33.944H136.072V31.544L137.992 30.104H143.112C146.568 30.104 148.296 31.832 148.296 35.288V47H139.464ZM138.696 42.136C138.696 42.8187 139.037 43.16 139.72 43.16H143.88V40.28H139.72C139.037 40.28 138.696 40.6213 138.696 41.304V42.136ZM152.193 45.56V43.16H159.553C160.279 43.16 160.641 42.7547 160.641 41.944C160.641 41.112 160.321 40.6427 159.681 40.536L156.225 39.96C153.537 39.512 152.193 37.9547 152.193 35.288C152.193 31.832 153.921 30.104 157.377 30.104H162.337L164.257 31.544V33.944H157.665C156.94 33.944 156.577 34.3493 156.577 35.16C156.577 35.992 156.897 36.4613 157.537 36.568L160.993 37.144C163.681 37.592 165.025 39.1493 165.025 41.816C165.025 45.272 163.297 47 159.841 47H154.113L152.193 45.56Z" fill="#218738"/>
<path d="M65.5581 49V26.92H76.3101C79.8941 26.92 81.6861 28.712 81.6861 32.296V36.584C81.6861 40.168 79.8941 41.96 76.3101 41.96H70.1661V49H65.5581ZM70.1661 37.8H76.1181C76.7581 37.8 77.0781 37.48 77.0781 36.84V32.04C77.0781 31.4 76.7581 31.08 76.1181 31.08H70.1661V37.8ZM89.3073 49C85.8513 49 84.1233 47.304 84.1233 43.912C84.1233 40.52 85.8513 38.824 89.3073 38.824H93.7233V36.968C93.7233 36.2853 93.382 35.944 92.6993 35.944H85.9153V33.544L87.8353 32.104H92.9553C96.4113 32.104 98.1393 33.832 98.1393 37.288V49H89.3073ZM88.5393 44.136C88.5393 44.8187 88.8807 45.16 89.5633 45.16H93.7233V42.28H89.5633C88.8807 42.28 88.5393 42.6213 88.5393 43.304V44.136ZM102.485 43.816V32.104H106.901V44.136C106.901 44.8187 107.242 45.16 107.925 45.16H112.597V32.104H117.013V49H107.669C104.213 49 102.485 47.272 102.485 43.816ZM121.485 43.816V26.92H125.901V32.104H131.405V35.944H125.901V44.136C125.901 44.8187 126.242 45.16 126.925 45.16H131.725V47.56L129.805 49H126.669C123.213 49 121.485 47.272 121.485 43.816ZM139.464 49C136.008 49 134.28 47.304 134.28 43.912C134.28 40.52 136.008 38.824 139.464 38.824H143.88V36.968C143.88 36.2853 143.538 35.944 142.856 35.944H136.072V33.544L137.992 32.104H143.112C146.568 32.104 148.296 33.832 148.296 37.288V49H139.464ZM138.696 44.136C138.696 44.8187 139.037 45.16 139.72 45.16H143.88V42.28H139.72C139.037 42.28 138.696 42.6213 138.696 43.304V44.136ZM152.193 47.56V45.16H159.553C160.279 45.16 160.641 44.7547 160.641 43.944C160.641 43.112 160.321 42.6427 159.681 42.536L156.225 41.96C153.537 41.512 152.193 39.9547 152.193 37.288C152.193 33.832 153.921 32.104 157.377 32.104H162.337L164.257 33.544V35.944H157.665C156.94 35.944 156.577 36.3493 156.577 37.16C156.577 37.992 156.897 38.4613 157.537 38.568L160.993 39.144C163.681 39.592 165.025 41.1493 165.025 43.816C165.025 47.272 163.297 49 159.841 49H154.113L152.193 47.56Z" fill="#F9F9F9"/>
<path d="M54.8566 21.5508C54.2574 21.5508 53.7718 22.0229 53.7718 22.6055V68.1047C53.7718 69.0895 52.9477 69.8906 51.9347 69.8906H8.68327C7.6703 69.8906 6.84623 69.0895 6.84623 68.1047V67.4536H47.2582C49.4676 67.4536 51.265 65.706 51.265 63.5583V59.1455C51.265 58.5629 50.7794 58.0908 50.1801 58.0908C49.5809 58.0908 49.0953 58.5629 49.0953 59.1455V63.5583C49.0953 64.5431 48.2712 65.3442 47.2582 65.3442H4.00677C2.9938 65.3442 2.16973 64.5431 2.16973 63.5583V22.6055C2.16973 22.0229 1.68415 21.5508 1.08487 21.5508C0.485586 21.5508 0 22.0229 0 22.6055V63.5583C0 65.706 1.79741 67.4536 4.00677 67.4536H4.6765V68.1047C4.6765 70.2526 6.47391 72 8.68327 72H51.9347C54.1441 72 55.9415 70.2526 55.9415 68.1047V22.6055C55.9415 22.0229 55.4559 21.5508 54.8566 21.5508Z" fill="#F9F9F9"/>
<path d="M51.9347 9.09141H51.265V8.44172C51.265 6.29381 49.4676 4.54641 47.2582 4.54641H45.5671V3.32761C45.567 1.49273 44.0316 0 42.1442 0C40.2569 0 38.7215 1.49273 38.7215 3.32761V4.54641H4.00677C1.79741 4.54641 0 6.29381 0 8.44172V17.6836C0 18.2662 0.485586 18.7383 1.08487 18.7383C1.68415 18.7383 2.16973 18.2662 2.16973 17.6836V8.44172C2.16973 7.45692 2.9938 6.65578 4.00677 6.65578H38.7215V10.1461C38.7215 11.981 40.2569 13.4737 42.1442 13.4737C44.0316 13.4737 45.567 11.981 45.567 10.1461C45.567 9.56348 45.0814 9.09141 44.4821 9.09141C43.8829 9.09141 43.3973 9.56348 43.3973 10.1461C43.3973 10.8177 42.835 11.3643 42.1442 11.3643C41.4533 11.3643 40.8912 10.8177 40.8912 10.1461V6.65578H47.2582C48.2712 6.65578 49.0953 7.45692 49.0953 8.44172V54.2236C49.0953 54.8062 49.5809 55.2783 50.1801 55.2783C50.7794 55.2783 51.265 54.8062 51.265 54.2236V11.2008H51.9347C52.9477 11.2008 53.7718 12.0019 53.7718 12.9866V17.6835C53.7718 18.2661 54.2574 18.7381 54.8566 18.7381C55.4559 18.7381 55.9415 18.2661 55.9415 17.6835V12.9866C55.9415 10.8388 54.1441 9.09141 51.9347 9.09141ZM40.8912 3.32761C40.8912 2.65598 41.4533 2.10938 42.1442 2.10938C42.835 2.10938 43.3973 2.65598 43.3973 3.32761V4.54641H40.8912V3.32761Z" fill="#F9F9F9"/>
<path d="M37.322 28.6948H13.943C13.3437 28.6948 12.8582 29.1669 12.8582 29.7495V34.2952C12.8582 34.8778 13.3437 35.3499 13.943 35.3499H37.322C37.9213 35.3499 38.4069 34.8778 38.4069 34.2952V29.7495C38.4069 29.1669 37.9213 28.6948 37.322 28.6948ZM36.2372 33.2405H15.0279V30.8042H36.2372V33.2405Z" fill="#F9F9F9"/>
<path d="M23.2952 9.09131H5.76089C5.16161 9.09131 4.67603 9.56339 4.67603 10.146V14.6917C4.67603 15.2743 5.16161 15.7464 5.76089 15.7464H23.2952C23.8945 15.7464 24.3801 15.2743 24.3801 14.6917V10.146C24.3801 9.56353 23.8944 9.09131 23.2952 9.09131ZM22.2104 13.6372H6.84576V11.2007H22.2104V13.6372Z" fill="#F9F9F9"/>
<path d="M5.76089 24.8379H23.2952C23.8945 24.8379 24.3801 24.3658 24.3801 23.7832C24.3801 23.2006 23.8945 22.7285 23.2952 22.7285H5.76089C5.16161 22.7285 4.67603 23.2006 4.67603 23.7832C4.67603 24.3658 5.16161 24.8379 5.76089 24.8379Z" fill="#F9F9F9"/>
<path d="M5.76089 20.2922H18.9116C19.5109 20.2922 19.9965 19.8202 19.9965 19.2375C19.9965 18.6549 19.5109 18.1829 18.9116 18.1829H5.76089C5.16161 18.1829 4.67603 18.6549 4.67603 19.2375C4.67603 19.8202 5.16161 20.2922 5.76089 20.2922Z" fill="#F9F9F9"/>
<path d="M9.93604 38.8411C9.93604 39.4237 10.4216 39.8958 11.0209 39.8958H40.2446C40.8439 39.8958 41.3295 39.4237 41.3295 38.8411C41.3295 38.2585 40.8439 37.7864 40.2446 37.7864H11.0209C10.4218 37.7864 9.93604 38.2586 9.93604 38.8411Z" fill="#F9F9F9"/>
<path d="M5.76089 45.3887H45.5054C46.1046 45.3887 46.5902 44.9166 46.5902 44.334C46.5902 43.7514 46.1046 43.2793 45.5054 43.2793H5.76089C5.16161 43.2793 4.67603 43.7514 4.67603 44.334C4.67603 44.9166 5.16161 45.3887 5.76089 45.3887Z" fill="#F9F9F9"/>
<path d="M5.76089 50.8813H45.5054C46.1046 50.8813 46.5902 50.4093 46.5902 49.8267C46.5902 49.2441 46.1046 48.772 45.5054 48.772H5.76089C5.16161 48.772 4.67603 49.2441 4.67603 49.8267C4.67603 50.4093 5.16161 50.8813 5.76089 50.8813Z" fill="#F9F9F9"/>
<path d="M5.76089 56.374H26.2176C26.8168 56.374 27.3024 55.9019 27.3024 55.3193C27.3024 54.7367 26.8168 54.2646 26.2176 54.2646H5.76089C5.16161 54.2646 4.67603 54.7367 4.67603 55.3193C4.67603 55.9019 5.16161 56.374 5.76089 56.374Z" fill="#F9F9F9"/>
</svg>
