<svg width="225" height="94" viewBox="0 0 225 94" fill="none" xmlns="http://www.w3.org/2000/svg">
<path d="M122.048 68.816V62.288C122.048 58.832 123.776 57.104 127.232 57.104H132.16V50.32H136.576V74H127.232C123.776 74 122.048 72.272 122.048 68.816ZM126.464 69.136C126.464 69.8187 126.805 70.16 127.488 70.16H132.16V60.944H127.488C126.805 60.944 126.464 61.2853 126.464 61.968V69.136ZM140.923 68.816V62.288C140.923 58.832 142.651 57.104 146.107 57.104H150.267C153.723 57.104 155.451 58.832 155.451 62.288V67.216H145.339V69.136C145.339 69.8187 145.68 70.16 146.363 70.16H154.811V72.56L152.891 74H146.107C142.651 74 140.923 72.272 140.923 68.816ZM145.339 63.76H151.035V61.968C151.035 61.2853 150.694 60.944 150.011 60.944H146.363C145.68 60.944 145.339 61.2853 145.339 61.968V63.76ZM167.364 67.856V50.32H171.78V68.304C171.78 69.6267 172.462 70.352 173.828 70.48V74.32C169.518 74.32 167.364 72.1653 167.364 67.856ZM177.142 68.816V62.288C177.142 58.832 178.87 57.104 182.326 57.104H186.486C189.942 57.104 191.67 58.832 191.67 62.288V67.216H181.558V69.136C181.558 69.8187 181.899 70.16 182.582 70.16H191.03V72.56L189.11 74H182.326C178.87 74 177.142 72.272 177.142 68.816ZM181.558 63.76H187.254V61.968C187.254 61.2853 186.912 60.944 186.23 60.944H182.582C181.899 60.944 181.558 61.2853 181.558 61.968V63.76ZM195.959 54.352V50.064H200.503V54.352H195.959ZM196.023 74V57.104H200.439V74H196.023Z" fill="#218738"/>
<path d="M84.28 37V9.4H97.72C102.2 9.4 104.44 11.64 104.44 16.12V21.48C104.44 25.96 102.2 28.2 97.72 28.2H90.04V37H84.28ZM90.04 23H97.48C98.28 23 98.68 22.6 98.68 21.8V15.8C98.68 15 98.28 14.6 97.48 14.6H90.04V23ZM109.228 37V18.6C110.214 16.7867 112.108 15.88 114.908 15.88H119.228L121.628 17.68V20.68H116.228C115.508 20.68 115.014 20.8533 114.748 21.2V37H109.228ZM125.24 30.52V22.36C125.24 18.04 127.4 15.88 131.72 15.88H137.32C141.64 15.88 143.8 18.04 143.8 22.36V30.52C143.8 34.84 141.64 37 137.32 37H131.72C127.4 37 125.24 34.84 125.24 30.52ZM130.76 30.92C130.76 31.7733 131.186 32.2 132.04 32.2H137C137.853 32.2 138.28 31.7733 138.28 30.92V21.96C138.28 21.1067 137.853 20.68 137 20.68H132.04C131.186 20.68 130.76 21.1067 130.76 21.96V30.92ZM145.952 40.72C148.138 40.56 149.232 39.4133 149.232 37.28V15.88H154.752V36.6C154.752 42.4667 151.818 45.4 145.952 45.4V40.72ZM149.152 12.44V7.08H154.832V12.44H149.152ZM160.201 30.52V22.36C160.201 18.04 162.361 15.88 166.681 15.88H171.881C176.201 15.88 178.361 18.04 178.361 22.36V28.52H165.721V30.92C165.721 31.7733 166.147 32.2 167.001 32.2H177.561V35.2L175.161 37H166.681C162.361 37 160.201 34.84 160.201 30.52ZM165.721 24.2H172.841V21.96C172.841 21.1067 172.414 20.68 171.561 20.68H167.001C166.147 20.68 165.721 21.1067 165.721 21.96V24.2ZM183.642 30.52V9.4H189.162V15.88H196.042V20.68H189.162V30.92C189.162 31.7733 189.589 32.2 190.442 32.2H196.442V35.2L194.042 37H190.122C185.802 37 183.642 34.84 183.642 30.52ZM200.435 30.52V22.36C200.435 18.04 202.595 15.88 206.915 15.88H212.515C216.835 15.88 218.995 18.04 218.995 22.36V30.52C218.995 34.84 216.835 37 212.515 37H206.915C202.595 37 200.435 34.84 200.435 30.52ZM205.955 30.92C205.955 31.7733 206.382 32.2 207.235 32.2H212.195C213.048 32.2 213.475 31.7733 213.475 30.92V21.96C213.475 21.1067 213.048 20.68 212.195 20.68H207.235C206.382 20.68 205.955 21.1067 205.955 21.96V30.92Z" fill="#218738"/>
<path d="M84.28 39V11.4H97.72C102.2 11.4 104.44 13.64 104.44 18.12V23.48C104.44 27.96 102.2 30.2 97.72 30.2H90.04V39H84.28ZM90.04 25H97.48C98.28 25 98.68 24.6 98.68 23.8V17.8C98.68 17 98.28 16.6 97.48 16.6H90.04V25ZM109.228 39V20.6C110.214 18.7867 112.108 17.88 114.908 17.88H119.228L121.628 19.68V22.68H116.228C115.508 22.68 115.014 22.8533 114.748 23.2V39H109.228ZM125.24 32.52V24.36C125.24 20.04 127.4 17.88 131.72 17.88H137.32C141.64 17.88 143.8 20.04 143.8 24.36V32.52C143.8 36.84 141.64 39 137.32 39H131.72C127.4 39 125.24 36.84 125.24 32.52ZM130.76 32.92C130.76 33.7733 131.186 34.2 132.04 34.2H137C137.853 34.2 138.28 33.7733 138.28 32.92V23.96C138.28 23.1067 137.853 22.68 137 22.68H132.04C131.186 22.68 130.76 23.1067 130.76 23.96V32.92ZM145.952 42.72C148.138 42.56 149.232 41.4133 149.232 39.28V17.88H154.752V38.6C154.752 44.4667 151.818 47.4 145.952 47.4V42.72ZM149.152 14.44V9.08H154.832V14.44H149.152ZM160.201 32.52V24.36C160.201 20.04 162.361 17.88 166.681 17.88H171.881C176.201 17.88 178.361 20.04 178.361 24.36V30.52H165.721V32.92C165.721 33.7733 166.147 34.2 167.001 34.2H177.561V37.2L175.161 39H166.681C162.361 39 160.201 36.84 160.201 32.52ZM165.721 26.2H172.841V23.96C172.841 23.1067 172.414 22.68 171.561 22.68H167.001C166.147 22.68 165.721 23.1067 165.721 23.96V26.2ZM183.642 32.52V11.4H189.162V17.88H196.042V22.68H189.162V32.92C189.162 33.7733 189.589 34.2 190.442 34.2H196.442V37.2L194.042 39H190.122C185.802 39 183.642 36.84 183.642 32.52ZM200.435 32.52V24.36C200.435 20.04 202.595 17.88 206.915 17.88H212.515C216.835 17.88 218.995 20.04 218.995 24.36V32.52C218.995 36.84 216.835 39 212.515 39H206.915C202.595 39 200.435 36.84 200.435 32.52ZM205.955 32.92C205.955 33.7733 206.382 34.2 207.235 34.2H212.195C213.048 34.2 213.475 33.7733 213.475 32.92V23.96C213.475 23.1067 213.048 22.68 212.195 22.68H207.235C206.382 22.68 205.955 23.1067 205.955 23.96V32.92Z" fill="#4D256C"/>
<line x1="76" y1="92" x2="166" y2="92" stroke="#4D256C" stroke-width="4"/>
<rect x="12" y="6" width="5" height="64" rx="2.5" fill="#218738"/>
<path d="M66.6078 10.6023H60.2078V3.85546C60.2079 1.73484 58.562 0 56.5515 0H9.92217C7.91076 0 6.26514 1.73484 6.26514 3.85546V65.5421C6.26514 67.6625 7.91076 69.3975 9.92232 69.3975H16.3223V76.1445C16.3223 78.265 17.9672 80 19.9795 80H51.0643C53.0748 80 55.9201 78.8106 57.3839 77.3581L67.6001 67.2203C69.0656 65.7678 70.2634 62.8435 70.2634 60.723L70.2651 14.4581C70.265 12.3373 68.6192 10.6023 66.6078 10.6023ZM16.3221 14.4579V66.506H9.92217C9.42669 66.506 9.00799 66.0646 9.00799 65.5422V3.85546C9.00799 3.33312 9.42669 2.89171 9.92217 2.89171H56.5516C57.0462 2.89171 57.4658 3.33312 57.4658 3.85546V10.6025H19.9792C17.9669 10.6025 16.3221 12.3373 16.3221 14.4579ZM65.7201 65.115L55.5039 75.2521C55.2946 75.4594 55.0221 75.6627 54.7212 75.8563V66.9878C54.7212 66.3257 54.9745 65.7299 55.3923 65.2866C55.8138 64.8461 56.3788 64.5783 57.0069 64.5783H66.1544C66.0126 64.7814 65.8673 64.9685 65.7201 65.115ZM67.5202 60.7227C67.5202 61.0089 67.4707 61.3405 67.3959 61.6865H57.0068C54.2321 61.6922 51.9838 64.0624 51.9782 66.9877V76.9914C51.6518 77.061 51.3373 77.108 51.064 77.108H19.9792C19.4827 77.108 19.065 76.6667 19.065 76.1444V14.4578C19.065 13.9354 19.4829 13.494 19.9792 13.494H66.6077C67.1031 13.494 67.5218 13.9354 67.5218 14.4578L67.5202 60.7227Z" fill="#4D256C"/>
<path d="M59.2779 26.5058H31.3262C30.5272 26.5058 29.8804 27.2172 29.8804 28.0962C29.8804 28.9751 30.5273 29.6865 31.3262 29.6865H59.2779C60.076 29.6865 60.7237 28.9751 60.7237 28.0962C60.7237 27.2172 60.076 26.5058 59.2779 26.5058Z" fill="#4D256C"/>
<path d="M59.2779 47.7107H31.3262C30.5272 47.7107 29.8804 48.4221 29.8804 49.3011C29.8804 50.18 30.5273 50.8914 31.3262 50.8914H59.2779C60.076 50.8914 60.7237 50.18 60.7237 49.3011C60.7237 48.4219 60.076 47.7107 59.2779 47.7107Z" fill="#4D256C"/>
<path d="M46.7479 58.3131H31.3263C30.5273 58.3131 29.8806 59.0245 29.8806 59.9035C29.8806 60.7825 30.5273 61.4939 31.3263 61.4939H46.7479C47.546 61.4939 48.1927 60.7825 48.1927 59.9035C48.1927 59.0245 47.546 58.3131 46.7479 58.3131Z" fill="#4D256C"/>
<path d="M59.2779 37.1082H31.3262C30.5272 37.1082 29.8804 37.8196 29.8804 38.6986C29.8804 39.5776 30.5273 40.2889 31.3262 40.2889H59.2779C60.076 40.2889 60.7237 39.5776 60.7237 38.6986C60.7237 37.8196 60.076 37.1082 59.2779 37.1082Z" fill="#4D256C"/>
</svg>
