<svg width="333" height="98" viewBox="0 0 333 98" fill="none" xmlns="http://www.w3.org/2000/svg">
<line x1="119" y1="96" x2="209" y2="96" stroke="#4D256C" stroke-width="4"/>
<path d="M141.048 73.816V67.288C141.048 63.832 142.776 62.104 146.232 62.104H150.392C153.848 62.104 155.576 63.832 155.576 67.288V72.216H145.464V74.136C145.464 74.8187 145.805 75.16 146.488 75.16H154.936V77.56L153.016 79H146.232C142.776 79 141.048 77.272 141.048 73.816ZM145.464 68.76H151.16V66.968C151.16 66.2853 150.819 65.944 150.136 65.944H146.488C145.805 65.944 145.464 66.2853 145.464 66.968V68.76ZM167.617 79V55.32H172.033V62.104H176.961C180.417 62.104 182.145 63.832 182.145 67.288V73.816C182.145 77.272 180.417 79 176.961 79H167.617ZM172.033 75.16H176.705C177.387 75.16 177.729 74.8187 177.729 74.136V66.968C177.729 66.2853 177.387 65.944 176.705 65.944H172.033V75.16ZM186.236 73.816V67.288C186.236 63.832 187.964 62.104 191.42 62.104H195.58C199.036 62.104 200.764 63.832 200.764 67.288V72.216H190.652V74.136C190.652 74.8187 190.993 75.16 191.676 75.16H200.124V77.56L198.204 79H191.42C187.964 79 186.236 77.272 186.236 73.816ZM190.652 68.76H196.348V66.968C196.348 66.2853 196.006 65.944 195.324 65.944H191.676C190.993 65.944 190.652 66.2853 190.652 66.968V68.76ZM205.117 79V62.104H224.381C227.837 62.104 229.565 63.832 229.565 67.288V79H225.149V66.968C225.149 66.2853 224.807 65.944 224.125 65.944H219.549V79H215.133V65.944H209.533V79H205.117ZM233.03 71.128V67.352H242.63V71.128H233.03ZM245.954 73.816V67.288C245.954 63.832 247.682 62.104 251.138 62.104H255.298C258.754 62.104 260.482 63.832 260.482 67.288V72.216H250.37V74.136C250.37 74.8187 250.712 75.16 251.394 75.16H259.842V77.56L257.922 79H251.138C247.682 79 245.954 77.272 245.954 73.816ZM250.37 68.76H256.066V66.968C256.066 66.2853 255.725 65.944 255.042 65.944H251.394C250.712 65.944 250.37 66.2853 250.37 66.968V68.76ZM264.259 77.56V75.16H271.619C272.345 75.16 272.707 74.7547 272.707 73.944C272.707 73.112 272.387 72.6427 271.747 72.536L268.291 71.96C265.603 71.512 264.259 69.9547 264.259 67.288C264.259 63.832 265.987 62.104 269.443 62.104H274.403L276.323 63.544V65.944H269.731C269.006 65.944 268.643 66.3493 268.643 67.16C268.643 67.992 268.963 68.4613 269.603 68.568L273.059 69.144C275.747 69.592 277.091 71.1493 277.091 73.816C277.091 77.272 275.363 79 271.907 79H266.179L264.259 77.56ZM280.957 73.816V56.92H285.373V62.104H290.877V65.944H285.373V74.136C285.373 74.8187 285.715 75.16 286.397 75.16H291.197V77.56L289.277 79H286.141C282.685 79 280.957 77.272 280.957 73.816ZM298.936 79C295.48 79 293.752 77.304 293.752 73.912C293.752 70.52 295.48 68.824 298.936 68.824H303.352V66.968C303.352 66.2853 303.01 65.944 302.328 65.944H295.544V63.544L297.464 62.104H302.584C306.04 62.104 307.768 63.832 307.768 67.288V79H298.936ZM298.168 74.136C298.168 74.8187 298.509 75.16 299.192 75.16H303.352V72.28H299.192C298.509 72.28 298.168 72.6213 298.168 73.304V74.136ZM312.114 79V64.28C312.903 62.8293 314.418 62.104 316.658 62.104H320.114L322.034 63.544V65.944H317.714C317.138 65.944 316.743 66.0827 316.53 66.36V79H312.114Z" fill="#218738"/>
<path d="M132.08 39.92V36.8H144.48C145.28 36.8 145.68 36.4 145.68 35.6V32.68C145.68 31.9333 145.347 31.4933 144.68 31.36L136.88 29.8C133.68 29.16 132.08 27.0133 132.08 23.36V21.12C132.08 16.64 134.32 14.4 138.8 14.4H147.96L150.64 16.48V19.6H139.04C138.24 19.6 137.84 20 137.84 20.8V23.4C137.84 24.1467 138.173 24.5867 138.84 24.72L146.64 26.28C149.84 26.92 151.44 29.0667 151.44 32.72V35.28C151.44 39.76 149.2 42 144.72 42H134.76L132.08 39.92ZM161.756 42C157.436 42 155.276 39.88 155.276 35.64C155.276 31.4 157.436 29.28 161.756 29.28H167.276V26.96C167.276 26.1067 166.849 25.68 165.996 25.68H157.516V22.68L159.916 20.88H166.316C170.636 20.88 172.796 23.04 172.796 27.36V42H161.756ZM160.796 35.92C160.796 36.7733 161.222 37.2 162.076 37.2H167.276V33.6H162.076C161.222 33.6 160.796 34.0267 160.796 34.88V35.92ZM178.228 35.52V20.88H183.748V35.92C183.748 36.7733 184.174 37.2 185.028 37.2H190.868V20.88H196.388V42H184.708C180.388 42 178.228 39.84 178.228 35.52ZM183.908 16.44L189.428 10.16L192.468 13.04L186.548 18.96L183.908 16.44ZM201.818 35.52V27.36C201.818 23.04 203.978 20.88 208.298 20.88H214.458V12.4H219.978V42H208.298C203.978 42 201.818 39.84 201.818 35.52ZM207.338 35.92C207.338 36.7733 207.764 37.2 208.618 37.2H214.458V25.68H208.618C207.764 25.68 207.338 26.1067 207.338 26.96V35.92ZM225.412 35.52V27.36C225.412 23.04 227.572 20.88 231.892 20.88H237.092C241.412 20.88 243.572 23.04 243.572 27.36V33.52H230.932V35.92C230.932 36.7733 231.358 37.2 232.212 37.2H242.772V40.2L240.372 42H231.892C227.572 42 225.412 39.84 225.412 35.52ZM230.932 29.2H238.052V26.96C238.052 26.1067 237.625 25.68 236.772 25.68H232.212C231.358 25.68 230.932 26.1067 230.932 26.96V29.2Z" fill="#218738"/>
<path d="M132.08 41.92V38.8H144.48C145.28 38.8 145.68 38.4 145.68 37.6V34.68C145.68 33.9333 145.347 33.4933 144.68 33.36L136.88 31.8C133.68 31.16 132.08 29.0133 132.08 25.36V23.12C132.08 18.64 134.32 16.4 138.8 16.4H147.96L150.64 18.48V21.6H139.04C138.24 21.6 137.84 22 137.84 22.8V25.4C137.84 26.1467 138.173 26.5867 138.84 26.72L146.64 28.28C149.84 28.92 151.44 31.0667 151.44 34.72V37.28C151.44 41.76 149.2 44 144.72 44H134.76L132.08 41.92ZM161.756 44C157.436 44 155.276 41.88 155.276 37.64C155.276 33.4 157.436 31.28 161.756 31.28H167.276V28.96C167.276 28.1067 166.849 27.68 165.996 27.68H157.516V24.68L159.916 22.88H166.316C170.636 22.88 172.796 25.04 172.796 29.36V44H161.756ZM160.796 37.92C160.796 38.7733 161.222 39.2 162.076 39.2H167.276V35.6H162.076C161.222 35.6 160.796 36.0267 160.796 36.88V37.92ZM178.228 37.52V22.88H183.748V37.92C183.748 38.7733 184.174 39.2 185.028 39.2H190.868V22.88H196.388V44H184.708C180.388 44 178.228 41.84 178.228 37.52ZM183.908 18.44L189.428 12.16L192.468 15.04L186.548 20.96L183.908 18.44ZM201.818 37.52V29.36C201.818 25.04 203.978 22.88 208.298 22.88H214.458V14.4H219.978V44H208.298C203.978 44 201.818 41.84 201.818 37.52ZM207.338 37.92C207.338 38.7733 207.764 39.2 208.618 39.2H214.458V27.68H208.618C207.764 27.68 207.338 28.1067 207.338 28.96V37.92ZM225.412 37.52V29.36C225.412 25.04 227.572 22.88 231.892 22.88H237.092C241.412 22.88 243.572 25.04 243.572 29.36V35.52H230.932V37.92C230.932 38.7733 231.358 39.2 232.212 39.2H242.772V42.2L240.372 44H231.892C227.572 44 225.412 41.84 225.412 37.52ZM230.932 31.2H238.052V28.96C238.052 28.1067 237.625 27.68 236.772 27.68H232.212C231.358 27.68 230.932 28.1067 230.932 28.96V31.2Z" fill="#4D256C"/>
<path d="M0 48.3182H29.4118L39.7059 27.3766L44.6078 60.0065L57.3529 39.5519L64.7059 79L88.2353 4L100 24.4545" stroke="#218738" stroke-width="3"/>
<path d="M0.333252 50.5455H30.2755L40.7553 30.4416L45.7456 61.7662L58.7206 42.1299L66.2061 80L90.1599 8L102.137 27.6364" stroke="#4D256C" stroke-width="3"/>
<path d="M112.552 41.1249C107.761 36.164 102.571 42.4779 102.571 42.4779C102.571 42.4779 96.9816 36.164 92.1909 41.1249C87.4001 46.0858 93.3886 52.8506 93.3886 52.8506L102.571 63.2234L110.955 52.8506C110.955 52.8506 117.342 46.0859 112.552 41.1249Z" fill="#4D256C" stroke="#F9F9F9"/>
</svg>
