<svg width="279" height="116" viewBox="0 0 279 116" fill="none" xmlns="http://www.w3.org/2000/svg">
<line x1="95" y1="114" x2="185" y2="114" stroke="#4D256C" stroke-width="4"/>
<path d="M213.736 91.816V85.288C213.736 81.832 215.464 80.104 218.92 80.104H224.872L226.792 81.544V83.944H219.176C218.493 83.944 218.152 84.2853 218.152 84.968V92.136C218.152 92.8187 218.493 93.16 219.176 93.16H226.792V95.56L224.872 97H218.92C215.464 97 213.736 95.272 213.736 91.816ZM230.49 77.352V73.064H235.034V77.352H230.49ZM230.554 97V80.104H234.97V97H230.554ZM237.857 80.776L238.305 80.104H242.113L246.017 93.16H246.337L250.241 80.104H254.049L254.497 80.776L249.409 97H242.945L237.857 80.776ZM257.303 77.352V73.064H261.847V77.352H257.303ZM257.367 97V80.104H261.783V97H257.367ZM266.27 90.856V73.32H270.686V91.304C270.686 92.6267 271.368 93.352 272.734 93.48V97.32C268.424 97.32 266.27 95.1653 266.27 90.856Z" fill="#4D256C"/>
<path d="M81.08 57.92V54.8H93.48C94.28 54.8 94.68 54.4 94.68 53.6V50.68C94.68 49.9333 94.3467 49.4933 93.68 49.36L85.88 47.8C82.68 47.16 81.08 45.0133 81.08 41.36V39.12C81.08 34.64 83.32 32.4 87.8 32.4H96.96L99.64 34.48V37.6H88.04C87.24 37.6 86.84 38 86.84 38.8V41.4C86.84 42.1467 87.1733 42.5867 87.84 42.72L95.64 44.28C98.84 44.92 100.44 47.0667 100.44 50.72V53.28C100.44 57.76 98.2 60 93.72 60H83.76L81.08 57.92ZM105.076 53.52V45.36C105.076 41.04 107.236 38.88 111.556 38.88H117.156C121.476 38.88 123.636 41.04 123.636 45.36V53.52C123.636 57.84 121.476 60 117.156 60H111.556C107.236 60 105.076 57.84 105.076 53.52ZM110.596 53.92C110.596 54.7733 111.022 55.2 111.876 55.2H116.836C117.689 55.2 118.116 54.7733 118.116 53.92V44.96C118.116 44.1067 117.689 43.68 116.836 43.68H111.876C111.022 43.68 110.596 44.1067 110.596 44.96V53.92ZM128.748 53.52V45.36C128.748 41.04 130.908 38.88 135.228 38.88H142.668L145.068 40.68V43.68H135.548C134.694 43.68 134.268 44.1067 134.268 44.96V53.92C134.268 54.7733 134.694 55.2 135.548 55.2H145.068V58.2L142.668 60H135.228C130.908 60 128.748 57.84 128.748 53.52ZM149.691 35.44V30.08H155.371V35.44H149.691ZM149.771 60V38.88H155.291V60H149.771ZM160.74 53.52V45.36C160.74 41.04 162.9 38.88 167.22 38.88H172.42C176.74 38.88 178.9 41.04 178.9 45.36V51.52H166.26V53.92C166.26 54.7733 166.686 55.2 167.54 55.2H178.1V58.2L175.7 60H167.22C162.9 60 160.74 57.84 160.74 53.52ZM166.26 47.2H173.38V44.96C173.38 44.1067 172.953 43.68 172.1 43.68H167.54C166.686 43.68 166.26 44.1067 166.26 44.96V47.2ZM184.021 53.52V45.36C184.021 41.04 186.181 38.88 190.501 38.88H196.661V30.4H202.181V60H190.501C186.181 60 184.021 57.84 184.021 53.52ZM189.541 53.92C189.541 54.7733 189.968 55.2 190.821 55.2H196.661V43.68H190.821C189.968 43.68 189.541 44.1067 189.541 44.96V53.92ZM213.295 60C208.975 60 206.815 57.88 206.815 53.64C206.815 49.4 208.975 47.28 213.295 47.28H218.815V44.96C218.815 44.1067 218.388 43.68 217.535 43.68H209.055V40.68L211.455 38.88H217.855C222.175 38.88 224.335 41.04 224.335 45.36V60H213.295ZM212.335 53.92C212.335 54.7733 212.761 55.2 213.615 55.2H218.815V51.6H213.615C212.761 51.6 212.335 52.0267 212.335 52.88V53.92ZM229.607 53.52V45.36C229.607 41.04 231.767 38.88 236.087 38.88H242.247V30.4H247.767V60H236.087C231.767 60 229.607 57.84 229.607 53.52ZM235.127 53.92C235.127 54.7733 235.554 55.2 236.407 55.2H242.247V43.68H236.407C235.554 43.68 235.127 44.1067 235.127 44.96V53.92ZM253.201 53.52V45.36C253.201 41.04 255.361 38.88 259.681 38.88H264.881C269.201 38.88 271.361 41.04 271.361 45.36V51.52H258.721V53.92C258.721 54.7733 259.147 55.2 260.001 55.2H270.561V58.2L268.161 60H259.681C255.361 60 253.201 57.84 253.201 53.52ZM258.721 47.2H265.841V44.96C265.841 44.1067 265.414 43.68 264.561 43.68H260.001C259.147 43.68 258.721 44.1067 258.721 44.96V47.2Z" fill="#4D256C"/>
<path d="M81.08 59.92V56.8H93.48C94.28 56.8 94.68 56.4 94.68 55.6V52.68C94.68 51.9333 94.3467 51.4933 93.68 51.36L85.88 49.8C82.68 49.16 81.08 47.0133 81.08 43.36V41.12C81.08 36.64 83.32 34.4 87.8 34.4H96.96L99.64 36.48V39.6H88.04C87.24 39.6 86.84 40 86.84 40.8V43.4C86.84 44.1467 87.1733 44.5867 87.84 44.72L95.64 46.28C98.84 46.92 100.44 49.0667 100.44 52.72V55.28C100.44 59.76 98.2 62 93.72 62H83.76L81.08 59.92ZM105.076 55.52V47.36C105.076 43.04 107.236 40.88 111.556 40.88H117.156C121.476 40.88 123.636 43.04 123.636 47.36V55.52C123.636 59.84 121.476 62 117.156 62H111.556C107.236 62 105.076 59.84 105.076 55.52ZM110.596 55.92C110.596 56.7733 111.022 57.2 111.876 57.2H116.836C117.689 57.2 118.116 56.7733 118.116 55.92V46.96C118.116 46.1067 117.689 45.68 116.836 45.68H111.876C111.022 45.68 110.596 46.1067 110.596 46.96V55.92ZM128.748 55.52V47.36C128.748 43.04 130.908 40.88 135.228 40.88H142.668L145.068 42.68V45.68H135.548C134.694 45.68 134.268 46.1067 134.268 46.96V55.92C134.268 56.7733 134.694 57.2 135.548 57.2H145.068V60.2L142.668 62H135.228C130.908 62 128.748 59.84 128.748 55.52ZM149.691 37.44V32.08H155.371V37.44H149.691ZM149.771 62V40.88H155.291V62H149.771ZM160.74 55.52V47.36C160.74 43.04 162.9 40.88 167.22 40.88H172.42C176.74 40.88 178.9 43.04 178.9 47.36V53.52H166.26V55.92C166.26 56.7733 166.686 57.2 167.54 57.2H178.1V60.2L175.7 62H167.22C162.9 62 160.74 59.84 160.74 55.52ZM166.26 49.2H173.38V46.96C173.38 46.1067 172.953 45.68 172.1 45.68H167.54C166.686 45.68 166.26 46.1067 166.26 46.96V49.2ZM184.021 55.52V47.36C184.021 43.04 186.181 40.88 190.501 40.88H196.661V32.4H202.181V62H190.501C186.181 62 184.021 59.84 184.021 55.52ZM189.541 55.92C189.541 56.7733 189.968 57.2 190.821 57.2H196.661V45.68H190.821C189.968 45.68 189.541 46.1067 189.541 46.96V55.92ZM213.295 62C208.975 62 206.815 59.88 206.815 55.64C206.815 51.4 208.975 49.28 213.295 49.28H218.815V46.96C218.815 46.1067 218.388 45.68 217.535 45.68H209.055V42.68L211.455 40.88H217.855C222.175 40.88 224.335 43.04 224.335 47.36V62H213.295ZM212.335 55.92C212.335 56.7733 212.761 57.2 213.615 57.2H218.815V53.6H213.615C212.761 53.6 212.335 54.0267 212.335 54.88V55.92ZM229.607 55.52V47.36C229.607 43.04 231.767 40.88 236.087 40.88H242.247V32.4H247.767V62H236.087C231.767 62 229.607 59.84 229.607 55.52ZM235.127 55.92C235.127 56.7733 235.554 57.2 236.407 57.2H242.247V45.68H236.407C235.554 45.68 235.127 46.1067 235.127 46.96V55.92ZM253.201 55.52V47.36C253.201 43.04 255.361 40.88 259.681 40.88H264.881C269.201 40.88 271.361 43.04 271.361 47.36V53.52H258.721V55.92C258.721 56.7733 259.147 57.2 260.001 57.2H270.561V60.2L268.161 62H259.681C255.361 62 253.201 59.84 253.201 55.52ZM258.721 49.2H265.841V46.96C265.841 46.1067 265.414 45.68 264.561 45.68H260.001C259.147 45.68 258.721 46.1067 258.721 46.96V49.2Z" fill="#F2F2F2"/>
<path d="M108.476 20V7.58H114.524C116.54 7.58 117.548 8.588 117.548 10.604V13.016C117.548 15.032 116.54 16.04 114.524 16.04H111.068V20H108.476ZM111.068 13.7H114.416C114.776 13.7 114.956 13.52 114.956 13.16V10.46C114.956 10.1 114.776 9.92 114.416 9.92H111.068V13.7ZM119.703 20V11.72C120.147 10.904 120.999 10.496 122.259 10.496H124.203L125.283 11.306V12.656H122.853C122.529 12.656 122.307 12.734 122.187 12.89V20H119.703ZM126.908 17.084V13.412C126.908 11.468 127.88 10.496 129.824 10.496H132.344C134.288 10.496 135.26 11.468 135.26 13.412V17.084C135.26 19.028 134.288 20 132.344 20H129.824C127.88 20 126.908 19.028 126.908 17.084ZM129.392 17.264C129.392 17.648 129.584 17.84 129.968 17.84H132.2C132.584 17.84 132.776 17.648 132.776 17.264V13.232C132.776 12.848 132.584 12.656 132.2 12.656H129.968C129.584 12.656 129.392 12.848 129.392 13.232V17.264ZM136.228 21.674C137.212 21.602 137.704 21.086 137.704 20.126V10.496H140.188V19.82C140.188 22.46 138.868 23.78 136.228 23.78V21.674ZM137.668 8.948V6.536H140.224V8.948H137.668ZM142.64 17.084V13.412C142.64 11.468 143.612 10.496 145.556 10.496H147.896C149.84 10.496 150.812 11.468 150.812 13.412V16.184H145.124V17.264C145.124 17.648 145.316 17.84 145.7 17.84H150.452V19.19L149.372 20H145.556C143.612 20 142.64 19.028 142.64 17.084ZM145.124 14.24H148.328V13.232C148.328 12.848 148.136 12.656 147.752 12.656H145.7C145.316 12.656 145.124 12.848 145.124 13.232V14.24ZM153.189 17.084V7.58H155.673V10.496H158.769V12.656H155.673V17.264C155.673 17.648 155.865 17.84 156.249 17.84H158.949V19.19L157.869 20H156.105C154.161 20 153.189 19.028 153.189 17.084ZM160.746 17.084V13.412C160.746 11.468 161.718 10.496 163.662 10.496H166.182C168.126 10.496 169.098 11.468 169.098 13.412V17.084C169.098 19.028 168.126 20 166.182 20H163.662C161.718 20 160.746 19.028 160.746 17.084ZM163.23 17.264C163.23 17.648 163.422 17.84 163.806 17.84H166.038C166.422 17.84 166.614 17.648 166.614 17.264V13.232C166.614 12.848 166.422 12.656 166.038 12.656H163.806C163.422 12.656 163.23 12.848 163.23 13.232V17.264ZM171.218 19.19V17.84H175.358C175.766 17.84 175.97 17.612 175.97 17.156C175.97 16.688 175.79 16.424 175.43 16.364L173.486 16.04C171.974 15.788 171.218 14.912 171.218 13.412C171.218 11.468 172.19 10.496 174.134 10.496H176.924L178.004 11.306V12.656H174.296C173.888 12.656 173.684 12.884 173.684 13.34C173.684 13.808 173.864 14.072 174.224 14.132L176.168 14.456C177.68 14.708 178.436 15.584 178.436 17.084C178.436 19.028 177.464 20 175.52 20H172.298L171.218 19.19ZM184.863 17.084V13.412C184.863 11.468 185.835 10.496 187.779 10.496H191.127L192.207 11.306V12.656H187.923C187.539 12.656 187.347 12.848 187.347 13.232V17.264C187.347 17.648 187.539 17.84 187.923 17.84H192.207V19.19L191.127 20H187.779C185.835 20 184.863 19.028 184.863 17.084ZM194.179 17.084V13.412C194.179 11.468 195.151 10.496 197.095 10.496H199.615C201.559 10.496 202.531 11.468 202.531 13.412V17.084C202.531 19.028 201.559 20 199.615 20H197.095C195.151 20 194.179 19.028 194.179 17.084ZM196.663 17.264C196.663 17.648 196.855 17.84 197.239 17.84H199.471C199.855 17.84 200.047 17.648 200.047 17.264V13.232C200.047 12.848 199.855 12.656 199.471 12.656H197.239C196.855 12.656 196.663 12.848 196.663 13.232V17.264ZM204.976 20V10.496H215.812C217.756 10.496 218.728 11.468 218.728 13.412V20H216.244V13.232C216.244 12.848 216.052 12.656 215.668 12.656H213.094V20H210.61V12.656H207.46V20H204.976ZM227.989 20C226.045 20 225.073 19.046 225.073 17.138C225.073 15.23 226.045 14.276 227.989 14.276H230.473V13.232C230.473 12.848 230.281 12.656 229.897 12.656H226.081V11.306L227.161 10.496H230.041C231.985 10.496 232.957 11.468 232.957 13.412V20H227.989ZM227.557 17.264C227.557 17.648 227.749 17.84 228.133 17.84H230.473V16.22H228.133C227.749 16.22 227.557 16.412 227.557 16.796V17.264Z" fill="#4D256C"/>
<path d="M63.0625 6.2115H33.8455V0.9375C33.8455 0.41975 33.4259 0 32.908 0H27.0589C26.5411 0 26.1214 0.41975 26.1214 0.9375V6.2115H14.6486C14.1309 6.2115 13.7111 6.63125 13.7111 7.149V15.2093C13.0924 15.539 12.506 15.9725 12.0122 16.4715V13.7161C12.0122 12.0165 10.3214 10.6209 7.80638 10.1575V8.12237C7.80638 7.60462 7.38663 7.18488 6.86888 7.18488C5.20913 7.18488 3.52163 7.823 2.239 8.93563C0.79525 10.1881 0 11.9266 0 13.8308V17.7586C0 18.9708 1.875 18.9708 1.875 17.7586V13.8308C1.875 11.7786 3.40213 9.581 5.93138 9.13962V45.1026C4.46012 45.2865 2.95762 45.875 1.87875 46.9119C1.87675 45.6353 1.875 22.7404 1.875 22.7404C1.875 21.5282 0 21.5282 0 22.7404V51.861C0 51.9136 0.005375 51.9649 0.01375 52.0151C0.105875 54.765 2.65 56.82 6.00612 56.82C7.631 56.82 9.08475 56.3575 10.1556 55.5954L10.1561 59.042C10.1566 62.21 13.325 64 16.1631 64C19.1756 63.9995 22.1684 62.3029 22.1684 59.04L22.1663 45.7853H48.865L29.411 62.3488C28.7606 62.9024 29.1646 64 30.0187 64H58.2523C58.7701 64 59.1898 63.5802 59.1898 63.0625V58.5148C59.1898 57.3026 57.3148 57.3026 57.3148 58.5148V62.125H32.5661L57.3148 41.0539V53.3428C57.3148 54.5549 59.1898 54.5549 59.1898 53.3428V45.7855H63.0625C63.5804 45.7855 64 45.3657 64 44.848V31.7625V7.149C64 6.63125 63.5804 6.2115 63.0625 6.2115ZM62.125 8.0865V30.825H40.1685V8.0865H62.125ZM31.9705 1.875V25.8681H27.9964V23.4722H28.6771C29.8893 23.4722 29.8893 21.5972 28.6771 21.5972H27.9964V19.1406H29.5521C30.7643 19.1406 30.7643 17.2656 29.5521 17.2656H27.9964V14.809H28.6771C29.1949 14.809 29.6146 14.3892 29.6146 13.8715C29.6146 13.3538 29.1949 12.934 28.6771 12.934H27.9964V10.4774H29.5521C30.7643 10.4774 30.7643 8.60238 29.5521 8.60238H27.9964V6.14587H28.6771C29.8893 6.14587 29.8893 4.27087 28.6771 4.27087H27.9964V1.875H31.9705ZM14.8075 16.7225C15.2122 16.531 15.6368 16.3968 16.0809 16.3196L16.0866 52.2826C15.0422 52.4134 13.354 52.8236 12.0343 54.0925C12.0321 52.8334 12.0301 51.8587 12.0301 51.8322L12.0251 21.0114C12.0249 19.3315 13.0486 17.5545 14.8075 16.7225ZM20.293 56.3044C20.2614 56.2863 20.2295 56.2684 20.1971 56.2506C19.1219 55.6604 17.718 55.3311 16.2364 55.3206L16.2362 54.1551C16.6855 54.0933 16.9872 54.0979 16.9945 54.0979C17.5815 54.0586 17.9039 53.7463 17.9616 53.1608L17.9562 19.2606C19.199 19.5681 20.2872 20.1981 20.2874 20.8955L20.293 56.3044ZM10.1372 13.7161V44.6519V49.1124C9.09262 48.5125 7.681 48.1515 6.08087 48.1408V46.975C6.53038 46.9131 6.83213 46.9179 6.83913 46.918C7.42613 46.8787 7.7485 46.5664 7.80638 45.981V12.0749C9.23438 12.4167 10.1372 13.1257 10.1372 13.7161ZM10.1372 52.305C10.1372 53.736 8.24537 54.945 6.00612 54.945C3.65637 54.945 1.88437 53.6193 1.88437 51.861C1.88437 50.0805 2.52975 48.3941 4.20587 47.5425V49.1188C4.27262 49.732 4.6145 50.0431 5.23138 50.0521C6.53413 49.9295 7.97425 50.0752 9.139 50.7147C9.81112 51.0839 10.192 51.5526 10.1372 52.305ZM16.1629 62.125C16.1625 62.125 16.1624 62.125 16.1619 62.125C13.8127 62.125 12.0407 60.7995 12.0405 59.0418C12.0402 57.2614 12.6852 55.5746 14.3614 54.7228L14.3616 56.2991C14.4285 56.9123 14.7704 57.2234 15.3871 57.2323C16.9775 57.0827 20.3698 57.338 20.2935 59.4842C20.2938 60.9154 18.4021 62.1247 16.1629 62.125ZM22.1624 20.895C22.1621 19.2073 20.4656 17.8034 17.9559 17.338L17.9555 15.302C17.9018 14.7306 17.5893 14.4181 17.0179 14.3646C16.5394 14.3647 16.0589 14.4195 15.5861 14.5218V8.0865H26.1214V26.8055C26.1214 27.3232 26.5411 27.743 27.0589 27.743H32.908C33.4259 27.743 33.8455 27.3232 33.8455 26.8055V8.0865H38.2935V31.7625V43.9104H22.1661L22.1624 20.895ZM58.6454 38.1732C58.3134 38.0199 57.9227 38.0734 57.6444 38.3105L51.0672 43.9104H40.1685V32.7H62.125V43.9104H59.1898V39.0244C59.1898 38.6589 58.9772 38.3266 58.6454 38.1732Z" fill="#F9F9F9"/>
<path d="M44.6676 26.8646H53.3057C53.5525 26.8646 53.7955 26.7636 53.9696 26.589L58.2886 22.2734C58.4646 22.0975 58.5635 21.8589 58.5635 21.6101L58.5622 12.9843C58.5622 12.477 58.1319 12.0469 57.6246 12.0469L48.9854 12.0479C48.737 12.0479 48.4985 12.1466 48.3229 12.3223L44.0056 16.6361C43.8314 16.8099 43.73 17.0541 43.73 17.3V25.9271C43.7301 26.445 44.1499 26.8646 44.6676 26.8646ZM45.6051 18.2375H52.3682V24.9896H45.6051V18.2375ZM54.2434 23.6651V17.6886L56.6879 15.2461L56.6887 21.2219L54.2434 23.6651ZM49.3739 13.9229L55.3601 13.9221L52.9177 16.3625H46.9321L49.3739 13.9229Z" fill="#F9F9F9"/>
<path d="M49.1016 39.2607H45.9953C44.7832 39.2607 44.7832 41.1357 45.9953 41.1357H49.1016C50.3138 41.1357 50.3138 39.2607 49.1016 39.2607Z" fill="#F9F9F9"/>
<path d="M53.9549 35.5303H45.9953C44.7832 35.5303 44.7832 37.4053 45.9953 37.4053H53.9549C55.167 37.4053 55.167 35.5303 53.9549 35.5303Z" fill="#F9F9F9"/>
<path d="M53.0909 48.1634L41.7715 57.8009C41.1214 58.3545 41.5253 59.4521 42.3793 59.4521H53.6987C54.2166 59.4521 54.6362 59.0324 54.6362 58.5146V48.8771C54.6362 48.1644 53.7359 47.614 53.0909 48.1634ZM52.7612 57.5771H44.9265L52.7612 50.9066V57.5771Z" fill="#F9F9F9"/>
</svg>
