<svg width="235" height="113" viewBox="0 0 235 113" fill="none" xmlns="http://www.w3.org/2000/svg">
<path d="M5.5 88.5V30H54" stroke="#218738" stroke-width="4"/>
<path d="M49.2414 73.4166H32.6349C32.0502 73.4166 31.5762 73.8757 31.5762 74.442C31.5762 75.0083 32.0502 75.4674 32.6349 75.4674H49.2414C49.8261 75.4674 50.3002 75.0083 50.3002 74.442C50.3002 73.8757 49.8261 73.4166 49.2414 73.4166Z" fill="#4D256C"/>
<path d="M16.5246 80.8971H30.386C30.9707 80.8971 31.4448 80.438 31.4448 79.8717C31.4448 79.3054 30.9707 78.8463 30.386 78.8463H16.5246C15.9399 78.8463 15.4658 79.3054 15.4658 79.8717C15.4658 80.438 15.9399 80.8971 16.5246 80.8971Z" fill="#4D256C"/>
<path d="M16.5246 86.3267H49.2413C49.826 86.3267 50.3001 85.8676 50.3001 85.3013C50.3001 84.735 49.826 84.2759 49.2413 84.2759H16.5246C15.9399 84.2759 15.4658 84.735 15.4658 85.3013C15.4658 85.8676 15.9399 86.3267 16.5246 86.3267Z" fill="#4D256C"/>
<path d="M16.5246 75.4674H27.5409C28.1256 75.4674 28.5997 75.0083 28.5997 74.442C28.5997 73.8757 28.1256 73.4166 27.5409 73.4166H16.5246C15.9399 73.4166 15.4658 73.8757 15.4658 74.442C15.4658 75.0083 15.9399 75.4674 16.5246 75.4674Z" fill="#4D256C"/>
<path d="M49.241 78.8463H38.2287C37.644 78.8463 37.1699 79.3054 37.1699 79.8717C37.1699 80.438 37.644 80.8971 38.2287 80.8971H49.241C49.8258 80.8971 50.2998 80.438 50.2998 79.8717C50.2998 79.3054 49.8258 78.8463 49.241 78.8463Z" fill="#4D256C"/>
<path d="M38.1974 51.2116C37.9145 51.2039 37.3889 51.1896 36.9826 51.5898C36.8045 51.7653 36.5968 52.0763 36.6187 52.5622C36.7963 56.568 40.1787 59.7058 44.3191 59.7058C48.3756 59.7058 51.7539 56.6367 52.0103 52.7189C52.046 52.1749 51.826 51.8307 51.6353 51.6376C51.1971 51.1941 50.6226 51.2049 50.2435 51.212C50.196 51.2128 50.147 51.2139 50.0973 51.2139H50.0236L45.0952 45.927C44.9916 45.7393 44.8281 45.5806 44.614 45.4829C42.2817 44.4193 39.9324 43.6642 37.6149 43.231C37.6197 43.1482 37.6227 43.0648 37.6227 42.9807C37.6227 40.5241 35.5358 38.5255 32.9705 38.5255C30.4051 38.5255 28.3182 40.5241 28.3182 42.9807C28.3182 43.0545 28.3203 43.1278 28.324 43.2007C25.9781 43.629 23.6236 44.3963 21.31 45.489C21.1016 45.5874 20.9425 45.7437 20.8412 45.9277L15.917 51.2139H15.8395C15.7904 51.2139 15.742 51.213 15.6947 51.212C15.3148 51.2049 14.7407 51.1941 14.3018 51.6382C14.1109 51.8312 13.891 52.1755 13.9267 52.72C14.1877 56.6373 17.5677 59.7058 21.6218 59.7058C25.7622 59.7058 29.1446 56.568 29.3222 52.5622C29.3224 52.5592 29.3225 52.5561 29.3225 52.5529C29.3394 52.068 29.1304 51.7589 28.9519 51.5851C28.5459 51.1897 28.0242 51.2041 27.7435 51.2116C27.7084 51.2125 27.6717 51.2135 27.6344 51.2136L23.4967 46.7749C25.3 46.0267 27.1188 45.492 28.9265 45.1791C29.5591 46.2421 30.6348 47.0324 31.9117 47.3182V63.1157H30.0813C28.1118 63.1157 26.5096 64.6675 26.5096 66.575V67.9834H16.5241C15.9394 67.9834 15.4653 68.4425 15.4653 69.0088C15.4653 69.5751 15.9394 70.0342 16.5241 70.0342H49.2411C49.8258 70.0342 50.2999 69.5751 50.2999 69.0088C50.2999 68.4425 49.8258 67.9834 49.2411 67.9834H39.6836V66.5748C39.6836 64.6673 38.0795 63.1156 36.108 63.1156H34.0295V47.3181C35.2957 47.0347 36.3639 46.2553 36.9986 45.2057C38.7907 45.5241 40.6096 46.054 42.429 46.7878L38.3064 51.2136C38.2691 51.2135 38.2326 51.2125 38.1974 51.2116ZM21.6224 57.655C18.9193 57.655 16.6291 55.7744 16.1296 53.2647H27.1128C26.6188 55.7817 24.3468 57.655 21.6224 57.655ZM24.7825 51.2139H18.7695L21.775 47.9872L24.7825 51.2139ZM36.1081 65.1663C36.9121 65.1663 37.5662 65.7983 37.5662 66.5748V67.9833H28.6275V66.5748C28.6275 65.7983 29.2799 65.1663 30.0817 65.1663H36.1081ZM32.9707 45.3852C31.5732 45.3852 30.436 44.3065 30.436 42.9807C30.436 41.6549 31.573 40.5762 32.9707 40.5762C34.3685 40.5762 35.5054 41.6549 35.5054 42.9807C35.5054 44.3065 34.3685 45.3852 32.9707 45.3852ZM44.1637 47.9872L47.1711 51.2139H41.1581L44.1637 47.9872ZM49.8087 53.2647C49.3121 55.7747 47.0235 57.655 44.3192 57.655C41.5948 57.655 39.3228 55.7817 38.8287 53.2647H49.8087Z" fill="#4D256C"/>
<path d="M58.9412 57.954C59.526 57.954 60 57.4949 60 56.9286V32.2494C60 31.0301 58.9758 30.0381 57.7167 30.0381H53.7969V27.2381C53.7969 26.0041 52.7603 25 51.4859 25H2.31095C1.03675 25 0 26.0041 0 27.2381V54.7965C0 55.3628 0.474047 55.8219 1.05877 55.8219C1.6435 55.8219 2.11754 55.3628 2.11754 54.7965V27.2381C2.11754 27.1383 2.20789 27.0508 2.31095 27.0508H51.4861C51.589 27.0508 51.6795 27.1383 51.6795 27.2381V30.0381H8.4857C7.22675 30.0381 6.20242 31.03 6.20242 32.2494V87.907H2.31095C2.20803 87.907 2.11754 87.8195 2.11754 87.7197V59.5297C2.11754 58.9634 1.6435 58.5043 1.05877 58.5043C0.474047 58.5043 0 58.9634 0 59.5297V87.7197C0 88.9538 1.03661 89.9578 2.31095 89.9578H6.20228V92.7887C6.20228 94.008 7.22647 95 8.48556 95H57.7167C58.9757 95 60 94.0081 60 92.7887V62.521C60 61.9547 59.526 61.4956 58.9412 61.4956C58.3565 61.4956 57.8825 61.9547 57.8825 62.521V92.7887C57.8825 92.8742 57.8051 92.9492 57.7167 92.9492H8.4857C8.39747 92.9492 8.31997 92.8743 8.31997 92.7887V88.9457C8.31997 88.9413 8.32067 88.9369 8.32067 88.9324C8.32067 88.9279 8.32011 88.9237 8.31997 88.9192V32.2494C8.31997 32.1639 8.39733 32.0889 8.4857 32.0889H57.7169C57.8051 32.0889 57.8826 32.1638 57.8826 32.2494V56.9286C57.8825 57.4949 58.3565 57.954 58.9412 57.954Z" fill="#4D256C"/>
<line x1="72" y1="111" x2="162" y2="111" stroke="#4D256C" stroke-width="4"/>
<path d="M148.048 87.816V81.288C148.048 77.832 149.776 76.104 153.232 76.104H158.16V69.32H162.576V93H153.232C149.776 93 148.048 91.272 148.048 87.816ZM152.464 88.136C152.464 88.8187 152.805 89.16 153.488 89.16H158.16V79.944H153.488C152.805 79.944 152.464 80.2853 152.464 80.968V88.136ZM166.923 87.816V81.288C166.923 77.832 168.651 76.104 172.107 76.104H176.267C179.723 76.104 181.451 77.832 181.451 81.288V86.216H171.339V88.136C171.339 88.8187 171.68 89.16 172.363 89.16H180.811V91.56L178.891 93H172.107C168.651 93 166.923 91.272 166.923 87.816ZM171.339 82.76H177.035V80.968C177.035 80.2853 176.694 79.944 176.011 79.944H172.363C171.68 79.944 171.339 80.2853 171.339 80.968V82.76ZM193.364 86.856V69.32H197.78V87.304C197.78 88.6267 198.462 89.352 199.828 89.48V93.32C195.518 93.32 193.364 91.1653 193.364 86.856ZM203.142 87.816V81.288C203.142 77.832 204.87 76.104 208.326 76.104H212.486C215.942 76.104 217.67 77.832 217.67 81.288V86.216H207.558V88.136C207.558 88.8187 207.899 89.16 208.582 89.16H217.03V91.56L215.11 93H208.326C204.87 93 203.142 91.272 203.142 87.816ZM207.558 82.76H213.254V80.968C213.254 80.2853 212.912 79.944 212.23 79.944H208.582C207.899 79.944 207.558 80.2853 207.558 80.968V82.76ZM221.959 73.352V69.064H226.503V73.352H221.959ZM222.023 93V76.104H226.439V93H222.023Z" fill="#218738"/>
<path d="M76.248 16.752V14.88H83.688C84.168 14.88 84.408 14.64 84.408 14.16V12.408C84.408 11.96 84.208 11.696 83.808 11.616L79.128 10.68C77.208 10.296 76.248 9.008 76.248 6.816V5.472C76.248 2.784 77.592 1.44 80.28 1.44H85.776L87.384 2.688V4.56H80.424C79.944 4.56 79.704 4.8 79.704 5.28V6.84C79.704 7.288 79.904 7.552 80.304 7.632L84.984 8.568C86.904 8.952 87.864 10.24 87.864 12.432V13.968C87.864 16.656 86.52 18 83.832 18H77.856L76.248 16.752ZM90.7414 14.112V5.328H94.0534V14.352C94.0534 14.864 94.3094 15.12 94.8214 15.12H98.3254V5.328H101.637V18H94.6294C92.0374 18 90.7414 16.704 90.7414 14.112ZM104.799 14.112V9.216C104.799 6.624 106.095 5.328 108.687 5.328H115.695V18.912C115.695 21.504 114.399 22.8 111.807 22.8H107.319L105.879 21.72V19.92H111.615C112.127 19.92 112.383 19.664 112.383 19.152V18H108.687C106.095 18 104.799 16.704 104.799 14.112ZM108.111 14.352C108.111 14.864 108.367 15.12 108.879 15.12H112.383V8.208H108.879C108.367 8.208 108.111 8.464 108.111 8.976V14.352ZM118.864 14.112V9.216C118.864 6.624 120.16 5.328 122.752 5.328H125.872C128.464 5.328 129.76 6.624 129.76 9.216V12.912H122.176V14.352C122.176 14.864 122.432 15.12 122.944 15.12H129.28V16.92L127.84 18H122.752C120.16 18 118.864 16.704 118.864 14.112ZM122.176 10.32H126.448V8.976C126.448 8.464 126.192 8.208 125.68 8.208H122.944C122.432 8.208 122.176 8.464 122.176 8.976V10.32ZM132.929 18V6.96C133.521 5.872 134.657 5.328 136.337 5.328H138.929L140.369 6.408V8.208H137.129C136.697 8.208 136.401 8.312 136.241 8.52V18H132.929ZM142.68 3.264V0.0479994H146.088V3.264H142.68ZM142.728 18V5.328H146.04V18H142.728ZM149.405 18V6.96C149.997 5.872 151.133 5.328 152.813 5.328H155.405L156.845 6.408V8.208H153.605C153.173 8.208 152.877 8.312 152.717 8.52V18H149.405Z" fill="#218738"/>
<path d="M78.28 56V28.4H91.72C96.2 28.4 98.44 30.64 98.44 35.12V40.48C98.44 44.96 96.2 47.2 91.72 47.2H84.04V56H78.28ZM84.04 42H91.48C92.28 42 92.68 41.6 92.68 40.8V34.8C92.68 34 92.28 33.6 91.48 33.6H84.04V42ZM103.228 56V37.6C104.214 35.7867 106.108 34.88 108.908 34.88H113.228L115.628 36.68V39.68H110.228C109.508 39.68 109.014 39.8533 108.748 40.2V56H103.228ZM119.24 49.52V41.36C119.24 37.04 121.4 34.88 125.72 34.88H131.32C135.64 34.88 137.8 37.04 137.8 41.36V49.52C137.8 53.84 135.64 56 131.32 56H125.72C121.4 56 119.24 53.84 119.24 49.52ZM124.76 49.92C124.76 50.7733 125.186 51.2 126.04 51.2H131C131.853 51.2 132.28 50.7733 132.28 49.92V40.96C132.28 40.1067 131.853 39.68 131 39.68H126.04C125.186 39.68 124.76 40.1067 124.76 40.96V49.92ZM139.952 59.72C142.138 59.56 143.232 58.4133 143.232 56.28V34.88H148.752V55.6C148.752 61.4667 145.818 64.4 139.952 64.4V59.72ZM143.152 31.44V26.08H148.832V31.44H143.152ZM154.201 49.52V41.36C154.201 37.04 156.361 34.88 160.681 34.88H165.881C170.201 34.88 172.361 37.04 172.361 41.36V47.52H159.721V49.92C159.721 50.7733 160.147 51.2 161.001 51.2H171.561V54.2L169.161 56H160.681C156.361 56 154.201 53.84 154.201 49.52ZM159.721 43.2H166.841V40.96C166.841 40.1067 166.414 39.68 165.561 39.68H161.001C160.147 39.68 159.721 40.1067 159.721 40.96V43.2ZM177.642 49.52V28.4H183.162V34.88H190.042V39.68H183.162V49.92C183.162 50.7733 183.589 51.2 184.442 51.2H190.442V54.2L188.042 56H184.122C179.802 56 177.642 53.84 177.642 49.52ZM194.435 49.52V41.36C194.435 37.04 196.595 34.88 200.915 34.88H206.515C210.835 34.88 212.995 37.04 212.995 41.36V49.52C212.995 53.84 210.835 56 206.515 56H200.915C196.595 56 194.435 53.84 194.435 49.52ZM199.955 49.92C199.955 50.7733 200.382 51.2 201.235 51.2H206.195C207.048 51.2 207.475 50.7733 207.475 49.92V40.96C207.475 40.1067 207.048 39.68 206.195 39.68H201.235C200.382 39.68 199.955 40.1067 199.955 40.96V49.92Z" fill="#218738"/>
<path d="M78.28 58V30.4H91.72C96.2 30.4 98.44 32.64 98.44 37.12V42.48C98.44 46.96 96.2 49.2 91.72 49.2H84.04V58H78.28ZM84.04 44H91.48C92.28 44 92.68 43.6 92.68 42.8V36.8C92.68 36 92.28 35.6 91.48 35.6H84.04V44ZM103.228 58V39.6C104.214 37.7867 106.108 36.88 108.908 36.88H113.228L115.628 38.68V41.68H110.228C109.508 41.68 109.014 41.8533 108.748 42.2V58H103.228ZM119.24 51.52V43.36C119.24 39.04 121.4 36.88 125.72 36.88H131.32C135.64 36.88 137.8 39.04 137.8 43.36V51.52C137.8 55.84 135.64 58 131.32 58H125.72C121.4 58 119.24 55.84 119.24 51.52ZM124.76 51.92C124.76 52.7733 125.186 53.2 126.04 53.2H131C131.853 53.2 132.28 52.7733 132.28 51.92V42.96C132.28 42.1067 131.853 41.68 131 41.68H126.04C125.186 41.68 124.76 42.1067 124.76 42.96V51.92ZM139.952 61.72C142.138 61.56 143.232 60.4133 143.232 58.28V36.88H148.752V57.6C148.752 63.4667 145.818 66.4 139.952 66.4V61.72ZM143.152 33.44V28.08H148.832V33.44H143.152ZM154.201 51.52V43.36C154.201 39.04 156.361 36.88 160.681 36.88H165.881C170.201 36.88 172.361 39.04 172.361 43.36V49.52H159.721V51.92C159.721 52.7733 160.147 53.2 161.001 53.2H171.561V56.2L169.161 58H160.681C156.361 58 154.201 55.84 154.201 51.52ZM159.721 45.2H166.841V42.96C166.841 42.1067 166.414 41.68 165.561 41.68H161.001C160.147 41.68 159.721 42.1067 159.721 42.96V45.2ZM177.642 51.52V30.4H183.162V36.88H190.042V41.68H183.162V51.92C183.162 52.7733 183.589 53.2 184.442 53.2H190.442V56.2L188.042 58H184.122C179.802 58 177.642 55.84 177.642 51.52ZM194.435 51.52V43.36C194.435 39.04 196.595 36.88 200.915 36.88H206.515C210.835 36.88 212.995 39.04 212.995 43.36V51.52C212.995 55.84 210.835 58 206.515 58H200.915C196.595 58 194.435 55.84 194.435 51.52ZM199.955 51.92C199.955 52.7733 200.382 53.2 201.235 53.2H206.195C207.048 53.2 207.475 52.7733 207.475 51.92V42.96C207.475 42.1067 207.048 41.68 206.195 41.68H201.235C200.382 41.68 199.955 42.1067 199.955 42.96V51.92Z" fill="#4D256C"/>
</svg>
