<svg width="328" height="73" viewBox="0 0 328 73" fill="none" xmlns="http://www.w3.org/2000/svg">
<path d="M80.232 30.272C80.3493 30.272 80.4533 30.3173 80.544 30.408L81.392 31.328C80.9227 31.9093 80.344 32.3547 79.656 32.664C78.9733 32.9733 78.152 33.128 77.192 33.128C76.3333 33.128 75.56 32.9813 74.872 32.688C74.1893 32.3947 73.6053 31.9867 73.12 31.464C72.6347 30.9413 72.2613 30.3173 72 29.592C71.744 28.8667 71.616 28.0747 71.616 27.216C71.616 26.3467 71.7547 25.552 72.032 24.832C72.3093 24.1067 72.6987 23.4827 73.2 22.96C73.7067 22.4373 74.3093 22.032 75.008 21.744C75.7067 21.4507 76.48 21.304 77.328 21.304C78.1707 21.304 78.9173 21.4427 79.568 21.72C80.224 21.9973 80.7813 22.36 81.24 22.808L80.52 23.808C80.4773 23.872 80.4213 23.928 80.352 23.976C80.288 24.024 80.1973 24.048 80.08 24.048C80 24.048 79.9173 24.0267 79.832 23.984C79.7467 23.936 79.6533 23.88 79.552 23.816C79.4507 23.7467 79.3333 23.672 79.2 23.592C79.0667 23.512 78.912 23.44 78.736 23.376C78.56 23.3067 78.3547 23.2507 78.12 23.208C77.8907 23.16 77.624 23.136 77.32 23.136C76.8027 23.136 76.328 23.2293 75.896 23.416C75.4693 23.5973 75.1013 23.864 74.792 24.216C74.4827 24.5627 74.2427 24.9893 74.072 25.496C73.9013 25.9973 73.816 26.5707 73.816 27.216C73.816 27.8667 73.9067 28.4453 74.088 28.952C74.2747 29.4587 74.5253 29.8853 74.84 30.232C75.1547 30.5787 75.5253 30.8453 75.952 31.032C76.3787 31.2133 76.8373 31.304 77.328 31.304C77.6213 31.304 77.8853 31.288 78.12 31.256C78.36 31.224 78.5787 31.1733 78.776 31.104C78.9787 31.0347 79.168 30.9467 79.344 30.84C79.5253 30.728 79.704 30.592 79.88 30.432C79.9333 30.384 79.9893 30.3467 80.048 30.32C80.1067 30.288 80.168 30.272 80.232 30.272ZM86.0143 24.664C86.6223 24.664 87.1743 24.7627 87.6703 24.96C88.1716 25.1573 88.5983 25.4373 88.9503 25.8C89.3076 26.1627 89.5822 26.6053 89.7743 27.128C89.9663 27.6507 90.0623 28.2347 90.0623 28.88C90.0623 29.5307 89.9663 30.1173 89.7743 30.64C89.5822 31.1627 89.3076 31.608 88.9503 31.976C88.5983 32.344 88.1716 32.6267 87.6703 32.824C87.1743 33.0213 86.6223 33.12 86.0143 33.12C85.4009 33.12 84.8436 33.0213 84.3423 32.824C83.8409 32.6267 83.4116 32.344 83.0543 31.976C82.7023 31.608 82.4276 31.1627 82.2303 30.64C82.0383 30.1173 81.9423 29.5307 81.9423 28.88C81.9423 28.2347 82.0383 27.6507 82.2303 27.128C82.4276 26.6053 82.7023 26.1627 83.0543 25.8C83.4116 25.4373 83.8409 25.1573 84.3423 24.96C84.8436 24.7627 85.4009 24.664 86.0143 24.664ZM86.0143 31.6C86.6969 31.6 87.2009 31.3707 87.5263 30.912C87.8569 30.4533 88.0223 29.7813 88.0223 28.896C88.0223 28.0107 87.8569 27.336 87.5263 26.872C87.2009 26.408 86.6969 26.176 86.0143 26.176C85.3209 26.176 84.8063 26.4107 84.4703 26.88C84.1396 27.344 83.9743 28.016 83.9743 28.896C83.9743 29.776 84.1396 30.448 84.4703 30.912C84.8063 31.3707 85.3209 31.6 86.0143 31.6ZM91.5698 33V24.792H92.7778C93.0338 24.792 93.2018 24.912 93.2818 25.152L93.4098 25.76C93.5538 25.6 93.7031 25.4533 93.8578 25.32C94.0178 25.1867 94.1858 25.072 94.3618 24.976C94.5431 24.88 94.7351 24.8053 94.9378 24.752C95.1458 24.6933 95.3724 24.664 95.6178 24.664C96.1351 24.664 96.5591 24.8053 96.8898 25.088C97.2258 25.3653 97.4764 25.736 97.6418 26.2C97.7698 25.928 97.9298 25.696 98.1218 25.504C98.3138 25.3067 98.5244 25.1467 98.7538 25.024C98.9831 24.9013 99.2258 24.8107 99.4818 24.752C99.7431 24.6933 100.004 24.664 100.266 24.664C100.719 24.664 101.122 24.7333 101.474 24.872C101.826 25.0107 102.122 25.2133 102.362 25.48C102.602 25.7467 102.783 26.072 102.906 26.456C103.034 26.84 103.098 27.28 103.098 27.776V33H101.122V27.776C101.122 27.2533 101.007 26.8613 100.778 26.6C100.548 26.3333 100.212 26.2 99.7698 26.2C99.5671 26.2 99.3778 26.2347 99.2018 26.304C99.0311 26.3733 98.8791 26.4747 98.7458 26.608C98.6178 26.736 98.5164 26.8987 98.4418 27.096C98.3671 27.2933 98.3298 27.52 98.3298 27.776V33H96.3458V27.776C96.3458 27.2267 96.2338 26.8267 96.0098 26.576C95.7911 26.3253 95.4684 26.2 95.0418 26.2C94.7538 26.2 94.4844 26.272 94.2338 26.416C93.9884 26.5547 93.7591 26.7467 93.5458 26.992V33H91.5698ZM107.024 24.792V33H105.04V24.792H107.024ZM107.296 22.4C107.296 22.5707 107.261 22.7307 107.192 22.88C107.123 23.0293 107.029 23.16 106.912 23.272C106.8 23.384 106.667 23.4747 106.512 23.544C106.357 23.608 106.192 23.64 106.016 23.64C105.845 23.64 105.683 23.608 105.528 23.544C105.379 23.4747 105.248 23.384 105.136 23.272C105.024 23.16 104.933 23.0293 104.864 22.88C104.8 22.7307 104.768 22.5707 104.768 22.4C104.768 22.224 104.8 22.0587 104.864 21.904C104.933 21.7493 105.024 21.616 105.136 21.504C105.248 21.392 105.379 21.304 105.528 21.24C105.683 21.1707 105.845 21.136 106.016 21.136C106.192 21.136 106.357 21.1707 106.512 21.24C106.667 21.304 106.8 21.392 106.912 21.504C107.029 21.616 107.123 21.7493 107.192 21.904C107.261 22.0587 107.296 22.224 107.296 22.4ZM114.047 26.392C113.993 26.4773 113.937 26.5387 113.879 26.576C113.82 26.608 113.745 26.624 113.655 26.624C113.559 26.624 113.455 26.5973 113.343 26.544C113.236 26.4907 113.111 26.432 112.967 26.368C112.823 26.2987 112.657 26.2373 112.47 26.184C112.289 26.1307 112.073 26.104 111.823 26.104C111.433 26.104 111.127 26.1867 110.903 26.352C110.684 26.5173 110.575 26.7333 110.575 27C110.575 27.176 110.631 27.3253 110.743 27.448C110.86 27.5653 111.012 27.6693 111.199 27.76C111.391 27.8507 111.607 27.9333 111.847 28.008C112.087 28.0773 112.329 28.1547 112.575 28.24C112.825 28.3253 113.071 28.424 113.311 28.536C113.551 28.6427 113.764 28.7813 113.951 28.952C114.143 29.1173 114.295 29.3173 114.407 29.552C114.524 29.7867 114.583 30.0693 114.583 30.4C114.583 30.7947 114.511 31.16 114.367 31.496C114.228 31.8267 114.02 32.1147 113.743 32.36C113.465 32.6 113.121 32.7893 112.711 32.928C112.305 33.0613 111.836 33.128 111.303 33.128C111.02 33.128 110.743 33.1013 110.471 33.048C110.204 33 109.945 32.9307 109.695 32.84C109.449 32.7493 109.22 32.6427 109.007 32.52C108.799 32.3973 108.615 32.264 108.455 32.12L108.911 31.368C108.969 31.2773 109.039 31.208 109.118 31.16C109.198 31.112 109.3 31.088 109.423 31.088C109.545 31.088 109.66 31.1227 109.767 31.192C109.879 31.2613 110.007 31.336 110.151 31.416C110.295 31.496 110.463 31.5707 110.655 31.64C110.852 31.7093 111.1 31.744 111.399 31.744C111.633 31.744 111.833 31.7173 111.999 31.664C112.169 31.6053 112.308 31.5307 112.415 31.44C112.527 31.3493 112.606 31.2453 112.655 31.128C112.708 31.0053 112.735 30.88 112.735 30.752C112.735 30.56 112.676 30.4027 112.559 30.28C112.447 30.1573 112.295 30.0507 112.102 29.96C111.916 29.8693 111.7 29.7893 111.455 29.72C111.215 29.6453 110.967 29.5653 110.711 29.48C110.46 29.3947 110.212 29.296 109.967 29.184C109.727 29.0667 109.511 28.92 109.319 28.744C109.132 28.568 108.98 28.352 108.863 28.096C108.751 27.84 108.695 27.5307 108.695 27.168C108.695 26.832 108.761 26.512 108.895 26.208C109.028 25.904 109.223 25.64 109.479 25.416C109.74 25.1867 110.063 25.0053 110.447 24.872C110.836 24.7333 111.284 24.664 111.791 24.664C112.356 24.664 112.871 24.7573 113.335 24.944C113.799 25.1307 114.185 25.376 114.495 25.68L114.047 26.392ZM121.078 26.392C121.024 26.4773 120.968 26.5387 120.91 26.576C120.851 26.608 120.776 26.624 120.686 26.624C120.59 26.624 120.486 26.5973 120.374 26.544C120.267 26.4907 120.142 26.432 119.998 26.368C119.854 26.2987 119.688 26.2373 119.502 26.184C119.32 26.1307 119.104 26.104 118.854 26.104C118.464 26.104 118.158 26.1867 117.934 26.352C117.715 26.5173 117.606 26.7333 117.606 27C117.606 27.176 117.662 27.3253 117.774 27.448C117.891 27.5653 118.043 27.6693 118.23 27.76C118.422 27.8507 118.638 27.9333 118.878 28.008C119.118 28.0773 119.36 28.1547 119.606 28.24C119.856 28.3253 120.102 28.424 120.342 28.536C120.582 28.6427 120.795 28.7813 120.982 28.952C121.174 29.1173 121.326 29.3173 121.438 29.552C121.555 29.7867 121.614 30.0693 121.614 30.4C121.614 30.7947 121.542 31.16 121.398 31.496C121.259 31.8267 121.051 32.1147 120.774 32.36C120.496 32.6 120.152 32.7893 119.742 32.928C119.336 33.0613 118.867 33.128 118.334 33.128C118.051 33.128 117.774 33.1013 117.502 33.048C117.235 33 116.976 32.9307 116.726 32.84C116.48 32.7493 116.251 32.6427 116.038 32.52C115.83 32.3973 115.646 32.264 115.486 32.12L115.942 31.368C116 31.2773 116.07 31.208 116.15 31.16C116.23 31.112 116.331 31.088 116.454 31.088C116.576 31.088 116.691 31.1227 116.798 31.192C116.91 31.2613 117.038 31.336 117.182 31.416C117.326 31.496 117.494 31.5707 117.686 31.64C117.883 31.7093 118.131 31.744 118.43 31.744C118.664 31.744 118.864 31.7173 119.03 31.664C119.2 31.6053 119.339 31.5307 119.446 31.44C119.558 31.3493 119.638 31.2453 119.686 31.128C119.739 31.0053 119.766 30.88 119.766 30.752C119.766 30.56 119.707 30.4027 119.59 30.28C119.478 30.1573 119.326 30.0507 119.134 29.96C118.947 29.8693 118.731 29.7893 118.486 29.72C118.246 29.6453 117.998 29.5653 117.742 29.48C117.491 29.3947 117.243 29.296 116.998 29.184C116.758 29.0667 116.542 28.92 116.35 28.744C116.163 28.568 116.011 28.352 115.894 28.096C115.782 27.84 115.726 27.5307 115.726 27.168C115.726 26.832 115.792 26.512 115.926 26.208C116.059 25.904 116.254 25.64 116.51 25.416C116.771 25.1867 117.094 25.0053 117.478 24.872C117.867 24.7333 118.315 24.664 118.822 24.664C119.387 24.664 119.902 24.7573 120.366 24.944C120.83 25.1307 121.216 25.376 121.526 25.68L121.078 26.392ZM127.437 29.496C126.866 29.5227 126.386 29.5733 125.997 29.648C125.608 29.7173 125.296 29.808 125.061 29.92C124.826 30.032 124.658 30.1627 124.557 30.312C124.456 30.4613 124.405 30.624 124.405 30.8C124.405 31.1467 124.506 31.3947 124.709 31.544C124.917 31.6933 125.186 31.768 125.517 31.768C125.922 31.768 126.272 31.696 126.565 31.552C126.864 31.4027 127.154 31.1787 127.437 30.88V29.496ZM122.909 25.936C123.853 25.072 124.989 24.64 126.317 24.64C126.797 24.64 127.226 24.72 127.605 24.88C127.984 25.0347 128.304 25.2533 128.565 25.536C128.826 25.8133 129.024 26.1467 129.157 26.536C129.296 26.9253 129.365 27.352 129.365 27.816V33H128.469C128.282 33 128.138 32.9733 128.037 32.92C127.936 32.8613 127.856 32.7467 127.797 32.576L127.621 31.984C127.413 32.1707 127.21 32.336 127.013 32.48C126.816 32.6187 126.61 32.736 126.397 32.832C126.184 32.928 125.954 33 125.709 33.048C125.469 33.1013 125.202 33.128 124.909 33.128C124.562 33.128 124.242 33.0827 123.949 32.992C123.656 32.896 123.402 32.7547 123.189 32.568C122.976 32.3813 122.81 32.1493 122.693 31.872C122.576 31.5947 122.517 31.272 122.517 30.904C122.517 30.696 122.552 30.4907 122.621 30.288C122.69 30.08 122.802 29.8827 122.957 29.696C123.117 29.5093 123.322 29.3333 123.573 29.168C123.824 29.0027 124.13 28.8587 124.493 28.736C124.861 28.6133 125.288 28.5147 125.773 28.44C126.258 28.36 126.813 28.312 127.437 28.296V27.816C127.437 27.2667 127.32 26.8613 127.085 26.6C126.85 26.3333 126.512 26.2 126.069 26.2C125.749 26.2 125.482 26.2373 125.269 26.312C125.061 26.3867 124.877 26.472 124.717 26.568C124.557 26.6587 124.41 26.7413 124.277 26.816C124.149 26.8907 124.005 26.928 123.845 26.928C123.706 26.928 123.589 26.8933 123.493 26.824C123.397 26.7493 123.32 26.664 123.261 26.568L122.909 25.936ZM126.989 22.128C127.149 22.128 127.274 22.0853 127.365 22C127.456 21.9093 127.501 21.7493 127.501 21.52H128.701C128.701 21.8187 128.658 22.0907 128.573 22.336C128.493 22.576 128.381 22.784 128.237 22.96C128.093 23.1307 127.92 23.264 127.717 23.36C127.52 23.4507 127.301 23.496 127.061 23.496C126.869 23.496 126.69 23.4613 126.525 23.392C126.36 23.3227 126.205 23.248 126.061 23.168C125.917 23.088 125.781 23.0133 125.653 22.944C125.53 22.8747 125.416 22.84 125.309 22.84C125.154 22.84 125.032 22.888 124.941 22.984C124.856 23.0747 124.813 23.232 124.813 23.456H123.589C123.589 23.1573 123.629 22.888 123.709 22.648C123.794 22.4027 123.912 22.1947 124.061 22.024C124.21 21.848 124.384 21.712 124.581 21.616C124.784 21.52 125.002 21.472 125.237 21.472C125.429 21.472 125.608 21.5067 125.773 21.576C125.944 21.6453 126.101 21.72 126.245 21.8C126.389 21.88 126.522 21.9547 126.645 22.024C126.768 22.0933 126.882 22.128 126.989 22.128ZM134.858 24.664C135.466 24.664 136.018 24.7627 136.514 24.96C137.015 25.1573 137.442 25.4373 137.794 25.8C138.151 26.1627 138.426 26.6053 138.618 27.128C138.81 27.6507 138.906 28.2347 138.906 28.88C138.906 29.5307 138.81 30.1173 138.618 30.64C138.426 31.1627 138.151 31.608 137.794 31.976C137.442 32.344 137.015 32.6267 136.514 32.824C136.018 33.0213 135.466 33.12 134.858 33.12C134.245 33.12 133.687 33.0213 133.186 32.824C132.685 32.6267 132.255 32.344 131.898 31.976C131.546 31.608 131.271 31.1627 131.074 30.64C130.882 30.1173 130.786 29.5307 130.786 28.88C130.786 28.2347 130.882 27.6507 131.074 27.128C131.271 26.6053 131.546 26.1627 131.898 25.8C132.255 25.4373 132.685 25.1573 133.186 24.96C133.687 24.7627 134.245 24.664 134.858 24.664ZM134.858 31.6C135.541 31.6 136.045 31.3707 136.37 30.912C136.701 30.4533 136.866 29.7813 136.866 28.896C136.866 28.0107 136.701 27.336 136.37 26.872C136.045 26.408 135.541 26.176 134.858 26.176C134.165 26.176 133.65 26.4107 133.314 26.88C132.983 27.344 132.818 28.016 132.818 28.896C132.818 29.776 132.983 30.448 133.314 30.912C133.65 31.3707 134.165 31.6 134.858 31.6ZM149.456 26.888C149.232 26.616 148.987 26.424 148.72 26.312C148.459 26.2 148.176 26.144 147.872 26.144C147.573 26.144 147.304 26.2 147.064 26.312C146.824 26.424 146.619 26.5947 146.448 26.824C146.277 27.048 146.147 27.336 146.056 27.688C145.965 28.0347 145.92 28.4453 145.92 28.92C145.92 29.4 145.957 29.808 146.032 30.144C146.112 30.4747 146.224 30.7467 146.368 30.96C146.512 31.168 146.688 31.32 146.896 31.416C147.104 31.5067 147.336 31.552 147.592 31.552C148.003 31.552 148.352 31.4667 148.64 31.296C148.928 31.1253 149.2 30.8827 149.456 30.568V26.888ZM151.432 21.112V33H150.224C149.963 33 149.797 32.88 149.728 32.64L149.56 31.848C149.229 32.2267 148.848 32.5333 148.416 32.768C147.989 33.0027 147.491 33.12 146.92 33.12C146.472 33.12 146.061 33.0267 145.688 32.84C145.315 32.6533 144.992 32.384 144.72 32.032C144.453 31.6747 144.245 31.2347 144.096 30.712C143.952 30.1893 143.88 29.592 143.88 28.92C143.88 28.312 143.963 27.7467 144.128 27.224C144.293 26.7013 144.531 26.248 144.84 25.864C145.149 25.48 145.52 25.1813 145.952 24.968C146.384 24.7493 146.869 24.64 147.408 24.64C147.867 24.64 148.259 24.712 148.584 24.856C148.909 25 149.2 25.1947 149.456 25.44V21.112H151.432ZM158.67 27.952C158.67 27.696 158.633 27.456 158.558 27.232C158.489 27.0027 158.382 26.8027 158.238 26.632C158.094 26.4613 157.91 26.328 157.686 26.232C157.468 26.1307 157.212 26.08 156.918 26.08C156.348 26.08 155.897 26.2427 155.566 26.568C155.241 26.8933 155.033 27.3547 154.942 27.952H158.67ZM154.902 29.144C154.934 29.5653 155.009 29.9307 155.126 30.24C155.244 30.544 155.398 30.7973 155.59 31C155.782 31.1973 156.009 31.3467 156.27 31.448C156.537 31.544 156.83 31.592 157.15 31.592C157.47 31.592 157.745 31.5547 157.974 31.48C158.209 31.4053 158.412 31.3227 158.582 31.232C158.758 31.1413 158.91 31.0587 159.038 30.984C159.172 30.9093 159.3 30.872 159.422 30.872C159.588 30.872 159.71 30.9333 159.79 31.056L160.358 31.776C160.14 32.032 159.894 32.248 159.622 32.424C159.35 32.5947 159.065 32.7333 158.766 32.84C158.473 32.9413 158.172 33.0133 157.862 33.056C157.558 33.0987 157.262 33.12 156.974 33.12C156.404 33.12 155.873 33.0267 155.382 32.84C154.892 32.648 154.465 32.368 154.102 32C153.74 31.6267 153.454 31.168 153.246 30.624C153.038 30.0747 152.934 29.44 152.934 28.72C152.934 28.16 153.025 27.6347 153.206 27.144C153.388 26.648 153.646 26.2187 153.982 25.856C154.324 25.488 154.737 25.1973 155.222 24.984C155.713 24.7707 156.265 24.664 156.878 24.664C157.396 24.664 157.873 24.7467 158.31 24.912C158.748 25.0773 159.124 25.32 159.438 25.64C159.753 25.9547 159.998 26.344 160.174 26.808C160.356 27.2667 160.446 27.792 160.446 28.384C160.446 28.6827 160.414 28.8853 160.35 28.992C160.286 29.0933 160.164 29.144 159.982 29.144H154.902ZM169.892 27.248C170.286 27.248 170.63 27.2 170.924 27.104C171.217 27.0027 171.46 26.8613 171.652 26.68C171.849 26.4933 171.996 26.2693 172.092 26.008C172.188 25.7413 172.236 25.4453 172.236 25.12C172.236 24.8107 172.188 24.5307 172.092 24.28C171.996 24.0293 171.852 23.816 171.66 23.64C171.468 23.464 171.225 23.3307 170.932 23.24C170.638 23.144 170.292 23.096 169.892 23.096H168.284V27.248H169.892ZM169.892 21.432C170.665 21.432 171.334 21.5227 171.9 21.704C172.465 21.8853 172.932 22.1387 173.3 22.464C173.668 22.7893 173.94 23.1787 174.116 23.632C174.297 24.0853 174.388 24.5813 174.388 25.12C174.388 25.68 174.294 26.1947 174.108 26.664C173.921 27.128 173.641 27.528 173.268 27.864C172.894 28.2 172.425 28.4613 171.86 28.648C171.3 28.8347 170.644 28.928 169.892 28.928H168.284V33H166.132V21.432H169.892ZM177.695 21.112V33H175.719V21.112H177.695ZM184 29.496C183.429 29.5227 182.949 29.5733 182.56 29.648C182.17 29.7173 181.858 29.808 181.624 29.92C181.389 30.032 181.221 30.1627 181.12 30.312C181.018 30.4613 180.968 30.624 180.968 30.8C180.968 31.1467 181.069 31.3947 181.272 31.544C181.48 31.6933 181.749 31.768 182.08 31.768C182.485 31.768 182.834 31.696 183.128 31.552C183.426 31.4027 183.717 31.1787 184 30.88V29.496ZM179.472 25.936C180.416 25.072 181.552 24.64 182.88 24.64C183.36 24.64 183.789 24.72 184.168 24.88C184.546 25.0347 184.866 25.2533 185.128 25.536C185.389 25.8133 185.586 26.1467 185.72 26.536C185.858 26.9253 185.928 27.352 185.928 27.816V33H185.032C184.845 33 184.701 32.9733 184.6 32.92C184.498 32.8613 184.418 32.7467 184.36 32.576L184.184 31.984C183.976 32.1707 183.773 32.336 183.576 32.48C183.378 32.6187 183.173 32.736 182.96 32.832C182.746 32.928 182.517 33 182.272 33.048C182.032 33.1013 181.765 33.128 181.472 33.128C181.125 33.128 180.805 33.0827 180.512 32.992C180.218 32.896 179.965 32.7547 179.752 32.568C179.538 32.3813 179.373 32.1493 179.256 31.872C179.138 31.5947 179.08 31.272 179.08 30.904C179.08 30.696 179.114 30.4907 179.184 30.288C179.253 30.08 179.365 29.8827 179.52 29.696C179.68 29.5093 179.885 29.3333 180.136 29.168C180.386 29.0027 180.693 28.8587 181.056 28.736C181.424 28.6133 181.85 28.5147 182.336 28.44C182.821 28.36 183.376 28.312 184 28.296V27.816C184 27.2667 183.882 26.8613 183.648 26.6C183.413 26.3333 183.074 26.2 182.632 26.2C182.312 26.2 182.045 26.2373 181.832 26.312C181.624 26.3867 181.44 26.472 181.28 26.568C181.12 26.6587 180.973 26.7413 180.84 26.816C180.712 26.8907 180.568 26.928 180.408 26.928C180.269 26.928 180.152 26.8933 180.056 26.824C179.96 26.7493 179.882 26.664 179.824 26.568L179.472 25.936ZM189.637 25.8C189.802 25.6347 189.975 25.4827 190.157 25.344C190.343 25.2 190.538 25.08 190.741 24.984C190.949 24.8827 191.17 24.8053 191.405 24.752C191.639 24.6933 191.895 24.664 192.173 24.664C192.621 24.664 193.018 24.7413 193.365 24.896C193.711 25.0453 193.999 25.2587 194.229 25.536C194.463 25.808 194.639 26.136 194.757 26.52C194.879 26.8987 194.941 27.3173 194.941 27.776V33H192.965V27.776C192.965 27.2747 192.85 26.888 192.621 26.616C192.391 26.3387 192.042 26.2 191.573 26.2C191.231 26.2 190.911 26.2773 190.613 26.432C190.314 26.5867 190.031 26.7973 189.765 27.064V33H187.789V24.792H188.997C189.253 24.792 189.421 24.912 189.501 25.152L189.637 25.8ZM202.108 27.952C202.108 27.696 202.07 27.456 201.996 27.232C201.926 27.0027 201.82 26.8027 201.676 26.632C201.532 26.4613 201.348 26.328 201.124 26.232C200.905 26.1307 200.649 26.08 200.356 26.08C199.785 26.08 199.334 26.2427 199.004 26.568C198.678 26.8933 198.47 27.3547 198.38 27.952H202.108ZM198.34 29.144C198.372 29.5653 198.446 29.9307 198.564 30.24C198.681 30.544 198.836 30.7973 199.028 31C199.22 31.1973 199.446 31.3467 199.708 31.448C199.974 31.544 200.268 31.592 200.588 31.592C200.908 31.592 201.182 31.5547 201.412 31.48C201.646 31.4053 201.849 31.3227 202.02 31.232C202.196 31.1413 202.348 31.0587 202.476 30.984C202.609 30.9093 202.737 30.872 202.86 30.872C203.025 30.872 203.148 30.9333 203.228 31.056L203.796 31.776C203.577 32.032 203.332 32.248 203.06 32.424C202.788 32.5947 202.502 32.7333 202.204 32.84C201.91 32.9413 201.609 33.0133 201.3 33.056C200.996 33.0987 200.7 33.12 200.412 33.12C199.841 33.12 199.31 33.0267 198.82 32.84C198.329 32.648 197.902 32.368 197.54 32C197.177 31.6267 196.892 31.168 196.684 30.624C196.476 30.0747 196.372 29.44 196.372 28.72C196.372 28.16 196.462 27.6347 196.644 27.144C196.825 26.648 197.084 26.2187 197.42 25.856C197.761 25.488 198.174 25.1973 198.66 24.984C199.15 24.7707 199.702 24.664 200.316 24.664C200.833 24.664 201.31 24.7467 201.748 24.912C202.185 25.0773 202.561 25.32 202.876 25.64C203.19 25.9547 203.436 26.344 203.612 26.808C203.793 27.2667 203.884 27.792 203.884 28.384C203.884 28.6827 203.852 28.8853 203.788 28.992C203.724 29.0933 203.601 29.144 203.42 29.144H198.34ZM207.415 24.792V33.28C207.415 33.6373 207.367 33.9733 207.271 34.288C207.18 34.6027 207.031 34.8773 206.823 35.112C206.62 35.352 206.351 35.5387 206.015 35.672C205.684 35.8107 205.279 35.88 204.799 35.88C204.612 35.88 204.439 35.8667 204.279 35.84C204.119 35.8187 203.953 35.7813 203.783 35.728L203.855 34.664C203.871 34.5573 203.913 34.488 203.983 34.456C204.052 34.4293 204.185 34.416 204.383 34.416C204.58 34.416 204.745 34.3947 204.879 34.352C205.017 34.3147 205.127 34.2507 205.207 34.16C205.287 34.0747 205.343 33.96 205.375 33.816C205.412 33.672 205.431 33.4933 205.431 33.28V24.792H207.415ZM207.687 22.4C207.687 22.5707 207.652 22.7307 207.583 22.88C207.513 23.0293 207.42 23.16 207.303 23.272C207.191 23.384 207.055 23.4747 206.895 23.544C206.74 23.608 206.575 23.64 206.399 23.64C206.228 23.64 206.068 23.608 205.919 23.544C205.769 23.4747 205.639 23.384 205.527 23.272C205.415 23.16 205.324 23.0293 205.255 22.88C205.191 22.7307 205.159 22.5707 205.159 22.4C205.159 22.224 205.191 22.0587 205.255 21.904C205.324 21.7493 205.415 21.616 205.527 21.504C205.639 21.392 205.769 21.304 205.919 21.24C206.068 21.1707 206.228 21.136 206.399 21.136C206.575 21.136 206.74 21.1707 206.895 21.24C207.055 21.304 207.191 21.392 207.303 21.504C207.42 21.616 207.513 21.7493 207.583 21.904C207.652 22.0587 207.687 22.224 207.687 22.4ZM213.765 29.496C213.194 29.5227 212.714 29.5733 212.325 29.648C211.936 29.7173 211.624 29.808 211.389 29.92C211.154 30.032 210.986 30.1627 210.885 30.312C210.784 30.4613 210.733 30.624 210.733 30.8C210.733 31.1467 210.834 31.3947 211.037 31.544C211.245 31.6933 211.514 31.768 211.845 31.768C212.25 31.768 212.6 31.696 212.893 31.552C213.192 31.4027 213.482 31.1787 213.765 30.88V29.496ZM209.237 25.936C210.181 25.072 211.317 24.64 212.645 24.64C213.125 24.64 213.554 24.72 213.933 24.88C214.312 25.0347 214.632 25.2533 214.893 25.536C215.154 25.8133 215.352 26.1467 215.485 26.536C215.624 26.9253 215.693 27.352 215.693 27.816V33H214.797C214.61 33 214.466 32.9733 214.365 32.92C214.264 32.8613 214.184 32.7467 214.125 32.576L213.949 31.984C213.741 32.1707 213.538 32.336 213.341 32.48C213.144 32.6187 212.938 32.736 212.725 32.832C212.512 32.928 212.282 33 212.037 33.048C211.797 33.1013 211.53 33.128 211.237 33.128C210.89 33.128 210.57 33.0827 210.277 32.992C209.984 32.896 209.73 32.7547 209.517 32.568C209.304 32.3813 209.138 32.1493 209.021 31.872C208.904 31.5947 208.845 31.272 208.845 30.904C208.845 30.696 208.88 30.4907 208.949 30.288C209.018 30.08 209.13 29.8827 209.285 29.696C209.445 29.5093 209.65 29.3333 209.901 29.168C210.152 29.0027 210.458 28.8587 210.821 28.736C211.189 28.6133 211.616 28.5147 212.101 28.44C212.586 28.36 213.141 28.312 213.765 28.296V27.816C213.765 27.2667 213.648 26.8613 213.413 26.6C213.178 26.3333 212.84 26.2 212.397 26.2C212.077 26.2 211.81 26.2373 211.597 26.312C211.389 26.3867 211.205 26.472 211.045 26.568C210.885 26.6587 210.738 26.7413 210.605 26.816C210.477 26.8907 210.333 26.928 210.173 26.928C210.034 26.928 209.917 26.8933 209.821 26.824C209.725 26.7493 209.648 26.664 209.589 26.568L209.237 25.936ZM217.554 33V24.792H218.762C219.018 24.792 219.186 24.912 219.266 25.152L219.394 25.76C219.538 25.6 219.687 25.4533 219.842 25.32C220.002 25.1867 220.17 25.072 220.346 24.976C220.527 24.88 220.719 24.8053 220.922 24.752C221.13 24.6933 221.357 24.664 221.602 24.664C222.119 24.664 222.543 24.8053 222.874 25.088C223.21 25.3653 223.461 25.736 223.626 26.2C223.754 25.928 223.914 25.696 224.106 25.504C224.298 25.3067 224.509 25.1467 224.738 25.024C224.967 24.9013 225.21 24.8107 225.466 24.752C225.727 24.6933 225.989 24.664 226.25 24.664C226.703 24.664 227.106 24.7333 227.458 24.872C227.81 25.0107 228.106 25.2133 228.346 25.48C228.586 25.7467 228.767 26.072 228.89 26.456C229.018 26.84 229.082 27.28 229.082 27.776V33H227.106V27.776C227.106 27.2533 226.991 26.8613 226.762 26.6C226.533 26.3333 226.197 26.2 225.754 26.2C225.551 26.2 225.362 26.2347 225.186 26.304C225.015 26.3733 224.863 26.4747 224.73 26.608C224.602 26.736 224.501 26.8987 224.426 27.096C224.351 27.2933 224.314 27.52 224.314 27.776V33H222.33V27.776C222.33 27.2267 222.218 26.8267 221.994 26.576C221.775 26.3253 221.453 26.2 221.026 26.2C220.738 26.2 220.469 26.272 220.218 26.416C219.973 26.5547 219.743 26.7467 219.53 26.992V33H217.554ZM236.248 27.952C236.248 27.696 236.211 27.456 236.136 27.232C236.067 27.0027 235.96 26.8027 235.816 26.632C235.672 26.4613 235.488 26.328 235.264 26.232C235.046 26.1307 234.79 26.08 234.496 26.08C233.926 26.08 233.475 26.2427 233.144 26.568C232.819 26.8933 232.611 27.3547 232.52 27.952H236.248ZM232.48 29.144C232.512 29.5653 232.587 29.9307 232.704 30.24C232.822 30.544 232.976 30.7973 233.168 31C233.36 31.1973 233.587 31.3467 233.848 31.448C234.115 31.544 234.408 31.592 234.728 31.592C235.048 31.592 235.323 31.5547 235.552 31.48C235.787 31.4053 235.99 31.3227 236.16 31.232C236.336 31.1413 236.488 31.0587 236.616 30.984C236.75 30.9093 236.878 30.872 237 30.872C237.166 30.872 237.288 30.9333 237.368 31.056L237.936 31.776C237.718 32.032 237.472 32.248 237.2 32.424C236.928 32.5947 236.643 32.7333 236.344 32.84C236.051 32.9413 235.75 33.0133 235.44 33.056C235.136 33.0987 234.84 33.12 234.552 33.12C233.982 33.12 233.451 33.0267 232.96 32.84C232.47 32.648 232.043 32.368 231.68 32C231.318 31.6267 231.032 31.168 230.824 30.624C230.616 30.0747 230.512 29.44 230.512 28.72C230.512 28.16 230.603 27.6347 230.784 27.144C230.966 26.648 231.224 26.2187 231.56 25.856C231.902 25.488 232.315 25.1973 232.8 24.984C233.291 24.7707 233.843 24.664 234.456 24.664C234.974 24.664 235.451 24.7467 235.888 24.912C236.326 25.0773 236.702 25.32 237.016 25.64C237.331 25.9547 237.576 26.344 237.752 26.808C237.934 27.2667 238.024 27.792 238.024 28.384C238.024 28.6827 237.992 28.8853 237.928 28.992C237.864 29.0933 237.742 29.144 237.56 29.144H232.48ZM241.355 25.8C241.521 25.6347 241.694 25.4827 241.875 25.344C242.062 25.2 242.257 25.08 242.459 24.984C242.667 24.8827 242.889 24.8053 243.123 24.752C243.358 24.6933 243.614 24.664 243.891 24.664C244.339 24.664 244.737 24.7413 245.083 24.896C245.43 25.0453 245.718 25.2587 245.947 25.536C246.182 25.808 246.358 26.136 246.475 26.52C246.598 26.8987 246.659 27.3173 246.659 27.776V33H244.683V27.776C244.683 27.2747 244.569 26.888 244.339 26.616C244.11 26.3387 243.761 26.2 243.291 26.2C242.95 26.2 242.63 26.2773 242.331 26.432C242.033 26.5867 241.75 26.7973 241.483 27.064V33H239.507V24.792H240.715C240.971 24.792 241.139 24.912 241.219 25.152L241.355 25.8ZM251.165 33.128C250.45 33.128 249.901 32.928 249.517 32.528C249.138 32.1227 248.949 31.5653 248.949 30.856V26.272H248.109C248.002 26.272 247.912 26.2373 247.837 26.168C247.762 26.0987 247.725 25.9947 247.725 25.856V25.072L249.045 24.856L249.461 22.616C249.488 22.5093 249.538 22.4267 249.613 22.368C249.688 22.3093 249.784 22.28 249.901 22.28H250.925V24.864H253.117V26.272H250.925V30.72C250.925 30.976 250.986 31.176 251.109 31.32C251.237 31.464 251.41 31.536 251.629 31.536C251.752 31.536 251.853 31.5227 251.933 31.496C252.018 31.464 252.09 31.432 252.149 31.4C252.213 31.368 252.269 31.3387 252.317 31.312C252.365 31.28 252.413 31.264 252.461 31.264C252.52 31.264 252.568 31.28 252.605 31.312C252.642 31.3387 252.682 31.3813 252.725 31.44L253.317 32.4C253.029 32.64 252.698 32.8213 252.325 32.944C251.952 33.0667 251.565 33.128 251.165 33.128ZM257.952 24.664C258.56 24.664 259.112 24.7627 259.608 24.96C260.109 25.1573 260.536 25.4373 260.888 25.8C261.245 26.1627 261.52 26.6053 261.712 27.128C261.904 27.6507 262 28.2347 262 28.88C262 29.5307 261.904 30.1173 261.712 30.64C261.52 31.1627 261.245 31.608 260.888 31.976C260.536 32.344 260.109 32.6267 259.608 32.824C259.112 33.0213 258.56 33.12 257.952 33.12C257.338 33.12 256.781 33.0213 256.28 32.824C255.778 32.6267 255.349 32.344 254.992 31.976C254.64 31.608 254.365 31.1627 254.168 30.64C253.976 30.1173 253.88 29.5307 253.88 28.88C253.88 28.2347 253.976 27.6507 254.168 27.128C254.365 26.6053 254.64 26.1627 254.992 25.8C255.349 25.4373 255.778 25.1573 256.28 24.96C256.781 24.7627 257.338 24.664 257.952 24.664ZM257.952 31.6C258.634 31.6 259.138 31.3707 259.464 30.912C259.794 30.4533 259.96 29.7813 259.96 28.896C259.96 28.0107 259.794 27.336 259.464 26.872C259.138 26.408 258.634 26.176 257.952 26.176C257.258 26.176 256.744 26.4107 256.408 26.88C256.077 27.344 255.912 28.016 255.912 28.896C255.912 29.776 256.077 30.448 256.408 30.912C256.744 31.3707 257.258 31.6 257.952 31.6ZM76.944 53.264C77.36 53.264 77.7307 53.1947 78.056 53.056C78.3867 52.9173 78.664 52.7227 78.888 52.472C79.112 52.2213 79.2827 51.9173 79.4 51.56C79.5227 51.2027 79.584 50.8027 79.584 50.36V43.432H81.736V50.36C81.736 51.048 81.624 51.6853 81.4 52.272C81.1813 52.8533 80.864 53.3573 80.448 53.784C80.0373 54.2053 79.536 54.536 78.944 54.776C78.352 55.0107 77.6853 55.128 76.944 55.128C76.1973 55.128 75.528 55.0107 74.936 54.776C74.344 54.536 73.84 54.2053 73.424 53.784C73.0133 53.3573 72.696 52.8533 72.472 52.272C72.2533 51.6853 72.144 51.048 72.144 50.36V43.432H74.296V50.352C74.296 50.7947 74.3547 51.1947 74.472 51.552C74.5947 51.9093 74.768 52.216 74.992 52.472C75.2213 52.7227 75.4987 52.9173 75.824 53.056C76.1547 53.1947 76.528 53.264 76.944 53.264ZM85.4494 48.216C85.7054 47.7253 86.0094 47.3413 86.3614 47.064C86.7134 46.7813 87.1294 46.64 87.6094 46.64C87.988 46.64 88.292 46.7227 88.5214 46.888L88.3934 48.368C88.3667 48.464 88.3267 48.5333 88.2734 48.576C88.2254 48.6133 88.1587 48.632 88.0734 48.632C87.9934 48.632 87.8734 48.6187 87.7134 48.592C87.5587 48.5653 87.4067 48.552 87.2574 48.552C87.0387 48.552 86.844 48.584 86.6734 48.648C86.5027 48.712 86.348 48.8053 86.2094 48.928C86.076 49.0453 85.956 49.1893 85.8494 49.36C85.748 49.5307 85.652 49.7253 85.5614 49.944V55H83.5854V46.792H84.7454C84.948 46.792 85.0894 46.8293 85.1694 46.904C85.2494 46.9733 85.3027 47.1013 85.3294 47.288L85.4494 48.216ZM91.5301 52.872C91.7541 53.144 91.9968 53.336 92.2581 53.448C92.5248 53.56 92.8048 53.616 93.0981 53.616C93.4021 53.616 93.6741 53.5627 93.9141 53.456C94.1595 53.344 94.3675 53.1733 94.5381 52.944C94.7088 52.7093 94.8395 52.4133 94.9301 52.056C95.0208 51.6933 95.0661 51.2613 95.0661 50.76C95.0661 49.8587 94.9168 49.208 94.6181 48.808C94.3195 48.4027 93.8901 48.2 93.3301 48.2C92.9515 48.2 92.6208 48.288 92.3381 48.464C92.0555 48.6347 91.7861 48.8773 91.5301 49.192V52.872ZM91.5301 47.8C91.8608 47.4533 92.2261 47.1787 92.6261 46.976C93.0315 46.768 93.4928 46.664 94.0101 46.664C94.4848 46.664 94.9115 46.7573 95.2901 46.944C95.6741 47.1307 95.9995 47.4 96.2661 47.752C96.5381 48.0987 96.7461 48.52 96.8901 49.016C97.0341 49.512 97.1061 50.0693 97.1061 50.688C97.1061 51.3547 97.0235 51.96 96.8581 52.504C96.6928 53.048 96.4555 53.5147 96.1461 53.904C95.8421 54.288 95.4741 54.5867 95.0421 54.8C94.6101 55.0133 94.1301 55.12 93.6021 55.12C93.3461 55.12 93.1141 55.0933 92.9061 55.04C92.6981 54.992 92.5061 54.9227 92.3301 54.832C92.1541 54.7413 91.9915 54.632 91.8421 54.504C91.6981 54.3707 91.5595 54.224 91.4261 54.064L91.3381 54.616C91.3061 54.7547 91.2501 54.8533 91.1701 54.912C91.0955 54.9707 90.9915 55 90.8581 55H89.5541V43.112H91.5301V47.8ZM102.968 51.496C102.398 51.5227 101.918 51.5733 101.528 51.648C101.139 51.7173 100.827 51.808 100.592 51.92C100.358 52.032 100.19 52.1627 100.088 52.312C99.9869 52.4613 99.9363 52.624 99.9363 52.8C99.9363 53.1467 100.038 53.3947 100.24 53.544C100.448 53.6933 100.718 53.768 101.048 53.768C101.454 53.768 101.803 53.696 102.096 53.552C102.395 53.4027 102.686 53.1787 102.968 52.88V51.496ZM98.4403 47.936C99.3843 47.072 100.52 46.64 101.848 46.64C102.328 46.64 102.758 46.72 103.136 46.88C103.515 47.0347 103.835 47.2533 104.096 47.536C104.358 47.8133 104.555 48.1467 104.688 48.536C104.827 48.9253 104.896 49.352 104.896 49.816V55H104C103.814 55 103.67 54.9733 103.568 54.92C103.467 54.8613 103.387 54.7467 103.328 54.576L103.152 53.984C102.944 54.1707 102.742 54.336 102.544 54.48C102.347 54.6187 102.142 54.736 101.928 54.832C101.715 54.928 101.486 55 101.24 55.048C101 55.1013 100.734 55.128 100.44 55.128C100.094 55.128 99.7736 55.0827 99.4803 54.992C99.1869 54.896 98.9336 54.7547 98.7203 54.568C98.5069 54.3813 98.3416 54.1493 98.2243 53.872C98.1069 53.5947 98.0483 53.272 98.0483 52.904C98.0483 52.696 98.0829 52.4907 98.1523 52.288C98.2216 52.08 98.3336 51.8827 98.4883 51.696C98.6483 51.5093 98.8536 51.3333 99.1043 51.168C99.3549 51.0027 99.6616 50.8587 100.024 50.736C100.392 50.6133 100.819 50.5147 101.304 50.44C101.79 50.36 102.344 50.312 102.968 50.296V49.816C102.968 49.2667 102.851 48.8613 102.616 48.6C102.382 48.3333 102.043 48.2 101.6 48.2C101.28 48.2 101.014 48.2373 100.8 48.312C100.592 48.3867 100.408 48.472 100.248 48.568C100.088 48.6587 99.9416 48.7413 99.8083 48.816C99.6803 48.8907 99.5363 48.928 99.3763 48.928C99.2376 48.928 99.1203 48.8933 99.0243 48.824C98.9283 48.7493 98.8509 48.664 98.7923 48.568L98.4403 47.936ZM108.605 47.8C108.771 47.6347 108.944 47.4827 109.125 47.344C109.312 47.2 109.507 47.08 109.709 46.984C109.917 46.8827 110.139 46.8053 110.373 46.752C110.608 46.6933 110.864 46.664 111.141 46.664C111.589 46.664 111.987 46.7413 112.333 46.896C112.68 47.0453 112.968 47.2587 113.197 47.536C113.432 47.808 113.608 48.136 113.725 48.52C113.848 48.8987 113.909 49.3173 113.909 49.776V55H111.933V49.776C111.933 49.2747 111.819 48.888 111.589 48.616C111.36 48.3387 111.011 48.2 110.541 48.2C110.2 48.2 109.88 48.2773 109.581 48.432C109.283 48.5867 109 48.7973 108.733 49.064V55H106.757V46.792H107.965C108.221 46.792 108.389 46.912 108.469 47.152L108.605 47.8ZM119.421 46.664C120.029 46.664 120.581 46.7627 121.077 46.96C121.578 47.1573 122.005 47.4373 122.357 47.8C122.714 48.1627 122.988 48.6053 123.181 49.128C123.373 49.6507 123.469 50.2347 123.469 50.88C123.469 51.5307 123.373 52.1173 123.181 52.64C122.988 53.1627 122.714 53.608 122.357 53.976C122.005 54.344 121.578 54.6267 121.077 54.824C120.581 55.0213 120.029 55.12 119.421 55.12C118.807 55.12 118.25 55.0213 117.749 54.824C117.247 54.6267 116.818 54.344 116.461 53.976C116.109 53.608 115.834 53.1627 115.637 52.64C115.445 52.1173 115.349 51.5307 115.349 50.88C115.349 50.2347 115.445 49.6507 115.637 49.128C115.834 48.6053 116.109 48.1627 116.461 47.8C116.818 47.4373 117.247 47.1573 117.749 46.96C118.25 46.7627 118.807 46.664 119.421 46.664ZM119.421 53.6C120.103 53.6 120.607 53.3707 120.933 52.912C121.263 52.4533 121.429 51.7813 121.429 50.896C121.429 50.0107 121.263 49.336 120.933 48.872C120.607 48.408 120.103 48.176 119.421 48.176C118.727 48.176 118.213 48.4107 117.877 48.88C117.546 49.344 117.381 50.016 117.381 50.896C117.381 51.776 117.546 52.448 117.877 52.912C118.213 53.3707 118.727 53.6 119.421 53.6ZM134.155 49.952C134.155 49.696 134.117 49.456 134.043 49.232C133.973 49.0027 133.867 48.8027 133.723 48.632C133.579 48.4613 133.395 48.328 133.171 48.232C132.952 48.1307 132.696 48.08 132.403 48.08C131.832 48.08 131.381 48.2427 131.051 48.568C130.725 48.8933 130.517 49.3547 130.427 49.952H134.155ZM130.387 51.144C130.419 51.5653 130.493 51.9307 130.611 52.24C130.728 52.544 130.883 52.7973 131.075 53C131.267 53.1973 131.493 53.3467 131.755 53.448C132.021 53.544 132.315 53.592 132.635 53.592C132.955 53.592 133.229 53.5547 133.459 53.48C133.693 53.4053 133.896 53.3227 134.067 53.232C134.243 53.1413 134.395 53.0587 134.523 52.984C134.656 52.9093 134.784 52.872 134.907 52.872C135.072 52.872 135.195 52.9333 135.275 53.056L135.843 53.776C135.624 54.032 135.379 54.248 135.107 54.424C134.835 54.5947 134.549 54.7333 134.251 54.84C133.957 54.9413 133.656 55.0133 133.347 55.056C133.043 55.0987 132.747 55.12 132.459 55.12C131.888 55.12 131.357 55.0267 130.867 54.84C130.376 54.648 129.949 54.368 129.587 54C129.224 53.6267 128.939 53.168 128.731 52.624C128.523 52.0747 128.419 51.44 128.419 50.72C128.419 50.16 128.509 49.6347 128.691 49.144C128.872 48.648 129.131 48.2187 129.467 47.856C129.808 47.488 130.221 47.1973 130.707 46.984C131.197 46.7707 131.749 46.664 132.363 46.664C132.88 46.664 133.357 46.7467 133.795 46.912C134.232 47.0773 134.608 47.32 134.923 47.64C135.237 47.9547 135.483 48.344 135.659 48.808C135.84 49.2667 135.931 49.792 135.931 50.384C135.931 50.6827 135.899 50.8853 135.835 50.992C135.771 51.0933 135.648 51.144 135.467 51.144H130.387ZM154.16 43.432V55H152.264V47.528C152.264 47.2293 152.28 46.9067 152.312 46.56L148.816 53.128C148.651 53.4427 148.397 53.6 148.056 53.6H147.752C147.411 53.6 147.157 53.4427 146.992 53.128L143.456 46.536C143.472 46.712 143.485 46.8853 143.496 47.056C143.507 47.2267 143.512 47.384 143.512 47.528V55H141.616V43.432H143.24C143.336 43.432 143.419 43.4347 143.488 43.44C143.557 43.4453 143.619 43.4587 143.672 43.48C143.731 43.5013 143.781 43.536 143.824 43.584C143.872 43.632 143.917 43.696 143.96 43.776L147.424 50.2C147.515 50.3707 147.597 50.5467 147.672 50.728C147.752 50.9093 147.829 51.096 147.904 51.288C147.979 51.0907 148.056 50.9013 148.136 50.72C148.216 50.5333 148.301 50.3547 148.392 50.184L151.808 43.776C151.851 43.696 151.896 43.632 151.944 43.584C151.992 43.536 152.043 43.5013 152.096 43.48C152.155 43.4587 152.219 43.4453 152.288 43.44C152.357 43.4347 152.44 43.432 152.536 43.432H154.16ZM161.467 49.952C161.467 49.696 161.43 49.456 161.355 49.232C161.286 49.0027 161.179 48.8027 161.035 48.632C160.891 48.4613 160.707 48.328 160.483 48.232C160.264 48.1307 160.008 48.08 159.715 48.08C159.144 48.08 158.694 48.2427 158.363 48.568C158.038 48.8933 157.83 49.3547 157.739 49.952H161.467ZM157.699 51.144C157.731 51.5653 157.806 51.9307 157.923 52.24C158.04 52.544 158.195 52.7973 158.387 53C158.579 53.1973 158.806 53.3467 159.067 53.448C159.334 53.544 159.627 53.592 159.947 53.592C160.267 53.592 160.542 53.5547 160.771 53.48C161.006 53.4053 161.208 53.3227 161.379 53.232C161.555 53.1413 161.707 53.0587 161.835 52.984C161.968 52.9093 162.096 52.872 162.219 52.872C162.384 52.872 162.507 52.9333 162.587 53.056L163.155 53.776C162.936 54.032 162.691 54.248 162.419 54.424C162.147 54.5947 161.862 54.7333 161.563 54.84C161.27 54.9413 160.968 55.0133 160.659 55.056C160.355 55.0987 160.059 55.12 159.771 55.12C159.2 55.12 158.67 55.0267 158.179 54.84C157.688 54.648 157.262 54.368 156.899 54C156.536 53.6267 156.251 53.168 156.043 52.624C155.835 52.0747 155.731 51.44 155.731 50.72C155.731 50.16 155.822 49.6347 156.003 49.144C156.184 48.648 156.443 48.2187 156.779 47.856C157.12 47.488 157.534 47.1973 158.019 46.984C158.51 46.7707 159.062 46.664 159.675 46.664C160.192 46.664 160.67 46.7467 161.107 46.912C161.544 47.0773 161.92 47.32 162.235 47.64C162.55 47.9547 162.795 48.344 162.971 48.808C163.152 49.2667 163.243 49.792 163.243 50.384C163.243 50.6827 163.211 50.8853 163.147 50.992C163.083 51.0933 162.96 51.144 162.779 51.144H157.699ZM166.774 46.792V55H164.79V46.792H166.774ZM167.046 44.4C167.046 44.5707 167.011 44.7307 166.942 44.88C166.873 45.0293 166.779 45.16 166.662 45.272C166.55 45.384 166.417 45.4747 166.262 45.544C166.107 45.608 165.942 45.64 165.766 45.64C165.595 45.64 165.433 45.608 165.278 45.544C165.129 45.4747 164.998 45.384 164.886 45.272C164.774 45.16 164.683 45.0293 164.614 44.88C164.55 44.7307 164.518 44.5707 164.518 44.4C164.518 44.224 164.55 44.0587 164.614 43.904C164.683 43.7493 164.774 43.616 164.886 43.504C164.998 43.392 165.129 43.304 165.278 43.24C165.433 43.1707 165.595 43.136 165.766 43.136C165.942 43.136 166.107 43.1707 166.262 43.24C166.417 43.304 166.55 43.392 166.662 43.504C166.779 43.616 166.873 43.7493 166.942 43.904C167.011 44.0587 167.046 44.224 167.046 44.4ZM172.421 46.664C173.029 46.664 173.581 46.7627 174.077 46.96C174.578 47.1573 175.005 47.4373 175.357 47.8C175.714 48.1627 175.988 48.6053 176.181 49.128C176.373 49.6507 176.469 50.2347 176.469 50.88C176.469 51.5307 176.373 52.1173 176.181 52.64C175.988 53.1627 175.714 53.608 175.357 53.976C175.005 54.344 174.578 54.6267 174.077 54.824C173.581 55.0213 173.029 55.12 172.421 55.12C171.807 55.12 171.25 55.0213 170.749 54.824C170.247 54.6267 169.818 54.344 169.461 53.976C169.109 53.608 168.834 53.1627 168.637 52.64C168.445 52.1173 168.349 51.5307 168.349 50.88C168.349 50.2347 168.445 49.6507 168.637 49.128C168.834 48.6053 169.109 48.1627 169.461 47.8C169.818 47.4373 170.247 47.1573 170.749 46.96C171.25 46.7627 171.807 46.664 172.421 46.664ZM172.421 53.6C173.103 53.6 173.607 53.3707 173.933 52.912C174.263 52.4533 174.429 51.7813 174.429 50.896C174.429 50.0107 174.263 49.336 173.933 48.872C173.607 48.408 173.103 48.176 172.421 48.176C171.727 48.176 171.213 48.4107 170.877 48.88C170.546 49.344 170.381 50.016 170.381 50.896C170.381 51.776 170.546 52.448 170.877 52.912C171.213 53.3707 171.727 53.6 172.421 53.6ZM187.759 50.632L186.351 46.784C186.282 46.6133 186.21 46.4107 186.135 46.176C186.061 45.9413 185.986 45.688 185.911 45.416C185.842 45.688 185.77 45.944 185.695 46.184C185.621 46.4187 185.549 46.624 185.479 46.8L184.079 50.632H187.759ZM191.559 55H189.895C189.709 55 189.557 54.9547 189.439 54.864C189.322 54.768 189.234 54.6507 189.175 54.512L188.311 52.152H183.519L182.655 54.512C182.613 54.6347 182.53 54.7467 182.407 54.848C182.285 54.9493 182.133 55 181.951 55H180.271L184.823 43.432H187.015L191.559 55ZM192.429 55V46.792H193.637C193.893 46.792 194.061 46.912 194.141 47.152L194.269 47.76C194.413 47.6 194.562 47.4533 194.717 47.32C194.877 47.1867 195.045 47.072 195.221 46.976C195.402 46.88 195.594 46.8053 195.797 46.752C196.005 46.6933 196.232 46.664 196.477 46.664C196.994 46.664 197.418 46.8053 197.749 47.088C198.085 47.3653 198.336 47.736 198.501 48.2C198.629 47.928 198.789 47.696 198.981 47.504C199.173 47.3067 199.384 47.1467 199.613 47.024C199.842 46.9013 200.085 46.8107 200.341 46.752C200.602 46.6933 200.864 46.664 201.125 46.664C201.578 46.664 201.981 46.7333 202.333 46.872C202.685 47.0107 202.981 47.2133 203.221 47.48C203.461 47.7467 203.642 48.072 203.765 48.456C203.893 48.84 203.957 49.28 203.957 49.776V55H201.981V49.776C201.981 49.2533 201.866 48.8613 201.637 48.6C201.408 48.3333 201.072 48.2 200.629 48.2C200.426 48.2 200.237 48.2347 200.061 48.304C199.89 48.3733 199.738 48.4747 199.605 48.608C199.477 48.736 199.376 48.8987 199.301 49.096C199.226 49.2933 199.189 49.52 199.189 49.776V55H197.205V49.776C197.205 49.2267 197.093 48.8267 196.869 48.576C196.65 48.3253 196.328 48.2 195.901 48.2C195.613 48.2 195.344 48.272 195.093 48.416C194.848 48.5547 194.618 48.7467 194.405 48.992V55H192.429ZM207.811 52.872C208.035 53.144 208.278 53.336 208.539 53.448C208.806 53.56 209.086 53.616 209.379 53.616C209.683 53.616 209.955 53.5627 210.195 53.456C210.441 53.344 210.649 53.1733 210.819 52.944C210.99 52.7093 211.121 52.4133 211.211 52.056C211.302 51.6933 211.347 51.2613 211.347 50.76C211.347 49.8587 211.198 49.208 210.899 48.808C210.601 48.4027 210.171 48.2 209.611 48.2C209.233 48.2 208.902 48.288 208.619 48.464C208.337 48.6347 208.067 48.8773 207.811 49.192V52.872ZM207.811 47.8C208.142 47.4533 208.507 47.1787 208.907 46.976C209.313 46.768 209.774 46.664 210.291 46.664C210.766 46.664 211.193 46.7573 211.571 46.944C211.955 47.1307 212.281 47.4 212.547 47.752C212.819 48.0987 213.027 48.52 213.171 49.016C213.315 49.512 213.387 50.0693 213.387 50.688C213.387 51.3547 213.305 51.96 213.139 52.504C212.974 53.048 212.737 53.5147 212.427 53.904C212.123 54.288 211.755 54.5867 211.323 54.8C210.891 55.0133 210.411 55.12 209.883 55.12C209.627 55.12 209.395 55.0933 209.187 55.04C208.979 54.992 208.787 54.9227 208.611 54.832C208.435 54.7413 208.273 54.632 208.123 54.504C207.979 54.3707 207.841 54.224 207.707 54.064L207.619 54.616C207.587 54.7547 207.531 54.8533 207.451 54.912C207.377 54.9707 207.273 55 207.139 55H205.835V43.112H207.811V47.8ZM216.962 46.792V55H214.978V46.792H216.962ZM217.234 44.4C217.234 44.5707 217.199 44.7307 217.13 44.88C217.06 45.0293 216.967 45.16 216.85 45.272C216.738 45.384 216.604 45.4747 216.45 45.544C216.295 45.608 216.13 45.64 215.954 45.64C215.783 45.64 215.62 45.608 215.466 45.544C215.316 45.4747 215.186 45.384 215.074 45.272C214.962 45.16 214.871 45.0293 214.802 44.88C214.738 44.7307 214.706 44.5707 214.706 44.4C214.706 44.224 214.738 44.0587 214.802 43.904C214.871 43.7493 214.962 43.616 215.074 43.504C215.186 43.392 215.316 43.304 215.466 43.24C215.62 43.1707 215.783 43.136 215.954 43.136C216.13 43.136 216.295 43.1707 216.45 43.24C216.604 43.304 216.738 43.392 216.85 43.504C216.967 43.616 217.06 43.7493 217.13 43.904C217.199 44.0587 217.234 44.224 217.234 44.4ZM224.264 49.952C224.264 49.696 224.227 49.456 224.152 49.232C224.083 49.0027 223.976 48.8027 223.832 48.632C223.688 48.4613 223.504 48.328 223.28 48.232C223.061 48.1307 222.805 48.08 222.512 48.08C221.941 48.08 221.491 48.2427 221.16 48.568C220.835 48.8933 220.627 49.3547 220.536 49.952H224.264ZM220.496 51.144C220.528 51.5653 220.603 51.9307 220.72 52.24C220.837 52.544 220.992 52.7973 221.184 53C221.376 53.1973 221.603 53.3467 221.864 53.448C222.131 53.544 222.424 53.592 222.744 53.592C223.064 53.592 223.339 53.5547 223.568 53.48C223.803 53.4053 224.005 53.3227 224.176 53.232C224.352 53.1413 224.504 53.0587 224.632 52.984C224.765 52.9093 224.893 52.872 225.016 52.872C225.181 52.872 225.304 52.9333 225.384 53.056L225.952 53.776C225.733 54.032 225.488 54.248 225.216 54.424C224.944 54.5947 224.659 54.7333 224.36 54.84C224.067 54.9413 223.765 55.0133 223.456 55.056C223.152 55.0987 222.856 55.12 222.568 55.12C221.997 55.12 221.467 55.0267 220.976 54.84C220.485 54.648 220.059 54.368 219.696 54C219.333 53.6267 219.048 53.168 218.84 52.624C218.632 52.0747 218.528 51.44 218.528 50.72C218.528 50.16 218.619 49.6347 218.8 49.144C218.981 48.648 219.24 48.2187 219.576 47.856C219.917 47.488 220.331 47.1973 220.816 46.984C221.307 46.7707 221.859 46.664 222.472 46.664C222.989 46.664 223.467 46.7467 223.904 46.912C224.341 47.0773 224.717 47.32 225.032 47.64C225.347 47.9547 225.592 48.344 225.768 48.808C225.949 49.2667 226.04 49.792 226.04 50.384C226.04 50.6827 226.008 50.8853 225.944 50.992C225.88 51.0933 225.757 51.144 225.576 51.144H220.496ZM229.371 47.8C229.536 47.6347 229.71 47.4827 229.891 47.344C230.078 47.2 230.272 47.08 230.475 46.984C230.683 46.8827 230.904 46.8053 231.139 46.752C231.374 46.6933 231.63 46.664 231.907 46.664C232.355 46.664 232.752 46.7413 233.099 46.896C233.446 47.0453 233.734 47.2587 233.963 47.536C234.198 47.808 234.374 48.136 234.491 48.52C234.614 48.8987 234.675 49.3173 234.675 49.776V55H232.699V49.776C232.699 49.2747 232.584 48.888 232.355 48.616C232.126 48.3387 231.776 48.2 231.307 48.2C230.966 48.2 230.646 48.2773 230.347 48.432C230.048 48.5867 229.766 48.7973 229.499 49.064V55H227.523V46.792H228.731C228.987 46.792 229.155 46.912 229.235 47.152L229.371 47.8ZM239.181 55.128C238.466 55.128 237.917 54.928 237.533 54.528C237.154 54.1227 236.965 53.5653 236.965 52.856V48.272H236.125C236.018 48.272 235.927 48.2373 235.853 48.168C235.778 48.0987 235.741 47.9947 235.741 47.856V47.072L237.061 46.856L237.477 44.616C237.503 44.5093 237.554 44.4267 237.629 44.368C237.703 44.3093 237.799 44.28 237.917 44.28H238.941V46.864H241.133V48.272H238.941V52.72C238.941 52.976 239.002 53.176 239.125 53.32C239.253 53.464 239.426 53.536 239.645 53.536C239.767 53.536 239.869 53.5227 239.949 53.496C240.034 53.464 240.106 53.432 240.165 53.4C240.229 53.368 240.285 53.3387 240.333 53.312C240.381 53.28 240.429 53.264 240.477 53.264C240.535 53.264 240.583 53.28 240.621 53.312C240.658 53.3387 240.698 53.3813 240.741 53.44L241.333 54.4C241.045 54.64 240.714 54.8213 240.341 54.944C239.967 55.0667 239.581 55.128 239.181 55.128ZM247.623 49.952C247.623 49.696 247.586 49.456 247.511 49.232C247.442 49.0027 247.335 48.8027 247.191 48.632C247.047 48.4613 246.863 48.328 246.639 48.232C246.421 48.1307 246.165 48.08 245.871 48.08C245.301 48.08 244.85 48.2427 244.519 48.568C244.194 48.8933 243.986 49.3547 243.895 49.952H247.623ZM243.855 51.144C243.887 51.5653 243.962 51.9307 244.079 52.24C244.197 52.544 244.351 52.7973 244.543 53C244.735 53.1973 244.962 53.3467 245.223 53.448C245.49 53.544 245.783 53.592 246.103 53.592C246.423 53.592 246.698 53.5547 246.927 53.48C247.162 53.4053 247.365 53.3227 247.535 53.232C247.711 53.1413 247.863 53.0587 247.991 52.984C248.125 52.9093 248.253 52.872 248.375 52.872C248.541 52.872 248.663 52.9333 248.743 53.056L249.311 53.776C249.093 54.032 248.847 54.248 248.575 54.424C248.303 54.5947 248.018 54.7333 247.719 54.84C247.426 54.9413 247.125 55.0133 246.815 55.056C246.511 55.0987 246.215 55.12 245.927 55.12C245.357 55.12 244.826 55.0267 244.335 54.84C243.845 54.648 243.418 54.368 243.055 54C242.693 53.6267 242.407 53.168 242.199 52.624C241.991 52.0747 241.887 51.44 241.887 50.72C241.887 50.16 241.978 49.6347 242.159 49.144C242.341 48.648 242.599 48.2187 242.935 47.856C243.277 47.488 243.69 47.1973 244.175 46.984C244.666 46.7707 245.218 46.664 245.831 46.664C246.349 46.664 246.826 46.7467 247.263 46.912C247.701 47.0773 248.077 47.32 248.391 47.64C248.706 47.9547 248.951 48.344 249.127 48.808C249.309 49.2667 249.399 49.792 249.399 50.384C249.399 50.6827 249.367 50.8853 249.303 50.992C249.239 51.0933 249.117 51.144 248.935 51.144H243.855Z" fill="#218738"/>
<circle opacity="0.5" cx="36" cy="36" r="28" fill="#C2C2C2"/>
<g clip-path="url(#clip0_373:37)">
<path d="M28.1282 53.4718H30.5981V46.7921H28.1282V53.4718ZM47.2421 30.5539C47.2421 30.2305 47.4529 29.9669 47.7116 29.9669C47.9704 29.9669 48.1793 30.2305 48.1793 30.5539V36.4118L50.8618 40.19C50.9468 40.2963 51 40.4447 51 40.6064V43.2618C51 43.5852 50.7909 43.8464 50.5322 43.8464C50.2736 43.8464 50.0627 43.5851 50.0627 43.2618V41.1932H45.3587V53.4718H50.0627V45.9151C50.0627 45.5918 50.2736 45.3304 50.5322 45.3304C50.791 45.3304 51 45.5918 51 45.9151V54.0586C51 54.3819 50.7909 54.6432 50.5322 54.6432C40.1781 54.6432 29.8238 54.6432 19.4696 54.6432C19.2108 54.6432 19 54.3818 19 54.0586V37.1028C19 36.7794 19.2108 36.5181 19.4696 36.5181H20.5769V34.1174C20.5769 33.794 20.7877 33.5328 21.0464 33.5328H22.0793V31.1319C22.0793 30.8085 22.2884 30.5472 22.547 30.5472C22.8057 30.5472 23.0166 30.8086 23.0166 31.1319V33.5326H24.1116V28.0379C24.1116 27.7145 24.3224 27.4509 24.5811 27.4509C24.8398 27.4509 25.0506 27.7145 25.0506 28.0379V33.5326H26.0818C26.3405 33.5326 26.5513 33.7939 26.5513 34.1172V36.5179H27.6587C27.9192 36.5179 28.1283 36.7793 28.1283 37.1026V39.758C28.1283 40.0814 27.9192 40.3427 27.6587 40.3427C27.4 40.3427 27.191 40.0814 27.191 39.758V37.6894C24.7725 37.6894 22.3559 37.6894 19.9373 37.6894V53.4718H27.191V42.4114C27.191 42.088 27.4001 41.8268 27.6587 41.8268C27.9192 41.8268 28.1283 42.0881 28.1283 42.4114V45.6206H30.5981V32.3168C30.5981 31.9933 30.8089 31.7321 31.0677 31.7321H32.1148V27.3868C32.1148 27.0612 32.3256 26.8 32.5843 26.8H33.752V25.0392C33.752 24.2574 34.0478 23.5509 34.5209 23.0437C34.8682 22.6717 35.3129 22.4081 35.8055 22.304V16.7628C35.8055 16.4393 36.0163 16.1781 36.275 16.1781C36.5338 16.1781 36.7446 16.4394 36.7446 16.7628V22.304C37.2371 22.4081 37.6818 22.6717 38.0273 23.0437C38.5021 23.5509 38.7944 24.2574 38.7944 25.0392V26.8H39.9656C40.2243 26.8 40.4351 27.0612 40.4351 27.3868V31.7321H41.4823C41.7409 31.7321 41.9518 31.9934 41.9518 32.3168V34.9721C41.9518 35.2955 41.7409 35.5568 41.4823 35.5568C41.2236 35.5568 41.0127 35.2954 41.0127 34.9721V32.9036C37.8536 32.9036 34.6946 32.9036 31.5354 32.9036V53.4718H41.0125V37.6253C41.0125 37.302 41.2234 37.0407 41.4821 37.0407C41.7408 37.0407 41.9516 37.3021 41.9516 37.6253V45.6206H44.4215V40.6329C44.4162 40.4625 44.4676 40.2986 44.5667 40.1812L47.2422 36.4118V30.5539H47.2421ZM21.5159 34.7043V36.5181H25.614V34.7043C24.248 34.7043 22.8819 34.7043 21.5159 34.7043ZM47.5256 52.7718C47.2651 52.7718 47.0561 52.5083 47.0561 52.1849C47.0561 51.8615 47.2651 51.598 47.5256 51.598H47.8977C48.1563 51.598 48.3672 51.8615 48.3672 52.1849C48.3672 52.5083 48.1563 52.7718 47.8977 52.7718H47.5256ZM47.5256 50.3446C47.2651 50.3446 47.0561 50.0811 47.0561 49.7576C47.0561 49.4343 47.2651 49.173 47.5256 49.173H47.8977C48.1563 49.173 48.3672 49.4343 48.3672 49.7576C48.3672 50.0811 48.1563 50.3446 47.8977 50.3446H47.5256ZM47.5256 47.9195C47.2651 47.9195 47.0561 47.6581 47.0561 47.3325C47.0561 47.0092 47.2651 46.7479 47.5256 46.7479H47.8977C48.1563 46.7479 48.3672 47.0093 48.3672 47.3325C48.3672 47.6581 48.1563 47.9195 47.8977 47.9195H47.5256ZM47.5256 45.4921C47.2651 45.4921 47.0561 45.2307 47.0561 44.9075C47.0561 44.5819 47.2651 44.3205 47.5256 44.3205H47.8977C48.1563 44.3205 48.3672 44.5819 48.3672 44.9075C48.3672 45.2308 48.1563 45.4921 47.8977 45.4921H47.5256ZM47.5256 43.0647C47.2651 43.0647 47.0561 42.8034 47.0561 42.4801C47.0561 42.1567 47.2651 41.8932 47.5256 41.8932H47.8977C48.1563 41.8932 48.3672 42.1567 48.3672 42.4801C48.3672 42.8035 48.1563 43.0647 47.8977 43.0647H47.5256ZM22.5577 40.1015C22.2991 40.1015 22.09 39.8401 22.09 39.5168C22.09 39.1913 22.2991 38.93 22.5577 38.93H24.5704C24.8292 38.93 25.04 39.1913 25.04 39.5168C25.04 39.8402 24.8292 40.1015 24.5704 40.1015H22.5577ZM22.5577 52.2315C22.2991 52.2315 22.09 51.9702 22.09 51.6469C22.09 51.3236 22.2991 51.06 22.5577 51.06H24.5704C24.8292 51.06 25.04 51.3236 25.04 51.6469C25.04 51.9703 24.8292 52.2315 24.5704 52.2315H22.5577ZM22.5577 49.8041C22.2991 49.8041 22.09 49.5428 22.09 49.2196C22.09 48.8962 22.2991 48.6325 22.5577 48.6325H24.5704C24.8292 48.6325 25.04 48.8962 25.04 49.2196C25.04 49.5428 24.8292 49.8041 24.5704 49.8041H22.5577ZM22.5577 47.3812C22.2991 47.3812 22.09 47.1177 22.09 46.7943C22.09 46.4709 22.2991 46.2074 22.5577 46.2074H24.5704C24.8292 46.2074 25.04 46.4709 25.04 46.7943C25.04 47.1177 24.8292 47.3812 24.5704 47.3812H22.5577ZM22.5577 44.9539C22.2991 44.9539 22.09 44.6904 22.09 44.367C22.09 44.0436 22.2991 43.7824 22.5577 43.7824H24.5704C24.8292 43.7824 25.04 44.0437 25.04 44.367C25.04 44.6904 24.8292 44.9539 24.5704 44.9539H22.5577ZM22.5577 42.5266C22.2991 42.5266 22.09 42.2631 22.09 41.9396C22.09 41.6163 22.2991 41.355 22.5577 41.355H24.5704C24.8292 41.355 25.04 41.6164 25.04 41.9396C25.04 42.2631 24.8292 42.5266 24.5704 42.5266H22.5577ZM33.9236 48.7322H38.6259C38.8846 48.7322 39.0936 48.9936 39.0936 49.3168V51.7819C39.0936 52.1052 38.8845 52.3689 38.6259 52.3689H33.9236C33.6649 52.3689 33.4541 52.1052 33.4541 51.7819V49.3168C33.4541 48.9936 33.6649 48.7322 33.9236 48.7322ZM38.1564 49.9039H34.3931V51.1973H38.1564V49.9039ZM33.9236 43.8244H38.6259C38.8846 43.8244 39.0936 44.0858 39.0936 44.409V46.8741C39.0936 47.1975 38.8845 47.461 38.6259 47.461H33.9236C33.6649 47.461 33.4541 47.1975 33.4541 46.8741V44.409C33.4541 44.0858 33.6649 43.8244 33.9236 43.8244ZM38.1564 44.9961H34.3931V46.2871H38.1564V44.9961ZM33.9236 38.9144H38.6259C38.8846 38.9144 39.0936 39.1779 39.0936 39.5013V41.9663C39.0936 42.2897 38.8845 42.551 38.6259 42.551H33.9236C33.6649 42.551 33.4541 42.2896 33.4541 41.9663V39.5013C33.4541 39.1779 33.6649 38.9144 33.9236 38.9144ZM38.1564 40.0861H34.3931V41.3795H38.1564V40.0861ZM33.9236 34.0065H38.6259C38.8846 34.0065 39.0936 34.2701 39.0936 34.5935V37.0586C39.0936 37.3818 38.8845 37.6431 38.6259 37.6431H33.9236C33.6649 37.6431 33.4541 37.3818 33.4541 37.0586V34.5935C33.4541 34.2701 33.6649 34.0065 33.9236 34.0065ZM38.1564 35.1782H34.3931V36.4715H38.1564V35.1782ZM49.1839 18.86C49.0511 18.5832 49.1237 18.2245 49.3451 18.0584C49.5666 17.8923 49.8537 17.9831 49.9866 18.2599C50.2009 18.7117 50.3692 19.2034 50.4844 19.7238C50.5961 20.231 50.6563 20.7604 50.6563 21.3007C50.6563 22.9396 50.123 24.4257 49.2637 25.502C48.4044 26.5761 47.2155 27.2406 45.9026 27.2406C45.566 27.2406 45.2329 27.1963 44.9104 27.1099C44.5827 27.0213 44.2637 26.8907 43.9608 26.7201C43.7251 26.5894 43.6189 26.2439 43.7251 25.9494C43.773 25.8121 43.8597 25.7103 43.9608 25.6549C44.6359 25.2761 45.2064 24.6582 45.6068 23.8875C45.9912 23.1456 46.2146 22.2553 46.2146 21.3008C46.2146 20.3418 45.9913 19.4537 45.6068 18.7095C45.2064 17.9389 44.6359 17.3232 43.9608 16.9444C43.7251 16.8116 43.6189 16.4682 43.7251 16.1737C43.773 16.0364 43.8597 15.9346 43.9608 15.877C44.2638 15.7086 44.5827 15.5758 44.9104 15.4893C45.2329 15.403 45.566 15.3564 45.9026 15.3564C46.335 15.3564 46.7584 15.4318 47.1642 15.5714C47.5806 15.7131 47.9739 15.9257 48.3353 16.1958C48.5567 16.3597 48.6294 16.7186 48.4965 16.9954C48.3637 17.2721 48.0766 17.3629 47.8551 17.1968C47.5646 16.9799 47.2493 16.8115 46.9179 16.6964C46.599 16.5878 46.2588 16.528 45.9026 16.528C45.6936 16.528 45.4916 16.5502 45.2932 16.5879C45.7238 17.0021 46.0939 17.5047 46.3899 18.0739C46.8718 19.0064 47.1518 20.1137 47.1518 21.3008C47.1518 22.4857 46.8718 23.593 46.3899 24.5254C46.094 25.0946 45.7238 25.5974 45.2932 26.0093C45.4916 26.0491 45.6936 26.069 45.9026 26.069C46.9568 26.069 47.9101 25.5353 48.6011 24.6739C49.2921 23.81 49.7191 22.6164 49.7191 21.3008C49.7191 20.8557 49.6712 20.4304 49.5844 20.0318C49.4923 19.6153 49.3576 19.2234 49.1839 18.86ZM37.4194 23.9318C37.1287 23.6218 36.7248 23.4291 36.2748 23.4291C35.8248 23.4291 35.4191 23.6218 35.1285 23.9318C34.8574 24.2219 34.6909 24.6139 34.6909 25.0392V26.8H37.857V25.0392C37.857 24.614 37.6904 24.2197 37.4194 23.9318ZM39.4959 31.7321V27.9714H33.0519V31.7321H39.4959ZM49.4923 40.0218L47.7116 37.5125L45.9291 40.0218H49.4923ZM41.9516 53.4718H44.4215V46.7921H41.9516V53.4718Z" fill="#218738"/>
</g>
<defs>
<clipPath id="clip0_373:37">
<rect width="32" height="40" fill="white" transform="translate(19 15)"/>
</clipPath>
</defs>
</svg>
