<svg width="328" height="73" viewBox="0 0 328 73" fill="none" xmlns="http://www.w3.org/2000/svg">
<path d="M80.232 30.272C80.3493 30.272 80.4533 30.3173 80.544 30.408L81.392 31.328C80.9227 31.9093 80.344 32.3547 79.656 32.664C78.9733 32.9733 78.152 33.128 77.192 33.128C76.3333 33.128 75.56 32.9813 74.872 32.688C74.1893 32.3947 73.6053 31.9867 73.12 31.464C72.6347 30.9413 72.2613 30.3173 72 29.592C71.744 28.8667 71.616 28.0747 71.616 27.216C71.616 26.3467 71.7547 25.552 72.032 24.832C72.3093 24.1067 72.6987 23.4827 73.2 22.96C73.7067 22.4373 74.3093 22.032 75.008 21.744C75.7067 21.4507 76.48 21.304 77.328 21.304C78.1707 21.304 78.9173 21.4427 79.568 21.72C80.224 21.9973 80.7813 22.36 81.24 22.808L80.52 23.808C80.4773 23.872 80.4213 23.928 80.352 23.976C80.288 24.024 80.1973 24.048 80.08 24.048C80 24.048 79.9173 24.0267 79.832 23.984C79.7467 23.936 79.6533 23.88 79.552 23.816C79.4507 23.7467 79.3333 23.672 79.2 23.592C79.0667 23.512 78.912 23.44 78.736 23.376C78.56 23.3067 78.3547 23.2507 78.12 23.208C77.8907 23.16 77.624 23.136 77.32 23.136C76.8027 23.136 76.328 23.2293 75.896 23.416C75.4693 23.5973 75.1013 23.864 74.792 24.216C74.4827 24.5627 74.2427 24.9893 74.072 25.496C73.9013 25.9973 73.816 26.5707 73.816 27.216C73.816 27.8667 73.9067 28.4453 74.088 28.952C74.2747 29.4587 74.5253 29.8853 74.84 30.232C75.1547 30.5787 75.5253 30.8453 75.952 31.032C76.3787 31.2133 76.8373 31.304 77.328 31.304C77.6213 31.304 77.8853 31.288 78.12 31.256C78.36 31.224 78.5787 31.1733 78.776 31.104C78.9787 31.0347 79.168 30.9467 79.344 30.84C79.5253 30.728 79.704 30.592 79.88 30.432C79.9333 30.384 79.9893 30.3467 80.048 30.32C80.1067 30.288 80.168 30.272 80.232 30.272ZM86.0143 24.664C86.6223 24.664 87.1743 24.7627 87.6703 24.96C88.1716 25.1573 88.5983 25.4373 88.9503 25.8C89.3076 26.1627 89.5822 26.6053 89.7743 27.128C89.9663 27.6507 90.0623 28.2347 90.0623 28.88C90.0623 29.5307 89.9663 30.1173 89.7743 30.64C89.5822 31.1627 89.3076 31.608 88.9503 31.976C88.5983 32.344 88.1716 32.6267 87.6703 32.824C87.1743 33.0213 86.6223 33.12 86.0143 33.12C85.4009 33.12 84.8436 33.0213 84.3423 32.824C83.8409 32.6267 83.4116 32.344 83.0543 31.976C82.7023 31.608 82.4276 31.1627 82.2303 30.64C82.0383 30.1173 81.9423 29.5307 81.9423 28.88C81.9423 28.2347 82.0383 27.6507 82.2303 27.128C82.4276 26.6053 82.7023 26.1627 83.0543 25.8C83.4116 25.4373 83.8409 25.1573 84.3423 24.96C84.8436 24.7627 85.4009 24.664 86.0143 24.664ZM86.0143 31.6C86.6969 31.6 87.2009 31.3707 87.5263 30.912C87.8569 30.4533 88.0223 29.7813 88.0223 28.896C88.0223 28.0107 87.8569 27.336 87.5263 26.872C87.2009 26.408 86.6969 26.176 86.0143 26.176C85.3209 26.176 84.8063 26.4107 84.4703 26.88C84.1396 27.344 83.9743 28.016 83.9743 28.896C83.9743 29.776 84.1396 30.448 84.4703 30.912C84.8063 31.3707 85.3209 31.6 86.0143 31.6ZM91.5698 33V24.792H92.7778C93.0338 24.792 93.2018 24.912 93.2818 25.152L93.4098 25.76C93.5538 25.6 93.7031 25.4533 93.8578 25.32C94.0178 25.1867 94.1858 25.072 94.3618 24.976C94.5431 24.88 94.7351 24.8053 94.9378 24.752C95.1458 24.6933 95.3724 24.664 95.6178 24.664C96.1351 24.664 96.5591 24.8053 96.8898 25.088C97.2258 25.3653 97.4764 25.736 97.6418 26.2C97.7698 25.928 97.9298 25.696 98.1218 25.504C98.3138 25.3067 98.5244 25.1467 98.7538 25.024C98.9831 24.9013 99.2258 24.8107 99.4818 24.752C99.7431 24.6933 100.004 24.664 100.266 24.664C100.719 24.664 101.122 24.7333 101.474 24.872C101.826 25.0107 102.122 25.2133 102.362 25.48C102.602 25.7467 102.783 26.072 102.906 26.456C103.034 26.84 103.098 27.28 103.098 27.776V33H101.122V27.776C101.122 27.2533 101.007 26.8613 100.778 26.6C100.548 26.3333 100.212 26.2 99.7698 26.2C99.5671 26.2 99.3778 26.2347 99.2018 26.304C99.0311 26.3733 98.8791 26.4747 98.7458 26.608C98.6178 26.736 98.5164 26.8987 98.4418 27.096C98.3671 27.2933 98.3298 27.52 98.3298 27.776V33H96.3458V27.776C96.3458 27.2267 96.2338 26.8267 96.0098 26.576C95.7911 26.3253 95.4684 26.2 95.0418 26.2C94.7538 26.2 94.4844 26.272 94.2338 26.416C93.9884 26.5547 93.7591 26.7467 93.5458 26.992V33H91.5698ZM107.024 24.792V33H105.04V24.792H107.024ZM107.296 22.4C107.296 22.5707 107.261 22.7307 107.192 22.88C107.123 23.0293 107.029 23.16 106.912 23.272C106.8 23.384 106.667 23.4747 106.512 23.544C106.357 23.608 106.192 23.64 106.016 23.64C105.845 23.64 105.683 23.608 105.528 23.544C105.379 23.4747 105.248 23.384 105.136 23.272C105.024 23.16 104.933 23.0293 104.864 22.88C104.8 22.7307 104.768 22.5707 104.768 22.4C104.768 22.224 104.8 22.0587 104.864 21.904C104.933 21.7493 105.024 21.616 105.136 21.504C105.248 21.392 105.379 21.304 105.528 21.24C105.683 21.1707 105.845 21.136 106.016 21.136C106.192 21.136 106.357 21.1707 106.512 21.24C106.667 21.304 106.8 21.392 106.912 21.504C107.029 21.616 107.123 21.7493 107.192 21.904C107.261 22.0587 107.296 22.224 107.296 22.4ZM114.047 26.392C113.993 26.4773 113.937 26.5387 113.879 26.576C113.82 26.608 113.745 26.624 113.655 26.624C113.559 26.624 113.455 26.5973 113.343 26.544C113.236 26.4907 113.111 26.432 112.967 26.368C112.823 26.2987 112.657 26.2373 112.47 26.184C112.289 26.1307 112.073 26.104 111.823 26.104C111.433 26.104 111.127 26.1867 110.903 26.352C110.684 26.5173 110.575 26.7333 110.575 27C110.575 27.176 110.631 27.3253 110.743 27.448C110.86 27.5653 111.012 27.6693 111.199 27.76C111.391 27.8507 111.607 27.9333 111.847 28.008C112.087 28.0773 112.329 28.1547 112.575 28.24C112.825 28.3253 113.071 28.424 113.311 28.536C113.551 28.6427 113.764 28.7813 113.951 28.952C114.143 29.1173 114.295 29.3173 114.407 29.552C114.524 29.7867 114.583 30.0693 114.583 30.4C114.583 30.7947 114.511 31.16 114.367 31.496C114.228 31.8267 114.02 32.1147 113.743 32.36C113.465 32.6 113.121 32.7893 112.711 32.928C112.305 33.0613 111.836 33.128 111.303 33.128C111.02 33.128 110.743 33.1013 110.471 33.048C110.204 33 109.945 32.9307 109.695 32.84C109.449 32.7493 109.22 32.6427 109.007 32.52C108.799 32.3973 108.615 32.264 108.455 32.12L108.911 31.368C108.969 31.2773 109.039 31.208 109.118 31.16C109.198 31.112 109.3 31.088 109.423 31.088C109.545 31.088 109.66 31.1227 109.767 31.192C109.879 31.2613 110.007 31.336 110.151 31.416C110.295 31.496 110.463 31.5707 110.655 31.64C110.852 31.7093 111.1 31.744 111.399 31.744C111.633 31.744 111.833 31.7173 111.999 31.664C112.169 31.6053 112.308 31.5307 112.415 31.44C112.527 31.3493 112.606 31.2453 112.655 31.128C112.708 31.0053 112.735 30.88 112.735 30.752C112.735 30.56 112.676 30.4027 112.559 30.28C112.447 30.1573 112.295 30.0507 112.102 29.96C111.916 29.8693 111.7 29.7893 111.455 29.72C111.215 29.6453 110.967 29.5653 110.711 29.48C110.46 29.3947 110.212 29.296 109.967 29.184C109.727 29.0667 109.511 28.92 109.319 28.744C109.132 28.568 108.98 28.352 108.863 28.096C108.751 27.84 108.695 27.5307 108.695 27.168C108.695 26.832 108.761 26.512 108.895 26.208C109.028 25.904 109.223 25.64 109.479 25.416C109.74 25.1867 110.063 25.0053 110.447 24.872C110.836 24.7333 111.284 24.664 111.791 24.664C112.356 24.664 112.871 24.7573 113.335 24.944C113.799 25.1307 114.185 25.376 114.495 25.68L114.047 26.392ZM121.078 26.392C121.024 26.4773 120.968 26.5387 120.91 26.576C120.851 26.608 120.776 26.624 120.686 26.624C120.59 26.624 120.486 26.5973 120.374 26.544C120.267 26.4907 120.142 26.432 119.998 26.368C119.854 26.2987 119.688 26.2373 119.502 26.184C119.32 26.1307 119.104 26.104 118.854 26.104C118.464 26.104 118.158 26.1867 117.934 26.352C117.715 26.5173 117.606 26.7333 117.606 27C117.606 27.176 117.662 27.3253 117.774 27.448C117.891 27.5653 118.043 27.6693 118.23 27.76C118.422 27.8507 118.638 27.9333 118.878 28.008C119.118 28.0773 119.36 28.1547 119.606 28.24C119.856 28.3253 120.102 28.424 120.342 28.536C120.582 28.6427 120.795 28.7813 120.982 28.952C121.174 29.1173 121.326 29.3173 121.438 29.552C121.555 29.7867 121.614 30.0693 121.614 30.4C121.614 30.7947 121.542 31.16 121.398 31.496C121.259 31.8267 121.051 32.1147 120.774 32.36C120.496 32.6 120.152 32.7893 119.742 32.928C119.336 33.0613 118.867 33.128 118.334 33.128C118.051 33.128 117.774 33.1013 117.502 33.048C117.235 33 116.976 32.9307 116.726 32.84C116.48 32.7493 116.251 32.6427 116.038 32.52C115.83 32.3973 115.646 32.264 115.486 32.12L115.942 31.368C116 31.2773 116.07 31.208 116.15 31.16C116.23 31.112 116.331 31.088 116.454 31.088C116.576 31.088 116.691 31.1227 116.798 31.192C116.91 31.2613 117.038 31.336 117.182 31.416C117.326 31.496 117.494 31.5707 117.686 31.64C117.883 31.7093 118.131 31.744 118.43 31.744C118.664 31.744 118.864 31.7173 119.03 31.664C119.2 31.6053 119.339 31.5307 119.446 31.44C119.558 31.3493 119.638 31.2453 119.686 31.128C119.739 31.0053 119.766 30.88 119.766 30.752C119.766 30.56 119.707 30.4027 119.59 30.28C119.478 30.1573 119.326 30.0507 119.134 29.96C118.947 29.8693 118.731 29.7893 118.486 29.72C118.246 29.6453 117.998 29.5653 117.742 29.48C117.491 29.3947 117.243 29.296 116.998 29.184C116.758 29.0667 116.542 28.92 116.35 28.744C116.163 28.568 116.011 28.352 115.894 28.096C115.782 27.84 115.726 27.5307 115.726 27.168C115.726 26.832 115.792 26.512 115.926 26.208C116.059 25.904 116.254 25.64 116.51 25.416C116.771 25.1867 117.094 25.0053 117.478 24.872C117.867 24.7333 118.315 24.664 118.822 24.664C119.387 24.664 119.902 24.7573 120.366 24.944C120.83 25.1307 121.216 25.376 121.526 25.68L121.078 26.392ZM127.437 29.496C126.866 29.5227 126.386 29.5733 125.997 29.648C125.608 29.7173 125.296 29.808 125.061 29.92C124.826 30.032 124.658 30.1627 124.557 30.312C124.456 30.4613 124.405 30.624 124.405 30.8C124.405 31.1467 124.506 31.3947 124.709 31.544C124.917 31.6933 125.186 31.768 125.517 31.768C125.922 31.768 126.272 31.696 126.565 31.552C126.864 31.4027 127.154 31.1787 127.437 30.88V29.496ZM122.909 25.936C123.853 25.072 124.989 24.64 126.317 24.64C126.797 24.64 127.226 24.72 127.605 24.88C127.984 25.0347 128.304 25.2533 128.565 25.536C128.826 25.8133 129.024 26.1467 129.157 26.536C129.296 26.9253 129.365 27.352 129.365 27.816V33H128.469C128.282 33 128.138 32.9733 128.037 32.92C127.936 32.8613 127.856 32.7467 127.797 32.576L127.621 31.984C127.413 32.1707 127.21 32.336 127.013 32.48C126.816 32.6187 126.61 32.736 126.397 32.832C126.184 32.928 125.954 33 125.709 33.048C125.469 33.1013 125.202 33.128 124.909 33.128C124.562 33.128 124.242 33.0827 123.949 32.992C123.656 32.896 123.402 32.7547 123.189 32.568C122.976 32.3813 122.81 32.1493 122.693 31.872C122.576 31.5947 122.517 31.272 122.517 30.904C122.517 30.696 122.552 30.4907 122.621 30.288C122.69 30.08 122.802 29.8827 122.957 29.696C123.117 29.5093 123.322 29.3333 123.573 29.168C123.824 29.0027 124.13 28.8587 124.493 28.736C124.861 28.6133 125.288 28.5147 125.773 28.44C126.258 28.36 126.813 28.312 127.437 28.296V27.816C127.437 27.2667 127.32 26.8613 127.085 26.6C126.85 26.3333 126.512 26.2 126.069 26.2C125.749 26.2 125.482 26.2373 125.269 26.312C125.061 26.3867 124.877 26.472 124.717 26.568C124.557 26.6587 124.41 26.7413 124.277 26.816C124.149 26.8907 124.005 26.928 123.845 26.928C123.706 26.928 123.589 26.8933 123.493 26.824C123.397 26.7493 123.32 26.664 123.261 26.568L122.909 25.936ZM126.989 22.128C127.149 22.128 127.274 22.0853 127.365 22C127.456 21.9093 127.501 21.7493 127.501 21.52H128.701C128.701 21.8187 128.658 22.0907 128.573 22.336C128.493 22.576 128.381 22.784 128.237 22.96C128.093 23.1307 127.92 23.264 127.717 23.36C127.52 23.4507 127.301 23.496 127.061 23.496C126.869 23.496 126.69 23.4613 126.525 23.392C126.36 23.3227 126.205 23.248 126.061 23.168C125.917 23.088 125.781 23.0133 125.653 22.944C125.53 22.8747 125.416 22.84 125.309 22.84C125.154 22.84 125.032 22.888 124.941 22.984C124.856 23.0747 124.813 23.232 124.813 23.456H123.589C123.589 23.1573 123.629 22.888 123.709 22.648C123.794 22.4027 123.912 22.1947 124.061 22.024C124.21 21.848 124.384 21.712 124.581 21.616C124.784 21.52 125.002 21.472 125.237 21.472C125.429 21.472 125.608 21.5067 125.773 21.576C125.944 21.6453 126.101 21.72 126.245 21.8C126.389 21.88 126.522 21.9547 126.645 22.024C126.768 22.0933 126.882 22.128 126.989 22.128ZM134.858 24.664C135.466 24.664 136.018 24.7627 136.514 24.96C137.015 25.1573 137.442 25.4373 137.794 25.8C138.151 26.1627 138.426 26.6053 138.618 27.128C138.81 27.6507 138.906 28.2347 138.906 28.88C138.906 29.5307 138.81 30.1173 138.618 30.64C138.426 31.1627 138.151 31.608 137.794 31.976C137.442 32.344 137.015 32.6267 136.514 32.824C136.018 33.0213 135.466 33.12 134.858 33.12C134.245 33.12 133.687 33.0213 133.186 32.824C132.685 32.6267 132.255 32.344 131.898 31.976C131.546 31.608 131.271 31.1627 131.074 30.64C130.882 30.1173 130.786 29.5307 130.786 28.88C130.786 28.2347 130.882 27.6507 131.074 27.128C131.271 26.6053 131.546 26.1627 131.898 25.8C132.255 25.4373 132.685 25.1573 133.186 24.96C133.687 24.7627 134.245 24.664 134.858 24.664ZM134.858 31.6C135.541 31.6 136.045 31.3707 136.37 30.912C136.701 30.4533 136.866 29.7813 136.866 28.896C136.866 28.0107 136.701 27.336 136.37 26.872C136.045 26.408 135.541 26.176 134.858 26.176C134.165 26.176 133.65 26.4107 133.314 26.88C132.983 27.344 132.818 28.016 132.818 28.896C132.818 29.776 132.983 30.448 133.314 30.912C133.65 31.3707 134.165 31.6 134.858 31.6ZM146.776 23.144V26.352H150.824V28.008H146.776V31.28H151.912V33H144.616V21.432H151.912V23.144H146.776ZM158.406 26.392C158.353 26.4773 158.297 26.5387 158.238 26.576C158.179 26.608 158.105 26.624 158.014 26.624C157.918 26.624 157.814 26.5973 157.702 26.544C157.595 26.4907 157.47 26.432 157.326 26.368C157.182 26.2987 157.017 26.2373 156.83 26.184C156.649 26.1307 156.433 26.104 156.182 26.104C155.793 26.104 155.486 26.1867 155.262 26.352C155.043 26.5173 154.934 26.7333 154.934 27C154.934 27.176 154.99 27.3253 155.102 27.448C155.219 27.5653 155.371 27.6693 155.558 27.76C155.75 27.8507 155.966 27.9333 156.206 28.008C156.446 28.0773 156.689 28.1547 156.934 28.24C157.185 28.3253 157.43 28.424 157.67 28.536C157.91 28.6427 158.123 28.7813 158.31 28.952C158.502 29.1173 158.654 29.3173 158.766 29.552C158.883 29.7867 158.942 30.0693 158.942 30.4C158.942 30.7947 158.87 31.16 158.726 31.496C158.587 31.8267 158.379 32.1147 158.102 32.36C157.825 32.6 157.481 32.7893 157.07 32.928C156.665 33.0613 156.195 33.128 155.662 33.128C155.379 33.128 155.102 33.1013 154.83 33.048C154.563 33 154.305 32.9307 154.054 32.84C153.809 32.7493 153.579 32.6427 153.366 32.52C153.158 32.3973 152.974 32.264 152.814 32.12L153.27 31.368C153.329 31.2773 153.398 31.208 153.478 31.16C153.558 31.112 153.659 31.088 153.782 31.088C153.905 31.088 154.019 31.1227 154.126 31.192C154.238 31.2613 154.366 31.336 154.51 31.416C154.654 31.496 154.822 31.5707 155.014 31.64C155.211 31.7093 155.459 31.744 155.758 31.744C155.993 31.744 156.193 31.7173 156.358 31.664C156.529 31.6053 156.667 31.5307 156.774 31.44C156.886 31.3493 156.966 31.2453 157.014 31.128C157.067 31.0053 157.094 30.88 157.094 30.752C157.094 30.56 157.035 30.4027 156.918 30.28C156.806 30.1573 156.654 30.0507 156.462 29.96C156.275 29.8693 156.059 29.7893 155.814 29.72C155.574 29.6453 155.326 29.5653 155.07 29.48C154.819 29.3947 154.571 29.296 154.326 29.184C154.086 29.0667 153.87 28.92 153.678 28.744C153.491 28.568 153.339 28.352 153.222 28.096C153.11 27.84 153.054 27.5307 153.054 27.168C153.054 26.832 153.121 26.512 153.254 26.208C153.387 25.904 153.582 25.64 153.838 25.416C154.099 25.1867 154.422 25.0053 154.806 24.872C155.195 24.7333 155.643 24.664 156.15 24.664C156.715 24.664 157.23 24.7573 157.694 24.944C158.158 25.1307 158.545 25.376 158.854 25.68L158.406 26.392ZM162.405 30.872C162.629 31.144 162.872 31.336 163.133 31.448C163.4 31.56 163.688 31.616 163.997 31.616C164.296 31.616 164.565 31.56 164.805 31.448C165.045 31.336 165.248 31.1653 165.413 30.936C165.584 30.7067 165.714 30.4187 165.805 30.072C165.896 29.72 165.941 29.3067 165.941 28.832C165.941 28.352 165.901 27.9467 165.821 27.616C165.746 27.28 165.637 27.008 165.493 26.8C165.349 26.592 165.173 26.44 164.965 26.344C164.762 26.248 164.53 26.2 164.269 26.2C163.858 26.2 163.509 26.288 163.221 26.464C162.933 26.6347 162.661 26.8773 162.405 27.192V30.872ZM162.301 25.912C162.637 25.5333 163.018 25.2267 163.445 24.992C163.872 24.7573 164.373 24.64 164.949 24.64C165.397 24.64 165.805 24.7333 166.173 24.92C166.546 25.1067 166.866 25.3787 167.133 25.736C167.405 26.088 167.613 26.5253 167.757 27.048C167.906 27.5653 167.981 28.16 167.981 28.832C167.981 29.4453 167.898 30.0133 167.733 30.536C167.568 31.0587 167.33 31.512 167.021 31.896C166.717 32.28 166.346 32.5813 165.909 32.8C165.477 33.0133 164.992 33.12 164.453 33.12C163.994 33.12 163.602 33.0507 163.277 32.912C162.952 32.768 162.661 32.5707 162.405 32.32V35.68H160.429V24.792H161.637C161.893 24.792 162.061 24.912 162.141 25.152L162.301 25.912ZM174.811 27.952C174.811 27.696 174.774 27.456 174.699 27.232C174.63 27.0027 174.523 26.8027 174.379 26.632C174.235 26.4613 174.051 26.328 173.827 26.232C173.608 26.1307 173.352 26.08 173.059 26.08C172.488 26.08 172.038 26.2427 171.707 26.568C171.382 26.8933 171.174 27.3547 171.083 27.952H174.811ZM171.043 29.144C171.075 29.5653 171.15 29.9307 171.267 30.24C171.384 30.544 171.539 30.7973 171.731 31C171.923 31.1973 172.15 31.3467 172.411 31.448C172.678 31.544 172.971 31.592 173.291 31.592C173.611 31.592 173.886 31.5547 174.115 31.48C174.35 31.4053 174.552 31.3227 174.723 31.232C174.899 31.1413 175.051 31.0587 175.179 30.984C175.312 30.9093 175.44 30.872 175.563 30.872C175.728 30.872 175.851 30.9333 175.931 31.056L176.499 31.776C176.28 32.032 176.035 32.248 175.763 32.424C175.491 32.5947 175.206 32.7333 174.907 32.84C174.614 32.9413 174.312 33.0133 174.003 33.056C173.699 33.0987 173.403 33.12 173.115 33.12C172.544 33.12 172.014 33.0267 171.523 32.84C171.032 32.648 170.606 32.368 170.243 32C169.88 31.6267 169.595 31.168 169.387 30.624C169.179 30.0747 169.075 29.44 169.075 28.72C169.075 28.16 169.166 27.6347 169.347 27.144C169.528 26.648 169.787 26.2187 170.123 25.856C170.464 25.488 170.878 25.1973 171.363 24.984C171.854 24.7707 172.406 24.664 173.019 24.664C173.536 24.664 174.014 24.7467 174.451 24.912C174.888 25.0773 175.264 25.32 175.579 25.64C175.894 25.9547 176.139 26.344 176.315 26.808C176.496 27.2667 176.587 27.792 176.587 28.384C176.587 28.6827 176.555 28.8853 176.491 28.992C176.427 29.0933 176.304 29.144 176.123 29.144H171.043ZM183.95 26.528C183.891 26.6027 183.832 26.6613 183.774 26.704C183.72 26.7467 183.64 26.768 183.534 26.768C183.432 26.768 183.334 26.7387 183.238 26.68C183.142 26.616 183.027 26.5467 182.894 26.472C182.76 26.392 182.6 26.3227 182.414 26.264C182.232 26.2 182.006 26.168 181.734 26.168C181.387 26.168 181.083 26.232 180.822 26.36C180.56 26.4827 180.342 26.6613 180.166 26.896C179.995 27.1307 179.867 27.416 179.782 27.752C179.696 28.0827 179.654 28.4587 179.654 28.88C179.654 29.3173 179.699 29.7067 179.79 30.048C179.886 30.3893 180.022 30.6773 180.198 30.912C180.374 31.1413 180.587 31.3173 180.838 31.44C181.088 31.5573 181.371 31.616 181.686 31.616C182 31.616 182.254 31.5787 182.446 31.504C182.643 31.424 182.808 31.3387 182.942 31.248C183.075 31.152 183.19 31.0667 183.286 30.992C183.387 30.912 183.499 30.872 183.622 30.872C183.782 30.872 183.902 30.9333 183.982 31.056L184.55 31.776C184.331 32.032 184.094 32.248 183.838 32.424C183.582 32.5947 183.315 32.7333 183.038 32.84C182.766 32.9413 182.483 33.0133 182.19 33.056C181.902 33.0987 181.614 33.12 181.326 33.12C180.819 33.12 180.342 33.0267 179.894 32.84C179.446 32.648 179.054 32.3707 178.718 32.008C178.382 31.6453 178.115 31.2027 177.918 30.68C177.726 30.152 177.63 29.552 177.63 28.88C177.63 28.2773 177.715 27.72 177.886 27.208C178.062 26.6907 178.318 26.2453 178.654 25.872C178.99 25.4933 179.406 25.1973 179.902 24.984C180.398 24.7707 180.968 24.664 181.614 24.664C182.227 24.664 182.763 24.7627 183.222 24.96C183.686 25.1573 184.102 25.44 184.47 25.808L183.95 26.528ZM187.837 24.792V33H185.853V24.792H187.837ZM188.109 22.4C188.109 22.5707 188.074 22.7307 188.005 22.88C187.935 23.0293 187.842 23.16 187.725 23.272C187.613 23.384 187.479 23.4747 187.325 23.544C187.17 23.608 187.005 23.64 186.829 23.64C186.658 23.64 186.495 23.608 186.341 23.544C186.191 23.4747 186.061 23.384 185.949 23.272C185.837 23.16 185.746 23.0293 185.677 22.88C185.613 22.7307 185.581 22.5707 185.581 22.4C185.581 22.224 185.613 22.0587 185.677 21.904C185.746 21.7493 185.837 21.616 185.949 21.504C186.061 21.392 186.191 21.304 186.341 21.24C186.495 21.1707 186.658 21.136 186.829 21.136C187.005 21.136 187.17 21.1707 187.325 21.24C187.479 21.304 187.613 21.392 187.725 21.504C187.842 21.616 187.935 21.7493 188.005 21.904C188.074 22.0587 188.109 22.224 188.109 22.4ZM194.187 29.496C193.616 29.5227 193.136 29.5733 192.747 29.648C192.358 29.7173 192.046 29.808 191.811 29.92C191.576 30.032 191.408 30.1627 191.307 30.312C191.206 30.4613 191.155 30.624 191.155 30.8C191.155 31.1467 191.256 31.3947 191.459 31.544C191.667 31.6933 191.936 31.768 192.267 31.768C192.672 31.768 193.022 31.696 193.315 31.552C193.614 31.4027 193.904 31.1787 194.187 30.88V29.496ZM189.659 25.936C190.603 25.072 191.739 24.64 193.067 24.64C193.547 24.64 193.976 24.72 194.355 24.88C194.734 25.0347 195.054 25.2533 195.315 25.536C195.576 25.8133 195.774 26.1467 195.907 26.536C196.046 26.9253 196.115 27.352 196.115 27.816V33H195.219C195.032 33 194.888 32.9733 194.787 32.92C194.686 32.8613 194.606 32.7467 194.547 32.576L194.371 31.984C194.163 32.1707 193.96 32.336 193.763 32.48C193.566 32.6187 193.36 32.736 193.147 32.832C192.934 32.928 192.704 33 192.459 33.048C192.219 33.1013 191.952 33.128 191.659 33.128C191.312 33.128 190.992 33.0827 190.699 32.992C190.406 32.896 190.152 32.7547 189.939 32.568C189.726 32.3813 189.56 32.1493 189.443 31.872C189.326 31.5947 189.267 31.272 189.267 30.904C189.267 30.696 189.302 30.4907 189.371 30.288C189.44 30.08 189.552 29.8827 189.707 29.696C189.867 29.5093 190.072 29.3333 190.323 29.168C190.574 29.0027 190.88 28.8587 191.243 28.736C191.611 28.6133 192.038 28.5147 192.523 28.44C193.008 28.36 193.563 28.312 194.187 28.296V27.816C194.187 27.2667 194.07 26.8613 193.835 26.6C193.6 26.3333 193.262 26.2 192.819 26.2C192.499 26.2 192.232 26.2373 192.019 26.312C191.811 26.3867 191.627 26.472 191.467 26.568C191.307 26.6587 191.16 26.7413 191.027 26.816C190.899 26.8907 190.755 26.928 190.595 26.928C190.456 26.928 190.339 26.8933 190.243 26.824C190.147 26.7493 190.07 26.664 190.011 26.568L189.659 25.936ZM199.976 21.112V33H198V21.112H199.976ZM210.987 26.888C210.763 26.616 210.518 26.424 210.251 26.312C209.99 26.2 209.707 26.144 209.403 26.144C209.105 26.144 208.835 26.2 208.595 26.312C208.355 26.424 208.15 26.5947 207.979 26.824C207.809 27.048 207.678 27.336 207.587 27.688C207.497 28.0347 207.451 28.4453 207.451 28.92C207.451 29.4 207.489 29.808 207.563 30.144C207.643 30.4747 207.755 30.7467 207.899 30.96C208.043 31.168 208.219 31.32 208.427 31.416C208.635 31.5067 208.867 31.552 209.123 31.552C209.534 31.552 209.883 31.4667 210.171 31.296C210.459 31.1253 210.731 30.8827 210.987 30.568V26.888ZM212.963 21.112V33H211.755C211.494 33 211.329 32.88 211.259 32.64L211.091 31.848C210.761 32.2267 210.379 32.5333 209.947 32.768C209.521 33.0027 209.022 33.12 208.451 33.12C208.003 33.12 207.593 33.0267 207.219 32.84C206.846 32.6533 206.523 32.384 206.251 32.032C205.985 31.6747 205.777 31.2347 205.627 30.712C205.483 30.1893 205.411 29.592 205.411 28.92C205.411 28.312 205.494 27.7467 205.659 27.224C205.825 26.7013 206.062 26.248 206.371 25.864C206.681 25.48 207.051 25.1813 207.483 24.968C207.915 24.7493 208.401 24.64 208.939 24.64C209.398 24.64 209.79 24.712 210.115 24.856C210.441 25 210.731 25.1947 210.987 25.44V21.112H212.963ZM220.202 27.952C220.202 27.696 220.164 27.456 220.09 27.232C220.02 27.0027 219.914 26.8027 219.77 26.632C219.626 26.4613 219.442 26.328 219.218 26.232C218.999 26.1307 218.743 26.08 218.45 26.08C217.879 26.08 217.428 26.2427 217.098 26.568C216.772 26.8933 216.564 27.3547 216.474 27.952H220.202ZM216.434 29.144C216.466 29.5653 216.54 29.9307 216.658 30.24C216.775 30.544 216.93 30.7973 217.122 31C217.314 31.1973 217.54 31.3467 217.802 31.448C218.068 31.544 218.362 31.592 218.682 31.592C219.002 31.592 219.276 31.5547 219.506 31.48C219.74 31.4053 219.943 31.3227 220.114 31.232C220.29 31.1413 220.442 31.0587 220.57 30.984C220.703 30.9093 220.831 30.872 220.954 30.872C221.119 30.872 221.242 30.9333 221.322 31.056L221.89 31.776C221.671 32.032 221.426 32.248 221.154 32.424C220.882 32.5947 220.596 32.7333 220.298 32.84C220.004 32.9413 219.703 33.0133 219.394 33.056C219.09 33.0987 218.794 33.12 218.506 33.12C217.935 33.12 217.404 33.0267 216.914 32.84C216.423 32.648 215.996 32.368 215.634 32C215.271 31.6267 214.986 31.168 214.778 30.624C214.57 30.0747 214.465 29.44 214.465 28.72C214.465 28.16 214.556 27.6347 214.738 27.144C214.919 26.648 215.178 26.2187 215.514 25.856C215.855 25.488 216.268 25.1973 216.754 24.984C217.244 24.7707 217.796 24.664 218.41 24.664C218.927 24.664 219.404 24.7467 219.842 24.912C220.279 25.0773 220.655 25.32 220.97 25.64C221.284 25.9547 221.53 26.344 221.706 26.808C221.887 27.2667 221.977 27.792 221.977 28.384C221.977 28.6827 221.946 28.8853 221.882 28.992C221.818 29.0933 221.695 29.144 221.514 29.144H216.434ZM229.823 23.144V26.352H233.871V28.008H229.823V31.28H234.959V33H227.663V21.432H234.959V23.144H229.823ZM236.382 33V24.792H237.59C237.846 24.792 238.014 24.912 238.094 25.152L238.222 25.76C238.366 25.6 238.516 25.4533 238.67 25.32C238.83 25.1867 238.998 25.072 239.174 24.976C239.356 24.88 239.548 24.8053 239.75 24.752C239.958 24.6933 240.185 24.664 240.43 24.664C240.948 24.664 241.372 24.8053 241.702 25.088C242.038 25.3653 242.289 25.736 242.454 26.2C242.582 25.928 242.742 25.696 242.934 25.504C243.126 25.3067 243.337 25.1467 243.566 25.024C243.796 24.9013 244.038 24.8107 244.294 24.752C244.556 24.6933 244.817 24.664 245.078 24.664C245.532 24.664 245.934 24.7333 246.286 24.872C246.638 25.0107 246.934 25.2133 247.174 25.48C247.414 25.7467 247.596 26.072 247.718 26.456C247.846 26.84 247.91 27.28 247.91 27.776V33H245.934V27.776C245.934 27.2533 245.82 26.8613 245.59 26.6C245.361 26.3333 245.025 26.2 244.582 26.2C244.38 26.2 244.19 26.2347 244.014 26.304C243.844 26.3733 243.692 26.4747 243.558 26.608C243.43 26.736 243.329 26.8987 243.254 27.096C243.18 27.2933 243.142 27.52 243.142 27.776V33H241.158V27.776C241.158 27.2267 241.046 26.8267 240.822 26.576C240.604 26.3253 240.281 26.2 239.854 26.2C239.566 26.2 239.297 26.272 239.046 26.416C238.801 26.5547 238.572 26.7467 238.358 26.992V33H236.382ZM255.077 27.952C255.077 27.696 255.039 27.456 254.965 27.232C254.895 27.0027 254.789 26.8027 254.645 26.632C254.501 26.4613 254.317 26.328 254.093 26.232C253.874 26.1307 253.618 26.08 253.325 26.08C252.754 26.08 252.303 26.2427 251.973 26.568C251.647 26.8933 251.439 27.3547 251.349 27.952H255.077ZM251.309 29.144C251.341 29.5653 251.415 29.9307 251.533 30.24C251.65 30.544 251.805 30.7973 251.997 31C252.189 31.1973 252.415 31.3467 252.677 31.448C252.943 31.544 253.237 31.592 253.557 31.592C253.877 31.592 254.151 31.5547 254.381 31.48C254.615 31.4053 254.818 31.3227 254.989 31.232C255.165 31.1413 255.317 31.0587 255.445 30.984C255.578 30.9093 255.706 30.872 255.829 30.872C255.994 30.872 256.117 30.9333 256.197 31.056L256.765 31.776C256.546 32.032 256.301 32.248 256.029 32.424C255.757 32.5947 255.471 32.7333 255.173 32.84C254.879 32.9413 254.578 33.0133 254.269 33.056C253.965 33.0987 253.669 33.12 253.381 33.12C252.81 33.12 252.279 33.0267 251.789 32.84C251.298 32.648 250.871 32.368 250.509 32C250.146 31.6267 249.861 31.168 249.653 30.624C249.445 30.0747 249.34 29.44 249.34 28.72C249.34 28.16 249.431 27.6347 249.613 27.144C249.794 26.648 250.053 26.2187 250.389 25.856C250.73 25.488 251.143 25.1973 251.629 24.984C252.119 24.7707 252.671 24.664 253.285 24.664C253.802 24.664 254.279 24.7467 254.717 24.912C255.154 25.0773 255.53 25.32 255.845 25.64C256.159 25.9547 256.405 26.344 256.581 26.808C256.762 27.2667 256.852 27.792 256.852 28.384C256.852 28.6827 256.821 28.8853 256.757 28.992C256.693 29.0933 256.57 29.144 256.389 29.144H251.309ZM260.199 26.216C260.455 25.7253 260.759 25.3413 261.111 25.064C261.463 24.7813 261.879 24.64 262.359 24.64C262.738 24.64 263.042 24.7227 263.271 24.888L263.143 26.368C263.117 26.464 263.077 26.5333 263.023 26.576C262.975 26.6133 262.909 26.632 262.823 26.632C262.743 26.632 262.623 26.6187 262.463 26.592C262.309 26.5653 262.157 26.552 262.007 26.552C261.789 26.552 261.594 26.584 261.423 26.648C261.253 26.712 261.098 26.8053 260.959 26.928C260.826 27.0453 260.706 27.1893 260.599 27.36C260.498 27.5307 260.402 27.7253 260.311 27.944V33H258.335V24.792H259.495C259.698 24.792 259.839 24.8293 259.919 24.904C259.999 24.9733 260.053 25.1013 260.079 25.288L260.199 26.216ZM267.21 28.696C267.456 28.696 267.669 28.664 267.85 28.6C268.032 28.5307 268.181 28.4373 268.298 28.32C268.421 28.2027 268.512 28.0613 268.57 27.896C268.634 27.7307 268.666 27.5493 268.666 27.352C268.666 26.9467 268.544 26.6267 268.298 26.392C268.058 26.152 267.696 26.032 267.21 26.032C266.725 26.032 266.36 26.152 266.114 26.392C265.874 26.6267 265.754 26.9467 265.754 27.352C265.754 27.544 265.784 27.7227 265.842 27.888C265.906 28.0533 265.997 28.1973 266.114 28.32C266.237 28.4373 266.389 28.5307 266.57 28.6C266.757 28.664 266.97 28.696 267.21 28.696ZM269.442 33.368C269.442 33.208 269.394 33.0773 269.298 32.976C269.202 32.8747 269.072 32.7973 268.906 32.744C268.741 32.6853 268.546 32.6427 268.322 32.616C268.104 32.5893 267.869 32.5707 267.618 32.56C267.373 32.544 267.117 32.5307 266.85 32.52C266.589 32.5093 266.333 32.488 266.082 32.456C265.864 32.5787 265.685 32.7227 265.546 32.888C265.413 33.0533 265.346 33.2453 265.346 33.464C265.346 33.608 265.381 33.7413 265.45 33.864C265.525 33.992 265.64 34.1013 265.794 34.192C265.954 34.2827 266.16 34.352 266.41 34.4C266.661 34.4533 266.968 34.48 267.33 34.48C267.698 34.48 268.016 34.4507 268.282 34.392C268.549 34.3387 268.768 34.2613 268.938 34.16C269.114 34.064 269.242 33.9467 269.322 33.808C269.402 33.6747 269.442 33.528 269.442 33.368ZM271.41 25.072V25.808C271.41 26.0427 271.269 26.1867 270.986 26.24L270.25 26.376C270.362 26.6587 270.418 26.968 270.418 27.304C270.418 27.7093 270.336 28.0773 270.17 28.408C270.01 28.7333 269.786 29.0107 269.498 29.24C269.21 29.4693 268.869 29.648 268.474 29.776C268.085 29.8987 267.664 29.96 267.21 29.96C267.05 29.96 266.896 29.952 266.746 29.936C266.597 29.92 266.45 29.8987 266.306 29.872C266.05 30.0267 265.922 30.2 265.922 30.392C265.922 30.5573 265.997 30.68 266.146 30.76C266.301 30.8347 266.504 30.888 266.754 30.92C267.005 30.952 267.29 30.9733 267.61 30.984C267.93 30.9893 268.258 31.0053 268.594 31.032C268.93 31.0587 269.258 31.1067 269.578 31.176C269.898 31.24 270.184 31.344 270.434 31.488C270.685 31.632 270.885 31.8293 271.034 32.08C271.189 32.3253 271.266 32.6427 271.266 33.032C271.266 33.3947 271.176 33.7467 270.994 34.088C270.818 34.4293 270.56 34.7333 270.218 35C269.882 35.2667 269.466 35.48 268.97 35.64C268.48 35.8053 267.92 35.888 267.29 35.888C266.672 35.888 266.133 35.8267 265.674 35.704C265.216 35.5867 264.834 35.4267 264.53 35.224C264.226 35.0267 264 34.7973 263.85 34.536C263.701 34.2747 263.626 34.0027 263.626 33.72C263.626 33.336 263.741 33.016 263.97 32.76C264.205 32.4987 264.525 32.2907 264.93 32.136C264.712 32.024 264.538 31.8747 264.41 31.688C264.282 31.5013 264.218 31.256 264.218 30.952C264.218 30.8293 264.24 30.704 264.282 30.576C264.33 30.4427 264.397 30.312 264.482 30.184C264.573 30.056 264.685 29.936 264.818 29.824C264.952 29.7067 265.109 29.6027 265.29 29.512C264.874 29.288 264.546 28.9893 264.306 28.616C264.072 28.2427 263.954 27.8053 263.954 27.304C263.954 26.8987 264.034 26.5333 264.194 26.208C264.36 25.8773 264.586 25.5973 264.874 25.368C265.168 25.1333 265.512 24.9547 265.906 24.832C266.306 24.7093 266.741 24.648 267.21 24.648C267.562 24.648 267.893 24.6853 268.202 24.76C268.512 24.8293 268.794 24.9333 269.05 25.072H271.41ZM277.811 27.952C277.811 27.696 277.774 27.456 277.699 27.232C277.63 27.0027 277.523 26.8027 277.379 26.632C277.235 26.4613 277.051 26.328 276.827 26.232C276.608 26.1307 276.352 26.08 276.059 26.08C275.488 26.08 275.038 26.2427 274.707 26.568C274.382 26.8933 274.174 27.3547 274.083 27.952H277.811ZM274.043 29.144C274.075 29.5653 274.15 29.9307 274.267 30.24C274.384 30.544 274.539 30.7973 274.731 31C274.923 31.1973 275.15 31.3467 275.411 31.448C275.678 31.544 275.971 31.592 276.291 31.592C276.611 31.592 276.886 31.5547 277.115 31.48C277.35 31.4053 277.552 31.3227 277.723 31.232C277.899 31.1413 278.051 31.0587 278.179 30.984C278.312 30.9093 278.44 30.872 278.563 30.872C278.728 30.872 278.851 30.9333 278.931 31.056L279.499 31.776C279.28 32.032 279.035 32.248 278.763 32.424C278.491 32.5947 278.206 32.7333 277.907 32.84C277.614 32.9413 277.312 33.0133 277.003 33.056C276.699 33.0987 276.403 33.12 276.115 33.12C275.544 33.12 275.014 33.0267 274.523 32.84C274.032 32.648 273.606 32.368 273.243 32C272.88 31.6267 272.595 31.168 272.387 30.624C272.179 30.0747 272.075 29.44 272.075 28.72C272.075 28.16 272.166 27.6347 272.347 27.144C272.528 26.648 272.787 26.2187 273.123 25.856C273.464 25.488 273.878 25.1973 274.363 24.984C274.854 24.7707 275.406 24.664 276.019 24.664C276.536 24.664 277.014 24.7467 277.451 24.912C277.888 25.0773 278.264 25.32 278.579 25.64C278.894 25.9547 279.139 26.344 279.315 26.808C279.496 27.2667 279.587 27.792 279.587 28.384C279.587 28.6827 279.555 28.8853 279.491 28.992C279.427 29.0933 279.304 29.144 279.123 29.144H274.043ZM278.827 23.656H277.507C277.432 23.656 277.355 23.6427 277.275 23.616C277.2 23.584 277.126 23.5307 277.051 23.456L276.267 22.624C276.208 22.5707 276.152 22.5067 276.099 22.432C276.04 22.5067 275.984 22.5707 275.931 22.624L275.131 23.456C275.067 23.5253 274.995 23.576 274.915 23.608C274.835 23.64 274.755 23.656 274.675 23.656H273.307L275.139 21.432H276.995L278.827 23.656ZM282.918 25.8C283.083 25.6347 283.256 25.4827 283.438 25.344C283.624 25.2 283.819 25.08 284.022 24.984C284.23 24.8827 284.451 24.8053 284.686 24.752C284.92 24.6933 285.176 24.664 285.454 24.664C285.902 24.664 286.299 24.7413 286.646 24.896C286.992 25.0453 287.28 25.2587 287.51 25.536C287.744 25.808 287.92 26.136 288.038 26.52C288.16 26.8987 288.222 27.3173 288.222 27.776V33H286.246V27.776C286.246 27.2747 286.131 26.888 285.902 26.616C285.672 26.3387 285.323 26.2 284.854 26.2C284.512 26.2 284.192 26.2773 283.894 26.432C283.595 26.5867 283.312 26.7973 283.046 27.064V33H281.07V24.792H282.278C282.534 24.792 282.702 24.912 282.782 25.152L282.918 25.8ZM295.981 26.528C295.922 26.6027 295.864 26.6613 295.805 26.704C295.752 26.7467 295.672 26.768 295.565 26.768C295.464 26.768 295.365 26.7387 295.269 26.68C295.173 26.616 295.058 26.5467 294.925 26.472C294.792 26.392 294.632 26.3227 294.445 26.264C294.264 26.2 294.037 26.168 293.765 26.168C293.418 26.168 293.114 26.232 292.853 26.36C292.592 26.4827 292.373 26.6613 292.197 26.896C292.026 27.1307 291.898 27.416 291.813 27.752C291.728 28.0827 291.685 28.4587 291.685 28.88C291.685 29.3173 291.73 29.7067 291.821 30.048C291.917 30.3893 292.053 30.6773 292.229 30.912C292.405 31.1413 292.618 31.3173 292.869 31.44C293.12 31.5573 293.402 31.616 293.717 31.616C294.032 31.616 294.285 31.5787 294.477 31.504C294.674 31.424 294.84 31.3387 294.973 31.248C295.106 31.152 295.221 31.0667 295.317 30.992C295.418 30.912 295.53 30.872 295.653 30.872C295.813 30.872 295.933 30.9333 296.013 31.056L296.581 31.776C296.362 32.032 296.125 32.248 295.869 32.424C295.613 32.5947 295.346 32.7333 295.069 32.84C294.797 32.9413 294.514 33.0133 294.221 33.056C293.933 33.0987 293.645 33.12 293.357 33.12C292.85 33.12 292.373 33.0267 291.925 32.84C291.477 32.648 291.085 32.3707 290.749 32.008C290.413 31.6453 290.146 31.2027 289.949 30.68C289.757 30.152 289.661 29.552 289.661 28.88C289.661 28.2773 289.746 27.72 289.917 27.208C290.093 26.6907 290.349 26.2453 290.685 25.872C291.021 25.4933 291.437 25.1973 291.933 24.984C292.429 24.7707 293 24.664 293.645 24.664C294.258 24.664 294.794 24.7627 295.253 24.96C295.717 25.1573 296.133 25.44 296.501 25.808L295.981 26.528ZM299.868 24.792V33H297.884V24.792H299.868ZM300.14 22.4C300.14 22.5707 300.105 22.7307 300.036 22.88C299.966 23.0293 299.873 23.16 299.756 23.272C299.644 23.384 299.51 23.4747 299.356 23.544C299.201 23.608 299.036 23.64 298.86 23.64C298.689 23.64 298.526 23.608 298.372 23.544C298.222 23.4747 298.092 23.384 297.98 23.272C297.868 23.16 297.777 23.0293 297.708 22.88C297.644 22.7307 297.612 22.5707 297.612 22.4C297.612 22.224 297.644 22.0587 297.708 21.904C297.777 21.7493 297.868 21.616 297.98 21.504C298.092 21.392 298.222 21.304 298.372 21.24C298.526 21.1707 298.689 21.136 298.86 21.136C299.036 21.136 299.201 21.1707 299.356 21.24C299.51 21.304 299.644 21.392 299.756 21.504C299.873 21.616 299.966 21.7493 300.036 21.904C300.105 22.0587 300.14 22.224 300.14 22.4ZM306.218 29.496C305.648 29.5227 305.168 29.5733 304.778 29.648C304.389 29.7173 304.077 29.808 303.842 29.92C303.608 30.032 303.44 30.1627 303.338 30.312C303.237 30.4613 303.186 30.624 303.186 30.8C303.186 31.1467 303.288 31.3947 303.49 31.544C303.698 31.6933 303.968 31.768 304.298 31.768C304.704 31.768 305.053 31.696 305.346 31.552C305.645 31.4027 305.936 31.1787 306.218 30.88V29.496ZM301.69 25.936C302.634 25.072 303.77 24.64 305.098 24.64C305.578 24.64 306.008 24.72 306.386 24.88C306.765 25.0347 307.085 25.2533 307.346 25.536C307.608 25.8133 307.805 26.1467 307.938 26.536C308.077 26.9253 308.146 27.352 308.146 27.816V33H307.25C307.064 33 306.92 32.9733 306.818 32.92C306.717 32.8613 306.637 32.7467 306.578 32.576L306.402 31.984C306.194 32.1707 305.992 32.336 305.794 32.48C305.597 32.6187 305.392 32.736 305.178 32.832C304.965 32.928 304.736 33 304.49 33.048C304.25 33.1013 303.984 33.128 303.69 33.128C303.344 33.128 303.024 33.0827 302.73 32.992C302.437 32.896 302.184 32.7547 301.97 32.568C301.757 32.3813 301.592 32.1493 301.474 31.872C301.357 31.5947 301.298 31.272 301.298 30.904C301.298 30.696 301.333 30.4907 301.402 30.288C301.472 30.08 301.584 29.8827 301.738 29.696C301.898 29.5093 302.104 29.3333 302.354 29.168C302.605 29.0027 302.912 28.8587 303.274 28.736C303.642 28.6133 304.069 28.5147 304.554 28.44C305.04 28.36 305.594 28.312 306.218 28.296V27.816C306.218 27.2667 306.101 26.8613 305.866 26.6C305.632 26.3333 305.293 26.2 304.85 26.2C304.53 26.2 304.264 26.2373 304.05 26.312C303.842 26.3867 303.658 26.472 303.498 26.568C303.338 26.6587 303.192 26.7413 303.058 26.816C302.93 26.8907 302.786 26.928 302.626 26.928C302.488 26.928 302.37 26.8933 302.274 26.824C302.178 26.7493 302.101 26.664 302.042 26.568L301.69 25.936ZM80.232 52.272C80.3493 52.272 80.4533 52.3173 80.544 52.408L81.392 53.328C80.9227 53.9093 80.344 54.3547 79.656 54.664C78.9733 54.9733 78.152 55.128 77.192 55.128C76.3333 55.128 75.56 54.9813 74.872 54.688C74.1893 54.3947 73.6053 53.9867 73.12 53.464C72.6347 52.9413 72.2613 52.3173 72 51.592C71.744 50.8667 71.616 50.0747 71.616 49.216C71.616 48.3467 71.7547 47.552 72.032 46.832C72.3093 46.1067 72.6987 45.4827 73.2 44.96C73.7067 44.4373 74.3093 44.032 75.008 43.744C75.7067 43.4507 76.48 43.304 77.328 43.304C78.1707 43.304 78.9173 43.4427 79.568 43.72C80.224 43.9973 80.7813 44.36 81.24 44.808L80.52 45.808C80.4773 45.872 80.4213 45.928 80.352 45.976C80.288 46.024 80.1973 46.048 80.08 46.048C80 46.048 79.9173 46.0267 79.832 45.984C79.7467 45.936 79.6533 45.88 79.552 45.816C79.4507 45.7467 79.3333 45.672 79.2 45.592C79.0667 45.512 78.912 45.44 78.736 45.376C78.56 45.3067 78.3547 45.2507 78.12 45.208C77.8907 45.16 77.624 45.136 77.32 45.136C76.8027 45.136 76.328 45.2293 75.896 45.416C75.4693 45.5973 75.1013 45.864 74.792 46.216C74.4827 46.5627 74.2427 46.9893 74.072 47.496C73.9013 47.9973 73.816 48.5707 73.816 49.216C73.816 49.8667 73.9067 50.4453 74.088 50.952C74.2747 51.4587 74.5253 51.8853 74.84 52.232C75.1547 52.5787 75.5253 52.8453 75.952 53.032C76.3787 53.2133 76.8373 53.304 77.328 53.304C77.6213 53.304 77.8853 53.288 78.12 53.256C78.36 53.224 78.5787 53.1733 78.776 53.104C78.9787 53.0347 79.168 52.9467 79.344 52.84C79.5253 52.728 79.704 52.592 79.88 52.432C79.9333 52.384 79.9893 52.3467 80.048 52.32C80.1067 52.288 80.168 52.272 80.232 52.272ZM84.5541 43.112V55H82.5781V43.112H84.5541ZM88.5709 46.792V55H86.5869V46.792H88.5709ZM88.8429 44.4C88.8429 44.5707 88.8082 44.7307 88.7389 44.88C88.6695 45.0293 88.5762 45.16 88.4589 45.272C88.3469 45.384 88.2135 45.4747 88.0589 45.544C87.9042 45.608 87.7389 45.64 87.5629 45.64C87.3922 45.64 87.2295 45.608 87.0749 45.544C86.9255 45.4747 86.7949 45.384 86.6829 45.272C86.5709 45.16 86.4802 45.0293 86.4109 44.88C86.3469 44.7307 86.3149 44.5707 86.3149 44.4C86.3149 44.224 86.3469 44.0587 86.4109 43.904C86.4802 43.7493 86.5709 43.616 86.6829 43.504C86.7949 43.392 86.9255 43.304 87.0749 43.24C87.2295 43.1707 87.3922 43.136 87.5629 43.136C87.7389 43.136 87.9042 43.1707 88.0589 43.24C88.2135 43.304 88.3469 43.392 88.4589 43.504C88.5762 43.616 88.6695 43.7493 88.7389 43.904C88.8082 44.0587 88.8429 44.224 88.8429 44.4ZM90.5854 55V46.792H91.7934C92.0494 46.792 92.2174 46.912 92.2974 47.152L92.4254 47.76C92.5694 47.6 92.7187 47.4533 92.8734 47.32C93.0334 47.1867 93.2014 47.072 93.3774 46.976C93.5587 46.88 93.7507 46.8053 93.9534 46.752C94.1614 46.6933 94.388 46.664 94.6334 46.664C95.1507 46.664 95.5747 46.8053 95.9054 47.088C96.2414 47.3653 96.492 47.736 96.6574 48.2C96.7854 47.928 96.9454 47.696 97.1374 47.504C97.3294 47.3067 97.54 47.1467 97.7694 47.024C97.9987 46.9013 98.2414 46.8107 98.4974 46.752C98.7587 46.6933 99.02 46.664 99.2814 46.664C99.7347 46.664 100.137 46.7333 100.489 46.872C100.841 47.0107 101.137 47.2133 101.377 47.48C101.617 47.7467 101.799 48.072 101.921 48.456C102.049 48.84 102.113 49.28 102.113 49.776V55H100.137V49.776C100.137 49.2533 100.023 48.8613 99.7934 48.6C99.564 48.3333 99.228 48.2 98.7854 48.2C98.5827 48.2 98.3934 48.2347 98.2174 48.304C98.0467 48.3733 97.8947 48.4747 97.7614 48.608C97.6334 48.736 97.532 48.8987 97.4574 49.096C97.3827 49.2933 97.3454 49.52 97.3454 49.776V55H95.3614V49.776C95.3614 49.2267 95.2494 48.8267 95.0254 48.576C94.8067 48.3253 94.484 48.2 94.0574 48.2C93.7694 48.2 93.5 48.272 93.2494 48.416C93.004 48.5547 92.7747 48.7467 92.5614 48.992V55H90.5854ZM108.328 51.496C107.757 51.5227 107.277 51.5733 106.888 51.648C106.498 51.7173 106.186 51.808 105.952 51.92C105.717 52.032 105.549 52.1627 105.448 52.312C105.346 52.4613 105.296 52.624 105.296 52.8C105.296 53.1467 105.397 53.3947 105.6 53.544C105.808 53.6933 106.077 53.768 106.408 53.768C106.813 53.768 107.162 53.696 107.456 53.552C107.754 53.4027 108.045 53.1787 108.328 52.88V51.496ZM103.8 47.936C104.744 47.072 105.88 46.64 107.208 46.64C107.688 46.64 108.117 46.72 108.496 46.88C108.874 47.0347 109.194 47.2533 109.456 47.536C109.717 47.8133 109.914 48.1467 110.048 48.536C110.186 48.9253 110.256 49.352 110.256 49.816V55H109.36C109.173 55 109.029 54.9733 108.928 54.92C108.826 54.8613 108.746 54.7467 108.688 54.576L108.512 53.984C108.304 54.1707 108.101 54.336 107.904 54.48C107.706 54.6187 107.501 54.736 107.288 54.832C107.074 54.928 106.845 55 106.6 55.048C106.36 55.1013 106.093 55.128 105.8 55.128C105.453 55.128 105.133 55.0827 104.84 54.992C104.546 54.896 104.293 54.7547 104.08 54.568C103.866 54.3813 103.701 54.1493 103.584 53.872C103.466 53.5947 103.408 53.272 103.408 52.904C103.408 52.696 103.442 52.4907 103.512 52.288C103.581 52.08 103.693 51.8827 103.848 51.696C104.008 51.5093 104.213 51.3333 104.464 51.168C104.714 51.0027 105.021 50.8587 105.384 50.736C105.752 50.6133 106.178 50.5147 106.664 50.44C107.149 50.36 107.704 50.312 108.328 50.296V49.816C108.328 49.2667 108.21 48.8613 107.976 48.6C107.741 48.3333 107.402 48.2 106.96 48.2C106.64 48.2 106.373 48.2373 106.16 48.312C105.952 48.3867 105.768 48.472 105.608 48.568C105.448 48.6587 105.301 48.7413 105.168 48.816C105.04 48.8907 104.896 48.928 104.736 48.928C104.597 48.928 104.48 48.8933 104.384 48.824C104.288 48.7493 104.21 48.664 104.152 48.568L103.8 47.936ZM109.792 43.304L107.816 45.392C107.714 45.4987 107.616 45.5733 107.52 45.616C107.429 45.6533 107.309 45.672 107.16 45.672H105.976L107.112 43.728C107.192 43.5893 107.285 43.4853 107.392 43.416C107.498 43.3413 107.658 43.304 107.872 43.304H109.792ZM114.743 55.128C114.029 55.128 113.479 54.928 113.095 54.528C112.717 54.1227 112.527 53.5653 112.527 52.856V48.272H111.687C111.581 48.272 111.49 48.2373 111.415 48.168C111.341 48.0987 111.303 47.9947 111.303 47.856V47.072L112.623 46.856L113.039 44.616C113.066 44.5093 113.117 44.4267 113.191 44.368C113.266 44.3093 113.362 44.28 113.479 44.28H114.503V46.864H116.695V48.272H114.503V52.72C114.503 52.976 114.565 53.176 114.687 53.32C114.815 53.464 114.989 53.536 115.207 53.536C115.33 53.536 115.431 53.5227 115.511 53.496C115.597 53.464 115.669 53.432 115.727 53.4C115.791 53.368 115.847 53.3387 115.895 53.312C115.943 53.28 115.991 53.264 116.039 53.264C116.098 53.264 116.146 53.28 116.183 53.312C116.221 53.3387 116.261 53.3813 116.303 53.44L116.895 54.4C116.607 54.64 116.277 54.8213 115.903 54.944C115.53 55.0667 115.143 55.128 114.743 55.128ZM120.008 46.792V55H118.024V46.792H120.008ZM120.28 44.4C120.28 44.5707 120.246 44.7307 120.176 44.88C120.107 45.0293 120.014 45.16 119.896 45.272C119.784 45.384 119.651 45.4747 119.496 45.544C119.342 45.608 119.176 45.64 119 45.64C118.83 45.64 118.667 45.608 118.512 45.544C118.363 45.4747 118.232 45.384 118.12 45.272C118.008 45.16 117.918 45.0293 117.848 44.88C117.784 44.7307 117.752 44.5707 117.752 44.4C117.752 44.224 117.784 44.0587 117.848 43.904C117.918 43.7493 118.008 43.616 118.12 43.504C118.232 43.392 118.363 43.304 118.512 43.24C118.667 43.1707 118.83 43.136 119 43.136C119.176 43.136 119.342 43.1707 119.496 43.24C119.651 43.304 119.784 43.392 119.896 43.504C120.014 43.616 120.107 43.7493 120.176 43.904C120.246 44.0587 120.28 44.224 120.28 44.4ZM127.903 48.528C127.844 48.6027 127.786 48.6613 127.727 48.704C127.674 48.7467 127.594 48.768 127.487 48.768C127.386 48.768 127.287 48.7387 127.191 48.68C127.095 48.616 126.98 48.5467 126.847 48.472C126.714 48.392 126.554 48.3227 126.367 48.264C126.186 48.2 125.959 48.168 125.687 48.168C125.34 48.168 125.036 48.232 124.775 48.36C124.514 48.4827 124.295 48.6613 124.119 48.896C123.948 49.1307 123.82 49.416 123.735 49.752C123.65 50.0827 123.607 50.4587 123.607 50.88C123.607 51.3173 123.652 51.7067 123.743 52.048C123.839 52.3893 123.975 52.6773 124.151 52.912C124.327 53.1413 124.54 53.3173 124.791 53.44C125.042 53.5573 125.324 53.616 125.639 53.616C125.954 53.616 126.207 53.5787 126.399 53.504C126.596 53.424 126.762 53.3387 126.895 53.248C127.028 53.152 127.143 53.0667 127.239 52.992C127.34 52.912 127.452 52.872 127.575 52.872C127.735 52.872 127.855 52.9333 127.935 53.056L128.503 53.776C128.284 54.032 128.047 54.248 127.791 54.424C127.535 54.5947 127.268 54.7333 126.991 54.84C126.719 54.9413 126.436 55.0133 126.143 55.056C125.855 55.0987 125.567 55.12 125.279 55.12C124.772 55.12 124.295 55.0267 123.847 54.84C123.399 54.648 123.007 54.3707 122.671 54.008C122.335 53.6453 122.068 53.2027 121.871 52.68C121.679 52.152 121.583 51.552 121.583 50.88C121.583 50.2773 121.668 49.72 121.839 49.208C122.015 48.6907 122.271 48.2453 122.607 47.872C122.943 47.4933 123.359 47.1973 123.855 46.984C124.351 46.7707 124.922 46.664 125.567 46.664C126.18 46.664 126.716 46.7627 127.175 46.96C127.639 47.1573 128.055 47.44 128.423 47.808L127.903 48.528ZM134.078 51.496C133.507 51.5227 133.027 51.5733 132.638 51.648C132.248 51.7173 131.936 51.808 131.702 51.92C131.467 52.032 131.299 52.1627 131.198 52.312C131.096 52.4613 131.046 52.624 131.046 52.8C131.046 53.1467 131.147 53.3947 131.35 53.544C131.558 53.6933 131.827 53.768 132.158 53.768C132.563 53.768 132.912 53.696 133.206 53.552C133.504 53.4027 133.795 53.1787 134.078 52.88V51.496ZM129.55 47.936C130.494 47.072 131.63 46.64 132.958 46.64C133.438 46.64 133.867 46.72 134.246 46.88C134.624 47.0347 134.944 47.2533 135.206 47.536C135.467 47.8133 135.664 48.1467 135.798 48.536C135.936 48.9253 136.006 49.352 136.006 49.816V55H135.11C134.923 55 134.779 54.9733 134.678 54.92C134.576 54.8613 134.496 54.7467 134.438 54.576L134.262 53.984C134.054 54.1707 133.851 54.336 133.654 54.48C133.456 54.6187 133.251 54.736 133.038 54.832C132.824 54.928 132.595 55 132.35 55.048C132.11 55.1013 131.843 55.128 131.55 55.128C131.203 55.128 130.883 55.0827 130.59 54.992C130.296 54.896 130.043 54.7547 129.83 54.568C129.616 54.3813 129.451 54.1493 129.334 53.872C129.216 53.5947 129.158 53.272 129.158 52.904C129.158 52.696 129.192 52.4907 129.262 52.288C129.331 52.08 129.443 51.8827 129.598 51.696C129.758 51.5093 129.963 51.3333 130.214 51.168C130.464 51.0027 130.771 50.8587 131.134 50.736C131.502 50.6133 131.928 50.5147 132.414 50.44C132.899 50.36 133.454 50.312 134.078 50.296V49.816C134.078 49.2667 133.96 48.8613 133.726 48.6C133.491 48.3333 133.152 48.2 132.71 48.2C132.39 48.2 132.123 48.2373 131.91 48.312C131.702 48.3867 131.518 48.472 131.358 48.568C131.198 48.6587 131.051 48.7413 130.918 48.816C130.79 48.8907 130.646 48.928 130.486 48.928C130.347 48.928 130.23 48.8933 130.134 48.824C130.038 48.7493 129.96 48.664 129.902 48.568L129.55 47.936ZM147.045 49.952C147.045 49.696 147.008 49.456 146.933 49.232C146.864 49.0027 146.757 48.8027 146.613 48.632C146.469 48.4613 146.285 48.328 146.061 48.232C145.843 48.1307 145.587 48.08 145.293 48.08C144.723 48.08 144.272 48.2427 143.941 48.568C143.616 48.8933 143.408 49.3547 143.317 49.952H147.045ZM143.277 51.144C143.309 51.5653 143.384 51.9307 143.501 52.24C143.619 52.544 143.773 52.7973 143.965 53C144.157 53.1973 144.384 53.3467 144.645 53.448C144.912 53.544 145.205 53.592 145.525 53.592C145.845 53.592 146.12 53.5547 146.349 53.48C146.584 53.4053 146.787 53.3227 146.957 53.232C147.133 53.1413 147.285 53.0587 147.413 52.984C147.547 52.9093 147.675 52.872 147.797 52.872C147.963 52.872 148.085 52.9333 148.165 53.056L148.733 53.776C148.515 54.032 148.269 54.248 147.997 54.424C147.725 54.5947 147.44 54.7333 147.141 54.84C146.848 54.9413 146.547 55.0133 146.237 55.056C145.933 55.0987 145.637 55.12 145.349 55.12C144.779 55.12 144.248 55.0267 143.757 54.84C143.267 54.648 142.84 54.368 142.477 54C142.115 53.6267 141.829 53.168 141.621 52.624C141.413 52.0747 141.309 51.44 141.309 50.72C141.309 50.16 141.4 49.6347 141.581 49.144C141.763 48.648 142.021 48.2187 142.357 47.856C142.699 47.488 143.112 47.1973 143.597 46.984C144.088 46.7707 144.64 46.664 145.253 46.664C145.771 46.664 146.248 46.7467 146.685 46.912C147.123 47.0773 147.499 47.32 147.813 47.64C148.128 47.9547 148.373 48.344 148.549 48.808C148.731 49.2667 148.821 49.792 148.821 50.384C148.821 50.6827 148.789 50.8853 148.725 50.992C148.661 51.0933 148.539 51.144 148.357 51.144H143.277ZM156.667 55H154.507V43.432H156.667V55ZM160.668 47.8C160.833 47.6347 161.006 47.4827 161.188 47.344C161.374 47.2 161.569 47.08 161.772 46.984C161.98 46.8827 162.201 46.8053 162.436 46.752C162.67 46.6933 162.926 46.664 163.204 46.664C163.652 46.664 164.049 46.7413 164.396 46.896C164.742 47.0453 165.03 47.2587 165.26 47.536C165.494 47.808 165.67 48.136 165.788 48.52C165.91 48.8987 165.972 49.3173 165.972 49.776V55H163.996V49.776C163.996 49.2747 163.881 48.888 163.652 48.616C163.422 48.3387 163.073 48.2 162.604 48.2C162.262 48.2 161.942 48.2773 161.644 48.432C161.345 48.5867 161.062 48.7973 160.796 49.064V55H158.82V46.792H160.028C160.284 46.792 160.452 46.912 160.532 47.152L160.668 47.8ZM171.483 46.664C172.091 46.664 172.643 46.7627 173.139 46.96C173.64 47.1573 174.067 47.4373 174.419 47.8C174.776 48.1627 175.051 48.6053 175.243 49.128C175.435 49.6507 175.531 50.2347 175.531 50.88C175.531 51.5307 175.435 52.1173 175.243 52.64C175.051 53.1627 174.776 53.608 174.419 53.976C174.067 54.344 173.64 54.6267 173.139 54.824C172.643 55.0213 172.091 55.12 171.483 55.12C170.87 55.12 170.312 55.0213 169.811 54.824C169.31 54.6267 168.88 54.344 168.523 53.976C168.171 53.608 167.896 53.1627 167.699 52.64C167.507 52.1173 167.411 51.5307 167.411 50.88C167.411 50.2347 167.507 49.6507 167.699 49.128C167.896 48.6053 168.171 48.1627 168.523 47.8C168.88 47.4373 169.31 47.1573 169.811 46.96C170.312 46.7627 170.87 46.664 171.483 46.664ZM171.483 53.6C172.166 53.6 172.67 53.3707 172.995 52.912C173.326 52.4533 173.491 51.7813 173.491 50.896C173.491 50.0107 173.326 49.336 172.995 48.872C172.67 48.408 172.166 48.176 171.483 48.176C170.79 48.176 170.275 48.4107 169.939 48.88C169.608 49.344 169.443 50.016 169.443 50.896C169.443 51.776 169.608 52.448 169.939 52.912C170.275 53.3707 170.79 53.6 171.483 53.6ZM184.189 46.792L180.933 55H179.141L175.885 46.792H177.517C177.666 46.792 177.789 46.8267 177.885 46.896C177.986 46.9653 178.053 47.0533 178.085 47.16L179.669 51.544C179.754 51.8 179.829 52.0507 179.893 52.296C179.957 52.5413 180.013 52.7867 180.061 53.032C180.114 52.7867 180.173 52.5413 180.237 52.296C180.301 52.0507 180.378 51.8 180.469 51.544L182.085 47.16C182.122 47.0533 182.189 46.9653 182.285 46.896C182.381 46.8267 182.495 46.792 182.629 46.792H184.189ZM189.375 51.496C188.804 51.5227 188.324 51.5733 187.935 51.648C187.545 51.7173 187.233 51.808 186.999 51.92C186.764 52.032 186.596 52.1627 186.495 52.312C186.393 52.4613 186.343 52.624 186.343 52.8C186.343 53.1467 186.444 53.3947 186.647 53.544C186.855 53.6933 187.124 53.768 187.455 53.768C187.86 53.768 188.209 53.696 188.503 53.552C188.801 53.4027 189.092 53.1787 189.375 52.88V51.496ZM184.847 47.936C185.791 47.072 186.927 46.64 188.255 46.64C188.735 46.64 189.164 46.72 189.543 46.88C189.921 47.0347 190.241 47.2533 190.503 47.536C190.764 47.8133 190.961 48.1467 191.095 48.536C191.233 48.9253 191.303 49.352 191.303 49.816V55H190.407C190.22 55 190.076 54.9733 189.975 54.92C189.873 54.8613 189.793 54.7467 189.735 54.576L189.559 53.984C189.351 54.1707 189.148 54.336 188.951 54.48C188.753 54.6187 188.548 54.736 188.335 54.832C188.121 54.928 187.892 55 187.647 55.048C187.407 55.1013 187.14 55.128 186.847 55.128C186.5 55.128 186.18 55.0827 185.887 54.992C185.593 54.896 185.34 54.7547 185.127 54.568C184.913 54.3813 184.748 54.1493 184.631 53.872C184.513 53.5947 184.455 53.272 184.455 52.904C184.455 52.696 184.489 52.4907 184.559 52.288C184.628 52.08 184.74 51.8827 184.895 51.696C185.055 51.5093 185.26 51.3333 185.511 51.168C185.761 51.0027 186.068 50.8587 186.431 50.736C186.799 50.6133 187.225 50.5147 187.711 50.44C188.196 50.36 188.751 50.312 189.375 50.296V49.816C189.375 49.2667 189.257 48.8613 189.023 48.6C188.788 48.3333 188.449 48.2 188.007 48.2C187.687 48.2 187.42 48.2373 187.207 48.312C186.999 48.3867 186.815 48.472 186.655 48.568C186.495 48.6587 186.348 48.7413 186.215 48.816C186.087 48.8907 185.943 48.928 185.783 48.928C185.644 48.928 185.527 48.8933 185.431 48.824C185.335 48.7493 185.257 48.664 185.199 48.568L184.847 47.936ZM199.644 53.776C199.281 54.2027 198.87 54.5173 198.412 54.72C197.958 54.9173 197.489 55.04 197.004 55.088L196.9 55.488C197.401 55.6053 197.75 55.7627 197.948 55.96C198.15 56.1627 198.252 56.4027 198.252 56.68C198.252 56.8613 198.204 57.024 198.108 57.168C198.017 57.312 197.884 57.4347 197.708 57.536C197.537 57.6373 197.332 57.7147 197.092 57.768C196.857 57.8213 196.596 57.848 196.308 57.848C196.089 57.848 195.884 57.832 195.692 57.8C195.5 57.7733 195.313 57.7307 195.132 57.672L195.308 57.056C195.34 56.9333 195.417 56.872 195.54 56.872C195.614 56.872 195.697 56.8907 195.788 56.928C195.878 56.9707 196.009 56.992 196.18 56.992C196.356 56.992 196.486 56.9573 196.572 56.888C196.662 56.824 196.707 56.744 196.707 56.648C196.707 56.4933 196.612 56.3813 196.42 56.312C196.228 56.248 195.932 56.1867 195.532 56.128L195.884 55.08C195.436 55.016 195.02 54.8773 194.636 54.664C194.252 54.4453 193.918 54.16 193.636 53.808C193.353 53.4507 193.129 53.0267 192.964 52.536C192.804 52.0453 192.724 51.4933 192.724 50.88C192.724 50.2773 192.809 49.72 192.98 49.208C193.156 48.6907 193.412 48.2453 193.748 47.872C194.084 47.4933 194.5 47.1973 194.996 46.984C195.492 46.7707 196.062 46.664 196.707 46.664C197.321 46.664 197.857 46.7627 198.316 46.96C198.78 47.1573 199.196 47.44 199.564 47.808L199.044 48.528C198.985 48.6027 198.926 48.6613 198.868 48.704C198.814 48.7467 198.734 48.768 198.628 48.768C198.526 48.768 198.428 48.7387 198.332 48.68C198.236 48.616 198.121 48.5467 197.988 48.472C197.854 48.392 197.694 48.3227 197.508 48.264C197.326 48.2 197.1 48.168 196.828 48.168C196.481 48.168 196.177 48.232 195.916 48.36C195.654 48.4827 195.436 48.6613 195.26 48.896C195.089 49.1307 194.961 49.416 194.876 49.752C194.79 50.0827 194.748 50.4587 194.748 50.88C194.748 51.3173 194.793 51.7067 194.884 52.048C194.98 52.3893 195.116 52.6773 195.292 52.912C195.468 53.1413 195.681 53.3173 195.932 53.44C196.182 53.5573 196.465 53.616 196.78 53.616C197.094 53.616 197.348 53.5787 197.54 53.504C197.737 53.424 197.902 53.3387 198.036 53.248C198.169 53.152 198.284 53.0667 198.38 52.992C198.481 52.912 198.593 52.872 198.716 52.872C198.876 52.872 198.996 52.9333 199.076 53.056L199.644 53.776ZM205.234 51.496C204.663 51.5227 204.183 51.5733 203.794 51.648C203.405 51.7173 203.093 51.808 202.858 51.92C202.623 52.032 202.455 52.1627 202.354 52.312C202.253 52.4613 202.202 52.624 202.202 52.8C202.202 53.1467 202.303 53.3947 202.506 53.544C202.714 53.6933 202.983 53.768 203.314 53.768C203.719 53.768 204.069 53.696 204.362 53.552C204.661 53.4027 204.951 53.1787 205.234 52.88V51.496ZM200.706 47.936C201.65 47.072 202.786 46.64 204.114 46.64C204.594 46.64 205.023 46.72 205.402 46.88C205.781 47.0347 206.101 47.2533 206.362 47.536C206.623 47.8133 206.821 48.1467 206.954 48.536C207.093 48.9253 207.162 49.352 207.162 49.816V55H206.266C206.079 55 205.935 54.9733 205.834 54.92C205.733 54.8613 205.653 54.7467 205.594 54.576L205.418 53.984C205.21 54.1707 205.007 54.336 204.81 54.48C204.613 54.6187 204.407 54.736 204.194 54.832C203.981 54.928 203.751 55 203.506 55.048C203.266 55.1013 202.999 55.128 202.706 55.128C202.359 55.128 202.039 55.0827 201.746 54.992C201.453 54.896 201.199 54.7547 200.986 54.568C200.773 54.3813 200.607 54.1493 200.49 53.872C200.373 53.5947 200.314 53.272 200.314 52.904C200.314 52.696 200.349 52.4907 200.418 52.288C200.487 52.08 200.599 51.8827 200.754 51.696C200.914 51.5093 201.119 51.3333 201.37 51.168C201.621 51.0027 201.927 50.8587 202.29 50.736C202.658 50.6133 203.085 50.5147 203.57 50.44C204.055 50.36 204.61 50.312 205.234 50.296V49.816C205.234 49.2667 205.117 48.8613 204.882 48.6C204.647 48.3333 204.309 48.2 203.866 48.2C203.546 48.2 203.279 48.2373 203.066 48.312C202.858 48.3867 202.674 48.472 202.514 48.568C202.354 48.6587 202.207 48.7413 202.074 48.816C201.946 48.8907 201.802 48.928 201.642 48.928C201.503 48.928 201.386 48.8933 201.29 48.824C201.194 48.7493 201.117 48.664 201.058 48.568L200.706 47.936ZM204.786 44.128C204.946 44.128 205.071 44.0853 205.162 44C205.253 43.9093 205.298 43.7493 205.298 43.52H206.498C206.498 43.8187 206.455 44.0907 206.37 44.336C206.29 44.576 206.178 44.784 206.034 44.96C205.89 45.1307 205.717 45.264 205.514 45.36C205.317 45.4507 205.098 45.496 204.858 45.496C204.666 45.496 204.487 45.4613 204.322 45.392C204.157 45.3227 204.002 45.248 203.858 45.168C203.714 45.088 203.578 45.0133 203.45 44.944C203.327 44.8747 203.213 44.84 203.106 44.84C202.951 44.84 202.829 44.888 202.738 44.984C202.653 45.0747 202.61 45.232 202.61 45.456H201.386C201.386 45.1573 201.426 44.888 201.506 44.648C201.591 44.4027 201.709 44.1947 201.858 44.024C202.007 43.848 202.181 43.712 202.378 43.616C202.581 43.52 202.799 43.472 203.034 43.472C203.226 43.472 203.405 43.5067 203.57 43.576C203.741 43.6453 203.898 43.72 204.042 43.8C204.186 43.88 204.319 43.9547 204.442 44.024C204.565 44.0933 204.679 44.128 204.786 44.128ZM212.655 46.664C213.263 46.664 213.815 46.7627 214.311 46.96C214.812 47.1573 215.239 47.4373 215.591 47.8C215.948 48.1627 216.223 48.6053 216.415 49.128C216.607 49.6507 216.703 50.2347 216.703 50.88C216.703 51.5307 216.607 52.1173 216.415 52.64C216.223 53.1627 215.948 53.608 215.591 53.976C215.239 54.344 214.812 54.6267 214.311 54.824C213.815 55.0213 213.263 55.12 212.655 55.12C212.042 55.12 211.484 55.0213 210.983 54.824C210.482 54.6267 210.052 54.344 209.695 53.976C209.343 53.608 209.068 53.1627 208.871 52.64C208.679 52.1173 208.583 51.5307 208.583 50.88C208.583 50.2347 208.679 49.6507 208.871 49.128C209.068 48.6053 209.343 48.1627 209.695 47.8C210.052 47.4373 210.482 47.1573 210.983 46.96C211.484 46.7627 212.042 46.664 212.655 46.664ZM212.655 53.6C213.338 53.6 213.842 53.3707 214.167 52.912C214.498 52.4533 214.663 51.7813 214.663 50.896C214.663 50.0107 214.498 49.336 214.167 48.872C213.842 48.408 213.338 48.176 212.655 48.176C211.962 48.176 211.447 48.4107 211.111 48.88C210.78 49.344 210.615 50.016 210.615 50.896C210.615 51.776 210.78 52.448 211.111 52.912C211.447 53.3707 211.962 53.6 212.655 53.6Z" fill="#218738"/>
<circle opacity="0.5" cx="36" cy="36" r="28" fill="#C2C2C2"/>
<path d="M50.9067 40.6295C50.8823 40.5862 50.8562 40.546 50.832 40.5087L47.9591 36.0847C47.851 35.9183 47.6661 35.8179 47.4677 35.8179C47.2692 35.8179 47.0843 35.9183 46.9763 36.0847L44.0255 40.628C43.594 41.2928 43.366 42.0644 43.366 42.8593C43.366 45.1209 45.2059 46.9608 47.4675 46.9608C49.7292 46.9608 51.5691 45.1209 51.5691 42.8593C51.5691 42.0641 51.341 41.2926 50.9067 40.6295ZM47.4675 45.789C45.8521 45.789 44.5378 44.4748 44.5378 42.8594C44.5378 42.2914 44.7006 41.7404 45.0084 41.2662L47.4677 37.4797C48.4186 38.944 49.8928 41.214 49.9249 41.2639C50.2345 41.7404 50.3972 42.2913 50.3972 42.8594C50.3972 44.4748 49.083 45.789 47.4675 45.789Z" fill="#218738"/>
<path d="M53.1663 34.5952C52.6039 32.2341 50.5001 30.5547 48.0391 30.5547C47.9635 30.5547 47.8868 30.5565 47.8091 30.5601C46.9041 28.8777 45.5805 27.4534 43.9616 26.4248C43.3804 26.0556 42.7689 25.7443 42.1357 25.4909C41.5669 23.159 40.238 21.0467 38.3682 19.5155C36.3877 17.8934 33.8845 17 31.3198 17C25.1812 17 20.187 21.9941 20.187 28.1328C20.187 30.5379 20.9658 32.8706 22.3934 34.7854C19.7359 36.0255 18 38.7045 18 41.6875C18 45.8877 21.417 49.3047 25.6172 49.3047H28.9327C29.2048 50.6403 30.3885 51.6484 31.8034 51.6484C33.2182 51.6484 34.4019 50.6403 34.6741 49.3047H35.9859C35.5998 50.0504 35.397 50.8779 35.397 51.7266C35.397 54.6344 37.7627 57 40.6705 57C43.5783 57 45.9439 54.6344 45.9439 51.7266C45.9439 50.8778 45.7411 50.0502 45.3549 49.3047H50.3828C54.583 49.3047 58 45.8877 58 41.6875C58 38.5426 56.0713 35.7343 53.1663 34.5952ZM31.8034 50.4766C30.8341 50.4766 30.0455 49.688 30.0455 48.7188C30.0455 48.378 30.1432 48.0474 30.3277 47.763L31.8034 45.4909C32.5064 46.5733 33.253 47.723 33.2774 47.7608C33.4636 48.0474 33.5612 48.3779 33.5612 48.7188C33.5612 49.688 32.7727 50.4766 31.8034 50.4766ZM40.6705 55.8281C38.4089 55.8281 36.569 53.9882 36.569 51.7266C36.569 50.9314 36.7969 50.1601 37.2279 49.496L40.6707 44.195C42.4267 46.899 44.0713 49.4316 44.1112 49.4933C44.5441 50.16 44.7721 50.9313 44.7721 51.7266C44.7721 53.9882 42.9322 55.8281 40.6705 55.8281ZM50.3828 48.1328H44.6251L41.1621 42.8001C41.0541 42.6337 40.8691 42.5333 40.6707 42.5333C40.4723 42.5333 40.2873 42.6337 40.1793 42.8001L36.7159 48.1328H34.673C34.6003 47.7755 34.4623 47.4338 34.2616 47.1248L34.2559 47.1284C34.2073 47.0411 34.1436 46.9429 34.0671 46.8252L32.2948 44.0959C32.1867 43.9295 32.0018 43.8291 31.8034 43.8291C31.6049 43.8291 31.42 43.9295 31.312 44.0959L29.3447 47.1248C29.1441 47.4339 29.0062 47.7755 28.9336 48.1327H25.6172C22.0632 48.1328 19.1719 45.2415 19.1719 41.6875C19.1719 38.93 20.9239 36.4785 23.5316 35.5872C23.7346 35.5178 23.8834 35.343 23.9196 35.1315C24.257 33.1586 25.9566 31.7266 27.9609 31.7266C28.1228 31.7266 28.2866 31.7369 28.4618 31.7582C28.709 31.7885 28.9482 31.6588 29.0581 31.4353C29.3948 30.7513 29.8143 30.1021 30.3047 29.5058C30.5102 29.2559 30.4743 28.8866 30.2244 28.681C29.9744 28.4755 29.6052 28.5115 29.3996 28.7613C28.938 29.3227 28.5325 29.9263 28.191 30.5601C28.1132 30.5565 28.0364 30.5547 27.9609 30.5547C25.7987 30.5547 23.9127 31.8512 23.105 33.7673C21.9727 32.117 21.3588 30.1534 21.3588 28.1328C21.3588 22.6403 25.8273 18.1719 31.3198 18.1719C35.6448 18.1719 39.4762 21.0096 40.7932 25.0505C39.887 24.8162 38.9494 24.6953 37.9998 24.6953C35.4278 24.6953 32.9181 25.5948 30.933 27.2279C30.6831 27.4334 30.6473 27.8027 30.8529 28.0527C31.0584 28.3025 31.4277 28.3385 31.6777 28.1328C33.4534 26.6718 35.6987 25.8672 37.9998 25.8672C41.8247 25.8672 45.251 28.0008 46.9417 31.4353C47.0517 31.6588 47.2909 31.7879 47.5382 31.7582C47.7132 31.7369 47.877 31.7266 48.039 31.7266C50.0434 31.7266 51.743 33.1586 52.0803 35.1315C52.1165 35.343 52.2653 35.5177 52.4684 35.5872C55.0761 36.4785 56.8281 38.93 56.8281 41.6875C56.8281 45.2415 53.9368 48.1328 50.3828 48.1328Z" fill="#218738"/>
</svg>
