<svg width="328" height="73" viewBox="0 0 328 73" fill="none" xmlns="http://www.w3.org/2000/svg">
<path d="M80.232 30.272C80.3493 30.272 80.4533 30.3173 80.544 30.408L81.392 31.328C80.9227 31.9093 80.344 32.3547 79.656 32.664C78.9733 32.9733 78.152 33.128 77.192 33.128C76.3333 33.128 75.56 32.9813 74.872 32.688C74.1893 32.3947 73.6053 31.9867 73.12 31.464C72.6347 30.9413 72.2613 30.3173 72 29.592C71.744 28.8667 71.616 28.0747 71.616 27.216C71.616 26.3467 71.7547 25.552 72.032 24.832C72.3093 24.1067 72.6987 23.4827 73.2 22.96C73.7067 22.4373 74.3093 22.032 75.008 21.744C75.7067 21.4507 76.48 21.304 77.328 21.304C78.1707 21.304 78.9173 21.4427 79.568 21.72C80.224 21.9973 80.7813 22.36 81.24 22.808L80.52 23.808C80.4773 23.872 80.4213 23.928 80.352 23.976C80.288 24.024 80.1973 24.048 80.08 24.048C80 24.048 79.9173 24.0267 79.832 23.984C79.7467 23.936 79.6533 23.88 79.552 23.816C79.4507 23.7467 79.3333 23.672 79.2 23.592C79.0667 23.512 78.912 23.44 78.736 23.376C78.56 23.3067 78.3547 23.2507 78.12 23.208C77.8907 23.16 77.624 23.136 77.32 23.136C76.8027 23.136 76.328 23.2293 75.896 23.416C75.4693 23.5973 75.1013 23.864 74.792 24.216C74.4827 24.5627 74.2427 24.9893 74.072 25.496C73.9013 25.9973 73.816 26.5707 73.816 27.216C73.816 27.8667 73.9067 28.4453 74.088 28.952C74.2747 29.4587 74.5253 29.8853 74.84 30.232C75.1547 30.5787 75.5253 30.8453 75.952 31.032C76.3787 31.2133 76.8373 31.304 77.328 31.304C77.6213 31.304 77.8853 31.288 78.12 31.256C78.36 31.224 78.5787 31.1733 78.776 31.104C78.9787 31.0347 79.168 30.9467 79.344 30.84C79.5253 30.728 79.704 30.592 79.88 30.432C79.9333 30.384 79.9893 30.3467 80.048 30.32C80.1067 30.288 80.168 30.272 80.232 30.272ZM86.0143 24.664C86.6223 24.664 87.1743 24.7627 87.6703 24.96C88.1716 25.1573 88.5983 25.4373 88.9503 25.8C89.3076 26.1627 89.5822 26.6053 89.7743 27.128C89.9663 27.6507 90.0623 28.2347 90.0623 28.88C90.0623 29.5307 89.9663 30.1173 89.7743 30.64C89.5822 31.1627 89.3076 31.608 88.9503 31.976C88.5983 32.344 88.1716 32.6267 87.6703 32.824C87.1743 33.0213 86.6223 33.12 86.0143 33.12C85.4009 33.12 84.8436 33.0213 84.3423 32.824C83.8409 32.6267 83.4116 32.344 83.0543 31.976C82.7023 31.608 82.4276 31.1627 82.2303 30.64C82.0383 30.1173 81.9423 29.5307 81.9423 28.88C81.9423 28.2347 82.0383 27.6507 82.2303 27.128C82.4276 26.6053 82.7023 26.1627 83.0543 25.8C83.4116 25.4373 83.8409 25.1573 84.3423 24.96C84.8436 24.7627 85.4009 24.664 86.0143 24.664ZM86.0143 31.6C86.6969 31.6 87.2009 31.3707 87.5263 30.912C87.8569 30.4533 88.0223 29.7813 88.0223 28.896C88.0223 28.0107 87.8569 27.336 87.5263 26.872C87.2009 26.408 86.6969 26.176 86.0143 26.176C85.3209 26.176 84.8063 26.4107 84.4703 26.88C84.1396 27.344 83.9743 28.016 83.9743 28.896C83.9743 29.776 84.1396 30.448 84.4703 30.912C84.8063 31.3707 85.3209 31.6 86.0143 31.6ZM91.5698 33V24.792H92.7778C93.0338 24.792 93.2018 24.912 93.2818 25.152L93.4098 25.76C93.5538 25.6 93.7031 25.4533 93.8578 25.32C94.0178 25.1867 94.1858 25.072 94.3618 24.976C94.5431 24.88 94.7351 24.8053 94.9378 24.752C95.1458 24.6933 95.3724 24.664 95.6178 24.664C96.1351 24.664 96.5591 24.8053 96.8898 25.088C97.2258 25.3653 97.4764 25.736 97.6418 26.2C97.7698 25.928 97.9298 25.696 98.1218 25.504C98.3138 25.3067 98.5244 25.1467 98.7538 25.024C98.9831 24.9013 99.2258 24.8107 99.4818 24.752C99.7431 24.6933 100.004 24.664 100.266 24.664C100.719 24.664 101.122 24.7333 101.474 24.872C101.826 25.0107 102.122 25.2133 102.362 25.48C102.602 25.7467 102.783 26.072 102.906 26.456C103.034 26.84 103.098 27.28 103.098 27.776V33H101.122V27.776C101.122 27.2533 101.007 26.8613 100.778 26.6C100.548 26.3333 100.212 26.2 99.7698 26.2C99.5671 26.2 99.3778 26.2347 99.2018 26.304C99.0311 26.3733 98.8791 26.4747 98.7458 26.608C98.6178 26.736 98.5164 26.8987 98.4418 27.096C98.3671 27.2933 98.3298 27.52 98.3298 27.776V33H96.3458V27.776C96.3458 27.2267 96.2338 26.8267 96.0098 26.576C95.7911 26.3253 95.4684 26.2 95.0418 26.2C94.7538 26.2 94.4844 26.272 94.2338 26.416C93.9884 26.5547 93.7591 26.7467 93.5458 26.992V33H91.5698ZM107.024 24.792V33H105.04V24.792H107.024ZM107.296 22.4C107.296 22.5707 107.261 22.7307 107.192 22.88C107.123 23.0293 107.029 23.16 106.912 23.272C106.8 23.384 106.667 23.4747 106.512 23.544C106.357 23.608 106.192 23.64 106.016 23.64C105.845 23.64 105.683 23.608 105.528 23.544C105.379 23.4747 105.248 23.384 105.136 23.272C105.024 23.16 104.933 23.0293 104.864 22.88C104.8 22.7307 104.768 22.5707 104.768 22.4C104.768 22.224 104.8 22.0587 104.864 21.904C104.933 21.7493 105.024 21.616 105.136 21.504C105.248 21.392 105.379 21.304 105.528 21.24C105.683 21.1707 105.845 21.136 106.016 21.136C106.192 21.136 106.357 21.1707 106.512 21.24C106.667 21.304 106.8 21.392 106.912 21.504C107.029 21.616 107.123 21.7493 107.192 21.904C107.261 22.0587 107.296 22.224 107.296 22.4ZM114.047 26.392C113.993 26.4773 113.937 26.5387 113.879 26.576C113.82 26.608 113.745 26.624 113.655 26.624C113.559 26.624 113.455 26.5973 113.343 26.544C113.236 26.4907 113.111 26.432 112.967 26.368C112.823 26.2987 112.657 26.2373 112.47 26.184C112.289 26.1307 112.073 26.104 111.823 26.104C111.433 26.104 111.127 26.1867 110.903 26.352C110.684 26.5173 110.575 26.7333 110.575 27C110.575 27.176 110.631 27.3253 110.743 27.448C110.86 27.5653 111.012 27.6693 111.199 27.76C111.391 27.8507 111.607 27.9333 111.847 28.008C112.087 28.0773 112.329 28.1547 112.575 28.24C112.825 28.3253 113.071 28.424 113.311 28.536C113.551 28.6427 113.764 28.7813 113.951 28.952C114.143 29.1173 114.295 29.3173 114.407 29.552C114.524 29.7867 114.583 30.0693 114.583 30.4C114.583 30.7947 114.511 31.16 114.367 31.496C114.228 31.8267 114.02 32.1147 113.743 32.36C113.465 32.6 113.121 32.7893 112.711 32.928C112.305 33.0613 111.836 33.128 111.303 33.128C111.02 33.128 110.743 33.1013 110.471 33.048C110.204 33 109.945 32.9307 109.695 32.84C109.449 32.7493 109.22 32.6427 109.007 32.52C108.799 32.3973 108.615 32.264 108.455 32.12L108.911 31.368C108.969 31.2773 109.039 31.208 109.118 31.16C109.198 31.112 109.3 31.088 109.423 31.088C109.545 31.088 109.66 31.1227 109.767 31.192C109.879 31.2613 110.007 31.336 110.151 31.416C110.295 31.496 110.463 31.5707 110.655 31.64C110.852 31.7093 111.1 31.744 111.399 31.744C111.633 31.744 111.833 31.7173 111.999 31.664C112.169 31.6053 112.308 31.5307 112.415 31.44C112.527 31.3493 112.606 31.2453 112.655 31.128C112.708 31.0053 112.735 30.88 112.735 30.752C112.735 30.56 112.676 30.4027 112.559 30.28C112.447 30.1573 112.295 30.0507 112.102 29.96C111.916 29.8693 111.7 29.7893 111.455 29.72C111.215 29.6453 110.967 29.5653 110.711 29.48C110.46 29.3947 110.212 29.296 109.967 29.184C109.727 29.0667 109.511 28.92 109.319 28.744C109.132 28.568 108.98 28.352 108.863 28.096C108.751 27.84 108.695 27.5307 108.695 27.168C108.695 26.832 108.761 26.512 108.895 26.208C109.028 25.904 109.223 25.64 109.479 25.416C109.74 25.1867 110.063 25.0053 110.447 24.872C110.836 24.7333 111.284 24.664 111.791 24.664C112.356 24.664 112.871 24.7573 113.335 24.944C113.799 25.1307 114.185 25.376 114.495 25.68L114.047 26.392ZM121.078 26.392C121.024 26.4773 120.968 26.5387 120.91 26.576C120.851 26.608 120.776 26.624 120.686 26.624C120.59 26.624 120.486 26.5973 120.374 26.544C120.267 26.4907 120.142 26.432 119.998 26.368C119.854 26.2987 119.688 26.2373 119.502 26.184C119.32 26.1307 119.104 26.104 118.854 26.104C118.464 26.104 118.158 26.1867 117.934 26.352C117.715 26.5173 117.606 26.7333 117.606 27C117.606 27.176 117.662 27.3253 117.774 27.448C117.891 27.5653 118.043 27.6693 118.23 27.76C118.422 27.8507 118.638 27.9333 118.878 28.008C119.118 28.0773 119.36 28.1547 119.606 28.24C119.856 28.3253 120.102 28.424 120.342 28.536C120.582 28.6427 120.795 28.7813 120.982 28.952C121.174 29.1173 121.326 29.3173 121.438 29.552C121.555 29.7867 121.614 30.0693 121.614 30.4C121.614 30.7947 121.542 31.16 121.398 31.496C121.259 31.8267 121.051 32.1147 120.774 32.36C120.496 32.6 120.152 32.7893 119.742 32.928C119.336 33.0613 118.867 33.128 118.334 33.128C118.051 33.128 117.774 33.1013 117.502 33.048C117.235 33 116.976 32.9307 116.726 32.84C116.48 32.7493 116.251 32.6427 116.038 32.52C115.83 32.3973 115.646 32.264 115.486 32.12L115.942 31.368C116 31.2773 116.07 31.208 116.15 31.16C116.23 31.112 116.331 31.088 116.454 31.088C116.576 31.088 116.691 31.1227 116.798 31.192C116.91 31.2613 117.038 31.336 117.182 31.416C117.326 31.496 117.494 31.5707 117.686 31.64C117.883 31.7093 118.131 31.744 118.43 31.744C118.664 31.744 118.864 31.7173 119.03 31.664C119.2 31.6053 119.339 31.5307 119.446 31.44C119.558 31.3493 119.638 31.2453 119.686 31.128C119.739 31.0053 119.766 30.88 119.766 30.752C119.766 30.56 119.707 30.4027 119.59 30.28C119.478 30.1573 119.326 30.0507 119.134 29.96C118.947 29.8693 118.731 29.7893 118.486 29.72C118.246 29.6453 117.998 29.5653 117.742 29.48C117.491 29.3947 117.243 29.296 116.998 29.184C116.758 29.0667 116.542 28.92 116.35 28.744C116.163 28.568 116.011 28.352 115.894 28.096C115.782 27.84 115.726 27.5307 115.726 27.168C115.726 26.832 115.792 26.512 115.926 26.208C116.059 25.904 116.254 25.64 116.51 25.416C116.771 25.1867 117.094 25.0053 117.478 24.872C117.867 24.7333 118.315 24.664 118.822 24.664C119.387 24.664 119.902 24.7573 120.366 24.944C120.83 25.1307 121.216 25.376 121.526 25.68L121.078 26.392ZM127.437 29.496C126.866 29.5227 126.386 29.5733 125.997 29.648C125.608 29.7173 125.296 29.808 125.061 29.92C124.826 30.032 124.658 30.1627 124.557 30.312C124.456 30.4613 124.405 30.624 124.405 30.8C124.405 31.1467 124.506 31.3947 124.709 31.544C124.917 31.6933 125.186 31.768 125.517 31.768C125.922 31.768 126.272 31.696 126.565 31.552C126.864 31.4027 127.154 31.1787 127.437 30.88V29.496ZM122.909 25.936C123.853 25.072 124.989 24.64 126.317 24.64C126.797 24.64 127.226 24.72 127.605 24.88C127.984 25.0347 128.304 25.2533 128.565 25.536C128.826 25.8133 129.024 26.1467 129.157 26.536C129.296 26.9253 129.365 27.352 129.365 27.816V33H128.469C128.282 33 128.138 32.9733 128.037 32.92C127.936 32.8613 127.856 32.7467 127.797 32.576L127.621 31.984C127.413 32.1707 127.21 32.336 127.013 32.48C126.816 32.6187 126.61 32.736 126.397 32.832C126.184 32.928 125.954 33 125.709 33.048C125.469 33.1013 125.202 33.128 124.909 33.128C124.562 33.128 124.242 33.0827 123.949 32.992C123.656 32.896 123.402 32.7547 123.189 32.568C122.976 32.3813 122.81 32.1493 122.693 31.872C122.576 31.5947 122.517 31.272 122.517 30.904C122.517 30.696 122.552 30.4907 122.621 30.288C122.69 30.08 122.802 29.8827 122.957 29.696C123.117 29.5093 123.322 29.3333 123.573 29.168C123.824 29.0027 124.13 28.8587 124.493 28.736C124.861 28.6133 125.288 28.5147 125.773 28.44C126.258 28.36 126.813 28.312 127.437 28.296V27.816C127.437 27.2667 127.32 26.8613 127.085 26.6C126.85 26.3333 126.512 26.2 126.069 26.2C125.749 26.2 125.482 26.2373 125.269 26.312C125.061 26.3867 124.877 26.472 124.717 26.568C124.557 26.6587 124.41 26.7413 124.277 26.816C124.149 26.8907 124.005 26.928 123.845 26.928C123.706 26.928 123.589 26.8933 123.493 26.824C123.397 26.7493 123.32 26.664 123.261 26.568L122.909 25.936ZM126.989 22.128C127.149 22.128 127.274 22.0853 127.365 22C127.456 21.9093 127.501 21.7493 127.501 21.52H128.701C128.701 21.8187 128.658 22.0907 128.573 22.336C128.493 22.576 128.381 22.784 128.237 22.96C128.093 23.1307 127.92 23.264 127.717 23.36C127.52 23.4507 127.301 23.496 127.061 23.496C126.869 23.496 126.69 23.4613 126.525 23.392C126.36 23.3227 126.205 23.248 126.061 23.168C125.917 23.088 125.781 23.0133 125.653 22.944C125.53 22.8747 125.416 22.84 125.309 22.84C125.154 22.84 125.032 22.888 124.941 22.984C124.856 23.0747 124.813 23.232 124.813 23.456H123.589C123.589 23.1573 123.629 22.888 123.709 22.648C123.794 22.4027 123.912 22.1947 124.061 22.024C124.21 21.848 124.384 21.712 124.581 21.616C124.784 21.52 125.002 21.472 125.237 21.472C125.429 21.472 125.608 21.5067 125.773 21.576C125.944 21.6453 126.101 21.72 126.245 21.8C126.389 21.88 126.522 21.9547 126.645 22.024C126.768 22.0933 126.882 22.128 126.989 22.128ZM134.858 24.664C135.466 24.664 136.018 24.7627 136.514 24.96C137.015 25.1573 137.442 25.4373 137.794 25.8C138.151 26.1627 138.426 26.6053 138.618 27.128C138.81 27.6507 138.906 28.2347 138.906 28.88C138.906 29.5307 138.81 30.1173 138.618 30.64C138.426 31.1627 138.151 31.608 137.794 31.976C137.442 32.344 137.015 32.6267 136.514 32.824C136.018 33.0213 135.466 33.12 134.858 33.12C134.245 33.12 133.687 33.0213 133.186 32.824C132.685 32.6267 132.255 32.344 131.898 31.976C131.546 31.608 131.271 31.1627 131.074 30.64C130.882 30.1173 130.786 29.5307 130.786 28.88C130.786 28.2347 130.882 27.6507 131.074 27.128C131.271 26.6053 131.546 26.1627 131.898 25.8C132.255 25.4373 132.685 25.1573 133.186 24.96C133.687 24.7627 134.245 24.664 134.858 24.664ZM134.858 31.6C135.541 31.6 136.045 31.3707 136.37 30.912C136.701 30.4533 136.866 29.7813 136.866 28.896C136.866 28.0107 136.701 27.336 136.37 26.872C136.045 26.408 135.541 26.176 134.858 26.176C134.165 26.176 133.65 26.4107 133.314 26.88C132.983 27.344 132.818 28.016 132.818 28.896C132.818 29.776 132.983 30.448 133.314 30.912C133.65 31.3707 134.165 31.6 134.858 31.6ZM149.456 26.888C149.232 26.616 148.987 26.424 148.72 26.312C148.459 26.2 148.176 26.144 147.872 26.144C147.573 26.144 147.304 26.2 147.064 26.312C146.824 26.424 146.619 26.5947 146.448 26.824C146.277 27.048 146.147 27.336 146.056 27.688C145.965 28.0347 145.92 28.4453 145.92 28.92C145.92 29.4 145.957 29.808 146.032 30.144C146.112 30.4747 146.224 30.7467 146.368 30.96C146.512 31.168 146.688 31.32 146.896 31.416C147.104 31.5067 147.336 31.552 147.592 31.552C148.003 31.552 148.352 31.4667 148.64 31.296C148.928 31.1253 149.2 30.8827 149.456 30.568V26.888ZM151.432 21.112V33H150.224C149.963 33 149.797 32.88 149.728 32.64L149.56 31.848C149.229 32.2267 148.848 32.5333 148.416 32.768C147.989 33.0027 147.491 33.12 146.92 33.12C146.472 33.12 146.061 33.0267 145.688 32.84C145.315 32.6533 144.992 32.384 144.72 32.032C144.453 31.6747 144.245 31.2347 144.096 30.712C143.952 30.1893 143.88 29.592 143.88 28.92C143.88 28.312 143.963 27.7467 144.128 27.224C144.293 26.7013 144.531 26.248 144.84 25.864C145.149 25.48 145.52 25.1813 145.952 24.968C146.384 24.7493 146.869 24.64 147.408 24.64C147.867 24.64 148.259 24.712 148.584 24.856C148.909 25 149.2 25.1947 149.456 25.44V21.112H151.432ZM158.67 27.952C158.67 27.696 158.633 27.456 158.558 27.232C158.489 27.0027 158.382 26.8027 158.238 26.632C158.094 26.4613 157.91 26.328 157.686 26.232C157.468 26.1307 157.212 26.08 156.918 26.08C156.348 26.08 155.897 26.2427 155.566 26.568C155.241 26.8933 155.033 27.3547 154.942 27.952H158.67ZM154.902 29.144C154.934 29.5653 155.009 29.9307 155.126 30.24C155.244 30.544 155.398 30.7973 155.59 31C155.782 31.1973 156.009 31.3467 156.27 31.448C156.537 31.544 156.83 31.592 157.15 31.592C157.47 31.592 157.745 31.5547 157.974 31.48C158.209 31.4053 158.412 31.3227 158.582 31.232C158.758 31.1413 158.91 31.0587 159.038 30.984C159.172 30.9093 159.3 30.872 159.422 30.872C159.588 30.872 159.71 30.9333 159.79 31.056L160.358 31.776C160.14 32.032 159.894 32.248 159.622 32.424C159.35 32.5947 159.065 32.7333 158.766 32.84C158.473 32.9413 158.172 33.0133 157.862 33.056C157.558 33.0987 157.262 33.12 156.974 33.12C156.404 33.12 155.873 33.0267 155.382 32.84C154.892 32.648 154.465 32.368 154.102 32C153.74 31.6267 153.454 31.168 153.246 30.624C153.038 30.0747 152.934 29.44 152.934 28.72C152.934 28.16 153.025 27.6347 153.206 27.144C153.388 26.648 153.646 26.2187 153.982 25.856C154.324 25.488 154.737 25.1973 155.222 24.984C155.713 24.7707 156.265 24.664 156.878 24.664C157.396 24.664 157.873 24.7467 158.31 24.912C158.748 25.0773 159.124 25.32 159.438 25.64C159.753 25.9547 159.998 26.344 160.174 26.808C160.356 27.2667 160.446 27.792 160.446 28.384C160.446 28.6827 160.414 28.8853 160.35 28.992C160.286 29.0933 160.164 29.144 159.982 29.144H154.902ZM169.892 27.248C170.286 27.248 170.63 27.2 170.924 27.104C171.217 27.0027 171.46 26.8613 171.652 26.68C171.849 26.4933 171.996 26.2693 172.092 26.008C172.188 25.7413 172.236 25.4453 172.236 25.12C172.236 24.8107 172.188 24.5307 172.092 24.28C171.996 24.0293 171.852 23.816 171.66 23.64C171.468 23.464 171.225 23.3307 170.932 23.24C170.638 23.144 170.292 23.096 169.892 23.096H168.284V27.248H169.892ZM169.892 21.432C170.665 21.432 171.334 21.5227 171.9 21.704C172.465 21.8853 172.932 22.1387 173.3 22.464C173.668 22.7893 173.94 23.1787 174.116 23.632C174.297 24.0853 174.388 24.5813 174.388 25.12C174.388 25.68 174.294 26.1947 174.108 26.664C173.921 27.128 173.641 27.528 173.268 27.864C172.894 28.2 172.425 28.4613 171.86 28.648C171.3 28.8347 170.644 28.928 169.892 28.928H168.284V33H166.132V21.432H169.892ZM179.812 29.496C179.241 29.5227 178.761 29.5733 178.372 29.648C177.983 29.7173 177.671 29.808 177.436 29.92C177.201 30.032 177.033 30.1627 176.932 30.312C176.831 30.4613 176.78 30.624 176.78 30.8C176.78 31.1467 176.881 31.3947 177.084 31.544C177.292 31.6933 177.561 31.768 177.892 31.768C178.297 31.768 178.647 31.696 178.94 31.552C179.239 31.4027 179.529 31.1787 179.812 30.88V29.496ZM175.284 25.936C176.228 25.072 177.364 24.64 178.692 24.64C179.172 24.64 179.601 24.72 179.98 24.88C180.359 25.0347 180.679 25.2533 180.94 25.536C181.201 25.8133 181.399 26.1467 181.532 26.536C181.671 26.9253 181.74 27.352 181.74 27.816V33H180.844C180.657 33 180.513 32.9733 180.412 32.92C180.311 32.8613 180.231 32.7467 180.172 32.576L179.996 31.984C179.788 32.1707 179.585 32.336 179.388 32.48C179.191 32.6187 178.985 32.736 178.772 32.832C178.559 32.928 178.329 33 178.084 33.048C177.844 33.1013 177.577 33.128 177.284 33.128C176.937 33.128 176.617 33.0827 176.324 32.992C176.031 32.896 175.777 32.7547 175.564 32.568C175.351 32.3813 175.185 32.1493 175.068 31.872C174.951 31.5947 174.892 31.272 174.892 30.904C174.892 30.696 174.927 30.4907 174.996 30.288C175.065 30.08 175.177 29.8827 175.332 29.696C175.492 29.5093 175.697 29.3333 175.948 29.168C176.199 29.0027 176.505 28.8587 176.868 28.736C177.236 28.6133 177.663 28.5147 178.148 28.44C178.633 28.36 179.188 28.312 179.812 28.296V27.816C179.812 27.2667 179.695 26.8613 179.46 26.6C179.225 26.3333 178.887 26.2 178.444 26.2C178.124 26.2 177.857 26.2373 177.644 26.312C177.436 26.3867 177.252 26.472 177.092 26.568C176.932 26.6587 176.785 26.7413 176.652 26.816C176.524 26.8907 176.38 26.928 176.22 26.928C176.081 26.928 175.964 26.8933 175.868 26.824C175.772 26.7493 175.695 26.664 175.636 26.568L175.284 25.936ZM185.465 26.216C185.721 25.7253 186.025 25.3413 186.377 25.064C186.729 24.7813 187.145 24.64 187.625 24.64C188.004 24.64 188.308 24.7227 188.537 24.888L188.409 26.368C188.382 26.464 188.342 26.5333 188.289 26.576C188.241 26.6133 188.174 26.632 188.089 26.632C188.009 26.632 187.889 26.6187 187.729 26.592C187.574 26.5653 187.422 26.552 187.273 26.552C187.054 26.552 186.86 26.584 186.689 26.648C186.518 26.712 186.364 26.8053 186.225 26.928C186.092 27.0453 185.972 27.1893 185.865 27.36C185.764 27.5307 185.668 27.7253 185.577 27.944V33H183.601V24.792H184.761C184.964 24.792 185.105 24.8293 185.185 24.904C185.265 24.9733 185.318 25.1013 185.345 25.288L185.465 26.216ZM192.306 33.128C191.591 33.128 191.042 32.928 190.658 32.528C190.279 32.1227 190.09 31.5653 190.09 30.856V26.272H189.25C189.143 26.272 189.052 26.2373 188.978 26.168C188.903 26.0987 188.866 25.9947 188.866 25.856V25.072L190.186 24.856L190.602 22.616C190.628 22.5093 190.679 22.4267 190.754 22.368C190.828 22.3093 190.924 22.28 191.042 22.28H192.066V24.864H194.258V26.272H192.066V30.72C192.066 30.976 192.127 31.176 192.25 31.32C192.378 31.464 192.551 31.536 192.77 31.536C192.892 31.536 192.994 31.5227 193.074 31.496C193.159 31.464 193.231 31.432 193.29 31.4C193.354 31.368 193.41 31.3387 193.458 31.312C193.506 31.28 193.554 31.264 193.602 31.264C193.66 31.264 193.708 31.28 193.746 31.312C193.783 31.3387 193.823 31.3813 193.866 31.44L194.458 32.4C194.17 32.64 193.839 32.8213 193.466 32.944C193.092 33.0667 192.706 33.128 192.306 33.128ZM197.571 24.792V33H195.587V24.792H197.571ZM197.843 22.4C197.843 22.5707 197.808 22.7307 197.739 22.88C197.67 23.0293 197.576 23.16 197.459 23.272C197.347 23.384 197.214 23.4747 197.059 23.544C196.904 23.608 196.739 23.64 196.563 23.64C196.392 23.64 196.23 23.608 196.075 23.544C195.926 23.4747 195.795 23.384 195.683 23.272C195.571 23.16 195.48 23.0293 195.411 22.88C195.347 22.7307 195.315 22.5707 195.315 22.4C195.315 22.224 195.347 22.0587 195.411 21.904C195.48 21.7493 195.571 21.616 195.683 21.504C195.795 21.392 195.926 21.304 196.075 21.24C196.23 21.1707 196.392 21.136 196.563 21.136C196.739 21.136 196.904 21.1707 197.059 21.24C197.214 21.304 197.347 21.392 197.459 21.504C197.576 21.616 197.67 21.7493 197.739 21.904C197.808 22.0587 197.843 22.224 197.843 22.4ZM205.465 26.528C205.407 26.6027 205.348 26.6613 205.289 26.704C205.236 26.7467 205.156 26.768 205.049 26.768C204.948 26.768 204.849 26.7387 204.753 26.68C204.657 26.616 204.543 26.5467 204.409 26.472C204.276 26.392 204.116 26.3227 203.929 26.264C203.748 26.2 203.521 26.168 203.249 26.168C202.903 26.168 202.599 26.232 202.337 26.36C202.076 26.4827 201.857 26.6613 201.681 26.896C201.511 27.1307 201.383 27.416 201.297 27.752C201.212 28.0827 201.169 28.4587 201.169 28.88C201.169 29.3173 201.215 29.7067 201.305 30.048C201.401 30.3893 201.537 30.6773 201.713 30.912C201.889 31.1413 202.103 31.3173 202.353 31.44C202.604 31.5573 202.887 31.616 203.201 31.616C203.516 31.616 203.769 31.5787 203.961 31.504C204.159 31.424 204.324 31.3387 204.457 31.248C204.591 31.152 204.705 31.0667 204.801 30.992C204.903 30.912 205.015 30.872 205.137 30.872C205.297 30.872 205.417 30.9333 205.497 31.056L206.065 31.776C205.847 32.032 205.609 32.248 205.353 32.424C205.097 32.5947 204.831 32.7333 204.553 32.84C204.281 32.9413 203.999 33.0133 203.705 33.056C203.417 33.0987 203.129 33.12 202.841 33.12C202.335 33.12 201.857 33.0267 201.409 32.84C200.961 32.648 200.569 32.3707 200.233 32.008C199.897 31.6453 199.631 31.2027 199.433 30.68C199.241 30.152 199.145 29.552 199.145 28.88C199.145 28.2773 199.231 27.72 199.401 27.208C199.577 26.6907 199.833 26.2453 200.169 25.872C200.505 25.4933 200.921 25.1973 201.417 24.984C201.913 24.7707 202.484 24.664 203.129 24.664C203.743 24.664 204.279 24.7627 204.737 24.96C205.201 25.1573 205.617 25.44 205.985 25.808L205.465 26.528ZM209.352 24.792V33H207.368V24.792H209.352ZM209.624 22.4C209.624 22.5707 209.589 22.7307 209.52 22.88C209.451 23.0293 209.357 23.16 209.24 23.272C209.128 23.384 208.995 23.4747 208.84 23.544C208.685 23.608 208.52 23.64 208.344 23.64C208.173 23.64 208.011 23.608 207.856 23.544C207.707 23.4747 207.576 23.384 207.464 23.272C207.352 23.16 207.261 23.0293 207.192 22.88C207.128 22.7307 207.096 22.5707 207.096 22.4C207.096 22.224 207.128 22.0587 207.192 21.904C207.261 21.7493 207.352 21.616 207.464 21.504C207.576 21.392 207.707 21.304 207.856 21.24C208.011 21.1707 208.173 21.136 208.344 21.136C208.52 21.136 208.685 21.1707 208.84 21.24C208.995 21.304 209.128 21.392 209.24 21.504C209.357 21.616 209.451 21.7493 209.52 21.904C209.589 22.0587 209.624 22.224 209.624 22.4ZM213.343 30.872C213.567 31.144 213.809 31.336 214.071 31.448C214.337 31.56 214.625 31.616 214.935 31.616C215.233 31.616 215.503 31.56 215.743 31.448C215.983 31.336 216.185 31.1653 216.351 30.936C216.521 30.7067 216.652 30.4187 216.743 30.072C216.833 29.72 216.879 29.3067 216.879 28.832C216.879 28.352 216.839 27.9467 216.759 27.616C216.684 27.28 216.575 27.008 216.431 26.8C216.287 26.592 216.111 26.44 215.903 26.344C215.7 26.248 215.468 26.2 215.207 26.2C214.796 26.2 214.447 26.288 214.159 26.464C213.871 26.6347 213.599 26.8773 213.343 27.192V30.872ZM213.239 25.912C213.575 25.5333 213.956 25.2267 214.383 24.992C214.809 24.7573 215.311 24.64 215.887 24.64C216.335 24.64 216.743 24.7333 217.111 24.92C217.484 25.1067 217.804 25.3787 218.071 25.736C218.343 26.088 218.551 26.5253 218.695 27.048C218.844 27.5653 218.919 28.16 218.919 28.832C218.919 29.4453 218.836 30.0133 218.671 30.536C218.505 31.0587 218.268 31.512 217.959 31.896C217.655 32.28 217.284 32.5813 216.847 32.8C216.415 33.0133 215.929 33.12 215.391 33.12C214.932 33.12 214.54 33.0507 214.215 32.912C213.889 32.768 213.599 32.5707 213.343 32.32V35.68H211.367V24.792H212.575C212.831 24.792 212.999 24.912 213.079 25.152L213.239 25.912ZM224.796 29.496C224.226 29.5227 223.746 29.5733 223.356 29.648C222.967 29.7173 222.655 29.808 222.42 29.92C222.186 30.032 222.018 30.1627 221.916 30.312C221.815 30.4613 221.764 30.624 221.764 30.8C221.764 31.1467 221.866 31.3947 222.068 31.544C222.276 31.6933 222.546 31.768 222.876 31.768C223.282 31.768 223.631 31.696 223.924 31.552C224.223 31.4027 224.514 31.1787 224.796 30.88V29.496ZM220.268 25.936C221.212 25.072 222.348 24.64 223.676 24.64C224.156 24.64 224.586 24.72 224.964 24.88C225.343 25.0347 225.663 25.2533 225.924 25.536C226.186 25.8133 226.383 26.1467 226.516 26.536C226.655 26.9253 226.724 27.352 226.724 27.816V33H225.828C225.642 33 225.498 32.9733 225.396 32.92C225.295 32.8613 225.215 32.7467 225.156 32.576L224.98 31.984C224.772 32.1707 224.57 32.336 224.372 32.48C224.175 32.6187 223.97 32.736 223.756 32.832C223.543 32.928 223.314 33 223.068 33.048C222.828 33.1013 222.562 33.128 222.268 33.128C221.922 33.128 221.602 33.0827 221.308 32.992C221.015 32.896 220.762 32.7547 220.548 32.568C220.335 32.3813 220.17 32.1493 220.052 31.872C219.935 31.5947 219.876 31.272 219.876 30.904C219.876 30.696 219.911 30.4907 219.98 30.288C220.05 30.08 220.162 29.8827 220.316 29.696C220.476 29.5093 220.682 29.3333 220.932 29.168C221.183 29.0027 221.49 28.8587 221.852 28.736C222.22 28.6133 222.647 28.5147 223.132 28.44C223.618 28.36 224.172 28.312 224.796 28.296V27.816C224.796 27.2667 224.679 26.8613 224.444 26.6C224.21 26.3333 223.871 26.2 223.428 26.2C223.108 26.2 222.842 26.2373 222.628 26.312C222.42 26.3867 222.236 26.472 222.076 26.568C221.916 26.6587 221.77 26.7413 221.636 26.816C221.508 26.8907 221.364 26.928 221.204 26.928C221.066 26.928 220.948 26.8933 220.852 26.824C220.756 26.7493 220.679 26.664 220.62 26.568L220.268 25.936ZM235.065 31.776C234.703 32.2027 234.292 32.5173 233.833 32.72C233.38 32.9173 232.911 33.04 232.425 33.088L232.321 33.488C232.823 33.6053 233.172 33.7627 233.369 33.96C233.572 34.1627 233.673 34.4027 233.673 34.68C233.673 34.8613 233.625 35.024 233.529 35.168C233.439 35.312 233.305 35.4347 233.129 35.536C232.959 35.6373 232.753 35.7147 232.513 35.768C232.279 35.8213 232.017 35.848 231.729 35.848C231.511 35.848 231.305 35.832 231.113 35.8C230.921 35.7733 230.735 35.7307 230.553 35.672L230.729 35.056C230.761 34.9333 230.839 34.872 230.961 34.872C231.036 34.872 231.119 34.8907 231.209 34.928C231.3 34.9707 231.431 34.992 231.601 34.992C231.777 34.992 231.908 34.9573 231.993 34.888C232.084 34.824 232.129 34.744 232.129 34.648C232.129 34.4933 232.033 34.3813 231.841 34.312C231.649 34.248 231.353 34.1867 230.953 34.128L231.305 33.08C230.857 33.016 230.441 32.8773 230.057 32.664C229.673 32.4453 229.34 32.16 229.057 31.808C228.775 31.4507 228.551 31.0267 228.385 30.536C228.225 30.0453 228.145 29.4933 228.145 28.88C228.145 28.2773 228.231 27.72 228.401 27.208C228.577 26.6907 228.833 26.2453 229.169 25.872C229.505 25.4933 229.921 25.1973 230.417 24.984C230.913 24.7707 231.484 24.664 232.129 24.664C232.743 24.664 233.279 24.7627 233.737 24.96C234.201 25.1573 234.617 25.44 234.985 25.808L234.465 26.528C234.407 26.6027 234.348 26.6613 234.289 26.704C234.236 26.7467 234.156 26.768 234.049 26.768C233.948 26.768 233.849 26.7387 233.753 26.68C233.657 26.616 233.543 26.5467 233.409 26.472C233.276 26.392 233.116 26.3227 232.929 26.264C232.748 26.2 232.521 26.168 232.249 26.168C231.903 26.168 231.599 26.232 231.337 26.36C231.076 26.4827 230.857 26.6613 230.681 26.896C230.511 27.1307 230.383 27.416 230.297 27.752C230.212 28.0827 230.169 28.4587 230.169 28.88C230.169 29.3173 230.215 29.7067 230.305 30.048C230.401 30.3893 230.537 30.6773 230.713 30.912C230.889 31.1413 231.103 31.3173 231.353 31.44C231.604 31.5573 231.887 31.616 232.201 31.616C232.516 31.616 232.769 31.5787 232.961 31.504C233.159 31.424 233.324 31.3387 233.457 31.248C233.591 31.152 233.705 31.0667 233.801 30.992C233.903 30.912 234.015 30.872 234.137 30.872C234.297 30.872 234.417 30.9333 234.497 31.056L235.065 31.776ZM240.656 29.496C240.085 29.5227 239.605 29.5733 239.216 29.648C238.826 29.7173 238.514 29.808 238.28 29.92C238.045 30.032 237.877 30.1627 237.776 30.312C237.674 30.4613 237.624 30.624 237.624 30.8C237.624 31.1467 237.725 31.3947 237.928 31.544C238.136 31.6933 238.405 31.768 238.736 31.768C239.141 31.768 239.49 31.696 239.784 31.552C240.082 31.4027 240.373 31.1787 240.656 30.88V29.496ZM236.128 25.936C237.072 25.072 238.208 24.64 239.536 24.64C240.016 24.64 240.445 24.72 240.824 24.88C241.202 25.0347 241.522 25.2533 241.784 25.536C242.045 25.8133 242.242 26.1467 242.376 26.536C242.514 26.9253 242.584 27.352 242.584 27.816V33H241.688C241.501 33 241.357 32.9733 241.256 32.92C241.154 32.8613 241.074 32.7467 241.016 32.576L240.84 31.984C240.632 32.1707 240.429 32.336 240.232 32.48C240.034 32.6187 239.829 32.736 239.616 32.832C239.402 32.928 239.173 33 238.928 33.048C238.688 33.1013 238.421 33.128 238.128 33.128C237.781 33.128 237.461 33.0827 237.168 32.992C236.874 32.896 236.621 32.7547 236.408 32.568C236.194 32.3813 236.029 32.1493 235.912 31.872C235.794 31.5947 235.736 31.272 235.736 30.904C235.736 30.696 235.77 30.4907 235.84 30.288C235.909 30.08 236.021 29.8827 236.176 29.696C236.336 29.5093 236.541 29.3333 236.792 29.168C237.042 29.0027 237.349 28.8587 237.712 28.736C238.08 28.6133 238.506 28.5147 238.992 28.44C239.477 28.36 240.032 28.312 240.656 28.296V27.816C240.656 27.2667 240.538 26.8613 240.304 26.6C240.069 26.3333 239.73 26.2 239.288 26.2C238.968 26.2 238.701 26.2373 238.488 26.312C238.28 26.3867 238.096 26.472 237.936 26.568C237.776 26.6587 237.629 26.7413 237.496 26.816C237.368 26.8907 237.224 26.928 237.064 26.928C236.925 26.928 236.808 26.8933 236.712 26.824C236.616 26.7493 236.538 26.664 236.48 26.568L236.128 25.936ZM240.208 22.128C240.368 22.128 240.493 22.0853 240.584 22C240.674 21.9093 240.72 21.7493 240.72 21.52H241.92C241.92 21.8187 241.877 22.0907 241.792 22.336C241.712 22.576 241.6 22.784 241.456 22.96C241.312 23.1307 241.138 23.264 240.936 23.36C240.738 23.4507 240.52 23.496 240.28 23.496C240.088 23.496 239.909 23.4613 239.744 23.392C239.578 23.3227 239.424 23.248 239.28 23.168C239.136 23.088 239 23.0133 238.872 22.944C238.749 22.8747 238.634 22.84 238.528 22.84C238.373 22.84 238.25 22.888 238.16 22.984C238.074 23.0747 238.032 23.232 238.032 23.456H236.808C236.808 23.1573 236.848 22.888 236.928 22.648C237.013 22.4027 237.13 22.1947 237.28 22.024C237.429 21.848 237.602 21.712 237.8 21.616C238.002 21.52 238.221 21.472 238.456 21.472C238.648 21.472 238.826 21.5067 238.992 21.576C239.162 21.6453 239.32 21.72 239.464 21.8C239.608 21.88 239.741 21.9547 239.864 22.024C239.986 22.0933 240.101 22.128 240.208 22.128ZM248.077 24.664C248.685 24.664 249.237 24.7627 249.733 24.96C250.234 25.1573 250.661 25.4373 251.013 25.8C251.37 26.1627 251.645 26.6053 251.837 27.128C252.029 27.6507 252.125 28.2347 252.125 28.88C252.125 29.5307 252.029 30.1173 251.837 30.64C251.645 31.1627 251.37 31.608 251.013 31.976C250.661 32.344 250.234 32.6267 249.733 32.824C249.237 33.0213 248.685 33.12 248.077 33.12C247.463 33.12 246.906 33.0213 246.405 32.824C245.903 32.6267 245.474 32.344 245.117 31.976C244.765 31.608 244.49 31.1627 244.293 30.64C244.101 30.1173 244.005 29.5307 244.005 28.88C244.005 28.2347 244.101 27.6507 244.293 27.128C244.49 26.6053 244.765 26.1627 245.117 25.8C245.474 25.4373 245.903 25.1573 246.405 24.96C246.906 24.7627 247.463 24.664 248.077 24.664ZM248.077 31.6C248.759 31.6 249.263 31.3707 249.589 30.912C249.919 30.4533 250.085 29.7813 250.085 28.896C250.085 28.0107 249.919 27.336 249.589 26.872C249.263 26.408 248.759 26.176 248.077 26.176C247.383 26.176 246.869 26.4107 246.533 26.88C246.202 27.344 246.037 28.016 246.037 28.896C246.037 29.776 246.202 30.448 246.533 30.912C246.869 31.3707 247.383 31.6 248.077 31.6ZM79.064 53.224V55H72.288V43.432H74.44V53.224H79.064ZM85.1546 49.952C85.1546 49.696 85.1173 49.456 85.0426 49.232C84.9733 49.0027 84.8666 48.8027 84.7226 48.632C84.5786 48.4613 84.3946 48.328 84.1706 48.232C83.952 48.1307 83.696 48.08 83.4026 48.08C82.832 48.08 82.3813 48.2427 82.0506 48.568C81.7253 48.8933 81.5173 49.3547 81.4266 49.952H85.1546ZM81.3866 51.144C81.4186 51.5653 81.4933 51.9307 81.6106 52.24C81.728 52.544 81.8826 52.7973 82.0746 53C82.2666 53.1973 82.4933 53.3467 82.7546 53.448C83.0213 53.544 83.3146 53.592 83.6346 53.592C83.9546 53.592 84.2293 53.5547 84.4586 53.48C84.6933 53.4053 84.896 53.3227 85.0666 53.232C85.2426 53.1413 85.3946 53.0587 85.5226 52.984C85.656 52.9093 85.784 52.872 85.9066 52.872C86.072 52.872 86.1946 52.9333 86.2746 53.056L86.8426 53.776C86.624 54.032 86.3786 54.248 86.1066 54.424C85.8346 54.5947 85.5493 54.7333 85.2506 54.84C84.9573 54.9413 84.656 55.0133 84.3466 55.056C84.0426 55.0987 83.7466 55.12 83.4586 55.12C82.888 55.12 82.3573 55.0267 81.8666 54.84C81.376 54.648 80.9493 54.368 80.5866 54C80.224 53.6267 79.9386 53.168 79.7306 52.624C79.5226 52.0747 79.4186 51.44 79.4186 50.72C79.4186 50.16 79.5093 49.6347 79.6906 49.144C79.872 48.648 80.1306 48.2187 80.4666 47.856C80.808 47.488 81.2213 47.1973 81.7066 46.984C82.1973 46.7707 82.7493 46.664 83.3626 46.664C83.88 46.664 84.3573 46.7467 84.7946 46.912C85.232 47.0773 85.608 47.32 85.9226 47.64C86.2373 47.9547 86.4826 48.344 86.6586 48.808C86.84 49.2667 86.9306 49.792 86.9306 50.384C86.9306 50.6827 86.8986 50.8853 86.8346 50.992C86.7706 51.0933 86.648 51.144 86.4666 51.144H81.3866ZM91.4135 50.696C91.6588 50.696 91.8722 50.664 92.0535 50.6C92.2348 50.5307 92.3842 50.4373 92.5015 50.32C92.6242 50.2027 92.7148 50.0613 92.7735 49.896C92.8375 49.7307 92.8695 49.5493 92.8695 49.352C92.8695 48.9467 92.7468 48.6267 92.5015 48.392C92.2615 48.152 91.8988 48.032 91.4135 48.032C90.9282 48.032 90.5628 48.152 90.3175 48.392C90.0775 48.6267 89.9575 48.9467 89.9575 49.352C89.9575 49.544 89.9868 49.7227 90.0455 49.888C90.1095 50.0533 90.2002 50.1973 90.3175 50.32C90.4402 50.4373 90.5922 50.5307 90.7735 50.6C90.9602 50.664 91.1735 50.696 91.4135 50.696ZM93.6455 55.368C93.6455 55.208 93.5975 55.0773 93.5015 54.976C93.4055 54.8747 93.2748 54.7973 93.1095 54.744C92.9442 54.6853 92.7495 54.6427 92.5255 54.616C92.3068 54.5893 92.0722 54.5707 91.8215 54.56C91.5762 54.544 91.3202 54.5307 91.0535 54.52C90.7922 54.5093 90.5362 54.488 90.2855 54.456C90.0668 54.5787 89.8882 54.7227 89.7495 54.888C89.6162 55.0533 89.5495 55.2453 89.5495 55.464C89.5495 55.608 89.5842 55.7413 89.6535 55.864C89.7282 55.992 89.8428 56.1013 89.9975 56.192C90.1575 56.2827 90.3628 56.352 90.6135 56.4C90.8642 56.4533 91.1708 56.48 91.5335 56.48C91.9015 56.48 92.2188 56.4507 92.4855 56.392C92.7522 56.3387 92.9708 56.2613 93.1415 56.16C93.3175 56.064 93.4455 55.9467 93.5255 55.808C93.6055 55.6747 93.6455 55.528 93.6455 55.368ZM95.6135 47.072V47.808C95.6135 48.0427 95.4722 48.1867 95.1895 48.24L94.4535 48.376C94.5655 48.6587 94.6215 48.968 94.6215 49.304C94.6215 49.7093 94.5388 50.0773 94.3735 50.408C94.2135 50.7333 93.9895 51.0107 93.7015 51.24C93.4135 51.4693 93.0722 51.648 92.6775 51.776C92.2882 51.8987 91.8668 51.96 91.4135 51.96C91.2535 51.96 91.0988 51.952 90.9495 51.936C90.8002 51.92 90.6535 51.8987 90.5095 51.872C90.2535 52.0267 90.1255 52.2 90.1255 52.392C90.1255 52.5573 90.2002 52.68 90.3495 52.76C90.5042 52.8347 90.7068 52.888 90.9575 52.92C91.2082 52.952 91.4935 52.9733 91.8135 52.984C92.1335 52.9893 92.4615 53.0053 92.7975 53.032C93.1335 53.0587 93.4615 53.1067 93.7815 53.176C94.1015 53.24 94.3868 53.344 94.6375 53.488C94.8882 53.632 95.0882 53.8293 95.2375 54.08C95.3922 54.3253 95.4695 54.6427 95.4695 55.032C95.4695 55.3947 95.3788 55.7467 95.1975 56.088C95.0215 56.4293 94.7628 56.7333 94.4215 57C94.0855 57.2667 93.6695 57.48 93.1735 57.64C92.6828 57.8053 92.1228 57.888 91.4935 57.888C90.8748 57.888 90.3362 57.8267 89.8775 57.704C89.4188 57.5867 89.0375 57.4267 88.7335 57.224C88.4295 57.0267 88.2028 56.7973 88.0535 56.536C87.9042 56.2747 87.8295 56.0027 87.8295 55.72C87.8295 55.336 87.9442 55.016 88.1735 54.76C88.4082 54.4987 88.7282 54.2907 89.1335 54.136C88.9148 54.024 88.7415 53.8747 88.6135 53.688C88.4855 53.5013 88.4215 53.256 88.4215 52.952C88.4215 52.8293 88.4428 52.704 88.4855 52.576C88.5335 52.4427 88.6002 52.312 88.6855 52.184C88.7762 52.056 88.8882 51.936 89.0215 51.824C89.1548 51.7067 89.3122 51.6027 89.4935 51.512C89.0775 51.288 88.7495 50.9893 88.5095 50.616C88.2748 50.2427 88.1575 49.8053 88.1575 49.304C88.1575 48.8987 88.2375 48.5333 88.3975 48.208C88.5628 47.8773 88.7895 47.5973 89.0775 47.368C89.3708 47.1333 89.7148 46.9547 90.1095 46.832C90.5095 46.7093 90.9442 46.648 91.4135 46.648C91.7655 46.648 92.0962 46.6853 92.4055 46.76C92.7148 46.8293 92.9975 46.9333 93.2535 47.072H95.6135ZM98.9146 46.792V55H96.9306V46.792H98.9146ZM99.1866 44.4C99.1866 44.5707 99.152 44.7307 99.0826 44.88C99.0133 45.0293 98.92 45.16 98.8026 45.272C98.6906 45.384 98.5573 45.4747 98.4026 45.544C98.248 45.608 98.0826 45.64 97.9066 45.64C97.736 45.64 97.5733 45.608 97.4186 45.544C97.2693 45.4747 97.1386 45.384 97.0266 45.272C96.9146 45.16 96.824 45.0293 96.7546 44.88C96.6906 44.7307 96.6586 44.5707 96.6586 44.4C96.6586 44.224 96.6906 44.0587 96.7546 43.904C96.824 43.7493 96.9146 43.616 97.0266 43.504C97.1386 43.392 97.2693 43.304 97.4186 43.24C97.5733 43.1707 97.736 43.136 97.9066 43.136C98.0826 43.136 98.248 43.1707 98.4026 43.24C98.5573 43.304 98.6906 43.392 98.8026 43.504C98.92 43.616 99.0133 43.7493 99.0826 43.904C99.152 44.0587 99.1866 44.224 99.1866 44.4ZM105.937 48.392C105.884 48.4773 105.828 48.5387 105.769 48.576C105.71 48.608 105.636 48.624 105.545 48.624C105.449 48.624 105.345 48.5973 105.233 48.544C105.126 48.4907 105.001 48.432 104.857 48.368C104.713 48.2987 104.548 48.2373 104.361 48.184C104.18 48.1307 103.964 48.104 103.713 48.104C103.324 48.104 103.017 48.1867 102.793 48.352C102.574 48.5173 102.465 48.7333 102.465 49C102.465 49.176 102.521 49.3253 102.633 49.448C102.75 49.5653 102.902 49.6693 103.089 49.76C103.281 49.8507 103.497 49.9333 103.737 50.008C103.977 50.0773 104.22 50.1547 104.465 50.24C104.716 50.3253 104.961 50.424 105.201 50.536C105.441 50.6427 105.654 50.7813 105.841 50.952C106.033 51.1173 106.185 51.3173 106.297 51.552C106.414 51.7867 106.473 52.0693 106.473 52.4C106.473 52.7947 106.401 53.16 106.257 53.496C106.118 53.8267 105.91 54.1147 105.633 54.36C105.356 54.6 105.012 54.7893 104.601 54.928C104.196 55.0613 103.726 55.128 103.193 55.128C102.91 55.128 102.633 55.1013 102.361 55.048C102.094 55 101.836 54.9307 101.585 54.84C101.34 54.7493 101.11 54.6427 100.897 54.52C100.689 54.3973 100.505 54.264 100.345 54.12L100.801 53.368C100.86 53.2773 100.929 53.208 101.009 53.16C101.089 53.112 101.19 53.088 101.313 53.088C101.436 53.088 101.55 53.1227 101.657 53.192C101.769 53.2613 101.897 53.336 102.041 53.416C102.185 53.496 102.353 53.5707 102.545 53.64C102.742 53.7093 102.99 53.744 103.289 53.744C103.524 53.744 103.724 53.7173 103.889 53.664C104.06 53.6053 104.198 53.5307 104.305 53.44C104.417 53.3493 104.497 53.2453 104.545 53.128C104.598 53.0053 104.625 52.88 104.625 52.752C104.625 52.56 104.566 52.4027 104.449 52.28C104.337 52.1573 104.185 52.0507 103.993 51.96C103.806 51.8693 103.59 51.7893 103.345 51.72C103.105 51.6453 102.857 51.5653 102.601 51.48C102.35 51.3947 102.102 51.296 101.857 51.184C101.617 51.0667 101.401 50.92 101.209 50.744C101.022 50.568 100.87 50.352 100.753 50.096C100.641 49.84 100.585 49.5307 100.585 49.168C100.585 48.832 100.652 48.512 100.785 48.208C100.918 47.904 101.113 47.64 101.369 47.416C101.63 47.1867 101.953 47.0053 102.337 46.872C102.726 46.7333 103.174 46.664 103.681 46.664C104.246 46.664 104.761 46.7573 105.225 46.944C105.689 47.1307 106.076 47.376 106.385 47.68L105.937 48.392ZM109.96 43.112V55H107.984V43.112H109.96ZM116.265 51.496C115.694 51.5227 115.214 51.5733 114.825 51.648C114.436 51.7173 114.124 51.808 113.889 51.92C113.654 52.032 113.486 52.1627 113.385 52.312C113.284 52.4613 113.233 52.624 113.233 52.8C113.233 53.1467 113.334 53.3947 113.537 53.544C113.745 53.6933 114.014 53.768 114.345 53.768C114.75 53.768 115.1 53.696 115.393 53.552C115.692 53.4027 115.982 53.1787 116.265 52.88V51.496ZM111.737 47.936C112.681 47.072 113.817 46.64 115.145 46.64C115.625 46.64 116.054 46.72 116.433 46.88C116.812 47.0347 117.132 47.2533 117.393 47.536C117.654 47.8133 117.852 48.1467 117.985 48.536C118.124 48.9253 118.193 49.352 118.193 49.816V55H117.297C117.11 55 116.966 54.9733 116.865 54.92C116.764 54.8613 116.684 54.7467 116.625 54.576L116.449 53.984C116.241 54.1707 116.038 54.336 115.841 54.48C115.644 54.6187 115.438 54.736 115.225 54.832C115.012 54.928 114.782 55 114.537 55.048C114.297 55.1013 114.03 55.128 113.737 55.128C113.39 55.128 113.07 55.0827 112.777 54.992C112.484 54.896 112.23 54.7547 112.017 54.568C111.804 54.3813 111.638 54.1493 111.521 53.872C111.404 53.5947 111.345 53.272 111.345 52.904C111.345 52.696 111.38 52.4907 111.449 52.288C111.518 52.08 111.63 51.8827 111.785 51.696C111.945 51.5093 112.15 51.3333 112.401 51.168C112.652 51.0027 112.958 50.8587 113.321 50.736C113.689 50.6133 114.116 50.5147 114.601 50.44C115.086 50.36 115.641 50.312 116.265 50.296V49.816C116.265 49.2667 116.148 48.8613 115.913 48.6C115.678 48.3333 115.34 48.2 114.897 48.2C114.577 48.2 114.31 48.2373 114.097 48.312C113.889 48.3867 113.705 48.472 113.545 48.568C113.385 48.6587 113.238 48.7413 113.105 48.816C112.977 48.8907 112.833 48.928 112.673 48.928C112.534 48.928 112.417 48.8933 112.321 48.824C112.225 48.7493 112.148 48.664 112.089 48.568L111.737 47.936ZM122.681 55.128C121.966 55.128 121.417 54.928 121.033 54.528C120.654 54.1227 120.465 53.5653 120.465 52.856V48.272H119.625C119.518 48.272 119.427 48.2373 119.353 48.168C119.278 48.0987 119.241 47.9947 119.241 47.856V47.072L120.561 46.856L120.977 44.616C121.003 44.5093 121.054 44.4267 121.129 44.368C121.203 44.3093 121.299 44.28 121.417 44.28H122.441V46.864H124.633V48.272H122.441V52.72C122.441 52.976 122.502 53.176 122.625 53.32C122.753 53.464 122.926 53.536 123.145 53.536C123.267 53.536 123.369 53.5227 123.449 53.496C123.534 53.464 123.606 53.432 123.665 53.4C123.729 53.368 123.785 53.3387 123.833 53.312C123.881 53.28 123.929 53.264 123.977 53.264C124.035 53.264 124.083 53.28 124.121 53.312C124.158 53.3387 124.198 53.3813 124.241 53.44L124.833 54.4C124.545 54.64 124.214 54.8213 123.841 54.944C123.467 55.0667 123.081 55.128 122.681 55.128ZM127.946 46.792V55H125.962V46.792H127.946ZM128.218 44.4C128.218 44.5707 128.183 44.7307 128.114 44.88C128.045 45.0293 127.951 45.16 127.834 45.272C127.722 45.384 127.589 45.4747 127.434 45.544C127.279 45.608 127.114 45.64 126.938 45.64C126.767 45.64 126.605 45.608 126.45 45.544C126.301 45.4747 126.17 45.384 126.058 45.272C125.946 45.16 125.855 45.0293 125.786 44.88C125.722 44.7307 125.69 44.5707 125.69 44.4C125.69 44.224 125.722 44.0587 125.786 43.904C125.855 43.7493 125.946 43.616 126.058 43.504C126.17 43.392 126.301 43.304 126.45 43.24C126.605 43.1707 126.767 43.136 126.938 43.136C127.114 43.136 127.279 43.1707 127.434 43.24C127.589 43.304 127.722 43.392 127.834 43.504C127.951 43.616 128.045 43.7493 128.114 43.904C128.183 44.0587 128.218 44.224 128.218 44.4ZM137.36 46.792L134.104 55H132.312L129.056 46.792H130.688C130.838 46.792 130.96 46.8267 131.056 46.896C131.158 46.9653 131.224 47.0533 131.256 47.16L132.84 51.544C132.926 51.8 133 52.0507 133.064 52.296C133.128 52.5413 133.184 52.7867 133.232 53.032C133.286 52.7867 133.344 52.5413 133.408 52.296C133.472 52.0507 133.55 51.8 133.64 51.544L135.256 47.16C135.294 47.0533 135.36 46.9653 135.456 46.896C135.552 46.8267 135.667 46.792 135.8 46.792H137.36ZM142.546 51.496C141.976 51.5227 141.496 51.5733 141.106 51.648C140.717 51.7173 140.405 51.808 140.17 51.92C139.936 52.032 139.768 52.1627 139.666 52.312C139.565 52.4613 139.514 52.624 139.514 52.8C139.514 53.1467 139.616 53.3947 139.818 53.544C140.026 53.6933 140.296 53.768 140.626 53.768C141.032 53.768 141.381 53.696 141.674 53.552C141.973 53.4027 142.264 53.1787 142.546 52.88V51.496ZM138.018 47.936C138.962 47.072 140.098 46.64 141.426 46.64C141.906 46.64 142.336 46.72 142.714 46.88C143.093 47.0347 143.413 47.2533 143.674 47.536C143.936 47.8133 144.133 48.1467 144.266 48.536C144.405 48.9253 144.474 49.352 144.474 49.816V55H143.578C143.392 55 143.248 54.9733 143.146 54.92C143.045 54.8613 142.965 54.7467 142.906 54.576L142.73 53.984C142.522 54.1707 142.32 54.336 142.122 54.48C141.925 54.6187 141.72 54.736 141.506 54.832C141.293 54.928 141.064 55 140.818 55.048C140.578 55.1013 140.312 55.128 140.018 55.128C139.672 55.128 139.352 55.0827 139.058 54.992C138.765 54.896 138.512 54.7547 138.298 54.568C138.085 54.3813 137.92 54.1493 137.802 53.872C137.685 53.5947 137.626 53.272 137.626 52.904C137.626 52.696 137.661 52.4907 137.73 52.288C137.8 52.08 137.912 51.8827 138.066 51.696C138.226 51.5093 138.432 51.3333 138.682 51.168C138.933 51.0027 139.24 50.8587 139.602 50.736C139.97 50.6133 140.397 50.5147 140.882 50.44C141.368 50.36 141.922 50.312 142.546 50.296V49.816C142.546 49.2667 142.429 48.8613 142.194 48.6C141.96 48.3333 141.621 48.2 141.178 48.2C140.858 48.2 140.592 48.2373 140.378 48.312C140.17 48.3867 139.986 48.472 139.826 48.568C139.666 48.6587 139.52 48.7413 139.386 48.816C139.258 48.8907 139.114 48.928 138.954 48.928C138.816 48.928 138.698 48.8933 138.602 48.824C138.506 48.7493 138.429 48.664 138.37 48.568L138.018 47.936Z" fill="#218738"/>
<circle opacity="0.5" cx="36" cy="36" r="28" fill="#C2C2C2"/>
<path d="M52.1176 49.0375H51.6817C51.4872 48.7205 51.3168 48.382 51.1769 48.0273C51.0531 47.7133 50.7104 47.5642 50.4114 47.6942C50.1124 47.8242 49.9704 48.1841 50.0941 48.498C50.1665 48.6818 50.2475 48.861 50.3329 49.0375H27.3479C27.1709 49.0375 26.9998 49.0638 26.8372 49.112C26.4709 48.4599 25.976 47.2472 25.976 45.4491C25.976 45.1808 25.9873 44.9163 26.0094 44.6572H37.2356C37.5593 44.6572 37.8216 44.3817 37.8216 44.0419C37.8216 43.7022 37.5593 43.4267 37.2356 43.4267H26.5029L27.8797 41.8607H50.3298C50.0887 42.3576 49.8997 42.8822 49.7657 43.4267H42.0638C41.7401 43.4267 41.4779 43.7022 41.4779 44.0419C41.4779 44.3817 41.7401 44.6572 42.0638 44.6572H49.5607C49.5377 44.9072 49.5244 45.1597 49.5234 45.4143C49.522 45.7541 49.7832 46.0307 50.1069 46.0322H50.1094C50.4318 46.0322 50.6939 45.7584 50.6953 45.4195C50.7004 44.1276 51.0415 42.9 51.6806 41.8607H52.1176C53.1555 41.8607 54 40.974 54 39.8842C54 38.7943 53.1555 37.9077 52.1176 37.9077H44.793L51.5038 30.8611C51.8849 30.461 52.0947 29.9291 52.0947 29.3633C52.0947 28.7975 51.8848 28.2656 51.5039 27.8657L51.3564 27.7107C50.9754 27.3107 50.4688 27.0903 49.93 27.0903C49.4386 27.0903 48.9743 27.2741 48.6073 27.6099L47.5701 26.5208L47.9232 26.15C48.3972 25.6524 48.5396 24.9099 48.286 24.2585L47.8087 23.0326C47.6441 22.6098 47.2919 22.3032 46.866 22.2113L46.0511 21.3556C45.8222 21.1153 45.4513 21.1153 45.2224 21.3556C44.9936 21.5959 44.9936 21.9855 45.2224 22.2256L45.6234 22.6466L36.3889 32.3429L33.6732 29.4914L42.9077 19.7951L43.2672 20.1725C43.3815 20.2927 43.5315 20.3527 43.6815 20.3527C43.8314 20.3527 43.9814 20.2927 44.0958 20.1725C44.3247 19.9322 44.3247 19.5427 44.0958 19.3025L43.3223 18.4903C43.2347 18.0432 42.9428 17.6734 42.5401 17.5004C42.5401 17.5004 42.5401 17.5004 42.5401 17.5004L41.3726 16.9993C40.7525 16.7331 40.0452 16.8824 39.5712 17.3801L39.2181 17.7509L38.1807 16.6618C38.5005 16.2765 38.6755 15.789 38.6755 15.273C38.6755 14.7072 38.4656 14.1753 38.0847 13.7754L37.9372 13.6204C37.5562 13.2204 37.0496 13 36.5108 13C35.972 13 35.4654 13.2203 35.0844 13.6204L27.7925 21.277C27.4115 21.6771 27.2016 22.209 27.2016 22.7748C27.2016 23.3406 27.4115 23.8725 27.7925 24.2725L27.9399 24.4273C28.3209 24.8273 28.8274 25.0477 29.3663 25.0477C29.8578 25.0477 30.322 24.8638 30.689 24.5281L31.7263 25.6173L31.3731 25.9882C30.8992 26.4858 30.7568 27.2283 31.0104 27.8796L31.4877 29.1055C31.6506 29.5238 31.9972 29.8281 32.417 29.9235L29.479 33.6034C28.7538 33.2892 27.8871 33.4407 27.2988 34.0586C26.9209 34.4554 26.7127 34.9829 26.7127 35.544C26.7127 35.7952 26.7548 36.0395 26.8347 36.2685L25.5023 37.56C25.2645 37.7905 25.2497 38.1797 25.4692 38.4294C25.5847 38.5608 25.742 38.6273 25.8999 38.6273C26.042 38.6273 26.1845 38.5734 26.2972 38.4642L27.5284 37.2707L28.98 38.7949L18.0692 51.2054C17.758 51.5592 17.3341 51.7595 16.8754 51.7692C16.416 51.7784 15.9855 51.5966 15.6611 51.2559C15.3367 50.9152 15.1631 50.4625 15.1722 49.9808C15.1814 49.4992 15.3721 49.054 15.7092 48.7273L24.2677 40.4314C24.5054 40.2009 24.5203 39.8116 24.3008 39.562C24.0814 39.3124 23.7107 39.2967 23.4728 39.5273L14.9143 47.8232C14.3407 48.3792 14.0162 49.1367 14.0006 49.9562C13.985 50.7757 14.2804 51.5464 14.8324 52.1259C15.3705 52.6911 16.0815 53 16.84 53C16.8595 53 16.8791 52.9998 16.8987 52.9994C17.6792 52.983 18.4007 52.6423 18.9302 52.04L22.4419 48.0456C22.7282 49.0763 23.1322 49.7832 23.384 50.1548C23.638 50.53 24.0534 50.7539 24.4951 50.7539H25.4823C25.4715 50.8391 25.4655 50.9258 25.4655 51.014C25.4655 52.1038 26.3099 52.9905 27.3478 52.9905H52.1176C53.1555 52.9905 53.9999 52.1038 53.9999 51.014C53.9998 49.9242 53.1555 49.0375 52.1176 49.0375ZM52.828 39.8842C52.828 40.2955 52.5093 40.6302 52.1175 40.6302H28.9615L29.9355 39.5223C30.1575 39.6075 30.391 39.6505 30.6246 39.6505C31.0922 39.6505 31.5596 39.4793 31.9342 39.1382H52.1176C52.5093 39.1382 52.828 39.4728 52.828 39.8842ZM35.1511 32.7836L31.7583 35.7702L30.4093 34.3538L33.2536 30.7912L35.1511 32.7836ZM32.595 37.9077C32.6583 37.5192 32.6177 37.1157 32.4728 36.7469L35.9773 33.6619C36.0683 34.1027 36.358 34.4667 36.7564 34.6377L37.9239 35.1389C38.1281 35.2265 38.3416 35.269 38.5531 35.269C38.9844 35.269 39.4074 35.0919 39.7253 34.7581L40.0785 34.3872L41.1157 35.4763C40.548 36.1617 40.4703 37.1415 40.8825 37.9076H32.595V37.9077ZM49.93 28.3209C50.1559 28.3209 50.3681 28.4133 50.5277 28.5808L50.6752 28.7357C50.8349 28.9033 50.9228 29.1263 50.9228 29.3633C50.9228 29.6004 50.8349 29.8233 50.6751 29.9909L43.3832 37.6476C43.2236 37.8152 43.0112 37.9076 42.7855 37.9076C42.5598 37.9076 42.3475 37.8153 42.1879 37.6476L42.0404 37.4928C41.7108 37.1467 41.7108 36.5836 42.0404 36.2375L49.3324 28.5809C49.4919 28.4132 49.7043 28.3209 49.93 28.3209ZM47.7748 28.476L41.9405 34.6021L40.9072 33.5171L46.7414 27.391L47.7748 28.476ZM37.1573 33.2764L46.5121 23.4536C46.5418 23.4224 46.5742 23.4134 46.6017 23.4134C46.6117 23.4134 46.6211 23.4146 46.6294 23.4164C46.6604 23.4229 46.7021 23.4424 46.7238 23.4984L47.2011 24.7243C47.2756 24.9157 47.2338 25.1337 47.0945 25.2799L38.8966 33.8881C38.7575 34.0342 38.5497 34.0782 38.3674 33.9999L37.2 33.4988C37.1467 33.476 37.1281 33.4322 37.1219 33.3996C37.1156 33.3669 37.1166 33.319 37.1573 33.2764ZM29.3664 23.8173C29.1406 23.8173 28.9284 23.7251 28.7688 23.5574L28.6213 23.4026C28.4617 23.235 28.3738 23.0121 28.3738 22.775C28.3738 22.5379 28.4617 22.3151 28.6213 22.1474L35.9133 14.4907C36.0729 14.323 36.2852 14.2307 36.5109 14.2307C36.7368 14.2307 36.949 14.3231 37.1086 14.4906L37.2561 14.6456C37.4158 14.8132 37.5037 15.0362 37.5037 15.2732C37.5037 15.5103 37.4158 15.7332 37.256 15.9009L29.9642 23.5575C29.8045 23.725 29.5922 23.8173 29.3664 23.8173ZM31.5216 23.6622L37.3559 17.536L38.3893 18.6211L32.555 24.7473L31.5216 23.6622ZM32.2018 26.8582L40.3998 18.2501C40.4932 18.1521 40.6174 18.1 40.7441 18.1C40.8063 18.1 40.869 18.1126 40.929 18.1383L42.0965 18.6395C42.1497 18.6623 42.1683 18.706 42.1745 18.7386C42.1808 18.7713 42.1797 18.8191 42.139 18.8618L32.7843 28.6845C32.7436 28.7272 32.6981 28.7283 32.6669 28.7218C32.6359 28.7152 32.5943 28.6957 32.5725 28.6398L32.0952 27.4138C32.0207 27.2225 32.0625 27.0045 32.2018 26.8582ZM27.8847 35.544C27.8847 35.3116 27.9709 35.093 28.1274 34.9287C28.4506 34.5894 28.9763 34.5894 29.2996 34.9287L31.2106 36.9353C31.5338 37.2747 31.5338 37.8268 31.2106 38.1661C30.8874 38.5053 30.3616 38.5053 30.0385 38.1661L28.1275 36.1594C27.9709 35.995 27.8847 35.7765 27.8847 35.544ZM24.339 49.4416C24.079 49.0578 23.62 48.2321 23.4006 46.9553L24.8051 45.3578C24.8049 45.3882 24.8042 45.4186 24.8042 45.4491C24.8042 47.3462 25.2944 48.7072 25.713 49.5234H24.4953C24.4321 49.5234 24.3737 49.4929 24.339 49.4416ZM52.1176 51.76H27.3479C26.9562 51.76 26.6374 51.4253 26.6374 51.014C26.6374 50.6026 26.9562 50.268 27.3479 50.268H52.1176C52.5094 50.268 52.828 50.6027 52.828 51.014C52.828 51.4254 52.5093 51.76 52.1176 51.76Z" fill="#218738"/>
<path d="M30.3928 46.2212C30.0692 46.2212 29.8069 46.4967 29.8069 46.8364C29.8069 47.1762 30.0692 47.4517 30.3928 47.4517H44.0435C44.3672 47.4517 44.6294 47.1762 44.6294 46.8364C44.6294 46.4967 44.3672 46.2212 44.0435 46.2212H30.3928Z" fill="#218738"/>
</svg>
