<svg width="328" height="73" viewBox="0 0 328 73" fill="none" xmlns="http://www.w3.org/2000/svg">
<path d="M80.232 40.272C80.3493 40.272 80.4533 40.3173 80.544 40.408L81.392 41.328C80.9227 41.9093 80.344 42.3547 79.656 42.664C78.9733 42.9733 78.152 43.128 77.192 43.128C76.3333 43.128 75.56 42.9813 74.872 42.688C74.1893 42.3947 73.6053 41.9867 73.12 41.464C72.6347 40.9413 72.2613 40.3173 72 39.592C71.744 38.8667 71.616 38.0747 71.616 37.216C71.616 36.3467 71.7547 35.552 72.032 34.832C72.3093 34.1067 72.6987 33.4827 73.2 32.96C73.7067 32.4373 74.3093 32.032 75.008 31.744C75.7067 31.4507 76.48 31.304 77.328 31.304C78.1707 31.304 78.9173 31.4427 79.568 31.72C80.224 31.9973 80.7813 32.36 81.24 32.808L80.52 33.808C80.4773 33.872 80.4213 33.928 80.352 33.976C80.288 34.024 80.1973 34.048 80.08 34.048C80 34.048 79.9173 34.0267 79.832 33.984C79.7467 33.936 79.6533 33.88 79.552 33.816C79.4507 33.7467 79.3333 33.672 79.2 33.592C79.0667 33.512 78.912 33.44 78.736 33.376C78.56 33.3067 78.3547 33.2507 78.12 33.208C77.8907 33.16 77.624 33.136 77.32 33.136C76.8027 33.136 76.328 33.2293 75.896 33.416C75.4693 33.5973 75.1013 33.864 74.792 34.216C74.4827 34.5627 74.2427 34.9893 74.072 35.496C73.9013 35.9973 73.816 36.5707 73.816 37.216C73.816 37.8667 73.9067 38.4453 74.088 38.952C74.2747 39.4587 74.5253 39.8853 74.84 40.232C75.1547 40.5787 75.5253 40.8453 75.952 41.032C76.3787 41.2133 76.8373 41.304 77.328 41.304C77.6213 41.304 77.8853 41.288 78.12 41.256C78.36 41.224 78.5787 41.1733 78.776 41.104C78.9787 41.0347 79.168 40.9467 79.344 40.84C79.5253 40.728 79.704 40.592 79.88 40.432C79.9333 40.384 79.9893 40.3467 80.048 40.32C80.1067 40.288 80.168 40.272 80.232 40.272ZM86.0143 34.664C86.6223 34.664 87.1743 34.7627 87.6703 34.96C88.1716 35.1573 88.5983 35.4373 88.9503 35.8C89.3076 36.1627 89.5822 36.6053 89.7743 37.128C89.9663 37.6507 90.0623 38.2347 90.0623 38.88C90.0623 39.5307 89.9663 40.1173 89.7743 40.64C89.5822 41.1627 89.3076 41.608 88.9503 41.976C88.5983 42.344 88.1716 42.6267 87.6703 42.824C87.1743 43.0213 86.6223 43.12 86.0143 43.12C85.4009 43.12 84.8436 43.0213 84.3423 42.824C83.8409 42.6267 83.4116 42.344 83.0543 41.976C82.7023 41.608 82.4276 41.1627 82.2303 40.64C82.0383 40.1173 81.9423 39.5307 81.9423 38.88C81.9423 38.2347 82.0383 37.6507 82.2303 37.128C82.4276 36.6053 82.7023 36.1627 83.0543 35.8C83.4116 35.4373 83.8409 35.1573 84.3423 34.96C84.8436 34.7627 85.4009 34.664 86.0143 34.664ZM86.0143 41.6C86.6969 41.6 87.2009 41.3707 87.5263 40.912C87.8569 40.4533 88.0223 39.7813 88.0223 38.896C88.0223 38.0107 87.8569 37.336 87.5263 36.872C87.2009 36.408 86.6969 36.176 86.0143 36.176C85.3209 36.176 84.8063 36.4107 84.4703 36.88C84.1396 37.344 83.9743 38.016 83.9743 38.896C83.9743 39.776 84.1396 40.448 84.4703 40.912C84.8063 41.3707 85.3209 41.6 86.0143 41.6ZM91.5698 43V34.792H92.7778C93.0338 34.792 93.2018 34.912 93.2818 35.152L93.4098 35.76C93.5538 35.6 93.7031 35.4533 93.8578 35.32C94.0178 35.1867 94.1858 35.072 94.3618 34.976C94.5431 34.88 94.7351 34.8053 94.9378 34.752C95.1458 34.6933 95.3724 34.664 95.6178 34.664C96.1351 34.664 96.5591 34.8053 96.8898 35.088C97.2258 35.3653 97.4764 35.736 97.6418 36.2C97.7698 35.928 97.9298 35.696 98.1218 35.504C98.3138 35.3067 98.5244 35.1467 98.7538 35.024C98.9831 34.9013 99.2258 34.8107 99.4818 34.752C99.7431 34.6933 100.004 34.664 100.266 34.664C100.719 34.664 101.122 34.7333 101.474 34.872C101.826 35.0107 102.122 35.2133 102.362 35.48C102.602 35.7467 102.783 36.072 102.906 36.456C103.034 36.84 103.098 37.28 103.098 37.776V43H101.122V37.776C101.122 37.2533 101.007 36.8613 100.778 36.6C100.548 36.3333 100.212 36.2 99.7698 36.2C99.5671 36.2 99.3778 36.2347 99.2018 36.304C99.0311 36.3733 98.8791 36.4747 98.7458 36.608C98.6178 36.736 98.5164 36.8987 98.4418 37.096C98.3671 37.2933 98.3298 37.52 98.3298 37.776V43H96.3458V37.776C96.3458 37.2267 96.2338 36.8267 96.0098 36.576C95.7911 36.3253 95.4684 36.2 95.0418 36.2C94.7538 36.2 94.4844 36.272 94.2338 36.416C93.9884 36.5547 93.7591 36.7467 93.5458 36.992V43H91.5698ZM107.024 34.792V43H105.04V34.792H107.024ZM107.296 32.4C107.296 32.5707 107.261 32.7307 107.192 32.88C107.123 33.0293 107.029 33.16 106.912 33.272C106.8 33.384 106.667 33.4747 106.512 33.544C106.357 33.608 106.192 33.64 106.016 33.64C105.845 33.64 105.683 33.608 105.528 33.544C105.379 33.4747 105.248 33.384 105.136 33.272C105.024 33.16 104.933 33.0293 104.864 32.88C104.8 32.7307 104.768 32.5707 104.768 32.4C104.768 32.224 104.8 32.0587 104.864 31.904C104.933 31.7493 105.024 31.616 105.136 31.504C105.248 31.392 105.379 31.304 105.528 31.24C105.683 31.1707 105.845 31.136 106.016 31.136C106.192 31.136 106.357 31.1707 106.512 31.24C106.667 31.304 106.8 31.392 106.912 31.504C107.029 31.616 107.123 31.7493 107.192 31.904C107.261 32.0587 107.296 32.224 107.296 32.4ZM114.047 36.392C113.993 36.4773 113.937 36.5387 113.879 36.576C113.82 36.608 113.745 36.624 113.655 36.624C113.559 36.624 113.455 36.5973 113.343 36.544C113.236 36.4907 113.111 36.432 112.967 36.368C112.823 36.2987 112.657 36.2373 112.47 36.184C112.289 36.1307 112.073 36.104 111.823 36.104C111.433 36.104 111.127 36.1867 110.903 36.352C110.684 36.5173 110.575 36.7333 110.575 37C110.575 37.176 110.631 37.3253 110.743 37.448C110.86 37.5653 111.012 37.6693 111.199 37.76C111.391 37.8507 111.607 37.9333 111.847 38.008C112.087 38.0773 112.329 38.1547 112.575 38.24C112.825 38.3253 113.071 38.424 113.311 38.536C113.551 38.6427 113.764 38.7813 113.951 38.952C114.143 39.1173 114.295 39.3173 114.407 39.552C114.524 39.7867 114.583 40.0693 114.583 40.4C114.583 40.7947 114.511 41.16 114.367 41.496C114.228 41.8267 114.02 42.1147 113.743 42.36C113.465 42.6 113.121 42.7893 112.711 42.928C112.305 43.0613 111.836 43.128 111.303 43.128C111.02 43.128 110.743 43.1013 110.471 43.048C110.204 43 109.945 42.9307 109.695 42.84C109.449 42.7493 109.22 42.6427 109.007 42.52C108.799 42.3973 108.615 42.264 108.455 42.12L108.911 41.368C108.969 41.2773 109.039 41.208 109.118 41.16C109.198 41.112 109.3 41.088 109.423 41.088C109.545 41.088 109.66 41.1227 109.767 41.192C109.879 41.2613 110.007 41.336 110.151 41.416C110.295 41.496 110.463 41.5707 110.655 41.64C110.852 41.7093 111.1 41.744 111.399 41.744C111.633 41.744 111.833 41.7173 111.999 41.664C112.169 41.6053 112.308 41.5307 112.415 41.44C112.527 41.3493 112.606 41.2453 112.655 41.128C112.708 41.0053 112.735 40.88 112.735 40.752C112.735 40.56 112.676 40.4027 112.559 40.28C112.447 40.1573 112.295 40.0507 112.102 39.96C111.916 39.8693 111.7 39.7893 111.455 39.72C111.215 39.6453 110.967 39.5653 110.711 39.48C110.46 39.3947 110.212 39.296 109.967 39.184C109.727 39.0667 109.511 38.92 109.319 38.744C109.132 38.568 108.98 38.352 108.863 38.096C108.751 37.84 108.695 37.5307 108.695 37.168C108.695 36.832 108.761 36.512 108.895 36.208C109.028 35.904 109.223 35.64 109.479 35.416C109.74 35.1867 110.063 35.0053 110.447 34.872C110.836 34.7333 111.284 34.664 111.791 34.664C112.356 34.664 112.871 34.7573 113.335 34.944C113.799 35.1307 114.185 35.376 114.495 35.68L114.047 36.392ZM121.078 36.392C121.024 36.4773 120.968 36.5387 120.91 36.576C120.851 36.608 120.776 36.624 120.686 36.624C120.59 36.624 120.486 36.5973 120.374 36.544C120.267 36.4907 120.142 36.432 119.998 36.368C119.854 36.2987 119.688 36.2373 119.502 36.184C119.32 36.1307 119.104 36.104 118.854 36.104C118.464 36.104 118.158 36.1867 117.934 36.352C117.715 36.5173 117.606 36.7333 117.606 37C117.606 37.176 117.662 37.3253 117.774 37.448C117.891 37.5653 118.043 37.6693 118.23 37.76C118.422 37.8507 118.638 37.9333 118.878 38.008C119.118 38.0773 119.36 38.1547 119.606 38.24C119.856 38.3253 120.102 38.424 120.342 38.536C120.582 38.6427 120.795 38.7813 120.982 38.952C121.174 39.1173 121.326 39.3173 121.438 39.552C121.555 39.7867 121.614 40.0693 121.614 40.4C121.614 40.7947 121.542 41.16 121.398 41.496C121.259 41.8267 121.051 42.1147 120.774 42.36C120.496 42.6 120.152 42.7893 119.742 42.928C119.336 43.0613 118.867 43.128 118.334 43.128C118.051 43.128 117.774 43.1013 117.502 43.048C117.235 43 116.976 42.9307 116.726 42.84C116.48 42.7493 116.251 42.6427 116.038 42.52C115.83 42.3973 115.646 42.264 115.486 42.12L115.942 41.368C116 41.2773 116.07 41.208 116.15 41.16C116.23 41.112 116.331 41.088 116.454 41.088C116.576 41.088 116.691 41.1227 116.798 41.192C116.91 41.2613 117.038 41.336 117.182 41.416C117.326 41.496 117.494 41.5707 117.686 41.64C117.883 41.7093 118.131 41.744 118.43 41.744C118.664 41.744 118.864 41.7173 119.03 41.664C119.2 41.6053 119.339 41.5307 119.446 41.44C119.558 41.3493 119.638 41.2453 119.686 41.128C119.739 41.0053 119.766 40.88 119.766 40.752C119.766 40.56 119.707 40.4027 119.59 40.28C119.478 40.1573 119.326 40.0507 119.134 39.96C118.947 39.8693 118.731 39.7893 118.486 39.72C118.246 39.6453 117.998 39.5653 117.742 39.48C117.491 39.3947 117.243 39.296 116.998 39.184C116.758 39.0667 116.542 38.92 116.35 38.744C116.163 38.568 116.011 38.352 115.894 38.096C115.782 37.84 115.726 37.5307 115.726 37.168C115.726 36.832 115.792 36.512 115.926 36.208C116.059 35.904 116.254 35.64 116.51 35.416C116.771 35.1867 117.094 35.0053 117.478 34.872C117.867 34.7333 118.315 34.664 118.822 34.664C119.387 34.664 119.902 34.7573 120.366 34.944C120.83 35.1307 121.216 35.376 121.526 35.68L121.078 36.392ZM127.437 39.496C126.866 39.5227 126.386 39.5733 125.997 39.648C125.608 39.7173 125.296 39.808 125.061 39.92C124.826 40.032 124.658 40.1627 124.557 40.312C124.456 40.4613 124.405 40.624 124.405 40.8C124.405 41.1467 124.506 41.3947 124.709 41.544C124.917 41.6933 125.186 41.768 125.517 41.768C125.922 41.768 126.272 41.696 126.565 41.552C126.864 41.4027 127.154 41.1787 127.437 40.88V39.496ZM122.909 35.936C123.853 35.072 124.989 34.64 126.317 34.64C126.797 34.64 127.226 34.72 127.605 34.88C127.984 35.0347 128.304 35.2533 128.565 35.536C128.826 35.8133 129.024 36.1467 129.157 36.536C129.296 36.9253 129.365 37.352 129.365 37.816V43H128.469C128.282 43 128.138 42.9733 128.037 42.92C127.936 42.8613 127.856 42.7467 127.797 42.576L127.621 41.984C127.413 42.1707 127.21 42.336 127.013 42.48C126.816 42.6187 126.61 42.736 126.397 42.832C126.184 42.928 125.954 43 125.709 43.048C125.469 43.1013 125.202 43.128 124.909 43.128C124.562 43.128 124.242 43.0827 123.949 42.992C123.656 42.896 123.402 42.7547 123.189 42.568C122.976 42.3813 122.81 42.1493 122.693 41.872C122.576 41.5947 122.517 41.272 122.517 40.904C122.517 40.696 122.552 40.4907 122.621 40.288C122.69 40.08 122.802 39.8827 122.957 39.696C123.117 39.5093 123.322 39.3333 123.573 39.168C123.824 39.0027 124.13 38.8587 124.493 38.736C124.861 38.6133 125.288 38.5147 125.773 38.44C126.258 38.36 126.813 38.312 127.437 38.296V37.816C127.437 37.2667 127.32 36.8613 127.085 36.6C126.85 36.3333 126.512 36.2 126.069 36.2C125.749 36.2 125.482 36.2373 125.269 36.312C125.061 36.3867 124.877 36.472 124.717 36.568C124.557 36.6587 124.41 36.7413 124.277 36.816C124.149 36.8907 124.005 36.928 123.845 36.928C123.706 36.928 123.589 36.8933 123.493 36.824C123.397 36.7493 123.32 36.664 123.261 36.568L122.909 35.936ZM126.989 32.128C127.149 32.128 127.274 32.0853 127.365 32C127.456 31.9093 127.501 31.7493 127.501 31.52H128.701C128.701 31.8187 128.658 32.0907 128.573 32.336C128.493 32.576 128.381 32.784 128.237 32.96C128.093 33.1307 127.92 33.264 127.717 33.36C127.52 33.4507 127.301 33.496 127.061 33.496C126.869 33.496 126.69 33.4613 126.525 33.392C126.36 33.3227 126.205 33.248 126.061 33.168C125.917 33.088 125.781 33.0133 125.653 32.944C125.53 32.8747 125.416 32.84 125.309 32.84C125.154 32.84 125.032 32.888 124.941 32.984C124.856 33.0747 124.813 33.232 124.813 33.456H123.589C123.589 33.1573 123.629 32.888 123.709 32.648C123.794 32.4027 123.912 32.1947 124.061 32.024C124.21 31.848 124.384 31.712 124.581 31.616C124.784 31.52 125.002 31.472 125.237 31.472C125.429 31.472 125.608 31.5067 125.773 31.576C125.944 31.6453 126.101 31.72 126.245 31.8C126.389 31.88 126.522 31.9547 126.645 32.024C126.768 32.0933 126.882 32.128 126.989 32.128ZM134.858 34.664C135.466 34.664 136.018 34.7627 136.514 34.96C137.015 35.1573 137.442 35.4373 137.794 35.8C138.151 36.1627 138.426 36.6053 138.618 37.128C138.81 37.6507 138.906 38.2347 138.906 38.88C138.906 39.5307 138.81 40.1173 138.618 40.64C138.426 41.1627 138.151 41.608 137.794 41.976C137.442 42.344 137.015 42.6267 136.514 42.824C136.018 43.0213 135.466 43.12 134.858 43.12C134.245 43.12 133.687 43.0213 133.186 42.824C132.685 42.6267 132.255 42.344 131.898 41.976C131.546 41.608 131.271 41.1627 131.074 40.64C130.882 40.1173 130.786 39.5307 130.786 38.88C130.786 38.2347 130.882 37.6507 131.074 37.128C131.271 36.6053 131.546 36.1627 131.898 35.8C132.255 35.4373 132.685 35.1573 133.186 34.96C133.687 34.7627 134.245 34.664 134.858 34.664ZM134.858 41.6C135.541 41.6 136.045 41.3707 136.37 40.912C136.701 40.4533 136.866 39.7813 136.866 38.896C136.866 38.0107 136.701 37.336 136.37 36.872C136.045 36.408 135.541 36.176 134.858 36.176C134.165 36.176 133.65 36.4107 133.314 36.88C132.983 37.344 132.818 38.016 132.818 38.896C132.818 39.776 132.983 40.448 133.314 40.912C133.65 41.3707 134.165 41.6 134.858 41.6ZM149.456 36.888C149.232 36.616 148.987 36.424 148.72 36.312C148.459 36.2 148.176 36.144 147.872 36.144C147.573 36.144 147.304 36.2 147.064 36.312C146.824 36.424 146.619 36.5947 146.448 36.824C146.277 37.048 146.147 37.336 146.056 37.688C145.965 38.0347 145.92 38.4453 145.92 38.92C145.92 39.4 145.957 39.808 146.032 40.144C146.112 40.4747 146.224 40.7467 146.368 40.96C146.512 41.168 146.688 41.32 146.896 41.416C147.104 41.5067 147.336 41.552 147.592 41.552C148.003 41.552 148.352 41.4667 148.64 41.296C148.928 41.1253 149.2 40.8827 149.456 40.568V36.888ZM151.432 31.112V43H150.224C149.963 43 149.797 42.88 149.728 42.64L149.56 41.848C149.229 42.2267 148.848 42.5333 148.416 42.768C147.989 43.0027 147.491 43.12 146.92 43.12C146.472 43.12 146.061 43.0267 145.688 42.84C145.315 42.6533 144.992 42.384 144.72 42.032C144.453 41.6747 144.245 41.2347 144.096 40.712C143.952 40.1893 143.88 39.592 143.88 38.92C143.88 38.312 143.963 37.7467 144.128 37.224C144.293 36.7013 144.531 36.248 144.84 35.864C145.149 35.48 145.52 35.1813 145.952 34.968C146.384 34.7493 146.869 34.64 147.408 34.64C147.867 34.64 148.259 34.712 148.584 34.856C148.909 35 149.2 35.1947 149.456 35.44V31.112H151.432ZM158.67 37.952C158.67 37.696 158.633 37.456 158.558 37.232C158.489 37.0027 158.382 36.8027 158.238 36.632C158.094 36.4613 157.91 36.328 157.686 36.232C157.468 36.1307 157.212 36.08 156.918 36.08C156.348 36.08 155.897 36.2427 155.566 36.568C155.241 36.8933 155.033 37.3547 154.942 37.952H158.67ZM154.902 39.144C154.934 39.5653 155.009 39.9307 155.126 40.24C155.244 40.544 155.398 40.7973 155.59 41C155.782 41.1973 156.009 41.3467 156.27 41.448C156.537 41.544 156.83 41.592 157.15 41.592C157.47 41.592 157.745 41.5547 157.974 41.48C158.209 41.4053 158.412 41.3227 158.582 41.232C158.758 41.1413 158.91 41.0587 159.038 40.984C159.172 40.9093 159.3 40.872 159.422 40.872C159.588 40.872 159.71 40.9333 159.79 41.056L160.358 41.776C160.14 42.032 159.894 42.248 159.622 42.424C159.35 42.5947 159.065 42.7333 158.766 42.84C158.473 42.9413 158.172 43.0133 157.862 43.056C157.558 43.0987 157.262 43.12 156.974 43.12C156.404 43.12 155.873 43.0267 155.382 42.84C154.892 42.648 154.465 42.368 154.102 42C153.74 41.6267 153.454 41.168 153.246 40.624C153.038 40.0747 152.934 39.44 152.934 38.72C152.934 38.16 153.025 37.6347 153.206 37.144C153.388 36.648 153.646 36.2187 153.982 35.856C154.324 35.488 154.737 35.1973 155.222 34.984C155.713 34.7707 156.265 34.664 156.878 34.664C157.396 34.664 157.873 34.7467 158.31 34.912C158.748 35.0773 159.124 35.32 159.438 35.64C159.753 35.9547 159.998 36.344 160.174 36.808C160.356 37.2667 160.446 37.792 160.446 38.384C160.446 38.6827 160.414 38.8853 160.35 38.992C160.286 39.0933 160.164 39.144 159.982 39.144H154.902ZM174.076 40.272C174.193 40.272 174.297 40.3173 174.388 40.408L175.236 41.328C174.766 41.9093 174.188 42.3547 173.5 42.664C172.817 42.9733 171.996 43.128 171.036 43.128C170.177 43.128 169.404 42.9813 168.716 42.688C168.033 42.3947 167.449 41.9867 166.964 41.464C166.478 40.9413 166.105 40.3173 165.844 39.592C165.588 38.8667 165.46 38.0747 165.46 37.216C165.46 36.3467 165.598 35.552 165.876 34.832C166.153 34.1067 166.542 33.4827 167.044 32.96C167.55 32.4373 168.153 32.032 168.852 31.744C169.55 31.4507 170.324 31.304 171.172 31.304C172.014 31.304 172.761 31.4427 173.412 31.72C174.068 31.9973 174.625 32.36 175.084 32.808L174.364 33.808C174.321 33.872 174.265 33.928 174.196 33.976C174.132 34.024 174.041 34.048 173.924 34.048C173.844 34.048 173.761 34.0267 173.676 33.984C173.59 33.936 173.497 33.88 173.396 33.816C173.294 33.7467 173.177 33.672 173.044 33.592C172.91 33.512 172.756 33.44 172.58 33.376C172.404 33.3067 172.198 33.2507 171.964 33.208C171.734 33.16 171.468 33.136 171.164 33.136C170.646 33.136 170.172 33.2293 169.74 33.416C169.313 33.5973 168.945 33.864 168.636 34.216C168.326 34.5627 168.086 34.9893 167.916 35.496C167.745 35.9973 167.66 36.5707 167.66 37.216C167.66 37.8667 167.75 38.4453 167.932 38.952C168.118 39.4587 168.369 39.8853 168.684 40.232C168.998 40.5787 169.369 40.8453 169.796 41.032C170.222 41.2133 170.681 41.304 171.172 41.304C171.465 41.304 171.729 41.288 171.964 41.256C172.204 41.224 172.422 41.1733 172.62 41.104C172.822 41.0347 173.012 40.9467 173.188 40.84C173.369 40.728 173.548 40.592 173.724 40.432C173.777 40.384 173.833 40.3467 173.892 40.32C173.95 40.288 174.012 40.272 174.076 40.272ZM183.361 34.792V43H182.153C181.891 43 181.726 42.88 181.657 42.64L181.521 41.984C181.185 42.3253 180.814 42.6027 180.409 42.816C180.003 43.024 179.526 43.128 178.977 43.128C178.529 43.128 178.131 43.0533 177.785 42.904C177.443 42.7493 177.155 42.5333 176.921 42.256C176.686 41.9787 176.507 41.6507 176.385 41.272C176.267 40.888 176.209 40.4667 176.209 40.008V34.792H178.185V40.008C178.185 40.5093 178.299 40.8987 178.529 41.176C178.763 41.448 179.113 41.584 179.577 41.584C179.918 41.584 180.238 41.5093 180.537 41.36C180.835 41.2053 181.118 40.9947 181.385 40.728V34.792H183.361ZM187.32 31.112V43H185.344V31.112H187.32ZM192.025 43.128C191.31 43.128 190.761 42.928 190.377 42.528C189.998 42.1227 189.809 41.5653 189.809 40.856V36.272H188.969C188.862 36.272 188.771 36.2373 188.697 36.168C188.622 36.0987 188.585 35.9947 188.585 35.856V35.072L189.905 34.856L190.321 32.616C190.347 32.5093 190.398 32.4267 190.473 32.368C190.547 32.3093 190.643 32.28 190.761 32.28H191.785V34.864H193.977V36.272H191.785V40.72C191.785 40.976 191.846 41.176 191.969 41.32C192.097 41.464 192.27 41.536 192.489 41.536C192.611 41.536 192.713 41.5227 192.793 41.496C192.878 41.464 192.95 41.432 193.009 41.4C193.073 41.368 193.129 41.3387 193.177 41.312C193.225 41.28 193.273 41.264 193.321 41.264C193.379 41.264 193.427 41.28 193.465 41.312C193.502 41.3387 193.542 41.3813 193.585 41.44L194.177 42.4C193.889 42.64 193.558 42.8213 193.185 42.944C192.811 43.0667 192.425 43.128 192.025 43.128ZM202.314 34.792V43H201.106C200.844 43 200.679 42.88 200.61 42.64L200.474 41.984C200.138 42.3253 199.767 42.6027 199.362 42.816C198.956 43.024 198.479 43.128 197.93 43.128C197.482 43.128 197.084 43.0533 196.738 42.904C196.396 42.7493 196.108 42.5333 195.874 42.256C195.639 41.9787 195.46 41.6507 195.338 41.272C195.22 40.888 195.162 40.4667 195.162 40.008V34.792H197.138V40.008C197.138 40.5093 197.252 40.8987 197.482 41.176C197.716 41.448 198.066 41.584 198.53 41.584C198.871 41.584 199.191 41.5093 199.49 41.36C199.788 41.2053 200.071 40.9947 200.338 40.728V34.792H202.314ZM206.137 36.216C206.393 35.7253 206.697 35.3413 207.049 35.064C207.401 34.7813 207.817 34.64 208.297 34.64C208.676 34.64 208.98 34.7227 209.209 34.888L209.081 36.368C209.054 36.464 209.014 36.5333 208.961 36.576C208.913 36.6133 208.846 36.632 208.761 36.632C208.681 36.632 208.561 36.6187 208.401 36.592C208.246 36.5653 208.094 36.552 207.945 36.552C207.726 36.552 207.532 36.584 207.361 36.648C207.19 36.712 207.036 36.8053 206.897 36.928C206.764 37.0453 206.644 37.1893 206.537 37.36C206.436 37.5307 206.34 37.7253 206.249 37.944V43H204.273V34.792H205.433C205.636 34.792 205.777 34.8293 205.857 34.904C205.937 34.9733 205.99 35.1013 206.017 35.288L206.137 36.216ZM214.468 39.496C213.898 39.5227 213.418 39.5733 213.028 39.648C212.639 39.7173 212.327 39.808 212.092 39.92C211.858 40.032 211.69 40.1627 211.588 40.312C211.487 40.4613 211.436 40.624 211.436 40.8C211.436 41.1467 211.538 41.3947 211.74 41.544C211.948 41.6933 212.218 41.768 212.548 41.768C212.954 41.768 213.303 41.696 213.596 41.552C213.895 41.4027 214.186 41.1787 214.468 40.88V39.496ZM209.94 35.936C210.884 35.072 212.02 34.64 213.348 34.64C213.828 34.64 214.258 34.72 214.636 34.88C215.015 35.0347 215.335 35.2533 215.596 35.536C215.858 35.8133 216.055 36.1467 216.188 36.536C216.327 36.9253 216.396 37.352 216.396 37.816V43H215.5C215.314 43 215.17 42.9733 215.068 42.92C214.967 42.8613 214.887 42.7467 214.828 42.576L214.652 41.984C214.444 42.1707 214.242 42.336 214.044 42.48C213.847 42.6187 213.642 42.736 213.428 42.832C213.215 42.928 212.986 43 212.74 43.048C212.5 43.1013 212.234 43.128 211.94 43.128C211.594 43.128 211.274 43.0827 210.98 42.992C210.687 42.896 210.434 42.7547 210.22 42.568C210.007 42.3813 209.842 42.1493 209.724 41.872C209.607 41.5947 209.548 41.272 209.548 40.904C209.548 40.696 209.583 40.4907 209.652 40.288C209.722 40.08 209.834 39.8827 209.988 39.696C210.148 39.5093 210.354 39.3333 210.604 39.168C210.855 39.0027 211.162 38.8587 211.524 38.736C211.892 38.6133 212.319 38.5147 212.804 38.44C213.29 38.36 213.844 38.312 214.468 38.296V37.816C214.468 37.2667 214.351 36.8613 214.116 36.6C213.882 36.3333 213.543 36.2 213.1 36.2C212.78 36.2 212.514 36.2373 212.3 36.312C212.092 36.3867 211.908 36.472 211.748 36.568C211.588 36.6587 211.442 36.7413 211.308 36.816C211.18 36.8907 211.036 36.928 210.876 36.928C210.738 36.928 210.62 36.8933 210.524 36.824C210.428 36.7493 210.351 36.664 210.292 36.568L209.94 35.936Z" fill="#218738"/>
<circle opacity="0.5" cx="36" cy="36" r="28" fill="#C2C2C2"/>
<path d="M35.2432 50.4996C34.9756 50.3178 34.6114 50.3877 34.4299 50.6554C33.463 52.0811 32.2704 53.3201 30.8854 54.3377C28.1659 56.3359 24.5114 56.3358 21.7919 54.3377C18.1236 51.6426 15.8917 47.4885 15.6683 42.9394L15.1749 33.361C15.1229 32.3037 15.6101 31.311 16.4782 30.7057C17.3464 30.1004 18.446 29.9865 19.4195 30.4011L19.7353 30.5356C20.0332 30.6624 20.3769 30.5237 20.5035 30.226C20.6301 29.9283 20.4916 29.5843 20.194 29.4576L19.8782 29.3231C18.5312 28.7495 17.0096 28.907 15.8085 29.7446C14.6075 30.5821 13.9333 31.9555 14.0052 33.4199L14.4987 42.9983C14.7394 47.8998 17.145 52.3771 21.0987 55.282C22.6285 56.4061 24.4405 57.0002 26.3387 57.0002C28.2368 57.0002 30.0488 56.406 31.5786 55.282C33.0715 54.1851 34.3568 52.8498 35.399 51.3132C35.5807 51.0456 35.5109 50.6813 35.2432 50.4996Z" fill="#218738"/>
<path d="M36.8688 29.7446C35.6677 28.907 34.1463 28.7495 32.7992 29.3231L28.8453 31.0068C27.2523 31.6852 25.4251 31.6852 23.8321 31.0068L22.5233 30.4494C22.2257 30.3228 21.8819 30.4612 21.7552 30.759C21.6285 31.0567 21.767 31.4007 22.0646 31.5274L23.3734 32.0848C25.2578 32.8872 27.4194 32.8873 29.304 32.0848L33.2579 30.4011C34.2316 29.9864 35.3311 30.1004 36.1991 30.7056C37.0671 31.311 37.5544 32.3037 37.5026 33.3596L37.0091 42.941C36.9142 44.8727 36.455 46.7443 35.6444 48.5039C35.5091 48.7977 35.6374 49.1457 35.9311 49.2811C36.0106 49.3178 36.0938 49.335 36.1758 49.335C36.3973 49.335 36.6092 49.2087 36.708 48.9943C37.5816 47.0979 38.0764 45.0806 38.1787 42.9998L38.6722 33.4185C38.744 31.9556 38.0698 30.5821 36.8688 29.7446Z" fill="#218738"/>
<path d="M21.4771 46.9458C21.1197 46.7455 20.6841 46.8233 20.4181 47.1349C20.152 47.4465 20.1432 47.889 20.3969 48.2109L22.1096 50.3852C23.1372 51.6897 24.6788 52.4378 26.3389 52.4378C27.9992 52.4378 29.5407 51.6896 30.5684 50.3852L32.281 48.2109C32.5347 47.8891 32.526 47.4466 32.2598 47.1349C31.9938 46.8233 31.5583 46.7456 31.2008 46.9458C29.7188 47.7761 28.0376 48.2151 26.3389 48.2151C24.6403 48.215 22.9591 47.7761 21.4771 46.9458ZM29.6484 49.66C28.8442 50.6808 27.638 51.2662 26.3388 51.2662C25.0397 51.2662 23.8334 50.6807 23.0293 49.66L22.1765 48.5775C23.4954 49.1094 24.9117 49.3866 26.3388 49.3866C27.7659 49.3866 29.1822 49.1094 30.5011 48.5775L29.6484 49.66Z" fill="#218738"/>
<path d="M52.1912 17.7622C50.99 16.9246 49.4687 16.7671 48.1216 17.3407L44.1677 19.0245C42.5746 19.7029 40.7474 19.7028 39.1546 19.0245L35.2006 17.3407C33.8534 16.767 32.3322 16.9246 31.1311 17.7622C29.9299 18.5998 29.2556 19.9733 29.3275 21.4364L29.653 28.0631C29.6688 28.3862 29.9455 28.6349 30.2666 28.6195C30.5896 28.6035 30.8385 28.3287 30.8227 28.0056L30.4972 21.3789C30.4453 20.3215 30.9325 19.3288 31.8007 18.7234C32.6689 18.1181 33.7683 18.0043 34.7418 18.4189L38.6958 20.1026C40.5802 20.9051 42.7417 20.9051 44.6263 20.1026L48.5802 18.4189C49.5538 18.0043 50.6533 18.1182 51.5214 18.7234C52.3895 19.3288 52.8768 20.3215 52.8249 21.3789L52.3314 31.4275C52.2703 32.6714 52.0541 33.9068 51.6889 35.0993C51.5941 35.4087 51.768 35.7363 52.0772 35.8311C52.1344 35.8486 52.1922 35.8569 52.249 35.8569C52.4996 35.8569 52.7314 35.6948 52.8087 35.4426C53.2024 34.1573 53.4353 32.8257 53.5012 31.4849L53.9947 21.4363C54.0665 19.9733 53.3923 18.5998 52.1912 17.7622Z" fill="#218738"/>
<path d="M51.544 37.1646C51.255 37.0198 50.903 37.1369 50.7584 37.4263C49.6954 39.5517 48.1218 41.4184 46.208 42.8247C44.3974 44.155 42.1031 44.6249 39.9136 44.1138C39.5989 44.0404 39.2838 44.236 39.2103 44.5512C39.1368 44.8663 39.3325 45.1814 39.6475 45.2549C40.3157 45.4109 40.9922 45.4876 41.6647 45.4876C43.5317 45.4876 45.3672 44.8963 46.9012 43.7691C48.964 42.2535 50.66 40.2414 51.8057 37.9507C51.9503 37.6613 51.8332 37.3094 51.544 37.1646Z" fill="#218738"/>
<path d="M40.1341 36.7741C39.8138 36.8184 39.5901 37.1142 39.6345 37.4347C39.6789 37.7553 39.9742 37.9792 40.2949 37.9346C42.4313 37.6384 44.6434 38.0554 46.5229 39.1085C46.6555 39.1828 46.7989 39.2189 46.9404 39.2188C47.1802 39.2188 47.4146 39.1153 47.582 38.9193C47.848 38.6077 47.8569 38.1653 47.6032 37.8433L45.8904 35.669C44.5404 33.955 42.3081 33.2276 40.2031 33.8158C39.8916 33.9029 39.7096 34.2261 39.7966 34.5376C39.8836 34.8493 40.2067 35.0314 40.5181 34.9443C42.1662 34.4837 43.9139 35.0528 44.9705 36.3941L45.8245 37.4784C44.0314 36.7575 42.0556 36.5079 40.1341 36.7741Z" fill="#218738"/>
<path d="M23.5318 33.9159C21.3363 32.9065 19.3217 32.9149 17.5445 33.9408C17.2644 34.1025 17.1683 34.4607 17.3299 34.741C17.4915 35.0212 17.8495 35.1172 18.1297 34.9556C19.5793 34.119 21.1861 34.1271 23.0427 34.9806C23.1219 35.0169 23.205 35.0342 23.2868 35.0342C23.5086 35.0342 23.7207 34.9076 23.8192 34.6929C23.9545 34.3988 23.8256 34.051 23.5318 33.9159Z" fill="#218738"/>
<path d="M22.1322 40.4632C22.2335 40.4932 22.3363 40.508 22.4382 40.508C22.6642 40.508 22.8854 40.4353 23.0727 40.2953C23.3433 40.093 23.4986 39.783 23.4986 39.4449V38.6466C23.4986 37.0245 22.1935 35.6969 20.5886 35.687H20.5352C18.9311 35.6969 17.626 37.0245 17.626 38.6466V39.4228C17.626 39.7605 17.7885 40.0814 18.0605 40.2813C18.3349 40.4828 18.6776 40.5401 19.0014 40.4385C19.9968 40.1262 21.0208 40.1342 22.1322 40.4632ZM18.7971 39.2767V38.6467C18.7971 37.6668 19.58 36.8647 20.5416 36.8588H20.5822C21.5446 36.8648 22.3275 37.6668 22.3275 38.6467V39.3004C21.702 39.1275 21.0861 39.0411 20.4829 39.0411C19.908 39.041 19.345 39.1196 18.7971 39.2767Z" fill="#218738"/>
<path d="M35.1319 34.7411C35.2935 34.4608 35.1975 34.1026 34.9173 33.9408C33.1401 32.9149 31.1259 32.9065 28.9301 33.9159C28.6362 34.051 28.5075 34.3989 28.6425 34.6929C28.7411 34.9076 28.9532 35.0342 29.1749 35.0342C29.2567 35.0342 29.3398 35.0169 29.4191 34.9805C31.2755 34.127 32.8825 34.1189 34.332 34.9556C34.6121 35.1173 34.9702 35.0212 35.1319 34.7411Z" fill="#218738"/>
<path d="M31.9263 35.688H31.8728C30.2686 35.6978 28.9636 37.0253 28.9636 38.6471V39.4452C28.9636 39.7833 29.1188 40.0932 29.3895 40.2955C29.5768 40.4354 29.7979 40.5081 30.024 40.5081C30.1258 40.5081 30.2288 40.4933 30.33 40.4633C31.4413 40.1344 32.4653 40.1263 33.4607 40.4387C33.7843 40.5403 34.1273 40.483 34.4016 40.2816C34.6737 40.0816 34.8362 39.7608 34.8362 39.4232V38.6471C34.8363 37.0253 33.5312 35.6978 31.9263 35.688ZM33.6652 39.2769C32.5425 38.955 31.3564 38.963 30.1348 39.3006V38.647C30.1348 37.6673 30.9177 36.8653 31.8793 36.8594H31.9199C32.8823 36.8654 33.6652 37.6673 33.6652 38.647V39.2769H33.6652Z" fill="#218738"/>
<path d="M38.9619 21.7946C36.7665 20.7848 34.7519 20.7932 32.9747 21.8196C32.6945 21.9813 32.5985 22.3398 32.7601 22.6201C32.9216 22.9004 33.2797 22.9966 33.5599 22.8349C35.0094 21.9979 36.6164 22.0059 38.4729 22.8598C38.5521 22.8962 38.6352 22.9135 38.717 22.9135C38.9387 22.9135 39.1509 22.7868 39.2494 22.572C39.3846 22.2778 39.2558 21.9298 38.9619 21.7946Z" fill="#218738"/>
<path d="M38.4941 23.7138C38.2199 23.5123 37.8768 23.4551 37.5532 23.5566C36.5579 23.8691 35.5339 23.8609 34.4225 23.532C34.0963 23.4356 33.7538 23.4968 33.4821 23.6999C33.2114 23.9022 33.0562 24.2121 33.0562 24.5502V25.3484C33.0562 26.9704 34.3612 28.298 35.9646 28.3077C35.974 28.3077 35.9833 28.3078 35.9925 28.3078C36.0015 28.3078 36.0106 28.3078 36.0195 28.3077C37.6236 28.298 38.9287 26.9704 38.9287 25.3484V24.5723C38.9287 24.2346 38.7662 23.9137 38.4941 23.7138ZM37.7576 25.3484C37.7576 26.3282 36.9747 27.1302 36.0118 27.136H35.9726C35.0103 27.1302 34.2274 26.3282 34.2274 25.3484V24.6947C35.4487 25.0323 36.6349 25.0403 37.7576 24.7185V25.3484Z" fill="#218738"/>
<path d="M50.5623 22.6198C50.7239 22.3395 50.6279 21.9812 50.3478 21.8194C48.5705 20.7932 46.5562 20.7848 44.3605 21.7945C44.0666 21.9296 43.9379 22.2776 44.0729 22.5716C44.1715 22.7864 44.3836 22.9131 44.6053 22.9131C44.6872 22.9131 44.7702 22.8958 44.8495 22.8594C46.7059 22.0056 48.3129 21.9976 49.7624 22.8345C50.0426 22.9962 50.4008 22.9001 50.5623 22.6198Z" fill="#218738"/>
<path d="M49.8403 23.6998C49.5685 23.4967 49.2259 23.4356 48.9 23.532C47.7887 23.8609 46.7647 23.8691 45.7692 23.5566C45.4457 23.4552 45.1026 23.5123 44.8284 23.7138C44.5563 23.9137 44.3938 24.2346 44.3938 24.5721V25.3482C44.3938 26.9701 45.6988 28.2976 47.3023 28.3073C47.3116 28.3073 47.3209 28.3074 47.3301 28.3074C47.3392 28.3074 47.3482 28.3074 47.3571 28.3073C48.9613 28.2976 50.2663 26.97 50.2663 25.3482V24.5501C50.2663 24.212 50.1111 23.902 49.8403 23.6998ZM49.0952 25.3482C49.0952 26.328 48.3123 27.1299 47.3493 27.1358H47.3101C46.3479 27.1299 45.5649 26.328 45.5649 25.3482V24.7183C46.6876 25.0401 47.8738 25.0322 49.0952 24.6946V25.3482Z" fill="#218738"/>
</svg>
