<svg width="207" height="90" viewBox="0 0 207 90" fill="none" xmlns="http://www.w3.org/2000/svg">
<line x1="54" y1="88" x2="144" y2="88" stroke="#F9F9F9" stroke-width="4"/>
<path d="M86.576 27.784L87.152 26.92H91.184L96.24 44.84H96.752L101.808 26.92H105.84L106.416 27.784L100.144 49H92.848L86.576 27.784ZM112.311 49C108.855 49 107.127 47.304 107.127 43.912C107.127 40.52 108.855 38.824 112.311 38.824H116.727V36.968C116.727 36.2853 116.385 35.944 115.703 35.944H108.919V33.544L110.839 32.104H115.959C119.415 32.104 121.143 33.832 121.143 37.288V49H112.311ZM111.543 44.136C111.543 44.8187 111.884 45.16 112.567 45.16H116.727V42.28H112.567C111.884 42.28 111.543 42.6213 111.543 43.304V44.136ZM125.489 42.856V25.32H129.905V43.304C129.905 44.6267 130.587 45.352 131.953 45.48V49.32C127.643 49.32 125.489 47.1653 125.489 42.856ZM135.267 43.816V37.288C135.267 33.832 136.995 32.104 140.451 32.104H144.931C148.387 32.104 150.115 33.832 150.115 37.288V43.816C150.115 47.272 148.387 49 144.931 49H140.451C136.995 49 135.267 47.272 135.267 43.816ZM139.683 44.136C139.683 44.8187 140.024 45.16 140.707 45.16H144.675C145.357 45.16 145.699 44.8187 145.699 44.136V36.968C145.699 36.2853 145.357 35.944 144.675 35.944H140.707C140.024 35.944 139.683 36.2853 139.683 36.968V44.136ZM154.332 49V34.28C155.122 32.8293 156.636 32.104 158.876 32.104H162.332L164.252 33.544V35.944H159.932C159.356 35.944 158.962 36.0827 158.748 36.36V49H154.332ZM167.142 43.816V37.288C167.142 33.832 168.87 32.104 172.326 32.104H176.486C179.942 32.104 181.67 33.832 181.67 37.288V42.216H171.558V44.136C171.558 44.8187 171.899 45.16 172.582 45.16H181.03V47.56L179.11 49H172.326C168.87 49 167.142 47.272 167.142 43.816ZM171.558 38.76H177.254V36.968C177.254 36.2853 176.912 35.944 176.23 35.944H172.582C171.899 35.944 171.558 36.2853 171.558 36.968V38.76ZM185.447 47.56V45.16H192.807C193.532 45.16 193.895 44.7547 193.895 43.944C193.895 43.112 193.575 42.6427 192.935 42.536L189.479 41.96C186.791 41.512 185.447 39.9547 185.447 37.288C185.447 33.832 187.175 32.104 190.631 32.104H195.591L197.511 33.544V35.944H190.919C190.193 35.944 189.831 36.3493 189.831 37.16C189.831 37.992 190.151 38.4613 190.791 38.568L194.247 39.144C196.935 39.592 198.279 41.1493 198.279 43.816C198.279 47.272 196.551 49 193.095 49H187.367L185.447 47.56Z" fill="#59416C"/>
<path d="M86.576 29.784L87.152 28.92H91.184L96.24 46.84H96.752L101.808 28.92H105.84L106.416 29.784L100.144 51H92.848L86.576 29.784ZM112.311 51C108.855 51 107.127 49.304 107.127 45.912C107.127 42.52 108.855 40.824 112.311 40.824H116.727V38.968C116.727 38.2853 116.385 37.944 115.703 37.944H108.919V35.544L110.839 34.104H115.959C119.415 34.104 121.143 35.832 121.143 39.288V51H112.311ZM111.543 46.136C111.543 46.8187 111.884 47.16 112.567 47.16H116.727V44.28H112.567C111.884 44.28 111.543 44.6213 111.543 45.304V46.136ZM125.489 44.856V27.32H129.905V45.304C129.905 46.6267 130.587 47.352 131.953 47.48V51.32C127.643 51.32 125.489 49.1653 125.489 44.856ZM135.267 45.816V39.288C135.267 35.832 136.995 34.104 140.451 34.104H144.931C148.387 34.104 150.115 35.832 150.115 39.288V45.816C150.115 49.272 148.387 51 144.931 51H140.451C136.995 51 135.267 49.272 135.267 45.816ZM139.683 46.136C139.683 46.8187 140.024 47.16 140.707 47.16H144.675C145.357 47.16 145.699 46.8187 145.699 46.136V38.968C145.699 38.2853 145.357 37.944 144.675 37.944H140.707C140.024 37.944 139.683 38.2853 139.683 38.968V46.136ZM154.332 51V36.28C155.122 34.8293 156.636 34.104 158.876 34.104H162.332L164.252 35.544V37.944H159.932C159.356 37.944 158.962 38.0827 158.748 38.36V51H154.332ZM167.142 45.816V39.288C167.142 35.832 168.87 34.104 172.326 34.104H176.486C179.942 34.104 181.67 35.832 181.67 39.288V44.216H171.558V46.136C171.558 46.8187 171.899 47.16 172.582 47.16H181.03V49.56L179.11 51H172.326C168.87 51 167.142 49.272 167.142 45.816ZM171.558 40.76H177.254V38.968C177.254 38.2853 176.912 37.944 176.23 37.944H172.582C171.899 37.944 171.558 38.2853 171.558 38.968V40.76ZM185.447 49.56V47.16H192.807C193.532 47.16 193.895 46.7547 193.895 45.944C193.895 45.112 193.575 44.6427 192.935 44.536L189.479 43.96C186.791 43.512 185.447 41.9547 185.447 39.288C185.447 35.832 187.175 34.104 190.631 34.104H195.591L197.511 35.544V37.944H190.919C190.193 37.944 189.831 38.3493 189.831 39.16C189.831 39.992 190.151 40.4613 190.791 40.568L194.247 41.144C196.935 41.592 198.279 43.1493 198.279 45.816C198.279 49.272 196.551 51 193.095 51H187.367L185.447 49.56Z" fill="#F9F9F9"/>
<g clip-path="url(#clip0_373:63)">
<rect x="6" y="38" width="4" height="20" fill="#59416C"/>
<rect x="68" y="15" width="4" height="20" fill="#59416C"/>
<path d="M44.1619 59.3616H38.5542C37.7561 59.3616 37.1091 60.0086 37.1091 60.8068C37.1091 61.6051 37.7561 62.252 38.5542 62.252H44.1619C45.0273 62.252 45.7315 62.956 45.7315 63.8214C45.7315 64.6869 45.0275 65.3909 44.1619 65.3909H29.0665C26.7973 65.3909 24.6635 64.3905 23.2124 62.646L19.6024 58.3069C17.6654 55.9785 14.8464 54.6148 11.83 54.5285V45.9915H17.1511C19.7752 45.9915 22.2598 46.9951 24.1475 48.8174L31.9389 56.3381C32.4897 56.8698 32.5154 57.7601 31.9961 58.3226C31.4669 58.8958 30.5684 58.9333 29.9934 58.4062L23.8764 52.7989C23.2883 52.2597 22.374 52.2993 21.8347 52.8877C21.2953 53.4761 21.3351 54.3902 21.9235 54.9295L28.0405 60.5367C28.8654 61.2929 29.9094 61.6663 30.9507 61.6663C32.1133 61.6663 33.2726 61.2008 34.12 60.2829C35.6963 58.5753 35.6184 55.8728 33.9463 54.2587L26.1549 46.738C23.7255 44.3929 20.5279 43.1013 17.1511 43.1013H11.5493C11.0056 41.8144 9.7304 40.9089 8.24781 40.9089H1.44517C0.647065 40.9089 0 41.5559 0 42.3541V52.9218C0 53.7199 0.647065 54.3669 1.44517 54.3669C2.24327 54.3669 2.89033 53.72 2.89033 52.9218V43.7991H8.24795C8.62951 43.7991 8.93982 44.1096 8.93982 44.491V56.0741C8.93982 56.4556 8.62951 56.766 8.24795 56.766H6.74699C5.94889 56.766 5.30183 57.4129 5.30183 58.2112C5.30183 59.0093 5.94889 59.6563 6.74699 59.6563H8.24781C9.75035 59.6563 11.0388 58.7261 11.57 57.4116C13.8229 57.4245 15.9387 58.4222 17.3806 60.1554L20.9905 64.4945C22.9926 66.9011 25.9361 68.2812 29.0665 68.2812H44.1619C46.6209 68.2812 48.6217 66.2806 48.6217 63.8214C48.6217 61.3622 46.6209 59.3616 44.1619 59.3616Z" fill="#F9F9F9"/>
<path d="M72.5547 19.0686C71.7566 19.0686 71.1095 19.7155 71.1095 20.5138V30.201H65.7519C65.3703 30.201 65.06 29.8905 65.06 29.5091V17.926C65.06 17.5445 65.3703 17.2341 65.7519 17.2341H67.1468C67.9449 17.2341 68.5919 16.5872 68.5919 15.7889C68.5919 14.9908 67.9449 14.3438 67.1468 14.3438H65.7519C64.2494 14.3438 62.9609 15.274 62.4297 16.5885C60.1768 16.5756 58.061 15.5779 56.6191 13.8447L53.0092 9.50573C51.0073 7.09914 48.0636 5.71887 44.9331 5.71887H29.838C27.3789 5.71887 25.3782 7.71947 25.3782 10.1785C25.3782 12.6376 27.3789 14.6382 29.838 14.6382H36.0106C36.8087 14.6382 37.4558 13.9912 37.4558 13.193C37.4558 12.3948 36.8087 11.7478 36.0106 11.7478H29.838C28.9725 11.7478 28.2684 11.0438 28.2684 10.1784C28.2684 9.31307 28.9724 8.60891 29.838 8.60891H44.9332C47.2025 8.60891 49.3364 9.60936 50.7874 11.3538L54.3974 15.6928C56.3343 18.0212 59.1535 19.3849 62.1698 19.4713V28.0083H56.8488C54.2247 28.0083 51.7401 27.0047 49.8523 25.1824L42.061 17.6618C41.5101 17.13 41.4844 16.2399 42.0037 15.6772C42.533 15.1038 43.4314 15.0666 44.0065 15.5937L50.1236 21.2009C50.712 21.7401 51.6259 21.7005 52.1654 21.1121C52.7047 20.5238 52.6649 19.6096 52.0765 19.0704L45.9594 13.4633C44.2135 11.8629 41.4864 11.9769 39.8798 13.7171C38.3036 15.4248 38.3815 18.1273 40.0536 19.7413L47.8449 27.2619C50.2744 29.6071 53.472 30.8986 56.8488 30.8986H62.4505C62.9943 32.1855 64.2694 33.091 65.752 33.091H72.5548C73.3529 33.091 74 32.4441 74 31.6458V20.5135C73.9998 19.7155 73.3528 19.0686 72.5547 19.0686Z" fill="#F9F9F9"/>
<path d="M46.6602 54.8702C46.3315 54.1429 45.4773 53.8184 44.7506 54.1469C44.0187 54.4656 43.684 55.3172 44.0027 56.0488C44.2394 56.5927 44.7707 56.9173 45.3283 56.9173C45.521 56.9173 45.7167 56.8786 45.9046 56.7968C45.9106 56.7942 45.9297 56.7856 45.9356 56.783C46.6631 56.4545 46.9887 55.5976 46.6602 54.8702Z" fill="#F9F9F9"/>
<path d="M50.2524 52.4372C49.78 51.7955 48.8719 51.6619 48.2294 52.1322C47.5856 52.6037 47.4456 53.508 47.9171 54.1519C48.2002 54.5385 48.639 54.7434 49.0842 54.7434C49.3805 54.7434 49.6795 54.6527 49.9368 54.4644C49.9391 54.4628 49.9527 54.4527 49.9548 54.4511C50.595 53.977 50.7248 53.0786 50.2524 52.4372Z" fill="#F9F9F9"/>
<path d="M42.6198 56.4925C42.4551 55.7142 41.691 55.2159 40.912 55.3769C40.1338 55.5314 39.6251 56.2851 39.7742 57.0656C39.9066 57.7579 40.5124 58.2396 41.1921 58.2396C41.282 58.2396 41.3735 58.2311 41.465 58.2136C41.4744 58.2117 41.4981 58.207 41.5076 58.2049C42.2881 58.0395 42.785 57.2731 42.6198 56.4925Z" fill="#F9F9F9"/>
<path d="M53.2714 49.2939C52.6789 48.7594 51.7653 48.8064 51.2305 49.3991C51.2234 49.4071 51.2068 49.4258 51.1999 49.4338C50.6784 50.0381 50.7458 50.9506 51.3501 51.472C51.6231 51.7076 51.959 51.8229 52.2933 51.8229C52.6946 51.8229 53.0937 51.6567 53.379 51.3324C53.9111 50.7396 53.8633 49.8276 53.2714 49.2939ZM52.4644 50.5124L52.3037 50.367L52.4777 50.524L52.4644 50.5124Z" fill="#F9F9F9"/>
<path d="M56.9496 41.4621C56.1859 41.2304 55.378 41.6662 55.1463 42.4301C54.9116 43.1929 55.3397 44.0015 56.1025 44.2363C56.244 44.2799 56.3871 44.3006 56.5279 44.3006C57.1456 44.3006 57.7175 43.9014 57.9086 43.28L57.9147 43.2602C58.1462 42.4964 57.7133 41.6937 56.9496 41.4621Z" fill="#F9F9F9"/>
<path d="M58.8006 34.0035C58.7974 33.9851 58.794 33.9667 58.7901 33.9484C58.6269 33.1673 57.8614 32.6677 57.0807 32.8306C56.3027 32.9928 55.8025 33.7536 55.9591 34.5314C56.0917 35.221 56.6959 35.7036 57.3764 35.7036C57.4609 35.7036 57.5468 35.6962 57.6328 35.6807C58.4185 35.5401 58.9412 34.7891 58.8006 34.0035Z" fill="#F9F9F9"/>
<path d="M57.4755 37.139C56.683 37.069 55.9792 37.6565 55.9091 38.4514C55.9078 38.4655 55.9057 38.4939 55.9049 38.508C55.858 39.3048 56.4658 39.9887 57.2626 40.0355C57.2915 40.0372 57.3201 40.0381 57.3487 40.0381C58.1012 40.0381 58.7335 39.4562 58.7889 38.6984C58.8548 37.9064 58.2682 37.2089 57.4755 37.139Z" fill="#F9F9F9"/>
<path d="M55.5351 45.5742C54.8413 45.181 53.9588 45.4246 53.5654 46.1191L53.5453 46.1552C53.1648 46.8568 53.4216 47.7403 54.123 48.1209C54.3437 48.2405 54.5812 48.2973 54.8152 48.2973C55.3252 48.2973 55.8179 48.0268 56.0788 47.5458L54.8225 46.8315L56.0798 47.544C56.4734 46.8496 56.2295 45.9678 55.5351 45.5742Z" fill="#F9F9F9"/>
<path d="M29.3246 18.0519C28.9677 17.3379 28.0992 17.0484 27.3858 17.4055L27.373 17.4119C26.659 17.7689 26.3761 18.6336 26.7331 19.3475C26.9859 19.8532 27.4981 20.1443 28.0291 20.1443C28.2479 20.1443 28.4699 20.0948 28.6782 19.9908C29.3922 19.6339 29.6814 18.7659 29.3246 18.0519Z" fill="#F9F9F9"/>
<path d="M33.5054 16.847C33.3174 16.0716 32.5372 15.5949 31.7604 15.7831C31.7537 15.7847 31.7332 15.7899 31.7266 15.7916C30.9536 15.9908 30.4855 16.7795 30.6845 17.5523C30.8526 18.2044 31.4375 18.6379 32.0805 18.6379C32.1996 18.6379 32.3207 18.623 32.4415 18.5919C33.2171 18.4039 33.6935 17.6227 33.5054 16.847Z" fill="#F9F9F9"/>
<path d="M25.5035 20.1359C25.0037 19.5149 24.0937 19.4173 23.4719 19.916L24.3679 21.0498L23.4676 19.9193C22.8432 20.4165 22.7402 21.3256 23.2372 21.95C23.5228 22.3084 23.9438 22.495 24.3689 22.495C24.6843 22.495 25.0021 22.3921 25.2682 22.1803L25.2872 22.165C25.9073 21.6642 26.0032 20.757 25.5035 20.1359Z" fill="#F9F9F9"/>
<path d="M17.798 30.4182C17.0279 30.2083 16.2336 30.662 16.0236 31.4321C16.02 31.4452 16.013 31.4725 16.0097 31.4858C15.8218 32.2612 16.2982 33.041 17.0735 33.2293C17.1879 33.2571 17.3024 33.2704 17.4151 33.2704C18.0635 33.2704 18.6526 32.8304 18.8168 32.1747C19.0149 31.4104 18.5621 30.6266 17.798 30.4182Z" fill="#F9F9F9"/>
<path d="M16.8774 34.6643C16.0786 34.6199 15.3972 35.2268 15.351 36.0234C15.3498 36.0421 15.3491 36.0606 15.3485 36.0791C15.3251 36.8765 15.9525 37.5409 16.7501 37.5647C16.7648 37.5652 16.7792 37.5654 16.7938 37.5654C17.5685 37.5654 18.2087 36.9508 18.2373 36.1726C18.2734 35.3836 17.6681 34.7102 16.8774 34.6643Z" fill="#F9F9F9"/>
<path d="M19.6168 26.4687C18.9099 26.0979 18.0365 26.3703 17.6658 27.0771L17.6423 27.1236C17.29 27.8395 17.5855 28.704 18.3012 29.0566C18.5061 29.1576 18.7233 29.2053 18.9377 29.2053C19.4684 29.2053 19.9793 28.9116 20.2325 28.4057C20.5924 27.7014 20.319 26.8371 19.6168 26.4687Z" fill="#F9F9F9"/>
<path d="M22.2268 22.9918C21.6126 22.482 20.7015 22.5666 20.1918 23.1806C20.1848 23.1891 20.1689 23.2087 20.162 23.2173C19.6665 23.8427 19.7725 24.75 20.3976 25.2458C20.6629 25.4563 20.9795 25.5584 21.294 25.5584C21.7179 25.5584 22.1382 25.3728 22.4236 25.017C22.9243 24.4031 22.8376 23.499 22.2268 22.9918Z" fill="#F9F9F9"/>
<path d="M18.5105 40.1836C18.3699 39.3979 17.6185 38.8752 16.8332 39.0159C16.0476 39.1567 15.5248 39.9076 15.6654 40.6932L15.668 40.7074C15.7932 41.4059 16.3998 41.8911 17.085 41.8911C17.1704 41.8911 17.257 41.8836 17.344 41.868C18.1297 41.7273 18.6513 40.9693 18.5105 40.1836Z" fill="#F9F9F9"/>
<path d="M41.962 29.2133C40.0809 29.2133 38.338 29.989 37.0961 31.298C35.854 29.989 34.1112 29.2133 32.2302 29.2133C28.5297 29.2133 25.5193 32.2237 25.5193 35.9241C25.5193 37.9208 26.3999 39.8 27.9351 41.08C27.9444 41.0878 27.9539 41.0954 27.9635 41.1031L36.199 47.6232C36.4617 47.8313 36.7788 47.9352 37.0959 47.9352C37.4145 47.9352 37.733 47.8303 37.9964 47.6204L46.5808 40.7827C46.6228 40.7493 46.6629 40.7134 46.7009 40.6756C47.9726 39.4073 48.6729 37.7199 48.6729 35.9241C48.6729 32.2237 45.6624 29.2133 41.962 29.2133ZM44.7121 38.5764L37.0935 44.645L29.773 38.8494C28.9064 38.1204 28.4096 37.0554 28.4096 35.9244C28.4095 33.8176 30.1235 32.1036 32.2302 32.1036C33.7811 32.1036 35.167 33.0299 35.761 34.4633C35.9849 35.0032 36.5117 35.3552 37.0961 35.3552C37.6804 35.3552 38.2072 35.0033 38.4311 34.4633C39.0251 33.0299 40.411 32.1036 41.962 32.1036C44.0687 32.1036 45.7827 33.8176 45.7827 35.9243C45.7827 36.9218 45.403 37.8607 44.7121 38.5764Z" fill="#F9F9F9"/>
<path d="M1.44523 59.6515C2.24058 59.6515 2.88534 59.0067 2.88534 58.2113C2.88534 57.416 2.24058 56.7712 1.44523 56.7712C0.649885 56.7712 0.00512695 57.416 0.00512695 58.2113C0.00512695 59.0067 0.649885 59.6515 1.44523 59.6515Z" fill="#F9F9F9"/>
<path d="M72.5546 17.2286C73.35 17.2286 73.9947 16.5838 73.9947 15.7885C73.9947 14.9931 73.35 14.3484 72.5546 14.3484C71.7593 14.3484 71.1145 14.9931 71.1145 15.7885C71.1145 16.5838 71.7593 17.2286 72.5546 17.2286Z" fill="#F9F9F9"/>
</g>
<defs>
<clipPath id="clip0_373:63">
<rect width="74" height="74" fill="white"/>
</clipPath>
</defs>
</svg>
